<svg width="40" height="40" viewBox="0 0 40 40" fill="none" xmlns="http://www.w3.org/2000/svg">
<path d="M17.8966 20L12.1365 16.5655H4.86207C4.36822 16.5655 3.89458 16.3706 3.54538 16.0237C3.19617 15.6768 3 15.2062 3 14.7156V4.84984C3 4.35923 3.19617 3.88874 3.54538 3.54183C3.89458 3.19492 4.36822 3 4.86207 3H19.1379C19.6318 3 20.1054 3.19492 20.4546 3.54183C20.8038 3.88874 21 4.35923 21 4.84984V14.7156C21 15.2062 20.8038 15.6768 20.4546 16.0237C20.1054 16.3706 19.6318 16.5655 19.1379 16.5655H17.8966V20ZM4.86207 4.23322C4.69745 4.23322 4.53947 4.2982 4.42307 4.41383C4.30667 4.52947 4.24138 4.6863 4.24138 4.84984V14.7156C4.24138 14.8792 4.30667 15.036 4.42307 15.1517C4.53947 15.2673 4.69745 15.3322 4.86207 15.3322H12.4779L16.6552 17.7987V15.3322H19.1379C19.3025 15.3322 19.4604 15.2673 19.5768 15.1517C19.6932 15.036 19.7586 14.8792 19.7586 14.7156V4.84984C19.7586 4.6863 19.6932 4.52947 19.5768 4.41383C19.4604 4.2982 19.3025 4.23322 19.1379 4.23322H4.86207Z" fill="#00004B"/>
<path d="M22.1034 37V33.5655H20.8621C20.3682 33.5655 19.8946 33.3706 19.5454 33.0237C19.1962 32.6768 19 32.2062 19 31.7156V21.8498C19 21.3592 19.1962 20.8887 19.5454 20.5418C19.8946 20.1949 20.3682 20 20.8621 20H35.1379C35.6318 20 36.1054 20.1949 36.4546 20.5418C36.8038 20.8887 37 21.3592 37 21.8498V31.7156C37 32.2062 36.8038 32.6768 36.4546 33.0237C36.1054 33.3706 35.6318 33.5655 35.1379 33.5655H27.8573L22.1034 37ZM20.8621 21.2332C20.6975 21.2332 20.5395 21.2982 20.4231 21.4138C20.3067 21.5295 20.2414 21.6863 20.2414 21.8498V31.7156C20.2414 31.8792 20.3067 32.036 20.4231 32.1517C20.5395 32.2673 20.6975 32.3322 20.8621 32.3322H23.3448V34.7987L27.5158 32.3322H35.1379C35.3025 32.3322 35.4604 32.2673 35.5768 32.1517C35.6932 32.036 35.7586 31.8792 35.7586 31.7156V21.8498C35.7586 21.6863 35.6932 21.5295 35.5768 21.4138C35.4604 21.2982 35.3025 21.2332 35.1379 21.2332H20.8621Z" fill="#00004B"/>
<path d="M24 5H23V6H24V5Z" fill="#00004B"/>
<path d="M28 7H27V8H28V7Z" fill="#00004B"/>
<path d="M33 18H32V19H33V18Z" fill="#00004B"/>
<path d="M33 14H32V15H33V14Z" fill="#00004B"/>
<path d="M31 10H30V11H31V10Z" fill="#00004B"/>
<path d="M8 18H7V19H8V18Z" fill="#00004B"/>
<path d="M17 30H16V31H17V30Z" fill="#00004B"/>
<path d="M13 28H12V29H13V28Z" fill="#00004B"/>
<path d="M8 22H7V23H8V22Z" fill="#00004B"/>
<path d="M10 25H9V26H10V25Z" fill="#00004B"/>
<path d="M11 6H6V7H11V6Z" fill="#00004B"/>
<path d="M16 9H6V10H16V9Z" fill="#00004B"/>
<path d="M16 12H6V13H16V12Z" fill="#00004B"/>
<path d="M27 23H22V24H27V23Z" fill="#00004B"/>
<path d="M33 26H22V27H33V26Z" fill="#00004B"/>
</svg>
