<svg width="150" height="150" viewBox="0 0 150 150" fill="none" xmlns="http://www.w3.org/2000/svg">
<path d="M39.5 37C39.5 35.8954 40.3954 35 41.5 35H107.5C108.605 35 109.5 35.8954 109.5 37V46C109.5 47.1046 108.605 48 107.5 48H41.5C40.3954 48 39.5 47.1046 39.5 46V37Z" fill="#BCBCD2"/>
<path d="M18 66C18 64.8954 18.8954 64 20 64H51C52.1046 64 53 64.8954 53 66V75C53 76.1046 52.1046 77 51 77H20C18.8954 77 18 76.1046 18 75V66Z" fill="#BCBCD2"/>
<path d="M18 84C18 82.8954 18.8954 82 20 82H51C52.1046 82 53 82.8954 53 84V88C53 89.1046 52.1046 90 51 90H20C18.8954 90 18 89.1046 18 88V84Z" fill="#BCBCD2"/>
<path d="M18 97C18 95.8954 18.8954 95 20 95H51C52.1046 95 53 95.8954 53 97V101C53 102.105 52.1046 103 51 103H20C18.8954 103 18 102.105 18 101V97Z" fill="#BCBCD2"/>
<path d="M18 110C18 108.895 18.8954 108 20 108H51C52.1046 108 53 108.895 53 110V114C53 115.105 52.1046 116 51 116H20C18.8954 116 18 115.105 18 114V110Z" fill="#BCBCD2"/>
<path d="M57 66C57 64.8954 57.8954 64 59 64H90C91.1046 64 92 64.8954 92 66V75C92 76.1046 91.1046 77 90 77H59C57.8954 77 57 76.1046 57 75V66Z" fill="#BCBCD2"/>
<path d="M57 84C57 82.8954 57.8954 82 59 82H90C91.1046 82 92 82.8954 92 84V88C92 89.1046 91.1046 90 90 90H59C57.8954 90 57 89.1046 57 88V84Z" fill="#BCBCD2"/>
<path d="M57 97C57 95.8954 57.8954 95 59 95H90C91.1046 95 92 95.8954 92 97V101C92 102.105 91.1046 103 90 103H59C57.8954 103 57 102.105 57 101V97Z" fill="#BCBCD2"/>
<path d="M57 110C57 108.895 57.8954 108 59 108H90C91.1046 108 92 108.895 92 110V114C92 115.105 91.1046 116 90 116H59C57.8954 116 57 115.105 57 114V110Z" fill="#BCBCD2"/>
<path d="M96 66C96 64.8954 96.8954 64 98 64H129C130.105 64 131 64.8954 131 66V75C131 76.1046 130.105 77 129 77H98C96.8954 77 96 76.1046 96 75V66Z" fill="#BCBCD2"/>
<path d="M96 84C96 82.8954 96.8954 82 98 82H129C130.105 82 131 82.8954 131 84V88C131 89.1046 130.105 90 129 90H98C96.8954 90 96 89.1046 96 88V84Z" fill="#BCBCD2"/>
<path d="M96 97C96 95.8954 96.8954 95 98 95H129C130.105 95 131 95.8954 131 97V101C131 102.105 130.105 103 129 103H98C96.8954 103 96 102.105 96 101V97Z" fill="#BCBCD2"/>
<path d="M96 110C96 108.895 96.8954 108 98 108H129C130.105 108 131 108.895 131 110V114C131 115.105 130.105 116 129 116H98C96.8954 116 96 115.105 96 114V110Z" fill="#BCBCD2"/>
</svg>
