<svg width="93" height="63" viewBox="0 0 93 63" fill="none" xmlns="http://www.w3.org/2000/svg">
    <path d="M90 0H2.57143C1.15714 0 0 1.15714 0 2.57143V60.4286C0 61.8429 1.15714 63 2.57143 63H90C91.4143 63 92.5714 61.8429 92.5714 60.4286V2.57143C92.5714 1.02857 91.4143 0 90 0ZM87.4286 5.14286V16.7143H5.14286V5.14286H87.4286V5.14286ZM5.14286 57.8571V21.8571H87.4286V57.8571H5.14286Z" fill="black" />
    <path d="M12.2143 13.6286C13.6344 13.6286 14.7857 12.4773 14.7857 11.0571C14.7857 9.63699 13.6344 8.48572 12.2143 8.48572C10.7941 8.48572 9.64285 9.63699 9.64285 11.0571C9.64285 12.4773 10.7941 13.6286 12.2143 13.6286Z" fill="black" />
    <path d="M19.1571 13.6286C20.5773 13.6286 21.7285 12.4773 21.7285 11.0571C21.7285 9.63699 20.5773 8.48572 19.1571 8.48572C17.737 8.48572 16.5857 9.63699 16.5857 11.0571C16.5857 12.4773 17.737 13.6286 19.1571 13.6286Z" fill="black" />
    <path d="M26.1 13.6286C27.5202 13.6286 28.6714 12.4773 28.6714 11.0571C28.6714 9.63699 27.5202 8.48572 26.1 8.48572C24.6798 8.48572 23.5286 9.63699 23.5286 11.0571C23.5286 12.4773 24.6798 13.6286 26.1 13.6286Z" fill="black" />
    <path d="M79.2 27H13.5C12.0857 27 10.9286 28.1571 10.9286 29.5714V49.5C10.9286 50.9143 12.0857 52.0714 13.5 52.0714H79.2C80.6143 52.0714 81.7714 50.9143 81.7714 49.5V29.5714C81.7714 28.0286 80.6143 27 79.2 27ZM37.4143 39.4714L16.0714 46.0286V32.9143L37.4143 39.4714ZM30.7286 32.1429H61.7143L46.1571 36.9L30.7286 32.1429ZM46.2857 42.1714L61.8428 46.9286H30.7286L46.2857 42.1714ZM55.1571 39.4714L76.6285 32.9143V45.9L55.1571 39.4714Z" fill="black" />
</svg>