<svg width="24" height="24" viewBox="0 0 24 24" fill="none" xmlns="http://www.w3.org/2000/svg">
<path fill-rule="evenodd" clip-rule="evenodd" d="M21 1.99992C20.4477 1.99992 20 2.44764 20 2.99992V5.99992H16V4.99992C16 4.44764 15.5523 3.99992 15 3.99992C14.4477 3.99992 14 4.44764 14 4.99992V5.99992H12V4.99992C12 4.44764 11.5523 3.99992 11 3.99992C10.4477 3.99992 10 4.44764 10 4.99992V5.99992H8V4.99992C8 4.44764 7.55229 3.99992 7 3.99992C6.44772 3.99992 6 4.44764 6 4.99992V5.99992H4V2.99992C4 2.44764 3.55228 1.99992 3 1.99992C2.44772 1.99992 2 2.44764 2 2.99992V18.9999C2 20.6568 3.34315 21.9999 5 21.9999H19C20.6569 21.9999 22 20.6568 22 18.9999V2.99992C22 2.44764 21.5523 1.99992 21 1.99992ZM20 19.0001C20 19.5524 19.5523 20.0001 19 20.0001H5.00001C4.44772 20.0001 4.00001 19.5524 4.00001 19.0001V16.0001H6.00001V17.0001C6.00001 17.5524 6.44772 18.0001 7.00001 18.0001C7.55229 18.0001 8.00001 17.5524 8.00001 17.0001V16.0001H10V17.0001C10 17.5524 10.4477 18.0001 11 18.0001C11.5523 18.0001 12 17.5524 12 17.0001V16.0001H16V17.0001C16 17.5524 16.4477 18.0001 17 18.0001C17.5523 18.0001 18 17.5524 18 17.0001V16.0001H20V19.0001ZM18 13.9999H20V7.99992H16V8.99992C16 9.55221 15.5523 9.99992 15 9.99992C14.4477 9.99992 14 9.55221 14 8.99992V7.99992H12V8.99992C12 9.55221 11.5523 9.99992 11 9.99992C10.4477 9.99992 10 9.55221 10 8.99992V7.99992H8.00001V8.99992C8.00001 9.55221 7.55229 9.99992 7.00001 9.99992C6.44772 9.99992 6.00001 9.55221 6.00001 8.99992V7.99992H4.00001V13.9999H6.00001V12.9999C6.00001 12.4476 6.44772 11.9999 7.00001 11.9999C7.55229 11.9999 8.00001 12.4476 8.00001 12.9999V13.9999H10V12.9999C10 12.4476 10.4477 11.9999 11 11.9999C11.5523 11.9999 12 12.4476 12 12.9999V13.9999H16V12.9999C16 12.4476 16.4477 11.9999 17 11.9999C17.5523 11.9999 18 12.4476 18 12.9999V13.9999Z" fill="#171E2B"/>
</svg>
