<svg width="24" height="24" viewBox="0 0 24 24" fill="none" xmlns="http://www.w3.org/2000/svg">
<path fill-rule="evenodd" clip-rule="evenodd" d="M16 7C17.1045 7 18 6.10457 18 5C18 3.89543 17.1045 3 16 3C14.8954 3 14 3.89543 14 5C14 6.10457 14.8954 7 16 7ZM12.7 18.3997C11.5966 19.8444 9.65767 20.3634 7.98006 19.6631C6.30245 18.9628 5.30809 17.2192 5.55946 15.4188C5.81082 13.6183 7.24469 12.2138 9.04997 11.9997C9.60225 11.9389 10.0007 11.442 9.93997 10.8897C9.87922 10.3374 9.38225 9.93892 8.82997 9.99967C5.51626 10.1847 2.97995 13.021 3.16497 16.3347C3.34998 19.6484 6.18626 22.1847 9.49997 21.9997C11.3885 21.9997 13.1668 21.1105 14.3 19.5997C14.6313 19.1578 14.5418 18.531 14.1 18.1997C13.6581 17.8683 13.0313 17.9578 12.7 18.3997ZM19.4999 20H18.4999V15C18.4999 14.4477 18.0522 14 17.4999 14H12.9299L14.6199 9.34C14.6199 9.34 14.6199 9.27 14.6199 9.23V9.03C14.6249 8.9701 14.6249 8.9099 14.6199 8.85C14.6256 8.7868 14.6256 8.72321 14.6199 8.66C14.5939 8.60134 14.5638 8.54454 14.5299 8.49C14.4999 8.43545 14.4629 8.38503 14.4199 8.34C14.377 8.28913 14.3264 8.24527 14.2699 8.21C14.2699 8.21 14.2699 8.15 14.1899 8.13L9.70995 5.55H9.58995C9.52864 5.52408 9.46503 5.50399 9.39995 5.49H8.99995C8.93047 5.50436 8.86322 5.5279 8.79995 5.56H8.68995L5.99995 7.13C5.60691 7.35266 5.41194 7.81117 5.52425 8.24871C5.63656 8.68625 6.02826 8.99417 6.47995 9C6.66188 9.00479 6.84167 8.95985 6.99995 8.87L9.22995 7.57L12.4699 9.45L10.5799 14.66C10.5751 14.7132 10.5751 14.7668 10.5799 14.82C10.5706 14.8796 10.5706 14.9404 10.5799 15C10.5984 15.1283 10.6251 15.2552 10.6599 15.38L10.7699 15.53C10.7972 15.5892 10.8344 15.6434 10.8799 15.69C10.9227 15.7257 10.9697 15.7559 11.0199 15.78C11.0795 15.8258 11.1431 15.8659 11.2099 15.9C11.3189 15.9396 11.434 15.9599 11.5499 15.96H16.5499V20.96C16.5499 21.5123 16.9977 21.96 17.5499 21.96H19.5499C20.1022 21.96 20.5499 21.5123 20.5499 20.96C20.5499 20.4077 20.1022 19.96 19.5499 19.96L19.4999 20Z" fill="#171E2B"/>
</svg>
