<svg width="90" height="90" viewBox="0 0 90 90" fill="none" xmlns="http://www.w3.org/2000/svg">
<path d="M25 74L26 35L22.5 38.5L10 43L25 74Z" fill="#F3CCD4"/>
<path fill-rule="evenodd" clip-rule="evenodd" d="M69.1837 24.42L61.9024 16.5H26.5V73.5H77.5V32.9632L69.1837 24.42ZM71 22.7018L63.5943 14.6464C63.2155 14.2344 62.6815 14 62.1219 14H26C24.8954 14 24 14.8954 24 16V74C24 75.1046 24.8954 76 26 76H78C79.1046 76 80 75.1046 80 74V32.7601C80 32.239 79.7966 31.7384 79.4331 31.365L71 22.7018Z" fill="#C1002A"/>
<path fill-rule="evenodd" clip-rule="evenodd" d="M60.75 31V15H63.25V31C63.25 31.4142 63.5858 31.75 64 31.75H79V34.25H64C62.2051 34.25 60.75 32.7949 60.75 31Z" fill="#C1002A"/>
<path d="M62 33V17.6V16L71.6774 25.0667L77 32L62 33Z" fill="#C1002A"/>
<path fill-rule="evenodd" clip-rule="evenodd" d="M11.8045 40.1045L25.1162 35.8104L25.8837 38.1896L12.572 42.4837C12.1385 42.6236 11.9287 43.1145 12.1273 43.5245L26.6249 73.4551L24.375 74.5449L9.87733 44.6143C9.01679 42.8377 9.92581 40.7105 11.8045 40.1045Z" fill="#C1002A"/>
<path d="M32 23C32 22.4477 32.4477 22 33 22H53C53.5523 22 54 22.4477 54 23V33C54 33.5523 53.5523 34 53 34H33C32.4477 34 32 33.5523 32 33V23Z" fill="#F3CCD4"/>
<path fill-rule="evenodd" clip-rule="evenodd" d="M34.5 24.5V31.5H51.5V24.5H34.5ZM33 22C32.4477 22 32 22.4477 32 23V33C32 33.5523 32.4477 34 33 34H53C53.5523 34 54 33.5523 54 33V23C54 22.4477 53.5523 22 53 22H33Z" fill="#C1002A"/>
<path d="M32 56C32 55.4477 32.4477 55 33 55H47C47.5523 55 48 55.4477 48 56V66C48 66.5523 47.5523 67 47 67H33C32.4477 67 32 66.5523 32 66V56Z" fill="#F3CCD4"/>
<path fill-rule="evenodd" clip-rule="evenodd" d="M34.5 57.5V64.5H45.5V57.5H34.5ZM33 55C32.4477 55 32 55.4477 32 56V66C32 66.5523 32.4477 67 33 67H47C47.5523 67 48 66.5523 48 66V56C48 55.4477 47.5523 55 47 55H33Z" fill="#C1002A"/>
<path fill-rule="evenodd" clip-rule="evenodd" d="M53 56.75C53 56.0596 53.5596 55.5 54.25 55.5H68.75C69.4404 55.5 70 56.0596 70 56.75C70 57.4404 69.4404 58 68.75 58H54.25C53.5596 58 53 57.4404 53 56.75Z" fill="#C1002A"/>
<path fill-rule="evenodd" clip-rule="evenodd" d="M32 47.75C32 47.0596 32.5596 46.5 33.25 46.5L68.75 46.5C69.4404 46.5 70 47.0596 70 47.75C70 48.4404 69.4404 49 68.75 49L33.25 49C32.5596 49 32 48.4404 32 47.75Z" fill="#C1002A"/>
<path fill-rule="evenodd" clip-rule="evenodd" d="M32 40.75C32 40.0596 32.5596 39.5 33.25 39.5L68.75 39.5C69.4404 39.5 70 40.0596 70 40.75C70 41.4404 69.4404 42 68.75 42L33.25 42C32.5596 42 32 41.4404 32 40.75Z" fill="#C1002A"/>
<path fill-rule="evenodd" clip-rule="evenodd" d="M53 65.75C53 65.0596 53.5596 64.5 54.25 64.5H68.75C69.4404 64.5 70 65.0596 70 65.75C70 66.4404 69.4404 67 68.75 67H54.25C53.5596 67 53 66.4404 53 65.75Z" fill="#C1002A"/>
</svg>
