<svg width="24" height="24" viewBox="0 0 24 24" fill="none" xmlns="http://www.w3.org/2000/svg">
<path fill-rule="evenodd" clip-rule="evenodd" d="M17 7.00004C15.7264 3.68281 12.3577 1.65891 8.83085 2.09204C5.30403 2.52516 2.52515 5.30404 2.09202 8.83087C1.6589 12.3577 3.6828 15.7264 7.00002 17C8.27366 20.3173 11.6424 22.3412 15.1692 21.908C18.696 21.4749 21.4749 18.696 21.908 15.1692C22.3411 11.6424 20.3172 8.27367 17 7.00004ZM15.4 8.59976C15.4722 8.97548 15.5091 9.35716 15.51 9.73976C15.5079 10.1911 15.4543 10.6407 15.35 11.0798L12.91 8.65976C13.3491 8.55552 13.7987 8.50184 14.25 8.49976C14.6326 8.50071 15.0143 8.53754 15.39 8.60976L15.4 8.59976ZM14.46 13C14.0614 13.5674 13.5674 14.0614 13 14.46L9.54002 11C9.93866 10.4326 10.4326 9.93865 11 9.54001L14.46 13ZM6.46002 14.4601C4.56585 13.1498 3.63629 10.8357 4.09774 8.57918C4.5592 6.32268 6.32262 4.55926 8.57912 4.09781C10.8356 3.63635 13.1498 4.56591 14.46 6.46008H14.21C9.9321 6.48762 6.4834 9.97211 6.50002 14.2501C6.50002 14.3301 6.51002 14.4201 6.51002 14.5001L6.46002 14.4601ZM8.56002 15.35C8.4878 14.9743 8.45097 14.5926 8.45002 14.21C8.4521 13.7587 8.50578 13.3091 8.61002 12.87L11.04 15.3C10.6009 15.4042 10.1513 15.4579 9.70002 15.46C9.33532 15.4692 8.97054 15.4458 8.61002 15.39L8.56002 15.35ZM14.25 20.0003C12.35 19.9967 10.5735 19.058 9.50002 17.4903H9.75002C14.024 17.4848 17.489 14.0243 17.5 9.75025C17.5 9.67025 17.5 9.58025 17.5 9.50025C19.5853 10.9228 20.4989 13.539 19.7526 15.9504C19.0062 18.3619 16.7743 20.0045 14.25 20.0003Z" fill="#171E2B"/>
</svg>
