<svg width="24" height="24" viewBox="0 0 24 24" fill="none" xmlns="http://www.w3.org/2000/svg">
<path fill-rule="evenodd" clip-rule="evenodd" d="M20.83 7.32023C20.0191 5.80469 18.8351 4.52092 17.39 3.59023C13.8029 1.28259 9.14696 1.50415 5.7952 4.142C2.44345 6.77984 1.13374 11.2533 2.5336 15.2823C3.93347 19.3113 7.73475 22.0089 12 22.0002H12.29C15.7443 21.8983 18.9011 20.0201 20.6388 17.033C22.3765 14.046 22.4488 10.3734 20.83 7.32023ZM11 19.9303C7.02496 19.4009 4.05598 16.0104 4.05598 12.0003C4.05598 7.99012 7.02496 4.59958 11 4.07025V19.9303ZM13 4.07025C13.8645 4.18084 14.7054 4.43075 15.49 4.81025L13 9.12025V4.07025ZM13 13.0703L17.17 5.90025C17.7848 6.4282 18.3174 7.045 18.75 7.73025L13 17.6903V13.0703ZM14.15 19.6505L19.74 10.0005C19.909 10.6539 19.9964 11.3256 20 12.0005C19.9975 15.5886 17.6061 18.7362 14.15 19.7005V19.6505Z" fill="#171E2B"/>
</svg>
