<svg width="24" height="24" viewBox="0 0 24 24" fill="none" xmlns="http://www.w3.org/2000/svg">
<path fill-rule="evenodd" clip-rule="evenodd" d="M12 2.00024C6.47715 2.00024 2 6.4774 2 12.0002C2 17.5231 6.47715 22.0002 12 22.0002C17.5228 22.0002 22 17.5231 22 12.0002C22 9.34808 20.9464 6.80454 19.0711 4.92918C17.1957 3.05381 14.6522 2.00024 12 2.00024ZM11 19.9302C7.02496 19.4009 4.05599 16.0104 4.05599 12.0002C4.05599 7.99011 7.02496 4.59957 11 4.07024V19.9302ZM13 19.9302V4.07024C16.975 4.59957 19.944 7.99011 19.944 12.0002C19.944 16.0104 16.975 19.4009 13 19.9302Z" fill="#171E2B"/>
</svg>
