<svg width="24" height="24" viewBox="0 0 24 24" fill="none" xmlns="http://www.w3.org/2000/svg">
<path fill-rule="evenodd" clip-rule="evenodd" d="M20.83 7.32017C20.8354 7.29377 20.8354 7.26656 20.83 7.24017C20.0288 5.75821 18.8661 4.5027 17.45 3.59017C15.8278 2.53894 13.933 1.98616 12 2.00017C11.4477 2.00017 11 2.44788 11 3.00017V21.0002C11 21.5525 11.4477 22.0002 12 22.0002H12.28C15.736 21.9016 18.896 20.0247 20.6361 17.0371C22.3762 14.0494 22.4495 10.3749 20.83 7.32017ZM13 4.0605C13.8648 4.16986 14.7058 4.41982 15.49 4.8005L13 9.12049V4.0605ZM13 13.1203L17.17 5.90025C17.7875 6.42546 18.3205 7.0427 18.75 7.73025L13 17.6903V13.1203ZM14.16 19.6905L19.75 10.0005C19.9137 10.6546 19.9976 11.3262 20 12.0005C20.0148 15.589 17.6208 18.7414 14.16 19.6905Z" fill="#171E2B"/>
</svg>
