<svg width="90" height="90" viewBox="0 0 90 90" fill="none" xmlns="http://www.w3.org/2000/svg">
<path d="M77.3011 28H10.6457C10.1916 28 10.0293 27.3996 10.4216 27.1708L44.4962 7.29394C44.8075 7.11231 45.1925 7.11231 45.5039 7.29394L77.805 26.1362C78.6867 26.6506 78.3218 28 77.3011 28Z" fill="#F3CCD4"/>
<path fill-rule="evenodd" clip-rule="evenodd" d="M43.9923 6.43016C44.615 6.0669 45.385 6.0669 46.0078 6.43016L78.3088 25.2725C80.0722 26.3011 79.3426 29 77.3011 29H10.6457C9.17087 29 8.64371 27.0502 9.91768 26.307L43.9923 6.43016ZM77.3011 27L45 8.15772L12.6989 27H77.3011Z" fill="#C1002A"/>
<path d="M15 29C15 27.8954 15.8954 27 17 27H73C74.1046 27 75 27.8954 75 29V32C75 33.1046 74.1046 34 73 34H17C15.8954 34 15 33.1046 15 32V29Z" fill="#C1002A"/>
<path fill-rule="evenodd" clip-rule="evenodd" d="M73 29H17V32H73V29ZM17 27C15.8954 27 15 27.8954 15 29V32C15 33.1046 15.8954 34 17 34H73C74.1046 34 75 33.1046 75 32V29C75 27.8954 74.1046 27 73 27H17Z" fill="#C1002A"/>
<path d="M15 71C15 69.8954 15.8954 69 17 69H73C74.1046 69 75 69.8954 75 71V74C75 75.1046 74.1046 76 73 76H17C15.8954 76 15 75.1046 15 74V71Z" fill="#C1002A"/>
<path fill-rule="evenodd" clip-rule="evenodd" d="M73 71H17V74H73V71ZM17 69C15.8954 69 15 69.8954 15 71V74C15 75.1046 15.8954 76 17 76H73C74.1046 76 75 75.1046 75 74V71C75 69.8954 74.1046 69 73 69H17Z" fill="#C1002A"/>
<path d="M11 76C11 74.8954 11.8954 74 13 74H77C78.1046 74 79 74.8954 79 76V80C79 81.1046 78.1046 82 77 82H13C11.8954 82 11 81.1046 11 80V76Z" fill="#F3CCD4"/>
<path fill-rule="evenodd" clip-rule="evenodd" d="M77 76H13V80H77V76ZM13 74C11.8954 74 11 74.8954 11 76V80C11 81.1046 11.8954 82 13 82H77C78.1046 82 79 81.1046 79 80V76C79 74.8954 78.1046 74 77 74H13Z" fill="#C1002A"/>
<path fill-rule="evenodd" clip-rule="evenodd" d="M17 69V33H19V69H17Z" fill="#C1002A"/>
<path fill-rule="evenodd" clip-rule="evenodd" d="M24.5 69V33H26.5V69H24.5Z" fill="#C1002A"/>
<path fill-rule="evenodd" clip-rule="evenodd" d="M32 69V33H34V69H32Z" fill="#C1002A"/>
<path fill-rule="evenodd" clip-rule="evenodd" d="M39.5 69V33H41.5V69H39.5Z" fill="#C1002A"/>
<path fill-rule="evenodd" clip-rule="evenodd" d="M47 69V33H49V69H47Z" fill="#C1002A"/>
<path fill-rule="evenodd" clip-rule="evenodd" d="M54.5 69V33H56.5V69H54.5Z" fill="#C1002A"/>
<path fill-rule="evenodd" clip-rule="evenodd" d="M62 69V33H64V69H62Z" fill="#C1002A"/>
<path fill-rule="evenodd" clip-rule="evenodd" d="M69.5 69V33H71.5V69H69.5Z" fill="#C1002A"/>
</svg>
