<svg width="24" height="24" viewBox="0 0 24 24" fill="none" xmlns="http://www.w3.org/2000/svg">
<path fill-rule="evenodd" clip-rule="evenodd" d="M12.83 13.4498C12.6442 13.1734 12.333 13.0076 12 13.0076C11.6669 13.0076 11.3558 13.1734 11.17 13.4498L7.16999 19.4498C6.99136 19.7592 6.99136 20.1404 7.16999 20.4498C7.32923 20.7677 7.64523 20.9771 7.99999 20.9998H16C16.3686 20.9989 16.7068 20.7952 16.88 20.4698C17.0434 20.1516 17.0244 19.7702 16.83 19.4698L12.83 13.4498ZM9.86999 19.0002L12 15.8002L14.13 19.0002H9.86999ZM19 3H4.99998C3.34313 3 1.99998 4.34315 1.99998 6V15C1.99998 16.6569 3.34313 18 4.99998 18H5.84998C6.40227 18 6.84998 17.5523 6.84998 17C6.84998 16.4477 6.40227 16 5.84998 16H4.99998C4.4477 16 3.99998 15.5523 3.99998 15V6C3.99998 5.44772 4.4477 5 4.99998 5H19C19.5523 5 20 5.44772 20 6V15C20 15.5523 19.5523 16 19 16H18.15C17.5977 16 17.15 16.4477 17.15 17C17.15 17.5523 17.5977 18 18.15 18H19C20.6568 18 22 16.6569 22 15V6C22 4.34315 20.6568 3 19 3Z" fill="#171E2B"/>
</svg>
