<svg width="24" height="24" viewBox="0 0 24 24" fill="none" xmlns="http://www.w3.org/2000/svg">
<path fill-rule="evenodd" clip-rule="evenodd" d="M3.00002 7.00025H21C21.5523 7.00025 22 6.55253 22 6.00024C22 5.44796 21.5523 5.00024 21 5.00024H3.00002C2.44773 5.00024 2.00002 5.44796 2.00002 6.00024C2.00002 6.55253 2.44773 7.00025 3.00002 7.00025ZM21 17.0002H7C6.44771 17.0002 6 17.448 6 18.0002C6 18.5525 6.44771 19.0002 7 19.0002H21C21.5523 19.0002 22 18.5525 22 18.0002C22 17.448 21.5523 17.0002 21 17.0002ZM21 9H7C6.44771 9 6 9.44771 6 9.99999C6 10.5523 6.44771 11 7 11H21C21.5523 11 22 10.5523 22 9.99999C22 9.44771 21.5523 9 21 9ZM21 13.0005H3.00002C2.44773 13.0005 2.00002 13.4482 2.00002 14.0005C2.00002 14.5528 2.44773 15.0005 3.00002 15.0005H21C21.5523 15.0005 22 14.5528 22 14.0005C22 13.4482 21.5523 13.0005 21 13.0005Z" fill="#171E2B"/>
</svg>
