<svg width="24" height="24" viewBox="0 0 24 24" fill="none" xmlns="http://www.w3.org/2000/svg">
<path fill-rule="evenodd" clip-rule="evenodd" d="M2.99998 5H21C21.5523 5 22 4.55229 22 4C22 3.44772 21.5523 3 21 3H2.99998C2.4477 3 1.99998 3.44772 1.99998 4C1.99998 4.55229 2.4477 5 2.99998 5ZM15 18.9998H2.99998C2.4477 18.9998 1.99998 19.4475 1.99998 19.9998C1.99998 20.552 2.4477 20.9997 2.99998 20.9997H15C15.5523 20.9997 16 20.552 16 19.9998C16 19.4475 15.5523 18.9998 15 18.9998ZM21 11.0002H2.99998C2.4477 11.0002 1.99998 11.448 1.99998 12.0002C1.99998 12.5525 2.4477 13.0002 2.99998 13.0002H21C21.5523 13.0002 22 12.5525 22 12.0002C22 11.448 21.5523 11.0002 21 11.0002ZM21 6.99975H2.99998C2.4477 6.99975 1.99998 7.44747 1.99998 7.99975C1.99998 8.55204 2.4477 8.99975 2.99998 8.99975H21C21.5523 8.99975 22 8.55204 22 7.99975C22 7.44747 21.5523 6.99975 21 6.99975ZM21 15H2.99998C2.4477 15 1.99998 15.4477 1.99998 16C1.99998 16.5523 2.4477 17 2.99998 17H21C21.5523 17 22 16.5523 22 16C22 15.4477 21.5523 15 21 15Z" fill="#171E2B"/>
</svg>
