<svg width="24" height="24" viewBox="0 0 24 24" fill="none" xmlns="http://www.w3.org/2000/svg">
<path fill-rule="evenodd" clip-rule="evenodd" d="M21.92 11.6201C21.8724 11.4973 21.8011 11.3852 21.71 11.2901L19.21 8.79009C18.9564 8.53643 18.5867 8.43736 18.2402 8.53021C17.8936 8.62306 17.623 8.89371 17.5302 9.24021C17.4373 9.58671 17.5364 9.95643 17.79 10.2101L18.59 11.0001H16C15.4477 11.0001 15 11.4478 15 12.0001C15 12.5524 15.4477 13.0001 16 13.0001H18.59L17.79 13.7901C17.6007 13.9779 17.4942 14.2335 17.4942 14.5001C17.4942 14.7667 17.6007 15.0223 17.79 15.2101C17.9778 15.3994 18.2334 15.5059 18.5 15.5059C18.7667 15.5059 19.0223 15.3994 19.21 15.2101L21.71 12.7101C21.8011 12.615 21.8724 12.5028 21.92 12.3801C22.02 12.1366 22.02 11.8635 21.92 11.6201ZM8.00002 10.9994H5.41002L6.21002 10.2094C6.60214 9.8173 6.60214 9.18154 6.21002 8.78942C5.8179 8.3973 5.18214 8.3973 4.79002 8.78942L2.29002 11.2894C2.19898 11.3845 2.12761 11.4967 2.08002 11.6194C1.98 11.8629 1.98 12.136 2.08002 12.3794C2.12761 12.5022 2.19898 12.6143 2.29002 12.7094L4.79002 15.2094C4.97779 15.3987 5.23338 15.5052 5.50002 15.5052C5.76666 15.5052 6.02225 15.3987 6.21002 15.2094C6.39933 15.0217 6.50582 14.7661 6.50582 14.4994C6.50582 14.2328 6.39933 13.9772 6.21002 13.7894L5.41002 12.9994H8.00002C8.5523 12.9994 9.00002 12.5517 9.00002 11.9994C9.00002 11.4471 8.5523 10.9994 8.00002 10.9994ZM12 6.99976C11.4477 6.99976 11 7.44747 11 7.99976V15.9998C11 16.552 11.4477 16.9998 12 16.9998C12.5523 16.9998 13 16.552 13 15.9998V7.99976C13 7.44747 12.5523 6.99976 12 6.99976Z" fill="#171E2B"/>
</svg>
