<svg width="24" height="24" viewBox="0 0 24 24" fill="none" xmlns="http://www.w3.org/2000/svg">
<path fill-rule="evenodd" clip-rule="evenodd" d="M3.00002 5H21C21.5523 5 22 4.55229 22 4C22 3.44772 21.5523 3 21 3H3.00002C2.44773 3 2.00002 3.44772 2.00002 4C2.00002 4.55229 2.44773 5 3.00002 5ZM21 18.9998H11C10.4477 18.9998 10 19.4475 10 19.9998C10 20.552 10.4477 20.9997 11 20.9997H21C21.5523 20.9997 22 20.552 22 19.9998C22 19.4475 21.5523 18.9998 21 18.9998ZM21 11.0002H3.00002C2.44773 11.0002 2.00002 11.448 2.00002 12.0002C2.00002 12.5525 2.44773 13.0002 3.00002 13.0002H21C21.5523 13.0002 22 12.5525 22 12.0002C22 11.448 21.5523 11.0002 21 11.0002ZM21 15H3.00002C2.44773 15 2.00002 15.4477 2.00002 16C2.00002 16.5523 2.44773 17 3.00002 17H21C21.5523 17 22 16.5523 22 16C22 15.4477 21.5523 15 21 15ZM21 6.99975H3.00002C2.44773 6.99975 2.00002 7.44747 2.00002 7.99975C2.00002 8.55204 2.44773 8.99975 3.00002 8.99975H21C21.5523 8.99975 22 8.55204 22 7.99975C22 7.44747 21.5523 6.99975 21 6.99975Z" fill="#171E2B"/>
</svg>
