<svg width="24" height="24" viewBox="0 0 24 24" fill="none" xmlns="http://www.w3.org/2000/svg">
<path fill-rule="evenodd" clip-rule="evenodd" d="M21 15H3C2.44772 15 2 15.4477 2 16C2 16.5523 2.44772 17 3 17H21C21.5523 17 22 16.5523 22 16C22 15.4477 21.5523 15 21 15ZM3 5H21C21.5523 5 22 4.55229 22 4C22 3.44772 21.5523 3 21 3H3C2.44772 3 2 3.44772 2 4C2 4.55229 2.44772 5 3 5ZM17 18.9998H6.99998C6.4477 18.9998 5.99998 19.4475 5.99998 19.9998C5.99998 20.552 6.4477 20.9997 6.99998 20.9997H17C17.5523 20.9997 18 20.552 18 19.9998C18 19.4475 17.5523 18.9998 17 18.9998ZM21 6.99975H3C2.44772 6.99975 2 7.44747 2 7.99975C2 8.55204 2.44772 8.99975 3 8.99975H21C21.5523 8.99975 22 8.55204 22 7.99975C22 7.44747 21.5523 6.99975 21 6.99975ZM21 11.0002H3C2.44772 11.0002 2 11.448 2 12.0002C2 12.5525 2.44772 13.0002 3 13.0002H21C21.5523 13.0002 22 12.5525 22 12.0002C22 11.448 21.5523 11.0002 21 11.0002Z" fill="#171E2B"/>
</svg>
