<svg width="24" height="24" viewBox="0 0 24 24" fill="none" xmlns="http://www.w3.org/2000/svg">
<path fill-rule="evenodd" clip-rule="evenodd" d="M3 7.00025H21C21.5523 7.00025 22 6.55253 22 6.00024C22 5.44796 21.5523 5.00024 21 5.00024H3C2.44772 5.00024 2 5.44796 2 6.00024C2 6.55253 2.44772 7.00025 3 7.00025ZM3 11H17C17.5523 11 18 10.5523 18 9.99999C18 9.44771 17.5523 9 17 9H3C2.44772 9 2 9.44771 2 9.99999C2 10.5523 2.44772 11 3 11ZM21 13.0005H3C2.44772 13.0005 2 13.4482 2 14.0005C2 14.5528 2.44772 15.0005 3 15.0005H21C21.5523 15.0005 22 14.5528 22 14.0005C22 13.4482 21.5523 13.0005 21 13.0005ZM17 17.0002H3C2.44772 17.0002 2 17.448 2 18.0002C2 18.5525 2.44772 19.0002 3 19.0002H17C17.5523 19.0002 18 18.5525 18 18.0002C18 17.448 17.5523 17.0002 17 17.0002Z" fill="#171E2B"/>
</svg>
