<svg width="24" height="24" viewBox="0 0 24 24" fill="none" xmlns="http://www.w3.org/2000/svg">
<path fill-rule="evenodd" clip-rule="evenodd" d="M2.99998 15.0005H13C13.5523 15.0005 14 14.5528 14 14.0005C14 13.4482 13.5523 13.0005 13 13.0005H2.99998C2.4477 13.0005 1.99998 13.4482 1.99998 14.0005C1.99998 14.5528 2.4477 15.0005 2.99998 15.0005ZM2.99998 11H13C13.5523 11 14 10.5523 14 9.99999C14 9.44771 13.5523 9 13 9H2.99998C2.4477 9 1.99998 9.44771 1.99998 9.99999C1.99998 10.5523 2.4477 11 2.99998 11ZM2.99998 7.00025H21C21.5523 7.00025 22 6.55253 22 6.00024C22 5.44796 21.5523 5.00024 21 5.00024H2.99998C2.4477 5.00024 1.99998 5.44796 1.99998 6.00024C1.99998 6.55253 2.4477 7.00025 2.99998 7.00025ZM21 17.0002H2.99998C2.4477 17.0002 1.99998 17.448 1.99998 18.0002C1.99998 18.5525 2.4477 19.0002 2.99998 19.0002H21C21.5523 19.0002 22 18.5525 22 18.0002C22 17.448 21.5523 17.0002 21 17.0002ZM19.64 9.57021C19.3708 9.30988 18.9787 9.22177 18.624 9.34189C18.2694 9.462 18.0115 9.77022 17.9559 10.1405C17.9003 10.5109 18.0562 10.8812 18.36 11.1002L19.44 12.0002L18.36 12.9002C18.1555 13.0698 18.0268 13.3137 18.0024 13.5782C17.9781 13.8428 18.0599 14.1061 18.23 14.3102C18.4203 14.5387 18.7025 14.6707 19 14.6702C19.2349 14.6679 19.4615 14.5829 19.64 14.4302L21.64 12.7702C21.8692 12.5802 22.0019 12.298 22.0019 12.0002C22.0019 11.7025 21.8692 11.4202 21.64 11.2302L19.64 9.57021Z" fill="#171E2B"/>
</svg>
