<svg width="24" height="24" viewBox="0 0 24 24" fill="none" xmlns="http://www.w3.org/2000/svg">
<path fill-rule="evenodd" clip-rule="evenodd" d="M9.99999 4.00025H21C21.5523 4.00025 22 3.55253 22 3.00024C22 2.44796 21.5523 2.00024 21 2.00024H9.99999C9.44771 2.00024 8.99999 2.44796 8.99999 3.00024C8.99999 3.55253 9.44771 4.00025 9.99999 4.00025ZM21 20.0002H2.99998C2.4477 20.0002 1.99998 20.448 1.99998 21.0002C1.99998 21.5525 2.4477 22.0002 2.99998 22.0002H21C21.5523 22.0002 22 21.5525 22 21.0002C22 20.448 21.5523 20.0002 21 20.0002ZM21 6H2.99998C2.4477 6 1.99998 6.44771 1.99998 6.99999C1.99998 7.55228 2.4477 7.99999 2.99998 7.99999H21C21.5523 7.99999 22 7.55228 22 6.99999C22 6.44771 21.5523 6 21 6ZM21 16.0005H11C10.4477 16.0005 9.99998 16.4482 9.99998 17.0005C9.99998 17.5528 10.4477 18.0005 11 18.0005H21C21.5523 18.0005 22 17.5528 22 17.0005C22 16.4482 21.5523 16.0005 21 16.0005ZM21 10.0005H2.99998C2.4477 10.0005 1.99998 10.4482 1.99998 11.0005C1.99998 11.5528 2.4477 12.0005 2.99998 12.0005H21C21.5523 12.0005 22 11.5528 22 11.0005C22 10.4482 21.5523 10.0005 21 10.0005Z" fill="#171E2B"/>
</svg>
