<svg width="24" height="24" viewBox="0 0 24 24" fill="none" xmlns="http://www.w3.org/2000/svg">
<path fill-rule="evenodd" clip-rule="evenodd" d="M10 11.0002H3.00002C2.44773 11.0002 2.00002 11.448 2.00002 12.0002C2.00002 12.5525 2.44773 13.0002 3.00002 13.0002H10C10.5523 13.0002 11 12.5525 11 12.0002C11 11.448 10.5523 11.0002 10 11.0002ZM10 18.9998H3.00002C2.44773 18.9998 2.00002 19.4475 2.00002 19.9998C2.00002 20.552 2.44773 20.9997 3.00002 20.9997H10C10.5523 20.9997 11 20.552 11 19.9998C11 19.4475 10.5523 18.9998 10 18.9998ZM14 5H21C21.5523 5 22 4.55229 22 4C22 3.44772 21.5523 3 21 3H14C13.4477 3 13 3.44772 13 4C13 4.55229 13.4477 5 14 5ZM10 6.99975H3.00002C2.44773 6.99975 2.00002 7.44747 2.00002 7.99975C2.00002 8.55204 2.44773 8.99975 3.00002 8.99975H10C10.5523 8.99975 11 8.55204 11 7.99975C11 7.44747 10.5523 6.99975 10 6.99975ZM10 15H3.00002C2.44773 15 2.00002 15.4477 2.00002 16C2.00002 16.5523 2.44773 17 3.00002 17H10C10.5523 17 11 16.5523 11 16C11 15.4477 10.5523 15 10 15ZM10 3H7C6.44771 3 6 3.44772 6 4C6 4.55229 6.44771 5 7 5H10C10.5523 5 11 4.55229 11 4C11 3.44772 10.5523 3 10 3ZM21 6.99975H14C13.4477 6.99975 13 7.44747 13 7.99975C13 8.55204 13.4477 8.99975 14 8.99975H21C21.5523 8.99975 22 8.55204 22 7.99975C22 7.44747 21.5523 6.99975 21 6.99975ZM21 11.0002H14C13.4477 11.0002 13 11.448 13 12.0002C13 12.5525 13.4477 13.0002 14 13.0002H21C21.5523 13.0002 22 12.5525 22 12.0002C22 11.448 21.5523 11.0002 21 11.0002ZM17 18.9998H14C13.4477 18.9998 13 19.4475 13 19.9998C13 20.552 13.4477 20.9997 14 20.9997H17C17.5523 20.9997 18 20.552 18 19.9998C18 19.4475 17.5523 18.9998 17 18.9998ZM21 15H14C13.4477 15 13 15.4477 13 16C13 16.5523 13.4477 17 14 17H21C21.5523 17 22 16.5523 22 16C22 15.4477 21.5523 15 21 15Z" fill="#171E2B"/>
</svg>
