<svg width="24" height="24" viewBox="0 0 24 24" fill="none" xmlns="http://www.w3.org/2000/svg">
<path fill-rule="evenodd" clip-rule="evenodd" d="M5.00001 8H19C19.5523 8 20 7.55228 20 7C20 6.44771 19.5523 6 19 6H5.00001C4.44773 6 4.00002 6.44771 4.00002 7C4.00002 7.55228 4.44773 8 5.00001 8ZM21 11.0002H3C2.44772 11.0002 2 11.448 2 12.0002C2 12.5525 2.44772 13.0002 3 13.0002H21C21.5523 13.0002 22 12.5525 22 12.0002C22 11.448 21.5523 11.0002 21 11.0002ZM19 15.9998H5.00001C4.44773 15.9998 4.00002 16.4475 4.00002 16.9998C4.00002 17.552 4.44773 17.9998 5.00001 17.9998H19C19.5523 17.9998 20 17.552 20 16.9998C20 16.4475 19.5523 15.9998 19 15.9998Z" fill="#171E2B"/>
</svg>
