<svg width="24" height="24" viewBox="0 0 24 24" fill="none" xmlns="http://www.w3.org/2000/svg">
<path fill-rule="evenodd" clip-rule="evenodd" d="M10.21 6.20971L11 5.40971V7.99971C11 8.552 11.4477 8.99971 12 8.99971C12.5523 8.99971 13 8.552 13 7.99971V5.40971L13.79 6.20971C13.9778 6.39903 14.2334 6.50551 14.5 6.50551C14.7666 6.50551 15.0222 6.39903 15.21 6.20971C15.3993 6.02195 15.5058 5.76635 15.5058 5.49971C15.5058 5.23308 15.3993 4.97748 15.21 4.78971L12.71 2.28971C12.6149 2.19867 12.5028 2.12731 12.38 2.07971C12.1365 1.9797 11.8635 1.9797 11.62 2.07971C11.4973 2.12731 11.3851 2.19867 11.29 2.28971L8.79001 4.78971C8.39789 5.18184 8.39789 5.81759 8.79001 6.20971C9.18213 6.60184 9.81789 6.60184 10.21 6.20971ZM16 10.9995H8C7.44772 10.9995 7 11.4472 7 11.9995C7 12.5518 7.44772 12.9995 8 12.9995H16C16.5523 12.9995 17 12.5518 17 11.9995C17 11.4472 16.5523 10.9995 16 10.9995ZM13.79 17.79L13 18.59V16C13 15.4477 12.5523 15 12 15C11.4477 15 11 15.4477 11 16V18.59L10.21 17.79C9.95635 17.5363 9.58663 17.4373 9.24013 17.5301C8.89362 17.623 8.62297 17.8936 8.53013 18.2401C8.43728 18.5866 8.53635 18.9563 8.79 19.21L11.29 21.71C11.3851 21.801 11.4973 21.8724 11.62 21.92C11.862 22.027 12.138 22.027 12.38 21.92C12.5028 21.8724 12.6149 21.801 12.71 21.71L15.21 19.21C15.4637 18.9563 15.5627 18.5866 15.4699 18.2401C15.377 17.8936 15.1064 17.623 14.7599 17.5301C14.4134 17.4373 14.0437 17.5363 13.79 17.79Z" fill="#171E2B"/>
</svg>
