<svg width="90" height="90" viewBox="0 0 90 90" fill="none" xmlns="http://www.w3.org/2000/svg">
<path d="M46.5 7.5H10L11.5 70H58V18.5L46.5 7.5Z" fill="#F3CCD4"/>
<path fill-rule="evenodd" clip-rule="evenodd" d="M9.25 7C9.25 6.30964 9.80964 5.75 10.5 5.75H46C46.3315 5.75 46.6495 5.8817 46.8839 6.11612L58.3839 17.6161C58.6183 17.8505 58.75 18.1685 58.75 18.5V69.5C58.75 70.1904 58.1904 70.75 57.5 70.75H10.5C9.80964 70.75 9.25 70.1904 9.25 69.5V7ZM11.75 8.25V68.25H56.25V19.75H46C45.3096 19.75 44.75 19.1904 44.75 18.5V8.25H11.75ZM47.25 10.0178L54.4822 17.25H47.25V10.0178Z" fill="#C1002A"/>
<path d="M46 18.5V8.5L57 17.5L46 18.5Z" fill="#C1002A"/>
<path d="M52 49.5H64V59.5H52V49.5Z" fill="white"/>
<path d="M34.1061 47.7243C34.2727 48.7243 35.3061 50.6243 38.1061 50.2243C41.6061 49.7243 42.1061 47.7243 45.6061 48.7243C46.2727 50.2243 48.5061 53.8243 52.1061 56.2243C55.7061 58.6243 63.9394 63.891 67.6061 66.2243C68.2727 66.5576 69.3061 67.7243 68.1061 69.7243C66.9061 71.7243 64.6061 70.891 63.6061 70.2243C63.9394 70.891 64.3061 72.5243 63.1061 73.7243C61.9061 74.9243 59.2727 73.891 58.1061 73.2243C58.9394 73.891 60.2061 75.6243 58.6061 77.2243C57.6502 78.1802 55.457 77.3991 53.3485 76.2243C53.4344 77.0576 53.3061 79.0243 52.1061 80.2243C50.9061 81.4243 47.2727 79.0576 45.6061 77.7243L25.6061 63.7243H25.1061L34.1061 47.7243Z" fill="white"/>
<path fill-rule="evenodd" clip-rule="evenodd" d="M34.322 46.4931C34.8443 46.5847 35.2519 46.9958 35.3391 47.5188C35.3825 47.7793 35.5624 48.227 35.9413 48.5582C36.2741 48.8492 36.8595 49.1397 37.9293 48.9869C39.1191 48.8169 39.8444 48.4732 40.6421 48.0953C40.8697 47.9874 41.1032 47.8768 41.3551 47.7666C41.9186 47.5201 42.5563 47.2935 43.3352 47.2218C44.1133 47.1501 44.9582 47.2392 45.9495 47.5224C46.3054 47.6241 46.598 47.8783 46.7483 48.2166C47.3441 49.5571 49.4425 52.9463 52.7995 55.1842C56.3714 57.5655 64.5397 62.7911 68.2313 65.1406C68.7981 65.4439 69.4435 66.0458 69.7436 66.9591C70.0718 67.958 69.9227 69.1261 69.1779 70.3674C68.3005 71.8298 66.9465 72.2829 65.7199 72.2228C65.529 72.2135 65.341 72.1921 65.1572 72.161C65.0706 72.9685 64.7464 73.8517 63.99 74.6082C63.0104 75.5878 61.6451 75.6126 60.6221 75.4494C60.6487 76.3351 60.3291 77.269 59.49 78.1082C58.5195 79.0786 57.1321 78.9812 56.1189 78.739C55.5845 78.6113 55.027 78.4143 54.4691 78.1752C54.4562 78.2387 54.4425 78.3026 54.4278 78.3667C54.2249 79.2496 53.8118 80.2864 52.99 81.1082C52.2859 81.8123 51.3484 81.8625 50.6475 81.7657C49.9267 81.6661 49.1735 81.3794 48.4899 81.0511C47.1261 80.3961 45.7367 79.4262 44.8571 78.7258L25.2121 64.9743H25.1061C24.662 64.9743 24.2513 64.7387 24.0271 64.3554C23.8029 63.972 23.7989 63.4985 24.0166 63.1115L33.0166 47.1115C33.2766 46.6494 33.7998 46.4015 34.322 46.4931ZM26.8921 63.0987L46.3229 76.7003C46.3448 76.7156 46.3661 76.7316 46.3869 76.7482C47.1759 77.3794 48.4193 78.2438 49.5722 78.7975C50.1553 79.0776 50.6396 79.2408 50.9896 79.2892C51.1389 79.3098 51.2225 79.3052 51.2623 79.2992C51.6182 78.923 51.8564 78.3939 51.9912 77.8069C52.0614 77.5015 52.0972 77.2074 52.1118 76.9542C50.8529 76.2054 49.6749 75.3681 48.8338 74.7072C48.3057 74.2923 48.1999 73.5342 48.5942 72.9905C48.9885 72.4468 49.7419 72.3118 50.3004 72.6849L54.0003 75.1565C54.9995 75.7101 55.9427 76.1265 56.7001 76.3076C57.0827 76.399 57.3568 76.4152 57.5352 76.3947C57.6196 76.385 57.6685 76.3687 57.6926 76.3581C57.7141 76.3488 57.7202 76.3424 57.7222 76.3404C57.9791 76.0835 58.0695 75.8761 58.1031 75.7329C58.1376 75.5859 58.1306 75.426 58.074 75.2424C57.9563 74.8605 57.6528 74.4795 57.3774 74.2436L50.951 70.2889L52.2612 68.1597L58.743 72.1485C59.2456 72.4334 60.0594 72.792 60.8398 72.9488C61.7064 73.1229 62.0925 72.9702 62.2222 72.8404C62.5533 72.5093 62.6715 72.1288 62.6815 71.7418C62.688 71.491 62.6471 71.2558 62.5951 71.0714L53.9543 65.7909L55.2579 63.6577L64.2579 69.1577C64.2719 69.1663 64.2858 69.1751 64.2995 69.1842C64.6736 69.4337 65.2824 69.6984 65.8423 69.7258C66.3157 69.749 66.7116 69.6188 67.0342 69.0812C67.4894 68.3225 67.4237 67.9073 67.3685 67.7395C67.2971 67.5219 67.1318 67.3847 67.0471 67.3423C67.0086 67.3231 66.9712 67.3019 66.935 67.2789C63.2711 64.9473 55.0259 59.6732 51.4127 57.2644C47.9572 54.9607 45.6941 51.6475 44.7366 49.7962C44.2473 49.6961 43.8719 49.6829 43.5645 49.7112C43.1559 49.7489 42.7936 49.866 42.3571 50.057C42.1948 50.128 42.0194 50.2119 41.8285 50.3032C41.0015 50.6986 39.8839 51.233 38.2829 51.4617C36.5527 51.7089 35.2213 51.2494 34.2959 50.4404C34.2314 50.384 34.1693 50.3263 34.1097 50.2676L26.8921 63.0987ZM51.292 79.292C51.2922 79.2922 51.2894 79.2934 51.2831 79.2951C51.2886 79.2926 51.2918 79.2917 51.292 79.292Z" fill="#C1002A"/>
<path d="M46.6061 52.7243L46.1061 59.2243V60.7243L48.6061 61.2243L53.6061 56.2243L59.6061 55.2243L60.6061 50.7243L50.1061 49.7243L46.6061 52.7243Z" fill="white"/>
<path d="M18.1061 62.3895L24.6061 66.2243L34.1061 50.2243L27.3512 46.2998L18.1061 62.3895Z" fill="white"/>
<path d="M29.4057 42.7243L36.1061 46.7243L34.0516 50.2998L27.3512 46.2998L29.4057 42.7243Z" fill="#C1002A"/>
<path fill-rule="evenodd" clip-rule="evenodd" d="M30.1271 45.2237L20.4151 62.0454L23.8792 64.0454L33.5912 47.2237L30.1271 45.2237ZM30.0781 42.3087C29.5998 42.0325 28.9882 42.1964 28.712 42.6747L17.5 62.0945C17.2239 62.5727 17.3878 63.1843 17.8661 63.4605L23.9282 66.9605C24.4065 67.2366 25.0181 67.0727 25.2943 66.5945L36.5063 47.1747C36.7824 46.6964 36.6185 46.0848 36.1402 45.8087L30.0781 42.3087Z" fill="#C1002A"/>
<path d="M78.8632 61.3339L72.6199 65.5738L62.1228 50.2095L68.6147 45.8639L78.8632 61.3339Z" fill="white"/>
<path d="M66.3372 42.4261L59.9044 46.8436L62.1818 50.2814L68.6146 45.8639L66.3372 42.4261Z" fill="#C1002A"/>
<path fill-rule="evenodd" clip-rule="evenodd" d="M65.776 44.9663L76.5369 61.1371L73.2068 63.3531L62.4459 47.1823L65.776 44.9663ZM65.6398 42.054C66.0996 41.748 66.7203 41.8727 67.0263 42.3325L79.4492 61.0009C79.7551 61.4607 79.6304 62.0815 79.1707 62.3874L73.343 66.2654C72.8832 66.5714 72.2625 66.4467 71.9565 65.9869L59.5336 47.3185C59.2277 46.8587 59.3524 46.238 59.8122 45.932L65.6398 42.054Z" fill="#C1002A"/>
<path fill-rule="evenodd" clip-rule="evenodd" d="M61.6146 47.575C62.1584 47.3424 62.7908 47.5229 63.13 48.0075L73.63 63.0075C73.8489 63.3202 73.9129 63.7157 73.8039 64.0815C73.6948 64.4472 73.4246 64.7431 73.0702 64.8849L68.3085 66.7896L67.9899 67.1082C67.5017 67.5963 66.7103 67.5963 66.2221 67.1082C65.734 66.62 65.734 65.8286 66.2221 65.3404L66.7221 64.8404C66.8418 64.7207 66.9846 64.6266 67.1418 64.5637L70.6777 63.1493L62.2582 51.1215C62.2163 51.1534 62.1731 51.1848 62.1286 51.2155C61.1267 51.9071 59.6042 52.1804 57.4816 51.9681C56.1528 51.8352 55.0594 51.6026 54.1413 51.3751C53.7843 51.2866 53.4739 51.2048 53.1935 51.1308C52.7144 51.0045 52.3227 50.9011 51.9346 50.8272C51.3671 50.7191 51.0035 50.7201 50.6941 50.8049C50.3917 50.8877 50.0109 51.0871 49.4899 51.6082C48.1856 52.9125 47.5991 53.5166 47.2691 54.1294C46.9841 54.6587 46.856 55.2735 46.856 56.7243C46.856 57.7249 46.8275 58.5391 46.806 59.1541C46.8011 59.2925 46.7966 59.4208 46.7929 59.5388C46.7887 59.6702 46.7857 59.7847 46.7839 59.8846C47.2017 60.0299 47.7204 60.141 48.2021 60.125C48.5539 60.1133 48.813 60.0362 48.9909 59.9255C49.1472 59.8283 49.308 59.6656 49.4201 59.329C49.9179 57.8359 51.0131 56.5802 51.9264 55.7246C52.8356 54.8727 53.7347 54.2624 54.047 54.1063C54.6645 53.7975 55.4153 54.0478 55.724 54.6653C56.0328 55.2828 55.7825 56.0336 55.165 56.3423C55.1691 56.3403 55.1649 56.343 55.1525 56.3507C55.1065 56.3797 54.9481 56.4793 54.6952 56.666C54.4 56.8838 54.0239 57.1852 53.6356 57.549C52.8322 58.3017 52.0941 59.2127 51.7919 60.1196C51.504 60.983 50.9857 61.6287 50.3118 62.0481C49.6595 62.454 48.9373 62.602 48.285 62.6236C47.013 62.6658 45.7362 62.2384 44.9859 61.8096C44.7716 61.6872 44.5984 61.504 44.488 61.2833C44.3115 60.9303 44.294 60.5341 44.2867 60.3442C44.2769 60.0917 44.2838 59.7862 44.2941 59.4598C44.2982 59.3325 44.3029 59.1977 44.3079 59.0547C44.3293 58.4405 44.356 57.6768 44.356 56.7243C44.356 55.1751 44.4779 54.0399 45.0679 52.9442C45.5937 51.9678 46.4624 51.0995 47.5965 49.966C47.638 49.9245 47.6799 49.8826 47.7221 49.8404C48.4511 49.1115 49.1953 48.6234 50.0335 48.3937C50.8648 48.166 51.6574 48.2295 52.4024 48.3714C52.8712 48.4607 53.4066 48.6014 53.9499 48.7441C54.2145 48.8136 54.481 48.8837 54.7426 48.9485C55.5901 49.1585 56.5592 49.3634 57.7304 49.4805C59.6078 49.6682 60.4186 49.3581 60.7084 49.1581C60.8475 49.062 60.875 48.9902 60.8792 48.9642C60.7661 48.3859 61.0723 47.8068 61.6146 47.575ZM60.8793 48.9536C60.8798 48.9537 60.8803 48.9572 60.8793 48.9638C60.8783 48.9567 60.8788 48.9535 60.8793 48.9536ZM46.7939 60.3662C46.7938 60.3663 46.7934 60.3638 46.7927 60.3585C46.7936 60.3634 46.7939 60.3661 46.7939 60.3662Z" fill="#C1002A"/>
<path d="M27.5062 64.4711C28.5173 62.9541 30.5668 62.544 32.0838 63.5552C33.6008 64.5663 34.0109 66.6158 32.9998 68.1328L31.4305 70.4872C30.4193 72.0042 28.3698 72.4143 26.8528 71.4031C25.3358 70.392 24.9257 68.3425 25.9369 66.8255L27.5062 64.4711Z" fill="white"/>
<path fill-rule="evenodd" clip-rule="evenodd" d="M29.3502 69.1006L30.9195 66.7462C31.1649 66.3781 31.0654 65.8808 30.6973 65.6354C30.3291 65.39 29.8318 65.4895 29.5864 65.8577L28.0171 68.2121C27.7718 68.5802 27.8713 69.0775 28.2394 69.3229C28.6075 69.5682 29.1049 69.4687 29.3502 69.1006ZM32.0838 63.5552C30.5668 62.544 28.5173 62.9541 27.5062 64.4711L25.9369 66.8255C24.9257 68.3425 25.3358 70.392 26.8528 71.4031C28.3698 72.4143 30.4193 72.0042 31.4305 70.4872L32.9998 68.1328C34.0109 66.6158 33.6008 64.5663 32.0838 63.5552Z" fill="#C1002A"/>
<path d="M41.6325 73.8869C42.6437 72.3699 44.6932 71.9598 46.2102 72.9709C47.7272 73.9821 48.1373 76.0315 47.1261 77.5486L45.5568 79.9029C44.5457 81.42 42.4962 81.83 40.9792 80.8189C39.4622 79.8077 39.0521 77.7583 40.0632 76.2413L41.6325 73.8869Z" fill="white"/>
<path fill-rule="evenodd" clip-rule="evenodd" d="M43.4766 78.5164L45.0459 76.162C45.2912 75.7939 45.1917 75.2965 44.8236 75.0512C44.4555 74.8058 43.9581 74.9053 43.7128 75.2734L42.1435 77.6278C41.8981 77.9959 41.9976 78.4933 42.3657 78.7386C42.7339 78.984 43.2312 78.8845 43.4766 78.5164ZM46.2102 72.9709C44.6932 71.9598 42.6437 72.3699 41.6325 73.8869L40.0632 76.2413C39.0521 77.7583 39.4622 79.8077 40.9792 80.8189C42.4962 81.83 44.5457 81.42 45.5568 79.9029L47.1261 77.5486C48.1373 76.0315 47.7272 73.9821 46.2102 72.9709Z" fill="#C1002A"/>
<path d="M33.2612 66.0401C34.2723 64.5231 36.3218 64.113 37.8388 65.1242C39.3558 66.1353 39.7659 68.1848 38.7548 69.7018L36.1393 73.6258C35.1281 75.1428 33.0787 75.5529 31.5616 74.5417C30.0446 73.5306 29.6345 71.4811 30.6457 69.9641L33.2612 66.0401Z" fill="white"/>
<path fill-rule="evenodd" clip-rule="evenodd" d="M34.059 72.2392L36.6745 68.3152C36.9199 67.9471 36.8204 67.4498 36.4523 67.2044C36.0841 66.9591 35.5868 67.0586 35.3414 67.4267L32.7259 71.3507C32.4806 71.7188 32.5801 72.2161 32.9482 72.4615C33.3163 72.7069 33.8137 72.6074 34.059 72.2392ZM37.8388 65.1242C36.3218 64.113 34.2723 64.5231 33.2612 66.0401L30.6457 69.9641C29.6345 71.4811 30.0446 73.5306 31.5616 74.5417C33.0787 75.5529 35.1281 75.1428 36.1393 73.6258L38.7548 69.7018C39.7659 68.1848 39.3558 66.1353 37.8388 65.1242Z" fill="#C1002A"/>
<path d="M37.9701 69.1787C38.9812 67.6617 41.0307 67.2516 42.5477 68.2627C44.0647 69.2739 44.4748 71.3234 43.4636 72.8404L40.8481 76.7644C39.837 78.2814 37.7875 78.6914 36.2705 77.6803C34.7535 76.6691 34.3434 74.6197 35.3546 73.1027L37.9701 69.1787Z" fill="white"/>
<path fill-rule="evenodd" clip-rule="evenodd" d="M38.7679 75.3778L41.3834 71.4538C41.6288 71.0857 41.5292 70.5883 41.1611 70.343C40.793 70.0976 40.2957 70.1971 40.0503 70.5652L37.4348 74.4892C37.1894 74.8573 37.289 75.3547 37.6571 75.6C38.0252 75.8454 38.5225 75.7459 38.7679 75.3778ZM42.5477 68.2627C41.0307 67.2516 38.9812 67.6617 37.9701 69.1787L35.3546 73.1027C34.3434 74.6197 34.7535 76.6691 36.2705 77.6803C37.7875 78.6914 39.837 78.2814 40.8481 76.7644L43.4636 72.8404C44.4748 71.3234 44.0647 69.2739 42.5477 68.2627Z" fill="#C1002A"/>
</svg>
