<svg width="24" height="24" viewBox="0 0 24 24" fill="none" xmlns="http://www.w3.org/2000/svg">
<path fill-rule="evenodd" clip-rule="evenodd" d="M10.5 9.5H9.5V8.5C9.5 7.94772 9.05229 7.5 8.5 7.5C7.94772 7.5 7.5 7.94772 7.5 8.5V9.5H6.5C5.94772 9.5 5.5 9.94772 5.5 10.5C5.5 11.0523 5.94772 11.5 6.5 11.5H7.5V12.5C7.5 13.0523 7.94772 13.5 8.5 13.5C9.05229 13.5 9.5 13.0523 9.5 12.5V11.5H10.5C11.0523 11.5 11.5 11.0523 11.5 10.5C11.5 9.94772 11.0523 9.5 10.5 9.5ZM22.93 11.65L22.87 11.54C22.8528 11.4905 22.8292 11.4435 22.8 11.4L20.4 8.2C19.8334 7.44458 18.9443 7 18 7H16V6C16 4.34315 14.6569 3 13 3H4C2.34315 3 1 4.34315 1 6V17C1 17.5523 1.44772 18 2 18H3C3 19.6569 4.34315 21 6 21C7.65685 21 9 19.6569 9 18H15C15 19.6569 16.3431 21 18 21C19.6569 21 21 19.6569 21 18H22C22.5523 18 23 17.5523 23 17V12C22.9978 11.8801 22.9741 11.7615 22.93 11.65ZM5.99998 19.0002C5.4477 19.0002 4.99998 18.5525 4.99998 18.0002C4.99998 17.448 5.4477 17.0002 5.99998 17.0002C6.55227 17.0002 6.99998 17.448 6.99998 18.0002C6.99998 18.5525 6.55227 19.0002 5.99998 19.0002ZM14 16.0002H8.22002C7.65144 15.3747 6.84534 15.0181 6.00002 15.0181C5.15469 15.0181 4.34859 15.3747 3.78002 16.0002H3.00002V6.00025C3.00002 5.44796 3.44773 5.00025 4.00002 5.00025H13C13.5523 5.00025 14 5.44796 14 6.00025V16.0002ZM16 9H18C18.3148 9 18.6111 9.14819 18.8 9.4L20 11H16V9ZM18 19.0002C17.4477 19.0002 17 18.5525 17 18.0002C17 17.448 17.4477 17.0002 18 17.0002C18.5523 17.0002 19 17.448 19 18.0002C19 18.5525 18.5523 19.0002 18 19.0002ZM21 15.9998H20.22C19.1124 14.7801 17.2284 14.6819 16 15.7798V12.9998H21V15.9998Z" fill="#171E2B"/>
</svg>
