<svg width="24" height="24" viewBox="0 0 24 24" fill="none" xmlns="http://www.w3.org/2000/svg">
<path fill-rule="evenodd" clip-rule="evenodd" d="M4.99997 12C4.44768 12 3.99997 12.4477 3.99997 13V21C3.99997 21.5523 4.44768 22 4.99997 22C5.55225 22 5.99997 21.5523 5.99997 21V13C5.99997 12.4477 5.55225 12 4.99997 12ZM9.99998 2.00024C9.4477 2.00024 8.99999 2.44796 8.99999 3.00024V21.0002C8.99999 21.5525 9.4477 22.0002 9.99998 22.0002C10.5523 22.0002 11 21.5525 11 21.0002V3.00024C11 2.44796 10.5523 2.00024 9.99998 2.00024ZM20 16.0005C19.4477 16.0005 19 16.4482 19 17.0005V21.0005C19 21.5528 19.4477 22.0005 20 22.0005C20.5523 22.0005 21 21.5528 21 21.0005V17.0005C21 16.4482 20.5523 16.0005 20 16.0005ZM15 8.00024C14.4477 8.00024 14 8.44796 14 9.00024V21.0002C14 21.5525 14.4477 22.0002 15 22.0002C15.5523 22.0002 16 21.5525 16 21.0002V9.00024C16 8.44796 15.5523 8.00024 15 8.00024Z" fill="#171E2B"/>
</svg>
