<svg width="24" height="24" viewBox="0 0 24 24" fill="none" xmlns="http://www.w3.org/2000/svg">
<path fill-rule="evenodd" clip-rule="evenodd" d="M21.71 7.28995C21.5222 7.10063 21.2666 6.99415 21 6.99415C20.7334 6.99415 20.4778 7.10063 20.29 7.28995L14 13.5899L9.71 9.28995C9.52223 9.10063 9.26664 8.99415 9 8.99415C8.73336 8.99415 8.47777 9.10063 8.29 9.28995L2.29 15.29C2.10069 15.4777 1.9942 15.7333 1.9942 16C1.9942 16.2666 2.10069 16.5222 2.29 16.71C2.47777 16.8993 2.73336 17.0057 3 17.0057C3.26664 17.0057 3.52223 16.8993 3.71 16.71L9 11.4099L13.29 15.71C13.4778 15.8993 13.7334 16.0057 14 16.0057C14.2666 16.0057 14.5222 15.8993 14.71 15.71L21.71 8.70995C21.8993 8.52218 22.0058 8.26658 22.0058 7.99995C22.0058 7.73331 21.8993 7.47771 21.71 7.28995Z" fill="#171E2B"/>
</svg>
