<svg width="24" height="24" viewBox="0 0 24 24" fill="none" xmlns="http://www.w3.org/2000/svg">
<path fill-rule="evenodd" clip-rule="evenodd" d="M19 13.0003H17C16.4477 13.0003 16 13.448 16 14.0003C16 14.5526 16.4477 15.0003 17 15.0003H17.91C17.4828 17.514 15.5137 19.4831 13 19.9103V11.0003H14C14.5523 11.0003 15 10.5526 15 10.0003C15 9.44799 14.5523 9.00028 14 9.00028H13V7.82028C14.3775 7.33324 15.2039 5.92461 14.9568 4.48455C14.7097 3.04448 13.4611 1.99185 12 1.99185C10.5389 1.99185 9.29028 3.04448 9.0432 4.48455C8.79613 5.92461 9.62245 7.33324 11 7.82028V9.00028H10C9.44771 9.00028 9 9.44799 9 10.0003C9 10.5526 9.44771 11.0003 10 11.0003H11V19.9103C8.48633 19.4831 6.51716 17.514 6.09 15.0003H7C7.55228 15.0003 8 14.5526 8 14.0003C8 13.448 7.55228 13.0003 7 13.0003H5C4.44772 13.0003 4 13.448 4 14.0003C4 18.4186 7.58172 22.0003 12 22.0003C16.4183 22.0003 20 18.4186 20 14.0003C20 13.448 19.5523 13.0003 19 13.0003ZM12 6.00049C11.4477 6.00049 11 5.55278 11 5.00049C11 4.44821 11.4477 4.00049 12 4.00049C12.5523 4.00049 13 4.44821 13 5.00049C13 5.55278 12.5523 6.00049 12 6.00049Z" fill="#171E2B"/>
</svg>
