<svg width="24" height="24" viewBox="0 0 24 24" fill="none" xmlns="http://www.w3.org/2000/svg">
<path fill-rule="evenodd" clip-rule="evenodd" d="M11.29 17.7099C11.4778 17.8993 11.7334 18.0057 12 18.0057C12.2666 18.0057 12.5222 17.8993 12.71 17.7099C12.7983 17.6127 12.8694 17.5011 12.92 17.3799C13.027 17.1379 13.027 16.862 12.92 16.6199C12.8694 16.4988 12.7983 16.3871 12.71 16.2899C12.5222 16.1006 12.2666 15.9942 12 15.9942C11.7334 15.9942 11.4778 16.1006 11.29 16.2899C11.2017 16.3871 11.1306 16.4988 11.08 16.6199C10.973 16.862 10.973 17.1379 11.08 17.3799C11.1306 17.5011 11.2017 17.6127 11.29 17.7099ZM8.66001 4.00025H16C16.5523 4.00025 17 4.44797 17 5.00025V12.3403C17 12.8925 17.4477 13.3403 18 13.3403C18.5523 13.3403 19 12.8925 19 12.3403V5.00025C19 3.3434 17.6569 2.00025 16 2.00025H8.66001C8.10772 2.00025 7.66001 2.44797 7.66001 3.00025C7.66001 3.55254 8.10772 4.00025 8.66001 4.00025ZM21.71 20.2899L3.71 2.28991C3.31788 1.89779 2.68212 1.89779 2.29 2.28991C1.89788 2.68203 1.89788 3.31779 2.29 3.70991L5 6.40991V18.9999C5 20.6568 6.34315 21.9999 8 21.9999H16C17.2038 21.9989 18.2905 21.2784 18.76 20.1699L20.29 21.7099C20.4778 21.8992 20.7334 22.0057 21 22.0057C21.2666 22.0057 21.5222 21.8992 21.71 21.7099C21.8993 21.5221 22.0058 21.2665 22.0058 20.9999C22.0058 20.7333 21.8993 20.4777 21.71 20.2899ZM17 18.9998C17 19.552 16.5523 19.9998 16 19.9998H8.00001C7.44772 19.9998 7.00001 19.552 7.00001 18.9998V8.40976L17 18.4098V18.9998Z" fill="#171E2B"/>
</svg>
