<svg width="24" height="24" viewBox="0 0 24 24" fill="none" xmlns="http://www.w3.org/2000/svg">
<path fill-rule="evenodd" clip-rule="evenodd" d="M14.83 11.2899L10.59 7.04995C10.4022 6.86063 10.1466 6.75415 9.88 6.75415C9.61337 6.75415 9.35777 6.86063 9.17 7.04995C8.78228 7.43998 8.78228 8.06991 9.17 8.45995L12.71 11.9999L9.17 15.5399C8.78228 15.93 8.78228 16.5599 9.17 16.9499C9.35872 17.1371 9.6142 17.2415 9.88 17.2399C10.1458 17.2415 10.4013 17.1371 10.59 16.9499L14.83 12.7099C15.0193 12.5222 15.1258 12.2666 15.1258 11.9999C15.1258 11.7333 15.0193 11.4777 14.83 11.2899Z" fill="#171E2B"/>
</svg>
