<svg width="24" height="24" viewBox="0 0 24 24" fill="none" xmlns="http://www.w3.org/2000/svg">
<path fill-rule="evenodd" clip-rule="evenodd" d="M11.29 11.4603C11.4778 11.6496 11.7334 11.7561 12 11.7561C12.2666 11.7561 12.5222 11.6496 12.71 11.4603L15.71 8.46027C15.9708 8.20661 16.0765 7.83308 15.9872 7.48039C15.8979 7.1277 15.6273 6.84942 15.2772 6.75039C14.9271 6.65136 14.5508 6.74661 14.29 7.00027L12 9.34027L9.70999 7.00027C9.30682 6.60815 8.66211 6.6171 8.26999 7.02027C7.87787 7.42344 7.88682 8.06815 8.28999 8.46027L11.29 11.4603ZM14.29 12.5406L12 14.8406L9.70999 12.5406C9.30682 12.1485 8.66211 12.1574 8.26999 12.5606C7.87787 12.9637 7.88682 13.6085 8.28999 14.0006L11.29 17.0006C11.4778 17.1899 11.7334 17.2964 12 17.2964C12.2666 17.2964 12.5222 17.1899 12.71 17.0006L15.71 14.0006C16.1021 13.6085 16.1021 12.9727 15.71 12.5806C15.3179 12.1885 14.6821 12.1885 14.29 12.5806V12.5406Z" fill="#171E2B"/>
</svg>
