<svg width="24" height="24" viewBox="0 0 24 24" fill="none" xmlns="http://www.w3.org/2000/svg">
<path fill-rule="evenodd" clip-rule="evenodd" d="M17 13.4102L12.71 9.17019C12.5222 8.98088 12.2666 8.8744 12 8.8744C11.7333 8.8744 11.4777 8.98088 11.29 9.17019L7.04998 13.4102C6.86067 13.598 6.75418 13.8536 6.75418 14.1202C6.75418 14.3868 6.86067 14.6424 7.04998 14.8302C7.44002 15.2179 8.06994 15.2179 8.45998 14.8302L12 11.2902L15.54 14.8302C15.7262 15.0149 15.9776 15.1191 16.24 15.1202C16.5058 15.1217 16.7613 15.0174 16.95 14.8302C17.1461 14.6492 17.2616 14.3973 17.271 14.1306C17.2804 13.8639 17.1828 13.6046 17 13.4102Z" fill="#171E2B"/>
</svg>
