<svg width="24" height="24" viewBox="0 0 24 24" fill="none" xmlns="http://www.w3.org/2000/svg">
<path fill-rule="evenodd" clip-rule="evenodd" d="M17 9.16971C16.61 8.78199 15.98 8.78199 15.59 9.16971L12 12.7097L8.45999 9.16971C8.06996 8.78199 7.44003 8.78199 7.04999 9.16971C6.86068 9.35748 6.75419 9.61308 6.75419 9.87971C6.75419 10.1464 6.86068 10.4019 7.04999 10.5897L11.29 14.8297C11.4778 15.019 11.7334 15.1255 12 15.1255C12.2666 15.1255 12.5222 15.019 12.71 14.8297L17 10.5897C17.1893 10.4019 17.2958 10.1464 17.2958 9.87971C17.2958 9.61308 17.1893 9.35748 17 9.16971Z" fill="#171E2B"/>
</svg>
