<svg width="24" height="24" viewBox="0 0 24 24" fill="none" xmlns="http://www.w3.org/2000/svg">
<path fill-rule="evenodd" clip-rule="evenodd" d="M8.46001 8.29008C8.06788 7.88692 7.42317 7.87796 7.02001 8.27008C6.61684 8.66221 6.60788 9.30692 7.00001 9.71008L9.34001 12.0001L7.00001 14.2901C6.81069 14.4779 6.70421 14.7334 6.70421 15.0001C6.70421 15.2667 6.81069 15.5223 7.00001 15.7101C7.18777 15.8994 7.44337 16.0059 7.71001 16.0059C7.97664 16.0059 8.23224 15.8994 8.42001 15.7101L11.42 12.7101C11.6093 12.5223 11.7158 12.2667 11.7158 12.0001C11.7158 11.7334 11.6093 11.4779 11.42 11.2901L8.46001 8.29008ZM16.96 11.2899L13.96 8.28991C13.5679 7.89778 12.9321 7.89778 12.54 8.28991C12.1479 8.68203 12.1479 9.31778 12.54 9.70991L14.84 11.9999L12.54 14.2899C12.3507 14.4777 12.2442 14.7333 12.2442 14.9999C12.2442 15.2665 12.3507 15.5221 12.54 15.7099C12.7278 15.8992 12.9834 16.0057 13.25 16.0057C13.5166 16.0057 13.7722 15.8992 13.96 15.7099L16.96 12.7099C17.1547 12.5275 17.2685 12.2749 17.276 12.0082C17.2835 11.7416 17.1841 11.483 17 11.2899H16.96Z" fill="#171E2B"/>
</svg>
