<svg width="24" height="24" viewBox="0 0 24 24" fill="none" xmlns="http://www.w3.org/2000/svg">
<path fill-rule="evenodd" clip-rule="evenodd" d="M11.46 8.28969C11.2722 8.10038 11.0166 7.9939 10.75 7.9939C10.4834 7.9939 10.2278 8.10038 10.04 8.28969L7.04 11.2897C6.85069 11.4775 6.7442 11.7331 6.7442 11.9997C6.7442 12.2663 6.85069 12.5219 7.04 12.7097L10.04 15.7097C10.2278 15.899 10.4834 16.0055 10.75 16.0055C11.0166 16.0055 11.2722 15.899 11.46 15.7097C11.6493 15.5219 11.7558 15.2663 11.7558 14.9997C11.7558 14.7331 11.6493 14.4775 11.46 14.2897L9.16 11.9997L11.46 9.70969C11.6493 9.52193 11.7558 9.26633 11.7558 8.99969C11.7558 8.73306 11.6493 8.47746 11.46 8.28969ZM14.66 11.9999L17 9.7099C17.3921 9.31778 17.3921 8.68203 17 8.2899C16.6079 7.89778 15.9721 7.89778 15.58 8.2899L12.58 11.2899C12.3907 11.4777 12.2842 11.7333 12.2842 11.9999C12.2842 12.2665 12.3907 12.5221 12.58 12.7099L15.58 15.7099C15.7678 15.8992 16.0234 16.0057 16.29 16.0057C16.5566 16.0057 16.8122 15.8992 17 15.7099C17.1893 15.5221 17.2958 15.2665 17.2958 14.9999C17.2958 14.7333 17.1893 14.4777 17 14.2899L14.66 11.9999Z" fill="#171E2B"/>
</svg>
