<svg width="24" height="24" viewBox="0 0 24 24" fill="none" xmlns="http://www.w3.org/2000/svg">
<path fill-rule="evenodd" clip-rule="evenodd" d="M12.71 12.5399C12.5222 12.3506 12.2666 12.2441 12 12.2441C11.7334 12.2441 11.4778 12.3506 11.29 12.5399L8.28999 15.5399C7.88682 15.9321 7.87787 16.5768 8.26999 16.9799C8.66211 17.3831 9.30682 17.3921 9.70999 16.9999L12 14.6599L14.29 16.9999C14.4778 17.1893 14.7334 17.2957 15 17.2957C15.2666 17.2957 15.5222 17.1893 15.71 16.9999C15.8993 16.8122 16.0058 16.5566 16.0058 16.2899C16.0058 16.0233 15.8993 15.7677 15.71 15.5799L12.71 12.5399ZM9.71 11.4602L12 9.16019L14.29 11.4602C14.4778 11.6495 14.7334 11.756 15 11.756C15.2666 11.756 15.5222 11.6495 15.71 11.4602C15.8993 11.2724 16.0058 11.0168 16.0058 10.7502C16.0058 10.4836 15.8993 10.228 15.71 10.0402L12.71 7.04019C12.5222 6.85088 12.2666 6.74439 12 6.74439C11.7334 6.74439 11.4778 6.85088 11.29 7.04019L8.29 10.0402C7.89788 10.4323 7.89788 11.0681 8.29 11.4602C8.68212 11.8523 9.31788 11.8523 9.71 11.4602Z" fill="#171E2B"/>
</svg>
