<svg width="24" height="24" viewBox="0 0 24 24" fill="none" xmlns="http://www.w3.org/2000/svg">
<path fill-rule="evenodd" clip-rule="evenodd" d="M11.29 11.9999L14.83 8.45995C15.2177 8.06991 15.2177 7.43998 14.83 7.04995C14.6422 6.86063 14.3866 6.75415 14.12 6.75415C13.8534 6.75415 13.5978 6.86063 13.41 7.04995L9.17001 11.2899C8.98069 11.4777 8.87421 11.7333 8.87421 11.9999C8.87421 12.2666 8.98069 12.5222 9.17001 12.7099L13.41 16.9999C13.5987 17.1871 13.8542 17.2915 14.12 17.2899C14.3858 17.2915 14.6413 17.1871 14.83 16.9999C15.2177 16.6099 15.2177 15.98 14.83 15.5899L11.29 11.9999Z" fill="#171E2B"/>
</svg>
