<svg width="24" height="24" viewBox="0 0 24 24" fill="none" xmlns="http://www.w3.org/2000/svg">
<path fill-rule="evenodd" clip-rule="evenodd" d="M15.54 11.2899L9.87998 5.63995C9.69222 5.45063 9.43662 5.34415 9.16998 5.34415C8.90334 5.34415 8.64775 5.45063 8.45998 5.63995C8.07226 6.02998 8.07226 6.65991 8.45998 7.04995L13.41 12.0499L8.45998 16.9999C8.07226 17.39 8.07226 18.0199 8.45998 18.4099C8.64705 18.6008 8.90274 18.7088 9.16998 18.7099C9.43723 18.7088 9.69291 18.6008 9.87998 18.4099L15.54 12.7599C15.7452 12.5706 15.8619 12.3041 15.8619 12.0249C15.8619 11.7457 15.7452 11.4793 15.54 11.2899Z" fill="#171E2B"/>
</svg>
