<svg width="24" height="24" viewBox="0 0 24 24" fill="none" xmlns="http://www.w3.org/2000/svg">
<path fill-rule="evenodd" clip-rule="evenodd" d="M9 9C8.44771 9 8 9.44771 8 10C8 10.5523 8.44771 11 9 11C9.55228 11 10 10.5523 10 10C10 9.44771 9.55228 9 9 9ZM15 13.0005C13.1848 13.0004 11.5122 13.9841 10.63 15.5705C10.3586 16.0485 10.5239 16.6559 11 16.9305C11.1495 17.0152 11.3182 17.06 11.49 17.0605C11.8508 17.0599 12.1832 16.865 12.36 16.5505C12.8903 15.5899 13.9028 14.9955 15 15.0005C15.5523 15.0005 16 14.5528 16 14.0005C16 13.4482 15.5523 13.0005 15 13.0005ZM15 9C14.4477 9 14 9.44771 14 10C14 10.5523 14.4477 11 15 11C15.5523 11 16 10.5523 16 10C16 9.44771 15.5523 9 15 9ZM12 2.00025C6.47715 2.00025 2 6.4774 2 12.0002C2 17.5231 6.47715 22.0002 12 22.0002C17.5228 22.0002 22 17.5231 22 12.0002C22 9.34808 20.9464 6.80454 19.0711 4.92918C17.1957 3.05382 14.6522 2.00025 12 2.00025ZM12 20.0005C7.58172 20.0005 4 16.4188 4 12.0005C4 7.58222 7.58172 4.00049 12 4.00049C16.4183 4.00049 20 7.58222 20 12.0005C20 14.1222 19.1571 16.1571 17.6569 17.6573C16.1566 19.1576 14.1217 20.0005 12 20.0005Z" fill="#171E2B"/>
</svg>
