<svg width="24" height="24" viewBox="0 0 24 24" fill="none" xmlns="http://www.w3.org/2000/svg">
<path fill-rule="evenodd" clip-rule="evenodd" d="M14.66 13.5599L10.47 15.0599C10.0156 15.2248 9.7441 15.6911 9.82517 16.1677C9.90624 16.6442 10.3166 16.9946 10.8 16.9999C10.916 16.9998 11.031 16.9795 11.14 16.9399L15.34 15.4399C15.6857 15.3258 15.9421 15.0329 16.0094 14.6752C16.0767 14.3175 15.9443 13.9514 15.6637 13.7195C15.3831 13.4876 14.9987 13.4265 14.66 13.5599ZM10.66 8.55996C10.27 8.17224 9.64004 8.17224 9.25 8.55996C9.06224 8.74928 8.80664 8.85576 8.54 8.85576C8.27337 8.85576 8.01777 8.74928 7.83 8.55996C7.43997 8.17224 6.81004 8.17224 6.42 8.55996C6.23069 8.74773 6.1242 9.00333 6.1242 9.26996C6.1242 9.5366 6.23069 9.7922 6.42 9.97996C7.59127 11.1498 9.48873 11.1498 10.66 9.97996C10.8504 9.7861 10.9537 9.52309 10.9462 9.25146C10.9387 8.97982 10.8209 8.72296 10.62 8.53996L10.66 8.55996ZM17.66 8.55996C17.27 8.17224 16.64 8.17224 16.25 8.55996C16.0622 8.74928 15.8066 8.85576 15.54 8.85576C15.2734 8.85576 15.0178 8.74928 14.83 8.55996C14.44 8.17224 13.81 8.17224 13.42 8.55996C13.2307 8.74773 13.1242 9.00333 13.1242 9.26996C13.1242 9.5366 13.2307 9.7922 13.42 9.97996C14.5913 11.1498 16.4887 11.1498 17.66 9.97996C17.8504 9.7861 17.9537 9.52309 17.9462 9.25146C17.9387 8.97982 17.8209 8.72296 17.62 8.53996L17.66 8.55996ZM12 2.00025C6.47715 2.00025 2 6.4774 2 12.0002C2 17.5231 6.47715 22.0002 12 22.0002C17.5228 22.0002 22 17.5231 22 12.0002C22 9.34808 20.9464 6.80454 19.0711 4.92918C17.1957 3.05382 14.6522 2.00025 12 2.00025ZM12 20.0005C7.58172 20.0005 4 16.4188 4 12.0005C4 7.58222 7.58172 4.00049 12 4.00049C16.4183 4.00049 20 7.58222 20 12.0005C20 14.1222 19.1571 16.1571 17.6569 17.6573C16.1566 19.1576 14.1217 20.0005 12 20.0005Z" fill="#171E2B"/>
</svg>
