<svg width="24" height="24" viewBox="0 0 24 24" fill="none" xmlns="http://www.w3.org/2000/svg">
<path fill-rule="evenodd" clip-rule="evenodd" d="M9.99998 13.0005H2.99998C2.4477 13.0005 1.99998 13.4482 1.99998 14.0005V21.0005C1.99998 21.5528 2.4477 22.0005 2.99998 22.0005H9.99998C10.5523 22.0005 11 21.5528 11 21.0005V14.0005C11 13.4482 10.5523 13.0005 9.99998 13.0005ZM8.99998 20H3.99998V15H8.99998V20ZM21 2.00025H14C13.4477 2.00025 13 2.44796 13 3.00025V10.0002C13 10.5525 13.4477 11.0002 14 11.0002H21C21.5523 11.0002 22 10.5525 22 10.0002V3.00025C22 2.44796 21.5523 2.00025 21 2.00025ZM20 9.00049H15V4.00049H20V9.00049ZM21 13.0005H14C13.4477 13.0005 13 13.4482 13 14.0005V21.0005C13 21.5528 13.4477 22.0005 14 22.0005H21C21.5523 22.0005 22 21.5528 22 21.0005V14.0005C22 13.4482 21.5523 13.0005 21 13.0005ZM20 20H15V15H20V20ZM9.99998 2.00025H2.99998C2.4477 2.00025 1.99998 2.44796 1.99998 3.00025V10.0002C1.99998 10.5525 2.4477 11.0002 2.99998 11.0002H9.99998C10.5523 11.0002 11 10.5525 11 10.0002V3.00025C11 2.44796 10.5523 2.00025 9.99998 2.00025ZM8.99998 9.00049H3.99998V4.00049H8.99998V9.00049Z" fill="#171E2B"/>
</svg>
