<svg width="24" height="24" viewBox="0 0 24 24" fill="none" xmlns="http://www.w3.org/2000/svg">
<path fill-rule="evenodd" clip-rule="evenodd" d="M10 13.0002H14C14.5523 13.0002 15 12.5525 15 12.0002C15 11.448 14.5523 11.0002 14 11.0002H10C9.44772 11.0002 9 11.448 9 12.0002C9 12.5525 9.44772 13.0002 10 13.0002ZM19 3H4.99998C3.54797 3.01127 2.31247 4.06081 2.06658 5.49189C1.82069 6.92297 2.63501 8.32472 3.99998 8.82V18C3.99998 19.6569 5.34312 21 6.99998 21H17C18.6568 21 20 19.6569 20 18V8.82C21.3649 8.32472 22.1793 6.92297 21.9334 5.49189C21.6875 4.06081 20.452 3.01127 19 3ZM18 18C18 18.5523 17.5523 19 17 19H7C6.44772 19 6 18.5523 6 18V9H18V18ZM19 7.00025H4.99999C4.4477 7.00025 3.99999 6.55253 3.99999 6.00025C3.99999 5.44796 4.4477 5.00025 4.99999 5.00025H19C19.5523 5.00025 20 5.44796 20 6.00025C20 6.55253 19.5523 7.00025 19 7.00025Z" fill="#171E2B"/>
</svg>
