<svg width="24" height="24" viewBox="0 0 24 24" fill="none" xmlns="http://www.w3.org/2000/svg">
<path fill-rule="evenodd" clip-rule="evenodd" d="M9.99999 14H14C14.5523 14 15 13.5523 15 13C15 12.4477 14.5523 12 14 12H9.99999C9.44771 12 8.99999 12.4477 8.99999 13C8.99999 13.5523 9.44771 14 9.99999 14ZM19 3H4.99998C3.34313 3 1.99998 4.34315 1.99998 6V9C1.99998 9.55228 2.4477 10 2.99998 10H3.99998V18C3.99998 19.6569 5.34313 21 6.99998 21H17C18.6568 21 20 19.6569 20 18V10H21C21.5523 10 22 9.55228 22 9V6C22 4.34315 20.6568 3 19 3ZM18 17.9998C18 18.552 17.5523 18.9998 17 18.9998H6.99999C6.44771 18.9998 5.99999 18.552 5.99999 17.9998V9.99975H18V17.9998ZM20 8.00025H3.99998V6.00025C3.99998 5.44796 4.44769 5.00025 4.99998 5.00025H19C19.5523 5.00025 20 5.44796 20 6.00025V8.00025Z" fill="#171E2B"/>
</svg>
