<svg width="24" height="24" viewBox="0 0 24 24" fill="none" xmlns="http://www.w3.org/2000/svg">
<path fill-rule="evenodd" clip-rule="evenodd" d="M10.71 11.29L8.21 8.79C7.95634 8.53634 7.58663 8.43728 7.24012 8.53012C6.89362 8.62297 6.62297 8.89362 6.53012 9.24012C6.43728 9.58663 6.53634 9.95634 6.79 10.21L7.59 11H4V7C4 6.44772 3.55228 6 3 6C2.44772 6 2 6.44772 2 7V17C2 17.5523 2.44772 18 3 18C3.55228 18 4 17.5523 4 17V13H7.59L6.79 13.79C6.60069 13.9778 6.4942 14.2334 6.4942 14.5C6.4942 14.7666 6.60069 15.0222 6.79 15.21C6.97777 15.3993 7.23336 15.5058 7.5 15.5058C7.76664 15.5058 8.02223 15.3993 8.21 15.21L10.71 12.71C10.801 12.6149 10.8724 12.5028 10.92 12.38C11.02 12.1365 11.02 11.8635 10.92 11.62C10.8724 11.4972 10.801 11.3851 10.71 11.29ZM21 6C20.4477 6 20 6.44772 20 7V11H16.41L17.21 10.21C17.4637 9.95634 17.5627 9.58663 17.4699 9.24012C17.377 8.89362 17.1064 8.62297 16.7599 8.53012C16.4134 8.43728 16.0437 8.53634 15.79 8.79L13.29 11.29C13.199 11.3851 13.1276 11.4972 13.08 11.62C12.98 11.8635 12.98 12.1365 13.08 12.38C13.1276 12.5028 13.199 12.6149 13.29 12.71L15.79 15.21C15.9778 15.3993 16.2334 15.5058 16.5 15.5058C16.7666 15.5058 17.0222 15.3993 17.21 15.21C17.3993 15.0222 17.5058 14.7666 17.5058 14.5C17.5058 14.2334 17.3993 13.9778 17.21 13.79L16.41 13H20V17C20 17.5523 20.4477 18 21 18C21.5523 18 22 17.5523 22 17V7C22 6.44772 21.5523 6 21 6Z" fill="#171E2B"/>
</svg>
