<svg width="24" height="24" viewBox="0 0 24 24" fill="none" xmlns="http://www.w3.org/2000/svg">
<path fill-rule="evenodd" clip-rule="evenodd" d="M8.29002 11.2904C8.19898 11.3855 8.12761 11.4977 8.08002 11.6204C7.98 11.8639 7.98 12.137 8.08002 12.3804C8.12761 12.5032 8.19898 12.6153 8.29002 12.7104L11.29 15.7104C11.6821 16.1026 12.3179 16.1026 12.71 15.7104C13.1021 15.3183 13.1021 14.6826 12.71 14.2904L11.41 13.0004H15C15.5523 13.0004 16 12.5527 16 12.0004C16 11.4482 15.5523 11.0004 15 11.0004H11.41L12.71 9.71044C12.8993 9.52267 13.0058 9.26708 13.0058 9.00044C13.0058 8.7338 12.8993 8.47821 12.71 8.29044C12.5223 8.10113 12.2667 7.99464 12 7.99464C11.7334 7.99464 11.4778 8.10113 11.29 8.29044L8.29002 11.2904ZM2 12.0002C2 17.5231 6.47715 22.0002 12 22.0002C17.5228 22.0002 22 17.5231 22 12.0002C22 6.4774 17.5228 2.00025 12 2.00025C6.47715 2.00025 2 6.4774 2 12.0002ZM20 12.0005C20 16.4188 16.4183 20.0005 12 20.0005C7.58174 20.0005 4.00002 16.4188 4.00002 12.0005C4.00002 7.58222 7.58174 4.00049 12 4.00049C14.1217 4.00049 16.1566 4.84335 17.6569 6.34364C19.1572 7.84393 20 9.87876 20 12.0005Z" fill="#171E2B"/>
</svg>
