<svg width="24" height="24" viewBox="0 0 24 24" fill="none" xmlns="http://www.w3.org/2000/svg">
<path fill-rule="evenodd" clip-rule="evenodd" d="M15.29 16.29L13 18.59V7C13 6.44772 12.5523 6 12 6C11.4477 6 11 6.44772 11 7V18.59L8.70997 16.29C8.31785 15.8979 7.68209 15.8979 7.28997 16.29C6.89785 16.6821 6.89785 17.3179 7.28997 17.71L11.29 21.71C11.3851 21.801 11.4972 21.8724 11.62 21.92C11.862 22.027 12.1379 22.027 12.38 21.92C12.5027 21.8724 12.6149 21.801 12.71 21.71L16.71 17.71C17.1021 17.3179 17.1021 16.6821 16.71 16.29C16.3178 15.8979 15.6821 15.8979 15.29 16.29ZM19 2.00025H4.99998C4.4477 2.00025 3.99998 2.44796 3.99998 3.00025C3.99998 3.55253 4.4477 4.00025 4.99998 4.00025H19C19.5523 4.00025 20 3.55253 20 3.00025C20 2.44796 19.5523 2.00025 19 2.00025Z" fill="#171E2B"/>
</svg>
