<svg width="24" height="24" viewBox="0 0 24 24" fill="none" xmlns="http://www.w3.org/2000/svg">
<path fill-rule="evenodd" clip-rule="evenodd" d="M21.92 6.62C21.8185 6.37565 21.6243 6.18147 21.38 6.08C21.2598 6.02876 21.1307 6.00158 21 6H16C15.4477 6 15 6.44772 15 7C15 7.55229 15.4477 8 16 8H18.59L13 13.59L9.71 10.29C9.52223 10.1007 9.26664 9.9942 9 9.9942C8.73336 9.9942 8.47777 10.1007 8.29 10.29L2.29 16.29C2.10069 16.4778 1.9942 16.7334 1.9942 17C1.9942 17.2666 2.10069 17.5222 2.29 17.71C2.47777 17.8993 2.73336 18.0058 3 18.0058C3.26664 18.0058 3.52223 17.8993 3.71 17.71L9 12.41L12.29 15.71C12.4778 15.8993 12.7334 16.0058 13 16.0058C13.2666 16.0058 13.5222 15.8993 13.71 15.71L20 9.41V12C20 12.5523 20.4477 13 21 13C21.5523 13 22 12.5523 22 12V7C21.9984 6.86932 21.9712 6.74022 21.92 6.62Z" fill="#171E2B"/>
</svg>
