<svg width="24" height="24" viewBox="0 0 24 24" fill="none" xmlns="http://www.w3.org/2000/svg">
<path fill-rule="evenodd" clip-rule="evenodd" d="M20.92 6.61967C20.8724 6.49692 20.801 6.38477 20.71 6.28967L17.71 3.28967C17.3179 2.89754 16.6821 2.89754 16.29 3.28967C15.8979 3.68179 15.8979 4.31754 16.29 4.70967L17.59 5.99967H8.99999C7.34313 5.99967 5.99999 7.34281 5.99999 8.99967V17.5897L4.70999 16.2897C4.31786 15.8975 3.68211 15.8975 3.28999 16.2897C2.89786 16.6818 2.89786 17.3175 3.28999 17.7097L6.28999 20.7097C6.38509 20.8007 6.49724 20.8721 6.61999 20.9197C6.86203 21.0266 7.13795 21.0266 7.37999 20.9197C7.50274 20.8721 7.61488 20.8007 7.70999 20.7097L10.71 17.7097C11.1021 17.3175 11.1021 16.6818 10.71 16.2897C10.3179 15.8975 9.68211 15.8975 9.28999 16.2897L7.99999 17.5897V8.99967C7.99999 8.44738 8.4477 7.99967 8.99999 7.99967H17.59L16.29 9.28967C16.1007 9.47743 15.9942 9.73303 15.9942 9.99967C15.9942 10.2663 16.1007 10.5219 16.29 10.7097C16.4778 10.899 16.7333 11.0055 17 11.0055C17.2666 11.0055 17.5222 10.899 17.71 10.7097L20.71 7.70967C20.801 7.61456 20.8724 7.50242 20.92 7.37967C21.02 7.13621 21.02 6.86313 20.92 6.61967Z" fill="#171E2B"/>
</svg>
