<svg width="24" height="24" viewBox="0 0 24 24" fill="none" xmlns="http://www.w3.org/2000/svg">
<path fill-rule="evenodd" clip-rule="evenodd" d="M1.04596 12.2265C1.07512 12.2995 1.11884 12.3662 1.17462 12.4228L5.63808 16.8251C5.79349 16.9759 6.02001 17.0349 6.23231 16.9796C6.44461 16.9244 6.61044 16.7635 6.66732 16.5574C6.72421 16.3513 6.66351 16.1314 6.5081 15.9805L3.08622 12.5952L21.3873 12.5952C21.7257 12.5952 22 12.329 22 12.0005C22 11.672 21.7257 11.4058 21.3873 11.4058L3.08622 11.4058L6.5081 8.02047C6.62409 7.90879 6.68933 7.75678 6.68933 7.5982C6.68933 7.43961 6.62409 7.2876 6.5081 7.17593C6.39305 7.06333 6.23646 7 6.07309 7C5.90972 7 5.75312 7.06333 5.63808 7.17593L1.17462 11.5782C1.11884 11.6348 1.07512 11.7015 1.04596 11.7745C0.98468 11.9193 0.98468 12.0817 1.04596 12.2265Z" fill="#1A202C"/>
</svg>
