<svg width="24" height="24" viewBox="0 0 24 24" fill="none" xmlns="http://www.w3.org/2000/svg">
<path fill-rule="evenodd" clip-rule="evenodd" d="M9.99999 6C9.4477 6 8.99999 6.44772 8.99999 7V11H5.40999L6.20999 10.21C6.60211 9.81788 6.60211 9.18212 6.20999 8.79C5.81787 8.39788 5.18211 8.39788 4.78999 8.79L2.28999 11.29C2.19895 11.3851 2.12758 11.4972 2.07999 11.62C1.97997 11.8635 1.97997 12.1365 2.07999 12.38C2.12758 12.5028 2.19895 12.6149 2.28999 12.71L4.78999 15.21C4.97775 15.3993 5.23335 15.5058 5.49999 15.5058C5.76663 15.5058 6.02222 15.3993 6.20999 15.21C6.3993 15.0222 6.50579 14.7666 6.50579 14.5C6.50579 14.2334 6.3993 13.9778 6.20999 13.79L5.40999 13H8.99999V17C8.99999 17.5523 9.4477 18 9.99999 18C10.5523 18 11 17.5523 11 17V7C11 6.44772 10.5523 6 9.99999 6ZM21.92 11.62C21.8724 11.4972 21.801 11.3851 21.71 11.29L19.21 8.79C18.9563 8.53634 18.5866 8.43728 18.2401 8.53012C17.8936 8.62297 17.623 8.89362 17.5301 9.24012C17.4373 9.58663 17.5363 9.95634 17.79 10.21L18.59 11H15V7C15 6.44772 14.5523 6 14 6C13.4477 6 13 6.44772 13 7V17C13 17.5523 13.4477 18 14 18C14.5523 18 15 17.5523 15 17V13H18.59L17.79 13.79C17.6007 13.9778 17.4942 14.2334 17.4942 14.5C17.4942 14.7666 17.6007 15.0222 17.79 15.21C17.9778 15.3993 18.2333 15.5058 18.5 15.5058C18.7666 15.5058 19.0222 15.3993 19.21 15.21L21.71 12.71C21.801 12.6149 21.8724 12.5028 21.92 12.38C22.02 12.1365 22.02 11.8635 21.92 11.62Z" fill="#171E2B"/>
</svg>
