<svg width="24" height="24" viewBox="0 0 24 24" fill="none" xmlns="http://www.w3.org/2000/svg">
<path fill-rule="evenodd" clip-rule="evenodd" d="M21.92 2.62024C21.8185 2.37589 21.6243 2.18172 21.38 2.08024C21.2598 2.029 21.1307 2.00182 21 2.00024H15C14.4477 2.00024 14 2.44796 14 3.00024C14 3.55253 14.4477 4.00024 15 4.00024H18.59L4 18.5902V15.0002C4 14.448 3.55228 14.0002 3 14.0002C2.44772 14.0002 2 14.448 2 15.0002V21.0002C2.00158 21.1309 2.02876 21.26 2.08 21.3802C2.18147 21.6246 2.37565 21.8188 2.62 21.9202C2.74022 21.9715 2.86932 21.9987 3 22.0002H9C9.55228 22.0002 10 21.5525 10 21.0002C10 20.448 9.55228 20.0002 9 20.0002H5.41L20 5.41024V9.00024C20 9.55253 20.4477 10.0002 21 10.0002C21.5523 10.0002 22 9.55253 22 9.00024V3.00024C21.9984 2.86957 21.9712 2.74047 21.92 2.62024Z" fill="#171E2B"/>
</svg>
