<svg width="24" height="24" viewBox="0 0 24 24" fill="none" xmlns="http://www.w3.org/2000/svg">
<path fill-rule="evenodd" clip-rule="evenodd" d="M9.41 8H17C17.5523 8 18 7.55229 18 7C18 6.44772 17.5523 6 17 6H7C6.86932 6.00158 6.74022 6.02876 6.62 6.08C6.37565 6.18147 6.18147 6.37565 6.08 6.62C6.02876 6.74022 6.00158 6.86932 6 7V17C6 17.5523 6.44772 18 7 18C7.55229 18 8 17.5523 8 17V9.41L16.29 17.71C16.4778 17.8993 16.7334 18.0058 17 18.0058C17.2666 18.0058 17.5222 17.8993 17.71 17.71C17.8993 17.5222 18.0058 17.2666 18.0058 17C18.0058 16.7334 17.8993 16.4778 17.71 16.29L9.41 8Z" fill="#171E2B"/>
</svg>
