<svg width="24" height="24" viewBox="0 0 24 24" fill="none" xmlns="http://www.w3.org/2000/svg">
<path fill-rule="evenodd" clip-rule="evenodd" d="M13.79 10.2102C13.9778 10.3995 14.2334 10.506 14.5 10.506C14.7667 10.506 15.0223 10.3995 15.21 10.2102C15.3993 10.0224 15.5058 9.76684 15.5058 9.5002C15.5058 9.23356 15.3993 8.97797 15.21 8.7902L12.71 6.2902C12.6149 6.19916 12.5028 6.12779 12.38 6.0802C12.1366 5.98018 11.8635 5.98018 11.62 6.0802C11.4973 6.12779 11.3851 6.19916 11.29 6.2902L8.79002 8.7902C8.39789 9.18232 8.39789 9.81808 8.79002 10.2102C9.18214 10.6023 9.81789 10.6023 10.21 10.2102L11 9.4102V14.5902L10.21 13.7902C9.81789 13.3981 9.18214 13.3981 8.79002 13.7902C8.39789 14.1823 8.39789 14.8181 8.79002 15.2102L11.29 17.7102C11.3851 17.8012 11.4973 17.8726 11.62 17.9202C11.8621 18.0272 12.138 18.0272 12.38 17.9202C12.5028 17.8726 12.6149 17.8012 12.71 17.7102L15.21 15.2102C15.6021 14.8181 15.6021 14.1823 15.21 13.7902C14.8179 13.3981 14.1821 13.3981 13.79 13.7902L13 14.5902V9.4102L13.79 10.2102ZM7 4.00025H17C17.5523 4.00025 18 3.55253 18 3.00024C18 2.44796 17.5523 2.00024 17 2.00024H7C6.44772 2.00024 6 2.44796 6 3.00024C6 3.55253 6.44772 4.00025 7 4.00025ZM17 20.0002H7C6.44772 20.0002 6 20.448 6 21.0002C6 21.5525 6.44772 22.0002 7 22.0002H17C17.5523 22.0002 18 21.5525 18 21.0002C18 20.448 17.5523 20.0002 17 20.0002Z" fill="#171E2B"/>
</svg>
