<svg width="24" height="24" viewBox="0 0 24 24" fill="none" xmlns="http://www.w3.org/2000/svg">
<path fill-rule="evenodd" clip-rule="evenodd" d="M21.92 11.6201C21.8724 11.4973 21.8011 11.3852 21.71 11.2901L17.71 7.29009C17.3179 6.89796 16.6821 6.89796 16.29 7.29009C15.8979 7.68221 15.8979 8.31796 16.29 8.71009L18.59 11.0001H5.41002L7.71002 8.71009C7.96368 8.45643 8.06274 8.08671 7.9699 7.74021C7.87705 7.3937 7.6064 7.12305 7.2599 7.03021C6.91339 6.93736 6.54368 7.03643 6.29002 7.29009L2.29002 11.2901C2.19898 11.3852 2.12761 11.4973 2.08002 11.6201C1.98 11.8635 1.98 12.1366 2.08002 12.3801C2.12761 12.5028 2.19898 12.615 2.29002 12.7101L6.29002 16.7101C6.47779 16.8994 6.73338 17.0059 7.00002 17.0059C7.26666 17.0059 7.52225 16.8994 7.71002 16.7101C7.89933 16.5223 8.00582 16.2667 8.00582 16.0001C8.00582 15.7334 7.89933 15.4779 7.71002 15.2901L5.41002 13.0001H18.59L16.29 15.2901C16.1007 15.4779 15.9942 15.7334 15.9942 16.0001C15.9942 16.2667 16.1007 16.5223 16.29 16.7101C16.4778 16.8994 16.7334 17.0059 17 17.0059C17.2667 17.0059 17.5223 16.8994 17.71 16.7101L21.71 12.7101C21.8011 12.615 21.8724 12.5028 21.92 12.3801C22.02 12.1366 22.02 11.8635 21.92 11.6201Z" fill="#171E2B"/>
</svg>
