<svg width="24" height="24" viewBox="0 0 24 24" fill="none" xmlns="http://www.w3.org/2000/svg">
<path fill-rule="evenodd" clip-rule="evenodd" d="M10.2101 6.20971L11.0001 5.40971V9.99971C11.0001 10.552 11.4478 10.9997 12.0001 10.9997C12.5524 10.9997 13.0001 10.552 13.0001 9.99971V5.40971L13.7901 6.20971C13.9778 6.39903 14.2334 6.50551 14.5001 6.50551C14.7667 6.50551 15.0223 6.39903 15.2101 6.20971C15.3994 6.02195 15.5059 5.76635 15.5059 5.49971C15.5059 5.23308 15.3994 4.97748 15.2101 4.78971L12.7101 2.28971C12.615 2.19867 12.5028 2.12731 12.3801 2.07971C12.1366 1.9797 11.8635 1.9797 11.6201 2.07971C11.4973 2.12731 11.3852 2.19867 11.2901 2.28971L8.79007 4.78971C8.39794 5.18184 8.39794 5.81759 8.79007 6.20971C9.18219 6.60184 9.81795 6.60184 10.2101 6.20971ZM13.79 17.7898L13 18.5898V13.9998C13 13.4475 12.5523 12.9998 12 12.9998C11.4477 12.9998 11 13.4475 11 13.9998V18.5898L10.21 17.7898C9.95634 17.5361 9.58662 17.437 9.24012 17.5299C8.89361 17.6227 8.62296 17.8934 8.53012 18.2399C8.43727 18.5864 8.53634 18.9561 8.78999 19.2098L11.29 21.7098C11.3851 21.8008 11.4972 21.8722 11.62 21.9198C11.862 22.0267 12.138 22.0267 12.38 21.9198C12.5027 21.8722 12.6149 21.8008 12.71 21.7098L15.21 19.2098C15.4636 18.9561 15.5627 18.5864 15.4699 18.2399C15.377 17.8934 15.1064 17.6227 14.7599 17.5299C14.4134 17.437 14.0437 17.5361 13.79 17.7898Z" fill="#171E2B"/>
</svg>
