<svg width="24" height="24" viewBox="0 0 24 24" fill="none" xmlns="http://www.w3.org/2000/svg">
<path fill-rule="evenodd" clip-rule="evenodd" d="M8.69998 9.99991C9.09001 10.3876 9.71994 10.3876 10.11 9.99991C10.4977 9.60987 10.4977 8.97995 10.11 8.58991L3.83998 2.28991C3.44786 1.89779 2.8121 1.89779 2.41998 2.28991C2.02786 2.68203 2.02786 3.31779 2.41998 3.70991L8.69998 9.99991ZM21 13.9999C20.4477 13.9999 20 14.4476 20 14.9999V18.5899L15.44 13.9999C15.0423 13.6023 14.3976 13.6023 14 13.9999C13.6023 14.3975 13.6023 15.0423 14 15.4399L18.59 19.9999H15C14.4477 19.9999 14 20.4476 14 20.9999C14 21.5522 14.4477 21.9999 15 21.9999H21C21.1306 21.9983 21.2597 21.9711 21.38 21.9199C21.6243 21.8184 21.8185 21.6243 21.92 21.3799C21.9712 21.2597 21.9984 21.1306 22 20.9999V14.9999C22 14.4476 21.5523 13.9999 21 13.9999ZM21.92 2.62025C21.8185 2.3759 21.6243 2.18173 21.38 2.08025C21.2597 2.02901 21.1306 2.00183 21 2.00025H15C14.4477 2.00025 14 2.44797 14 3.00025C14 3.55254 14.4477 4.00025 15 4.00025H18.59L2.28997 20.2903C2.10066 20.478 1.99417 20.7336 1.99417 21.0002C1.99417 21.2669 2.10066 21.5225 2.28997 21.7103C2.47774 21.8996 2.73333 22.006 2.99997 22.006C3.26661 22.006 3.5222 21.8996 3.70997 21.7103L20 5.41025V9.00025C20 9.55254 20.4477 10.0003 21 10.0003C21.5523 10.0003 22 9.55254 22 9.00025V3.00025C21.9984 2.86957 21.9712 2.74047 21.92 2.62025Z" fill="#171E2B"/>
</svg>
