<svg width="24" height="24" viewBox="0 0 24 24" fill="none" xmlns="http://www.w3.org/2000/svg">
<path fill-rule="evenodd" clip-rule="evenodd" d="M17 15.9997H9.41L17.71 7.70966C18.1021 7.31754 18.1021 6.68178 17.71 6.28966C17.3179 5.89754 16.6821 5.89754 16.29 6.28966L8 14.5897V6.99966C8 6.44737 7.55229 5.99966 7 5.99966C6.44772 5.99966 6 6.44737 6 6.99966V16.9997C6.00158 17.1303 6.02876 17.2594 6.08 17.3797C6.18147 17.624 6.37565 17.8182 6.62 17.9197C6.74022 17.9709 6.86932 17.9981 7 17.9997H17C17.5523 17.9997 18 17.5519 18 16.9997C18 16.4474 17.5523 15.9997 17 15.9997Z" fill="#171E2B"/>
</svg>
