<svg width="24" height="24" viewBox="0 0 24 24" fill="none" xmlns="http://www.w3.org/2000/svg">
<path fill-rule="evenodd" clip-rule="evenodd" d="M17.92 6.62C17.8185 6.37565 17.6244 6.18147 17.38 6.08C17.2598 6.02876 17.1307 6.00158 17 6H7.00001C6.44772 6 6.00001 6.44772 6.00001 7C6.00001 7.55229 6.44772 8 7.00001 8H14.59L6.29001 16.29C6.10069 16.4778 5.99421 16.7334 5.99421 17C5.99421 17.2666 6.10069 17.5222 6.29001 17.71C6.47777 17.8993 6.73337 18.0058 7.00001 18.0058C7.26665 18.0058 7.52224 17.8993 7.71001 17.71L16 9.41V17C16 17.5523 16.4477 18 17 18C17.5523 18 18 17.5523 18 17V7C17.9984 6.86932 17.9713 6.74022 17.92 6.62Z" fill="#171E2B"/>
</svg>
