<svg width="24" height="24" viewBox="0 0 24 24" fill="none" xmlns="http://www.w3.org/2000/svg">
<path fill-rule="evenodd" clip-rule="evenodd" d="M21.954 11.7735C21.9249 11.7005 21.8812 11.6338 21.8254 11.5772L17.3619 7.17492C17.2065 7.02406 16.98 6.96514 16.7677 7.02036C16.5554 7.07558 16.3896 7.23655 16.3327 7.44263C16.2758 7.64871 16.3365 7.8686 16.4919 8.01946L19.9138 11.4048H1.61269C1.27431 11.4048 1 11.671 1 11.9995C1 12.328 1.27431 12.5942 1.61269 12.5942H19.9138L16.4919 15.9795C16.3759 16.0912 16.3107 16.2432 16.3107 16.4018C16.3107 16.5604 16.3759 16.7124 16.4919 16.8241C16.6069 16.9367 16.7635 17 16.9269 17C17.0903 17 17.2469 16.9367 17.3619 16.8241L21.8254 12.4218C21.8812 12.3652 21.9249 12.2985 21.954 12.2255C22.0153 12.0807 22.0153 11.9183 21.954 11.7735Z" fill="#1A202C"/>
</svg>
