<svg width="24" height="24" viewBox="0 0 24 24" fill="none" xmlns="http://www.w3.org/2000/svg">
<path fill-rule="evenodd" clip-rule="evenodd" d="M19 20.0002H5C4.44772 20.0002 4 20.448 4 21.0002C4 21.5525 4.44772 22.0002 5 22.0002H19C19.5523 22.0002 20 21.5525 20 21.0002C20 20.448 19.5523 20.0002 19 20.0002ZM11.29 17.7102C11.3851 17.8013 11.4972 17.8727 11.62 17.9202C11.862 18.0272 12.138 18.0272 12.38 17.9202C12.5028 17.8727 12.6149 17.8013 12.71 17.7102L16.71 13.7102C17.1021 13.3181 17.1021 12.6824 16.71 12.2902C16.3179 11.8981 15.6821 11.8981 15.29 12.2902L13 14.5902V3.00024C13 2.44796 12.5523 2.00024 12 2.00024C11.4477 2.00024 11 2.44796 11 3.00024V14.5902L8.71 12.2902C8.45634 12.0366 8.08663 11.9375 7.74012 12.0304C7.39362 12.1232 7.12297 12.3939 7.03012 12.7404C6.93728 13.0869 7.03634 13.4566 7.29 13.7102L11.29 17.7102Z" fill="#171E2B"/>
</svg>
