<svg width="24" height="24" viewBox="0 0 24 24" fill="none" xmlns="http://www.w3.org/2000/svg">
<path fill-rule="evenodd" clip-rule="evenodd" d="M11.29 15.7103C11.3851 15.8013 11.4973 15.8727 11.62 15.9203C11.8635 16.0203 12.1365 16.0203 12.38 15.9203C12.5028 15.8727 12.6149 15.8013 12.71 15.7103L15.71 12.7102C16.1021 12.3181 16.1021 11.6824 15.71 11.2902C15.3179 10.8981 14.6821 10.8981 14.29 11.2902L13 12.5903V9.00025C13 8.44796 12.5523 8.00025 12 8.00025C11.4477 8.00025 11 8.44796 11 9.00025V12.5903L9.71001 11.2902C9.52224 11.1009 9.26665 10.9945 9.00001 10.9945C8.73337 10.9945 8.47777 11.1009 8.29001 11.2902C8.1007 11.478 7.99421 11.7336 7.99421 12.0002C7.99421 12.2669 8.1007 12.5225 8.29001 12.7102L11.29 15.7103ZM12 22.0002C17.5228 22.0002 22 17.5231 22 12.0002C22 6.4774 17.5228 2.00025 12 2.00025C6.47715 2.00025 2 6.4774 2 12.0002C2 14.6524 3.05357 17.196 4.92893 19.0713C6.8043 20.9467 9.34784 22.0002 12 22.0002ZM12 4.00049C16.4183 4.00049 20 7.58222 20 12.0005C20 16.4188 16.4183 20.0005 12 20.0005C7.58174 20.0005 4.00002 16.4188 4.00002 12.0005C4.00002 7.58222 7.58174 4.00049 12 4.00049Z" fill="#171E2B"/>
</svg>
