<svg width="24" height="24" viewBox="0 0 24 24" fill="none" xmlns="http://www.w3.org/2000/svg">
<path fill-rule="evenodd" clip-rule="evenodd" d="M16 10.9997H13V5.40971L13.79 6.20971C13.9778 6.39903 14.2334 6.50551 14.5 6.50551C14.7666 6.50551 15.0222 6.39903 15.21 6.20971C15.3993 6.02195 15.5058 5.76635 15.5058 5.49971C15.5058 5.23308 15.3993 4.97748 15.21 4.78971L12.71 2.28971C12.6149 2.19867 12.5027 2.12731 12.38 2.07971C12.1365 1.9797 11.8635 1.9797 11.62 2.07971C11.4972 2.12731 11.3851 2.19867 11.29 2.28971L8.79 4.78971C8.39788 5.18184 8.39788 5.81759 8.79 6.20971C9.18212 6.60184 9.81788 6.60184 10.21 6.20971L11 5.40971V10.9997H8C7.44772 10.9997 7 11.4474 7 11.9997C7 12.552 7.44772 12.9997 8 12.9997H11V18.5897L10.21 17.7897C9.95634 17.5361 9.58662 17.437 9.24012 17.5298C8.89362 17.6227 8.62297 17.8933 8.53012 18.2398C8.43728 18.5863 8.53634 18.9561 8.79 19.2097L11.29 21.7097C11.3851 21.8008 11.4972 21.8721 11.62 21.9197C11.862 22.0267 12.138 22.0267 12.38 21.9197C12.5027 21.8721 12.6149 21.8008 12.71 21.7097L15.21 19.2097C15.4637 18.9561 15.5627 18.5863 15.4699 18.2398C15.377 17.8933 15.1064 17.6227 14.7599 17.5298C14.4134 17.437 14.0437 17.5361 13.79 17.7897L13 18.5897V12.9997H16C16.5523 12.9997 17 12.552 17 11.9997C17 11.4474 16.5523 10.9997 16 10.9997Z" fill="#171E2B"/>
</svg>
