<svg width="24" height="24" viewBox="0 0 24 24" fill="none" xmlns="http://www.w3.org/2000/svg">
<path fill-rule="evenodd" clip-rule="evenodd" d="M7 10.9997H17C17.5523 10.9997 18 10.552 18 9.99971C18 9.44743 17.5523 8.99971 17 8.99971H13V5.40971L13.79 6.20971C13.9778 6.39902 14.2334 6.50551 14.5 6.50551C14.7666 6.50551 15.0222 6.39902 15.21 6.20971C15.3993 6.02194 15.5058 5.76635 15.5058 5.49971C15.5058 5.23307 15.3993 4.97748 15.21 4.78971L12.71 2.28971C12.6149 2.19867 12.5028 2.1273 12.38 2.07971C12.1365 1.97969 11.8635 1.97969 11.62 2.07971C11.4972 2.1273 11.3851 2.19867 11.29 2.28971L8.79 4.78971C8.39788 5.18183 8.39788 5.81759 8.79 6.20971C9.18212 6.60183 9.81788 6.60183 10.21 6.20971L11 5.40971V8.99971H7C6.44772 8.99971 6 9.44743 6 9.99971C6 10.552 6.44772 10.9997 7 10.9997ZM17 12.9998H7C6.44772 12.9998 6 13.4475 6 13.9998C6 14.552 6.44772 14.9998 7 14.9998H11V18.5898L10.21 17.7898C9.95634 17.5361 9.58663 17.437 9.24012 17.5299C8.89362 17.6227 8.62297 17.8934 8.53012 18.2399C8.43728 18.5864 8.53634 18.9561 8.79 19.2098L11.29 21.7098C11.3851 21.8008 11.4972 21.8722 11.62 21.9198C11.862 22.0267 12.138 22.0267 12.38 21.9198C12.5028 21.8722 12.6149 21.8008 12.71 21.7098L15.21 19.2098C15.4637 18.9561 15.5627 18.5864 15.4699 18.2399C15.377 17.8934 15.1064 17.6227 14.7599 17.5299C14.4134 17.437 14.0437 17.5361 13.79 17.7898L13 18.5898V14.9998H17C17.5523 14.9998 18 14.552 18 13.9998C18 13.4475 17.5523 12.9998 17 12.9998Z" fill="#171E2B"/>
</svg>
