<svg width="24" height="24" viewBox="0 0 24 24" fill="none" xmlns="http://www.w3.org/2000/svg">
<path fill-rule="evenodd" clip-rule="evenodd" d="M17.71 13.29C17.5222 13.1007 17.2666 12.9942 17 12.9942C16.7334 12.9942 16.4778 13.1007 16.29 13.29L13 16.59V5C13 4.44772 12.5523 4 12 4C11.4477 4 11 4.44772 11 5V16.59L7.71 13.29C7.31788 12.8979 6.68212 12.8979 6.29 13.29C5.89788 13.6821 5.89788 14.3179 6.29 14.71L11.29 19.71C11.3851 19.801 11.4973 19.8724 11.62 19.92C11.862 20.027 12.138 20.027 12.38 19.92C12.5028 19.8724 12.6149 19.801 12.71 19.71L17.71 14.71C17.8993 14.5222 18.0058 14.2666 18.0058 14C18.0058 13.7334 17.8993 13.4778 17.71 13.29Z" fill="#171E2B"/>
</svg>
