<svg width="24" height="24" viewBox="0 0 24 24" fill="none" xmlns="http://www.w3.org/2000/svg">
<path fill-rule="evenodd" clip-rule="evenodd" d="M17 5.99966C16.4477 5.99966 16 6.44737 16 6.99966V14.5897L7.71 6.28966C7.31788 5.89754 6.68212 5.89754 6.29 6.28966C5.89788 6.68178 5.89788 7.31754 6.29 7.70966L14.59 15.9997H7C6.44772 15.9997 6 16.4474 6 16.9997C6 17.5519 6.44772 17.9997 7 17.9997H17C17.1307 17.9981 17.2598 17.9709 17.38 17.9197C17.6244 17.8182 17.8185 17.624 17.92 17.3797C17.9712 17.2594 17.9984 17.1303 18 16.9997V6.99966C18 6.44737 17.5523 5.99966 17 5.99966Z" fill="#171E2B"/>
</svg>
