<svg width="24" height="24" viewBox="0 0 24 24" fill="none" xmlns="http://www.w3.org/2000/svg">
<path fill-rule="evenodd" clip-rule="evenodd" d="M21.92 11.6201C21.8724 11.4973 21.8011 11.3852 21.71 11.2901L19.21 8.79009C18.9564 8.53643 18.5866 8.43736 18.2401 8.53021C17.8936 8.62305 17.623 8.8937 17.5301 9.24021C17.4373 9.58671 17.5364 9.95643 17.79 10.2101L18.59 11.0001H14C13.4477 11.0001 13 11.4478 13 12.0001C13 12.5524 13.4477 13.0001 14 13.0001H18.59L17.79 13.7901C17.6007 13.9779 17.4942 14.2334 17.4942 14.5001C17.4942 14.7667 17.6007 15.0223 17.79 15.2101C17.9778 15.3994 18.2334 15.5059 18.5 15.5059C18.7667 15.5059 19.0223 15.3994 19.21 15.2101L21.71 12.7101C21.8011 12.615 21.8724 12.5028 21.92 12.3801C22.02 12.1366 22.02 11.8635 21.92 11.6201ZM10 11.0002H5.41002L6.21002 10.2102C6.60214 9.81804 6.60214 9.18228 6.21002 8.79016C5.8179 8.39804 5.18214 8.39804 4.79002 8.79016L2.29002 11.2902C2.19898 11.3853 2.12761 11.4974 2.08002 11.6202C1.98 11.8636 1.98 12.1367 2.08002 12.3802C2.12761 12.5029 2.19898 12.6151 2.29002 12.7102L4.79002 15.2102C4.97778 15.3995 5.23338 15.506 5.50002 15.506C5.76666 15.506 6.02225 15.3995 6.21002 15.2102C6.39933 15.0224 6.50582 14.7668 6.50582 14.5002C6.50582 14.2335 6.39933 13.9779 6.21002 13.7902L5.41002 13.0002H10C10.5523 13.0002 11 12.5524 11 12.0002C11 11.4479 10.5523 11.0002 10 11.0002Z" fill="#171E2B"/>
</svg>
