<svg width="24" height="24" viewBox="0 0 24 24" fill="none" xmlns="http://www.w3.org/2000/svg">
<path fill-rule="evenodd" clip-rule="evenodd" d="M3.00001 3.99975C2.44773 3.99975 2.00002 4.44747 2.00002 4.99975V18.9998C2.00002 19.552 2.44773 19.9998 3.00001 19.9998C3.5523 19.9998 4.00001 19.552 4.00001 18.9998V4.99975C4.00001 4.44747 3.5523 3.99975 3.00001 3.99975ZM21.92 11.6194C21.8724 11.4967 21.801 11.3845 21.71 11.2894L17.71 7.28941C17.3179 6.89729 16.6821 6.89729 16.29 7.28941C15.8979 7.68153 15.8979 8.31729 16.29 8.70941L18.59 10.9994H7C6.44771 10.9994 6 11.4471 6 11.9994C6 12.5517 6.44771 12.9994 7 12.9994H18.59L16.29 15.2894C16.1007 15.4772 15.9942 15.7328 15.9942 15.9994C15.9942 16.2661 16.1007 16.5216 16.29 16.7094C16.4778 16.8987 16.7334 17.0052 17 17.0052C17.2666 17.0052 17.5222 16.8987 17.71 16.7094L21.71 12.7094C21.801 12.6143 21.8724 12.5022 21.92 12.3794C22.02 12.136 22.02 11.8629 21.92 11.6194Z" fill="#171E2B"/>
</svg>
