<svg width="24" height="24" viewBox="0 0 24 24" fill="none" xmlns="http://www.w3.org/2000/svg">
<path fill-rule="evenodd" clip-rule="evenodd" d="M17.71 9.28495L12.71 4.28495C12.6149 4.19391 12.5028 4.12255 12.38 4.07495C12.1365 3.97493 11.8635 3.97493 11.62 4.07495C11.4973 4.12255 11.3851 4.19391 11.29 4.28495L6.29001 9.28495C6.03635 9.53861 5.93729 9.90832 6.03013 10.2548C6.12298 10.6013 6.39363 10.872 6.74013 10.9648C7.08664 11.0577 7.45635 10.9586 7.71001 10.705L11 7.40495V18.9949C11 19.5472 11.4477 19.9949 12 19.9949C12.5523 19.9949 13 19.5472 13 18.9949V7.40495L16.29 10.705C16.4778 10.8943 16.7334 11.0007 17 11.0007C17.2666 11.0007 17.5222 10.8943 17.71 10.705C17.8993 10.5172 18.0058 10.2616 18.0058 9.99495C18.0058 9.72831 17.8993 9.47272 17.71 9.28495Z" fill="#171E2B"/>
</svg>
