<svg width="24" height="24" viewBox="0 0 24 24" fill="none" xmlns="http://www.w3.org/2000/svg">
<path fill-rule="evenodd" clip-rule="evenodd" d="M15.29 16.2897L13 18.5897V5.40971L15.29 7.70971C15.4778 7.89903 15.7334 8.00551 16 8.00551C16.2666 8.00551 16.5222 7.89903 16.71 7.70971C16.8993 7.52195 17.0058 7.26635 17.0058 6.99971C17.0058 6.73308 16.8993 6.47748 16.71 6.28971L12.71 2.28971C12.6149 2.19867 12.5027 2.12731 12.38 2.07971C12.1365 1.9797 11.8635 1.9797 11.62 2.07971C11.4972 2.12731 11.3851 2.19867 11.29 2.28971L7.28999 6.28971C7.03634 6.54337 6.93727 6.91309 7.03012 7.25959C7.12296 7.6061 7.39361 7.87675 7.74012 7.96959C8.08662 8.06244 8.45634 7.96337 8.70999 7.70971L11 5.40971V18.5897L8.70999 16.2897C8.31787 15.8976 7.68212 15.8976 7.28999 16.2897C6.89787 16.6818 6.89787 17.3176 7.28999 17.7097L11.29 21.7097C11.3851 21.8008 11.4972 21.8721 11.62 21.9197C11.862 22.0267 12.138 22.0267 12.38 21.9197C12.5027 21.8721 12.6149 21.8008 12.71 21.7097L16.71 17.7097C17.1021 17.3176 17.1021 16.6818 16.71 16.2897C16.3179 15.8976 15.6821 15.8976 15.29 16.2897Z" fill="#171E2B"/>
</svg>
