<svg width="24" height="24" viewBox="0 0 24 24" fill="none" xmlns="http://www.w3.org/2000/svg">
<path fill-rule="evenodd" clip-rule="evenodd" d="M21.92 11.6198C21.8724 11.497 21.801 11.3849 21.71 11.2898L19.21 8.78976C18.9563 8.5361 18.5866 8.43703 18.2401 8.52988C17.8936 8.62272 17.623 8.89337 17.5301 9.23988C17.4373 9.58638 17.5363 9.9561 17.79 10.2098L18.59 10.9998H13V7.99976C13 7.44747 12.5523 6.99976 12 6.99976C11.4477 6.99976 11 7.44747 11 7.99976V10.9998H5.40999L6.20999 10.2098C6.60211 9.81764 6.60211 9.18188 6.20999 8.78976C5.81787 8.39763 5.18211 8.39763 4.78999 8.78976L2.28999 11.2898C2.19895 11.3849 2.12758 11.497 2.07999 11.6198C1.97997 11.8632 1.97997 12.1363 2.07999 12.3798C2.12758 12.5025 2.19895 12.6147 2.28999 12.7098L4.78999 15.2098C4.97775 15.3991 5.23335 15.5056 5.49999 15.5056C5.76663 15.5056 6.02222 15.3991 6.20999 15.2098C6.3993 15.022 6.50579 14.7664 6.50579 14.4998C6.50579 14.2331 6.3993 13.9775 6.20999 13.7898L5.40999 12.9998H11V15.9998C11 16.552 11.4477 16.9998 12 16.9998C12.5523 16.9998 13 16.552 13 15.9998V12.9998H18.59L17.79 13.7898C17.6007 13.9775 17.4942 14.2331 17.4942 14.4998C17.4942 14.7664 17.6007 15.022 17.79 15.2098C17.9778 15.3991 18.2334 15.5056 18.5 15.5056C18.7666 15.5056 19.0222 15.3991 19.21 15.2098L21.71 12.7098C21.801 12.6147 21.8724 12.5025 21.92 12.3798C22.02 12.1363 22.02 11.8632 21.92 11.6198Z" fill="#171E2B"/>
</svg>
