<svg width="24" height="24" viewBox="0 0 24 24" fill="none" xmlns="http://www.w3.org/2000/svg">
<path fill-rule="evenodd" clip-rule="evenodd" d="M17.71 11.2902L15.21 8.79015C14.8179 8.39803 14.1821 8.39803 13.79 8.79015C13.3979 9.18228 13.3979 9.81803 13.79 10.2102L14.59 11.0002H9.41002L10.21 10.2102C10.6021 9.81803 10.6021 9.18228 10.21 8.79015C9.8179 8.39803 9.18214 8.39803 8.79002 8.79015L6.29002 11.2902C6.19898 11.3853 6.12761 11.4974 6.08002 11.6202C5.98 11.8636 5.98 12.1367 6.08002 12.3802C6.12761 12.5029 6.19898 12.6151 6.29002 12.7102L8.79002 15.2102C8.97778 15.3995 9.23338 15.506 9.50002 15.506C9.76666 15.506 10.0223 15.3995 10.21 15.2102C10.3993 15.0224 10.5058 14.7668 10.5058 14.5002C10.5058 14.2335 10.3993 13.9779 10.21 13.7902L9.41002 13.0002H14.59L13.79 13.7902C13.6007 13.9779 13.4942 14.2335 13.4942 14.5002C13.4942 14.7668 13.6007 15.0224 13.79 15.2102C13.9778 15.3995 14.2334 15.506 14.5 15.506C14.7667 15.506 15.0223 15.3995 15.21 15.2102L17.71 12.7102C17.8011 12.6151 17.8724 12.5029 17.92 12.3802C18.02 12.1367 18.02 11.8636 17.92 11.6202C17.8724 11.4974 17.8011 11.3853 17.71 11.2902ZM3.00001 6C2.44773 6 2.00002 6.44772 2.00002 7V17C2.00002 17.5523 2.44773 18 3.00001 18C3.5523 18 4.00001 17.5523 4.00001 17V7C4.00001 6.44772 3.5523 6 3.00001 6ZM21 6C20.4477 6 20 6.44772 20 7V17C20 17.5523 20.4477 18 21 18C21.5523 18 22 17.5523 22 17V7C22 6.44772 21.5523 6 21 6Z" fill="#171E2B"/>
</svg>
