<svg width="24" height="24" viewBox="0 0 24 24" fill="none" xmlns="http://www.w3.org/2000/svg">
<path fill-rule="evenodd" clip-rule="evenodd" d="M21.71 16.2898C21.5222 16.1005 21.2666 15.994 21 15.994C20.7334 15.994 20.4778 16.1005 20.29 16.2898L18 18.5898V8.99984C18 7.34299 16.6568 5.99984 15 5.99984H5.40999L7.70999 3.70984C7.96365 3.45618 8.06271 3.08647 7.96987 2.73996C7.87702 2.39346 7.60637 2.12281 7.25987 2.02996C6.91336 1.93712 6.54365 2.03618 6.28999 2.28984L2.28999 6.28984C2.19895 6.38495 2.12758 6.49709 2.07999 6.61984C1.97997 6.8633 1.97997 7.13638 2.07999 7.37984C2.12758 7.50259 2.19895 7.61474 2.28999 7.70984L6.28999 11.7098C6.47775 11.8992 6.73335 12.0056 6.99999 12.0056C7.26663 12.0056 7.52222 11.8992 7.70999 11.7098C7.8993 11.5221 8.00579 11.2665 8.00579 10.9998C8.00579 10.7332 7.8993 10.4776 7.70999 10.2898L5.40999 7.99984H15C15.5523 7.99984 16 8.44756 16 8.99984V18.5898L13.71 16.2898C13.4563 16.0362 13.0866 15.9371 12.7401 16.03C12.3936 16.1228 12.123 16.3935 12.0301 16.74C11.9373 17.0865 12.0363 17.4562 12.29 17.7098L16.29 21.7098C16.3851 21.8009 16.4972 21.8722 16.62 21.9198C16.862 22.0268 17.1379 22.0268 17.38 21.9198C17.5027 21.8722 17.6149 21.8009 17.71 21.7098L21.71 17.7098C21.8993 17.5221 22.0058 17.2665 22.0058 16.9998C22.0058 16.7332 21.8993 16.4776 21.71 16.2898Z" fill="#171E2B"/>
</svg>
