<svg width="24" height="24" viewBox="0 0 24 24" fill="none" xmlns="http://www.w3.org/2000/svg">
<path fill-rule="evenodd" clip-rule="evenodd" d="M12.71 8.29045C12.6149 8.19941 12.5028 8.12805 12.38 8.08045C12.1365 7.98043 11.8635 7.98043 11.62 8.08045C11.4973 8.12805 11.3851 8.19941 11.29 8.29045L8.29001 11.2905C7.89789 11.6826 7.89789 12.3183 8.29001 12.7105C8.68213 13.1026 9.31789 13.1026 9.71001 12.7105L11 11.4105V15.0005C11 15.5527 11.4477 16.0005 12 16.0005C12.5523 16.0005 13 15.5527 13 15.0005V11.4105L14.29 12.7105C14.4778 12.8998 14.7334 13.0063 15 13.0063C15.2666 13.0063 15.5222 12.8998 15.71 12.7105C15.8993 12.5227 16.0058 12.2671 16.0058 12.0005C16.0058 11.7338 15.8993 11.4782 15.71 11.2905L12.71 8.29045ZM12 2.00025C6.47715 2.00025 2 6.4774 2 12.0002C2 17.5231 6.47715 22.0002 12 22.0002C17.5228 22.0002 22 17.5231 22 12.0002C22 9.34808 20.9464 6.80454 19.0711 4.92918C17.1957 3.05382 14.6522 2.00025 12 2.00025ZM12 20.0005C7.58171 20.0005 3.99999 16.4188 3.99999 12.0005C3.99999 7.58222 7.58171 4.00049 12 4.00049C16.4183 4.00049 20 7.58222 20 12.0005C20 14.1222 19.1571 16.1571 17.6568 17.6573C16.1566 19.1576 14.1217 20.0005 12 20.0005Z" fill="#171E2B"/>
</svg>
