<svg width="24" height="24" viewBox="0 0 24 24" fill="none" xmlns="http://www.w3.org/2000/svg">
<path fill-rule="evenodd" clip-rule="evenodd" d="M17.71 11.2901L13.71 7.29009C13.4563 7.03643 13.0866 6.93736 12.7401 7.03021C12.3936 7.12305 12.123 7.3937 12.0301 7.74021C11.9373 8.08671 12.0363 8.45643 12.29 8.71008L14.59 11.0001H2.99998C2.4477 11.0001 1.99998 11.4478 1.99998 12.0001C1.99998 12.5524 2.4477 13.0001 2.99998 13.0001H14.59L12.29 15.2901C12.1007 15.4779 11.9942 15.7334 11.9942 16.0001C11.9942 16.2667 12.1007 16.5223 12.29 16.7101C12.4778 16.8994 12.7333 17.0059 13 17.0059C13.2666 17.0059 13.5222 16.8994 13.71 16.7101L17.71 12.7101C17.801 12.615 17.8724 12.5028 17.92 12.3801C18.02 12.1366 18.02 11.8635 17.92 11.6201C17.8724 11.4973 17.801 11.3852 17.71 11.2901ZM21 3.99976C20.4477 3.99976 20 4.44747 20 4.99976V18.9998C20 19.552 20.4477 19.9998 21 19.9998C21.5523 19.9998 22 19.552 22 18.9998V4.99976C22 4.44747 21.5523 3.99976 21 3.99976Z" fill="#171E2B"/>
</svg>
