<svg width="24" height="24" viewBox="0 0 24 24" fill="none" xmlns="http://www.w3.org/2000/svg">
<path fill-rule="evenodd" clip-rule="evenodd" d="M20.92 16.6202C20.8724 16.4975 20.801 16.3853 20.71 16.2902L17.71 13.2902C17.3179 12.8981 16.6821 12.8981 16.29 13.2902C15.8979 13.6823 15.8979 14.3181 16.29 14.7102L17.59 16.0002H9C8.44772 16.0002 8 15.5525 8 15.0002V6.4102L9.29 7.7102C9.47777 7.89951 9.73337 8.006 10 8.006C10.2666 8.006 10.5222 7.89951 10.71 7.7102C10.8993 7.52244 11.0058 7.26684 11.0058 7.0002C11.0058 6.73356 10.8993 6.47797 10.71 6.2902L7.71 3.2902C7.6149 3.19916 7.50275 3.1278 7.38 3.0802C7.13654 2.98018 6.86346 2.98018 6.62 3.0802C6.49725 3.1278 6.38511 3.19916 6.29 3.2902L3.29 6.2902C2.89788 6.68232 2.89788 7.31808 3.29 7.7102C3.68212 8.10232 4.31788 8.10232 4.71 7.7102L6 6.4102V15.0002C6 16.6571 7.34315 18.0002 9 18.0002H17.59L16.29 19.2902C16.1007 19.478 15.9942 19.7336 15.9942 20.0002C15.9942 20.2668 16.1007 20.5224 16.29 20.7102C16.4778 20.8995 16.7334 21.006 17 21.006C17.2666 21.006 17.5222 20.8995 17.71 20.7102L20.71 17.7102C20.801 17.6151 20.8724 17.503 20.92 17.3802C21.02 17.1367 21.02 16.8637 20.92 16.6202Z" fill="#171E2B"/>
</svg>
