<svg width="24" height="24" viewBox="0 0 24 24" fill="none" xmlns="http://www.w3.org/2000/svg">
<path fill-rule="evenodd" clip-rule="evenodd" d="M21 14.0002C20.4477 14.0002 20 14.448 20 15.0002V18.5902L5.41 4.00024H9C9.55228 4.00024 10 3.55253 10 3.00024C10 2.44796 9.55228 2.00024 9 2.00024H3C2.86932 2.00182 2.74022 2.029 2.62 2.08024C2.37565 2.18172 2.18147 2.37589 2.08 2.62024C2.02876 2.74047 2.00158 2.86957 2 3.00024V9.00024C2 9.55253 2.44772 10.0002 3 10.0002C3.55228 10.0002 4 9.55253 4 9.00024V5.41024L18.59 20.0002H15C14.4477 20.0002 14 20.448 14 21.0002C14 21.5525 14.4477 22.0002 15 22.0002H21C21.1307 21.9987 21.2598 21.9715 21.38 21.9202C21.6243 21.8188 21.8185 21.6246 21.92 21.3802C21.9712 21.26 21.9984 21.1309 22 21.0002V15.0002C22 14.448 21.5523 14.0002 21 14.0002Z" fill="#171E2B"/>
</svg>
