<svg width="90" height="90" viewBox="0 0 90 90" fill="none" xmlns="http://www.w3.org/2000/svg">
<path d="M37.5 44.5H30.5V51L33.5 55L37 57.5L42 59.5L49 59L55.5 55L58 50.5L59.5 45H52L52.5 38H37.5V44.5Z" fill="#F3CCD4"/>
<path d="M11.5 67.5L15 75L17 76.5V73V70L19 67.5V66L19.5 63.5L21 62H23L25 64V67L28 69L28.5 75.5L31 72.5L33 69L32 64.5L29.5 60L23.5 57L18 58.5L13 62L11.5 67.5Z" fill="#F3CCD4"/>
<path d="M57 67.5L60.5 75L62.5 76.5V73V70L64.5 67.5V66L65 63.5L66.5 62H68.5L70.5 64V67L73.5 69L74 75.5L76.5 72.5L78.5 69L77.5 64.5L75 60L69 57L63.5 58.5L58.5 62L57 67.5Z" fill="#F3CCD4"/>
<path d="M57 21.5L60.5 29L62.5 30.5V27V24L64.5 21.5V20L65 17.5L66.5 16H68.5L70.5 18V21L73.5 23L74 29.5L76.5 26.5L78.5 23L77.5 18.5L75 14L69 11L63.5 12.5L58.5 16L57 21.5Z" fill="#F3CCD4"/>
<path d="M11 21.5L14.5 29L16.5 30.5V27V24L18.5 21.5V20L19 17.5L20.5 16H22.5L24.5 18V21L27.5 23L28 29.5L30.5 26.5L32.5 23L31.5 18.5L29 14L23 11L17.5 12.5L12.5 16L11 21.5Z" fill="#F3CCD4"/>
<path d="M41.5192 41.5197H48.3273V43.789H41.5192V41.5197Z" fill="#C1002A"/>
<path d="M41.5192 47.1927H48.3273V49.4621H41.5192V47.1927Z" fill="#C1002A"/>
<path d="M67.6173 33.5765C71.0838 33.5821 74.3659 32.0049 76.5249 29.2902C78.6836 26.5783 79.4892 23.0268 78.7063 19.6514C77.9234 16.2729 75.6426 13.4361 72.511 11.9471C69.3792 10.4607 65.7397 10.4834 62.6252 12.0124C59.5133 13.5414 57.2695 16.4065 56.532 19.7936C55.7944 23.1835 56.6426 26.7209 58.8382 29.407L55.3122 32.9331C52.4329 30.4226 48.7423 29.0383 44.9239 29.0383C41.1055 29.0383 37.415 30.4225 34.5356 32.9331L31.0096 29.407C33.4945 26.3689 34.2349 22.2614 32.9697 18.5453C31.7045 14.832 28.6097 12.0321 24.7855 11.1446C20.9644 10.2538 16.9534 11.3999 14.1764 14.177C11.4021 16.9513 10.2533 20.9625 11.144 24.7861C12.0319 28.6099 14.8317 31.702 18.5447 32.9703C22.2608 34.2355 26.3658 33.4951 29.4064 31.0102L32.9325 34.5362C30.422 37.4155 29.0377 41.1061 29.0377 44.9245C29.0377 48.7429 30.4219 52.4334 32.9325 55.3128L29.4064 58.8388C26.3655 56.3539 22.2608 55.6135 18.5476 56.8787C14.8315 58.1467 12.0344 61.2387 11.144 65.0629C10.256 68.8868 11.4021 72.895 14.1793 75.672C16.9536 78.4463 20.9647 79.5923 24.7883 78.7044C28.6093 77.8137 31.7042 75.0167 32.9697 71.3008C34.2348 67.5876 33.4944 63.4797 31.0095 60.442L34.5356 56.9159C37.4148 59.4264 41.1054 60.8108 44.9238 60.8108C48.7423 60.8108 52.4327 59.4265 55.3121 56.9159L58.8382 60.442C56.3532 63.4801 55.6128 67.5876 56.878 71.3037C58.1432 75.017 61.238 77.8169 65.0623 78.7044C68.8833 79.5952 72.8943 78.4491 75.6713 75.672C78.4456 72.8977 79.5945 68.8865 78.7038 65.0629C77.8158 61.2391 75.0161 58.1471 71.3031 56.8787C67.587 55.6135 63.4819 56.3539 60.4413 58.8388L56.9153 55.3128C59.4257 52.4335 60.8101 48.7429 60.8101 44.9245C60.8101 41.1061 59.4258 37.4156 56.9153 34.5362L60.4413 31.0102C62.4639 32.6725 64.9999 33.5803 67.6182 33.5774L67.6173 33.5765ZM26.7686 30.0788C23.9631 31.7156 20.4967 31.7156 17.6912 30.0788V25.3841C17.6855 24.8479 17.8982 24.3317 18.2784 23.9515C18.6585 23.5714 19.1748 23.3586 19.7109 23.3643C20.1591 23.3643 20.5648 23.1005 20.7463 22.6892C20.9307 22.2807 20.8541 21.8012 20.5506 21.4694C19.8982 20.7488 19.779 19.6964 20.2528 18.8482C20.7265 18.0029 21.6882 17.5518 22.6413 17.7305C23.5377 17.9007 24.2468 18.5844 24.4455 19.4751C24.6043 20.1871 24.4001 20.9331 23.9036 21.4721C23.6058 21.804 23.532 22.2834 23.7136 22.6919C23.8951 23.1004 24.3008 23.3642 24.749 23.3642C25.8639 23.3671 26.7687 24.2691 26.7687 25.3839L26.7686 30.0788ZM29.038 28.2122V25.3841C29.0352 23.6962 28.0452 22.1644 26.5048 21.4694C26.7885 20.678 26.8452 19.8213 26.6637 18.9987C26.1729 16.7321 24.051 15.2003 21.7448 15.4471C19.4386 15.6968 17.6912 17.6427 17.6912 19.9603C17.6912 20.4737 17.7791 20.9844 17.955 21.4694C17.4756 21.685 17.0388 21.9857 16.6643 22.3545C15.8672 23.163 15.4219 24.2495 15.4219 25.3841V28.2123C13.0617 25.5373 12.4887 21.7276 13.9553 18.474C15.4247 15.2231 18.6615 13.1324 22.2304 13.1324C25.7993 13.1324 29.0356 15.2231 30.5054 18.474C31.972 21.7277 31.3982 25.5374 29.038 28.2122ZM26.7686 75.466C23.9631 77.1028 20.4967 77.1028 17.6912 75.466V70.7713C17.6855 70.2351 17.8982 69.7189 18.2784 69.3387C18.6585 68.9586 19.1748 68.7458 19.7109 68.7515C20.1591 68.7515 20.5648 68.4877 20.7463 68.0764C20.9307 67.6679 20.8541 67.1884 20.5506 66.8566C19.8982 66.136 19.779 65.0836 20.2528 64.2354C20.7265 63.3901 21.6882 62.939 22.6413 63.1177C23.5377 63.2879 24.2468 63.9716 24.4455 64.8623C24.6043 65.5743 24.4001 66.3203 23.9036 66.8593C23.6058 67.1912 23.532 67.6706 23.7136 68.0791C23.8951 68.4876 24.3008 68.7514 24.749 68.7514C25.8639 68.7543 26.7687 69.6563 26.7687 70.7711L26.7686 75.466ZM31.3074 67.6165C31.3074 69.8207 30.4989 71.9511 29.038 73.5992V70.771C29.0352 69.0831 28.0452 67.5513 26.5048 66.8563C26.7885 66.0649 26.8452 65.2082 26.6637 64.3856C26.1729 62.119 24.051 60.5872 21.7448 60.834C19.4386 61.0837 17.6912 63.0296 17.6912 65.3472C17.6912 65.8607 17.7791 66.3713 17.955 66.8563C17.4756 67.0719 17.0388 67.3726 16.6643 67.7414C15.8672 68.5499 15.4219 69.6364 15.4219 70.7711V73.5992C13.4561 71.3639 12.7128 68.3031 13.4333 65.4128C14.1567 62.5222 16.2502 60.1705 19.0387 59.1209C21.8243 58.0714 24.9504 58.4571 27.3987 60.1535C29.8496 61.847 31.3102 64.6382 31.3074 67.6165ZM72.1561 75.466C69.3505 77.1028 65.8841 77.1028 63.0786 75.466V70.7713C63.0729 70.2351 63.2857 69.7189 63.6658 69.3387C64.0459 68.9586 64.5622 68.7458 65.0984 68.7515C65.5466 68.7515 65.9522 68.4877 66.1338 68.0764C66.3182 67.6679 66.2416 67.1884 65.938 66.8566C65.2856 66.136 65.1664 65.0836 65.6402 64.2354C66.1139 63.3901 67.0756 62.939 68.0287 63.1177C68.9251 63.2879 69.6343 63.9716 69.8329 64.8623C69.9917 65.5743 69.7875 66.3203 69.2911 66.8593C68.9932 67.1912 68.9195 67.6706 69.101 68.0791C69.2826 68.4876 69.6882 68.7514 70.1364 68.7514C71.2513 68.7543 72.1561 69.6563 72.1561 70.7711L72.1561 75.466ZM67.6173 58.539C71.1831 58.5334 74.4226 60.6184 75.8895 63.8692C77.3588 67.1173 76.7859 70.927 74.4257 73.5988V70.7706C74.4229 69.0828 73.4329 67.5509 71.8925 66.856C72.1762 66.0646 72.2329 65.2079 72.0514 64.3852C71.5606 62.1187 69.4387 60.5868 67.1325 60.8337C64.8263 61.0833 63.0789 63.0293 63.0789 65.3469C63.0789 65.8603 63.1668 66.3709 63.3427 66.856C62.8633 67.0716 62.4265 67.3723 62.0521 67.7411C61.2549 68.5495 60.8096 69.636 60.8096 70.7707V73.5989C58.4494 70.9267 57.8764 67.117 59.3459 63.8693C60.8124 60.6184 64.0513 58.5333 67.6173 58.539ZM36.9804 55.9604C35.0713 54.5818 33.548 52.7351 32.5609 50.5962H34.7111V48.3269H31.7552C31.5595 47.5837 31.429 46.8234 31.3638 46.0575H36.9805L36.9804 55.9604ZM46.0579 58.4823C45.6835 58.5135 45.3062 58.5391 44.9232 58.5391C44.5403 58.5391 44.163 58.5135 43.7886 58.4823V56.2697C43.7886 55.6428 44.2963 55.135 44.9232 55.135C45.2296 55.135 45.5218 55.2598 45.7317 55.4811C45.9416 55.6881 46.0608 55.9746 46.0579 56.2696L46.0579 58.4823ZM50.5967 57.2853C49.8648 57.62 49.1074 57.8895 48.3273 58.0909V56.2697C48.3188 54.3947 46.7983 52.8742 44.9232 52.8657C43.0454 52.8685 41.522 54.3919 41.5192 56.2697V58.0909C40.7391 57.8895 39.9817 57.62 39.2498 57.2853V39.2494H50.5967V57.2853ZM58.091 48.3269H55.1352V50.5962H57.2854C56.2982 52.7351 54.7749 54.5818 52.8658 55.9604V46.0573H58.4825C58.4173 46.8232 58.2868 47.5837 58.091 48.3269ZM58.4825 43.7881H52.8658V38.1147C52.8658 37.814 52.7467 37.5247 52.5339 37.3119C52.3212 37.0991 52.0318 36.98 51.7311 36.98H38.1149C37.8142 36.98 37.5248 37.0991 37.3121 37.3119C37.0993 37.5246 36.9802 37.814 36.9802 38.1147V43.7881H31.3634C31.7436 39.2097 34.4072 35.1333 38.4467 32.946C42.489 30.7589 47.3572 30.7589 51.3992 32.946C55.4387 35.1331 58.1024 39.2094 58.4825 43.7881ZM72.1554 30.0782C69.3499 31.715 65.8834 31.715 63.0779 30.0782V25.3835C63.0722 24.8473 63.285 24.3311 63.6651 23.9509C64.0452 23.5708 64.5615 23.358 65.0977 23.3637C65.5459 23.3637 65.9515 23.0999 66.1331 22.6886C66.3175 22.2801 66.2409 21.8007 65.9374 21.4688C65.2849 20.7483 65.1658 19.6958 65.6395 18.8476C66.1132 18.0023 67.0749 17.5512 68.028 17.7299C68.9245 17.9001 69.6336 18.5838 69.8322 19.4745C69.9911 20.1865 69.7868 20.9326 69.2904 21.4715C68.9925 21.8034 68.9188 22.2828 69.1003 22.6913C69.2819 23.0998 69.6875 23.3636 70.1357 23.3636C71.2506 23.3665 72.1555 24.2686 72.1555 25.3833L72.1554 30.0782ZM58.5392 22.2287C58.5335 19.2445 59.9916 16.4504 62.4425 14.7482C64.8934 13.049 68.0251 12.6632 70.8163 13.7127C73.6076 14.7652 75.704 17.1225 76.4245 20.0159C77.145 22.9122 76.399 25.9758 74.4246 28.2111V25.3829C74.4218 23.6951 73.4318 22.1632 71.8914 21.4683C72.1751 20.6768 72.2318 19.8201 72.0503 18.9975C71.5595 16.731 69.4376 15.1991 67.1314 15.446C64.8252 15.6956 63.0778 17.6416 63.0778 19.9591C63.0778 20.4726 63.1657 20.9832 63.3416 21.4683C62.8622 21.6839 62.4254 21.9845 62.0509 22.3533C61.2538 23.1618 60.8085 24.2483 60.8085 25.383V28.2112C59.3476 26.563 58.5392 24.4329 58.5392 22.2287Z" fill="#C1002A"/>
<path d="M38 44.5L30.5 45V39.5L35.5 33L39 31.5L44.5 30.5L49.5 31.5L54.5 34L58.5 40L59.5 45L52 45.5V38H37.5L38 44.5Z" fill="#C1002A"/>
</svg>
