<svg width="24" height="24" viewBox="0 0 24 24" fill="none" xmlns="http://www.w3.org/2000/svg">
<path fill-rule="evenodd" clip-rule="evenodd" d="M12 2.00024C7.7959 2.00006 4.04061 4.62938 2.60267 8.57993C1.16474 12.5305 2.35125 16.9585 5.57183 19.6608C8.79241 22.3631 13.3592 22.7625 17 20.6602C17.3255 20.49 17.5314 20.155 17.5364 19.7877C17.5414 19.4204 17.3446 19.08 17.0238 18.9009C16.7031 18.7219 16.31 18.7332 16 18.9302C12.8644 20.7406 8.90381 20.2193 6.34346 17.6592C3.78311 15.0991 3.26136 11.1386 5.07135 8.00282C6.88133 4.86702 10.5718 3.33777 14.0693 4.27429C17.5667 5.2108 19.9992 8.37957 20 12.0002V12.7502C20 13.7167 19.2165 14.5002 18.25 14.5002C17.2835 14.5002 16.5 13.7167 16.5 12.7502V8.50024C16.5 7.94796 16.0523 7.50024 15.5 7.50024C15.0203 7.48957 14.6006 7.82111 14.5 8.29024C13.7649 7.78182 12.8938 7.50654 12 7.50024C9.92569 7.47544 8.10321 8.87184 7.58747 10.8812C7.07174 12.8905 7.99641 14.992 9.82624 15.9693C11.6561 16.9466 13.9169 16.5463 15.3 15.0002C16.274 16.2615 17.9401 16.7671 19.4508 16.2598C20.9614 15.7525 21.9847 14.3437 22 12.7502V12.0002C22 6.4774 17.5228 2.00024 12 2.00024ZM12 14.5002C10.6193 14.5002 9.5 13.381 9.5 12.0002C9.5 10.6195 10.6193 9.50024 12 9.50024C13.3807 9.50024 14.5 10.6195 14.5 12.0002C14.5 13.381 13.3807 14.5002 12 14.5002Z" fill="#171E2B"/>
</svg>
