<svg width="24" height="24" viewBox="0 0 24 24" fill="none" xmlns="http://www.w3.org/2000/svg">
<path fill-rule="evenodd" clip-rule="evenodd" d="M7 15.0005H10C10.5523 15.0005 11 14.5528 11 14.0005C11 13.4482 10.5523 13.0005 10 13.0005H7C6.44771 13.0005 6 13.4482 6 14.0005C6 14.5528 6.44771 15.0005 7 15.0005ZM19 5.00024H5C3.34315 5.00024 2 6.34339 2 8.00024V17.0002C2 18.6571 3.34315 20.0002 5 20.0002H19C20.6569 20.0002 22 18.6571 22 17.0002V8.00024C22 6.34339 20.6569 5.00024 19 5.00024ZM20 17.0002C20 17.5525 19.5523 18.0002 19 18.0002H5C4.44772 18.0002 4 17.5525 4 17.0002V11.0002H20V17.0002ZM20 9.00049H4V8.00049C4 7.44821 4.44772 7.00049 5 7.00049H19C19.5523 7.00049 20 7.44821 20 8.00049V9.00049Z" fill="#171E2B"/>
</svg>
