<svg width="24" height="24" viewBox="0 0 24 24" fill="none" xmlns="http://www.w3.org/2000/svg">
<path fill-rule="evenodd" clip-rule="evenodd" d="M12 11.0002C11.4477 11.0002 11 11.448 11 12.0002C11 12.5525 11.4477 13.0002 12 13.0002C12.5523 13.0002 13 12.5525 13 12.0002C13 11.448 12.5523 11.0002 12 11.0002ZM19.62 12.0002L19.73 11.8602C21.08 10.0002 21.4 8.29024 20.66 7.00024C19.92 5.71024 18.26 5.14024 16 5.37024H15.82C14.91 3.30024 13.56 2.00024 12 2.00024C10.44 2.00024 9.08999 3.30024 8.18999 5.40024L7.99999 5.37024C5.73999 5.14024 4.07999 5.71024 3.33999 7.00024C2.59999 8.29024 2.91999 10.0002 4.26999 11.8602L4.37999 12.0002L4.26999 12.1402C2.91999 14.0002 2.59999 15.7102 3.33999 17.0002C3.99999 18.1002 5.26999 18.6802 6.99999 18.6802C7.30999 18.6802 7.62999 18.6802 7.99999 18.6302H8.17999C9.08999 20.7002 10.44 22.0002 12 22.0002C13.56 22.0002 14.91 20.7002 15.81 18.6002H15.99C16.33 18.6002 16.65 18.6502 16.99 18.6502C18.76 18.6502 20.06 18.0702 20.69 16.9702C21.43 15.6802 21.11 13.9702 19.76 12.1102L19.62 12.0002ZM5.07 8C5.32 7.56 6.07 7.32 7.07 7.32H7.56C7.40329 7.93517 7.28638 8.55979 7.21 9.19C6.70054 9.57536 6.21622 9.99288 5.76 10.44C5 9.44 4.78 8.5 5.07 8ZM5.06998 16C4.77998 15.5 5.06998 14.56 5.73998 13.53C6.1962 13.9771 6.68052 14.3946 7.18998 14.78C7.26638 15.4135 7.38328 16.0415 7.53998 16.66C6.29998 16.74 5.35998 16.5 5.06998 16ZM12 4.00049C12.56 4.00049 13.23 4.66049 13.8 5.83049C13.189 6.00781 12.5882 6.21811 12 6.46049C11.4118 6.21811 10.8109 6.00781 10.2 5.83049C10.77 4.66049 11.44 4.00049 12 4.00049ZM12 20.0002C11.44 20.0002 10.77 19.3402 10.2 18.1702C10.8109 17.9929 11.4118 17.7826 12 17.5402C12.5882 17.7826 13.189 17.9929 13.8 18.1702C13.23 19.3402 12.56 20.0002 12 20.0002ZM14.93 13.6905C14.47 14.0105 14 14.3105 13.5 14.6005C13 14.8905 12.5 15.1505 12 15.3805C11.5 15.1472 11 14.8872 10.5 14.6005C10 14.3105 9.5 14.0105 9.07 13.6905C9 13.1505 9 12.5905 9 12.0005C9 11.4105 9 10.8505 9.07 10.3105C9.53 9.99049 10 9.69049 10.5 9.40049C11 9.11049 11.5 8.85049 12 8.62049C12.5 8.85383 13 9.11383 13.5 9.40049C14 9.69049 14.5 9.99049 14.93 10.3105C14.93 10.8505 15 11.4105 15 12.0005C15 12.5905 15 13.1505 14.93 13.6905ZM18.93 16C18.64 16.5 17.7 16.75 16.46 16.66C16.6167 16.0415 16.7336 15.4135 16.81 14.78C17.3194 14.3946 17.8038 13.9771 18.26 13.53C19 14.56 19.22 15.5 18.93 16ZM18.26 10.47C17.8038 10.0229 17.3194 9.60536 16.81 9.22C16.7336 8.58979 16.6167 7.96517 16.46 7.35H16.95C17.95 7.35 18.68 7.59 18.95 8.03C19.22 8.47 19 9.44 18.26 10.47Z" fill="#171E2B"/>
</svg>
