<svg width="24" height="24" viewBox="0 0 24 24" fill="none" xmlns="http://www.w3.org/2000/svg">
<path fill-rule="evenodd" clip-rule="evenodd" d="M17.87 8.59986C17.718 8.25044 17.3806 8.01777 17 7.99986H12.42L13.69 3.25986C13.772 2.95921 13.7091 2.63753 13.52 2.38986C13.3291 2.14182 13.033 1.99749 12.72 1.99986H5.71999C5.25513 1.98394 4.84066 2.29064 4.71999 2.73986L2.03999 12.7399C1.95731 13.0462 2.02491 13.3736 2.22215 13.6221C2.4194 13.8706 2.72289 14.0108 3.03999 13.9999H6.88999L5.07999 20.7399C4.9579 21.1873 5.15951 21.66 5.56695 21.8816C5.9744 22.1032 6.48074 22.0155 6.78999 21.6699L17.69 9.66986C17.9551 9.37958 18.0255 8.9609 17.87 8.59986ZM8.07999 17.2798L9.15999 13.2798C9.2515 12.9745 9.19207 12.644 8.99999 12.3898C8.80694 12.1389 8.5065 11.9942 8.18999 11.9998H4.34999L6.48999 3.99976H11.42L10.15 8.73976C10.0673 9.04609 10.1349 9.37348 10.3322 9.62201C10.5294 9.87054 10.8329 10.0107 11.15 9.99976H14.72L8.07999 17.2798ZM19 12.9998H18C16.3431 12.9998 15 14.3429 15 15.9998V20.9998C15 21.552 15.4477 21.9998 16 21.9998C16.5523 21.9998 17 21.552 17 20.9998V18.9998H20V20.9998C20 21.552 20.4477 21.9998 21 21.9998C21.5523 21.9998 22 21.552 22 20.9998V15.9998C22 14.3429 20.6568 12.9998 19 12.9998ZM20 17H17V16C17 15.4477 17.4477 15 18 15H19C19.5523 15 20 15.4477 20 16V17Z" fill="#171E2B"/>
</svg>
