<svg width="24" height="24" viewBox="0 0 24 24" fill="none" xmlns="http://www.w3.org/2000/svg">
<path fill-rule="evenodd" clip-rule="evenodd" d="M12 0.999756C9.18563 1.00328 6.64706 2.69196 5.55609 5.28626C4.46513 7.88057 5.03396 10.876 6.99999 12.8898V21.9998C7.00104 22.3463 7.18148 22.6677 7.47687 22.849C7.77226 23.0303 8.14047 23.0457 8.44999 22.8898L12 21.1198L15.55 22.8898C15.6893 22.9611 15.8434 22.9988 16 22.9998C16.1872 23.0004 16.3708 22.9484 16.53 22.8498C16.823 22.6666 17.0007 22.3453 17 21.9998V12.8898C18.966 10.876 19.5348 7.88057 18.4439 5.28626C17.3529 2.69196 14.8143 1.00328 12 0.999756ZM15 20.3798L12.45 19.1098C12.167 18.9671 11.833 18.9671 11.55 19.1098L9 20.3798V14.3198C9.63292 14.6186 10.3071 14.8209 11 14.9198V15.9998C11 16.552 11.4477 16.9998 12 16.9998C12.5523 16.9998 13 16.552 13 15.9998V14.9198C13.6929 14.8209 14.3671 14.6186 15 14.3198V20.3798ZM12 13C9.23856 13 6.99998 10.7614 6.99998 8C6.99998 5.23858 9.23856 3 12 3C14.7614 3 17 5.23858 17 8C17 9.32609 16.4732 10.5979 15.5355 11.5355C14.5978 12.4732 13.3261 13 12 13Z" fill="#171E2B"/>
</svg>
