<svg width="24" height="24" viewBox="0 0 24 24" fill="none" xmlns="http://www.w3.org/2000/svg">
<path fill-rule="evenodd" clip-rule="evenodd" d="M20.87 17.25L18.16 12.57C18.7146 11.5515 19.0035 10.4097 19 9.25C19 5.38401 15.866 2.25 12 2.25C8.13403 2.25 5.00002 5.38401 5.00002 9.25C4.99658 10.4097 5.28547 11.5515 5.84002 12.57L3.13002 17.25C2.95103 17.56 2.95141 17.9421 3.13101 18.2517C3.31061 18.5614 3.64204 18.7514 4.00002 18.75H6.87002L8.33002 21.21C8.37924 21.2915 8.43985 21.3656 8.51002 21.43C8.6954 21.6087 8.94255 21.709 9.20002 21.71H9.34002C9.64595 21.6681 9.91539 21.4873 10.07 21.22L12 17.9L13.93 21.25C14.0869 21.5135 14.356 21.6904 14.66 21.73H14.8C15.0609 21.7316 15.3122 21.6311 15.5 21.45C15.5673 21.3893 15.6246 21.3184 15.67 21.24L17.13 18.78H20C20.3587 18.7814 20.6907 18.5906 20.87 18.28C21.0604 17.9631 21.0604 17.5669 20.87 17.25ZM9.19002 18.7798L8.30002 17.2898C8.12178 16.9891 7.79951 16.8033 7.45002 16.7998H5.72002L7.15002 14.3198C8.13474 15.2686 9.37584 15.9083 10.72 16.1598L9.19002 18.7798ZM12 14.2502C9.23861 14.2502 7.00003 12.0117 7.00003 9.25025C7.00003 6.48882 9.23861 4.25025 12 4.25025C14.7615 4.25025 17 6.48882 17 9.25025C17 12.0117 14.7615 14.2502 12 14.2502ZM16.55 16.7998C16.2005 16.8033 15.8782 16.9891 15.7 17.2898L14.81 18.7798L13.29 16.1298C14.6295 15.8731 15.866 15.2341 16.85 14.2898L18.28 16.7698L16.55 16.7998Z" fill="#171E2B"/>
</svg>
