<svg width="24" height="24" viewBox="0 0 24 24" fill="none" xmlns="http://www.w3.org/2000/svg">
<path fill-rule="evenodd" clip-rule="evenodd" d="M19 16.0005C17.3432 16.0005 16 17.3436 16 19.0005C16 20.6573 17.3432 22.0005 19 22.0005C20.6569 22.0005 22 20.6573 22 19.0005C22 17.3436 20.6569 16.0005 19 16.0005ZM19 20C18.4477 20 18 19.5523 18 19C18 18.4477 18.4477 18 19 18C19.5523 18 20 18.4477 20 19C20 19.5523 19.5523 20 19 20ZM8.99998 16.0005C7.34313 16.0005 5.99998 17.3436 5.99998 19.0005C5.99998 20.6573 7.34313 22.0005 8.99998 22.0005C10.6568 22.0005 12 20.6573 12 19.0005C12 17.3436 10.6568 16.0005 8.99998 16.0005ZM9 20C8.44772 20 8 19.5523 8 19C8 18.4477 8.44772 18 9 18C9.55228 18 10 18.4477 10 19C10 19.5523 9.55228 20 9 20ZM22 8.50024C21.9945 4.91268 19.0876 2.00575 15.5 2.00024H15C14.4477 2.00024 14 2.44796 14 3.00024V8.00024H7.52L6.27 4.65024C6.12354 4.25824 5.74847 3.99888 5.33 4.00024H3C2.44772 4.00024 2 4.44796 2 5.00024C2 5.55253 2.44772 6.00024 3 6.00024H4.64L5.89 9.37024L6.4 10.7402V10.8302C7.35436 13.3645 9.79216 15.031 12.5 15.0002H15.5C17.2247 15.0029 18.8796 14.3189 20.0991 13.0994C21.3187 11.8798 22.0027 10.225 22 8.50024ZM18.68 11.6805C17.8388 12.5275 16.6938 13.0028 15.5 13.0005H12.5C10.6711 13.0061 9.02329 11.897 8.34002 10.2005C8.33568 10.1807 8.33568 10.1603 8.34002 10.1405L8.26002 10.0005H19.74C19.522 10.6352 19.1591 11.2104 18.68 11.6805ZM16 8.00049V4.00049C18.1112 4.22069 19.7798 5.88927 20 8.00049H16Z" fill="#171E2B"/>
</svg>
