<svg width="24" height="24" viewBox="0 0 24 24" fill="none" xmlns="http://www.w3.org/2000/svg">
<path fill-rule="evenodd" clip-rule="evenodd" d="M20.67 5.85028C19.8462 5.36492 18.8238 5.36492 18 5.85028L14 8.15028C13.9982 7.19833 13.4896 6.31937 12.6653 5.84331C11.8409 5.36724 10.8254 5.36609 10 5.84028L3.33001 9.69028C2.50614 10.1678 1.99896 11.048 1.99896 12.0003C1.99896 12.9525 2.50614 13.8327 3.33001 14.3103L10 18.1603C10.8256 18.6393 11.8445 18.6393 12.67 18.1603C13.4965 17.6855 14.0044 16.8034 14 15.8503L18 18.1603C18.4046 18.3937 18.8629 18.5178 19.33 18.5203C19.8019 18.5204 20.265 18.3925 20.67 18.1503C21.4965 17.6804 22.005 16.801 22 15.8503V8.15028C22.005 7.19957 21.4965 6.3202 20.67 5.85028ZM12 15.8505C12.003 16.0893 11.8768 16.3111 11.67 16.4305C11.4617 16.5462 11.2083 16.5462 11 16.4305L4.33 12.5805C4.12293 12.4608 3.99541 12.2397 3.99541 12.0005C3.99541 11.7613 4.12293 11.5403 4.33 11.4205L11 7.57051C11.2073 7.45082 11.4627 7.45082 11.67 7.57051C11.8768 7.6899 12.003 7.91171 12 8.15051V15.8505ZM20 15.8502C19.9954 16.0862 19.867 16.3023 19.6619 16.4192C19.4568 16.5361 19.2054 16.5365 19 16.4202L14 13.5402V10.4602L19 7.58018C19.2054 7.46387 19.4568 7.46423 19.6619 7.58112C19.867 7.69801 19.9954 7.91418 20 8.15018V15.8502Z" fill="#171E2B"/>
</svg>
