<svg width="24" height="24" viewBox="0 0 24 24" fill="none" xmlns="http://www.w3.org/2000/svg">
<path fill-rule="evenodd" clip-rule="evenodd" d="M13 10.0005H11C10.4477 10.0005 10 10.4482 10 11.0005C10 11.5528 10.4477 12.0005 11 12.0005H13C13.5523 12.0005 14 11.5528 14 11.0005C14 10.4482 13.5523 10.0005 13 10.0005ZM18 10.0002C17.9941 8.18109 16.7614 6.59503 15 6.14024V5.00024C15 3.34339 13.6569 2.00024 12 2.00024C10.3431 2.00024 9 3.34339 9 5.00024V6.14024C7.2386 6.59503 6.00591 8.18109 6 10.0002C3.79086 10.0002 2 11.7911 2 14.0002V17.0002C2 18.6571 3.34315 20.0002 5 20.0002H6.18C6.60275 21.196 7.73174 21.9967 9 22.0002H15C16.2683 21.9967 17.3973 21.196 17.82 20.0002H19C20.6569 20.0002 22 18.6571 22 17.0002V14.0002C22 11.7911 20.2091 10.0002 18 10.0002ZM6.00002 18H5.00002C4.44773 18 4.00002 17.5523 4.00002 17V14C4.00002 12.8954 4.89545 12 6.00002 12V18ZM11 5.00049C11 4.44821 11.4477 4.00049 12 4.00049C12.5523 4.00049 13 4.44821 13 5.00049V6.00049H11V5.00049ZM16 19.0005C16 19.5528 15.5523 20.0005 15 20.0005H9C8.44772 20.0005 8 19.5528 8 19.0005V18.0005C8 16.8959 8.89543 16.0005 10 16.0005H14C15.1046 16.0005 16 16.8959 16 18.0005V19.0005ZM16 14.5602C15.396 14.1967 14.705 14.0032 14 14.0002H10C9.29504 14.0032 8.60399 14.1967 8 14.5602V10.0002C8 8.89567 8.89543 8.00024 10 8.00024H14C15.1046 8.00024 16 8.89567 16 10.0002V14.5602ZM20 17C20 17.5523 19.5523 18 19 18H18V12C19.1046 12 20 12.8954 20 14V17Z" fill="#171E2B"/>
</svg>
