<svg width="24" height="24" viewBox="0 0 24 24" fill="none" xmlns="http://www.w3.org/2000/svg">
<path fill-rule="evenodd" clip-rule="evenodd" d="M19 5.00024H9.82997C9.03459 5.00094 8.27204 5.31747 7.70997 5.88024L2.28997 11.2902C2.10066 11.478 1.99417 11.7336 1.99417 12.0002C1.99417 12.2669 2.10066 12.5225 2.28997 12.7102L7.70997 18.1202C8.27204 18.683 9.03459 18.9995 9.82997 19.0002H19C20.6568 19.0002 22 17.6571 22 16.0002V8.00024C22 6.34339 20.6568 5.00024 19 5.00024ZM20 16.0005C20 16.5528 19.5523 17.0005 19 17.0005H9.82999C9.56523 16.9968 9.31163 16.8932 9.11999 16.7105L4.40999 12.0005L9.11999 7.29049C9.31163 7.10776 9.56523 7.00417 9.82999 7.00049H19C19.5523 7.00049 20 7.44821 20 8.00049V16.0005ZM16.71 9.29019C16.5222 9.10088 16.2666 8.99439 16 8.99439C15.7333 8.99439 15.4777 9.10088 15.29 9.29019L14 10.5902L12.71 9.29019C12.3178 8.89807 11.6821 8.89807 11.29 9.29019C10.8978 9.68231 10.8978 10.3181 11.29 10.7102L12.59 12.0002L11.29 13.2902C11.1007 13.478 10.9942 13.7336 10.9942 14.0002C10.9942 14.2668 11.1007 14.5224 11.29 14.7102C11.4777 14.8995 11.7333 15.006 12 15.006C12.2666 15.006 12.5222 14.8995 12.71 14.7102L14 13.4102L15.29 14.7102C15.4777 14.8995 15.7333 15.006 16 15.006C16.2666 15.006 16.5222 14.8995 16.71 14.7102C16.8993 14.5224 17.0058 14.2668 17.0058 14.0002C17.0058 13.7336 16.8993 13.478 16.71 13.2902L15.41 12.0002L16.71 10.7102C16.8993 10.5224 17.0058 10.2668 17.0058 10.0002C17.0058 9.73355 16.8993 9.47796 16.71 9.29019Z" fill="#171E2B"/>
</svg>
