<svg width="24" height="24" viewBox="0 0 24 24" fill="none" xmlns="http://www.w3.org/2000/svg">
<path fill-rule="evenodd" clip-rule="evenodd" d="M19 5.99995H16V4.99995C16 3.89538 15.1046 2.99995 14 2.99995H9.99999C9.7925 2.99902 9.58632 3.03282 9.38999 3.09995C9.1358 3.18221 8.9251 3.36276 8.80487 3.60134C8.68464 3.83993 8.66487 4.1167 8.74999 4.36995C8.92572 4.88518 9.4813 5.16519 9.99999 4.99995H14V5.99995H12.66C12.1077 5.99995 11.66 6.44766 11.66 6.99995C11.66 7.55223 12.1077 7.99995 12.66 7.99995H19C19.5523 7.99995 20 8.44766 20 8.99995V10.28L17.43 11.1399C17.1776 11.2243 16.9693 11.4057 16.8511 11.644C16.7328 11.8824 16.7144 12.158 16.8 12.41C16.9376 12.8173 17.3201 13.0911 17.75 13.09C17.8584 13.0879 17.9661 13.0711 18.07 13.04L20 12.3899V15.34C20 15.8922 20.4477 16.34 21 16.34C21.5523 16.34 22 15.8922 22 15.34V8.99995C22 7.34309 20.6568 5.99995 19 5.99995ZM3.70999 2.28984C3.45634 2.03618 3.08662 1.93712 2.74012 2.02996C2.39361 2.12281 2.12296 2.39346 2.03012 2.73996C1.93727 3.08647 2.03634 3.45618 2.28999 3.70984L4.61999 5.99984C3.11304 6.19222 1.98776 7.48071 1.99999 8.99984V17.9998C1.99999 19.6567 3.34314 20.9998 4.99999 20.9998H19C19.1781 20.9953 19.3554 20.9752 19.53 20.9398L20.29 21.7098C20.4778 21.8992 20.7334 22.0056 21 22.0056C21.2666 22.0056 21.5222 21.8992 21.71 21.7098C21.8993 21.5221 22.0058 21.2665 22.0058 20.9998C22.0058 20.7332 21.8993 20.4776 21.71 20.2898L3.70999 2.28984ZM4 8.99951C4 8.44723 4.44772 7.99951 5 7.99951H6.59L10.59 11.9995H9.16L4 10.2795V8.99951ZM5 19C4.44772 19 4 18.5523 4 18V12.39L8.68001 14C8.78619 14.0144 8.89383 14.0144 9.00001 14H12.59L17.59 19H5Z" fill="#171E2B"/>
</svg>
