<svg width="24" height="24" viewBox="0 0 24 24" fill="none" xmlns="http://www.w3.org/2000/svg">
<path fill-rule="evenodd" clip-rule="evenodd" d="M19 6.49976H16V5.49976C16 3.8429 14.6569 2.49976 13 2.49976H11C9.34314 2.49976 8 3.8429 8 5.49976V6.49976H5C4.20435 6.49976 3.44129 6.81583 2.87868 7.37844C2.31607 7.94104 2 8.70411 2 9.49976V18.4998C2 20.1566 3.34315 21.4998 5 21.4998H19C20.6569 21.4998 22 20.1566 22 18.4998V9.49976C22 7.8429 20.6569 6.49976 19 6.49976ZM10 5.5C10 4.94772 10.4477 4.5 11 4.5H13C13.5523 4.5 14 4.94772 14 5.5V6.5H10V5.5ZM20 18.4998C20 19.052 19.5523 19.4998 19 19.4998H5C4.44772 19.4998 4 19.052 4 18.4998V12.9998C6.54626 14.0099 9.26069 14.529 12 14.5298C14.7392 14.5281 17.4535 14.009 20 12.9998V18.4998ZM20 10.8098C14.9018 13.0495 9.0982 13.0495 4 10.8098V9.49976C4 8.94747 4.44772 8.49976 5 8.49976H19C19.5523 8.49976 20 8.94747 20 9.49976V10.8098Z" fill="#171E2B"/>
</svg>
