<svg width="24" height="24" viewBox="0 0 24 24" fill="none" xmlns="http://www.w3.org/2000/svg">
<path fill-rule="evenodd" clip-rule="evenodd" d="M19 6H16V5C16 3.89543 15.1046 3 14 3H10C8.89543 3 8 3.89543 8 5V6H5C3.34315 6 2 7.34315 2 9V18C2 19.6569 3.34315 21 5 21H19C20.6569 21 22 19.6569 22 18V9C22 7.34315 20.6569 6 19 6ZM10 5.00025H14V6.00025H10V5.00025ZM20 18C20 18.5523 19.5523 19 19 19H5C4.44772 19 4 18.5523 4 18V12.39L8.68 14C8.78618 14.0144 8.89382 14.0144 9 14H15C15.1084 13.998 15.2161 13.9812 15.32 13.95L20 12.39V18ZM20 10.2802L14.84 12.0002H9.16L4 10.2802V9.00025C4 8.44796 4.44772 8.00025 5 8.00025H19C19.5523 8.00025 20 8.44796 20 9.00025V10.2802Z" fill="#171E2B"/>
</svg>
