<svg width="24" height="24" viewBox="0 0 24 24" fill="none" xmlns="http://www.w3.org/2000/svg">
<path fill-rule="evenodd" clip-rule="evenodd" d="M20.71 16.0998L19.07 14.4598C18.7757 14.1867 18.6873 13.7569 18.85 13.3898C19.1987 12.6409 19.3829 11.8259 19.39 10.9998C19.3947 10.9667 19.3947 10.933 19.39 10.8998C19.3935 9.70322 19.0228 8.53545 18.33 7.55983C16.9911 5.68859 15.2166 4.17156 13.16 3.13983C10.4861 1.83085 7.27677 2.35638 5.16 4.44983L4.49 5.11983C2.37378 7.24538 1.84692 10.483 3.18 13.1698L3.28 13.3398C2.74634 13.8935 2.44564 14.6309 2.44 15.3998C2.44809 16.4801 3.03632 17.4725 3.98006 17.9982C4.9238 18.5239 6.07729 18.5016 7 17.9398C7.18 18.0798 7.34 18.2298 7.52 18.3598C7.89851 18.623 8.30833 18.838 8.74 18.9998H8.83C9.01 19.0698 9.2 19.1298 9.4 19.1898H9.55C9.86121 19.2698 10.1793 19.32 10.5 19.3398H10.78H10.9H11.12C11.33 19.3398 11.53 19.3398 11.74 19.2798H11.91C12.4017 19.1954 12.8795 19.044 13.33 18.8298C13.6968 18.6821 14.1162 18.7644 14.4 19.0398L15.86 20.4998C16.4935 21.1355 17.3526 21.495 18.25 21.4998C19.0028 21.4918 19.7218 21.1862 20.25 20.6498L20.63 20.2698C21.7766 19.1287 21.8119 17.2841 20.71 16.0998ZM5.40999 16.4195C4.85771 16.4195 4.40999 15.9718 4.40999 15.4195C4.40999 14.8672 4.85771 14.4195 5.40999 14.4195C5.96228 14.4195 6.41 14.8672 6.41 15.4195C6.41 15.9718 5.96228 16.4195 5.40999 16.4195ZM8.51 16.5601L8.25 16.3601C8.35412 16.0576 8.40817 15.7401 8.41 15.4201C8.41 13.7632 7.06685 12.4201 5.40999 12.4201C5.27999 12.4201 5.15999 12.4201 5.02999 12.4201L4.93999 12.2601C3.98633 10.3421 4.36034 8.02969 5.86999 6.5101L6.53999 5.8401C8.07873 4.36532 10.3832 4.02808 12.28 5.0001C13.9598 5.84031 15.419 7.06311 16.54 8.5701L8.51 16.5601ZM19.29 18.9297L18.92 19.3097C18.5 19.7297 17.85 19.6497 17.31 19.1097L15.85 17.6597C14.9699 16.7854 13.6424 16.5429 12.51 17.0497C12.1947 17.2042 11.8574 17.3088 11.51 17.3597C11.3189 17.3962 11.1245 17.413 10.93 17.4097H10.59H10.49L17.36 10.5397C17.43 11.2249 17.3125 11.9162 17.02 12.5397C16.5132 13.6721 16.7556 14.9996 17.63 15.8797L19.27 17.5297C19.6568 17.9131 19.6657 18.5355 19.29 18.9297Z" fill="#171E2B"/>
</svg>
