<svg width="24" height="24" viewBox="0 0 24 24" fill="none" xmlns="http://www.w3.org/2000/svg">
<path fill-rule="evenodd" clip-rule="evenodd" d="M12 2.00024C6.47717 2.00024 2.00002 6.4774 2.00002 12.0002C2.00002 17.5231 6.47717 22.0002 12 22.0002C17.5229 22.0002 22 17.5231 22 12.0002C22 9.34808 20.9464 6.80454 19.0711 4.92918C17.1957 3.05381 14.6522 2.00024 12 2.00024ZM12 20.0002C7.58173 20.0002 4.00001 16.4185 4.00001 12.0002C3.9978 10.2236 4.59303 8.49779 5.69001 7.10024L16.9 18.3102C15.5025 19.4072 13.7767 20.0025 12 20.0002ZM18.31 16.9005L7.10001 5.69047C8.49756 4.59349 10.2234 3.99826 12 4.00047C16.4183 4.00047 20 7.58219 20 12.0005C20.0022 13.7771 19.407 15.5029 18.31 16.9005Z" fill="#171E2B"/>
</svg>
