<svg width="24" height="24" viewBox="0 0 24 24" fill="none" xmlns="http://www.w3.org/2000/svg">
<path fill-rule="evenodd" clip-rule="evenodd" d="M3.00002 8H21C21.5523 8 22 7.55228 22 7C22 6.44771 21.5523 6 21 6H3.00002C2.44773 6 2.00002 6.44771 2.00002 7C2.00002 7.55228 2.44773 8 3.00002 8ZM21 15.9998H3.00002C2.44773 15.9998 2.00002 16.4475 2.00002 16.9998C2.00002 17.552 2.44773 17.9998 3.00002 17.9998H21C21.5523 17.9998 22 17.552 22 16.9998C22 16.4475 21.5523 15.9998 21 15.9998ZM21 11.0002H3.00002C2.44773 11.0002 2.00002 11.448 2.00002 12.0002C2.00002 12.5525 2.44773 13.0002 3.00002 13.0002H21C21.5523 13.0002 22 12.5525 22 12.0002C22 11.448 21.5523 11.0002 21 11.0002Z" fill="#171E2B"/>
</svg>
