<svg width="24" height="24" viewBox="0 0 24 24" fill="none" xmlns="http://www.w3.org/2000/svg">
<path fill-rule="evenodd" clip-rule="evenodd" d="M18 10.0005H5.99998C5.4477 10.0005 4.99998 10.4482 4.99998 11.0005C4.99998 11.5528 5.4477 12.0005 5.99998 12.0005H6.99998V21.0005C6.99998 21.5528 7.4477 22.0005 7.99998 22.0005C8.55227 22.0005 8.99998 21.5528 8.99998 21.0005V20.0005H11V21.0005C11 21.5528 11.4477 22.0005 12 22.0005C12.5523 22.0005 13 21.5528 13 21.0005V20.0005H15V21.0005C15 21.5528 15.4477 22.0005 16 22.0005C16.5523 22.0005 17 21.5528 17 21.0005V12.0005H18C18.5523 12.0005 19 11.5528 19 11.0005C19 10.4482 18.5523 10.0005 18 10.0005ZM11 18.0001H9.00001V16.0001H11V18.0001ZM11 14H9.00001V12H11V14ZM15 18.0001H13V16.0001H15V18.0001ZM15 14H13V12H15V14ZM20 2.00024H4C2.34315 2.00024 1 3.34339 1 5.00024V13.0002C1 14.6571 2.34315 16.0002 4 16.0002C4.55228 16.0002 5 15.5525 5 15.0002C5 14.448 4.55228 14.0002 4 14.0002C3.44772 14.0002 3 13.5525 3 13.0002V5.00024C3 4.44796 3.44772 4.00024 4 4.00024H20C20.5523 4.00024 21 4.44796 21 5.00024V13.0002C21 13.5525 20.5523 14.0002 20 14.0002C19.4477 14.0002 19 14.448 19 15.0002C19 15.5525 19.4477 16.0002 20 16.0002C21.6569 16.0002 23 14.6571 23 13.0002V5.00024C23 3.34339 21.6569 2.00024 20 2.00024ZM14 7.99999C14.5523 7.99999 15 7.55228 15 6.99999C15 6.44771 14.5523 6 14 6H10C9.44773 6 9.00001 6.44771 9.00001 6.99999C9.00001 7.55228 9.44773 7.99999 10 7.99999H14Z" fill="#171E2B"/>
</svg>
