<svg width="24" height="24" viewBox="0 0 24 24" fill="none" xmlns="http://www.w3.org/2000/svg">
<path fill-rule="evenodd" clip-rule="evenodd" d="M12 2.00024C8.60203 2.00372 5.43832 3.73246 3.60001 6.59024C0.972352 10.7112 1.70839 16.1277 5.34044 19.3981C8.97249 22.6684 14.4363 22.8342 18.26 19.7902C21.5626 17.132 22.83 12.6801 21.4228 8.68091C20.0156 4.68176 16.2395 2.00458 12 2.00024ZM14 4.26C16.8141 4.98842 19.0116 7.18594 19.74 10C18.068 10.0471 16.436 10.5222 15 11.38C14.2789 10.562 13.4746 9.82132 12.6 9.17C13.4811 7.68095 13.9633 5.98982 14 4.26ZM12 4.00049C11.9967 5.43552 11.6026 6.84254 10.86 8.07049C10.71 7.99049 10.57 7.90049 10.42 7.83049C9.13236 7.15108 7.75553 6.65623 6.33 6.36049C7.83074 4.85079 9.87129 4.00146 12 4.00049ZM5.00003 8.16C6.56845 8.37788 8.08745 8.86504 9.49003 9.6L9.62003 9.68C8.12934 11.1693 6.1072 12.0041 4.00003 12C4.00559 10.6563 4.3495 9.3357 5.00003 8.16ZM10 19.7402C7.18594 19.0118 4.98842 16.8143 4.26 14.0002C6.95895 13.9403 9.51638 12.7808 11.34 10.7902C12.0629 11.3246 12.7327 11.9274 13.34 12.5902C11.2936 14.4149 10.0861 16.9998 10 19.7402ZM12 20.0002C12.0044 17.7794 12.9317 15.6604 14.56 14.1502C14.62 14.2302 14.68 14.3002 14.73 14.3802C15.568 15.6635 16.1896 17.0756 16.57 18.5602C15.2316 19.5 13.6354 20.003 12 20.0002ZM18.21 17C17.7757 15.677 17.1706 14.4164 16.41 13.25L16.2 13C17.3627 12.3532 18.6695 12.0093 20 12C19.9901 13.8219 19.3586 15.5858 18.21 17Z" fill="#171E2B"/>
</svg>
