<svg width="24" height="24" viewBox="0 0 24 24" fill="none" xmlns="http://www.w3.org/2000/svg">
<path fill-rule="evenodd" clip-rule="evenodd" d="M17 6.99976H4C2.89543 6.99976 2 7.89519 2 8.99976V14.9998C2 16.1043 2.89543 16.9998 4 16.9998H17C18.1046 16.9998 19 16.1043 19 14.9998V8.99976C19 7.89519 18.1046 6.99976 17 6.99976ZM17 15H3.99999V9H17V15ZM21 9.99976C20.4477 9.99976 20 10.4475 20 10.9998V12.9998C20 13.552 20.4477 13.9998 21 13.9998C21.5523 13.9998 22 13.552 22 12.9998V10.9998C22 10.4475 21.5523 9.99976 21 9.99976Z" fill="#171E2B"/>
</svg>
