<svg width="24" height="24" viewBox="0 0 24 24" fill="none" xmlns="http://www.w3.org/2000/svg">
<path fill-rule="evenodd" clip-rule="evenodd" d="M6.69 14.9998H4V8.99976H6.31C6.86228 8.99976 7.31 8.55204 7.31 7.99976C7.31 7.44747 6.86228 6.99976 6.31 6.99976H4C2.89543 6.99976 2 7.89519 2 8.99976V14.9998C2 16.1043 2.89543 16.9998 4 16.9998H6.69C7.24228 16.9998 7.69 16.552 7.69 15.9998C7.69 15.4475 7.24228 14.9998 6.69 14.9998ZM13.89 12.4399C13.9145 12.3815 13.9345 12.3214 13.95 12.2599C13.9547 12.1934 13.9547 12.1265 13.95 12.0599C13.95 12.0599 13.95 12.0599 13.95 11.9999C13.95 11.9399 13.95 11.9199 13.95 11.8799C13.9441 11.811 13.9272 11.7435 13.9 11.6799C13.8794 11.6206 13.8526 11.5636 13.82 11.5099C13.7927 11.4531 13.7591 11.3994 13.72 11.3499L13.56 11.2199L13.47 11.1299H13.41L13.23 11.0699H13.03H9.73002L11.18 8.56994C11.4562 8.08945 11.2905 7.47608 10.81 7.19994C10.3295 6.9238 9.71616 7.08945 9.44002 7.56994L7.13002 11.5699C7.13002 11.5699 7.13002 11.5699 7.13002 11.6299C7.10556 11.6884 7.0855 11.7485 7.07002 11.8099C7.06532 11.8765 7.06532 11.9434 7.07002 12.0099L7.00002 11.9999C7.00002 11.9999 7.00002 12.0799 7.00002 12.1199C7.00594 12.1888 7.02282 12.2564 7.05002 12.3199C7.07061 12.3793 7.09743 12.4363 7.13002 12.4899C7.15738 12.5468 7.19092 12.6004 7.23002 12.6499L7.39002 12.7799C7.41745 12.8124 7.44755 12.8425 7.48002 12.8699H7.55002H7.64002C7.75053 12.9361 7.87277 12.9802 8.00002 12.9999H11.27L9.82002 15.4999C9.54388 15.9804 9.70953 16.5938 10.19 16.8699C10.6705 17.1461 11.2839 16.9804 11.56 16.4999L13.87 12.4999C13.87 12.4999 13.88 12.4599 13.89 12.4399ZM21 9.99976C20.4477 9.99976 20 10.4475 20 10.9998V12.9998C20 13.552 20.4477 13.9998 21 13.9998C21.5523 13.9998 22 13.552 22 12.9998V10.9998C22 10.4475 21.5523 9.99976 21 9.99976ZM17 6.99976H14.31C13.7577 6.99976 13.31 7.44747 13.31 7.99976C13.31 8.55204 13.7577 8.99976 14.31 8.99976H17V14.9998H14.69C14.1377 14.9998 13.69 15.4475 13.69 15.9998C13.69 16.552 14.1377 16.9998 14.69 16.9998H17C18.1046 16.9998 19 16.1043 19 14.9998V8.99976C19 7.89519 18.1046 6.99976 17 6.99976Z" fill="#171E2B"/>
</svg>
