<svg width="24" height="24" viewBox="0 0 24 24" fill="none" xmlns="http://www.w3.org/2000/svg">
<path fill-rule="evenodd" clip-rule="evenodd" d="M20 3.50024H4C2.34315 3.50024 1 4.84339 1 6.50024V19.5002C1 20.0525 1.44772 20.5002 2 20.5002H6C6.33452 20.4985 6.64602 20.3296 6.83 20.0502L8.54 17.5002H15.46L17.17 20.0502C17.354 20.3296 17.6655 20.4985 18 20.5002H22C22.5523 20.5002 23 20.0525 23 19.5002V6.50024C23 4.84339 21.6569 3.50024 20 3.50024ZM21 18.5H18.54L16.83 16C16.6579 15.7015 16.3443 15.5125 16 15.5H8C7.66548 15.5017 7.35398 15.6706 7.17 15.95L5.46 18.5H3V13.5H21V18.5ZM7 11.5002V10.5002C7 9.94796 7.44771 9.50024 8 9.50024H10C10.5523 9.50024 11 9.94796 11 10.5002V11.5002H7ZM13 11.5002V10.5002C13 9.94796 13.4477 9.50024 14 9.50024H16C16.5523 9.50024 17 9.94796 17 10.5002V11.5002H13ZM21 11.5005H19V10.5005C19 8.84364 17.6569 7.50049 16 7.50049H14C13.2599 7.5049 12.5476 7.7827 12 8.28049C11.4524 7.7827 10.7401 7.5049 10 7.50049H8C6.34315 7.50049 5 8.84364 5 10.5005V11.5005H3V6.50049C3 5.94821 3.44772 5.50049 4 5.50049H20C20.5523 5.50049 21 5.94821 21 6.50049V11.5005Z" fill="#171E2B"/>
</svg>
