<svg width="24" height="24" viewBox="0 0 24 24" fill="none" xmlns="http://www.w3.org/2000/svg">
<path fill-rule="evenodd" clip-rule="evenodd" d="M7 12.5002C8.65685 12.5002 10 11.1571 10 9.50025C10 7.84339 8.65685 6.50025 7 6.50025C5.34315 6.50025 4 7.84339 4 9.50025C4 11.1571 5.34315 12.5002 7 12.5002ZM7 8.49975C7.55228 8.49975 8 8.94747 8 9.49975C8 10.052 7.55228 10.4998 7 10.4998C6.44771 10.4998 6 10.052 6 9.49975C6 8.94747 6.44771 8.49975 7 8.49975ZM20 6.5H12C11.4477 6.5 11 6.94772 11 7.5V13.5H3V5.5C3 4.94772 2.55228 4.5 2 4.5C1.44772 4.5 1 4.94772 1 5.5V18.5C1 19.0523 1.44772 19.5 2 19.5C2.55228 19.5 3 19.0523 3 18.5V15.5H21V18.5C21 19.0523 21.4477 19.5 22 19.5C22.5523 19.5 23 19.0523 23 18.5V9.5C23 7.84315 21.6569 6.5 20 6.5ZM21 13.4998H13V8.49975H20C20.5523 8.49975 21 8.94747 21 9.49975V13.4998Z" fill="#171E2B"/>
</svg>
