<svg width="24" height="24" viewBox="0 0 24 24" fill="none" xmlns="http://www.w3.org/2000/svg">
<path fill-rule="evenodd" clip-rule="evenodd" d="M21 7.99975C20.9902 6.93269 20.1444 6.06125 19.0781 6.01959C18.0119 5.97794 17.1007 6.78074 17.0077 7.84379C16.9147 8.90683 17.6727 9.85564 18.73 9.99975C19.1547 11.1722 19.0728 12.4684 18.5038 13.578C17.9347 14.6875 16.9299 15.5105 15.73 15.8497C15.4663 15.2427 15.0092 14.74 14.43 14.4197C16.7346 11.5605 16.4378 7.40633 13.7501 4.90377C11.0624 2.40122 6.89761 2.40122 4.20988 4.90377C1.52215 7.40633 1.22534 11.5605 3.52999 14.4197C2.59581 14.9448 2.0126 15.9282 1.99999 16.9997V17.9997C1.99999 19.6566 3.34314 20.9997 4.99999 20.9997H13C14.6568 20.9997 16 19.6566 16 17.9997V17.8097C17.8159 17.3857 19.3605 16.1988 20.2378 14.5533C21.1152 12.9078 21.2399 10.9638 20.58 9.21975C20.8509 8.87065 20.9986 8.44165 21 7.99975ZM14 17.9998C14 18.552 13.5523 18.9998 13 18.9998H4.99999C4.4477 18.9998 3.99999 18.552 3.99999 17.9998V16.9998C3.99999 16.4475 4.4477 15.9998 4.99999 15.9998H5.40999C7.61737 17.334 10.3826 17.334 12.59 15.9998H13C13.5523 15.9998 14 16.4475 14 16.9998V17.9998ZM8.99999 14.9995C6.23856 14.9995 3.99999 12.7609 3.99999 9.99951C3.99999 7.23808 6.23856 4.9995 8.99999 4.9995C11.7614 4.9995 14 7.23808 14 9.99951C14 11.3256 13.4732 12.5974 12.5355 13.535C11.5978 14.4727 10.3261 14.9995 8.99999 14.9995ZM9 9C8.44771 9 8 9.44771 8 10C8 10.5523 8.44771 11 9 11C9.55228 11 9.99999 10.5523 9.99999 10C9.99999 9.44771 9.55228 9 9 9Z" fill="#171E2B"/>
</svg>
