<svg width="24" height="24" viewBox="0 0 24 24" fill="none" xmlns="http://www.w3.org/2000/svg">
<path fill-rule="evenodd" clip-rule="evenodd" d="M18 13.1802V10.0002C17.997 7.07472 15.8846 4.57783 13 4.09024V3.00024C13 2.44796 12.5523 2.00024 12 2.00024C11.4477 2.00024 11 2.44796 11 3.00024V4.09024C8.1154 4.57783 6.00296 7.07472 6 10.0002V13.1802C4.80427 13.603 4.00356 14.732 4 16.0002V18.0002C4 18.5525 4.44772 19.0002 5 19.0002H8.14C8.6134 20.7422 10.1949 21.9512 12 21.9512C13.8051 21.9512 15.3866 20.7422 15.86 19.0002H19C19.5523 19.0002 20 18.5525 20 18.0002V16.0002C19.9964 14.732 19.1957 13.603 18 13.1802ZM8.00001 9.99999C8.00001 7.79086 9.79087 6 12 6C14.2091 6 16 7.79086 16 9.99999V13H8.00001V9.99999ZM12 20.0001C11.2898 19.9958 10.6351 19.6152 10.28 19.0001H13.72C13.3649 19.6152 12.7102 19.9958 12 20.0001ZM18 17.0004H5.99999V16.0004C5.99999 15.4481 6.44771 15.0004 6.99999 15.0004H17C17.5523 15.0004 18 15.4481 18 16.0004V17.0004Z" fill="#171E2B"/>
</svg>
