<svg width="24" height="24" viewBox="0 0 24 24" fill="none" xmlns="http://www.w3.org/2000/svg">
<path fill-rule="evenodd" clip-rule="evenodd" d="M11.07 6.12025C11.3732 6.03848 11.686 5.99811 12 6.00025C14.2092 6.00025 16 7.79111 16 10.0003V11.3403C16 11.8925 16.4477 12.3403 17 12.3403C17.5523 12.3403 18 11.8925 18 11.3403V10.0003C17.9971 7.07473 15.8846 4.57784 13 4.09025V3.00025C13 2.44797 12.5523 2.00025 12 2.00025C11.4477 2.00025 11 2.44797 11 3.00025V4.10025L10.55 4.18025C10.0143 4.32385 9.69643 4.87454 9.84002 5.41025C9.98362 5.94597 10.5343 6.26385 11.07 6.12025ZM21.71 20.2899L3.71 2.28991C3.31788 1.89779 2.68212 1.89779 2.29 2.28991C1.89788 2.68203 1.89788 3.31779 2.29 3.70991L6.41 7.81991C6.13903 8.51478 5.99999 9.25408 6 9.99991V13.1799C4.80427 13.6027 4.00357 14.7317 4 15.9999V17.9999C4 18.5522 4.44772 18.9999 5 18.9999H8.14C8.6134 20.7419 10.1949 21.9509 12 21.9509C13.8051 21.9509 15.3866 20.7419 15.86 18.9999H17.59L20.29 21.7099C20.4778 21.8992 20.7334 22.0057 21 22.0057C21.2666 22.0057 21.5222 21.8992 21.71 21.7099C21.8993 21.5221 22.0058 21.2665 22.0058 20.9999C22.0058 20.7333 21.8993 20.4777 21.71 20.2899ZM8.00001 10C7.98475 9.81699 7.98475 9.63302 8.00001 9.45L11.59 13H8.00001V10ZM12 19.9998C11.2898 19.9955 10.6351 19.6148 10.28 18.9998H13.72C13.3649 19.6148 12.7102 19.9955 12 19.9998ZM6 17V16C6 15.4477 6.44772 15 7 15H13.59L15.59 17H6Z" fill="#171E2B"/>
</svg>
