<svg width="24" height="24" viewBox="0 0 24 24" fill="none" xmlns="http://www.w3.org/2000/svg">
<path fill-rule="evenodd" clip-rule="evenodd" d="M9.49997 10.5005H12C12.5523 10.5005 13 10.0528 13 9.5005C13 8.94821 12.5523 8.5005 12 8.5005H11V8.0005C11 7.44821 10.5523 7.0005 9.99997 7.0005C9.44769 7.0005 8.99997 7.44821 8.99997 8.0005V8.5505C7.74128 8.80608 6.88104 9.97386 7.01012 11.2517C7.1392 12.5296 8.21559 13.5018 9.49997 13.5005H10.5C10.7761 13.5005 11 13.7244 11 14.0005C11 14.2766 10.7761 14.5005 10.5 14.5005H7.99997C7.44769 14.5005 6.99997 14.9482 6.99997 15.5005C6.99997 16.0528 7.44769 16.5005 7.99997 16.5005H8.99997V17.0005C8.99997 17.5528 9.44769 18.0005 9.99997 18.0005C10.5523 18.0005 11 17.5528 11 17.0005V16.4505C12.2587 16.1949 13.1189 15.0271 12.9898 13.7492C12.8607 12.4714 11.7844 11.4992 10.5 11.5005H9.49997C9.22383 11.5005 8.99997 11.2766 8.99997 11.0005C8.99997 10.7244 9.22383 10.5005 9.49997 10.5005ZM21 12.0003H18V3.00028C18.0014 2.6416 17.8106 2.30962 17.5 2.13028C17.1906 1.95165 16.8094 1.95165 16.5 2.13028L13.5 3.85028L10.5 2.13028C10.1906 1.95165 9.80939 1.95165 9.49999 2.13028L6.49999 3.85028L3.49999 2.13028C3.19059 1.95165 2.80939 1.95165 2.49999 2.13028C2.18936 2.30962 1.99857 2.6416 1.99999 3.00028V19.0003C1.99999 20.6571 3.34314 22.0003 4.99999 22.0003H19C20.6568 22.0003 22 20.6571 22 19.0003V13.0003C22 12.448 21.5523 12.0003 21 12.0003ZM4.99998 20.0005C4.4477 20.0005 3.99998 19.5528 3.99998 19.0005V4.7305L5.99999 5.8705C6.31324 6.03411 6.68673 6.03411 6.99999 5.8705L9.99998 4.1505L13 5.8705C13.3132 6.03411 13.6867 6.03411 14 5.8705L16 4.7305V19.0005C16.0027 19.3416 16.0636 19.6798 16.18 20.0005H4.99998ZM20 19.0002C20 19.5525 19.5523 20.0002 19 20.0002C18.4477 20.0002 18 19.5525 18 19.0002V14.0002H20V19.0002Z" fill="#171E2B"/>
</svg>
