<svg width="24" height="24" viewBox="0 0 24 24" fill="none" xmlns="http://www.w3.org/2000/svg">
<path fill-rule="evenodd" clip-rule="evenodd" d="M19 8.99988C19 6.79074 17.2091 4.99988 15 4.99988V2.99988C15 2.44759 14.5523 1.99988 14 1.99988C13.4477 1.99988 13 2.44759 13 2.99988V4.99988H11V2.99988C11 2.44759 10.5523 1.99988 10 1.99988C9.44772 1.99988 9 2.44759 9 2.99988V4.99988H6C5.44772 4.99988 5 5.44759 5 5.99988C5 6.55216 5.44772 6.99988 6 6.99988H7V16.9999H6C5.44772 16.9999 5 17.4476 5 17.9999C5 18.5522 5.44772 18.9999 6 18.9999H9V20.9999C9 21.5522 9.44772 21.9999 10 21.9999C10.5523 21.9999 11 21.5522 11 20.9999V18.9999H13V20.9999C13 21.5522 13.4477 21.9999 14 21.9999C14.5523 21.9999 15 21.5522 15 20.9999V18.9999C16.6589 18.9892 18.139 17.9558 18.7205 16.4021C19.3021 14.8485 18.8642 13.0971 17.62 11.9999C18.4906 11.2453 18.9935 10.1519 19 8.99988ZM15 16.9998H8.99998V12.9998H15C16.1046 12.9998 17 13.8952 17 14.9998C17 16.1043 16.1046 16.9998 15 16.9998ZM15 10.9998H8.99998V6.99975H15C16.1046 6.99975 17 7.89518 17 8.99975C17 10.1043 16.1046 10.9998 15 10.9998Z" fill="#171E2B"/>
</svg>
