<svg width="24" height="24" viewBox="0 0 24 24" fill="none" xmlns="http://www.w3.org/2000/svg">
<path fill-rule="evenodd" clip-rule="evenodd" d="M12 1.00012C5.92487 1.00012 1 5.92499 1 12.0001C1 18.0753 5.92487 23.0001 12 23.0001C18.0751 23.0001 23 18.0753 23 12.0001C23 9.08274 21.8411 6.28485 19.7782 4.22195C17.7153 2.15905 14.9174 1.00012 12 1.00012ZM12 21C7.02945 21 3.00002 16.9706 3.00002 12C3.00002 7.02944 7.02945 3 12 3C16.9706 3 21 7.02944 21 12C21 16.9706 16.9706 21 12 21ZM14 7.00024V6.00024C14 5.44796 13.5523 5.00025 13 5.00025C12.4477 5.00025 12 5.44796 12 6.00024V7.00024H11V6.00024C11 5.44796 10.5523 5.00025 10 5.00025C9.44771 5.00025 9 5.44796 9 6.00024V7.00024H8C7.44771 7.00024 7 7.44796 7 8.00024C7 8.55253 7.44771 9.00024 8 9.00024H9V15.0002H8C7.44771 15.0002 7 15.448 7 16.0002C7 16.5525 7.44771 17.0002 8 17.0002H9V18.0002C9 18.5525 9.44771 19.0002 10 19.0002C10.5523 19.0002 11 18.5525 11 18.0002V17.0002H12V18.0002C12 18.5525 12.4477 19.0002 13 19.0002C13.5523 19.0002 14 18.5525 14 18.0002V17.0002C15.6569 17.0002 17 15.6571 17 14.0002C16.9983 13.2615 16.7242 12.5494 16.23 12.0002C16.7242 11.4511 16.9983 10.739 17 10.0002C17 8.34339 15.6569 7.00024 14 7.00024ZM14 15.0001H11V13.0001H14C14.5523 13.0001 15 13.4478 15 14.0001C15 14.5524 14.5523 15.0001 14 15.0001ZM14 11H11V9H14C14.5523 9 15 9.44771 15 10C15 10.5523 14.5523 11 14 11Z" fill="#171E2B"/>
</svg>
