<svg width="90" height="90" viewBox="0 0 90 90" fill="none" xmlns="http://www.w3.org/2000/svg">
<rect x="42.376" y="46.6227" width="24" height="21" transform="rotate(15 42.376 46.6227)" fill="white"/>
<rect x="36.3402" y="30.5116" width="8" height="7" transform="rotate(15 36.3402 30.5116)" fill="white"/>
<rect x="40.4813" y="15.0568" width="8" height="8" transform="rotate(15 40.4813 15.0568)" fill="white"/>
<path d="M43.4593 58.8413C43.1047 58.2071 43.3258 57.4078 43.9571 57.0481C44.5885 56.6884 45.4004 56.899 45.7796 57.5192L48.0143 61.3394L58.0318 56.6089C58.3503 56.4573 58.7198 56.4395 59.0565 56.5572C59.3899 56.674 59.6678 56.9202 59.8219 57.2397C60.1452 57.8998 59.8632 58.6931 59.1951 59.0087L48.0594 64.2673C47.4306 64.5658 46.6702 64.3312 46.3176 63.7284L43.4593 58.8413ZM82.7773 19.4815L65.6057 83.5669C65.5147 83.9066 65.291 84.1969 64.9835 84.3722C64.676 84.5474 64.3094 84.5933 63.9658 84.5013L17.2964 71.9962C16.5801 71.8043 16.1537 71.0753 16.3434 70.3672L33.5151 6.28171C33.7048 5.57357 34.4386 5.15544 35.1549 5.34736L81.8243 17.8524C82.1679 17.9445 82.4624 18.1676 82.6411 18.4731C82.8198 18.7785 82.8683 19.1418 82.7773 19.4815ZM79.8411 20.0684L35.7644 8.25813L19.2797 69.7802L63.3563 81.5905L79.8411 20.0684ZM37.5156 22.4647L39.5762 14.7744C39.7659 14.0663 40.4998 13.6481 41.216 13.8401L48.9942 15.9242C49.3378 16.0163 49.6323 16.2394 49.811 16.5449C49.9897 16.8504 50.0382 17.2137 49.9472 17.5533L47.8866 25.2436C47.7956 25.5832 47.5719 25.8736 47.2644 26.0488C46.957 26.224 46.5903 26.27 46.2468 26.178L38.4685 24.0938C37.7523 23.9019 37.3259 23.1728 37.5156 22.4647ZM40.4518 21.8777L45.6373 23.2671L47.011 18.1403L41.8255 16.7508L40.4518 21.8777ZM54.4458 21.5062L60.9277 23.243C61.6439 23.4349 62.3777 23.0168 62.5675 22.3086C62.7572 21.6005 62.3308 20.8715 61.6145 20.6796L55.1327 18.9428C54.4164 18.7508 53.6826 19.169 53.4929 19.8771C53.3031 20.5852 53.7296 21.3143 54.4458 21.5062ZM53.0721 26.633L69.9245 31.1486C70.6408 31.3405 71.3746 30.9224 71.5643 30.2143C71.7541 29.5061 71.3276 28.7771 70.6114 28.5852L53.7589 24.0696C53.0427 23.8777 52.3089 24.2958 52.1191 25.0039C51.9294 25.7121 52.3558 26.4411 53.0721 26.633ZM33.3944 37.8452L35.455 30.1549C35.6447 29.4468 36.3786 29.0287 37.0948 29.2206L44.873 31.3047C45.2166 31.3968 45.5111 31.62 45.6898 31.9254C45.8685 32.2309 45.917 32.5942 45.826 32.9339L43.7654 40.6241C43.6744 40.9638 43.4507 41.2541 43.1432 41.4293C42.8358 41.6046 42.4691 41.6505 42.1256 41.5585L34.3473 39.4743C33.6311 39.2824 33.2047 38.5533 33.3944 37.8452ZM36.3306 37.2582L41.5161 38.6476L42.8898 33.5208L37.7043 32.1314L36.3306 37.2582ZM50.3246 36.8867L56.8065 38.6235C57.5227 38.8154 58.2565 38.3973 58.4463 37.6892C58.636 36.981 58.2096 36.252 57.4933 36.0601L51.0115 34.3233C50.2952 34.1314 49.5614 34.5495 49.3717 35.2576C49.1819 35.9658 49.6084 36.6948 50.3246 36.8867ZM48.9509 42.0135L65.8033 46.5291C66.5196 46.721 67.2534 46.3029 67.4431 45.5948C67.6329 44.8866 67.2064 44.1576 66.4902 43.9657L49.6378 39.4501C48.9215 39.2582 48.1877 39.6763 47.9979 40.3845C47.8082 41.0926 48.2346 41.8216 48.9509 42.0135ZM65.8592 51.5078C66.2027 51.5999 66.4972 51.823 66.6759 52.1285C66.8546 52.434 66.9031 52.7973 66.8121 53.1369L61.3172 73.6443C61.2262 73.9839 61.0025 74.2743 60.695 74.4495C60.3876 74.6247 60.0209 74.6707 59.6774 74.5787L36.3426 68.3261C35.6264 68.1342 35.2 67.4052 35.3897 66.6971L40.8846 46.1897C41.0744 45.4816 41.8082 45.0634 42.5244 45.2554L65.8592 51.5078ZM63.8759 53.7239L43.134 48.1661L38.3259 66.11L59.0679 71.6678L63.8759 53.7239Z" fill="#C1002A"/>
<rect x="18.5188" y="66.1121" width="48" height="4" transform="rotate(15 18.5188 66.1121)" fill="#C1002A"/>
<rect x="9" y="12" width="47" height="65" fill="#F3CCD4"/>
<rect x="26" y="48" width="24" height="21" fill="white"/>
<rect x="16" y="34" width="8" height="7" fill="white"/>
<rect x="16" y="18" width="8" height="8" fill="white"/>
<path d="M30.2088 59.5219C29.7021 59.0011 29.7088 58.1718 30.2255 57.6609C30.7423 57.15 31.5811 57.1434 32.1078 57.6443L35.2551 60.756L43.707 53.5939C43.9754 53.365 44.3277 53.2522 44.6833 53.2787C45.0357 53.3053 45.3678 53.4711 45.5993 53.7398C46.0825 54.2938 46.0154 55.1331 45.4517 55.6108L36.0565 63.5723C35.5264 64.0235 34.7312 63.9936 34.2346 63.5027L30.2088 59.5219ZM58 11.3269V77.673C58 78.0247 57.8591 78.3631 57.6074 78.6119C57.3558 78.8607 57.0136 79 56.6579 79H8.3421C7.60059 79 7 78.4062 7 77.6731V11.3269C7 10.5938 7.60059 10 8.3421 10H56.6579C57.0135 10 57.3558 10.1393 57.6074 10.3881C57.8591 10.6369 58 10.9752 58 11.3269ZM55.3158 12.6538H9.68424V76.3461H55.3158V12.6538ZM15.0527 25.9231V17.9615C15.0527 17.2284 15.6532 16.6346 16.3948 16.6346H24.4474C24.803 16.6346 25.1453 16.7739 25.397 17.0227C25.6486 17.2715 25.7895 17.6099 25.7895 17.9615V25.9231C25.7895 26.2747 25.6486 26.6131 25.397 26.8619C25.1453 27.1107 24.8031 27.25 24.4474 27.25H16.3948C15.6532 27.25 15.0527 26.6562 15.0527 25.9231ZM17.7369 24.5961H23.1053V19.2884H17.7369V24.5961ZM31.1579 20.6154H37.8684C38.6099 20.6154 39.2105 20.0216 39.2105 19.2884C39.2105 18.5553 38.6099 17.9615 37.8684 17.9615H31.1579C30.4164 17.9615 29.8158 18.5553 29.8158 19.2884C29.8158 20.0216 30.4164 20.6154 31.1579 20.6154ZM31.1579 25.9231H48.6048C49.3464 25.9231 49.9469 25.3293 49.9469 24.5961C49.9469 23.863 49.3464 23.2692 48.6048 23.2692H31.1579C30.4164 23.2692 29.8158 23.863 29.8158 24.5961C29.8158 25.3293 30.4164 25.9231 31.1579 25.9231ZM15.0527 41.8461V33.8846C15.0527 33.1515 15.6532 32.5577 16.3948 32.5577H24.4474C24.803 32.5577 25.1453 32.697 25.397 32.9458C25.6486 33.1946 25.7895 33.533 25.7895 33.8846V41.8462C25.7895 42.1978 25.6486 42.5362 25.397 42.785C25.1453 43.0338 24.8031 43.1731 24.4474 43.1731H16.3948C15.6532 43.1731 15.0527 42.5793 15.0527 41.8461ZM17.7369 40.5192H23.1053V35.2115H17.7369V40.5192ZM31.1579 36.5384H37.8684C38.6099 36.5384 39.2105 35.9446 39.2105 35.2115C39.2105 34.4784 38.6099 33.8846 37.8684 33.8846H31.1579C30.4164 33.8846 29.8158 34.4784 29.8158 35.2115C29.8158 35.9446 30.4164 36.5384 31.1579 36.5384ZM31.1579 41.8461H48.6048C49.3464 41.8461 49.9469 41.2523 49.9469 40.5192C49.9469 39.7861 49.3464 39.1923 48.6048 39.1923H31.1579C30.4164 39.1923 29.8158 39.7861 29.8158 40.5192C29.8158 41.2523 30.4164 41.8461 31.1579 41.8461ZM49.9474 46.6407C50.303 46.6407 50.6453 46.7801 50.8969 47.0289C51.1486 47.2777 51.2895 47.616 51.2895 47.9677V69.1985C51.2895 69.5501 51.1486 69.8885 50.8969 70.1373C50.6453 70.3861 50.3031 70.5254 49.9474 70.5254H25.7895C25.048 70.5254 24.4474 69.9316 24.4474 69.1985V47.9677C24.4474 47.2346 25.048 46.6408 25.7895 46.6408L49.9474 46.6407ZM48.6053 49.2946H27.1316V67.8715H48.6053V49.2946Z" fill="#C1002A"/>
<rect x="8" y="73" width="48" height="4" fill="#C1002A"/>
</svg>
