<svg width="24" height="24" viewBox="0 0 24 24" fill="none" xmlns="http://www.w3.org/2000/svg">
<path fill-rule="evenodd" clip-rule="evenodd" d="M13.41 12.0001L17.21 8.21008C17.3993 8.02231 17.5058 7.76672 17.5058 7.50008C17.5058 7.23344 17.3993 6.97785 17.21 6.79008L12.71 2.29008C12.6149 2.19904 12.5028 2.12767 12.38 2.08008C12.1366 1.98006 11.8635 1.98006 11.62 2.08008C11.3757 2.18155 11.1815 2.37573 11.08 2.62008C11.0288 2.7403 11.0016 2.8694 11 3.00008V9.59008L8.21002 6.79008C7.95637 6.53642 7.58665 6.43736 7.24015 6.5302C6.89364 6.62305 6.62299 6.8937 6.53015 7.2402C6.4373 7.58671 6.53637 7.95642 6.79003 8.21008L10.59 12.0001L6.79003 15.7901C6.53637 16.0437 6.4373 16.4135 6.53015 16.76C6.62299 17.1065 6.89364 17.3771 7.24015 17.47C7.58665 17.5628 7.95637 17.4637 8.21002 17.2101L11 14.4101V21.0001C11.0016 21.1308 11.0288 21.2599 11.08 21.3801C11.1815 21.6244 11.3757 21.8186 11.62 21.9201C11.8621 22.0271 12.138 22.0271 12.38 21.9201C12.5028 21.8725 12.6149 21.8011 12.71 21.7101L17.21 17.2101C17.3993 17.0223 17.5058 16.7667 17.5058 16.5001C17.5058 16.2334 17.3993 15.9778 17.21 15.7901L13.41 12.0001ZM13 5.41012L15.09 7.50012L13 9.59012V5.41012ZM13 18.5901V14.4101L15.09 16.5001L13 18.5901Z" fill="#171E2B"/>
</svg>
