<svg width="24" height="24" viewBox="0 0 24 24" fill="none" xmlns="http://www.w3.org/2000/svg">
<path fill-rule="evenodd" clip-rule="evenodd" d="M19.87 8.59986C19.718 8.25044 19.3806 8.01777 19 7.99986H14.42L15.69 3.25986C15.772 2.95921 15.7091 2.63753 15.52 2.38986C15.3312 2.14461 15.0395 2.0006 14.73 1.99986H7.73001C7.26514 1.98394 6.85067 2.29064 6.73001 2.73986L4.05001 12.7399C3.96802 13.0405 4.03088 13.3622 4.22001 13.6099C4.41094 13.8579 4.707 14.0022 5.02001 13.9999H8.89001L7.08001 20.7399C6.95792 21.1873 7.15952 21.66 7.56697 21.8816C7.97442 22.1032 8.48076 22.0155 8.79001 21.6699L19.69 9.66986C19.9551 9.37958 20.0255 8.9609 19.87 8.59986ZM10.08 17.2798L11.15 13.2798C11.232 12.9791 11.1691 12.6574 10.98 12.4098C10.7912 12.1645 10.4995 12.0205 10.19 12.0198H6.35L8.49 3.99976H13.42L12.15 8.73976C12.0673 9.04609 12.1349 9.37348 12.3322 9.62201C12.5294 9.87054 12.8329 10.0107 13.15 9.99976H16.72L10.08 17.2798Z" fill="#171E2B"/>
</svg>
