<svg width="24" height="24" viewBox="0 0 24 24" fill="none" xmlns="http://www.w3.org/2000/svg">
<path fill-rule="evenodd" clip-rule="evenodd" d="M8.67 4.22986C8.99894 4.31634 9.34929 4.22969 9.6 3.99986H14.7L13.43 8.73986C13.348 9.04051 13.4109 9.36219 13.6 9.60986C13.7888 9.85511 14.0805 9.99912 14.39 9.99986H18L16.87 11.2399C16.501 11.6489 16.5323 12.2794 16.94 12.6499C17.1234 12.8166 17.3622 12.9092 17.61 12.9099C17.8922 12.9092 18.1609 12.7893 18.35 12.5799L21 9.66986C21.2684 9.3728 21.3337 8.94431 21.1661 8.58076C20.9985 8.2172 20.6302 7.98865 20.23 7.99986H15.69L17 3.25986C17.0792 2.95766 17.0126 2.63582 16.82 2.38986C16.6248 2.1361 16.32 1.99112 16 1.99986H9C8.53513 1.98394 8.12066 2.29064 8 2.73986V2.99986C7.85096 3.52392 8.14888 4.07084 8.67 4.22986ZM21.67 20.2898L3.67 2.28977C3.26764 1.99645 2.71079 2.04383 2.36377 2.40091C2.01675 2.75798 1.9853 3.31596 2.29 3.70977L6.61 7.99977L5.35 12.7398C5.27081 13.042 5.3374 13.3638 5.53 13.6098C5.71879 13.855 6.0105 13.999 6.32 13.9998H10.16L8.35 20.7398C8.22932 21.1874 8.43215 21.6593 8.84 21.8798C8.98742 21.9593 9.15247 22.0006 9.32 21.9998C9.60218 21.9991 9.87094 21.8793 10.06 21.6698L14.91 16.3298L20.29 21.7098C20.4778 21.8991 20.7334 22.0056 21 22.0056C21.2666 22.0056 21.5222 21.8991 21.71 21.7098C21.8993 21.522 22.0058 21.2664 22.0058 20.9998C22.0058 20.7331 21.8993 20.4775 21.71 20.2898H21.67ZM7.62 12L8.25 9.66L10.59 12H7.62ZM11.35 17.2798L12.35 13.7198L13.55 14.9098L11.35 17.2798Z" fill="#171E2B"/>
</svg>
