<svg width="24" height="24" viewBox="0 0 24 24" fill="none" xmlns="http://www.w3.org/2000/svg">
<path fill-rule="evenodd" clip-rule="evenodd" d="M19.89 9.54987C19.7205 9.21359 19.3765 9.00101 19 8.99987H14V2.99987C14.022 2.54901 13.7393 2.13926 13.31 1.99987C12.8981 1.86435 12.4458 2.00973 12.19 2.35987L4.18999 13.3599C3.98596 13.6547 3.95543 14.0363 4.10999 14.3599C4.25288 14.7313 4.6024 14.9826 4.99999 14.9999H9.99999V20.9999C10.0003 21.4324 10.2787 21.8158 10.69 21.9499C10.7905 21.981 10.8948 21.9978 11 21.9999C11.32 22.0007 11.6212 21.8483 11.81 21.5899L19.81 10.5899C20.0297 10.2857 20.0606 9.88409 19.89 9.54987ZM12 17.9199V13.9999C12 13.4476 11.5523 12.9999 11 12.9999H6.99998L12 6.07988V9.99988C12 10.5522 12.4477 10.9999 13 10.9999H17L12 17.9199Z" fill="#171E2B"/>
</svg>
