<svg width="24" height="24" viewBox="0 0 24 24" fill="none" xmlns="http://www.w3.org/2000/svg">
<path fill-rule="evenodd" clip-rule="evenodd" d="M21.17 2.06012C20.4532 1.93665 19.7274 1.8731 19 1.87012C16.5184 1.86809 14.0885 2.57969 12 3.92012C9.90615 2.59729 7.47665 1.90315 5 1.92012C4.27265 1.9231 3.54681 1.98665 2.83 2.11012C2.34493 2.19375 1.99285 2.61794 2 3.11012V15.1101C1.99567 15.4076 2.12401 15.6916 2.35017 15.8849C2.57634 16.0782 2.87682 16.1607 3.17 16.1101C6.06503 15.6089 9.03981 16.2976 11.42 18.0201L11.54 18.0901H11.65C11.874 18.1835 12.126 18.1835 12.35 18.0901H12.46L12.58 18.0201C14.9437 16.259 17.92 15.5302 20.83 16.0001C21.1232 16.0507 21.4237 15.9682 21.6498 15.7749C21.876 15.5816 22.0043 15.2976 22 15.0001V3.00012C21.9786 2.53069 21.6332 2.13952 21.17 2.06012ZM11 15.3501C9.14991 14.3768 7.09055 13.8688 5.00003 13.8701C4.67003 13.8701 4.34003 13.8701 4.00003 13.8701V3.87007C4.33309 3.85087 4.66697 3.85087 5.00003 3.87007C7.13342 3.86771 9.22024 4.49376 11 5.67007V15.3501ZM20 13.9101C19.66 13.9101 19.33 13.9101 19 13.9101C16.9095 13.9088 14.8502 14.4168 13 15.3901V5.67007C14.7798 4.49376 16.8666 3.86771 19 3.87007C19.3331 3.85087 19.667 3.85087 20 3.87007V13.9101ZM21.17 18.0602C20.4532 17.9368 19.7274 17.8732 19 17.8702C16.5184 17.8682 14.0885 18.5798 12 19.9202C9.91153 18.5798 7.48165 17.8682 5.00001 17.8702C4.27266 17.8732 3.54682 17.9368 2.83001 18.0602C2.5671 18.102 2.33167 18.2468 2.17588 18.4627C2.02009 18.6785 1.95679 18.9476 2.00001 19.2102C2.10582 19.7509 2.62898 20.1042 3.17001 20.0002C6.06504 19.499 9.03982 20.1877 11.42 21.9102C11.7672 22.1574 12.2328 22.1574 12.58 21.9102C14.9602 20.1877 17.935 19.499 20.83 20.0002C21.371 20.1042 21.8942 19.7509 22 19.2102C22.0432 18.9476 21.9799 18.6785 21.8241 18.4627C21.6684 18.2468 21.4329 18.102 21.17 18.0602Z" fill="#171E2B"/>
</svg>
