<svg width="24" height="24" viewBox="0 0 24 24" fill="none" xmlns="http://www.w3.org/2000/svg">
<path fill-rule="evenodd" clip-rule="evenodd" d="M13 9H11V7C11 6.44772 10.5523 6 10 6C9.44771 6 9 6.44772 9 7V9H7C6.44771 9 6 9.44772 6 10C6 10.5523 6.44771 11 7 11H9V13C9 13.5523 9.44771 14 10 14C10.5523 14 11 13.5523 11 13V11H13C13.5523 11 14 10.5523 14 10C14 9.44772 13.5523 9 13 9ZM18 14.9999V4.99988C18 3.34302 16.6569 1.99988 15 1.99988H5.00002C3.34316 1.99988 2.00002 3.34302 2.00002 4.99988V14.9999C2.00002 16.6567 3.34316 17.9999 5.00002 17.9999H15C16.6569 17.9999 18 16.6567 18 14.9999ZM4.00003 14.9998V4.99975C4.00003 4.44747 4.44775 3.99975 5.00003 3.99975H15C15.5523 3.99975 16 4.44747 16 4.99975V14.9998C16 15.552 15.5523 15.9998 15 15.9998H5.00003C4.44775 15.9998 4.00003 15.552 4.00003 14.9998ZM21 6C20.4477 6 20 6.44772 20 7V17C20 18.6569 18.6569 20 17 20H7C6.44771 20 6 20.4477 6 21C6 21.5523 6.44771 22 7 22H17C19.7614 22 22 19.7614 22 17V7C22 6.44772 21.5523 6 21 6Z" fill="#171E2B"/>
</svg>
