<svg width="24" height="24" viewBox="0 0 24 24" fill="none" xmlns="http://www.w3.org/2000/svg">
<path fill-rule="evenodd" clip-rule="evenodd" d="M22.47 18.8202L21.47 14.9602L18.32 3.37021C18.1783 2.83793 17.6328 2.52048 17.1 2.66021L13.23 3.66021C13.0433 3.45329 12.7787 3.33367 12.5 3.33021H2.5C1.94772 3.33021 1.5 3.77792 1.5 4.33021V20.3302C1.5 20.8825 1.94772 21.3302 2.5 21.3302H12.5C13.0523 21.3302 13.5 20.8825 13.5 20.3302V12.3302L15.7 20.5502C15.8207 20.9994 16.2351 21.3061 16.7 21.2902C16.7864 21.3 16.8736 21.3 16.96 21.2902L21.79 20.0002C22.0479 19.9312 22.2676 19.762 22.4 19.5302C22.5055 19.309 22.5303 19.0578 22.47 18.8202ZM6.46999 19.37H3.46999V17.37H6.46999V19.37ZM6.46999 15.3701H3.46999V9.37015H6.46999V15.3701ZM6.46999 7.37002H3.46999V5.37002H6.46999V7.37002ZM11.47 19.37H8.47001V17.37H11.47V19.37ZM11.47 15.3701H8.47001V9.37015H11.47V15.3701ZM11.47 7.37002H8.47001V5.37002H11.47V7.37002ZM13.72 5.63027L16.62 4.85027L17.14 6.78027L14.24 7.56027L13.72 5.63027ZM16.31 15.2902L14.76 9.49015L17.66 8.71015L19.21 14.5101L16.31 15.2902ZM17.31 19.15L16.79 17.22L19.69 16.44L20.21 18.37L17.31 19.15Z" fill="#171E2B"/>
</svg>
