<svg width="24" height="24" viewBox="0 0 24 24" fill="none" xmlns="http://www.w3.org/2000/svg">
<path fill-rule="evenodd" clip-rule="evenodd" d="M16 1.99988H8.00004C6.34319 1.99988 5.00004 3.34302 5.00004 4.99988V20.9999C4.99862 21.3586 5.18941 21.6905 5.50004 21.8699C5.80944 22.0485 6.19064 22.0485 6.50004 21.8699L12 18.6899L17.5 21.8699C17.6524 21.9563 17.8249 22.0011 18 21.9999C18.1752 22.0011 18.3476 21.9563 18.5 21.8699C18.8107 21.6905 19.0015 21.3586 19 20.9999V4.99988C19 3.34302 17.6569 1.99988 16 1.99988ZM17 19.2698L12.5 16.6698C12.1906 16.4911 11.8094 16.4911 11.5 16.6698L7.00003 19.2698V4.99975C7.00003 4.44747 7.44775 3.99975 8.00003 3.99975H16C16.5523 3.99975 17 4.44747 17 4.99975V19.2698Z" fill="#171E2B"/>
</svg>
