<svg width="24" height="24" viewBox="0 0 24 24" fill="none" xmlns="http://www.w3.org/2000/svg">
<path fill-rule="evenodd" clip-rule="evenodd" d="M18 1.99988H6.00003C5.44775 1.99988 5.00003 2.44759 5.00003 2.99988V20.9999C5 21.3902 5.22712 21.7449 5.58167 21.9082C5.93622 22.0715 6.35339 22.0136 6.65003 21.7599L12 17.2699L17.29 21.7099C17.4788 21.8971 17.7342 22.0014 18 21.9999C18.1312 22.0033 18.2614 21.9759 18.38 21.9199C18.7535 21.7665 18.998 21.4036 19 20.9999V2.99988C19 2.44759 18.5523 1.99988 18 1.99988ZM17 18.8598L12.64 15.1998C12.2693 14.8909 11.7308 14.8909 11.36 15.1998L7.00005 18.8598V3.99975H17V18.8598Z" fill="#171E2B"/>
</svg>
