<svg width="24" height="24" viewBox="0 0 24 24" fill="none" xmlns="http://www.w3.org/2000/svg">
<path fill-rule="evenodd" clip-rule="evenodd" d="M15 6H9.00001C8.44772 6 8.00001 6.44772 8.00001 7V11C8.00001 11.5523 8.44772 12 9.00001 12H15C15.5523 12 16 11.5523 16 11V7C16 6.44772 15.5523 6 15 6ZM14 9.99988H10V7.99988H14V9.99988ZM17 1.99988H5C4.44772 1.99988 4 2.44759 4 2.99988V20.9999C4 21.5522 4.44772 21.9999 5 21.9999H17C18.6569 21.9999 20 20.6567 20 18.9999V4.99988C20 3.34302 18.6569 1.99988 17 1.99988ZM18 18.9998C18 19.552 17.5523 19.9998 17 19.9998H5.99999V3.99975H17C17.5523 3.99975 18 4.44747 18 4.99975V18.9998Z" fill="#171E2B"/>
</svg>
