<svg width="24" height="24" viewBox="0 0 24 24" fill="none" xmlns="http://www.w3.org/2000/svg">
<path fill-rule="evenodd" clip-rule="evenodd" d="M18 1.99988H8C5.79086 1.99988 4 3.79074 4 5.99988V17.9999C4 20.209 5.79086 21.9999 8 21.9999H18C19.1046 21.9999 20 21.1044 20 19.9999V3.99988C20 2.89531 19.1046 1.99988 18 1.99988ZM5.99999 5.99975C5.99999 4.89518 6.89542 3.99975 7.99999 3.99975H18V13.9998H7.99999C7.29503 14.0027 6.60398 14.1962 5.99999 14.5598V5.99975ZM7.99999 19.9998C6.89542 19.9998 5.99999 19.1043 5.99999 17.9998C5.99999 16.8952 6.89542 15.9998 7.99999 15.9998H18V19.9998H7.99999ZM9.99999 8H14C14.5523 8 15 7.55228 15 7C15 6.44772 14.5523 6 14 6H9.99999C9.44771 6 8.99999 6.44772 8.99999 7C8.99999 7.55228 9.44771 8 9.99999 8Z" fill="#171E2B"/>
</svg>
