<svg width="24" height="24" viewBox="0 0 24 24" fill="none" xmlns="http://www.w3.org/2000/svg">
<path fill-rule="evenodd" clip-rule="evenodd" d="M20.18 10.1899C19.4607 10.0597 18.731 9.99612 18 9.99988C17.58 9.99988 17.17 9.99988 16.76 10.0799C16.2496 9.39876 15.5981 8.83592 14.85 8.42988C15.4926 7.72813 15.8493 6.81136 15.85 5.85988C15.85 3.72806 14.1218 1.99988 11.99 1.99988C9.85819 1.99988 8.13001 3.72806 8.13001 5.85988C8.13075 6.81136 8.48747 7.72813 9.13001 8.42988C8.38641 8.83803 7.73594 9.39655 7.22001 10.0699C6.83001 9.99988 6.42001 9.99988 6.00001 9.99988C5.26844 10.0027 4.53868 10.073 3.82001 10.2099C3.33892 10.2978 2.99204 10.7209 3.00001 11.2099V19.4599C2.99953 19.7573 3.13147 20.0395 3.36001 20.2299C3.5871 20.4214 3.88757 20.502 4.18001 20.4499C4.77842 20.3195 5.38778 20.2459 6.00001 20.2299C7.93711 20.2278 9.83218 20.7945 11.45 21.8599L11.58 21.9099C11.7127 21.9674 11.8554 21.998 12 21.9999C12.0955 21.9987 12.1901 21.9818 12.28 21.9499H12.35L12.48 21.8999C14.1132 20.8072 16.035 20.2258 18 20.2299C18.611 20.2327 19.2203 20.293 19.82 20.4099C20.1125 20.462 20.4129 20.3814 20.64 20.1899C20.8686 19.9995 21.0005 19.7173 21 19.4199V11.1699C20.9982 10.6884 20.6536 10.2765 20.18 10.1899ZM12 3.99975C12.9718 4.07115 13.7237 4.88038 13.7237 5.85475C13.7237 6.82913 12.9718 7.63836 12 7.70975C11.0283 7.63836 10.2763 6.82913 10.2763 5.85475C10.2763 4.88038 11.0283 4.07115 12 3.99975ZM11 19.3298C9.43267 18.6054 7.72666 18.23 5.99999 18.2298C5.66999 18.2298 5.33999 18.2298 4.99999 18.2798V11.9998C5.83855 11.906 6.68581 11.9228 7.51999 12.0498H7.62999C8.82159 12.2688 9.96347 12.7026 11 13.3298V19.3298ZM12 11.6C11.5553 11.3435 11.0943 11.1163 10.62 10.92H10.56C10.23 10.79 9.89999 10.66 9.55999 10.56C10.2543 10.0074 11.1127 9.70132 12 9.69C12.885 9.69561 13.7431 9.99455 14.44 10.54C13.5911 10.805 12.7731 11.1604 12 11.6ZM19 18.2799C16.9467 18.0736 14.8754 18.4188 13 19.2799V13.2799C14.0384 12.6687 15.181 12.2551 16.37 12.0599H16.57C17.374 11.9347 18.1908 11.9146 19 11.9999V18.2799Z" fill="#171E2B"/>
</svg>
