<svg width="24" height="24" viewBox="0 0 24 24" fill="none" xmlns="http://www.w3.org/2000/svg">
<path fill-rule="evenodd" clip-rule="evenodd" d="M17 1.99988H7C5.34315 1.99988 4 3.34302 4 4.99988V18.9999C4 20.6567 5.34315 21.9999 7 21.9999H17C18.6569 21.9999 20 20.6567 20 18.9999V4.99988C20 3.34302 18.6569 1.99988 17 1.99988ZM18 18.9998C18 19.552 17.5523 19.9998 17 19.9998H7C6.44771 19.9998 6 19.552 6 18.9998V4.99975C6 4.44747 6.44771 3.99975 7 3.99975H17C17.5523 3.99975 18 4.44747 18 4.99975V18.9998ZM14.38 10.8C14.7766 10.2832 14.9942 9.6514 15 9C15 7.34315 13.6569 6 12 6C10.3431 6 9 7.34315 9 9C9.00576 9.6514 9.22339 10.2832 9.62 10.8C8.23252 11.8272 7.66054 13.6286 8.20134 15.268C8.74214 16.9074 10.2737 18.0149 12 18.0149C13.7263 18.0149 15.2579 16.9074 15.7987 15.268C16.3395 13.6286 15.7675 11.8272 14.38 10.8ZM12 7.99988C12.5523 7.99988 13 8.44759 13 8.99988C13 9.55216 12.5523 9.99988 12 9.99988C11.4477 9.99988 11 9.55216 11 8.99988C11 8.44759 11.4477 7.99988 12 7.99988ZM12 16C10.8954 16 10 15.1046 10 14C10 12.8954 10.8954 12 12 12C13.1046 12 14 12.8954 14 14C14 15.1046 13.1046 16 12 16Z" fill="#171E2B"/>
</svg>
