<svg width="24" height="24" viewBox="0 0 24 24" fill="none" xmlns="http://www.w3.org/2000/svg">
<path fill-rule="evenodd" clip-rule="evenodd" d="M11.5 18.5002C10.9477 18.5002 10.5 18.948 10.5 19.5002C10.5 20.0525 10.9477 20.5002 11.5 20.5002C12.0523 20.5002 12.5 20.0525 12.5 19.5002C12.5 18.948 12.0523 18.5002 11.5 18.5002ZM20.5 3.50012C20.5 2.94784 20.0523 2.50012 19.5 2.50012H3.5C2.94772 2.50012 2.5 2.94784 2.5 3.50012V19.5001C2.5 20.0524 2.94772 20.5001 3.5 20.5001C4.05228 20.5001 4.5 20.0524 4.5 19.5001V4.50012H19.5C20.0523 4.50012 20.5 4.05241 20.5 3.50012ZM15.5 18.5002C14.9477 18.5002 14.5 18.948 14.5 19.5002C14.5 20.0525 14.9477 20.5002 15.5 20.5002C16.0523 20.5002 16.5 20.0525 16.5 19.5002C16.5 18.948 16.0523 18.5002 15.5 18.5002ZM7.5 18.5002C6.94771 18.5002 6.5 18.948 6.5 19.5002C6.5 20.0525 6.94771 20.5002 7.5 20.5002C8.05228 20.5002 8.5 20.0525 8.5 19.5002C8.5 18.948 8.05228 18.5002 7.5 18.5002ZM19.5 6.50025C18.9477 6.50025 18.5 6.94796 18.5 7.50025C18.5 8.05253 18.9477 8.50025 19.5 8.50025C20.0523 8.50025 20.5 8.05253 20.5 7.50025C20.5 6.94796 20.0523 6.50025 19.5 6.50025ZM19.5 10.5C18.9477 10.5 18.5 10.9477 18.5 11.5C18.5 12.0523 18.9477 12.5 19.5 12.5C20.0523 12.5 20.5 12.0523 20.5 11.5C20.5 10.9477 20.0523 10.5 19.5 10.5ZM19.5 14.5001C18.9477 14.5001 18.5 14.9478 18.5 15.5001C18.5 16.0524 18.9477 16.5001 19.5 16.5001C20.0523 16.5001 20.5 16.0524 20.5 15.5001C20.5 14.9478 20.0523 14.5001 19.5 14.5001ZM19.5 18.5002C18.9477 18.5002 18.5 18.948 18.5 19.5002C18.5 20.0525 18.9477 20.5002 19.5 20.5002C20.0523 20.5002 20.5 20.0525 20.5 19.5002C20.5 18.948 20.0523 18.5002 19.5 18.5002Z" fill="#171E2B"/>
</svg>
