<svg width="24" height="24" viewBox="0 0 24 24" fill="none" xmlns="http://www.w3.org/2000/svg">
<path fill-rule="evenodd" clip-rule="evenodd" d="M11.5 19.0001C10.9477 19.0001 10.5 19.4478 10.5 20.0001C10.5 20.5524 10.9477 21.0001 11.5 21.0001C12.0523 21.0001 12.5 20.5524 12.5 20.0001C12.5 19.4478 12.0523 19.0001 11.5 19.0001ZM11.5 15C10.9477 15 10.5 15.4477 10.5 16C10.5 16.5523 10.9477 17 11.5 17C12.0523 17 12.5 16.5523 12.5 16C12.5 15.4477 12.0523 15 11.5 15ZM11.5 10.9999C10.9477 10.9999 10.5 11.4476 10.5 11.9999C10.5 12.5522 10.9477 12.9999 11.5 12.9999C12.0523 12.9999 12.5 12.5522 12.5 11.9999C12.5 11.4476 12.0523 10.9999 11.5 10.9999ZM3.5 3C2.94772 3 2.5 3.44772 2.5 4V20C2.5 20.5523 2.94772 21 3.5 21C4.05229 21 4.5 20.5523 4.5 20V4C4.5 3.44772 4.05229 3 3.5 3ZM19.5 5C20.0523 5 20.5 4.55229 20.5 4C20.5 3.44772 20.0523 3 19.5 3C18.9477 3 18.5 3.44772 18.5 4C18.5 4.55229 18.9477 5 19.5 5ZM11.5 7.00012C10.9477 7.00012 10.5 7.44784 10.5 8.00012C10.5 8.55241 10.9477 9.00012 11.5 9.00012C12.0523 9.00012 12.5 8.55241 12.5 8.00012C12.5 7.44784 12.0523 7.00012 11.5 7.00012ZM7.49998 10.9999C6.9477 10.9999 6.49998 11.4476 6.49998 11.9999C6.49998 12.5522 6.9477 12.9999 7.49998 12.9999C8.05227 12.9999 8.49998 12.5522 8.49998 11.9999C8.49998 11.4476 8.05227 10.9999 7.49998 10.9999ZM7.49998 19.0001C6.9477 19.0001 6.49998 19.4478 6.49998 20.0001C6.49998 20.5524 6.9477 21.0001 7.49998 21.0001C8.05227 21.0001 8.49998 20.5524 8.49998 20.0001C8.49998 19.4478 8.05227 19.0001 7.49998 19.0001ZM7.49998 3C6.9477 3 6.49998 3.44772 6.49998 4C6.49998 4.55229 6.9477 5 7.49998 5C8.05227 5 8.49998 4.55229 8.49998 4C8.49998 3.44772 8.05227 3 7.49998 3ZM19.5 10.9999C18.9477 10.9999 18.5 11.4476 18.5 11.9999C18.5 12.5522 18.9477 12.9999 19.5 12.9999C20.0523 12.9999 20.5 12.5522 20.5 11.9999C20.5 11.4476 20.0523 10.9999 19.5 10.9999ZM19.5 15C18.9477 15 18.5 15.4477 18.5 16C18.5 16.5523 18.9477 17 19.5 17C20.0523 17 20.5 16.5523 20.5 16C20.5 15.4477 20.0523 15 19.5 15ZM11.5 3C10.9477 3 10.5 3.44772 10.5 4C10.5 4.55229 10.9477 5 11.5 5C12.0523 5 12.5 4.55229 12.5 4C12.5 3.44772 12.0523 3 11.5 3ZM19.5 19.0001C18.9477 19.0001 18.5 19.4478 18.5 20.0001C18.5 20.5524 18.9477 21.0001 19.5 21.0001C20.0523 21.0001 20.5 20.5524 20.5 20.0001C20.5 19.4478 20.0523 19.0001 19.5 19.0001ZM19.5 7.00012C18.9477 7.00012 18.5 7.44784 18.5 8.00012C18.5 8.55241 18.9477 9.00012 19.5 9.00012C20.0523 9.00012 20.5 8.55241 20.5 8.00012C20.5 7.44784 20.0523 7.00012 19.5 7.00012ZM15.5 3C14.9477 3 14.5 3.44772 14.5 4C14.5 4.55229 14.9477 5 15.5 5C16.0523 5 16.5 4.55229 16.5 4C16.5 3.44772 16.0523 3 15.5 3ZM15.5 19.0001C14.9477 19.0001 14.5 19.4478 14.5 20.0001C14.5 20.5524 14.9477 21.0001 15.5 21.0001C16.0523 21.0001 16.5 20.5524 16.5 20.0001C16.5 19.4478 16.0523 19.0001 15.5 19.0001ZM15.5 10.9999C14.9477 10.9999 14.5 11.4476 14.5 11.9999C14.5 12.5522 14.9477 12.9999 15.5 12.9999C16.0523 12.9999 16.5 12.5522 16.5 11.9999C16.5 11.4476 16.0523 10.9999 15.5 10.9999Z" fill="#171E2B"/>
</svg>
