<svg width="24" height="24" viewBox="0 0 24 24" fill="none" xmlns="http://www.w3.org/2000/svg">
<path fill-rule="evenodd" clip-rule="evenodd" d="M12 13.4998C12.5523 13.4998 13 13.052 13 12.4998C13 11.9475 12.5523 11.4998 12 11.4998C11.4477 11.4998 11 11.9475 11 12.4998C11 13.052 11.4477 13.4998 12 13.4998ZM12 17.4999C12.5523 17.4999 13 17.0522 13 16.4999C13 15.9476 12.5523 15.4999 12 15.4999C11.4477 15.4999 11 15.9476 11 16.4999C11 17.0522 11.4477 17.4999 12 17.4999ZM12 9.5C12.5523 9.5 13 9.05228 13 8.5C13 7.94772 12.5523 7.5 12 7.5C11.4477 7.5 11 7.94772 11 8.5C11 9.05228 11.4477 9.5 12 9.5ZM8.00001 5.49988C8.55229 5.49988 9.00001 5.05216 9.00001 4.49988C9.00001 3.94759 8.55229 3.49988 8.00001 3.49988C7.44772 3.49988 7.00001 3.94759 7.00001 4.49988C7.00001 5.05216 7.44772 5.49988 8.00001 5.49988ZM8.00001 13.4998C8.55229 13.4998 9.00001 13.052 9.00001 12.4998C9.00001 11.9475 8.55229 11.4998 8.00001 11.4998C7.44772 11.4998 7.00001 11.9475 7.00001 12.4998C7.00001 13.052 7.44772 13.4998 8.00001 13.4998ZM20 5.49988C20.5523 5.49988 21 5.05216 21 4.49988C21 3.94759 20.5523 3.49988 20 3.49988C19.4477 3.49988 19 3.94759 19 4.49988C19 5.05216 19.4477 5.49988 20 5.49988ZM16 13.4998C16.5523 13.4998 17 13.052 17 12.4998C17 11.9475 16.5523 11.4998 16 11.4998C15.4477 11.4998 15 11.9475 15 12.4998C15 13.052 15.4477 13.4998 16 13.4998ZM12 5.49988C12.5523 5.49988 13 5.05216 13 4.49988C13 3.94759 12.5523 3.49988 12 3.49988C11.4477 3.49988 11 3.94759 11 4.49988C11 5.05216 11.4477 5.49988 12 5.49988ZM16 5.49988C16.5523 5.49988 17 5.05216 17 4.49988C17 3.94759 16.5523 3.49988 16 3.49988C15.4477 3.49988 15 3.94759 15 4.49988C15 5.05216 15.4477 5.49988 16 5.49988ZM20 15.4999C19.4477 15.4999 19 15.9476 19 16.4999C19 17.0522 19.4477 17.4999 20 17.4999C20.5523 17.4999 21 17.0522 21 16.4999C21 15.9476 20.5523 15.4999 20 15.4999ZM20 11.4998C19.4477 11.4998 19 11.9475 19 12.4998C19 13.052 19.4477 13.4998 20 13.4998C20.5523 13.4998 21 13.052 21 12.4998C21 11.9475 20.5523 11.4998 20 11.4998ZM20 19.5H4C3.44772 19.5 3 19.9477 3 20.5C3 21.0523 3.44772 21.5 4 21.5H20C20.5523 21.5 21 21.0523 21 20.5C21 19.9477 20.5523 19.5 20 19.5ZM20 7.5C19.4477 7.5 19 7.94772 19 8.5C19 9.05228 19.4477 9.5 20 9.5C20.5523 9.5 21 9.05228 21 8.5C21 7.94772 20.5523 7.5 20 7.5ZM4 13.4998C4.55229 13.4998 5 13.052 5 12.4998C5 11.9475 4.55229 11.4998 4 11.4998C3.44772 11.4998 3 11.9475 3 12.4998C3 13.052 3.44772 13.4998 4 13.4998ZM4 9.5C4.55229 9.5 5 9.05228 5 8.5C5 7.94772 4.55229 7.5 4 7.5C3.44772 7.5 3 7.94772 3 8.5C3 9.05228 3.44772 9.5 4 9.5ZM4 17.4999C4.55229 17.4999 5 17.0522 5 16.4999C5 15.9476 4.55229 15.4999 4 15.4999C3.44772 15.4999 3 15.9476 3 16.4999C3 17.0522 3.44772 17.4999 4 17.4999ZM4 5.49988C4.55229 5.49988 5 5.05216 5 4.49988C5 3.94759 4.55229 3.49988 4 3.49988C3.44772 3.49988 3 3.94759 3 4.49988C3 5.05216 3.44772 5.49988 4 5.49988Z" fill="#171E2B"/>
</svg>
