<svg width="24" height="24" viewBox="0 0 24 24" fill="none" xmlns="http://www.w3.org/2000/svg">
<path fill-rule="evenodd" clip-rule="evenodd" d="M8.00001 10.9999C7.44772 10.9999 7.00001 11.4476 7.00001 11.9999C7.00001 12.5522 7.44772 12.9999 8.00001 12.9999C8.55229 12.9999 9.00001 12.5522 9.00001 11.9999C9.00001 11.4476 8.55229 10.9999 8.00001 10.9999ZM8.00001 19.0001C7.44772 19.0001 7.00001 19.4478 7.00001 20.0001C7.00001 20.5524 7.44772 21.0001 8.00001 21.0001C8.55229 21.0001 9.00001 20.5524 9.00001 20.0001C9.00001 19.4478 8.55229 19.0001 8.00001 19.0001ZM12 19.0001C11.4477 19.0001 11 19.4478 11 20.0001C11 20.5524 11.4477 21.0001 12 21.0001C12.5523 21.0001 13 20.5524 13 20.0001C13 19.4478 12.5523 19.0001 12 19.0001ZM4 3C3.44772 3 3 3.44772 3 4C3 4.55229 3.44772 5 4 5C4.55229 5 5 4.55229 5 4C5 3.44772 4.55229 3 4 3ZM4 10.9999C3.44772 10.9999 3 11.4476 3 11.9999C3 12.5522 3.44772 12.9999 4 12.9999C4.55229 12.9999 5 12.5522 5 11.9999C5 11.4476 4.55229 10.9999 4 10.9999ZM20 5C20.5523 5 21 4.55229 21 4C21 3.44772 20.5523 3 20 3C19.4477 3 19 3.44772 19 4C19 4.55229 19.4477 5 20 5ZM4 19.0001C3.44772 19.0001 3 19.4478 3 20.0001C3 20.5524 3.44772 21.0001 4 21.0001C4.55229 21.0001 5 20.5524 5 20.0001C5 19.4478 4.55229 19.0001 4 19.0001ZM12 15C11.4477 15 11 15.4477 11 16C11 16.5523 11.4477 17 12 17C12.5523 17 13 16.5523 13 16C13 15.4477 12.5523 15 12 15ZM4 15C3.44772 15 3 15.4477 3 16C3 16.5523 3.44772 17 4 17C4.55229 17 5 16.5523 5 16C5 15.4477 4.55229 15 4 15ZM4 7.00012C3.44772 7.00012 3 7.44784 3 8.00012C3 8.55241 3.44772 9.00012 4 9.00012C4.55229 9.00012 5 8.55241 5 8.00012C5 7.44784 4.55229 7.00012 4 7.00012ZM8.00001 3C7.44772 3 7.00001 3.44772 7.00001 4C7.00001 4.55229 7.44772 5 8.00001 5C8.55229 5 9.00001 4.55229 9.00001 4C9.00001 3.44772 8.55229 3 8.00001 3ZM20 15C19.4477 15 19 15.4477 19 16C19 16.5523 19.4477 17 20 17C20.5523 17 21 16.5523 21 16C21 15.4477 20.5523 15 20 15ZM20 19.0001C19.4477 19.0001 19 19.4478 19 20.0001C19 20.5524 19.4477 21.0001 20 21.0001C20.5523 21.0001 21 20.5524 21 20.0001C21 19.4478 20.5523 19.0001 20 19.0001ZM20 7.00012C19.4477 7.00012 19 7.44784 19 8.00012C19 8.55241 19.4477 9.00012 20 9.00012C20.5523 9.00012 21 8.55241 21 8.00012C21 7.44784 20.5523 7.00012 20 7.00012ZM12 10.9999C11.4477 10.9999 11 11.4476 11 11.9999C11 12.5522 11.4477 12.9999 12 12.9999C12.5523 12.9999 13 12.5522 13 11.9999C13 11.4476 12.5523 10.9999 12 10.9999ZM20 10.9999C19.4477 10.9999 19 11.4476 19 11.9999C19 12.5522 19.4477 12.9999 20 12.9999C20.5523 12.9999 21 12.5522 21 11.9999C21 11.4476 20.5523 10.9999 20 10.9999ZM16 3C15.4477 3 15 3.44772 15 4C15 4.55229 15.4477 5 16 5C16.5523 5 17 4.55229 17 4C17 3.44772 16.5523 3 16 3ZM12 3C11.4477 3 11 3.44772 11 4C11 4.55229 11.4477 5 12 5C12.5523 5 13 4.55229 13 4C13 3.44772 12.5523 3 12 3ZM12 7.00012C11.4477 7.00012 11 7.44784 11 8.00012C11 8.55241 11.4477 9.00012 12 9.00012C12.5523 9.00012 13 8.55241 13 8.00012C13 7.44784 12.5523 7.00012 12 7.00012ZM16 19.0001C15.4477 19.0001 15 19.4478 15 20.0001C15 20.5524 15.4477 21.0001 16 21.0001C16.5523 21.0001 17 20.5524 17 20.0001C17 19.4478 16.5523 19.0001 16 19.0001ZM16 10.9999C15.4477 10.9999 15 11.4476 15 11.9999C15 12.5522 15.4477 12.9999 16 12.9999C16.5523 12.9999 17 12.5522 17 11.9999C17 11.4476 16.5523 10.9999 16 10.9999Z" fill="#171E2B"/>
</svg>
