<svg width="24" height="24" viewBox="0 0 24 24" fill="none" xmlns="http://www.w3.org/2000/svg">
<path fill-rule="evenodd" clip-rule="evenodd" d="M3 3C2.44772 3 2 3.44772 2 4C2 4.55229 2.44772 5 3 5C3.55229 5 4 4.55229 4 4C4 3.44772 3.55229 3 3 3ZM3 7.00012C2.44772 7.00012 2 7.44784 2 8.00012C2 8.55241 2.44772 9.00012 3 9.00012C3.55229 9.00012 4 8.55241 4 8.00012C4 7.44784 3.55229 7.00012 3 7.00012ZM19 5C19.5523 5 20 4.55229 20 4C20 3.44772 19.5523 3 19 3C18.4477 3 18 3.44772 18 4C18 4.55229 18.4477 5 19 5ZM7 10.9999C6.44772 10.9999 6 11.4476 6 11.9999C6 12.5522 6.44772 12.9999 7 12.9999C7.55229 12.9999 8 12.5522 8 11.9999C8 11.4476 7.55229 10.9999 7 10.9999ZM7 19.0001C6.44772 19.0001 6 19.4478 6 20.0001C6 20.5524 6.44772 21.0001 7 21.0001C7.55229 21.0001 8 20.5524 8 20.0001C8 19.4478 7.55229 19.0001 7 19.0001ZM7 3C6.44772 3 6 3.44772 6 4C6 4.55229 6.44772 5 7 5C7.55229 5 8 4.55229 8 4C8 3.44772 7.55229 3 7 3ZM3 15C2.44772 15 2 15.4477 2 16C2 16.5523 2.44772 17 3 17C3.55229 17 4 16.5523 4 16C4 15.4477 3.55229 15 3 15ZM3 10.9999C2.44772 10.9999 2 11.4476 2 11.9999C2 12.5522 2.44772 12.9999 3 12.9999C3.55229 12.9999 4 12.5522 4 11.9999C4 11.4476 3.55229 10.9999 3 10.9999ZM3 19.0001C2.44772 19.0001 2 19.4478 2 20.0001C2 20.5524 2.44772 21.0001 3 21.0001C3.55229 21.0001 4 20.5524 4 20.0001C4 19.4478 3.55229 19.0001 3 19.0001ZM19 15C18.4477 15 18 15.4477 18 16C18 16.5523 18.4477 17 19 17C19.5523 17 20 16.5523 20 16C20 15.4477 19.5523 15 19 15ZM19 10.9999C18.4477 10.9999 18 11.4476 18 11.9999C18 12.5522 18.4477 12.9999 19 12.9999C19.5523 12.9999 20 12.5522 20 11.9999C20 11.4476 19.5523 10.9999 19 10.9999ZM19 19.0001C18.4477 19.0001 18 19.4478 18 20.0001C18 20.5524 18.4477 21.0001 19 21.0001C19.5523 21.0001 20 20.5524 20 20.0001C20 19.4478 19.5523 19.0001 19 19.0001ZM19 7.00012C18.4477 7.00012 18 7.44784 18 8.00012C18 8.55241 18.4477 9.00012 19 9.00012C19.5523 9.00012 20 8.55241 20 8.00012C20 7.44784 19.5523 7.00012 19 7.00012ZM15 3C14.4477 3 14 3.44772 14 4C14 4.55229 14.4477 5 15 5C15.5523 5 16 4.55229 16 4C16 3.44772 15.5523 3 15 3ZM11 3C10.4477 3 10 3.44772 10 4V20C10 20.5523 10.4477 21 11 21C11.5523 21 12 20.5523 12 20V4C12 3.44772 11.5523 3 11 3ZM15 19.0001C14.4477 19.0001 14 19.4478 14 20.0001C14 20.5524 14.4477 21.0001 15 21.0001C15.5523 21.0001 16 20.5524 16 20.0001C16 19.4478 15.5523 19.0001 15 19.0001ZM15 10.9999C14.4477 10.9999 14 11.4476 14 11.9999C14 12.5522 14.4477 12.9999 15 12.9999C15.5523 12.9999 16 12.5522 16 11.9999C16 11.4476 15.5523 10.9999 15 10.9999Z" fill="#171E2B"/>
</svg>
