<svg width="24" height="24" viewBox="0 0 24 24" fill="none" xmlns="http://www.w3.org/2000/svg">
<path fill-rule="evenodd" clip-rule="evenodd" d="M4.5 7.00012C3.94771 7.00012 3.5 7.44784 3.5 8.00012C3.5 8.55241 3.94771 9.00012 4.5 9.00012C5.05228 9.00012 5.5 8.55241 5.5 8.00012C5.5 7.44784 5.05228 7.00012 4.5 7.00012ZM4.5 3C3.94771 3 3.5 3.44772 3.5 4C3.5 4.55229 3.94771 5 4.5 5C5.05228 5 5.5 4.55229 5.5 4C5.5 3.44772 5.05228 3 4.5 3ZM8.49998 19.0001C7.9477 19.0001 7.49998 19.4478 7.49998 20.0001C7.49998 20.5524 7.9477 21.0001 8.49998 21.0001C9.05227 21.0001 9.49998 20.5524 9.49998 20.0001C9.49998 19.4478 9.05227 19.0001 8.49998 19.0001ZM4.5 19.0001C3.94771 19.0001 3.5 19.4478 3.5 20.0001C3.5 20.5524 3.94771 21.0001 4.5 21.0001C5.05228 21.0001 5.5 20.5524 5.5 20.0001C5.5 19.4478 5.05228 19.0001 4.5 19.0001ZM8.49998 10.9999C7.9477 10.9999 7.49998 11.4476 7.49998 11.9999C7.49998 12.5522 7.9477 12.9999 8.49998 12.9999C9.05227 12.9999 9.49998 12.5522 9.49998 11.9999C9.49998 11.4476 9.05227 10.9999 8.49998 10.9999ZM8.49998 3C7.9477 3 7.49998 3.44772 7.49998 4C7.49998 4.55229 7.9477 5 8.49998 5C9.05227 5 9.49998 4.55229 9.49998 4C9.49998 3.44772 9.05227 3 8.49998 3ZM4.5 10.9999C3.94771 10.9999 3.5 11.4476 3.5 11.9999C3.5 12.5522 3.94771 12.9999 4.5 12.9999C5.05228 12.9999 5.5 12.5522 5.5 11.9999C5.5 11.4476 5.05228 10.9999 4.5 10.9999ZM4.5 15C3.94771 15 3.5 15.4477 3.5 16C3.5 16.5523 3.94771 17 4.5 17C5.05228 17 5.5 16.5523 5.5 16C5.5 15.4477 5.05228 15 4.5 15ZM16.5 3C15.9477 3 15.5 3.44772 15.5 4C15.5 4.55229 15.9477 5 16.5 5C17.0523 5 17.5 4.55229 17.5 4C17.5 3.44772 17.0523 3 16.5 3ZM16.5 10.9999C15.9477 10.9999 15.5 11.4476 15.5 11.9999C15.5 12.5522 15.9477 12.9999 16.5 12.9999C17.0523 12.9999 17.5 12.5522 17.5 11.9999C17.5 11.4476 17.0523 10.9999 16.5 10.9999ZM12.5 19.0001C11.9477 19.0001 11.5 19.4478 11.5 20.0001C11.5 20.5524 11.9477 21.0001 12.5 21.0001C13.0523 21.0001 13.5 20.5524 13.5 20.0001C13.5 19.4478 13.0523 19.0001 12.5 19.0001ZM12.5 3C11.9477 3 11.5 3.44772 11.5 4C11.5 4.55229 11.9477 5 12.5 5C13.0523 5 13.5 4.55229 13.5 4C13.5 3.44772 13.0523 3 12.5 3ZM20.5 3C19.9477 3 19.5 3.44772 19.5 4V20C19.5 20.5523 19.9477 21 20.5 21C21.0523 21 21.5 20.5523 21.5 20V4C21.5 3.44772 21.0523 3 20.5 3ZM16.5 19.0001C15.9477 19.0001 15.5 19.4478 15.5 20.0001C15.5 20.5524 15.9477 21.0001 16.5 21.0001C17.0523 21.0001 17.5 20.5524 17.5 20.0001C17.5 19.4478 17.0523 19.0001 16.5 19.0001ZM12.5 7.00012C11.9477 7.00012 11.5 7.44784 11.5 8.00012C11.5 8.55241 11.9477 9.00012 12.5 9.00012C13.0523 9.00012 13.5 8.55241 13.5 8.00012C13.5 7.44784 13.0523 7.00012 12.5 7.00012ZM12.5 15C11.9477 15 11.5 15.4477 11.5 16C11.5 16.5523 11.9477 17 12.5 17C13.0523 17 13.5 16.5523 13.5 16C13.5 15.4477 13.0523 15 12.5 15ZM12.5 10.9999C11.9477 10.9999 11.5 11.4476 11.5 11.9999C11.5 12.5522 11.9477 12.9999 12.5 12.9999C13.0523 12.9999 13.5 12.5522 13.5 11.9999C13.5 11.4476 13.0523 10.9999 12.5 10.9999Z" fill="#171E2B"/>
</svg>
