<svg width="24" height="24" viewBox="0 0 24 24" fill="none" xmlns="http://www.w3.org/2000/svg">
<path fill-rule="evenodd" clip-rule="evenodd" d="M12 9.00012C12.5523 9.00012 13 8.55241 13 8.00012C13 7.44784 12.5523 7.00012 12 7.00012C11.4477 7.00012 11 7.44784 11 8.00012C11 8.55241 11.4477 9.00012 12 9.00012ZM12 12.9999C12.5523 12.9999 13 12.5522 13 11.9999C13 11.4476 12.5523 10.9999 12 10.9999C11.4477 10.9999 11 11.4476 11 11.9999C11 12.5522 11.4477 12.9999 12 12.9999ZM16 12.9999C16.5523 12.9999 17 12.5522 17 11.9999C17 11.4476 16.5523 10.9999 16 10.9999C15.4477 10.9999 15 11.4476 15 11.9999C15 12.5522 15.4477 12.9999 16 12.9999ZM12 17C12.5523 17 13 16.5523 13 16C13 15.4477 12.5523 15 12 15C11.4477 15 11 15.4477 11 16C11 16.5523 11.4477 17 12 17ZM20 3H4C3.44772 3 3 3.44772 3 4V20C3 20.5523 3.44772 21 4 21H20C20.5523 21 21 20.5523 21 20V4C21 3.44772 20.5523 3 20 3ZM19 18.9999H5.00002V4.99988H19V18.9999ZM7.99998 12.9999C8.55227 12.9999 8.99998 12.5522 8.99998 11.9999C8.99998 11.4476 8.55227 10.9999 7.99998 10.9999C7.4477 10.9999 6.99998 11.4476 6.99998 11.9999C6.99998 12.5522 7.4477 12.9999 7.99998 12.9999Z" fill="#171E2B"/>
</svg>
