<svg width="24" height="24" viewBox="0 0 24 24" fill="none" xmlns="http://www.w3.org/2000/svg">
<path fill-rule="evenodd" clip-rule="evenodd" d="M8.00001 18.5002C7.44772 18.5002 7.00001 18.948 7.00001 19.5002C7.00001 20.0525 7.44772 20.5002 8.00001 20.5002C8.55229 20.5002 9.00001 20.0525 9.00001 19.5002C9.00001 18.948 8.55229 18.5002 8.00001 18.5002ZM8.00001 10.5C7.44772 10.5 7.00001 10.9477 7.00001 11.5C7.00001 12.0523 7.44772 12.5 8.00001 12.5C8.55229 12.5 9.00001 12.0523 9.00001 11.5C9.00001 10.9477 8.55229 10.5 8.00001 10.5ZM12 18.5002C11.4477 18.5002 11 18.948 11 19.5002C11 20.0525 11.4477 20.5002 12 20.5002C12.5523 20.5002 13 20.0525 13 19.5002C13 18.948 12.5523 18.5002 12 18.5002ZM4 6.50025C3.44772 6.50025 3 6.94796 3 7.50025C3 8.05253 3.44772 8.50025 4 8.50025C4.55229 8.50025 5 8.05253 5 7.50025C5 6.94796 4.55229 6.50025 4 6.50025ZM4 18.5002C3.44772 18.5002 3 18.948 3 19.5002C3 20.0525 3.44772 20.5002 4 20.5002C4.55229 20.5002 5 20.0525 5 19.5002C5 18.948 4.55229 18.5002 4 18.5002ZM4 4.50012H20C20.5523 4.50012 21 4.05241 21 3.50012C21 2.94784 20.5523 2.50012 20 2.50012H4C3.44772 2.50012 3 2.94784 3 3.50012C3 4.05241 3.44772 4.50012 4 4.50012ZM4 14.5001C3.44772 14.5001 3 14.9478 3 15.5001C3 16.0524 3.44772 16.5001 4 16.5001C4.55229 16.5001 5 16.0524 5 15.5001C5 14.9478 4.55229 14.5001 4 14.5001ZM4 10.5C3.44772 10.5 3 10.9477 3 11.5C3 12.0523 3.44772 12.5 4 12.5C4.55229 12.5 5 12.0523 5 11.5C5 10.9477 4.55229 10.5 4 10.5ZM12 6.50025C11.4477 6.50025 11 6.94796 11 7.50025C11 8.05253 11.4477 8.50025 12 8.50025C12.5523 8.50025 13 8.05253 13 7.50025C13 6.94796 12.5523 6.50025 12 6.50025ZM20 14.5001C19.4477 14.5001 19 14.9478 19 15.5001C19 16.0524 19.4477 16.5001 20 16.5001C20.5523 16.5001 21 16.0524 21 15.5001C21 14.9478 20.5523 14.5001 20 14.5001ZM20 18.5002C19.4477 18.5002 19 18.948 19 19.5002C19 20.0525 19.4477 20.5002 20 20.5002C20.5523 20.5002 21 20.0525 21 19.5002C21 18.948 20.5523 18.5002 20 18.5002ZM12 14.5001C11.4477 14.5001 11 14.9478 11 15.5001C11 16.0524 11.4477 16.5001 12 16.5001C12.5523 16.5001 13 16.0524 13 15.5001C13 14.9478 12.5523 14.5001 12 14.5001ZM20 6.50025C19.4477 6.50025 19 6.94796 19 7.50025C19 8.05253 19.4477 8.50025 20 8.50025C20.5523 8.50025 21 8.05253 21 7.50025C21 6.94796 20.5523 6.50025 20 6.50025ZM20 10.5C19.4477 10.5 19 10.9477 19 11.5C19 12.0523 19.4477 12.5 20 12.5C20.5523 12.5 21 12.0523 21 11.5C21 10.9477 20.5523 10.5 20 10.5ZM12 10.5C11.4477 10.5 11 10.9477 11 11.5C11 12.0523 11.4477 12.5 12 12.5C12.5523 12.5 13 12.0523 13 11.5C13 10.9477 12.5523 10.5 12 10.5ZM16 10.5C15.4477 10.5 15 10.9477 15 11.5C15 12.0523 15.4477 12.5 16 12.5C16.5523 12.5 17 12.0523 17 11.5C17 10.9477 16.5523 10.5 16 10.5ZM16 18.5002C15.4477 18.5002 15 18.948 15 19.5002C15 20.0525 15.4477 20.5002 16 20.5002C16.5523 20.5002 17 20.0525 17 19.5002C17 18.948 16.5523 18.5002 16 18.5002Z" fill="#171E2B"/>
</svg>
