<svg width="24" height="24" viewBox="0 0 24 24" fill="none" xmlns="http://www.w3.org/2000/svg">
<path fill-rule="evenodd" clip-rule="evenodd" d="M7.99998 5C8.55227 5 8.99998 4.55229 8.99998 4C8.99998 3.44772 8.55227 3 7.99998 3C7.4477 3 6.99998 3.44772 6.99998 4C6.99998 4.55229 7.4477 5 7.99998 5ZM4 9.00012C4.55229 9.00012 5 8.55241 5 8.00012C5 7.44784 4.55229 7.00012 4 7.00012C3.44772 7.00012 3 7.44784 3 8.00012C3 8.55241 3.44772 9.00012 4 9.00012ZM4 5C4.55229 5 5 4.55229 5 4C5 3.44772 4.55229 3 4 3C3.44772 3 3 3.44772 3 4C3 4.55229 3.44772 5 4 5ZM4 19.0001C3.44772 19.0001 3 19.4478 3 20.0001C3 20.5524 3.44772 21.0001 4 21.0001C4.55229 21.0001 5 20.5524 5 20.0001C5 19.4478 4.55229 19.0001 4 19.0001ZM20 5C20.5523 5 21 4.55229 21 4C21 3.44772 20.5523 3 20 3C19.4477 3 19 3.44772 19 4C19 4.55229 19.4477 5 20 5ZM20 9.00012C20.5523 9.00012 21 8.55241 21 8.00012C21 7.44784 20.5523 7.00012 20 7.00012C19.4477 7.00012 19 7.44784 19 8.00012C19 8.55241 19.4477 9.00012 20 9.00012ZM16 5C16.5523 5 17 4.55229 17 4C17 3.44772 16.5523 3 16 3C15.4477 3 15 3.44772 15 4C15 4.55229 15.4477 5 16 5ZM20 19.0001C19.4477 19.0001 19 19.4478 19 20.0001C19 20.5524 19.4477 21.0001 20 21.0001C20.5523 21.0001 21 20.5524 21 20.0001C21 19.4478 20.5523 19.0001 20 19.0001ZM4 15C3.44772 15 3 15.4477 3 16C3 16.5523 3.44772 17 4 17C4.55229 17 5 16.5523 5 16C5 15.4477 4.55229 15 4 15ZM20 15C19.4477 15 19 15.4477 19 16C19 16.5523 19.4477 17 20 17C20.5523 17 21 16.5523 21 16C21 15.4477 20.5523 15 20 15ZM16 19.0001C15.4477 19.0001 15 19.4478 15 20.0001C15 20.5524 15.4477 21.0001 16 21.0001C16.5523 21.0001 17 20.5524 17 20.0001C17 19.4478 16.5523 19.0001 16 19.0001ZM21 12C21 11.4477 20.5523 11 20 11H13V4C13 3.44772 12.5523 3 12 3C11.4477 3 11 3.44772 11 4V11H4C3.44772 11 3 11.4477 3 12C3 12.5523 3.44772 13 4 13H11V20C11 20.5523 11.4477 21 12 21C12.5523 21 13 20.5523 13 20V13H20C20.5523 13 21 12.5523 21 12ZM7.99998 19.0001C7.4477 19.0001 6.99998 19.4478 6.99998 20.0001C6.99998 20.5524 7.4477 21.0001 7.99998 21.0001C8.55227 21.0001 8.99998 20.5524 8.99998 20.0001C8.99998 19.4478 8.55227 19.0001 7.99998 19.0001Z" fill="#171E2B"/>
</svg>
