<svg width="24" height="24" viewBox="0 0 24 24" fill="none" xmlns="http://www.w3.org/2000/svg">
<path fill-rule="evenodd" clip-rule="evenodd" d="M20.49 7.52008C20.4843 7.49372 20.4843 7.46644 20.49 7.44008C20.4851 7.417 20.4851 7.39316 20.49 7.37008V7.28008L20.43 7.13008C20.4056 7.08915 20.3753 7.05208 20.34 7.02008L20.25 6.94008H20.2L16.26 4.45008L12.54 2.15008C12.4539 2.08181 12.3555 2.03087 12.25 2.00008H12.17C12.0806 1.98516 11.9894 1.98516 11.9 2.00008H11.8C11.6838 2.02577 11.5725 2.06965 11.47 2.13008L4.00001 6.78008L3.91001 6.85008L3.82001 6.93008L3.72001 7.00008L3.67001 7.06008L3.61001 7.21008V7.30008V7.36008C3.60029 7.42639 3.60029 7.49377 3.61001 7.56008V16.2901C3.60932 16.6356 3.78702 16.957 4.08001 17.1401L11.58 21.7801L11.73 21.8401H11.81C11.9792 21.8937 12.1608 21.8937 12.33 21.8401H12.41L12.56 21.7801L20 17.2101C20.293 17.027 20.4707 16.7056 20.47 16.3601V7.63008C20.47 7.63008 20.49 7.56008 20.49 7.52008ZM12 4.17001L13.78 5.27001L8.19 8.73001L6.4 7.63001L12 4.17001ZM11 19.17L5.5 15.81V9.42001L11 12.82V19.17ZM12 11.0603L10.09 9.91026L15.68 6.44026L17.6 7.63026L12 11.0603ZM18.5 15.78L13 19.2V12.82L18.5 9.42001V15.78Z" fill="#171E2B"/>
</svg>
