<svg width="24" height="24" viewBox="0 0 24 24" fill="none" xmlns="http://www.w3.org/2000/svg">
<path fill-rule="evenodd" clip-rule="evenodd" d="M21 5.99988H17V4.99988C17 3.34302 15.6568 1.99988 14 1.99988H9.99998C8.34313 1.99988 6.99998 3.34302 6.99998 4.99988V5.99988H2.99998C2.4477 5.99988 1.99998 6.44759 1.99998 6.99988V10.9999C2.00454 11.848 2.36784 12.6545 2.99998 13.2199V18.9999C2.99998 20.6567 4.34313 21.9999 5.99998 21.9999H18C19.6568 21.9999 21 20.6567 21 18.9999V13.2199C21.6321 12.6545 21.9954 11.848 22 10.9999V6.99988C22 6.44759 21.5523 5.99988 21 5.99988ZM8.99999 4.99975C8.99999 4.44747 9.44771 3.99975 9.99999 3.99975H14C14.5523 3.99975 15 4.44747 15 4.99975V5.99975H8.99999V4.99975ZM19 18.9999C19 19.5522 18.5523 19.9999 18 19.9999H5.99999C5.4477 19.9999 4.99998 19.5522 4.99998 18.9999V13.9999H6.99999V14.9999C6.99999 15.5522 7.4477 15.9999 7.99999 15.9999C8.55227 15.9999 8.99999 15.5522 8.99999 14.9999V13.9999H15V14.9999C15 15.5522 15.4477 15.9999 16 15.9999C16.5523 15.9999 17 15.5522 17 14.9999V13.9999H19V18.9999ZM20 10.9999C20 11.5522 19.5523 11.9999 19 11.9999H17V10.9999C17 10.4476 16.5523 9.99988 16 9.99988C15.4477 9.99988 15 10.4476 15 10.9999V11.9999H8.99998V10.9999C8.99998 10.4476 8.55226 9.99988 7.99998 9.99988C7.44769 9.99988 6.99998 10.4476 6.99998 10.9999V11.9999H4.99998C4.44769 11.9999 3.99998 11.5522 3.99998 10.9999V7.99988H20V10.9999Z" fill="#171E2B"/>
</svg>
