<svg width="24" height="24" viewBox="0 0 24 24" fill="none" xmlns="http://www.w3.org/2000/svg">
<path fill-rule="evenodd" clip-rule="evenodd" d="M19 6.50012H16V5.50012C16 3.84327 14.6568 2.50012 13 2.50012H11C9.34313 2.50012 7.99998 3.84327 7.99998 5.50012V6.50012H4.99998C4.20434 6.50012 3.44127 6.81619 2.87866 7.3788C2.31606 7.94141 1.99998 8.70447 1.99998 9.50012V18.5001C1.99998 20.157 3.34313 21.5001 4.99998 21.5001H19C20.6568 21.5001 22 20.157 22 18.5001V9.50012C22 7.84327 20.6568 6.50012 19 6.50012ZM9.99998 5.5C9.99998 4.94771 10.4477 4.5 11 4.5H13C13.5523 4.5 14 4.94771 14 5.5V6.5H9.99998V5.5ZM20 18.5001C20 19.0524 19.5523 19.5001 19 19.5001H4.99998C4.44769 19.5001 3.99998 19.0524 3.99998 18.5001V13.0001C4.97542 13.387 5.97816 13.7012 6.99998 13.9401V14.5301C6.99998 15.0824 7.44769 15.5301 7.99998 15.5301C8.55226 15.5301 8.99998 15.0824 8.99998 14.5301V14.3201C9.99432 14.4555 10.9965 14.5256 12 14.5301C13.0035 14.5256 14.0056 14.4555 15 14.3201V14.5301C15 15.0824 15.4477 15.5301 16 15.5301C16.5523 15.5301 17 15.0824 17 14.5301V13.9401C18.0218 13.7012 19.0245 13.387 20 13.0001V18.5001ZM20 10.8101C19.0274 11.2206 18.0244 11.555 17 11.8101V11.5001C17 10.9478 16.5523 10.5001 16 10.5001C15.4477 10.5001 15 10.9478 15 11.5001V12.2401C13.0112 12.5402 10.9887 12.5402 8.99998 12.2401V11.5001C8.99998 10.9478 8.55226 10.5001 7.99998 10.5001C7.44769 10.5001 6.99998 10.9478 6.99998 11.5001V11.8301C5.9756 11.575 4.97258 11.2406 3.99998 10.8301V9.50012C3.99998 8.94784 4.44769 8.50012 4.99998 8.50012H19C19.5523 8.50012 20 8.94784 20 9.50012V10.8101Z" fill="#171E2B"/>
</svg>
