<svg width="24" height="24" viewBox="0 0 24 24" fill="none" xmlns="http://www.w3.org/2000/svg">
<path fill-rule="evenodd" clip-rule="evenodd" d="M14 11H13V9.99999C13 9.44771 12.5523 8.99999 12 8.99999C11.4477 8.99999 11 9.44771 11 9.99999V11H10C9.44772 11 9 11.4477 9 12C9 12.5523 9.44772 13 10 13H11V14C11 14.5523 11.4477 15 12 15C12.5523 15 13 14.5523 13 14V13H14C14.5523 13 15 12.5523 15 12C15 11.4477 14.5523 11 14 11ZM21.71 11.2901L19.36 9.00006V5.64006C19.36 5.08778 18.9123 4.64006 18.36 4.64006H15.05L12.71 2.29006C12.5222 2.10075 12.2666 1.99426 12 1.99426C11.7334 1.99426 11.4778 2.10075 11.29 2.29006L9 4.64006H5.64C5.08772 4.64006 4.64 5.08778 4.64 5.64006V9.00006L2.29 11.2901C2.10069 11.4778 1.9942 11.7334 1.9942 12.0001C1.9942 12.2667 2.10069 12.5223 2.29 12.7101L4.64 15.0501V18.3601C4.64 18.9123 5.08772 19.3601 5.64 19.3601H9L11.34 21.7101C11.5278 21.8994 11.7834 22.0059 12.05 22.0059C12.3166 22.0059 12.5722 21.8994 12.76 21.7101L15.1 19.3601H18.41C18.9623 19.3601 19.41 18.9123 19.41 18.3601V15.0501L21.76 12.7101C21.9429 12.5157 22.0405 12.2563 22.0311 11.9896C22.0217 11.7229 21.9061 11.4711 21.71 11.2901ZM17.66 13.93C17.4691 14.1171 17.3611 14.3727 17.36 14.64V17.36H14.64C14.3728 17.3611 14.1171 17.4691 13.93 17.66L12 19.59L10.07 17.66C9.88293 17.4691 9.62725 17.3611 9.36 17.36H6.64V14.64C6.63889 14.3727 6.53086 14.1171 6.34 13.93L4.41 12L6.34 10.07C6.53086 9.88292 6.63889 9.62724 6.64 9.35999V6.63999H9.36C9.62725 6.63888 9.88293 6.53085 10.07 6.33999L12 4.40999L13.93 6.33999C14.1171 6.53085 14.3728 6.63888 14.64 6.63999H17.36V9.35999C17.3611 9.62724 17.4691 9.88292 17.66 10.07L19.59 12L17.66 13.93Z" fill="#171E2B"/>
</svg>
