<svg width="24" height="24" viewBox="0 0 24 24" fill="none" xmlns="http://www.w3.org/2000/svg">
<path fill-rule="evenodd" clip-rule="evenodd" d="M5.00002 11.9999C5.00002 11.4476 4.5523 10.9999 4.00002 10.9999H3.00002C2.44773 10.9999 2.00002 11.4476 2.00002 11.9999C2.00002 12.5522 2.44773 12.9999 3.00002 12.9999H4.00002C4.5523 12.9999 5.00002 12.5522 5.00002 11.9999ZM5.64001 16.9999L4.93001 17.7099C4.54229 18.0999 4.54229 18.7299 4.93001 19.1199C5.32005 19.5076 5.94997 19.5076 6.34001 19.1199L7.05001 18.4099C7.38979 18.0131 7.36694 17.4217 6.99757 17.0523C6.6282 16.683 6.03677 16.6601 5.64001 16.9999ZM12 4.99988C12.5523 4.99988 13 4.55216 13 3.99988V2.99988C13 2.44759 12.5523 1.99988 12 1.99988C11.4477 1.99988 11 2.44759 11 2.99988V3.99988C11 4.55216 11.4477 4.99988 12 4.99988ZM17.66 7.33974C17.9223 7.33863 18.1737 7.23448 18.36 7.04974L19.07 6.33974C19.3554 6.09535 19.4797 5.71162 19.3918 5.34632C19.3039 4.98102 19.0187 4.6958 18.6534 4.60793C18.2881 4.52006 17.9044 4.64436 17.66 4.92974L17 5.63974C16.6123 6.02978 16.6123 6.6597 17 7.04974C17.1763 7.2251 17.4116 7.32849 17.66 7.33974ZM5.66 7.04988C5.84627 7.23463 6.09766 7.33878 6.36 7.33988C6.62581 7.34142 6.88129 7.23707 7.07 7.04988C7.45773 6.65984 7.45773 6.02992 7.07 5.63988L6.36 4.92988C6.10813 4.67444 5.73911 4.57277 5.39196 4.66317C5.0448 4.75358 4.77224 5.02232 4.67696 5.36817C4.58167 5.71402 4.67813 6.08444 4.93001 6.33988L5.66 7.04988ZM21 10.9999H20C19.4478 10.9999 19 11.4476 19 11.9999C19 12.5522 19.4478 12.9999 20 12.9999H21C21.5523 12.9999 22 12.5522 22 11.9999C22 11.4476 21.5523 10.9999 21 10.9999ZM18.36 16.9998C17.9697 16.7827 17.4827 16.8508 17.1668 17.1666C16.851 17.4824 16.7829 17.9695 17 18.3598L17.71 19.0698C18.1001 19.4575 18.73 19.4575 19.12 19.0698C19.5078 18.6798 19.5078 18.0498 19.12 17.6598L18.36 16.9998ZM12 6.49988C8.96245 6.49988 6.50002 8.96231 6.50002 11.9999C6.50002 15.0374 8.96245 17.4999 12 17.4999C15.0376 17.4999 17.5 15.0374 17.5 11.9999C17.4945 8.96459 15.0353 6.50538 12 6.49988ZM12 15.4998C10.5844 15.4998 9.30819 14.647 8.76645 13.3392C8.22472 12.0313 8.52416 10.5259 9.52516 9.52493C10.5262 8.52393 12.0316 8.22449 13.3394 8.76622C14.6473 9.30796 15.5 10.5842 15.5 11.9998C15.5 13.9328 13.933 15.4998 12 15.4998ZM12 18.9998C11.4477 18.9998 11 19.4475 11 19.9998V20.9998C11 21.552 11.4477 21.9998 12 21.9998C12.5523 21.9998 13 21.552 13 20.9998V19.9998C13 19.4475 12.5523 18.9998 12 18.9998Z" fill="#171E2B"/>
</svg>
