<svg width="24" height="24" viewBox="0 0 24 24" fill="none" xmlns="http://www.w3.org/2000/svg">
<path fill-rule="evenodd" clip-rule="evenodd" d="M12 8.00024C9.79083 8.00024 7.99997 9.7911 7.99997 12.0002C7.99997 14.2094 9.79083 16.0002 12 16.0002C14.2091 16.0002 16 14.2094 16 12.0002C16 10.9394 15.5785 9.92196 14.8284 9.17181C14.0783 8.42167 13.0608 8.00024 12 8.00024ZM12 14.0001C10.8954 14.0001 9.99999 13.1047 9.99999 12.0001C9.99999 10.8955 10.8954 10.0001 12 10.0001C13.1046 10.0001 14 10.8955 14 12.0001C14 13.1047 13.1046 14.0001 12 14.0001ZM21.71 11.2901L19.36 9.00006V5.64006C19.36 5.08778 18.9123 4.64006 18.36 4.64006H15.05L12.71 2.29006C12.5222 2.10075 12.2666 1.99426 12 1.99426C11.7333 1.99426 11.4777 2.10075 11.29 2.29006L8.99998 4.64006H5.63998C5.08769 4.64006 4.63998 5.08778 4.63998 5.64006V9.00006L2.28998 11.2901C2.10066 11.4778 1.99418 11.7334 1.99418 12.0001C1.99418 12.2667 2.10066 12.5223 2.28998 12.7101L4.63998 15.0501V18.3601C4.63998 18.9123 5.08769 19.3601 5.63998 19.3601H8.99998L11.34 21.7101C11.5277 21.8994 11.7833 22.0059 12.05 22.0059C12.3166 22.0059 12.5722 21.8994 12.76 21.7101L15.1 19.3601H18.41C18.9623 19.3601 19.41 18.9123 19.41 18.3601V15.0501L21.76 12.7101C21.9428 12.5157 22.0404 12.2563 22.031 11.9896C22.0216 11.7229 21.9061 11.4711 21.71 11.2901ZM17.66 13.93C17.4691 14.1171 17.3611 14.3727 17.36 14.64V17.36H14.64C14.3728 17.3611 14.1171 17.4691 13.93 17.66L12 19.59L10.07 17.66C9.88293 17.4691 9.62725 17.3611 9.36 17.36H6.64V14.64C6.63889 14.3727 6.53086 14.1171 6.34 13.93L4.41 12L6.34 10.07C6.53086 9.88292 6.63889 9.62724 6.64 9.35999V6.63999H9.36C9.62725 6.63888 9.88293 6.53085 10.07 6.33999L12 4.40999L13.93 6.33999C14.1171 6.53085 14.3728 6.63888 14.64 6.63999H17.36V9.35999C17.3611 9.62724 17.4691 9.88292 17.66 10.07L19.59 12L17.66 13.93Z" fill="#171E2B"/>
</svg>
