<svg width="24" height="24" viewBox="0 0 24 24" fill="none" xmlns="http://www.w3.org/2000/svg">
<path fill-rule="evenodd" clip-rule="evenodd" d="M3 10.9999C2.44772 10.9999 2 11.4476 2 11.9999C2 12.5522 2.44772 12.9999 3 12.9999C3.55228 12.9999 4 12.5522 4 11.9999C4 11.4476 3.55228 10.9999 3 10.9999ZM4.92998 17.6597C4.64275 17.9452 4.5561 18.3758 4.71054 18.7502C4.86497 19.1246 5.22998 19.3689 5.63498 19.3689C6.03999 19.3689 6.405 19.1246 6.55943 18.7502C6.71386 18.3758 6.62722 17.9452 6.33998 17.6597C5.94995 17.272 5.32002 17.272 4.92998 17.6597ZM6.33998 6.34004C6.62722 6.05451 6.71386 5.62393 6.55943 5.24952C6.405 4.87512 6.03999 4.63083 5.63498 4.63083C5.22998 4.63083 4.86497 4.87512 4.71054 5.24952C4.5561 5.62393 4.64275 6.05451 4.92998 6.34004C5.32002 6.72776 5.94995 6.72776 6.33998 6.34004ZM12 3.99988C12.5523 3.99988 13 3.55216 13 2.99988C13 2.44759 12.5523 1.99988 12 1.99988C11.4477 1.99988 11 2.44759 11 2.99988C11 3.55216 11.4477 3.99988 12 3.99988ZM17.66 17.6597C17.3728 17.9452 17.2861 18.3758 17.4406 18.7502C17.595 19.1246 17.96 19.3689 18.365 19.3689C18.77 19.3689 19.135 19.1246 19.2895 18.7502C19.4439 18.3758 19.3572 17.9452 19.07 17.6597C18.68 17.272 18.05 17.272 17.66 17.6597ZM21 10.9999C20.4477 10.9999 20 11.4476 20 11.9999C20 12.5522 20.4477 12.9999 21 12.9999C21.5523 12.9999 22 12.5522 22 11.9999C22 11.4476 21.5523 10.9999 21 10.9999ZM17.66 4.92997C17.3728 5.21549 17.2861 5.64608 17.4406 6.02048C17.595 6.39489 17.96 6.63917 18.365 6.63917C18.77 6.63917 19.135 6.39489 19.2895 6.02048C19.4439 5.64608 19.3572 5.21549 19.07 4.92997C18.68 4.54224 18.05 4.54224 17.66 4.92997ZM12 19.9999C11.4477 19.9999 11 20.4476 11 20.9999C11 21.5522 11.4477 21.9999 12 21.9999C12.5523 21.9999 13 21.5522 13 20.9999C13 20.4476 12.5523 19.9999 12 19.9999ZM12 6C8.68628 6 5.99998 8.68629 5.99998 12C5.99998 15.3137 8.68628 18 12 18C15.3137 18 18 15.3137 18 12C18 10.4087 17.3678 8.88258 16.2426 7.75736C15.1174 6.63214 13.5913 6 12 6ZM12 15.9999C9.79086 15.9999 8 14.209 8 11.9999C8 9.79074 9.79086 7.99988 12 7.99988C14.2091 7.99988 16 9.79074 16 11.9999C16 13.0607 15.5786 14.0782 14.8284 14.8283C14.0783 15.5784 13.0609 15.9999 12 15.9999Z" fill="#171E2B"/>
</svg>
