<svg width="24" height="24" viewBox="0 0 24 24" fill="none" xmlns="http://www.w3.org/2000/svg">
<path fill-rule="evenodd" clip-rule="evenodd" d="M11.29 17.3L9.99998 18.59V7C9.99998 6.44772 9.55226 6 8.99998 6C8.44769 6 7.99998 6.44772 7.99998 7V18.6L6.70998 17.3C6.52221 17.1107 6.26662 17.0042 5.99998 17.0042C5.73334 17.0042 5.47775 17.1107 5.28998 17.3C4.90226 17.69 4.90226 18.32 5.28998 18.71L8.28998 21.71C8.47775 21.8993 8.73334 22.0058 8.99998 22.0058C9.26662 22.0058 9.52221 21.8993 9.70998 21.71L12.71 18.71C13.0977 18.32 13.0977 17.69 12.71 17.3C12.5222 17.1107 12.2666 17.0042 12 17.0042C11.7333 17.0042 11.4777 17.1107 11.29 17.3ZM22 2.99988C22 2.44759 21.5523 1.99988 21 1.99988H2.99998C2.4477 1.99988 1.99998 2.44759 1.99998 2.99988V8.99988C1.99998 9.55216 2.4477 9.99988 2.99998 9.99988H4.99998C5.55227 9.99988 5.99998 9.55216 5.99998 8.99988C5.99998 8.44759 5.55227 7.99988 4.99998 7.99988H3.99998V3.99988H20V7.99988H13C12.4477 7.99988 12 8.44759 12 8.99988C12 9.55216 12.4477 9.99988 13 9.99988H14V14.9999C14 15.5522 14.4477 15.9999 15 15.9999H21C21.5523 15.9999 22 15.5522 22 14.9999V8.99988V2.99988ZM20 13.9998H16V9.99975H20V13.9998Z" fill="#171E2B"/>
</svg>
