<svg width="24" height="24" viewBox="0 0 24 24" fill="none" xmlns="http://www.w3.org/2000/svg">
<path fill-rule="evenodd" clip-rule="evenodd" d="M21 13.9999H19C18.4477 13.9999 18 14.4476 18 14.9999C18 15.5522 18.4477 15.9999 19 15.9999H20V19.9999H4V15.9999H11C11.5523 15.9999 12 15.5522 12 14.9999C12 14.4476 11.5523 13.9999 11 13.9999H10V8.99988C10 8.4476 9.55228 7.99988 9 7.99988H3C2.44772 7.99988 2 8.4476 2 8.99988V14.9999V20.9999C2 21.5522 2.44772 21.9999 3 21.9999H21C21.5523 21.9999 22 21.5522 22 20.9999V14.9999C22 14.4476 21.5523 13.9999 21 13.9999ZM4 9.99976H8V13.9998H4V9.99976ZM12.71 6.69983L14 5.40983V16.9998C14 17.5521 14.4477 17.9998 15 17.9998C15.5523 17.9998 16 17.5521 16 16.9998V5.40983L17.29 6.69983C17.4771 6.89068 17.7328 6.99872 18 6.99983C18.2658 7.00136 18.5213 6.89701 18.71 6.70983C19.0977 6.31979 19.0977 5.68986 18.71 5.29983L15.71 2.29983C15.5222 2.11051 15.2666 2.00403 15 2.00403C14.7334 2.00403 14.4778 2.11051 14.29 2.29983L11.29 5.29983C10.9023 5.68986 10.9023 6.31979 11.29 6.70983C11.4791 6.89782 11.7354 7.00251 12.0021 7.00064C12.2687 6.99876 12.5236 6.89047 12.71 6.69983Z" fill="#171E2B"/>
</svg>
