<svg width="24" height="24" viewBox="0 0 24 24" fill="none" xmlns="http://www.w3.org/2000/svg">
<path fill-rule="evenodd" clip-rule="evenodd" d="M12 18C11.4477 18 11 18.4477 11 19C11 19.5523 11.4477 20 12 20C12.5523 20 13 19.5523 13 19C13 18.4477 12.5523 18 12 18ZM18 1.00012H6C5.44772 1.00012 5 1.44784 5 2.00012V11.0001C5 12.657 6.34315 14.0001 8 14.0001H9V16.3701C7.58177 17.9782 7.68378 20.4186 9.23127 21.9028C10.7788 23.3869 13.2213 23.3869 14.7687 21.9028C16.3162 20.4186 16.4182 17.9782 15 16.3701V14.0001H16C17.6569 14.0001 19 12.657 19 11.0001V2.00012C19 1.44784 18.5523 1.00012 18 1.00012ZM12 21.0002C11.1765 20.994 10.441 20.4836 10.1469 19.7143C9.85294 18.945 10.0605 18.0742 10.67 17.5202C10.8795 17.3312 10.9993 17.0624 11 16.7802V14.0002H13V16.7802C13.0007 17.0624 13.1205 17.3312 13.33 17.5202C13.9395 18.0742 14.1471 18.945 13.8531 19.7143C13.5591 20.4836 12.8235 20.994 12 21.0002ZM17 11.0001C17 11.5524 16.5523 12.0001 16 12.0001H7.99999C7.44771 12.0001 6.99999 11.5524 6.99999 11.0001V10.0001H17V11.0001ZM17 8H6.99999V3H17V8Z" fill="#171E2B"/>
</svg>
