<svg width="24" height="24" viewBox="0 0 24 24" fill="none" xmlns="http://www.w3.org/2000/svg">
<path fill-rule="evenodd" clip-rule="evenodd" d="M19 13.9999H21C21.5523 13.9999 22 13.5522 22 12.9999C22 12.4476 21.5523 11.9999 21 11.9999H19V10.9999C18.9912 10.5392 18.9205 10.0818 18.79 9.63988C20.7138 8.90231 21.9882 7.06019 22 4.99988C22 4.44759 21.5523 3.99988 21 3.99988C20.4477 3.99988 20 4.44759 20 4.99988C19.9982 6.32398 19.1285 7.4903 17.86 7.86988C17.3668 7.23785 16.7289 6.73368 16 6.39988C16.0104 6.26675 16.0104 6.13301 16 5.99988C16 3.79074 14.2092 1.99988 12 1.99988C9.79088 1.99988 8.00002 3.79074 8.00002 5.99988C7.98966 6.13301 7.98966 6.26675 8.00002 6.39988C7.25663 6.72819 6.60448 7.23275 6.10002 7.86988C4.84732 7.47593 3.99644 6.31305 4.00002 4.99988C4.00002 4.64261 3.80942 4.31249 3.50002 4.13385C3.19061 3.95522 2.80942 3.95522 2.50002 4.13385C2.19061 4.31249 2.00002 4.64261 2.00002 4.99988C2.01182 7.06019 3.28621 8.90231 5.21002 9.63988C5.07949 10.0818 5.00886 10.5392 5.00002 10.9999V11.9999H3.00002C2.44773 11.9999 2.00002 12.4476 2.00002 12.9999C2.00002 13.5522 2.44773 13.9999 3.00002 13.9999H5.00002V14.9999C5.00088 15.4634 5.04778 15.9256 5.14002 16.3799C3.25048 17.1371 2.00864 18.9643 2.00002 20.9999C2.00002 21.5522 2.44773 21.9999 3.00002 21.9999C3.5523 21.9999 4.00002 21.5522 4.00002 20.9999C4.00554 19.8081 4.71599 18.7326 5.81002 18.2599C7.022 20.5551 9.40447 21.9913 12 21.9913C14.5956 21.9913 16.978 20.5551 18.19 18.2599C19.284 18.7326 19.9945 19.8081 20 20.9999C20 21.5522 20.4477 21.9999 21 21.9999C21.5523 21.9999 22 21.5522 22 20.9999C21.9914 18.9643 20.7496 17.1371 18.86 16.3799C18.9523 15.9256 18.9992 15.4634 19 14.9999V13.9999ZM11 19.8999C8.6717 19.4246 6.99955 17.3762 7.00003 14.9999V10.9999C7.00003 9.34302 8.34318 7.99988 10 7.99988H11V19.8999ZM10 5.99975C10 4.89518 10.8955 3.99975 12 3.99975C13.1046 3.99975 14 4.89518 14 5.99975H10ZM17 14.9999C17.0005 17.3762 15.3284 19.4246 13 19.8999V7.99988H14C15.6569 7.99988 17 9.34302 17 10.9999V14.9999Z" fill="#171E2B"/>
</svg>
