<svg width="24" height="24" viewBox="0 0 24 24" fill="none" xmlns="http://www.w3.org/2000/svg">
<path fill-rule="evenodd" clip-rule="evenodd" d="M14 8H15C15.5523 8 16 7.55228 16 7C16 6.44772 15.5523 6 15 6H14C13.4477 6 13 6.44772 13 7C13 7.55228 13.4477 8 14 8ZM14 11.9998H15C15.5523 11.9998 16 11.552 16 10.9998C16 10.4475 15.5523 9.99975 15 9.99975H14C13.4477 9.99975 13 10.4475 13 10.9998C13 11.552 13.4477 11.9998 14 11.9998ZM9.00002 8H10C10.5523 8 11 7.55228 11 7C11 6.44772 10.5523 6 10 6H9.00002C8.44773 6 8.00002 6.44772 8.00002 7C8.00002 7.55228 8.44773 8 9.00002 8ZM9.00002 11.9998H10C10.5523 11.9998 11 11.552 11 10.9998C11 10.4475 10.5523 9.99975 10 9.99975H9.00002C8.44773 9.99975 8.00002 10.4475 8.00002 10.9998C8.00002 11.552 8.44773 11.9998 9.00002 11.9998ZM21 19.9999H20V2.99988C20 2.44759 19.5523 1.99988 19 1.99988H5.00002C4.44773 1.99988 4.00002 2.44759 4.00002 2.99988V19.9999H3.00002C2.44773 19.9999 2.00002 20.4476 2.00002 20.9999C2.00002 21.5522 2.44773 21.9999 3.00002 21.9999H21C21.5523 21.9999 22 21.5522 22 20.9999C22 20.4476 21.5523 19.9999 21 19.9999ZM13 19.9998H11V15.9998H13V19.9998ZM18 19.9998H15V14.9998C15 14.4475 14.5523 13.9998 14 13.9998H10C9.44771 13.9998 9 14.4475 9 14.9998V19.9998H6V3.99975H18V19.9998Z" fill="#171E2B"/>
</svg>
