<svg width="24" height="24" viewBox="0 0 24 24" fill="none" xmlns="http://www.w3.org/2000/svg">
<path fill-rule="evenodd" clip-rule="evenodd" d="M12 5.00025C8.13399 5.00025 4.99998 8.13425 4.99998 12.0002C4.99998 15.8662 8.13399 19.0002 12 19.0002C15.866 19.0002 19 15.8662 19 12.0002C19 8.13425 15.866 5.00025 12 5.00025ZM12 17.0001C9.23858 17.0001 7 14.7615 7 12.0001C7 9.2387 9.23858 7.00012 12 7.00012C14.7614 7.00012 17 9.2387 17 12.0001C17 14.7615 14.7614 17.0001 12 17.0001ZM12 9C10.3432 9 9.00001 10.3431 9.00001 12C9.00001 13.6569 10.3432 15 12 15C13.6569 15 15 13.6569 15 12C15 10.3431 13.6569 9 12 9ZM12 13.0002C11.4477 13.0002 11 12.5525 11 12.0002C11 11.448 11.4477 11.0002 12 11.0002C12.5523 11.0002 13 11.448 13 12.0002C13 12.5525 12.5523 13.0002 12 13.0002ZM12 1.00012C5.92487 1.00012 1 5.92499 1 12.0001C1 18.0753 5.92487 23.0001 12 23.0001C18.0751 23.0001 23 18.0753 23 12.0001C23 9.08274 21.8411 6.28485 19.7782 4.22195C17.7153 2.15905 14.9174 1.00012 12 1.00012ZM12 21C7.02945 21 3.00002 16.9706 3.00002 12C3.00002 7.02944 7.02945 3 12 3C16.9706 3 21 7.02944 21 12C21 16.9706 16.9706 21 12 21Z" fill="#171E2B"/>
</svg>
