<svg width="24" height="24" viewBox="0 0 24 24" fill="none" xmlns="http://www.w3.org/2000/svg">
<path fill-rule="evenodd" clip-rule="evenodd" d="M18.5 1.99988H6.5C4.84315 1.99988 3.5 3.34302 3.5 4.99988V16.9999C3.50356 18.2681 4.30427 19.3971 5.5 19.8199V20.9999C5.5 21.5522 5.94772 21.9999 6.5 21.9999C7.05228 21.9999 7.5 21.5522 7.5 20.9999V19.9999H17.5V20.9999C17.5 21.5522 17.9477 21.9999 18.5 21.9999C19.0523 21.9999 19.5 21.5522 19.5 20.9999V19.8199C20.6957 19.3971 21.4964 18.2681 21.5 16.9999V4.99988C21.5 3.34302 20.1569 1.99988 18.5 1.99988ZM5.50001 7.99988H11.5V11.9999H5.50001V7.99988ZM19.5 16.9999C19.5 17.5522 19.0523 17.9999 18.5 17.9999H6.50001C5.94773 17.9999 5.50001 17.5522 5.50001 16.9999V13.9999H19.5V16.9999ZM19.5 11.9999H13.5V7.99988H19.5V11.9999ZM19.5 5.99975H5.50001V4.99975C5.50001 4.44747 5.94773 3.99975 6.50001 3.99975H18.5C19.0523 3.99975 19.5 4.44747 19.5 4.99975V5.99975ZM16.12 16.9197C16.2402 16.971 16.3693 16.9982 16.5 16.9997C17.0523 16.9997 17.5 16.552 17.5 15.9997C17.5049 15.9332 17.5049 15.8663 17.5 15.7997C17.4891 15.7371 17.4688 15.6764 17.44 15.6197C17.4181 15.556 17.3878 15.4955 17.35 15.4397C17.3131 15.3874 17.273 15.3373 17.23 15.2897L17.08 15.1697C17.0243 15.1319 16.9637 15.1016 16.9 15.0797C16.8383 15.042 16.7707 15.0149 16.7 14.9997C16.3706 14.9309 16.0286 15.0323 15.79 15.2697C15.747 15.3173 15.7069 15.3674 15.67 15.4197C15.6322 15.4755 15.6019 15.536 15.58 15.5997C15.5512 15.6564 15.5309 15.7171 15.52 15.7797C15.5151 15.8463 15.5151 15.9132 15.52 15.9797C15.5211 16.2421 15.6253 16.4935 15.81 16.6797C15.8965 16.7794 16.0018 16.861 16.12 16.9197ZM8.11999 16.9197C8.24021 16.971 8.36931 16.9982 8.49999 16.9997C9.05227 16.9997 9.49999 16.552 9.49999 15.9997C9.5049 15.9332 9.5049 15.8663 9.49999 15.7997C9.48904 15.7371 9.46882 15.6764 9.43999 15.6197C9.4181 15.556 9.38783 15.4955 9.34999 15.4397C9.31307 15.3874 9.27299 15.3373 9.22999 15.2897L9.07999 15.1697L8.89999 15.0797L8.69999 14.9997C8.37054 14.9309 8.02856 15.0323 7.78999 15.2697C7.74698 15.3173 7.70691 15.3674 7.66999 15.4197C7.63214 15.4755 7.60187 15.536 7.57999 15.5997C7.55115 15.6564 7.53093 15.7171 7.51999 15.7797C7.51508 15.8463 7.51508 15.9132 7.51999 15.9797C7.52109 16.2421 7.62524 16.4935 7.80999 16.6797C7.89647 16.7794 8.00183 16.861 8.11999 16.9197Z" fill="#171E2B"/>
</svg>
