<svg width="24" height="24" viewBox="0 0 24 24" fill="none" xmlns="http://www.w3.org/2000/svg">
<path fill-rule="evenodd" clip-rule="evenodd" d="M1 12.4999V16.4999C1 17.0522 1.44772 17.4999 2 17.4999H3C3 19.1567 4.34315 20.4999 6 20.4999C7.65685 20.4999 9 19.1567 9 17.4999H15C15 19.1567 16.3431 20.4999 18 20.4999C19.6569 20.4999 21 19.1567 21 17.4999H22C22.5523 17.4999 23 17.0522 23 16.4999V6.49988C23 4.84302 21.6569 3.49988 20 3.49988H8.44C7.15128 3.50229 6.00809 4.32748 5.6 5.54988L4.16 9.85988L1.45 11.6699C1.17061 11.8539 1.00173 12.1654 1 12.4999ZM21 9.49975H19V5.49975H20C20.5523 5.49975 21 5.94747 21 6.49975V9.49975ZM17 17.5C17 16.9477 17.4477 16.5 18 16.5C18.5523 16.5 19 16.9477 19 17.5C19 18.0523 18.5523 18.5 18 18.5C17.4477 18.5 17 18.0523 17 17.5ZM15 11.4998H21V15.4998H20.22C19.6514 14.8742 18.8453 14.5176 18 14.5176C17.1547 14.5176 16.3486 14.8742 15.78 15.4998H15V11.4998ZM15 5.49975H17V9.49975H15V5.49975ZM11 11.4998H13V15.4998H11V11.4998ZM11 5.49975H13V9.49975H11V5.49975ZM8.99999 9.49974H6.38999L7.48999 6.17974C7.62756 5.77243 8.01008 5.49864 8.43999 5.49974H8.99999V9.49974ZM5.00001 17.5C5.00001 16.9477 5.44772 16.5 6.00001 16.5C6.55229 16.5 7.00001 16.9477 7.00001 17.5C7.00001 18.0523 6.55229 18.5 6.00001 18.5C5.44772 18.5 5.00001 18.0523 5.00001 17.5ZM2.99999 12.9998L5.29999 11.4998H8.99999V15.4998H8.21999C7.65142 14.8742 6.84532 14.5176 5.99999 14.5176C5.15466 14.5176 4.34857 14.8742 3.77999 15.4998H2.99999V12.9998Z" fill="#171E2B"/>
</svg>
