<svg width="24" height="24" viewBox="0 0 24 24" fill="none" xmlns="http://www.w3.org/2000/svg">
<path fill-rule="evenodd" clip-rule="evenodd" d="M8.49999 16.9999C9.05227 16.9999 9.49999 16.5522 9.49999 15.9999C9.5049 15.9333 9.5049 15.8665 9.49999 15.7999C9.48904 15.7373 9.46882 15.6766 9.43999 15.6199C9.4181 15.5562 9.38783 15.4957 9.34999 15.4399L9.22999 15.2899C9.13488 15.1989 9.02274 15.1275 8.89999 15.0799C8.71305 14.9919 8.50345 14.964 8.29999 14.9999L8.11999 15.0599L7.93999 15.1499C7.8876 15.1868 7.83751 15.2269 7.78999 15.2699L7.66999 15.4199C7.63214 15.4757 7.60187 15.5362 7.57999 15.5999C7.55115 15.6566 7.53093 15.7173 7.51999 15.7799C7.51508 15.8465 7.51508 15.9133 7.51999 15.9799C7.51999 16.5322 7.9677 16.9799 8.51999 16.9799L8.49999 16.9999ZM16.5 16.9998C17.0523 16.9998 17.5 16.5521 17.5 15.9998C17.5049 15.9333 17.5049 15.8664 17.5 15.7998C17.4891 15.7372 17.4689 15.6765 17.44 15.6198C17.4181 15.5561 17.3879 15.4956 17.35 15.4398L17.23 15.2898C17.1328 15.2015 17.0212 15.1305 16.9 15.0798C16.6566 14.9798 16.3835 14.9798 16.14 15.0798C16.0188 15.1305 15.9072 15.2015 15.81 15.2898L15.69 15.4398C15.6522 15.4956 15.6219 15.5561 15.6 15.6198C15.5712 15.6765 15.551 15.7372 15.54 15.7998C15.5351 15.8664 15.5351 15.9333 15.54 15.9998C15.5411 16.2622 15.6453 16.5136 15.83 16.6998C16.0072 16.8812 16.2467 16.9884 16.5 16.9998ZM13.5 4.99988H11.5C10.9477 4.99988 10.5 5.44759 10.5 5.99988C10.5 6.55216 10.9477 6.99988 11.5 6.99988H13.5C14.0523 6.99988 14.5 6.55216 14.5 5.99988C14.5 5.44759 14.0523 4.99988 13.5 4.99988ZM18.5 1.99988H6.5C4.84315 1.99988 3.5 3.34302 3.5 4.99988V16.9999C3.50356 18.2681 4.30427 19.3971 5.5 19.8199V20.9999C5.5 21.5522 5.94772 21.9999 6.5 21.9999C7.05228 21.9999 7.5 21.5522 7.5 20.9999V19.9999H17.5V20.9999C17.5 21.5522 17.9477 21.9999 18.5 21.9999C19.0523 21.9999 19.5 21.5522 19.5 20.9999V19.8199C20.6957 19.3971 21.4964 18.2681 21.5 16.9999V4.99988C21.5 3.34302 20.1569 1.99988 18.5 1.99988ZM19.5 16.9999C19.5 17.5522 19.0523 17.9999 18.5 17.9999H6.50001C5.94773 17.9999 5.50001 17.5522 5.50001 16.9999V13.9999H19.5V16.9999ZM19.5 11.9998H5.50001V4.99975C5.50001 4.44747 5.94773 3.99975 6.50001 3.99975H18.5C19.0523 3.99975 19.5 4.44747 19.5 4.99975V11.9998Z" fill="#171E2B"/>
</svg>
