<svg width="24" height="24" viewBox="0 0 24 24" fill="none" xmlns="http://www.w3.org/2000/svg">
<path fill-rule="evenodd" clip-rule="evenodd" d="M12.71 17.2903C12.6608 17.245 12.6072 17.2048 12.55 17.1702C12.499 17.1307 12.4414 17.1002 12.38 17.0802C12.3205 17.0498 12.2562 17.0295 12.19 17.0203C11.9984 16.9797 11.7989 17.0007 11.62 17.0802C11.3688 17.1712 11.1709 17.369 11.08 17.6203C11.024 17.7389 10.9966 17.8691 11 18.0002C10.9984 18.1303 11.0222 18.2593 11.07 18.3803C11.128 18.4997 11.202 18.6108 11.29 18.7103C11.4787 18.8974 11.7342 19.0018 12 19.0003C12.1312 19.0036 12.2613 18.9762 12.38 18.9203C12.5012 18.8696 12.6128 18.7986 12.71 18.7103C12.8972 18.5215 13.0015 18.2661 13 18.0002C12.9984 17.8696 12.9712 17.7405 12.92 17.6203C12.8724 17.4975 12.801 17.3854 12.71 17.2903ZM8.55 13.1701C8.49895 13.1305 8.44144 13.1 8.38 13.0801C8.32176 13.0426 8.25748 13.0156 8.19 13.0001C8.06172 12.9702 7.92829 12.9702 7.8 13.0001L7.62 13.0601L7.44 13.1501L7.29 13.2701C7.10253 13.4667 6.99858 13.7284 7 14.0001C6.99847 14.2659 7.10282 14.5213 7.29 14.7101C7.3872 14.7984 7.49882 14.8694 7.62 14.9201C7.92764 15.0465 8.27799 15.0116 8.55472 14.8271C8.83145 14.6427 8.99835 14.3327 9 14.0001C8.99632 13.7353 8.89274 13.4817 8.71 13.2901L8.55 13.1701ZM8.71 17.2902C8.6149 17.1992 8.50275 17.1278 8.38 17.0802C8.19898 16.9963 7.99699 16.9684 7.8 17.0002L7.62 17.0602C7.55628 17.0821 7.49575 17.1124 7.44 17.1502C7.38762 17.1872 7.33752 17.2272 7.29 17.2702C7.19896 17.3653 7.1276 17.4775 7.08 17.6002C6.97303 17.8423 6.97303 18.1182 7.08 18.3602C7.13064 18.4814 7.20167 18.593 7.29 18.6902C7.4754 18.8848 7.7313 18.9965 8 19.0002C8.13118 19.0036 8.26132 18.9762 8.38 18.9202C8.50119 18.8696 8.6128 18.7986 8.71 18.7102C8.79833 18.613 8.86936 18.5014 8.92 18.3802C9.02698 18.1382 9.02698 17.8623 8.92 17.6202C8.87241 17.4975 8.80104 17.3853 8.71 17.2902ZM11.62 13.0802C11.4973 13.1278 11.3851 13.1992 11.29 13.2902C11.1073 13.4818 11.0037 13.7354 11 14.0002C11.0017 14.3328 11.1686 14.6428 11.4453 14.8273C11.722 15.0118 12.0724 15.0466 12.38 14.9202C12.5012 14.8696 12.6128 14.7985 12.71 14.7102C12.8972 14.5215 13.0015 14.266 13 14.0002C12.9963 13.7354 12.8927 13.4818 12.71 13.2902C12.4224 13.0065 11.9924 12.9236 11.62 13.0802ZM16.71 17.29C16.6128 17.2016 16.5012 17.1306 16.38 17.08C16.0076 16.9234 15.5776 17.0062 15.29 17.29C15.199 17.3851 15.1276 17.4972 15.08 17.62C14.973 17.862 14.973 18.1379 15.08 18.38C15.1306 18.5012 15.2017 18.6128 15.29 18.71C15.4787 18.8972 15.7342 19.0015 16 19C16.1312 19.0033 16.2613 18.9759 16.38 18.92C16.5012 18.8693 16.6128 18.7983 16.71 18.71C16.9937 18.4224 17.0766 17.9924 16.92 17.62C16.8724 17.4972 16.801 17.3851 16.71 17.29ZM16 5.00025H8C7.44772 5.00025 7 5.44796 7 6.00025V10.0002C7 10.5525 7.44772 11.0002 8 11.0002H16C16.5523 11.0002 17 10.5525 17 10.0002V6.00025C17 5.44796 16.5523 5.00025 16 5.00025ZM15 9.00012H9V7.00012H15V9.00012ZM18 1.00012H6C4.34315 1.00012 3 2.34327 3 4.00012V20.0001C3 21.657 4.34315 23.0001 6 23.0001H18C19.6569 23.0001 21 21.657 21 20.0001V4.00012C21 2.34327 19.6569 1.00012 18 1.00012ZM19 20C19 20.5523 18.5523 21 18 21H6C5.44772 21 5 20.5523 5 20V4C5 3.44771 5.44772 3 6 3H18C18.5523 3 19 3.44771 19 4V20ZM16.55 13.1699C16.4989 13.1304 16.4414 13.0999 16.38 13.0799C16.3205 13.0495 16.2562 13.0292 16.19 13.0199C16.0617 12.9901 15.9283 12.9901 15.8 13.0199L15.62 13.0799L15.44 13.1699L15.29 13.2899C15.1073 13.4816 15.0037 13.7352 15 13.9999C15.0017 14.3325 15.1686 14.6425 15.4453 14.827C15.722 15.0115 16.0724 15.0463 16.38 14.9199C16.5012 14.8693 16.6128 14.7983 16.71 14.7099C16.8972 14.5212 17.0015 14.2657 17 13.9999C16.9963 13.7352 16.8927 13.4816 16.71 13.2899L16.55 13.1699Z" fill="#171E2B"/>
</svg>
