<svg width="24" height="24" viewBox="0 0 24 24" fill="none" xmlns="http://www.w3.org/2000/svg">
<path fill-rule="evenodd" clip-rule="evenodd" d="M5.5 8H6V8.5C6 9.05228 6.44772 9.5 7 9.5C7.55228 9.5 8 9.05228 8 8.5V8H8.5C9.05228 8 9.5 7.55228 9.5 7C9.5 6.44771 9.05228 6 8.5 6H8V5.5C8 4.94771 7.55228 4.5 7 4.5C6.44772 4.5 6 4.94771 6 5.5V6H5.5C4.94772 6 4.5 6.44771 4.5 7C4.5 7.55228 4.94772 8 5.5 8ZM4.88 19.12C5.27004 19.5077 5.89996 19.5077 6.29 19.12L7 18.41L7.71 19.12C8.10004 19.5077 8.72996 19.5077 9.12 19.12C9.50773 18.73 9.50773 18.1001 9.12 17.71L8.41 17L9.12 16.29C9.45978 15.8933 9.43693 15.3018 9.06756 14.9325C8.6982 14.5631 8.10676 14.5402 7.71 14.88L7 15.59L6.29 14.88C5.89324 14.5402 5.30181 14.5631 4.93244 14.9325C4.56307 15.3018 4.54022 15.8933 4.88 16.29L5.59 17L4.88 17.71C4.49228 18.1001 4.49228 18.73 4.88 19.12ZM20 1.00012H4C2.34315 1.00012 1 2.34327 1 4.00012V20.0001C1 21.657 2.34315 23.0001 4 23.0001H20C21.6569 23.0001 23 21.657 23 20.0001V4.00012C23 2.34327 21.6569 1.00012 20 1.00012ZM11 21.0001H4C3.44772 21.0001 3 20.5524 3 20.0001V13.0001H11V21.0001ZM11 11H3V4C3 3.44771 3.44772 3 4 3H11V11ZM21 20.0001C21 20.5524 20.5523 21.0001 20 21.0001H13V13.0001H21V20.0001ZM21 11H13V3H20C20.5523 3 21 3.44771 21 4V11ZM15.5 16.5001H18.5C19.0523 16.5001 19.5 16.0524 19.5 15.5001C19.5 14.9478 19.0523 14.5001 18.5 14.5001H15.5C14.9477 14.5001 14.5 14.9478 14.5 15.5001C14.5 16.0524 14.9477 16.5001 15.5 16.5001ZM18.5 6H15.5C14.9477 6 14.5 6.44771 14.5 7C14.5 7.55228 14.9477 8 15.5 8H18.5C19.0523 8 19.5 7.55228 19.5 7C19.5 6.44771 19.0523 6 18.5 6ZM15.5 19.5001H18.5C19.0523 19.5001 19.5 19.0524 19.5 18.5001C19.5 17.9478 19.0523 17.5001 18.5 17.5001H15.5C14.9477 17.5001 14.5 17.9478 14.5 18.5001C14.5 19.0524 14.9477 19.5001 15.5 19.5001Z" fill="#171E2B"/>
</svg>
