<svg width="24" height="24" viewBox="0 0 24 24" fill="none" xmlns="http://www.w3.org/2000/svg">
<path fill-rule="evenodd" clip-rule="evenodd" d="M19 3.99988H17V2.99988C17 2.44759 16.5523 1.99988 16 1.99988C15.4477 1.99988 15 2.44759 15 2.99988V3.99988H9.00001V2.99988C9.00001 2.44759 8.5523 1.99988 8.00002 1.99988C7.44773 1.99988 7.00002 2.44759 7.00002 2.99988V3.99988H5.00002C3.34316 3.99988 2.00002 5.34302 2.00002 6.99988V18.9999C2.00002 20.6567 3.34316 21.9999 5.00002 21.9999H19C20.6569 21.9999 22 20.6567 22 18.9999V6.99988C22 5.34302 20.6569 3.99988 19 3.99988ZM20 19C20 19.5523 19.5523 20 19 20H5.00003C4.44775 20 4.00003 19.5523 4.00003 19V12H20V19ZM20 10H4.00003V7C4.00003 6.44772 4.44775 6 5.00003 6H7.00003V7C7.00003 7.55229 7.44774 8 8.00003 8C8.55231 8 9.00003 7.55229 9.00003 7V6H15V7C15 7.55229 15.4477 8 16 8C16.5523 8 17 7.55229 17 7V6H19C19.5523 6 20 6.44772 20 7V10Z" fill="#171E2B"/>
</svg>
