<svg width="24" height="24" viewBox="0 0 24 24" fill="none" xmlns="http://www.w3.org/2000/svg">
<path fill-rule="evenodd" clip-rule="evenodd" d="M11.66 7.00001H15V8.00001C15 8.55229 15.4477 9.00001 16 9.00001C16.5523 9.00001 17 8.55229 17 8.00001V7.00001H18C18.5523 7.00001 19 7.44772 19 8.00001V11H17.66C17.1077 11 16.66 11.4477 16.66 12C16.66 12.5523 17.1077 13 17.66 13H19V14.34C19 14.8923 19.4477 15.34 20 15.34C20.5523 15.34 21 14.8923 21 14.34V8.00001C21 6.34315 19.6569 5.00001 18 5.00001H17V4.00001C17 3.44772 16.5523 3.00001 16 3.00001C15.4477 3.00001 15 3.44772 15 4.00001V5.00001H11.66C11.1077 5.00001 10.66 5.44772 10.66 6.00001C10.66 6.55229 11.1077 7.00001 11.66 7.00001ZM21.71 20.2898L20.11 18.6898L3.70999 2.28984C3.45634 2.03618 3.08662 1.93712 2.74012 2.02996C2.39361 2.12281 2.12296 2.39346 2.03012 2.73996C1.93727 3.08647 2.03634 3.45618 2.28999 3.70984L4.19999 5.60984C3.44739 6.17429 3.00313 7.05909 2.99999 7.99984V17.9998C2.99999 19.6567 4.34314 20.9998 5.99999 20.9998H18C18.447 20.9972 18.8877 20.8947 19.29 20.6998L20.29 21.6998C20.4778 21.8892 20.7334 21.9956 21 21.9956C21.2666 21.9956 21.5222 21.8892 21.71 21.6998C22.0977 21.3098 22.0977 20.6799 21.71 20.2898ZM4.99999 7.99988C5.00435 7.58252 5.26747 7.21177 5.65999 7.06988L9.58999 10.9999H4.99999V7.99988ZM5.99999 18.9998C5.4477 18.9998 4.99999 18.552 4.99999 17.9998V12.9998H11.59L17.59 18.9998H5.99999Z" fill="#171E2B"/>
</svg>
