<svg width="24" height="24" viewBox="0 0 24 24" fill="none" xmlns="http://www.w3.org/2000/svg">
<path fill-rule="evenodd" clip-rule="evenodd" d="M12 19.0002C12.5523 19.0002 13 18.5525 13 18.0002C13 17.448 12.5523 17.0002 12 17.0002C11.4477 17.0002 11 17.448 11 18.0002C11 18.5525 11.4477 19.0002 12 19.0002ZM17 19.0002C17.5523 19.0002 18 18.5525 18 18.0002C18 17.448 17.5523 17.0002 17 17.0002C16.4477 17.0002 16 17.448 16 18.0002C16 18.5525 16.4477 19.0002 17 19.0002ZM17 15.0001C17.5523 15.0001 18 14.5524 18 14.0001C18 13.4478 17.5523 13.0001 17 13.0001C16.4477 13.0001 16 13.4478 16 14.0001C16 14.5524 16.4477 15.0001 17 15.0001ZM12 15.0001C12.5523 15.0001 13 14.5524 13 14.0001C13 13.4478 12.5523 13.0001 12 13.0001C11.4477 13.0001 11 13.4478 11 14.0001C11 14.5524 11.4477 15.0001 12 15.0001ZM19 3.00012H18V2.00012C18 1.44784 17.5523 1.00012 17 1.00012C16.4477 1.00012 16 1.44784 16 2.00012V3.00012H7.99998V2.00012C7.99998 1.44784 7.55227 1.00012 6.99998 1.00012C6.4477 1.00012 5.99998 1.44784 5.99998 2.00012V3.00012H4.99998C3.34313 3.00012 1.99998 4.34327 1.99998 6.00012V20.0001C1.99998 21.657 3.34313 23.0001 4.99998 23.0001H19C20.6568 23.0001 22 21.657 22 20.0001V6.00012C22 4.34327 20.6568 3.00012 19 3.00012ZM20 20.0002C20 20.5525 19.5523 21.0002 19 21.0002H4.99998C4.44769 21.0002 3.99998 20.5525 3.99998 20.0002V11.0002H20V20.0002ZM20 9.00024H3.99998V6.00024C3.99998 5.44796 4.44769 5.00025 4.99998 5.00025H5.99998V6.00024C5.99998 6.55253 6.44769 7.00024 6.99998 7.00024C7.55226 7.00024 7.99998 6.55253 7.99998 6.00024V5.00025H16V6.00024C16 6.55253 16.4477 7.00024 17 7.00024C17.5523 7.00024 18 6.55253 18 6.00024V5.00025H19C19.5523 5.00025 20 5.44796 20 6.00024V9.00024ZM6.99999 15.0001C7.55227 15.0001 7.99999 14.5524 7.99999 14.0001C7.99999 13.4478 7.55227 13.0001 6.99999 13.0001C6.44771 13.0001 5.99999 13.4478 5.99999 14.0001C5.99999 14.5524 6.44771 15.0001 6.99999 15.0001ZM6.99999 19.0002C7.55227 19.0002 7.99999 18.5525 7.99999 18.0002C7.99999 17.448 7.55227 17.0002 6.99999 17.0002C6.44771 17.0002 5.99999 17.448 5.99999 18.0002C5.99999 18.5525 6.44771 19.0002 6.99999 19.0002Z" fill="#171E2B"/>
</svg>
