<svg width="24" height="24" viewBox="0 0 24 24" fill="none" xmlns="http://www.w3.org/2000/svg">
<path fill-rule="evenodd" clip-rule="evenodd" d="M20.47 9.00014C21.0223 9.00014 21.47 8.55243 21.47 8.00014C21.47 7.44786 21.0223 7.00014 20.47 7.00014C19.9177 7.00014 19.47 7.44786 19.47 8.00014C19.47 8.55243 19.9177 9.00014 20.47 9.00014ZM17.47 9.00014C18.0223 9.00014 18.47 8.55243 18.47 8.00014C18.47 7.44786 18.0223 7.00014 17.47 7.00014C16.9177 7.00014 16.47 7.44786 16.47 8.00014C16.47 8.55243 16.9177 9.00014 17.47 9.00014ZM14.47 9.00014C15.0223 9.00014 15.47 8.55243 15.47 8.00014C15.47 7.44786 15.0223 7.00014 14.47 7.00014C13.9177 7.00014 13.47 7.44786 13.47 8.00014C13.47 8.26536 13.5754 8.51971 13.7629 8.70725C13.9504 8.89479 14.2048 9.00014 14.47 9.00014ZM18.91 13.0001C18.69 13.0001 18.46 12.9301 18.24 12.8801C17.7945 12.7819 17.3567 12.6516 16.93 12.4901C15.9693 12.1406 14.8996 12.5719 14.45 13.4901L14.23 13.9401C13.2545 13.3959 12.3565 12.7233 11.56 11.9401C10.7807 11.144 10.1084 10.2499 9.56001 9.28012L10 9.00012C10.9182 8.55054 11.3495 7.48087 11 6.52012C10.8412 6.09254 10.7109 5.65491 10.61 5.21012C10.56 4.98012 10.52 4.76012 10.49 4.53012C10.2391 3.07489 8.96655 2.01865 7.49001 2.04012H4.49001C3.63495 2.039 2.82005 2.40279 2.25001 3.04012C1.67065 3.69269 1.40416 4.56519 1.52001 5.43012C2.6035 14.0432 9.38692 20.8266 18 21.9101C18.1298 21.92 18.2602 21.92 18.39 21.9101C20.0469 21.9101 21.39 20.567 21.39 18.9101V15.9101C21.3686 14.4707 20.3278 13.2495 18.91 13.0001ZM19.4 19.0001C19.4034 19.2935 19.2777 19.5735 19.0563 19.766C18.8349 19.9585 18.5401 20.0441 18.25 20.0001C14.5162 19.5129 11.0471 17.8082 8.38003 15.1501C5.71503 12.4649 4.01327 8.97353 3.54003 5.22009C3.49604 4.92309 3.58782 4.62204 3.79003 4.40009C3.97729 4.18691 4.2463 4.06331 4.53003 4.06009H7.53003C8.00972 4.04942 8.42939 4.38096 8.53003 4.85009C8.57003 5.12343 8.62003 5.39343 8.68003 5.66009C8.79555 6.18724 8.94929 6.70527 9.14003 7.21009L7.74003 7.86009C7.49827 7.97102 7.31066 8.17369 7.2187 8.42329C7.12675 8.67288 7.13802 8.94883 7.25003 9.19009C8.68923 12.2728 11.1673 14.7509 14.25 16.1901C14.4935 16.2901 14.7666 16.2901 15.01 16.1901C15.2582 16.0977 15.4596 15.9107 15.57 15.6701L16.2 14.2701C16.717 14.455 17.2446 14.6086 17.78 14.7301C18.04 14.7901 18.32 14.8401 18.59 14.8801C19.0552 14.9848 19.3817 15.4034 19.37 15.8801L19.4 19.0001Z" fill="#171E2B"/>
</svg>
