<svg width="24" height="24" viewBox="0 0 24 24" fill="none" xmlns="http://www.w3.org/2000/svg">
<path fill-rule="evenodd" clip-rule="evenodd" d="M20 10.5C19.4477 10.5 19 10.9477 19 11.5V18.5C19 19.0523 18.5523 19.5 18 19.5H4C3.44772 19.5 3 19.0523 3 18.5V10.5C3 9.94771 3.44772 9.5 4 9.5H6C6.44815 9.52339 6.85701 9.24537 7 8.82L7.54 7.18C7.67757 6.77269 8.06008 6.49889 8.49 6.5H14C14.5523 6.5 15 6.05228 15 5.5C15 4.94771 14.5523 4.5 14 4.5H8.44C7.15128 4.50241 6.00809 5.3276 5.6 6.55L5.28 7.55H4C2.34315 7.55 1 8.89314 1 10.55V18.55C1 20.2069 2.34315 21.55 4 21.55H18C19.6569 21.55 21 20.2069 21 18.55V11.55C21.0137 11.2762 20.9144 11.0088 20.7254 10.8103C20.5363 10.6118 20.2741 10.4997 20 10.5ZM11 9.50025C8.79086 9.50025 7 11.2911 7 13.5002C7 15.7094 8.79086 17.5002 11 17.5002C13.2091 17.5002 15 15.7094 15 13.5002C15 12.4394 14.5786 11.422 13.8284 10.6718C13.0783 9.92167 12.0609 9.50025 11 9.50025ZM11 15.5001C9.89544 15.5001 9.00001 14.6047 9.00001 13.5001C9.00001 12.3956 9.89544 11.5001 11 11.5001C12.1046 11.5001 13 12.3956 13 13.5001C13 14.6047 12.1046 15.5001 11 15.5001ZM22 4.50012H21V3.50012C21 2.94784 20.5523 2.50012 20 2.50012C19.4477 2.50012 19 2.94784 19 3.50012V4.50012H18C17.4477 4.50012 17 4.94784 17 5.50012C17 6.05241 17.4477 6.50012 18 6.50012H19V7.50012C19 8.05241 19.4477 8.50012 20 8.50012C20.5523 8.50012 21 8.05241 21 7.50012V6.50012H22C22.5523 6.50012 23 6.05241 23 5.50012C23 4.94784 22.5523 4.50012 22 4.50012Z" fill="#171E2B"/>
</svg>
