<svg width="24" height="24" viewBox="0 0 24 24" fill="none" xmlns="http://www.w3.org/2000/svg">
<path fill-rule="evenodd" clip-rule="evenodd" d="M19 6.50021H17.72L17.4 5.50021C16.9748 4.29755 15.8356 3.49529 14.56 3.50021H9.44C8.15129 3.50262 7.00809 4.32781 6.6 5.55021L6.28 6.55021H5C3.34315 6.55021 2 7.89335 2 9.55021V17.5502C2 19.2071 3.34315 20.5502 5 20.5502H19C20.6569 20.5502 22 19.2071 22 17.5502V9.55021C22.0134 8.74593 21.7033 7.96996 21.1392 7.39649C20.5751 6.82302 19.8044 6.50009 19 6.50021ZM20 17.5001C20 18.0524 19.5523 18.5001 19 18.5001H5.00001C4.44773 18.5001 4.00002 18.0524 4.00002 17.5001V9.50014C4.00002 8.94786 4.44773 8.50014 5.00001 8.50014H7.00001C7.44817 8.52353 7.85702 8.24551 8.00001 7.82014L8.54001 6.18014C8.67759 5.77283 9.0601 5.49903 9.49001 5.50014H14.61C15.0399 5.49903 15.4224 5.77283 15.56 6.18014L16.1 7.82014C16.2313 8.21053 16.5886 8.48045 17 8.50014H19C19.5523 8.50014 20 8.94786 20 9.50014V17.5001ZM12 8.50015C9.79086 8.50015 8 10.291 8 12.5002C8 14.7093 9.79086 16.5002 12 16.5002C14.2091 16.5002 16 14.7093 16 12.5002C16 11.4393 15.5786 10.4219 14.8284 9.67173C14.0783 8.92158 13.0609 8.50015 12 8.50015ZM12 14.5C10.8954 14.5 10 13.6046 10 12.5C10 11.3955 10.8954 10.5 12 10.5C13.1046 10.5 14 11.3955 14 12.5C14 13.6046 13.1046 14.5 12 14.5Z" fill="#171E2B"/>
</svg>
