<svg width="24" height="24" viewBox="0 0 24 24" fill="none" xmlns="http://www.w3.org/2000/svg">
<path fill-rule="evenodd" clip-rule="evenodd" d="M3.71002 2.28984C3.45637 2.03618 3.08665 1.93712 2.74015 2.02996C2.39364 2.12281 2.12299 2.39346 2.03015 2.73996C1.9373 3.08647 2.03637 3.45618 2.29003 3.70984L5.09002 6.49984H5.00003C3.34317 6.49984 2.00003 7.84299 2.00003 9.49984V17.4998C2.00003 19.1567 3.34317 20.4998 5.00003 20.4998H19.08L20.29 21.7198C20.4778 21.9092 20.7334 22.0156 21 22.0156C21.2667 22.0156 21.5223 21.9092 21.71 21.7198C21.8993 21.5321 22.0058 21.2765 22.0058 21.0098C22.0058 20.7432 21.8993 20.4876 21.71 20.2998L3.71002 2.28984ZM10.2 11.6198L12.88 14.2998C12.6058 14.4326 12.3048 14.501 12 14.4998C10.8955 14.4998 10 13.6043 10 12.4998C9.99878 12.195 10.0672 11.894 10.2 11.6198ZM5.00004 18.4998C4.44775 18.4998 4.00004 18.052 4.00004 17.4998V9.49976C4.00004 8.94747 4.44775 8.49976 5.00004 8.49976H7.07004L8.77004 10.1898C8.27467 10.8585 8.00498 11.6675 8.00004 12.4998C8.00004 14.7089 9.7909 16.4998 12 16.4998C12.8357 16.4969 13.6485 16.2271 14.32 15.7298L17.09 18.4998H5.00004ZM19 6.50001H17.72L17.41 5.50001C16.9836 4.29387 15.8393 3.49082 14.56 3.50001H10.16C9.60775 3.50001 9.16004 3.94772 9.16004 4.50001C9.16004 5.05229 9.60775 5.50001 10.16 5.50001H14.56C14.99 5.4989 15.3725 5.77269 15.51 6.18001L16.05 7.81001C16.1841 8.22127 16.5675 8.49969 17 8.50001H19C19.5523 8.50001 20 8.94772 20 9.5V15.34C20 15.8923 20.4478 16.34 21 16.34C21.5523 16.34 22 15.8923 22 15.34V9.5C22 7.84315 20.6569 6.50001 19 6.50001Z" fill="#171E2B"/>
</svg>
