<svg width="24" height="24" viewBox="0 0 24 24" fill="none" xmlns="http://www.w3.org/2000/svg">
<path fill-rule="evenodd" clip-rule="evenodd" d="M21.77 11.3599L16.77 5.35988C16.5796 5.13134 16.2974 4.9994 16 4.99988H5C3.34315 4.99988 2 6.34303 2 7.99989V15.9999C2 17.6567 3.34315 18.9999 5 18.9999H16C16.2974 19.0004 16.5796 18.8684 16.77 18.6399L21.77 12.6399C22.0788 12.2691 22.0788 11.7307 21.77 11.3599ZM15.53 16.9998H4.99999C4.44771 16.9998 3.99999 16.5521 3.99999 15.9998V7.99976C3.99999 7.44748 4.44771 6.99976 4.99999 6.99976H15.53L19.7 11.9998L15.53 16.9998ZM12.71 9.28983C12.5222 9.10052 12.2666 8.99404 12 8.99404C11.7334 8.99404 11.4778 9.10052 11.29 9.28983L10 10.5898L8.71 9.28983C8.45634 9.03618 8.08663 8.93711 7.74012 9.02996C7.39362 9.1228 7.12297 9.39345 7.03012 9.73996C6.93728 10.0865 7.03634 10.4562 7.29 10.7098L8.59 11.9998L7.29 13.2898C7.10069 13.4776 6.9942 13.7332 6.9942 13.9998C6.9942 14.2665 7.10069 14.5221 7.29 14.7098C7.47777 14.8991 7.73336 15.0056 8 15.0056C8.26664 15.0056 8.52223 14.8991 8.71 14.7098L10 13.4098L11.29 14.7098C11.4778 14.8991 11.7334 15.0056 12 15.0056C12.2666 15.0056 12.5222 14.8991 12.71 14.7098C12.8993 14.5221 13.0058 14.2665 13.0058 13.9998C13.0058 13.7332 12.8993 13.4776 12.71 13.2898L11.41 11.9998L12.71 10.7098C12.8993 10.5221 13.0058 10.2665 13.0058 9.99983C13.0058 9.7332 12.8993 9.4776 12.71 9.28983Z" fill="#171E2B"/>
</svg>
