<svg width="24" height="24" viewBox="0 0 24 24" fill="none" xmlns="http://www.w3.org/2000/svg">
<path fill-rule="evenodd" clip-rule="evenodd" d="M19.5 4.49984C17.5006 2.50087 14.2594 2.50087 12.26 4.49984L4.5 12.2598C3.175 13.5467 2.6458 15.4474 3.11515 17.2338C3.5845 19.0202 4.97964 20.4153 6.76604 20.8847C8.55245 21.354 10.4532 20.8248 11.74 19.4998L19.5 11.7398C21.499 9.74044 21.499 6.49923 19.5 4.49984ZM10.32 18.09C9.08263 19.2596 7.14737 19.2596 5.91 18.09C4.69861 16.8696 4.69861 14.9004 5.91 13.68L9.09 10.5L13.5 14.91L10.32 18.09ZM18.09 10.3199L14.91 13.4999L10.5 9.08993L13.68 5.90993C14.9086 4.75895 16.8288 4.79026 18.0192 5.98069C19.2097 7.17112 19.241 9.09131 18.09 10.3199Z" fill="#171E2B"/>
</svg>
