<svg width="24" height="24" viewBox="0 0 24 24" fill="none" xmlns="http://www.w3.org/2000/svg">
<path fill-rule="evenodd" clip-rule="evenodd" d="M3 8.99988C3.55228 8.99988 4 8.55216 4 7.99988V4.99988C4 4.44759 4.44772 3.99988 5 3.99988H8C8.55229 3.99988 9 3.55216 9 2.99988C9 2.44759 8.55229 1.99988 8 1.99988H5C3.34315 1.99988 2 3.34302 2 4.99988V7.99988C2 8.55216 2.44772 8.99988 3 8.99988ZM8 20H5C4.44772 20 4 19.5523 4 19V16C4 15.4477 3.55228 15 3 15C2.44772 15 2 15.4477 2 16V19C2 20.6569 3.34315 22 5 22H8C8.55229 22 9 21.5523 9 21C9 20.4477 8.55229 20 8 20ZM12 7.99988C9.79086 7.99988 8 9.79074 8 11.9999C8 14.209 9.79086 15.9999 12 15.9999C14.2091 15.9999 16 14.209 16 11.9999C16 10.939 15.5786 9.9216 14.8284 9.17145C14.0783 8.42131 13.0609 7.99988 12 7.99988ZM12 13.9998C10.8954 13.9998 10 13.1043 10 11.9998C10 10.8952 10.8954 9.99975 12 9.99975C13.1046 9.99975 14 10.8952 14 11.9998C14 13.1043 13.1046 13.9998 12 13.9998ZM19 1.99988H16C15.4477 1.99988 15 2.44759 15 2.99988C15 3.55216 15.4477 3.99988 16 3.99988H19C19.5523 3.99988 20 4.44759 20 4.99988V7.99988C20 8.55216 20.4477 8.99988 21 8.99988C21.5523 8.99988 22 8.55216 22 7.99988V4.99988C22 3.34302 20.6569 1.99988 19 1.99988ZM21 15C20.4477 15 20 15.4477 20 16V19C20 19.5523 19.5523 20 19 20H16C15.4477 20 15 20.4477 15 21C15 21.5523 15.4477 22 16 22H19C20.6569 22 22 20.6569 22 19V16C22 15.4477 21.5523 15 21 15Z" fill="#171E2B"/>
</svg>
