<svg width="24" height="24" viewBox="0 0 24 24" fill="none" xmlns="http://www.w3.org/2000/svg">
<path fill-rule="evenodd" clip-rule="evenodd" d="M7.50002 4.00016C7.76583 4.0017 8.0213 3.89735 8.21002 3.71016L9.21002 2.71016C9.60214 2.31804 9.60214 1.68228 9.21002 1.29016C8.8179 0.898036 8.18214 0.898036 7.79002 1.29016L6.79002 2.29016C6.60071 2.47793 6.49422 2.73352 6.49422 3.00016C6.49422 3.2668 6.60071 3.52239 6.79002 3.71016C6.97874 3.89735 7.23422 4.0017 7.50002 4.00016ZM11.5 4.00016C11.7658 4.0017 12.0213 3.89735 12.21 3.71016L13.21 2.71016C13.6021 2.31804 13.6021 1.68228 13.21 1.29016C12.8179 0.898036 12.1821 0.898036 11.79 1.29016L10.79 2.29016C10.6007 2.47793 10.4942 2.73352 10.4942 3.00016C10.4942 3.2668 10.6007 3.52239 10.79 3.71016C10.9787 3.89735 11.2342 4.0017 11.5 4.00016ZM15.5 4.00009C15.7658 4.00162 16.0213 3.89727 16.21 3.71009L17.21 2.71009C17.4637 2.45643 17.5628 2.08671 17.4699 1.74021C17.3771 1.3937 17.1064 1.12305 16.7599 1.03021C16.4134 0.937363 16.0437 1.03643 15.79 1.29009L14.79 2.29009C14.6007 2.47785 14.4942 2.73345 14.4942 3.00009C14.4942 3.26672 14.6007 3.52232 14.79 3.71009C14.9788 3.89727 15.2342 4.00162 15.5 4.00009ZM17.92 15.6202C17.8981 15.5564 17.8679 15.4959 17.83 15.4402L17.71 15.2902L17.56 15.1702C17.5043 15.1323 17.4438 15.1021 17.38 15.0802C17.3205 15.0497 17.2563 15.0294 17.19 15.0202C16.8638 14.9548 16.5264 15.0561 16.29 15.2902C16.247 15.3377 16.207 15.3878 16.17 15.4402C16.1322 15.4959 16.1019 15.5564 16.08 15.6202C16.0512 15.6769 16.031 15.7375 16.02 15.8002C16.0151 15.8667 16.0151 15.9336 16.02 16.0002C16.0211 16.2625 16.1253 16.5139 16.31 16.7002C16.4025 16.7969 16.5152 16.872 16.64 16.9202C16.754 16.9689 16.8761 16.9961 17 17.0002C17.5523 17.0002 18 16.5525 18 16.0002C18.0049 15.9336 18.0049 15.8667 18 15.8002C17.9828 15.7364 17.9558 15.6757 17.92 15.6202ZM19.76 11.1101L18.4 7.05006C17.9748 5.8474 16.8356 5.04514 15.56 5.05006H8.44002C7.16442 5.04514 6.02521 5.8474 5.60002 7.05006L4.24002 11.1101C2.92472 11.4545 2.00552 12.6404 2.00002 14.0001V18.0001C2.00358 19.2683 2.80429 20.3973 4.00002 20.8201V22.0001C4.00002 22.5523 4.44773 23.0001 5.00002 23.0001C5.5523 23.0001 6.00002 22.5523 6.00002 22.0001V21.0001H18V22.0001C18 22.5523 18.4477 23.0001 19 23.0001C19.5523 23.0001 20 22.5523 20 22.0001V20.8201C21.1957 20.3973 21.9965 19.2683 22 18.0001V14.0001C21.9945 12.6404 21.0753 11.4545 19.76 11.1101ZM7.49 7.68024C7.62757 7.27293 8.01008 6.99913 8.44 7.00024H15.56C16.0082 6.97685 16.417 7.25487 16.56 7.68024L17.61 11.0002H6.39L7.49 7.68024ZM20 18.0001C20 18.5524 19.5523 19.0001 19 19.0001H5.00003C4.44775 19.0001 4.00003 18.5524 4.00003 18.0001V14.0001C4.00003 13.4478 4.44775 13.0001 5.00003 13.0001H19C19.5523 13.0001 20 13.4478 20 14.0001V18.0001ZM13 15H11C10.4477 15 10 15.4477 10 16C10 16.5523 10.4477 17 11 17H13C13.5523 17 14 16.5523 14 16C14 15.4477 13.5523 15 13 15ZM7.92003 15.6201C7.89814 15.5564 7.86788 15.4958 7.83003 15.4401L7.71003 15.2901C7.42247 15.0064 6.99243 14.9235 6.62003 15.0801C6.49728 15.1277 6.38513 15.1991 6.29003 15.2901C6.24703 15.3376 6.20695 15.3877 6.17003 15.4401C6.13218 15.4958 6.10192 15.5564 6.08003 15.6201C6.04424 15.6756 6.01725 15.7363 6.00003 15.8001C5.99512 15.8667 5.99512 15.9335 6.00003 16.0001C6.00173 16.4045 6.24688 16.7681 6.62118 16.9214C6.99548 17.0746 7.42522 16.9873 7.71003 16.7001C7.89477 16.5138 7.99893 16.2624 8.00003 16.0001C8.00494 15.9335 8.00494 15.8667 8.00003 15.8001C7.98281 15.7363 7.95583 15.6756 7.92003 15.6201Z" fill="#171E2B"/>
</svg>
