<svg width="24" height="24" viewBox="0 0 24 24" fill="none" xmlns="http://www.w3.org/2000/svg">
<path fill-rule="evenodd" clip-rule="evenodd" d="M19 9.49995H18.68L17.43 6.37995C16.9733 5.2451 15.8733 4.50121 14.65 4.49995H8.64998C7.21735 4.49585 5.98173 5.50529 5.69998 6.90995L5.17998 9.49995H4.99998C3.34313 9.49995 1.99998 10.8431 1.99998 12.5V15.5C1.99998 15.7652 2.10534 16.0195 2.29288 16.2071C2.48041 16.3946 2.73477 16.5 2.99998 16.5H3.99998C3.99998 18.1568 5.34313 19.5 6.99998 19.5C8.65684 19.5 9.99998 18.1568 9.99998 16.5H14C14 18.1568 15.3431 19.5 17 19.5C18.6568 19.5 20 18.1568 20 16.5H21C21.5523 16.5 22 16.0522 22 15.5V12.5C22 10.8431 20.6568 9.49995 19 9.49995ZM13 6.49987H14.65C15.0561 6.50354 15.4197 6.75252 15.57 7.12987L16.52 9.49987H13V6.49987ZM7.65998 7.29996C7.75646 6.82683 8.17722 6.49022 8.65998 6.49996H11V9.49996H7.21998L7.65998 7.29996ZM6.99999 17.4999C6.44771 17.4999 5.99999 17.0521 5.99999 16.4999C5.99999 15.9476 6.44771 15.4999 6.99999 15.4999C7.55227 15.4999 7.99999 15.9476 7.99999 16.4999C7.99999 17.0521 7.55227 17.4999 6.99999 17.4999ZM17 17.4999C16.4477 17.4999 16 17.0521 16 16.4999C16 15.9476 16.4477 15.4999 17 15.4999C17.5523 15.4999 18 15.9476 18 16.4999C18 17.0521 17.5523 17.4999 17 17.4999ZM20 14.5001H19.22C18.6514 13.8746 17.8453 13.5179 17 13.5179C16.1546 13.5179 15.3485 13.8746 14.78 14.5001H9.21998C8.6514 13.8746 7.8453 13.5179 6.99998 13.5179C6.15465 13.5179 5.34855 13.8746 4.77998 14.5001H3.99998V12.5001C3.99998 11.9478 4.44769 11.5001 4.99998 11.5001H19C19.5523 11.5001 20 11.9478 20 12.5001V14.5001Z" fill="#171E2B"/>
</svg>
