<svg width="24" height="24" viewBox="0 0 24 24" fill="none" xmlns="http://www.w3.org/2000/svg">
<path fill-rule="evenodd" clip-rule="evenodd" d="M7 12.9997C6.44771 12.9997 6 13.4474 6 13.9997C6 14.552 6.44771 14.9997 7 14.9997C7.55228 14.9997 8 14.552 8 13.9997C8 13.4474 7.55228 12.9997 7 12.9997ZM19.76 9.10998L18.41 5.04998C17.9836 3.84384 16.8393 3.04079 15.56 3.04998H9.66002C9.10773 3.04998 8.66002 3.4977 8.66002 4.04998C8.66002 4.60227 9.10773 5.04998 9.66002 5.04998H15.56C16.0109 5.02792 16.4206 5.31064 16.56 5.73998L17.61 8.99998H15.66C15.1077 8.99998 14.66 9.44769 14.66 9.99998C14.66 10.5523 15.1077 11 15.66 11H19C19.5523 11 20 11.4477 20 12V15.34C20 15.8923 20.4477 16.34 21 16.34C21.5523 16.34 22 15.8923 22 15.34V12C21.9945 10.6403 21.0753 9.45441 19.76 9.10998ZM3.76002 2.28983C3.36789 1.8839 2.72094 1.87271 2.31502 2.26483C1.90909 2.65695 1.89789 3.3039 2.29002 3.70983L5.11002 6.51983L4.24002 9.10983C2.92472 9.45426 2.00552 10.6402 2.00002 11.9998V15.9998C2.00358 17.2681 2.80429 18.3971 4.00002 18.8198V19.9998C4.00002 20.5521 4.44773 20.9998 5.00002 20.9998C5.5523 20.9998 6.00002 20.5521 6.00002 19.9998V18.9998H17.59L18 19.4098V19.9998C18 20.5521 18.4477 20.9998 19 20.9998C19.1622 20.9983 19.321 20.9534 19.46 20.8698L20.29 21.7098C20.4778 21.8991 20.7334 22.0056 21 22.0056C21.2667 22.0056 21.5222 21.8991 21.71 21.7098C21.8993 21.5221 22.0058 21.2665 22.0058 20.9998C22.0058 20.7332 21.8993 20.4776 21.71 20.2898L3.76002 2.28983ZM6.76 8.09973L7.66 8.99974H6.39L6.76 8.09973ZM5.00003 16.9999C4.44775 16.9999 4.00003 16.5521 4.00003 15.9999V11.9999C4.00003 11.4476 4.44775 10.9999 5.00003 10.9999H9.59003L11.59 12.9999H11C10.4477 12.9999 10 13.4476 10 13.9999C10 14.5521 10.4477 14.9999 11 14.9999H13C13.1622 14.9983 13.321 14.9534 13.46 14.8699L15.59 16.9999H5.00003Z" fill="#171E2B"/>
</svg>
