<svg width="24" height="24" viewBox="0 0 24 24" fill="none" xmlns="http://www.w3.org/2000/svg">
<path fill-rule="evenodd" clip-rule="evenodd" d="M6.61998 13.0802C6.36875 13.1712 6.1709 13.369 6.07998 13.6202C5.93129 13.9917 6.01833 14.416 6.30126 14.699C6.58418 14.9819 7.00851 15.0689 7.37997 14.9202C7.50116 14.8696 7.61277 14.7986 7.70997 14.7102C7.79831 14.613 7.86933 14.5014 7.91997 14.3802C7.97596 14.2616 8.00335 14.1314 7.99997 14.0002C7.99629 13.7355 7.89271 13.4819 7.70997 13.2902C7.42241 13.0065 6.99237 12.9236 6.61998 13.0802ZM19.76 9.08019L18.4 5.05019C17.9748 3.84754 16.8356 3.04528 15.56 3.05019H8.43998C7.16439 3.04528 6.02518 3.84754 5.59998 5.05019L4.23998 9.11019C2.92469 9.45463 2.00549 10.6406 1.99998 12.0002V16.0002C2.00355 17.2684 2.80426 18.3974 3.99998 18.8202V20.0002C3.99998 20.5525 4.4477 21.0002 4.99998 21.0002C5.55227 21.0002 5.99998 20.5525 5.99998 20.0002V19.0002H18V20.0002C18 20.5525 18.4477 21.0002 19 21.0002C19.5523 21.0002 20 20.5525 20 20.0002V18.8202C21.1957 18.3974 21.9964 17.2684 22 16.0002V12.0002C21.9945 10.6406 21.0753 9.45463 19.76 9.11019V9.08019ZM7.48999 5.68038C7.62756 5.27307 8.01008 4.99927 8.43999 5.00038H15.56C16.0081 4.97699 16.417 5.25501 16.56 5.68038L17.61 9.00038H6.38999L7.48999 5.68038ZM20 16.0003C20 16.5526 19.5523 17.0003 19 17.0003H4.99998C4.44769 17.0003 3.99998 16.5526 3.99998 16.0003V12.0003C3.99998 11.448 4.44769 11.0003 4.99998 11.0003H19C19.5523 11.0003 20 11.448 20 12.0003V16.0003ZM16.62 13.0802C16.3688 13.1712 16.1709 13.369 16.08 13.6202C15.9313 13.9917 16.0183 14.416 16.3013 14.699C16.5842 14.9819 17.0085 15.0689 17.38 14.9202C17.6312 14.8293 17.8291 14.6315 17.92 14.3802C17.976 14.2616 18.0034 14.1314 18 14.0002C17.9963 13.7355 17.8927 13.4819 17.71 13.2902C17.4224 13.0065 16.9924 12.9236 16.62 13.0802ZM13 13.0001H11C10.4477 13.0001 9.99998 13.4479 9.99998 14.0001C9.99998 14.5524 10.4477 15.0001 11 15.0001H13C13.5523 15.0001 14 14.5524 14 14.0001C14 13.4479 13.5523 13.0001 13 13.0001Z" fill="#171E2B"/>
</svg>
