<svg width="24" height="24" viewBox="0 0 24 24" fill="none" xmlns="http://www.w3.org/2000/svg">
<path fill-rule="evenodd" clip-rule="evenodd" d="M19 4.5H5C3.34315 4.5 2 5.84315 2 7.5V16.5C2 18.1569 3.34315 19.5 5 19.5H19C20.6569 19.5 22 18.1569 22 16.5V7.5C22 5.84315 20.6569 4.5 19 4.5ZM20 16.4999C20 17.0522 19.5523 17.4999 19 17.4999H5.00001C4.44773 17.4999 4.00002 17.0522 4.00002 16.4999V7.49988C4.00002 6.94759 4.44773 6.49988 5.00001 6.49988H19C19.5523 6.49988 20 6.94759 20 7.49988V16.4999ZM16 10.4999C15.4684 10.5036 14.9472 10.6486 14.49 10.9199C13.2302 10.1724 11.6148 10.444 10.6687 11.5624C9.72262 12.6808 9.72262 14.319 10.6687 15.4374C11.6148 16.5558 13.2302 16.8274 14.49 16.0799C15.5806 16.727 16.9602 16.6184 17.9362 15.8088C18.9122 14.9991 19.2737 13.6633 18.8392 12.4719C18.4047 11.2806 17.2681 10.4911 16 10.4999ZM13.17 14.4999C13.1134 14.5047 13.0566 14.5047 13 14.4999C12.4477 14.4999 12 14.0522 12 13.4999C12 12.9476 12.4477 12.4999 13 12.4999C13.0566 12.4951 13.1134 12.4951 13.17 12.4999C12.9437 13.1199 12.9437 13.7999 13.17 14.4199V14.4999ZM16 14.4999C15.4477 14.4999 15 14.0522 15 13.4999C15 12.9476 15.4477 12.4999 16 12.4999C16.5523 12.4999 17 12.9476 17 13.4999C17 14.0522 16.5523 14.4999 16 14.4999Z" fill="#171E2B"/>
</svg>
