<svg width="24" height="24" viewBox="0 0 24 24" fill="none" xmlns="http://www.w3.org/2000/svg">
<path fill-rule="evenodd" clip-rule="evenodd" d="M19 6.99988H16V5.99988C16 3.79074 14.2091 1.99988 12 1.99988C9.79083 1.99988 7.99997 3.79074 7.99997 5.99988V6.99988H4.99997C4.44768 6.99988 3.99997 7.44759 3.99997 7.99988V18.9999C3.99997 20.6567 5.34312 21.9999 6.99997 21.9999H17C18.6568 21.9999 20 20.6567 20 18.9999V7.99988C20 7.44759 19.5523 6.99988 19 6.99988ZM9.99997 5.99975C9.99997 4.89518 10.8954 3.99975 12 3.99975C13.1045 3.99975 14 4.89518 14 5.99975V6.99975H9.99997V5.99975ZM18 19C18 19.5523 17.5523 20 17 20H6.99998C6.4477 20 5.99998 19.5523 5.99998 19V9H7.99998V10C7.99998 10.5523 8.4477 11 8.99999 11C9.55227 11 9.99999 10.5523 9.99999 10V9H14V10C14 10.5523 14.4477 11 15 11C15.5523 11 16 10.5523 16 10V9H18V19Z" fill="#171E2B"/>
</svg>
