<svg width="24" height="24" viewBox="0 0 24 24" fill="none" xmlns="http://www.w3.org/2000/svg">
<path fill-rule="evenodd" clip-rule="evenodd" d="M21.49 4.73005L17 2.17005C16.6906 1.99141 16.3094 1.99141 16 2.17005L12 4.45005L8 2.17005C7.6906 1.99141 7.3094 1.99141 7 2.17005L2.51 4.73005C2.19551 4.90682 2.00062 5.23928 2 5.60005V10.72C2.00062 11.0808 2.19551 11.4133 2.51 11.59L6.51 13.86V18.4C6.51062 18.7608 6.70551 19.0933 7.02 19.27L11.52 21.83C11.8294 22.0087 12.2106 22.0087 12.52 21.83L17 19.27C17.3145 19.0933 17.5094 18.7608 17.51 18.4V13.86L21.51 11.59C21.8245 11.4133 22.0194 11.0808 22.02 10.72V5.60005C22.0154 5.23505 21.8122 4.90158 21.49 4.73005ZM3.99999 10.14V6.14001L7.49999 4.14001L11 6.14001V10.14L7.49999 12.14L3.99999 10.14ZM15.5 17.82L12 19.82L8.49999 17.82V13.82L12 11.82L15.5 13.82V17.82ZM20 10.14L16.5 12.14L13 10.14V6.14001L16.5 4.14001L20 6.14001V10.14Z" fill="#171E2B"/>
</svg>
