<svg width="24" height="24" viewBox="0 0 24 24" fill="none" xmlns="http://www.w3.org/2000/svg">
<path fill-rule="evenodd" clip-rule="evenodd" d="M21 19H15C13.3431 19 12 17.6569 12 16V8C12 6.34315 13.3431 5 15 5H21C21.5523 5 22 4.55228 22 4C22 3.44772 21.5523 3 21 3H15C12.2386 3 10 5.23858 10 8V16C10 18.7614 12.2386 21 15 21H21C21.5523 21 22 20.5523 22 20C22 19.4477 21.5523 19 21 19ZM5 3C3.34315 3 2 4.34315 2 6C2 7.65685 3.34315 9 5 9C6.65685 9 8 7.65685 8 6C8 5.20435 7.68393 4.44129 7.12132 3.87868C6.55871 3.31607 5.79565 3 5 3ZM5 6.99988C4.44772 6.99988 4 6.55216 4 5.99988C4 5.44759 4.44772 4.99988 5 4.99988C5.55229 4.99988 6 5.44759 6 5.99988C6 6.55216 5.55229 6.99988 5 6.99988Z" fill="#171E2B"/>
</svg>
