<svg width="90" height="90" viewBox="0 0 90 90" fill="none" xmlns="http://www.w3.org/2000/svg">
<path d="M17 77V11C17 10.4477 17.4477 10 18 10H72C72.5523 10 73 10.4477 73 11V77C73 77.5523 72.5523 78 72 78H18C17.4477 78 17 77.5523 17 77Z" fill="#F3CCD4"/>
<path fill-rule="evenodd" clip-rule="evenodd" d="M18.25 11.25V76.75H71.75V11.25H18.25ZM15.75 11C15.75 9.75736 16.7574 8.75 18 8.75H72C73.2426 8.75 74.25 9.75736 74.25 11V77C74.25 78.2426 73.2426 79.25 72 79.25H18C16.7574 79.25 15.75 78.2426 15.75 77V11Z" fill="#C1002A"/>
<path fill-rule="evenodd" clip-rule="evenodd" d="M24.75 22C24.75 21.3096 25.3096 20.75 26 20.75H59C59.6904 20.75 60.25 21.3096 60.25 22C60.25 22.6904 59.6904 23.25 59 23.25H26C25.3096 23.25 24.75 22.6904 24.75 22Z" fill="#C1002A"/>
<path fill-rule="evenodd" clip-rule="evenodd" d="M24.75 32C24.75 31.3096 25.3096 30.75 26 30.75H64C64.6904 30.75 65.25 31.3096 65.25 32C65.25 32.6904 64.6904 33.25 64 33.25H26C25.3096 33.25 24.75 32.6904 24.75 32Z" fill="#C1002A"/>
<path fill-rule="evenodd" clip-rule="evenodd" d="M24.75 42C24.75 41.3096 25.3096 40.75 26 40.75H54C54.6904 40.75 55.25 41.3096 55.25 42C55.25 42.6904 54.6904 43.25 54 43.25H26C25.3096 43.25 24.75 42.6904 24.75 42Z" fill="#C1002A"/>
<path fill-rule="evenodd" clip-rule="evenodd" d="M24.75 52C24.75 51.3096 25.3096 50.75 26 50.75H40C40.6904 50.75 41.25 51.3096 41.25 52C41.25 52.6904 40.6904 53.25 40 53.25H26C25.3096 53.25 24.75 52.6904 24.75 52Z" fill="#C1002A"/>
<path d="M50 83.4134V63C50 62.4477 50.4477 62 51 62H65C65.5523 62 66 62.4477 66 63V83.4134C66 84.3274 64.8749 84.7624 64.2601 84.0861L58.7399 78.0139C58.3432 77.5775 57.6568 77.5775 57.2601 78.0139L51.7399 84.0861C51.1251 84.7624 50 84.3274 50 83.4134Z" fill="white"/>
<path fill-rule="evenodd" clip-rule="evenodd" d="M51.25 63.25V82.7667L56.3351 77.1731C57.2278 76.1911 58.7722 76.1911 59.6649 77.1731L64.75 82.7667V63.25H51.25ZM48.75 63C48.75 61.7574 49.7574 60.75 51 60.75H65C66.2426 60.75 67.25 61.7574 67.25 63V83.4134C67.25 85.47 64.7185 86.4486 63.3351 84.9269L58 79.0583L52.6649 84.9269C51.2815 86.4486 48.75 85.47 48.75 83.4134V63Z" fill="#C1002A"/>
<path d="M70 61C70 67.6274 64.6274 73 58 73C51.3726 73 46 67.6274 46 61C46 54.3726 51.3726 49 58 49C64.6274 49 70 54.3726 70 61Z" fill="white"/>
<path fill-rule="evenodd" clip-rule="evenodd" d="M58 70.5C63.2467 70.5 67.5 66.2467 67.5 61C67.5 55.7533 63.2467 51.5 58 51.5C52.7533 51.5 48.5 55.7533 48.5 61C48.5 66.2467 52.7533 70.5 58 70.5ZM58 73C64.6274 73 70 67.6274 70 61C70 54.3726 64.6274 49 58 49C51.3726 49 46 54.3726 46 61C46 67.6274 51.3726 73 58 73Z" fill="#C1002A"/>
<rect x="18" y="73" width="31" height="4" fill="#C1002A"/>
<rect x="66" y="73" width="7" height="4" fill="#C1002A"/>
</svg>
