<svg width="90" height="90" viewBox="0 0 90 90" fill="none" xmlns="http://www.w3.org/2000/svg">
<path fill-rule="evenodd" clip-rule="evenodd" d="M13.0513 21.0567V74.9433H56.9487V21.0567H13.0513ZM11 20.8511C11 19.8288 11.8266 19 12.8462 19H57.1538C58.1735 19 59 19.8288 59 20.8511V75.1489C59 76.1712 58.1735 77 57.1538 77H12.8462C11.8266 77 11 76.1712 11 75.1489V20.8511Z" fill="#C1002A"/>
<rect x="13" y="72" width="33" height="3" fill="#C1002A"/>
<rect x="52" y="72" width="6" height="3" fill="#C1002A"/>
<path d="M44.1948 82.0541C46.3482 71.8767 49.363 43.0863 44.1948 9.34364C44.1948 9.02887 58.0381 2.41883 70.9585 9.34363C69.0102 20.9899 66.2826 51.8368 70.9585 82.0541C59.8839 88.3494 48.5016 84.6771 44.1948 82.0541Z" fill="#F3CCD4"/>
<path fill-rule="evenodd" clip-rule="evenodd" d="M43.5734 83.0744C43.1404 82.8108 42.921 82.3026 43.0259 81.8067C45.15 71.7679 48.1599 43.1225 43.0138 9.52444C43.0047 9.46458 43.0001 9.40411 43.0001 9.34354C43.0001 9.07777 43.0873 8.87959 43.1386 8.78136C43.1943 8.67482 43.2549 8.59727 43.2931 8.55218C43.3688 8.46279 43.4434 8.39976 43.4831 8.36761C43.569 8.29807 43.6594 8.23958 43.7296 8.19663C43.8788 8.10529 44.0707 8.003 44.2903 7.8957C44.7355 7.67809 45.3641 7.40585 46.1446 7.1166C47.7071 6.53757 49.9161 5.87647 52.5396 5.44942C57.7785 4.59663 64.7581 4.66478 71.523 8.29045C71.9745 8.53246 72.2215 9.0354 72.137 9.54069C70.204 21.0955 67.4875 51.8101 72.1393 81.8713C72.2152 82.3615 71.9803 82.8476 71.549 83.0927C59.9761 89.6712 48.1145 85.8402 43.5734 83.0744ZM45.4977 9.967C50.1971 41.3603 47.8791 68.3905 45.7874 80.1143C50.0876 78.6015 54.8452 78.3142 59.1445 78.5874C63.1406 78.8414 66.818 79.5847 69.4946 80.344C65.2948 51.3018 67.7329 22.083 69.64 10.0089C63.7189 7.09171 57.636 7.04089 52.9235 7.808C50.4711 8.2072 48.4118 8.82483 46.975 9.35731C46.3534 9.58763 45.8554 9.79942 45.4977 9.967ZM67.6971 82.3363C59.6042 85.7664 51.6725 84.1433 47.1044 82.1917C50.8558 80.9777 55.0492 80.7216 58.9929 80.9722C62.2653 81.1802 65.3095 81.7333 67.6971 82.3363Z" fill="#C1002A"/>
<path fill-rule="evenodd" clip-rule="evenodd" d="M48.9306 51.6559C48.2465 51.8583 47.8491 52.0351 47.7038 52.1276L46.4209 50.1115C46.8597 49.8323 47.5231 49.5803 48.2528 49.3645C49.0134 49.1395 49.9457 48.9254 50.9861 48.7538C52.6023 48.4873 54.5156 48.3176 56.4878 48.3823C56.0153 46.1499 55.5205 42.4814 55.438 38.0646C54.6229 38.1474 53.5131 38.2826 52.3202 38.4438C50.3588 38.7089 48.3194 39.0234 47.2967 39.2279L46.828 36.8847C47.9295 36.6644 50.0321 36.3417 52.0002 36.0757C53.9317 35.8147 55.8842 35.587 56.6208 35.587C57.2807 35.587 57.8156 36.122 57.8156 36.7819C57.8156 43.0799 58.7118 47.8792 59.1881 49.3079C59.3165 49.6933 59.2404 50.1176 58.9859 50.4342C58.7314 50.7509 58.3335 50.9165 57.9295 50.874C55.638 50.6328 53.2922 50.7954 51.3749 51.1116C50.4185 51.2693 49.5839 51.4627 48.9306 51.6559Z" fill="#C1002A"/>
<path d="M76.0587 54.8874L67.0585 49.6912L70.8376 43.1455L79.8378 48.3418L74.6754 49.7251L76.0587 54.8874Z" fill="#C1002A"/>
<path fill-rule="evenodd" clip-rule="evenodd" d="M66.4611 50.7258C65.8897 50.3959 65.6939 49.6652 66.0238 49.0937L69.8029 42.5481C70.1328 41.9766 70.8636 41.7808 71.435 42.1107L80.4353 47.307C80.8538 47.5486 81.0855 48.0186 81.0225 48.4977C80.9594 48.9768 80.6139 49.3708 80.1471 49.4958L76.1388 50.5699L77.2129 54.5781C77.3379 55.0449 77.1695 55.5411 76.7861 55.8353C76.4027 56.1295 75.8799 56.1637 75.4614 55.9221L66.4611 50.7258ZM68.6907 49.2538L74.1581 52.4104L73.5214 50.0342C73.3506 49.3969 73.7289 48.7417 74.3663 48.5709L76.7424 47.9342L71.275 44.7776L68.6907 49.2538Z" fill="#C1002A"/>
<path d="M79.8378 37.0941L70.8375 42.2903L67.0584 35.7447L76.0586 30.5484L74.6754 35.7108L79.8378 37.0941Z" fill="#C1002A"/>
<path fill-rule="evenodd" clip-rule="evenodd" d="M71.435 43.325C70.8635 43.655 70.1328 43.4592 69.8029 42.8877L66.0237 36.3421C65.6938 35.7706 65.8896 35.0399 66.4611 34.7099L75.4613 29.5136C75.8798 29.272 76.4027 29.3063 76.7861 29.6005C77.1695 29.8947 77.3379 30.3908 77.2128 30.8576L76.1388 34.8659L80.1471 35.9399C80.6139 36.065 80.9593 36.4589 81.0224 36.938C81.0855 37.4172 80.8537 37.8871 80.4352 38.1287L71.435 43.325ZM71.2749 40.6581L76.7424 37.5015L74.3662 36.8648C73.7288 36.6941 73.3506 36.0389 73.5214 35.4015L74.158 33.0254L68.6906 36.182L71.2749 40.6581Z" fill="#C1002A"/>
<path d="M62.3559 32.9585C67.6349 32.9585 71.9144 37.238 71.9144 42.517C71.9144 47.796 67.6349 52.0754 62.3559 52.0754C57.077 52.0754 52.7975 47.796 52.7975 42.517C52.7975 37.238 57.077 32.9585 62.3559 32.9585Z" fill="white"/>
<path fill-rule="evenodd" clip-rule="evenodd" d="M69.5248 42.517C69.5248 38.5577 66.3152 35.3481 62.3559 35.3481C58.3967 35.3481 55.1871 38.5577 55.1871 42.517C55.1871 46.4762 58.3967 49.6858 62.3559 49.6858C66.3152 49.6858 69.5248 46.4762 69.5248 42.517ZM71.9144 42.517C71.9144 37.238 67.6349 32.9585 62.3559 32.9585C57.077 32.9585 52.7975 37.238 52.7975 42.517C52.7975 47.796 57.077 52.0754 62.3559 52.0754C67.6349 52.0754 71.9144 47.796 71.9144 42.517Z" fill="#C1002A"/>
<path fill-rule="evenodd" clip-rule="evenodd" d="M32.7025 27.2972C33.0992 27.6935 33.0992 28.3361 32.7025 28.7324L25.9646 35.465C25.2506 36.1783 24.0931 36.1783 23.3792 35.465L20.2975 32.3857C19.9008 31.9894 19.9008 31.3469 20.2975 30.9506C20.6941 30.5542 21.3372 30.5542 21.7338 30.9506L24.6719 33.8863L31.2662 27.2972C31.6628 26.9009 32.3059 26.9009 32.7025 27.2972Z" fill="#C1002A"/>
<path fill-rule="evenodd" clip-rule="evenodd" d="M32.7025 39.3303C33.0992 39.7706 33.0992 40.4845 32.7025 40.9249L25.9646 48.4055C25.2506 49.1982 24.0931 49.1982 23.3792 48.4055L20.2975 44.9841C19.9008 44.5438 19.9008 43.8299 20.2975 43.3895C20.6941 42.9492 21.3372 42.9492 21.7338 43.3895L24.6719 46.6514L31.2662 39.3303C31.6628 38.8899 32.3059 38.8899 32.7025 39.3303Z" fill="#C1002A"/>
<path fill-rule="evenodd" clip-rule="evenodd" d="M32.7025 52.3303C33.0992 52.7706 33.0992 53.4845 32.7025 53.9249L25.9646 61.4055C25.2506 62.1982 24.0931 62.1982 23.3792 61.4055L20.2975 57.9841C19.9008 57.5438 19.9008 56.8299 20.2975 56.3895C20.6941 55.9492 21.3372 55.9492 21.7338 56.3895L24.6719 59.6514L31.2662 52.3303C31.6628 51.8899 32.3059 51.8899 32.7025 52.3303Z" fill="#C1002A"/>
</svg>
