<svg width="24" height="24" viewBox="0 0 24 24" fill="none" xmlns="http://www.w3.org/2000/svg">
<path fill-rule="evenodd" clip-rule="evenodd" d="M12 6C11.4477 6 11 6.44772 11 7V17C11 17.5523 11.4477 18 12 18C12.5523 18 13 17.5523 13 17V7C13 6.44772 12.5523 6 12 6ZM7 12C6.44771 12 6 12.4477 6 13V17C6 17.5523 6.44771 18 7 18C7.55228 18 8 17.5523 8 17V13C8 12.4477 7.55228 12 7 12ZM17 9.99975C16.4477 9.99975 16 10.4475 16 10.9998V16.9998C16 17.552 16.4477 17.9998 17 17.9998C17.5523 17.9998 18 17.552 18 16.9998V10.9998C18 10.4475 17.5523 9.99975 17 9.99975ZM19 1.99988H5C3.34315 1.99988 2 3.34302 2 4.99988V18.9999C2 20.6567 3.34315 21.9999 5 21.9999H19C20.6569 21.9999 22 20.6567 22 18.9999V4.99988C22 3.34302 20.6569 1.99988 19 1.99988ZM20 18.9998C20 19.552 19.5523 19.9998 19 19.9998H5C4.44772 19.9998 4 19.552 4 18.9998V4.99975C4 4.44747 4.44772 3.99975 5 3.99975H19C19.5523 3.99975 20 4.44747 20 4.99975V18.9998Z" fill="#171E2B"/>
</svg>
