<svg width="24" height="24" viewBox="0 0 24 24" fill="none" xmlns="http://www.w3.org/2000/svg">
<path fill-rule="evenodd" clip-rule="evenodd" d="M21 11C20.4477 11 20 11.4477 20 12V14.59L13.71 8.29C13.5222 8.10069 13.2666 7.9942 13 7.9942C12.7334 7.9942 12.4778 8.10069 12.29 8.29L9 11.59L3.71 6.29C3.31788 5.89788 2.68212 5.89788 2.29 6.29C1.89788 6.68212 1.89788 7.31788 2.29 7.71L8.29 13.71C8.47777 13.8993 8.73336 14.0058 9 14.0058C9.26664 14.0058 9.52224 13.8993 9.71 13.71L13 10.41L18.59 16H16C15.4477 16 15 16.4477 15 17C15 17.5523 15.4477 18 16 18H21C21.1307 17.9984 21.2598 17.9712 21.38 17.92C21.6244 17.8185 21.8185 17.6243 21.92 17.38C21.9712 17.2598 21.9984 17.1307 22 17V12C22 11.4477 21.5523 11 21 11Z" fill="#171E2B"/>
</svg>
