<svg width="24" height="24" viewBox="0 0 24 24" fill="none" xmlns="http://www.w3.org/2000/svg">
<path fill-rule="evenodd" clip-rule="evenodd" d="M12 2.00005C7.80109 1.99245 4.04467 4.60872 2.59595 8.54977C1.14722 12.4908 2.31479 16.9171 5.51889 19.6309C8.723 22.3446 13.2811 22.7677 16.93 20.69H17H17.05C21.0098 18.4359 22.9451 13.7898 21.7566 9.39108C20.5681 4.99232 16.5562 1.9532 12 2.00005ZM13 4.06988C16.6202 4.52897 19.4709 7.37969 19.93 10.9999H13V4.06988ZM12 19.9999C7.79743 19.9712 4.33356 16.6957 4.07026 12.5013C3.80696 8.30691 6.83401 4.62388 11 4.06988V11.9999C11.0039 12.1196 11.0276 12.2379 11.07 12.3499V12.4299V12.4999L15.07 19.3699C14.0997 19.7852 13.0553 19.9995 12 19.9999ZM16.83 18.3601L13.73 13.0001H19.93C19.658 15.1305 18.5409 17.062 16.83 18.3601Z" fill="#171E2B"/>
</svg>
