<svg width="24" height="24" viewBox="0 0 24 24" fill="none" xmlns="http://www.w3.org/2000/svg">
<path fill-rule="evenodd" clip-rule="evenodd" d="M19 11.9998H12V4.99975C12 4.39975 11.6 3.99975 11 3.99975C6 3.99975 2 7.99975 2 12.9998C2 17.9998 6 21.9998 11 21.9998C16 21.9998 20 17.9998 20 12.9998C20 12.3998 19.6 11.9998 19 11.9998ZM12 19.8998C8.19999 20.4998 4.59999 17.7998 4.09999 13.9998C3.49999 10.1998 6.19999 6.59976 9.99999 6.09976V12.9998C9.99999 13.5998 10.4 13.9998 11 13.9998H17.9C17.5 17.0998 15.1 19.4998 12 19.8998ZM15 1.99988C14.4 1.99988 14 2.39988 14 2.99988V8.99988C14 9.59988 14.4 9.99988 15 9.99988H21C21.6 9.99988 22 9.59988 22 8.99988C22 5.09988 18.9 1.99988 15 1.99988ZM16 7.99988V4.09988C18 4.49988 19.5 5.99988 19.9 7.99988H16Z" fill="#171E2B"/>
</svg>
