<svg width="24" height="24" viewBox="0 0 24 24" fill="none" xmlns="http://www.w3.org/2000/svg">
<path fill-rule="evenodd" clip-rule="evenodd" d="M21 19.9999H3.99998V17.9999H6.99998C7.55227 17.9999 7.99998 17.5522 7.99998 16.9999C7.99998 16.4476 7.55227 15.9999 6.99998 15.9999H3.99998V13.9999H15C15.5523 13.9999 16 13.5522 16 12.9999C16 12.4476 15.5523 11.9999 15 11.9999H3.99998V9.99988H11C11.5523 9.99988 12 9.55216 12 8.99988C12 8.44759 11.5523 7.99988 11 7.99988H3.99998V5.99988H19C19.5523 5.99988 20 5.55216 20 4.99988C20 4.44759 19.5523 3.99988 19 3.99988H3.99998V2.99988C3.99998 2.44759 3.55227 1.99988 2.99998 1.99988C2.4477 1.99988 1.99998 2.44759 1.99998 2.99988V20.9999C1.99998 21.5522 2.4477 21.9999 2.99998 21.9999H21C21.5523 21.9999 22 21.5522 22 20.9999C22 20.4476 21.5523 19.9999 21 19.9999Z" fill="#171E2B"/>
</svg>
