<svg width="24" height="24" viewBox="0 0 24 24" fill="none" xmlns="http://www.w3.org/2000/svg">
<path fill-rule="evenodd" clip-rule="evenodd" d="M6.99998 15.9999C7.82841 15.9999 8.49998 15.3283 8.49998 14.4999C8.50487 14.45 8.50487 14.3998 8.49998 14.3499L11.29 11.5599H11.52H11.75L13.36 13.1699C13.36 13.1699 13.36 13.2199 13.36 13.2499C13.36 14.0783 14.0316 14.7499 14.86 14.7499C15.6884 14.7499 16.36 14.0783 16.36 13.2499V13.1699L20 9.49988C20.8284 9.49988 21.5 8.8283 21.5 7.99988C21.5 7.17145 20.8284 6.49988 20 6.49988C19.1716 6.49988 18.5 7.17145 18.5 7.99988C18.4951 8.04976 18.4951 8.1 18.5 8.14988L14.89 11.7599H14.73L13 9.99988C13 9.17145 12.3284 8.49988 11.5 8.49988C10.6716 8.49988 9.99998 9.17145 9.99998 9.99988L6.99998 12.9999C6.17156 12.9999 5.49998 13.6714 5.49998 14.4999C5.49998 15.3283 6.17156 15.9999 6.99998 15.9999ZM20.5 19.9999H3.5V2.99988C3.5 2.44759 3.05228 1.99988 2.5 1.99988C1.94772 1.99988 1.5 2.44759 1.5 2.99988V20.9999C1.5 21.5522 1.94772 21.9999 2.5 21.9999H20.5C21.0523 21.9999 21.5 21.5522 21.5 20.9999C21.5 20.4476 21.0523 19.9999 20.5 19.9999Z" fill="#171E2B"/>
</svg>
