<svg width="24" height="24" viewBox="0 0 24 24" fill="none" xmlns="http://www.w3.org/2000/svg">
<path fill-rule="evenodd" clip-rule="evenodd" d="M21 19.9999H20V4.99988C20 4.44759 19.5523 3.99988 19 3.99988C18.4477 3.99988 18 4.44759 18 4.99988V19.9999H16V8.99988C16 8.44759 15.5523 7.99988 15 7.99988C14.4477 7.99988 14 8.44759 14 8.99988V19.9999H12V12.9999C12 12.4476 11.5523 11.9999 11 11.9999C10.4477 11.9999 10 12.4476 10 12.9999V19.9999H8.00002V16.9999C8.00002 16.4476 7.5523 15.9999 7.00002 15.9999C6.44773 15.9999 6.00002 16.4476 6.00002 16.9999V19.9999H4.00002V2.99988C4.00002 2.44759 3.5523 1.99988 3.00002 1.99988C2.44773 1.99988 2.00002 2.44759 2.00002 2.99988V20.9999C2.00002 21.5522 2.44773 21.9999 3.00002 21.9999H21C21.5523 21.9999 22 21.5522 22 20.9999C22 20.4476 21.5523 19.9999 21 19.9999Z" fill="#171E2B"/>
</svg>
