<svg width="24" height="24" viewBox="0 0 24 24" fill="none" xmlns="http://www.w3.org/2000/svg">
<path fill-rule="evenodd" clip-rule="evenodd" d="M21 19.9999H4V17.9999H7C7.55228 17.9999 8 17.5522 8 16.9999C8 16.4476 7.55228 15.9999 7 15.9999H4V13.9999H11C11.5523 13.9999 12 13.5522 12 12.9999C12 12.4476 11.5523 11.9999 11 11.9999H4V9.99988H15C15.5523 9.99988 16 9.55216 16 8.99988C16 8.44759 15.5523 7.99988 15 7.99988H4V5.99988H19C19.5523 5.99988 20 5.55216 20 4.99988C20 4.44759 19.5523 3.99988 19 3.99988H4V2.99988C4 2.44759 3.55228 1.99988 3 1.99988C2.44772 1.99988 2 2.44759 2 2.99988V20.9999C2 21.5522 2.44772 21.9999 3 21.9999H21C21.5523 21.9999 22 21.5522 22 20.9999C22 20.4476 21.5523 19.9999 21 19.9999Z" fill="#171E2B"/>
</svg>
