<svg width="24" height="24" viewBox="0 0 24 24" fill="none" xmlns="http://www.w3.org/2000/svg">
<path fill-rule="evenodd" clip-rule="evenodd" d="M14.58 11.2998C15.0345 10.7317 15.2846 10.0272 15.29 9.29975C15.29 7.48274 13.817 6.00975 12 6.00975C10.183 6.00975 8.71 7.48274 8.71 9.29975C8.71542 10.0272 8.96551 10.7317 9.42 11.2998C8.52863 11.8422 7.8293 12.6499 7.42 13.6098C7.26399 13.9414 7.30191 14.3318 7.51883 14.6272C7.73574 14.9227 8.09689 15.0758 8.46003 15.0262C8.82318 14.9767 9.13013 14.7325 9.26 14.3898C9.72969 13.2918 10.8058 12.577 12 12.5698C13.1978 12.573 14.2789 13.2885 14.75 14.3898C14.9065 14.7593 15.2687 14.9994 15.67 14.9998C15.8038 14.9973 15.936 14.9701 16.06 14.9198C16.5678 14.704 16.8049 14.1179 16.59 13.6098C16.1781 12.6485 15.4751 11.8406 14.58 11.2998ZM12 10.57C11.4773 10.57 11.0063 10.2546 10.8073 9.77133C10.6082 9.28806 10.7204 8.73244 11.0914 8.3643C11.4624 7.99616 12.0189 7.88828 12.5006 8.0911C12.9823 8.29392 13.2941 8.76736 13.29 9.29001C13.2845 9.99855 12.7086 10.57 12 10.57ZM18 1.99988H6C4.34315 1.99988 3 3.34302 3 4.99988V15.9999C3 17.6567 4.34315 18.9999 6 18.9999H8.59L11.29 21.7099C11.4787 21.8971 11.7342 22.0014 12 21.9999C12.2383 21.9999 12.4689 21.9148 12.65 21.7599L15.87 18.9999H18C19.6569 18.9999 21 17.6567 21 15.9999V4.99988C21 3.34302 19.6569 1.99988 18 1.99988ZM19 15.9998C19 16.552 18.5523 16.9998 18 16.9998H15.5C15.2616 16.9997 15.0311 17.0848 14.85 17.2398L12.05 19.6398L9.71 17.2898C9.52128 17.1026 9.2658 16.9982 9 16.9998H6C5.44771 16.9998 5 16.552 5 15.9998V4.99975C5 4.44747 5.44771 3.99975 6 3.99975H18C18.5523 3.99975 19 4.44747 19 4.99975V15.9998Z" fill="#171E2B"/>
</svg>
