<svg width="24" height="24" viewBox="0 0 24 24" fill="none" xmlns="http://www.w3.org/2000/svg">
<path fill-rule="evenodd" clip-rule="evenodd" d="M19.29 3.70998C19.4778 3.8993 19.7334 4.00578 20 4.00578C20.2666 4.00578 20.5222 3.8993 20.71 3.70998C20.7983 3.61278 20.8694 3.50117 20.92 3.37998C20.9712 3.25976 20.9984 3.13066 21 2.99998C21.0015 2.73418 20.8972 2.4787 20.71 2.28998L20.56 2.16998C20.5043 2.13214 20.4437 2.10187 20.38 2.07998C20.0076 1.92339 19.5776 2.00624 19.29 2.28998C19.1028 2.4787 18.9985 2.73418 19 2.99998C19.0016 3.13066 19.0288 3.25976 19.08 3.37998C19.1306 3.50117 19.2017 3.61278 19.29 3.70998ZM20 4.99989C19.4477 4.99989 19 5.44761 19 5.99989V9.99989C19 10.5522 19.4477 10.9999 20 10.9999C20.5523 10.9999 21 10.5522 21 9.99989V5.99989C21 5.44761 20.5523 4.99989 20 4.99989ZM20.06 13.0001C19.5137 12.9354 19.0177 13.3242 18.95 13.8701C18.5111 17.374 15.5312 20.0023 12 20.0001H6.41L7.05 19.3701C7.43772 18.9801 7.43772 18.3502 7.05 17.9601C5.04063 15.9591 4.43708 12.9434 5.52154 10.3232C6.60601 7.70293 9.1642 5.99586 12 6.00013C13.2261 5.99827 14.4307 6.3227 15.49 6.94013C15.9573 7.15132 16.5086 6.97481 16.7663 6.53149C17.0241 6.08817 16.9047 5.52174 16.49 5.22013C15.1291 4.41982 13.5788 3.99856 12 4.00013C8.54622 4.01148 5.40358 5.9983 3.91207 9.11344C2.42055 12.2286 2.84328 15.9225 5 18.6201L3.29 20.2901C3.00625 20.5777 2.9234 21.0077 3.08 21.3801C3.2334 21.7536 3.5963 21.9981 4 22.0001H12C16.5375 22.0001 20.3653 18.6223 20.93 14.1201C20.9639 13.8561 20.8912 13.5894 20.7279 13.3792C20.5646 13.169 20.3242 13.0326 20.06 13.0001Z" fill="#171E2B"/>
</svg>
