<svg width="24" height="24" viewBox="0 0 24 24" fill="none" xmlns="http://www.w3.org/2000/svg">
<path fill-rule="evenodd" clip-rule="evenodd" d="M18 1.99988H6C4.34315 1.99988 3 3.34302 3 4.99988V15.9999C3 17.6567 4.34315 18.9999 6 18.9999H8.59L11.29 21.7099C11.4787 21.8971 11.7342 22.0014 12 21.9999C12.2383 21.9999 12.4689 21.9148 12.65 21.7599L15.87 18.9999H18C19.6569 18.9999 21 17.6567 21 15.9999V4.99988C21 3.34302 19.6569 1.99988 18 1.99988ZM19 15.9998C19 16.552 18.5523 16.9998 18 16.9998H15.5C15.2617 16.9997 15.0311 17.0848 14.85 17.2398L12.05 19.6398L9.71 17.2898C9.52128 17.1026 9.26581 16.9982 9 16.9998H6C5.44772 16.9998 5 16.552 5 15.9998V4.99975C5 4.44747 5.44772 3.99975 6 3.99975H18C18.5523 3.99975 19 4.44747 19 4.99975V15.9998Z" fill="#171E2B"/>
</svg>
