<svg width="24" height="24" viewBox="0 0 24 24" fill="none" xmlns="http://www.w3.org/2000/svg">
<path fill-rule="evenodd" clip-rule="evenodd" d="M10.21 14.7499C10.3978 14.9392 10.6534 15.0457 10.92 15.0457C11.1866 15.0457 11.4422 14.9392 11.63 14.7499L15.71 10.6699C16.1021 10.2778 16.1021 9.64203 15.71 9.24991C15.3179 8.85779 14.6821 8.85779 14.29 9.24991L10.92 12.6299L9.71 11.4099C9.31788 11.0178 8.68212 11.0178 8.29 11.4099C7.89788 11.802 7.89788 12.4378 8.29 12.8299L10.21 14.7499ZM21 1.99988H3.00002C2.44773 1.99988 2.00002 2.44759 2.00002 2.99988V20.9999C2.00002 21.5522 2.44773 21.9999 3.00002 21.9999H21C21.5523 21.9999 22 21.5522 22 20.9999V2.99988C22 2.44759 21.5523 1.99988 21 1.99988ZM20 19.9998H4.00003V3.99975H20V19.9998Z" fill="#171E2B"/>
</svg>
