<svg width="24" height="24" viewBox="0 0 24 24" fill="none" xmlns="http://www.w3.org/2000/svg">
<path fill-rule="evenodd" clip-rule="evenodd" d="M18.71 7.21004C18.5222 7.02073 18.2666 6.91425 18 6.91425C17.7334 6.91425 17.4778 7.02073 17.29 7.21004L9.84 14.67L6.71 11.53C6.44741 11.2764 6.06945 11.1821 5.71848 11.2827C5.36751 11.3832 5.09686 11.6634 5.00848 12.0177C4.9201 12.3719 5.02741 12.7464 5.29 13L9.13 16.84C9.31777 17.0294 9.57337 17.1358 9.84 17.1358C10.1066 17.1358 10.3622 17.0294 10.55 16.84L18.71 8.68004C18.9152 8.49073 19.0319 8.22424 19.0319 7.94504C19.0319 7.66584 18.9152 7.39936 18.71 7.21004Z" fill="#171E2B"/>
</svg>
