<svg width="90" height="90" viewBox="0 0 90 90" fill="none" xmlns="http://www.w3.org/2000/svg">
<path d="M26.5 25.5V14.5H35.5L37.5 13L41.5 8.5L45 7.5L49.5 8.5L52.5 14L64 14.5V25.5H26.5Z" fill="#F3CCD4"/>
<path d="M71.6235 17.7693H65.0235V14.0753C65.0235 13.315 64.4047 12.6962 63.6444 12.6962H53.6211C52.6729 8.70975 49.1175 5.89307 45.0202 5.88078C40.9229 5.86846 37.352 8.66672 36.3823 12.647H26.4086C25.6483 12.647 25.0295 13.2657 25.0295 14.0261V17.7201H18.3803C18.0047 17.7201 17.6445 17.874 17.3829 18.1449C17.1212 18.4189 16.9858 18.7852 17.0012 19.1608V83.0305C16.9981 83.4 17.1428 83.7509 17.4014 84.0126C17.66 84.2742 18.0109 84.422 18.3803 84.422H71.6231C72.3835 84.422 73.0022 83.8032 73.0022 83.0429V19.1613C73.0053 18.7919 72.8606 18.441 72.602 18.1793C72.3434 17.9176 71.9925 17.7699 71.6231 17.7699L71.6235 17.7693ZM27.7633 15.4667H37.614C38.3251 15.476 38.9223 14.9403 38.9931 14.2354C39.4241 11.2001 42.0223 8.9468 45.0883 8.9468C48.1543 8.9468 50.7524 11.2002 51.1834 14.2354C51.2542 14.9403 51.8514 15.4759 52.5625 15.4667H62.4133V23.8769H27.7631L27.7633 15.4667ZM70.2444 81.651H19.7598V20.5276H24.9807V25.1944C24.993 25.9455 25.6086 26.5489 26.3598 26.5489H63.6444C64.4047 26.5489 65.0235 25.9302 65.0235 25.1698V20.5277H70.2444V81.651Z" fill="#C1002A"/>
<path d="M34.6344 35.5377L28.9949 41.2141L26.4583 38.6775C25.9104 38.2035 25.0915 38.2312 24.5775 38.7422C24.0665 39.2563 24.0388 40.0751 24.5128 40.623L28.0221 44.1447C28.567 44.668 29.4227 44.668 29.9677 44.1447L36.6169 37.4955C37.1587 36.9568 37.1618 36.0856 36.6231 35.5438C36.0844 35.002 35.2132 34.9989 34.6714 35.5376L34.6344 35.5377Z" fill="#C1002A"/>
<path d="M41.7143 38.4559C40.954 38.4559 40.3352 39.0746 40.3352 39.835C40.3352 40.5953 40.954 41.2141 41.7143 41.2141H64.5554C65.3157 41.2141 65.9345 40.5953 65.9345 39.835C65.9345 39.0746 65.3157 38.4559 64.5554 38.4559H41.7143Z" fill="#C1002A"/>
<path d="M34.6344 49.1751L28.9949 54.827L26.4583 52.2904C25.9165 51.7517 25.0453 51.7548 24.5066 52.2966C23.9679 52.8383 23.971 53.7095 24.5128 54.2483L27.9851 57.7945C28.2406 58.0562 28.5915 58.2009 28.9579 58.2009C29.3242 58.2009 29.6751 58.0562 29.9307 57.7945L36.5799 51.1453C37.1248 50.6066 37.1309 49.7323 36.5922 49.1874C36.0535 48.6426 35.1792 48.6364 34.6344 49.1751L34.6344 49.1751Z" fill="#C1002A"/>
<path d="M64.5554 52.0815H41.7143C40.954 52.0815 40.3352 52.7002 40.3352 53.4606C40.3352 54.2209 40.954 54.8397 41.7143 54.8397H64.5554C65.3157 54.8397 65.9345 54.2209 65.9345 53.4606C65.9345 52.7002 65.3157 52.0815 64.5554 52.0815Z" fill="#C1002A"/>
<path d="M34.6344 62.338L28.9949 68.0144L26.4583 65.4778C25.9104 65.0038 25.0915 65.0315 24.5775 65.5425C24.0665 66.0566 24.0388 66.8754 24.5128 67.4233L28.0221 70.9326C28.2776 71.1943 28.6286 71.339 28.9949 71.339C29.3612 71.339 29.7122 71.1943 29.9677 70.9326L36.6169 64.2834C37.091 63.7354 37.0633 62.9166 36.5523 62.4025C36.0382 61.8915 35.2194 61.8638 34.6714 62.3379L34.6344 62.338Z" fill="#C1002A"/>
<path d="M64.5554 65.2073H41.7143C40.954 65.2073 40.3352 65.8261 40.3352 66.5864C40.3352 67.3468 40.954 67.9655 41.7143 67.9655H64.5554C65.3157 67.9655 65.9345 67.3468 65.9345 66.5864C65.9345 65.8261 65.3157 65.2073 64.5554 65.2073Z" fill="#C1002A"/>
<rect x="18" y="77" width="53" height="6" fill="#C1002A"/>
</svg>
