<svg width="24" height="24" viewBox="0 0 24 24" fill="none" xmlns="http://www.w3.org/2000/svg">
<path fill-rule="evenodd" clip-rule="evenodd" d="M14.72 8.78984L10.43 13.0898L8.78 11.4398C8.53561 11.1545 8.15188 11.0302 7.78658 11.118C7.42128 11.2059 7.13606 11.4911 7.04819 11.8564C6.96032 12.2217 7.08462 12.6055 7.37 12.8498L9.72 15.2098C9.90872 15.397 10.1642 15.5014 10.43 15.4998C10.6923 15.4987 10.9437 15.3946 11.13 15.2098L16.13 10.2098C16.3193 10.0221 16.4258 9.76648 16.4258 9.49984C16.4258 9.2332 16.3193 8.97761 16.13 8.78984C15.74 8.40212 15.11 8.40212 14.72 8.78984ZM12 1.99988C6.47717 1.99988 2.00002 6.47703 2.00002 11.9999C2.00002 17.5227 6.47717 21.9999 12 21.9999C17.5229 21.9999 22 17.5227 22 11.9999C22 9.34771 20.9464 6.80417 19.0711 4.92881C17.1957 3.05345 14.6522 1.99988 12 1.99988ZM12 19.9998C7.58175 19.9998 4.00003 16.418 4.00003 11.9998C4.00003 7.58148 7.58175 3.99975 12 3.99975C16.4183 3.99975 20 7.58148 20 11.9998C20 14.1215 19.1572 16.1563 17.6569 17.6566C16.1566 19.1569 14.1218 19.9998 12 19.9998Z" fill="#171E2B"/>
</svg>
