<svg width="24" height="24" viewBox="0 0 24 24" fill="none" xmlns="http://www.w3.org/2000/svg">
<path fill-rule="evenodd" clip-rule="evenodd" d="M9.99998 12.9998C9.4477 12.9998 8.99998 13.4475 8.99998 13.9998C8.99998 14.552 9.4477 14.9998 9.99998 14.9998C10.5523 14.9998 11 14.552 11 13.9998C11 13.4475 10.5523 12.9998 9.99998 12.9998ZM9.99998 9C9.4477 9 8.99998 9.44772 8.99998 10C8.99998 10.5523 9.4477 11 9.99998 11C10.5523 11 11 10.5523 11 10C11 9.44772 10.5523 9 9.99998 9ZM14 9C13.4477 9 13 9.44772 13 10C13 10.5523 13.4477 11 14 11C14.5523 11 15 10.5523 15 10C15 9.44772 14.5523 9 14 9ZM21 12.9999C21.5523 12.9999 22 12.5522 22 11.9999C22 11.4476 21.5523 10.9999 21 10.9999H19V8.99988H21C21.5523 8.99988 22 8.55216 22 7.99988C22 7.44759 21.5523 6.99988 21 6.99988H18.82C18.5176 6.15056 17.8493 5.48226 17 5.17988V2.99988C17 2.44759 16.5523 1.99988 16 1.99988C15.4477 1.99988 15 2.44759 15 2.99988V4.99988H13V2.99988C13 2.44759 12.5523 1.99988 12 1.99988C11.4477 1.99988 11 2.44759 11 2.99988V4.99988H9V2.99988C9 2.44759 8.55228 1.99988 8 1.99988C7.44772 1.99988 7 2.44759 7 2.99988V5.17988C6.15068 5.48226 5.48238 6.15056 5.18 6.99988H3C2.44772 6.99988 2 7.44759 2 7.99988C2 8.55216 2.44772 8.99988 3 8.99988H5V10.9999H3C2.44772 10.9999 2 11.4476 2 11.9999C2 12.5522 2.44772 12.9999 3 12.9999H5V14.9999H3C2.44772 14.9999 2 15.4476 2 15.9999C2 16.5522 2.44772 16.9999 3 16.9999H5.18C5.48238 17.8492 6.15068 18.5175 7 18.8199V20.9999C7 21.5522 7.44772 21.9999 8 21.9999C8.55228 21.9999 9 21.5522 9 20.9999V18.9999H11V20.9999C11 21.5522 11.4477 21.9999 12 21.9999C12.5523 21.9999 13 21.5522 13 20.9999V18.9999H15V20.9999C15 21.5522 15.4477 21.9999 16 21.9999C16.5523 21.9999 17 21.5522 17 20.9999V18.8199C17.8493 18.5175 18.5176 17.8492 18.82 16.9999H21C21.5523 16.9999 22 16.5522 22 15.9999C22 15.4476 21.5523 14.9999 21 14.9999H19V12.9999H21ZM17 15.9998C17 16.552 16.5523 16.9998 16 16.9998H8.00002C7.44773 16.9998 7.00002 16.552 7.00002 15.9998V7.99975C7.00002 7.44747 7.44773 6.99975 8.00002 6.99975H16C16.5523 6.99975 17 7.44747 17 7.99975V15.9998ZM14 12.9998C13.4477 12.9998 13 13.4475 13 13.9998C13 14.552 13.4477 14.9998 14 14.9998C14.5523 14.9998 15 14.552 15 13.9998C15 13.4475 14.5523 12.9998 14 12.9998Z" fill="#171E2B"/>
</svg>
