<svg width="24" height="24" viewBox="0 0 24 24" fill="none" xmlns="http://www.w3.org/2000/svg">
<path fill-rule="evenodd" clip-rule="evenodd" d="M12 1.99988C6.47715 1.99988 2 6.47703 2 11.9999C2 17.5227 6.47715 21.9999 12 21.9999C17.5228 21.9999 22 17.5227 22 11.9999C22 9.34771 20.9464 6.80417 19.0711 4.92881C17.1957 3.05345 14.6522 1.99988 12 1.99988ZM12 19.9998C7.58174 19.9998 4.00002 16.418 4.00002 11.9998C4.00002 7.58148 7.58174 3.99975 12 3.99975C16.4183 3.99975 20 7.58148 20 11.9998C20 14.1215 19.1572 16.1563 17.6569 17.6566C16.1566 19.1569 14.1217 19.9998 12 19.9998Z" fill="#171E2B"/>
</svg>
