<svg width="24" height="24" viewBox="0 0 24 24" fill="none" xmlns="http://www.w3.org/2000/svg">
<path fill-rule="evenodd" clip-rule="evenodd" d="M15 2.0002C11.6222 2.00293 8.72806 4.41749 8.12004 7.7402C6.3707 8.68397 5.2023 10.4328 5.00004 12.4102C2.95315 13.3106 1.75297 15.4606 2.06088 17.6755C2.36879 19.8903 4.10991 21.6314 6.32478 21.9394C8.53964 22.2473 10.6897 21.0471 11.59 19.0002C13.5614 18.8043 15.3089 17.648 16.26 15.9102C19.893 15.3274 22.4547 12.0315 22.1228 8.36707C21.7908 4.70265 18.6786 1.92069 15 2.0002ZM10.0001 17.4302C10.0001 17.5302 10.0001 17.6302 9.93006 17.7402C9.57275 19.1639 8.23767 20.1201 6.77468 19.9999C5.3117 19.8797 4.15053 18.7185 4.03036 17.2556C3.91018 15.7926 4.8663 14.4575 6.29006 14.1002L6.57006 14.0002C7.52337 13.822 8.50321 14.1255 9.18897 14.8113C9.87474 15.497 10.1782 16.4769 10.0001 17.4302ZM15 13.76C14.9868 13.8242 14.9702 13.8876 14.95 13.95C14.9071 14.1341 14.8503 14.3146 14.78 14.49C14.3131 15.674 13.3106 16.5651 12.08 16.89C12.08 16.71 12.08 16.54 12.02 16.36C11.96 16.18 12.02 16.09 12.02 15.96C12.02 15.83 11.9 15.58 11.84 15.39C11.78 15.2 11.77 15.15 11.72 15.03C11.6338 14.8395 11.5336 14.6556 11.42 14.48C11.42 14.39 11.33 14.29 11.27 14.2C11.0922 13.9393 10.8914 13.695 10.67 13.47L10.47 13.3C10.3024 13.1459 10.1254 13.0023 9.94004 12.87C9.8311 12.7991 9.71751 12.7357 9.60004 12.68C9.43999 12.5783 9.2729 12.4881 9.10004 12.41C8.97088 12.3548 8.83701 12.3113 8.70004 12.28C8.53168 12.2117 8.35769 12.1582 8.18004 12.12C8.04004 12.12 7.89004 12.12 7.74004 12.06L7.13004 12C7.45286 10.7716 8.33989 9.76953 9.52004 9.30002C9.69156 9.22839 9.86887 9.17152 10.05 9.13002L10.25 9.08002C10.4967 9.02815 10.748 9.00134 11 9.00002C13.2092 9.00002 15 10.7909 15 13C14.9987 13.2554 14.9719 13.51 14.92 13.76H15ZM17 13.6004C17 13.4004 17 13.2004 17 13.0004C17 9.68666 14.3137 7.00036 11 7.00036C10.8 7.00036 10.6 7.00036 10.4 7.00036C11.3065 4.96144 13.4542 3.76991 15.6638 4.08004C17.8735 4.39017 19.6102 6.12689 19.9204 8.33656C20.2305 10.5462 19.039 12.6939 17 13.6004Z" fill="#171E2B"/>
</svg>
