<svg width="24" height="24" viewBox="0 0 24 24" fill="none" xmlns="http://www.w3.org/2000/svg">
<path fill-rule="evenodd" clip-rule="evenodd" d="M19 1.99988H5C3.34315 1.99988 2 3.34302 2 4.99988V18.9999C2 20.6567 3.34315 21.9999 5 21.9999H19C20.6569 21.9999 22 20.6567 22 18.9999V4.99988C22 3.34302 20.6569 1.99988 19 1.99988ZM16.09 3.99975L12.09 7.99975H7.91L11.91 3.99975H16.09ZM3.99999 4.99975C3.99999 4.44747 4.44771 3.99975 4.99999 3.99975H9.08999L5.08999 7.99975H3.99999V4.99975ZM20 18.9998C20 19.552 19.5523 19.9998 19 19.9998H4.99999C4.44771 19.9998 3.99999 19.552 3.99999 18.9998V9.99975H20V18.9998ZM20 7.99975H14.91L18.91 3.99975H19C19.5523 3.99975 20 4.44747 20 4.99975V7.99975Z" fill="#171E2B"/>
</svg>
