<svg width="24" height="24" viewBox="0 0 24 24" fill="none" xmlns="http://www.w3.org/2000/svg">
<path fill-rule="evenodd" clip-rule="evenodd" d="M17 3.99988H15.82C15.3973 2.80415 14.2683 2.00344 13 1.99988H11C9.73174 2.00344 8.60275 2.80415 8.18 3.99988H7C5.34315 3.99988 4 5.34302 4 6.99988V18.9999C4 20.6567 5.34315 21.9999 7 21.9999H17C18.6569 21.9999 20 20.6567 20 18.9999V6.99988C20 5.34302 18.6569 3.99988 17 3.99988ZM10 4.99975C10 4.44747 10.4477 3.99975 11 3.99975H13C13.5523 3.99975 14 4.44747 14 4.99975V5.99975H10V4.99975ZM18 19C18 19.5523 17.5523 20 17 20H7C6.44771 20 6 19.5523 6 19V7C6 6.44772 6.44771 6 7 6H8V7C8 7.55229 8.44771 8 9 8H15C15.5523 8 16 7.55229 16 7V6H17C17.5523 6 18 6.44772 18 7V19Z" fill="#171E2B"/>
</svg>
