<svg width="24" height="24" viewBox="0 0 24 24" fill="none" xmlns="http://www.w3.org/2000/svg">
<path fill-rule="evenodd" clip-rule="evenodd" d="M17 3.99988H16C16 2.89531 15.1046 1.99988 14 1.99988H10C8.89543 1.99988 8 2.89531 8 3.99988H7C5.34315 3.99988 4 5.34302 4 6.99988V18.9999C4 20.6567 5.34315 21.9999 7 21.9999H17C18.6569 21.9999 20 20.6567 20 18.9999V6.99988C20 5.34302 18.6569 3.99988 17 3.99988ZM10 3.99975H14V4.99975V5.99975H10V3.99975ZM18 19C18 19.5523 17.5523 20 17 20H6.99999C6.44771 20 5.99999 19.5523 5.99999 19V7C5.99999 6.44772 6.44771 6 6.99999 6H7.99999C7.99999 7.10457 8.89542 8 9.99999 8H14C15.1046 8 16 7.10457 16 6H17C17.5523 6 18 6.44772 18 7V19Z" fill="#171E2B"/>
</svg>
