<svg width="24" height="24" viewBox="0 0 24 24" fill="none" xmlns="http://www.w3.org/2000/svg">
<path fill-rule="evenodd" clip-rule="evenodd" d="M11.92 1.99988C6.39715 1.99988 1.92 6.47703 1.92 11.9999C1.92 17.5227 6.39715 21.9999 11.92 21.9999C17.4428 21.9999 21.92 17.5227 21.92 11.9999C21.92 9.34771 20.8664 6.80417 18.9911 4.92881C17.1157 3.05345 14.5722 1.99988 11.92 1.99988ZM11.92 19.9998C7.50173 19.9998 3.92001 16.418 3.92001 11.9998C3.92001 7.58148 7.50173 3.99975 11.92 3.99975C16.3383 3.99975 19.92 7.58148 19.92 11.9998C19.92 14.1215 19.0772 16.1563 17.5769 17.6566C16.0766 19.1569 14.0417 19.9998 11.92 19.9998ZM15.02 12.63L12.92 11.42V7C12.92 6.44772 12.4723 6 11.92 6C11.3677 6 10.92 6.44772 10.92 7V12C10.92 12 10.92 12.08 10.92 12.12C10.9259 12.1889 10.9428 12.2564 10.97 12.32C10.9906 12.3793 11.0174 12.4363 11.05 12.49C11.0774 12.5468 11.1109 12.6005 11.15 12.65L11.31 12.78L11.4 12.87L14 14.37C14.1524 14.4564 14.3248 14.5012 14.5 14.5C14.9554 14.5032 15.3554 14.1983 15.4731 13.7583C15.5907 13.3184 15.3962 12.8545 15 12.63H15.02Z" fill="#171E2B"/>
</svg>
