<svg width="24" height="24" viewBox="0 0 24 24" fill="none" xmlns="http://www.w3.org/2000/svg">
<path fill-rule="evenodd" clip-rule="evenodd" d="M11.92 1.99988C6.39717 1.99988 1.92001 6.47703 1.92001 11.9999C1.92001 17.5227 6.39717 21.9999 11.92 21.9999C17.4429 21.9999 21.92 17.5227 21.92 11.9999C21.92 9.34771 20.8664 6.80417 18.9911 4.92881C17.1157 3.05345 14.5722 1.99988 11.92 1.99988ZM11.92 19.9998C7.50173 19.9998 3.92001 16.418 3.92001 11.9998C3.92001 7.58148 7.50173 3.99975 11.92 3.99975C16.3383 3.99975 19.92 7.58148 19.92 11.9998C19.92 14.1215 19.0772 16.1563 17.5769 17.6566C16.0766 19.1569 14.0417 19.9998 11.92 19.9998ZM11.92 6C11.3677 6 10.92 6.44772 10.92 7V10.27L9.82001 9.63C9.33953 9.35386 8.72616 9.51951 8.45001 10C8.17387 10.4805 8.33953 11.0939 8.82001 11.37L11.42 12.87H11.49H11.58C11.6844 12.9338 11.7997 12.9778 11.92 13C12.0366 12.9967 12.1516 12.973 12.26 12.93H12.34C12.4443 12.8845 12.5392 12.8201 12.62 12.74C12.6748 12.6806 12.725 12.6171 12.77 12.55C12.77 12.55 12.77 12.55 12.77 12.49C12.7945 12.4316 12.8145 12.3714 12.83 12.31C12.8347 12.2434 12.8347 12.1766 12.83 12.11C12.83 12.11 12.83 12.11 12.83 12.05V7C12.8321 6.48104 12.4369 6.0467 11.92 6Z" fill="#171E2B"/>
</svg>
