<svg width="24" height="24" viewBox="0 0 24 24" fill="none" xmlns="http://www.w3.org/2000/svg">
<path fill-rule="evenodd" clip-rule="evenodd" d="M11.92 1.99988C6.39717 1.99988 1.92001 6.47703 1.92001 11.9999C1.92001 17.5227 6.39717 21.9999 11.92 21.9999C17.4429 21.9999 21.92 17.5227 21.92 11.9999C21.92 9.34771 20.8664 6.80417 18.9911 4.92881C17.1157 3.05345 14.5722 1.99988 11.92 1.99988ZM11.92 19.9998C7.50175 19.9998 3.92003 16.418 3.92003 11.9998C3.92003 7.58148 7.50175 3.99975 11.92 3.99975C16.3383 3.99975 19.92 7.58148 19.92 11.9998C19.92 14.1215 19.0772 16.1563 17.5769 17.6566C16.0766 19.1569 14.0418 19.9998 11.92 19.9998ZM11.92 6C11.3677 6 10.92 6.44772 10.92 7V11.93L9.55 14.3C9.27386 14.7805 9.43952 15.3939 9.92 15.67C10.4005 15.9461 11.0139 15.7805 11.29 15.3L12.79 12.7C12.8862 12.5192 12.9246 12.3133 12.9 12.11L12.92 12V7C12.92 6.44772 12.4723 6 11.92 6Z" fill="#171E2B"/>
</svg>
