<svg width="24" height="24" viewBox="0 0 24 24" fill="none" xmlns="http://www.w3.org/2000/svg">
<path fill-rule="evenodd" clip-rule="evenodd" d="M11.92 1.99988C6.39715 1.99988 1.92 6.47703 1.92 11.9999C1.92 17.5227 6.39715 21.9999 11.92 21.9999C17.4428 21.9999 21.92 17.5227 21.92 11.9999C21.92 9.34771 20.8664 6.80417 18.9911 4.92881C17.1157 3.05345 14.5722 1.99988 11.92 1.99988ZM11.92 19.9998C7.50174 19.9998 3.92002 16.418 3.92002 11.9998C3.92002 7.58148 7.50174 3.99975 11.92 3.99975C16.3383 3.99975 19.92 7.58148 19.92 11.9998C19.92 14.1215 19.0772 16.1563 17.5769 17.6566C16.0766 19.1569 14.0417 19.9998 11.92 19.9998ZM11.92 6C11.3677 6 10.92 6.44772 10.92 7V11.42L8.82 12.63C8.42379 12.8545 8.22931 13.3184 8.34695 13.7583C8.46458 14.1983 8.86461 14.5032 9.32 14.5C9.49518 14.5012 9.6676 14.4564 9.82 14.37L12.42 12.87L12.51 12.78L12.67 12.65C12.7091 12.6005 12.7426 12.5468 12.77 12.49C12.8026 12.4363 12.8294 12.3793 12.85 12.32C12.8772 12.2564 12.8941 12.1889 12.9 12.12L12.92 12V7C12.92 6.44772 12.4723 6 11.92 6Z" fill="#171E2B"/>
</svg>
