<svg width="24" height="24" viewBox="0 0 24 24" fill="none" xmlns="http://www.w3.org/2000/svg">
<path fill-rule="evenodd" clip-rule="evenodd" d="M12 1.99988C6.47715 1.99988 2 6.47703 2 11.9999C2 17.5227 6.47715 21.9999 12 21.9999C17.5228 21.9999 22 17.5227 22 11.9999C22 9.34771 20.9464 6.80417 19.0711 4.92881C17.1957 3.05345 14.6522 1.99988 12 1.99988ZM12 19.9998C7.58172 19.9998 4 16.418 4 11.9998C4 7.58148 7.58172 3.99975 12 3.99975C16.4183 3.99975 20 7.58148 20 11.9998C20 14.1215 19.1571 16.1563 17.6569 17.6566C16.1566 19.1569 14.1217 19.9998 12 19.9998ZM14.1 9.63L13 10.27V7C13 6.44772 12.5523 6 12 6C11.4477 6 11 6.44772 11 7V12C11 12 11 12 11 12.06C10.9953 12.1266 10.9953 12.1934 11 12.26C11.0155 12.3214 11.0355 12.3816 11.06 12.44C11.06 12.44 11.06 12.44 11.06 12.5C11.1078 12.5709 11.1613 12.6378 11.22 12.7C11.3008 12.7801 11.3957 12.8445 11.5 12.89H11.58C11.7103 12.957 11.8536 12.9945 12 13C12.1165 12.9967 12.2316 12.973 12.34 12.93H12.43H12.5L15.1 11.43C15.5805 11.1539 15.7461 10.5405 15.47 10.06C15.1939 9.57951 14.5805 9.41386 14.1 9.69V9.63Z" fill="#171E2B"/>
</svg>
