<svg width="24" height="24" viewBox="0 0 24 24" fill="none" xmlns="http://www.w3.org/2000/svg">
<path fill-rule="evenodd" clip-rule="evenodd" d="M11.92 1.99988C6.39714 1.99988 1.91998 6.47703 1.91998 11.9999C1.91998 17.5227 6.39714 21.9999 11.92 21.9999C17.4428 21.9999 21.92 17.5227 21.92 11.9999C21.92 9.34771 20.8664 6.80417 18.9911 4.92881C17.1157 3.05345 14.5721 1.99988 11.92 1.99988ZM11.92 19.9998C7.50172 19.9998 3.92 16.418 3.92 11.9998C3.92 7.58148 7.50172 3.99975 11.92 3.99975C16.3383 3.99975 19.92 7.58148 19.92 11.9998C19.92 14.1215 19.0771 16.1563 17.5769 17.6566C16.0766 19.1569 14.0417 19.9998 11.92 19.9998ZM11.92 6C11.3677 6 10.92 6.44772 10.92 7V11H8.91998C8.3677 11 7.91998 11.4477 7.91998 12C7.91998 12.5523 8.3677 13 8.91998 13H11.92C12.4723 13 12.92 12.5523 12.92 12V7C12.92 6.44772 12.4723 6 11.92 6Z" fill="#171E2B"/>
</svg>
