<svg width="24" height="24" viewBox="0 0 24 24" fill="none" xmlns="http://www.w3.org/2000/svg">
<path fill-rule="evenodd" clip-rule="evenodd" d="M11.24 13.1399C11.0107 13.0055 10.7373 12.9679 10.4803 13.0355C10.2232 13.103 10.0036 13.2701 9.86999 13.4999C9.71188 13.7691 9.43708 13.9491 9.12707 13.9864C8.81706 14.0236 8.50743 13.914 8.28999 13.6899C8.10095 13.5106 7.99576 13.2603 7.99999 12.9999V10.9999C7.99767 10.541 8.30797 10.1394 8.7526 10.0259C9.19722 9.91239 9.66204 10.1161 9.87999 10.5199C10.1651 10.9912 10.7776 11.1432 11.25 10.8599C11.4791 10.7229 11.644 10.5 11.7078 10.2408C11.7717 9.98159 11.7293 9.70762 11.59 9.47988C11.4612 9.26525 11.3067 9.06712 11.13 8.88988C10.5671 8.32098 9.80028 8.00057 8.99999 7.99988C7.34314 7.99988 5.99999 9.34302 5.99999 10.9999V12.9999C6.00623 14.3521 6.91639 15.5331 8.22246 15.8835C9.52852 16.234 10.9076 15.6673 11.59 14.4999C11.8648 14.0271 11.7089 13.4213 11.24 13.1399ZM17.24 13.1399C17.0107 13.0055 16.7373 12.9679 16.4803 13.0355C16.2232 13.103 16.0036 13.2701 15.87 13.4999C15.7119 13.7691 15.4371 13.9491 15.1271 13.9864C14.8171 14.0236 14.5074 13.914 14.29 13.6899C14.101 13.5106 13.9958 13.2603 14 12.9999V10.9999C13.9977 10.541 14.308 10.1394 14.7526 10.0259C15.1972 9.91239 15.662 10.1161 15.88 10.5199C16.1651 10.9912 16.7776 11.1432 17.25 10.8599C17.4791 10.7229 17.644 10.5 17.7078 10.2408C17.7717 9.98159 17.7293 9.70762 17.59 9.47988C17.4612 9.26525 17.3067 9.06712 17.13 8.88988C16.5671 8.32098 15.8003 8.00057 15 7.99988C13.3431 7.99988 12 9.34302 12 10.9999V12.9999C12.0062 14.3521 12.9164 15.5331 14.2225 15.8835C15.5285 16.234 16.9076 15.6673 17.59 14.4999C17.8648 14.0271 17.7089 13.4213 17.24 13.1399ZM12 1.99988C6.47714 1.99988 1.99998 6.47703 1.99998 11.9999C1.99998 17.5227 6.47714 21.9999 12 21.9999C17.5228 21.9999 22 17.5227 22 11.9999C22 9.34771 20.9464 6.80417 19.0711 4.92881C17.1957 3.05345 14.6521 1.99988 12 1.99988ZM12 19.9998C7.5817 19.9998 3.99998 16.418 3.99998 11.9998C3.99998 7.58148 7.5817 3.99975 12 3.99975C16.4183 3.99975 20 7.58148 20 11.9998C20 14.1215 19.1571 16.1563 17.6568 17.6566C16.1565 19.1569 14.1217 19.9998 12 19.9998Z" fill="#171E2B"/>
</svg>
