<svg width="24" height="24" viewBox="0 0 24 24" fill="none" xmlns="http://www.w3.org/2000/svg">
<path fill-rule="evenodd" clip-rule="evenodd" d="M15 11.0003H10C9.44771 11.0003 9 11.448 9 12.0003V20.0003C8.99944 20.3705 9.20346 20.7107 9.53029 20.8846C9.85712 21.0585 10.2533 21.0376 10.56 20.8303L12.5 19.5303L14.39 20.7903C14.5645 20.9257 14.779 20.9996 15 21.0003C15.1524 21.0009 15.3029 20.9667 15.44 20.9003C15.7834 20.732 16.0008 20.3826 16 20.0003V12.0003C16 11.448 15.5523 11.0003 15 11.0003ZM14 18.1201L13.06 17.4901C12.7217 17.2615 12.2783 17.2615 11.94 17.4901L11 18.1301V13.0001H14V18.1201ZM18.42 7.22013C17.1642 4.33448 14.137 2.64162 11.021 3.08244C7.90492 3.52326 5.46611 5.98937 5.06001 9.11013C3.08649 9.58275 1.7796 11.4583 2.01967 13.4733C2.25974 15.4884 3.9707 17.0044 6.00001 17.0001C6.55229 17.0001 7.00001 16.5524 7.00001 16.0001C7.00001 15.4478 6.55229 15.0001 6.00001 15.0001C4.89544 15.0001 4.00001 14.1047 4.00001 13.0001C4.00001 11.8956 4.89544 11.0001 6.00001 11.0001C6.55229 11.0001 7.00001 10.5524 7.00001 10.0001C7.00528 7.55782 8.7742 5.47671 11.1838 5.07801C13.5933 4.6793 15.9383 6.07969 16.73 8.39013C16.8465 8.74027 17.1463 8.99781 17.51 9.06013C18.7414 9.28301 19.7051 10.2469 19.9278 11.4783C20.1505 12.7098 19.5854 13.9501 18.51 14.5901C18.0295 14.8663 17.8639 15.4796 18.14 15.9601C18.4162 16.4406 19.0295 16.6063 19.51 16.3301C21.0531 15.4345 22.002 13.7844 22 12.0001C21.9938 9.79086 20.5383 7.84756 18.42 7.22013Z" fill="#171E2B"/>
</svg>
