<svg width="24" height="24" viewBox="0 0 24 24" fill="none" xmlns="http://www.w3.org/2000/svg">
<path fill-rule="evenodd" clip-rule="evenodd" d="M14.5 15.0003C15.6046 15.0003 16.5 14.1048 16.5 13.0003C16.5 11.8957 15.6046 11.0003 14.5 11.0003C13.3954 11.0003 12.5 11.8957 12.5 13.0003L10.6 13.8703C10.2735 13.6551 9.89106 13.5404 9.50002 13.5403C8.39544 13.5403 7.50001 14.4357 7.50001 15.5403C7.50001 16.6448 8.39544 17.5403 9.50002 17.5403C9.82218 17.5404 10.139 17.4578 10.42 17.3003L12.52 18.3003C12.6241 19.1988 13.3183 19.9156 14.213 20.0484C15.1077 20.1813 15.9802 19.6971 16.3409 18.8676C16.7015 18.0381 16.4606 17.0697 15.7532 16.506C15.0458 15.9423 14.0481 15.9235 13.32 16.4603L11.57 15.6603L13.48 14.7803C13.7946 14.9426 14.1465 15.0185 14.5 15.0003ZM18.42 7.22013C17.1642 4.33448 14.137 2.64162 11.021 3.08244C7.90493 3.52326 5.46612 5.98937 5.06002 9.11013C3.33948 9.52919 2.09925 11.0297 2.01151 12.7983C1.92377 14.567 3.0094 16.1828 4.68002 16.7701C4.78373 16.8021 4.8915 16.8189 5.00002 16.8201C5.5523 16.9085 6.07165 16.5324 6.16002 15.9801C6.24838 15.4278 5.8723 14.9085 5.32002 14.8201C4.5484 14.5416 4.02512 13.8201 4.00002 13.0001C4.00002 11.8956 4.89545 11.0001 6.00002 11.0001C6.5523 11.0001 7.00002 10.5524 7.00002 10.0001C7.00529 7.55782 8.77421 5.47671 11.1838 5.078C13.5933 4.6793 15.9383 6.07969 16.73 8.39013C16.8465 8.74027 17.1463 8.99781 17.51 9.06013C18.7414 9.28301 19.7051 10.2469 19.9278 11.4783C20.1505 12.7098 19.5854 13.9501 18.51 14.5901C18.0295 14.8663 17.8639 15.4796 18.14 15.9601C18.4162 16.4406 19.0295 16.6063 19.51 16.3301C21.0531 15.4344 22.002 13.7844 22 12.0001C21.9938 9.79085 20.5383 7.84756 18.42 7.22013Z" fill="#171E2B"/>
</svg>
