<svg width="24" height="24" viewBox="0 0 24 24" fill="none" xmlns="http://www.w3.org/2000/svg">
<path fill-rule="evenodd" clip-rule="evenodd" d="M12 16.9999C11.4477 16.9999 11 17.4476 11 17.9999C11 18.5522 11.4477 18.9999 12 18.9999C12.5523 18.9999 13 18.5522 13 17.9999C13 17.4476 12.5523 16.9999 12 16.9999ZM8.00001 10.9999C7.44773 10.9999 7.00001 11.4476 7.00001 11.9999C7.00001 12.5522 7.44773 12.9999 8.00001 12.9999C8.5523 12.9999 9.00001 12.5522 9.00001 11.9999C9.00001 11.4476 8.5523 10.9999 8.00001 10.9999ZM12 13.0001C11.4477 13.0001 11 13.4478 11 14.0001C11 14.5524 11.4477 15.0001 12 15.0001C12.5523 15.0001 13 14.5524 13 14.0001C13 13.4478 12.5523 13.0001 12 13.0001ZM8.00001 19.0001C7.44773 19.0001 7.00001 19.4478 7.00001 20.0001C7.00001 20.5524 7.44773 21.0001 8.00001 21.0001C8.5523 21.0001 9.00001 20.5524 9.00001 20.0001C9.00001 19.4478 8.5523 19.0001 8.00001 19.0001ZM8.00001 15C7.44773 15 7.00001 15.4477 7.00001 16C7.00001 16.5523 7.44773 17 8.00001 17C8.5523 17 9.00001 16.5523 9.00001 16C9.00001 15.4477 8.5523 15 8.00001 15ZM16 15C15.4477 15 15 15.4477 15 16C15 16.5523 15.4477 17 16 17C16.5523 17 17 16.5523 17 16C17 15.4477 16.5523 15 16 15ZM12 9.00001C11.4477 9.00001 11 9.44772 11 10C11 10.5523 11.4477 11 12 11C12.5523 11 13 10.5523 13 10C13 9.44772 12.5523 9.00001 12 9.00001ZM16 10.9999C15.4477 10.9999 15 11.4476 15 11.9999C15 12.5522 15.4477 12.9999 16 12.9999C16.5523 12.9999 17 12.5522 17 11.9999C17 11.4476 16.5523 10.9999 16 10.9999ZM18.42 6.22001C17.1642 3.33435 14.137 1.6415 11.021 2.08232C7.90492 2.52314 5.46611 4.98925 5.06 8.11001C3.26395 8.54424 1.99907 10.1522 2 12C1.99639 13.1458 2.48429 14.2381 3.34 15C3.60517 15.2547 3.98871 15.3433 4.33875 15.2308C4.68878 15.1183 4.94884 14.8228 5.01593 14.4613C5.08303 14.0998 4.94635 13.7306 4.66 13.5C4.23585 13.1172 3.99566 12.5713 4 12C4 10.8954 4.89544 10 6 10C6.55229 10 7 9.55229 7 9.00001C7.00528 6.5577 8.7742 4.47659 11.1838 4.07788C13.5933 3.67918 15.9383 5.07957 16.73 7.39001C16.8465 7.74015 17.1463 7.99769 17.51 8.06001C18.9428 8.30716 19.9921 9.54611 20 11C20.0153 11.7363 19.7509 12.451 19.26 13C18.9286 13.4127 18.9762 14.0122 19.3685 14.3675C19.7609 14.7227 20.3622 14.7107 20.74 14.34C21.8592 13.061 22.2521 11.301 21.7831 9.66745C21.314 8.03387 20.0473 6.75042 18.42 6.26001V6.22001ZM16 19.0001C15.4477 19.0001 15 19.4478 15 20.0001C15 20.5524 15.4477 21.0001 16 21.0001C16.5523 21.0001 17 20.5524 17 20.0001C17 19.4478 16.5523 19.0001 16 19.0001Z" fill="#171E2B"/>
</svg>
