<svg width="24" height="24" viewBox="0 0 24 24" fill="none" xmlns="http://www.w3.org/2000/svg">
<path fill-rule="evenodd" clip-rule="evenodd" d="M21.7 7.99996C21.453 7.75601 21.0972 7.65759 20.76 7.73996C20.5469 7.79026 20.3289 7.81709 20.11 7.81996C18.4532 7.81996 17.11 6.47681 17.11 4.81996C17.1125 4.5977 17.1394 4.37638 17.19 4.15996C17.2724 3.82273 17.174 3.46692 16.93 3.21996C16.6892 2.97224 16.3376 2.86637 16 2.93996C13.9682 3.4102 12.4416 5.09219 12.17 7.15996C11.6278 6.99982 11.0653 6.91898 10.5 6.91996C7.53737 6.91455 5.01427 9.07235 4.56001 12C3.03337 12.4326 1.98495 13.8333 2.00001 15.42C2.00076 16.521 2.52399 17.5563 3.41001 18.21C3.69589 18.4482 4.09042 18.508 4.43406 18.3652C4.7777 18.2223 5.01359 17.9005 5.04634 17.5298C5.07909 17.1591 4.90328 16.8008 4.59001 16.6C4.21671 16.323 3.99762 15.8848 4.00001 15.42C4.00001 14.5915 4.67158 13.92 5.50001 13.92C6.05229 13.92 6.50001 13.4722 6.50001 12.92C6.50374 11.4571 7.30576 10.1129 8.59138 9.41489C9.87699 8.71687 11.4411 8.77634 12.67 9.56996C13.4021 10.0425 13.9548 10.7466 14.24 11.57C14.3595 11.9162 14.6588 12.1694 15.02 12.23C16.0412 12.3984 16.8289 13.2202 16.9538 14.2476C17.0788 15.275 16.5111 16.2617 15.56 16.67C15.3154 16.7754 15.123 16.974 15.0254 17.2218C14.9278 17.4696 14.933 17.7461 15.04 17.99C15.1996 18.3555 15.5611 18.5913 15.96 18.59C16.0981 18.5879 16.2343 18.5573 16.36 18.5C17.9493 17.8073 18.9722 16.2336 18.96 14.5C18.9639 13.8031 18.7956 13.1161 18.47 12.5C20.2113 12.0394 21.564 10.6676 22 8.91996C22.0649 8.5821 21.9516 8.2346 21.7 7.99996ZM17.11 10.8199C16.9702 10.8308 16.8298 10.8308 16.69 10.8199C16.4593 10.6963 16.2184 10.5926 15.97 10.5099C15.5634 9.60979 14.9377 8.82591 14.15 8.22994C14.15 8.10994 14.15 7.97994 14.15 7.85994C14.1499 6.983 14.5336 6.14995 15.2 5.57994C15.522 7.76705 17.2421 9.48308 19.43 9.79994C18.8434 10.4622 17.9944 10.8318 17.11 10.8099V10.8199ZM12.5 16.9199H11.73L12.12 16.2499C12.3961 15.7694 12.2305 15.156 11.75 14.8799C11.2695 14.6037 10.6561 14.7694 10.38 15.2499L10 15.9199L9.62 15.2499C9.34386 14.7694 8.73049 14.6037 8.25 14.8799C7.76952 15.156 7.60386 15.7694 7.88 16.2499L8.27 16.9199H7.5C6.94772 16.9199 6.5 17.3676 6.5 17.9199C6.5 18.4722 6.94772 18.9199 7.5 18.9199H8.27L7.88 19.5799C7.60386 20.0604 7.76952 20.6737 8.25 20.9499C8.73049 21.226 9.34386 21.0604 9.62 20.5799L10 19.9199L10.38 20.5799C10.5586 20.8907 10.8895 21.0826 11.248 21.0833C11.6065 21.084 11.9382 20.8934 12.118 20.5833C12.2979 20.2732 12.2986 19.8907 12.12 19.5799L11.73 18.9199H12.5C13.0523 18.9199 13.5 18.4722 13.5 17.9199C13.5 17.3676 13.0523 16.9199 12.5 16.9199Z" fill="#171E2B"/>
</svg>
