<svg width="24" height="24" viewBox="0 0 24 24" fill="none" xmlns="http://www.w3.org/2000/svg">
<path fill-rule="evenodd" clip-rule="evenodd" d="M12.89 18.06C12.3709 17.8725 11.7979 18.141 11.61 18.66L10.88 20.66C10.6925 21.1792 10.961 21.7521 11.48 21.94C11.589 21.9796 11.704 21.9999 11.82 22C12.241 21.9998 12.6168 21.736 12.76 21.34L13.49 19.34C13.6775 18.8209 13.409 18.248 12.89 18.06ZM8.89001 18.06C8.37087 17.8725 7.79796 18.141 7.61001 18.66L6.88001 20.66C6.69247 21.1792 6.96102 21.7521 7.48001 21.94C7.58901 21.9796 7.70405 21.9999 7.82001 22C8.24104 21.9998 8.61686 21.736 8.76001 21.34L9.49001 19.34C9.67755 18.8209 9.409 18.248 8.89001 18.06ZM8.89001 11.0599C8.37087 10.8724 7.79796 11.1409 7.61001 11.6599L6.51001 14.6599C6.39923 14.9663 6.44467 15.3075 6.63178 15.5742C6.81888 15.8409 7.1242 15.9998 7.45001 15.9999C7.87104 15.9997 8.24686 15.7358 8.39001 15.3399L9.49001 12.3399C9.67755 11.8208 9.409 11.2479 8.89001 11.0599ZM12.89 11.0599C12.3709 10.8724 11.7979 11.1409 11.61 11.6599L10.51 14.6599C10.3992 14.9663 10.4447 15.3075 10.6318 15.5742C10.8189 15.8409 11.1242 15.9998 11.45 15.9999C11.871 15.9997 12.2468 15.7358 12.39 15.3399L13.49 12.3399C13.6775 11.8208 13.409 11.2479 12.89 11.0599ZM18.42 6.22001C17.1642 3.33435 14.137 1.6415 11.021 2.08232C7.90492 2.52314 5.46611 4.98925 5.06 8.11001C3.26395 8.54424 1.99907 10.1522 2 12C1.99639 13.1458 2.48429 14.2381 3.34 15C3.60517 15.2547 3.98871 15.3433 4.33875 15.2308C4.68878 15.1183 4.94884 14.8228 5.01593 14.4613C5.08303 14.0998 4.94635 13.7306 4.66 13.5C4.23585 13.1172 3.99566 12.5713 4 12C4 10.8954 4.89544 10 6 10C6.55229 10 7 9.55229 7 9.00001C7.00528 6.5577 8.7742 4.47659 11.1838 4.07788C13.5933 3.67918 15.9383 5.07957 16.73 7.39001C16.8465 7.74015 17.1463 7.99769 17.51 8.06001C18.9428 8.30716 19.9921 9.54611 20 11C20.0153 11.7363 19.7509 12.451 19.26 13C18.9286 13.4127 18.9762 14.0122 19.3685 14.3675C19.7609 14.7227 20.3622 14.7107 20.74 14.34C21.8592 13.061 22.2521 11.301 21.7831 9.66745C21.314 8.03387 20.0473 6.75042 18.42 6.26001V6.22001ZM16.89 18.06C16.3709 17.8725 15.798 18.141 15.61 18.66L14.88 20.66C14.6925 21.1792 14.961 21.7521 15.48 21.94C15.589 21.9796 15.704 21.9999 15.82 22C16.241 21.9998 16.6169 21.736 16.76 21.34L17.49 19.34C17.6775 18.8209 17.409 18.248 16.89 18.06ZM16.89 11.0599C16.3709 10.8724 15.798 11.1409 15.61 11.6599L14.51 14.6599C14.3992 14.9663 14.4447 15.3075 14.6318 15.5742C14.8189 15.8409 15.1242 15.9998 15.45 15.9999C15.871 15.9997 16.2469 15.7358 16.39 15.3399L17.49 12.3399C17.6775 11.8208 17.409 11.2479 16.89 11.0599Z" fill="#171E2B"/>
</svg>
