<svg width="24" height="24" viewBox="0 0 24 24" fill="none" xmlns="http://www.w3.org/2000/svg">
<path fill-rule="evenodd" clip-rule="evenodd" d="M8.49999 13.9999C7.94771 13.9999 7.5 14.4476 7.5 14.9999V15.9999C7.5 16.5521 7.94771 16.9999 8.49999 16.9999C9.05228 16.9999 9.49999 16.5521 9.49999 15.9999V14.9999C9.49999 14.4476 9.05228 13.9999 8.49999 13.9999ZM8.49999 19.0001C7.94771 19.0001 7.5 19.4478 7.5 20.0001V21.0001C7.5 21.5524 7.94771 22.0001 8.49999 22.0001C9.05228 22.0001 9.49999 21.5524 9.49999 21.0001V20.0001C9.49999 19.4478 9.05228 19.0001 8.49999 19.0001ZM21.7 7.06999C21.453 6.82605 21.0972 6.72763 20.76 6.80999C20.5469 6.8603 20.3289 6.88712 20.11 6.88999C18.4531 6.88999 17.11 5.54685 17.11 3.88999C17.1132 3.66777 17.14 3.44653 17.19 3.22999C17.2687 2.89591 17.1705 2.54483 16.93 2.29999C16.6933 2.04502 16.3411 1.93141 16 1.99999C13.9604 2.45029 12.4259 4.13701 12.17 6.20999C11.6254 6.06489 11.0636 5.99425 10.5 5.99999C7.52103 5.9983 4.99194 8.18251 4.55999 11.13C3.13302 11.5273 2.11071 12.78 2.00741 14.2576C1.90411 15.7353 2.74219 17.118 4.09999 17.71C4.22743 17.7605 4.36293 17.7876 4.49999 17.79C4.97672 17.7939 5.3899 17.4607 5.48713 16.994C5.58437 16.5273 5.33861 16.0568 4.89999 15.87C4.3514 15.6363 3.99662 15.0963 3.99999 14.5C3.99999 13.6716 4.67157 13 5.49999 13C6.05228 13 6.49999 12.5523 6.49999 12C6.49999 9.79085 8.29085 7.99999 10.5 7.99999C11.2726 8.00075 12.0278 8.23042 12.67 8.65999C13.4 9.13484 13.9521 9.83814 14.24 10.66C14.3565 11.0101 14.6563 11.2677 15.02 11.33C16.0068 11.4332 16.8188 12.1524 17.0403 13.1196C17.2617 14.0868 16.8436 15.0877 16 15.61C15.6999 15.8065 15.5274 16.1482 15.5475 16.5063C15.5677 16.8645 15.7773 17.1847 16.0975 17.3463C16.4178 17.508 16.7999 17.4865 17.1 17.29C18.3004 16.4783 19.0139 15.1189 19 13.67C19.0039 12.9731 18.8356 12.2861 18.51 11.67C20.2596 11.1814 21.5999 9.77196 22 7.99999C22.0686 7.65891 21.955 7.3067 21.7 7.06999ZM17.11 9.88985C16.9702 9.90068 16.8298 9.90068 16.69 9.88985C16.4702 9.75402 16.2394 9.63694 16 9.53985C15.588 8.64299 14.9633 7.86031 14.18 7.25985C14.18 7.13985 14.18 7.00985 14.18 6.88985C14.1799 6.01292 14.5636 5.17986 15.23 4.60985C15.548 6.80085 17.269 8.52186 19.46 8.83985C18.8742 9.52518 18.0113 9.91074 17.11 9.88985ZM12.5 13.0001C11.9477 13.0001 11.5 13.4478 11.5 14.0001V15.0001C11.5 15.5524 11.9477 16.0001 12.5 16.0001C13.0523 16.0001 13.5 15.5524 13.5 15.0001V14.0001C13.5 13.4478 13.0523 13.0001 12.5 13.0001ZM12.5 18C11.9477 18 11.5 18.4477 11.5 19V20C11.5 20.5523 11.9477 21 12.5 21C13.0523 21 13.5 20.5523 13.5 20V19C13.5 18.4477 13.0523 18 12.5 18Z" fill="#171E2B"/>
</svg>
