<svg width="24" height="24" viewBox="0 0 24 24" fill="none" xmlns="http://www.w3.org/2000/svg">
<path fill-rule="evenodd" clip-rule="evenodd" d="M18.42 7.72001C17.1642 4.83435 14.137 3.1415 11.021 3.58232C7.90492 4.02314 5.46611 6.48925 5.06 9.61001C3.33946 10.0291 2.09924 11.5295 2.0115 13.2982C1.92376 15.0669 3.00939 16.6827 4.68 17.27C4.78371 17.302 4.89149 17.3188 5 17.32C5.55229 17.4084 6.07164 17.0323 6.16 16.48C6.24837 15.9277 5.87229 15.4084 5.32 15.32C4.54838 15.0415 4.0251 14.32 4 13.5C4 12.3954 4.89543 11.5 6 11.5C6.55229 11.5 7 11.0523 7 10.5C7.00528 8.0577 8.7742 5.97659 11.1838 5.57788C13.5933 5.17918 15.9383 6.57957 16.73 8.89001C16.8465 9.24015 17.1463 9.49769 17.51 9.56001C18.7414 9.78289 19.7051 10.7468 19.9278 11.9782C20.1505 13.2097 19.5854 14.45 18.51 15.09C18.0295 15.3661 17.8639 15.9795 18.14 16.46C18.4161 16.9405 19.0295 17.1061 19.51 16.83C21.0531 15.9343 22.002 14.2842 22 12.5C21.9938 10.2907 20.5383 8.34744 18.42 7.72001ZM9.17001 13.72C7.60919 15.2826 7.61013 17.8144 9.17211 19.3758C10.7341 20.9372 13.2659 20.9372 14.8279 19.3758C16.3899 17.8144 16.3908 15.2826 14.83 13.72C13.2593 12.1948 10.7674 12.1728 9.17001 13.67V13.72ZM9.99998 16.5001C9.99998 15.3956 10.8954 14.5001 12 14.5001C12.1722 14.5024 12.3435 14.5259 12.51 14.5701L10.07 17.0001C10.0265 16.8369 10.003 16.669 9.99998 16.5001ZM13.41 17.9101C12.9057 18.4013 12.1803 18.5912 11.5 18.4101L13.93 16.0001C13.9742 16.1666 13.9978 16.3379 14 16.5101C13.9951 17.0362 13.7831 17.5392 13.41 17.9101Z" fill="#171E2B"/>
</svg>
