<svg width="24" height="24" viewBox="0 0 24 24" fill="none" xmlns="http://www.w3.org/2000/svg">
<path fill-rule="evenodd" clip-rule="evenodd" d="M7.50001 15C6.94773 15 6.50001 15.4477 6.50001 16V17C6.50001 17.5523 6.94773 18 7.50001 18C8.0523 18 8.50001 17.5523 8.50001 17V16C8.50001 15.4477 8.0523 15 7.50001 15ZM22 7.00012H20.9C20.7667 6.37364 20.5192 5.77703 20.17 5.24012L21 4.47012C21.2537 4.21646 21.3527 3.84675 21.2599 3.50024C21.167 3.15374 20.8964 2.88309 20.5499 2.79024C20.2034 2.6974 19.8337 2.79646 19.58 3.05012L18.81 3.83012C18.2605 3.47026 17.6454 3.2222 17 3.10012V2.00012C17 1.44784 16.5523 1.00012 16 1.00012C15.4477 1.00012 15 1.44784 15 2.00012V3.10012C14.3735 3.23342 13.7769 3.48087 13.24 3.83012L12.47 3.05012C12.2163 2.79646 11.8466 2.6974 11.5001 2.79024C11.1536 2.88309 10.883 3.15374 10.7901 3.50024C10.6973 3.84675 10.7963 4.21646 11.05 4.47012L11.83 5.24012C11.4335 5.84416 11.1709 6.52612 11.06 7.24012C10.5535 7.08892 10.0285 7.00816 9.49999 7.00012C6.52103 6.99843 3.99194 9.18264 3.55999 12.1301C2.13302 12.5275 1.11071 13.7801 1.00741 15.2578C0.904112 16.7354 1.74219 18.1181 3.09999 18.7101C3.22743 18.7606 3.36293 18.7877 3.49999 18.7901C3.97672 18.794 4.3899 18.4608 4.48713 17.9941C4.58437 17.5274 4.33861 17.0569 3.89999 16.8701C3.3514 16.6365 2.99662 16.0964 2.99999 15.5001C2.99999 14.6717 3.67157 14.0001 4.49999 14.0001C5.05228 14.0001 5.49999 13.5524 5.49999 13.0001C5.50885 11.0504 6.92216 9.39109 8.84565 9.07216C10.7691 8.75323 12.6423 9.86759 13.28 11.7101C13.3965 12.0603 13.6963 12.3178 14.06 12.3801C15.0108 12.5209 15.7764 13.2335 15.9849 14.1718C16.1934 15.1101 15.8017 16.0799 15 16.6101C14.5361 16.9139 14.4062 17.5362 14.71 18.0001C15.0138 18.464 15.6361 18.5939 16.1 18.2901C17.2976 17.476 18.0103 16.1182 18 14.6701C17.9968 14.0044 17.843 13.3479 17.55 12.7501C17.9768 12.6102 18.3836 12.4152 18.76 12.1701L19.53 12.9501C19.7122 13.1619 19.9748 13.2878 20.254 13.2973C20.5333 13.3068 20.8038 13.1991 21 13.0001C21.1893 12.8124 21.2958 12.5568 21.2958 12.2901C21.2958 12.0235 21.1893 11.7679 21 11.5801L20.22 10.8101C20.5623 10.2568 20.7933 9.64195 20.9 9.00012H22C22.5523 9.00012 23 8.55241 23 8.00012C23 7.44784 22.5523 7.00012 22 7.00012ZM18.13 10.12C17.5655 10.6852 16.7988 11.002 16 11H15.94C15.6287 10.8026 15.2924 10.6479 14.94 10.54C14.4968 9.58293 13.8065 8.76136 12.94 8.16001C12.94 8.10001 12.94 8.06 12.94 8C12.938 7.20606 13.2509 6.44371 13.81 5.88C15.0038 4.7561 16.8662 4.7561 18.06 5.88C18.6249 6.44291 18.9424 7.20755 18.9424 8.005C18.9424 8.80246 18.6249 9.5671 18.06 10.13L18.13 10.12ZM7.50001 20.0002C6.94773 20.0002 6.50001 20.448 6.50001 21.0002V22.0002C6.50001 22.5525 6.94773 23.0002 7.50001 23.0002C8.0523 23.0002 8.50001 22.5525 8.50001 22.0002V21.0002C8.50001 20.448 8.0523 20.0002 7.50001 20.0002ZM11.5 19.0001C10.9477 19.0001 10.5 19.4478 10.5 20.0001V21.0001C10.5 21.5524 10.9477 22.0001 11.5 22.0001C12.0523 22.0001 12.5 21.5524 12.5 21.0001V20.0001C12.5 19.4478 12.0523 19.0001 11.5 19.0001ZM11.5 14.0002C10.9477 14.0002 10.5 14.448 10.5 15.0002V16.0002C10.5 16.5525 10.9477 17.0002 11.5 17.0002C12.0523 17.0002 12.5 16.5525 12.5 16.0002V15.0002C12.5 14.448 12.0523 14.0002 11.5 14.0002Z" fill="#171E2B"/>
</svg>
