<svg width="24" height="24" viewBox="0 0 24 24" fill="none" xmlns="http://www.w3.org/2000/svg">
<path fill-rule="evenodd" clip-rule="evenodd" d="M21 6.99988H20.2C20.0966 6.55117 19.921 6.12225 19.68 5.72988L20.24 5.16988C20.5798 4.77312 20.5569 4.18168 20.1875 3.81231C19.8182 3.44295 19.2267 3.4201 18.83 3.75988L18.27 4.31988C17.8776 4.07889 17.4487 3.90327 17 3.79988V2.99988C17 2.44759 16.5523 1.99988 16 1.99988C15.4477 1.99988 15 2.44759 15 2.99988V3.79988C14.5539 3.90169 14.128 4.07745 13.74 4.31988L13.17 3.75988C12.7732 3.4201 12.1818 3.44295 11.8124 3.81231C11.443 4.18168 11.4202 4.77312 11.76 5.16988L12.32 5.73988C12.23 5.88988 12.16 6.05988 12.08 6.21988C11.5658 6.07474 11.0342 6.00072 10.5 5.99988C7.52102 5.99818 4.99193 8.1824 4.55998 11.1299C3.13301 11.5272 2.1107 12.7799 2.0074 14.2575C1.9041 15.7352 2.74218 17.1178 4.09998 17.7099C4.22742 17.7604 4.36292 17.7875 4.49998 17.7899C4.97671 17.7938 5.38989 17.4606 5.48712 16.9939C5.58436 16.5271 5.3386 16.0567 4.89998 15.8699C4.35139 15.6362 3.99661 15.0961 3.99998 14.4999C3.99998 13.6715 4.67155 12.9999 5.49998 12.9999C6.05227 12.9999 6.49998 12.5522 6.49998 11.9999C6.50883 10.0501 7.92214 8.39085 9.84563 8.07192C11.7691 7.75298 13.6423 8.86734 14.28 10.7099C14.3965 11.06 14.6963 11.3176 15.06 11.3799C16.0108 11.5207 16.7764 12.2333 16.9849 13.1716C17.1934 14.1099 16.8017 15.0796 16 15.6099C15.5361 15.9136 15.4062 16.536 15.71 16.9999C16.0137 17.4638 16.6361 17.5936 17.1 17.2899C18.2976 16.4758 19.0102 15.118 19 13.6699C18.9991 13.1389 18.8973 12.6129 18.7 12.1199L18.83 12.2399C19.0162 12.4246 19.2676 12.5288 19.53 12.5299C19.7958 12.5314 20.0513 12.4271 20.24 12.2399C20.6277 11.8498 20.6277 11.2199 20.24 10.8299L19.68 10.2699C19.921 9.87751 20.0966 9.44859 20.2 8.99988H21C21.5523 8.99988 22 8.55216 22 7.99988C22 7.44759 21.5523 6.99988 21 6.99988ZM17.66 9.64982C17.4863 9.82405 17.2831 9.96623 17.06 10.0698C16.7337 9.84359 16.3767 9.66512 16 9.53982C15.5405 8.53659 14.8184 7.67623 13.91 7.04982C14.0214 6.79153 14.1771 6.55464 14.37 6.34982C15.3013 5.48839 16.7386 5.48839 17.67 6.34982C18.5616 7.26915 18.5616 8.7305 17.67 9.64982H17.66ZM8.5 13.9999C7.94772 13.9999 7.5 14.4476 7.5 14.9999V20.9999C7.5 21.5522 7.94772 21.9999 8.5 21.9999C9.05228 21.9999 9.5 21.5522 9.5 20.9999V14.9999C9.5 14.4476 9.05228 13.9999 8.5 13.9999ZM12.5 12.9998C11.9477 12.9998 11.5 13.4475 11.5 13.9998V19.9998C11.5 20.552 11.9477 20.9998 12.5 20.9998C13.0523 20.9998 13.5 20.552 13.5 19.9998V13.9998C13.5 13.4475 13.0523 12.9998 12.5 12.9998Z" fill="#171E2B"/>
</svg>
