<svg width="24" height="24" viewBox="0 0 24 24" fill="none" xmlns="http://www.w3.org/2000/svg">
<path fill-rule="evenodd" clip-rule="evenodd" d="M12.5 16.92H11.73L12.12 16.25C12.3962 15.7695 12.2305 15.1561 11.75 14.88C11.2695 14.6038 10.6562 14.7695 10.38 15.25L10 15.92L9.62004 15.25C9.34389 14.7695 8.73052 14.6038 8.25004 14.88C7.76955 15.1561 7.60389 15.7695 7.88004 16.25L8.27004 16.92H7.50004C6.94775 16.92 6.50004 17.3677 6.50004 17.92C6.50004 18.4723 6.94775 18.92 7.50004 18.92H8.27004L7.88004 19.58C7.60389 20.0605 7.76955 20.6738 8.25004 20.95C8.73052 21.2261 9.34389 21.0605 9.62004 20.58L10 19.92L10.38 20.58C10.5587 20.8908 10.8896 21.0827 11.248 21.0834C11.6065 21.0841 11.9382 20.8935 12.118 20.5834C12.2979 20.2733 12.2987 19.8908 12.12 19.58L11.73 18.92H12.5C13.0523 18.92 13.5 18.4723 13.5 17.92C13.5 17.3677 13.0523 16.92 12.5 16.92ZM21 7.92017H20.2C20.0966 7.47146 19.921 7.04253 19.68 6.65017L20.24 6.09017C20.5798 5.69341 20.557 5.10197 20.1876 4.7326C19.8182 4.36323 19.2268 4.34039 18.83 4.68017L18.27 5.24017C17.8777 4.99918 17.4487 4.82356 17 4.72017V3.92017C17 3.36788 16.5523 2.92017 16 2.92017C15.4478 2.92017 15 3.36788 15 3.92017V4.72017C14.554 4.82198 14.1281 4.99774 13.74 5.24017L13.17 4.68017C12.7733 4.34039 12.1818 4.36323 11.8125 4.7326C11.4431 5.10197 11.4203 5.69341 11.76 6.09017L12.32 6.65017C12.23 6.81017 12.16 6.98017 12.08 7.14017C11.5659 6.99503 11.0343 6.92101 10.5 6.92017C7.5374 6.91476 5.0143 9.07256 4.56004 12.0002C3.0334 12.4329 1.98498 13.8335 2.00004 15.4202C2.00079 16.5212 2.52402 17.5565 3.41004 18.2102C3.69592 18.4484 4.09045 18.5082 4.43409 18.3654C4.77773 18.2225 5.01362 17.9007 5.04637 17.53C5.07912 17.1593 4.90331 16.801 4.59004 16.6002C4.21674 16.3232 3.99765 15.885 4.00004 15.4202C4.00004 14.5917 4.67161 13.9202 5.50004 13.9202C6.05232 13.9202 6.50004 13.4725 6.50004 12.9202C6.50889 10.9704 7.9222 9.31114 9.84569 8.99221C11.7692 8.67327 13.6424 9.78763 14.28 11.6302C14.3995 11.9764 14.6988 12.2296 15.06 12.2902C16.0812 12.4586 16.8689 13.2804 16.9939 14.3078C17.1188 15.3352 16.5511 16.3219 15.6 16.7302C15.3555 16.8356 15.163 17.0342 15.0654 17.282C14.9678 17.5298 14.9731 17.8063 15.08 18.0502C15.2396 18.4158 15.6012 18.6516 16 18.6502C16.1384 18.6503 16.2751 18.6195 16.4 18.5602C17.9893 17.8676 19.0123 16.2938 19 14.5602C18.998 14.026 18.8963 13.497 18.7 13.0002L18.83 13.1302C19.0163 13.3149 19.2677 13.4191 19.53 13.4202C19.7958 13.4217 20.0513 13.3174 20.24 13.1302C20.4293 12.9424 20.5358 12.6868 20.5358 12.4202C20.5358 12.1535 20.4293 11.8979 20.24 11.7102L19.68 11.1502C19.9208 10.7613 20.0965 10.3357 20.2 9.89017H21C21.5523 9.89017 22 9.44245 22 8.89017C22 8.33788 21.5523 7.89017 21 7.89017V7.92017ZM17.66 10.5601C17.4884 10.7343 17.2847 10.8735 17.06 10.9701C16.7327 10.7506 16.3758 10.5789 16 10.4601C15.5329 9.46079 14.7994 8.60961 13.88 8.00007C13.9867 7.7392 14.1429 7.50148 14.34 7.30007C15.2695 6.43378 16.7106 6.43378 17.64 7.30007C18.5411 8.21165 18.5411 9.67849 17.64 10.5901L17.66 10.5601Z" fill="#171E2B"/>
</svg>
