<svg width="24" height="24" viewBox="0 0 24 24" fill="none" xmlns="http://www.w3.org/2000/svg">
<path fill-rule="evenodd" clip-rule="evenodd" d="M22.5 14.5001C22.5 13.3955 21.6046 12.5001 20.5 12.5001H14.5C13.3954 12.5001 12.5 13.3955 12.5 14.5001H9.50001V11.5001H11.83C13.6249 11.5031 15.1572 10.204 15.4478 8.43274C15.7385 6.6615 14.7018 4.94087 13 4.37007C12.0618 2.41372 9.96903 1.28568 7.81908 1.57751C5.66913 1.86934 3.95274 3.51443 3.57001 5.65007C2.17115 6.10984 1.31276 7.51687 1.54394 8.97109C1.77513 10.4253 3.02754 11.4968 4.50001 11.5001H7.50001V19.5001C7.50001 20.0524 7.94772 20.5001 8.50001 20.5001H12.5C12.5 21.6046 13.3954 22.5001 14.5 22.5001H20.5C21.6046 22.5001 22.5 21.6046 22.5 20.5001V18.5001C22.4964 18.1479 22.3998 17.8029 22.22 17.5001C22.3998 17.1972 22.4964 16.8522 22.5 16.5001V14.5001ZM4.5 9.50024C3.94772 9.50024 3.5 9.05252 3.5 8.50024C3.5 7.94795 3.94772 7.50024 4.5 7.50024C5.05229 7.50024 5.5 7.05252 5.5 6.50024C5.48333 5.02602 6.54032 3.75819 7.99348 3.50936C9.44665 3.26053 10.8652 4.10446 11.34 5.50024C11.4595 5.84649 11.7588 6.0997 12.12 6.16024C12.9322 6.29468 13.521 7.00725 13.5 7.83024C13.5 8.75255 12.7523 9.50024 11.83 9.50024H4.5ZM12.5 18.5H9.5V16.5H12.5C12.5037 16.8521 12.6003 17.1971 12.78 17.5C12.6003 17.8028 12.5037 18.1478 12.5 18.5ZM14.5 20.5002V18.5002H20.5V20.5002H14.5ZM14.5 16.5001V14.5001H20.5V16.5001H14.5Z" fill="#171E2B"/>
</svg>
