<svg width="24" height="24" viewBox="0 0 24 24" fill="none" xmlns="http://www.w3.org/2000/svg">
<path fill-rule="evenodd" clip-rule="evenodd" d="M11.05 14.3303C10.714 14.1061 10.276 14.1061 9.93999 14.3303C9.83999 14.4103 7.49999 16.0003 7.49999 18.5003C7.49999 20.1571 8.84314 21.5003 10.5 21.5003C12.1568 21.5003 13.5 20.1571 13.5 18.5003C13.5 16.0003 11.16 14.4003 11.05 14.3303ZM10.5 19.5C9.94772 19.5 9.5 19.0523 9.5 18.5C9.56315 17.7294 9.92139 17.0129 10.5 16.5C11.0786 17.0129 11.4369 17.7294 11.5 18.5C11.5 18.7652 11.3946 19.0196 11.2071 19.2071C11.0196 19.3946 10.7652 19.5 10.5 19.5ZM21 7.50012H20.2C20.0966 7.05141 19.921 6.62249 19.68 6.23012L20.24 5.67012C20.5798 5.27336 20.5569 4.68193 20.1876 4.31256C19.8182 3.94319 19.2268 3.92035 18.83 4.26012L18.27 4.82012C17.8776 4.57913 17.4487 4.40351 17 4.30012V3.50012C17 2.94784 16.5523 2.50012 16 2.50012C15.4477 2.50012 15 2.94784 15 3.50012V4.30012C14.5539 4.40194 14.128 4.5777 13.74 4.82012L13.17 4.26012C12.7732 3.92035 12.1818 3.94319 11.8124 4.31256C11.4431 4.68193 11.4202 5.27336 11.76 5.67012L12.32 6.24012C12.23 6.39012 12.16 6.56012 12.08 6.72012C11.5658 6.57499 11.0342 6.50097 10.5 6.50012C7.52103 6.49843 4.99194 8.68264 4.55999 11.6301C3.13302 12.0275 2.11071 13.2801 2.00741 14.7578C1.90411 16.2354 2.74219 17.6181 4.09999 18.2101C4.22743 18.2606 4.36294 18.2877 4.49999 18.2901C4.97672 18.294 5.3899 17.9608 5.48713 17.4941C5.58437 17.0274 5.33861 16.5569 4.89999 16.3701C4.3514 16.1365 3.99662 15.5964 3.99999 15.0001C3.99999 14.1717 4.67157 13.5001 5.49999 13.5001C6.05228 13.5001 6.49999 13.0524 6.49999 12.5001C6.50885 10.5504 7.92216 8.8911 9.84565 8.57216C11.7691 8.25323 13.6423 9.36759 14.28 11.2101C14.3965 11.5603 14.6963 11.8178 15.06 11.8801C16.0108 12.0209 16.7764 12.7335 16.9849 13.6718C17.1934 14.6101 16.8017 15.5799 16 16.1101C15.5361 16.4139 15.4062 17.0362 15.71 17.5001C16.0138 17.964 16.6361 18.0939 17.1 17.7901C18.8102 16.6743 19.4997 14.5095 18.75 12.6101L18.88 12.7401C19.0663 12.9249 19.3177 13.029 19.58 13.0301C19.8458 13.0317 20.1013 12.9273 20.29 12.7401C20.6777 12.3501 20.6777 11.7202 20.29 11.3301L19.73 10.7701C19.9535 10.3746 20.1122 9.94585 20.2 9.50012H21C21.5523 9.50012 22 9.05241 22 8.50012C22 7.94784 21.5523 7.50012 21 7.50012ZM17.66 10.1503C17.4815 10.316 17.2793 10.4542 17.06 10.5603C16.7355 10.3235 16.3785 10.1349 16 10.0003C15.5406 8.99703 14.8184 8.13668 13.91 7.51027C14.0193 7.25376 14.1752 7.01978 14.37 6.82027C15.298 5.96018 16.732 5.96018 17.66 6.82027C18.5516 7.7396 18.5516 9.20094 17.66 10.1203V10.1503Z" fill="#171E2B"/>
</svg>
