<svg width="24" height="24" viewBox="0 0 24 24" fill="none" xmlns="http://www.w3.org/2000/svg">
<path fill-rule="evenodd" clip-rule="evenodd" d="M4.99998 18C4.4477 18 3.99998 18.4478 3.99998 19C3.99998 19.5523 4.4477 20 4.99998 20C5.55227 20 5.99998 19.5523 5.99998 19C5.99998 18.4478 5.55227 18 4.99998 18ZM19 13.9999H12C11.4477 13.9999 11 14.4476 11 14.9999C11 15.5522 11.4477 15.9999 12 15.9999H19C19.5523 15.9999 20 16.4476 20 16.9999C20 17.5522 19.5523 17.9999 19 17.9999C18.4477 17.9999 18 18.4476 18 18.9999C18 19.5522 18.4477 19.9999 19 19.9999C20.6569 19.9999 22 18.6568 22 16.9999C22 15.3431 20.6569 13.9999 19 13.9999ZM14 10.9999C14 11.5522 14.4477 11.9999 15 11.9999H19C20.6569 11.9999 22 10.6568 22 8.99991C22 8.44762 21.5523 7.99991 21 7.99991C20.4477 7.99991 20 8.44762 20 8.99991C20 9.55219 19.5523 9.99991 19 9.99991H15C14.4477 9.99991 14 10.4476 14 10.9999ZM10 15C10 14.4477 9.55229 14 9.00001 14H6.00001C4.89544 14 4.00001 13.1046 4.00001 12C4.00001 10.8954 4.89544 9.99999 6.00001 9.99999C6.55229 9.99999 7.00001 9.55228 7.00001 8.99999C7.00528 6.55768 8.7742 4.47657 11.1838 4.07787C13.5933 3.67916 15.9383 5.07955 16.73 7.38999C16.9067 7.91466 17.4753 8.19673 18 8.01999C18.5247 7.84326 18.8067 7.27466 18.63 6.74999C17.5815 3.66671 14.5451 1.71381 11.3047 2.03858C8.06421 2.36334 5.47579 4.87995 5.06001 8.10999C3.08649 8.58261 1.7796 10.4581 2.01967 12.4732C2.25974 14.4883 3.9707 16.0043 6.00001 16H9.00001C9.55229 16 10 15.5523 10 15ZM9.99999 11.0002C9.99999 11.5524 10.4477 12.0002 11 12.0002C11.5523 12.0002 12 11.5524 12 11.0002C12 10.4479 11.5523 10.0002 11 10.0002C10.4477 10.0002 9.99999 10.4479 9.99999 11.0002ZM14 18H9.00002C8.44773 18 8.00002 18.4477 8.00002 19C8.00002 19.5523 8.44773 20 9.00002 20H14C14.5523 20 15 20.4477 15 21C15 21.5523 15.4477 22 16 22C16.5523 22 17 21.5523 17 21C17 19.3432 15.6569 18 14 18Z" fill="#171E2B"/>
</svg>
