<svg width="24" height="24" viewBox="0 0 24 24" fill="none" xmlns="http://www.w3.org/2000/svg">
<path fill-rule="evenodd" clip-rule="evenodd" d="M18.42 7.22013C17.1642 4.33448 14.137 2.64162 11.021 3.08244C7.90493 3.52326 5.46612 5.98937 5.06002 9.11013C3.33948 9.52919 2.09925 11.0297 2.01151 12.7983C1.92377 14.567 3.0094 16.1828 4.68002 16.7701C4.78373 16.8021 4.8915 16.8189 5.00002 16.8201C5.5523 16.9085 6.07165 16.5324 6.16002 15.9801C6.24838 15.4278 5.8723 14.9085 5.32002 14.8201C4.5484 14.5416 4.02512 13.8201 4.00002 13.0001C4.00002 11.8956 4.89545 11.0001 6.00002 11.0001C6.5523 11.0001 7.00002 10.5524 7.00002 10.0001C7.00529 7.55782 8.77421 5.47671 11.1838 5.078C13.5933 4.6793 15.9383 6.07969 16.73 8.39013C16.8465 8.74027 17.1463 8.99781 17.51 9.06013C18.7414 9.28301 19.7051 10.2469 19.9278 11.4783C20.1505 12.7098 19.5854 13.9501 18.51 14.5901C18.0295 14.8663 17.8639 15.4796 18.14 15.9601C18.4162 16.4406 19.0295 16.6063 19.51 16.3301C21.0531 15.4344 22.002 13.7844 22 12.0001C21.9938 9.79085 20.5383 7.84756 18.42 7.22013ZM14.79 11.6602C14.0232 11.827 13.2217 11.6558 12.59 11.1902C12.2386 10.9334 11.7614 10.9334 11.41 11.1902C10.7789 11.657 9.97682 11.8283 9.21002 11.6602C8.91418 11.5963 8.60533 11.6698 8.37002 11.8602C8.13774 12.0486 8.002 12.3311 8.00002 12.6302V16.0002C7.99844 17.454 8.6798 18.8241 9.84002 19.7002L11.41 20.8502C11.7614 21.107 12.2386 21.107 12.59 20.8502L14.16 19.6902C15.3211 18.8194 16.0032 17.4516 16 16.0002V12.6302C15.998 12.3311 15.8623 12.0486 15.63 11.8602C15.3947 11.6698 15.0859 11.5963 14.79 11.6602ZM14 16C13.9822 16.7826 13.6154 17.5162 13 18L12 18.72L11 18C10.3847 17.5162 10.0178 16.7826 10 16V13.72C10.6994 13.6886 11.3829 13.5006 12 13.17C12.6172 13.5006 13.3006 13.6886 14 13.72V16Z" fill="#171E2B"/>
</svg>
