<svg width="24" height="24" viewBox="0 0 24 24" fill="none" xmlns="http://www.w3.org/2000/svg">
<path fill-rule="evenodd" clip-rule="evenodd" d="M21 9.00012H20.2C20.0966 8.55141 19.921 8.12249 19.68 7.73012L20.24 7.17012C20.5798 6.77336 20.5569 6.18193 20.1875 5.81256C19.8182 5.44319 19.2267 5.42035 18.83 5.76012L18.27 6.32012C17.8776 6.07913 17.4487 5.90351 17 5.80012V5.00012C17 4.44784 16.5523 4.00012 16 4.00012C15.4477 4.00012 15 4.44784 15 5.00012V5.80012C14.5539 5.90194 14.128 6.0777 13.74 6.32012L13.17 5.76012C12.7732 5.42035 12.1818 5.44319 11.8124 5.81256C11.443 6.18193 11.4202 6.77336 11.76 7.17012L12.32 7.74012C12.23 7.89012 12.16 8.06012 12.08 8.22012C11.5658 8.07499 11.0342 8.00097 10.5 8.00012C7.52102 7.99843 4.99193 10.1826 4.55998 13.1301C2.87716 13.602 1.80039 15.243 2.03732 16.9746C2.27425 18.7062 3.75225 19.9976 5.49998 20.0001H14.67C17.0614 20.0001 19 18.0615 19 15.6701C18.9991 15.1391 18.8973 14.6131 18.7 14.1201L18.83 14.2401C19.0162 14.4249 19.2676 14.529 19.53 14.5301C19.7958 14.5317 20.0513 14.4273 20.24 14.2401C20.6277 13.8501 20.6277 13.2202 20.24 12.8301L19.68 12.2701C19.921 11.8778 20.0966 11.4488 20.2 11.0001H21C21.5523 11.0001 22 10.5524 22 10.0001C22 9.44784 21.5523 9.00012 21 9.00012ZM14.67 18.0001H5.49998C4.67156 18.0001 3.99998 17.3285 3.99998 16.5001C3.99998 15.6717 4.67156 15.0001 5.49998 15.0001C6.05227 15.0001 6.49998 14.5524 6.49998 14.0001C6.50884 12.0504 7.92215 10.3911 9.84564 10.0721C11.7691 9.75319 13.6423 10.8675 14.28 12.7101C14.3965 13.0602 14.6963 13.3178 15.06 13.3801C16.2358 13.5999 17.0541 14.6744 16.9535 15.8664C16.8529 17.0583 15.866 17.9805 14.67 18.0001ZM17.67 11.65C17.4937 11.8159 17.2909 11.9511 17.07 12.05C16.7374 11.8335 16.3776 11.662 16 11.54C15.5405 10.5368 14.8184 9.67643 13.91 9.05002C14.0192 8.79351 14.1752 8.55954 14.37 8.36002C15.298 7.49993 16.7319 7.49993 17.66 8.36002C18.5516 9.27935 18.5516 10.7407 17.66 11.66L17.67 11.65Z" fill="#171E2B"/>
</svg>
