<svg width="24" height="24" viewBox="0 0 24 24" fill="none" xmlns="http://www.w3.org/2000/svg">
<path fill-rule="evenodd" clip-rule="evenodd" d="M11.29 12.2898C11.0016 12.5759 10.9149 13.008 11.0706 13.3833C11.2264 13.7585 11.5937 14.0021 12 13.9998H12.19C12.2562 13.9905 12.3205 13.9702 12.38 13.9398C12.4414 13.9198 12.499 13.8894 12.55 13.8498L12.7 13.7298C12.8893 13.542 12.9958 13.2864 12.9958 13.0198C12.9958 12.7531 12.8893 12.4975 12.7 12.3098C12.3155 11.9165 11.6855 11.9075 11.29 12.2898ZM12 15C11.4477 15 11 15.4477 11 16V19C11 19.5523 11.4477 20 12 20C12.5523 20 13 19.5523 13 19V16C13 15.4477 12.5523 15 12 15ZM18.42 8.21989C17.1642 5.33423 14.137 3.64138 11.021 4.0822C7.90492 4.52302 5.46611 6.98912 5.06001 10.1099C3.08649 10.5825 1.7796 12.458 2.01967 14.4731C2.25974 16.4882 3.9707 18.0042 6.00001 17.9999H8.00001C8.55229 17.9999 9.00001 17.5522 9.00001 16.9999C9.00001 16.4476 8.55229 15.9999 8.00001 15.9999H6.00001C4.89544 15.9999 4.00001 15.1045 4.00001 13.9999C4.00001 12.8953 4.89544 11.9999 6.00001 11.9999C6.55229 11.9999 7.00001 11.5522 7.00001 10.9999C7.00528 8.55757 8.7742 6.47646 11.1838 6.07776C13.5933 5.67906 15.9383 7.07945 16.73 9.38989C16.8465 9.74003 17.1463 9.99757 17.51 10.0599C18.9428 10.307 19.9921 11.546 20 12.9999C20 14.6567 18.6569 15.9999 17 15.9999H16C15.4477 15.9999 15 16.4476 15 16.9999C15 17.5522 15.4477 17.9999 16 17.9999H17C19.4663 17.9771 21.5476 16.1593 21.902 13.7185C22.2564 11.2777 20.778 8.94311 18.42 8.21989Z" fill="#171E2B"/>
</svg>
