<svg width="24" height="24" viewBox="0 0 24 24" fill="none" xmlns="http://www.w3.org/2000/svg">
<path fill-rule="evenodd" clip-rule="evenodd" d="M18.42 6.71989C17.1642 3.83423 14.137 2.14138 11.021 2.5822C7.9049 3.02302 5.46609 5.48913 5.05999 8.60989C3.33945 9.02895 2.09922 10.5294 2.01148 12.2981C1.92374 14.0667 3.00937 15.6826 4.67999 16.2699C4.7837 16.3018 4.89147 16.3187 4.99999 16.3199C5.55227 16.4083 6.07162 16.0322 6.15999 15.4799C6.24835 14.9276 5.87227 14.4083 5.31999 14.3199C4.54837 14.0414 4.02509 13.3199 3.99999 12.4999C3.99999 11.3953 4.89542 10.4999 5.99999 10.4999C6.55227 10.4999 6.99999 10.0522 6.99999 9.49989C7.00526 7.05758 8.77418 4.97647 11.1837 4.57776C13.5933 4.17906 15.9383 5.57945 16.73 7.88989C16.8465 8.24003 17.1463 8.49757 17.51 8.55989C18.7414 8.78277 19.7051 9.74663 19.9278 10.9781C20.1505 12.2095 19.5854 13.4499 18.51 14.0899C18.1992 14.2685 18.0073 14.5994 18.0065 14.9579C18.0058 15.3164 18.1964 15.648 18.5065 15.8279C18.8167 16.0078 19.1992 16.0085 19.51 15.8299C21.0531 14.9342 22.002 13.2841 22 11.4999C21.9937 9.29061 20.5383 7.34732 18.42 6.71989ZM15 15.7198V14.4998C15 12.8429 13.6568 11.4998 12 11.4998C10.3431 11.4998 8.99998 12.8429 8.99998 14.4998V15.6798C7.63501 16.175 6.82069 17.5768 7.06658 19.0079C7.31247 20.439 8.54797 21.4885 9.99998 21.4998H14C15.452 21.4885 16.6875 20.439 16.9334 19.0079C17.1793 17.5768 16.3649 16.175 15 15.6798V15.7198ZM11 14.5C11 13.9477 11.4477 13.5 12 13.5C12.5523 13.5 13 13.9477 13 14.5V15.5H11V14.5ZM14 19.4998H9.99998C9.4477 19.4998 8.99998 19.052 8.99998 18.4998C8.99998 17.9475 9.4477 17.4998 9.99998 17.4998H14C14.5523 17.4998 15 17.9475 15 18.4998C15 19.052 14.5523 19.4998 14 19.4998Z" fill="#171E2B"/>
</svg>
