<svg width="24" height="24" viewBox="0 0 24 24" fill="none" xmlns="http://www.w3.org/2000/svg">
<path fill-rule="evenodd" clip-rule="evenodd" d="M18.42 8.21989C17.1642 5.33423 14.137 3.64138 11.021 4.0822C7.90492 4.52302 5.46611 6.98912 5.06001 10.1099C3.08649 10.5825 1.7796 12.458 2.01967 14.4731C2.25974 16.4882 3.9707 18.0042 6.00001 17.9999C6.55229 17.9999 7.00001 17.5522 7.00001 16.9999C7.00001 16.4476 6.55229 15.9999 6.00001 15.9999C4.89544 15.9999 4.00001 15.1045 4.00001 13.9999C4.00001 12.8953 4.89544 11.9999 6.00001 11.9999C6.55229 11.9999 7.00001 11.5522 7.00001 10.9999C7.00528 8.55757 8.7742 6.47646 11.1838 6.07776C13.5933 5.67906 15.9383 7.07945 16.73 9.38989C16.8465 9.74003 17.1463 9.99757 17.51 10.0599C18.8815 10.3191 19.8931 11.4899 19.9504 12.8845C20.0077 14.2791 19.0956 15.529 17.75 15.8999C17.4035 15.9892 17.1309 16.2566 17.035 16.6014C16.939 16.9462 17.0343 17.3159 17.285 17.5714C17.5356 17.8269 17.9035 17.9292 18.25 17.8399C20.4124 17.2685 21.9323 15.3305 21.9718 13.0942C22.0114 10.8579 20.5609 8.86735 18.42 8.21989ZM14.71 14.2897C14.5222 14.1004 14.2666 13.9939 14 13.9939C13.7334 13.9939 13.4778 14.1004 13.29 14.2897L12 15.5897L10.71 14.2897C10.3179 13.8976 9.68213 13.8976 9.29001 14.2897C8.89789 14.6818 8.89789 15.3176 9.29001 15.7097L10.59 16.9997L9.29001 18.2897C9.1007 18.4775 8.99421 18.7331 8.99421 18.9997C8.99421 19.2663 9.1007 19.5219 9.29001 19.7097C9.47778 19.899 9.73337 20.0055 10 20.0055C10.2666 20.0055 10.5222 19.899 10.71 19.7097L12 18.4097L13.29 19.7097C13.4778 19.899 13.7334 20.0055 14 20.0055C14.2666 20.0055 14.5222 19.899 14.71 19.7097C14.8993 19.5219 15.0058 19.2663 15.0058 18.9997C15.0058 18.7331 14.8993 18.4775 14.71 18.2897L13.41 16.9997L14.71 15.7097C14.8993 15.5219 15.0058 15.2663 15.0058 14.9997C15.0058 14.7331 14.8993 14.4775 14.71 14.2897Z" fill="#171E2B"/>
</svg>
