<svg width="24" height="24" viewBox="0 0 24 24" fill="none" xmlns="http://www.w3.org/2000/svg">
<path fill-rule="evenodd" clip-rule="evenodd" d="M14.29 14.19L11 17.48L9.70998 16.19C9.52222 16.0007 9.26662 15.8942 8.99998 15.8942C8.73335 15.8942 8.47775 16.0007 8.28998 16.19C7.90226 16.58 7.90226 17.21 8.28998 17.6L10.29 19.6C10.4777 19.7893 10.7333 19.8958 11 19.8958C11.2666 19.8958 11.5222 19.7893 11.71 19.6L15.71 15.6C16.0977 15.21 16.0977 14.58 15.71 14.19C15.5222 14.0007 15.2666 13.8942 15 13.8942C14.7333 13.8942 14.4777 14.0007 14.29 14.19ZM18.42 8.31989C17.1627 5.43379 14.1336 3.74197 11.0169 4.18522C7.90016 4.62846 5.46275 7.09771 5.05998 10.2199C3.34751 10.6448 2.11569 12.1415 2.02816 13.9037C1.94062 15.6659 3.01805 17.2774 4.67998 17.8699C5.02894 18.053 5.4529 18.0141 5.7627 17.7705C6.0725 17.5269 6.21036 17.1241 6.11476 16.7418C6.01917 16.3595 5.70796 16.069 5.31998 15.9999C4.52115 15.7111 3.99186 14.9493 3.99998 14.0999C3.99998 12.9953 4.89541 12.0999 5.99998 12.0999C6.55226 12.0999 6.99998 11.6522 6.99998 11.0999C7.01009 8.65945 8.78051 6.58285 11.1886 6.18686C13.5968 5.79087 15.9389 7.19119 16.73 9.49989C16.8495 9.84614 17.1487 10.0993 17.51 10.1599C18.8815 10.4191 19.8931 11.5899 19.9504 12.9845C20.0077 14.3791 19.0956 15.629 17.75 15.9999C17.1977 16.0689 16.8059 16.5726 16.875 17.1249C16.944 17.6772 17.4477 18.0689 18 17.9999H18.25C20.4124 17.4285 21.9323 15.4905 21.9718 13.2542C22.0113 11.0179 20.5609 9.02735 18.42 8.37989V8.31989Z" fill="#171E2B"/>
</svg>
