<svg width="24" height="24" viewBox="0 0 24 24" fill="none" xmlns="http://www.w3.org/2000/svg">
<path fill-rule="evenodd" clip-rule="evenodd" d="M21 20H18C17.4477 20 17 19.5523 17 19V16C19.4663 15.9773 21.5476 14.1595 21.902 11.7187C22.2563 9.27785 20.778 6.94323 18.42 6.22001C17.1642 3.33435 14.137 1.6415 11.0209 2.08232C7.90489 2.52314 5.46608 4.98925 5.05998 8.11001C3.08646 8.58262 1.77957 10.4582 2.01964 12.4732C2.25971 14.4883 3.97067 16.0043 5.99998 16H6.99998V19C6.99998 19.5523 6.55226 20 5.99998 20H2.99998C2.44769 20 1.99998 20.4477 1.99998 21C1.99998 21.5523 2.44769 22 2.99998 22H5.99998C7.65683 22 8.99998 20.6569 8.99998 19V16H11V21C11 21.5523 11.4477 22 12 22C12.5523 22 13 21.5523 13 21V16H15V19C15 20.6569 16.3431 22 18 22H21C21.5523 22 22 21.5523 22 21C22 20.4477 21.5523 20 21 20ZM5.99995 13.9999C4.89538 13.9999 3.99995 13.1044 3.99995 11.9999C3.99995 10.8953 4.89538 9.99986 5.99995 9.99986C6.55224 9.99986 6.99995 9.55214 6.99995 8.99986C7.00523 6.55755 8.77415 4.47643 11.1837 4.07773C13.5933 3.67903 15.9383 5.07942 16.73 7.38986C16.8464 7.74 17.1463 7.99754 17.51 8.05986C18.9427 8.307 19.992 9.54596 20 10.9999C20 12.6567 18.6568 13.9999 17 13.9999H5.99995Z" fill="#171E2B"/>
</svg>
