<svg width="24" height="24" viewBox="0 0 24 24" fill="none" xmlns="http://www.w3.org/2000/svg">
<path fill-rule="evenodd" clip-rule="evenodd" d="M18.42 8.21989C17.1642 5.33423 14.137 3.64138 11.021 4.0822C7.90492 4.52302 5.46611 6.98912 5.06001 10.1099C3.08649 10.5825 1.7796 12.458 2.01967 14.4731C2.25974 16.4882 3.9707 18.0042 6.00001 17.9999H8.00001C8.55229 17.9999 9.00001 17.5522 9.00001 16.9999C9.00001 16.4476 8.55229 15.9999 8.00001 15.9999H6.00001C4.89544 15.9999 4.00001 15.1045 4.00001 13.9999C4.00001 12.8953 4.89544 11.9999 6.00001 11.9999C6.55229 11.9999 7.00001 11.5522 7.00001 10.9999C7.00528 8.55757 8.7742 6.47646 11.1838 6.07776C13.5933 5.67906 15.9383 7.07945 16.73 9.38989C16.8465 9.74003 17.1463 9.99757 17.51 10.0599C18.9428 10.307 19.9921 11.546 20 12.9999C20 14.6567 18.6569 15.9999 17 15.9999C16.4477 15.9999 16 16.4476 16 16.9999C16 17.5522 16.4477 17.9999 17 17.9999C19.4663 17.9771 21.5476 16.1593 21.902 13.7185C22.2564 11.2777 20.778 8.94311 18.42 8.21989ZM12.92 18.6197C12.9 18.5583 12.8696 18.5008 12.83 18.4497L12.71 18.2897C12.6128 18.2014 12.5012 18.1304 12.38 18.0797C12.0076 17.9231 11.5776 18.006 11.29 18.2897L11.17 18.4497C11.1304 18.5008 11.1 18.5583 11.08 18.6197C11.0512 18.6764 11.031 18.7371 11.02 18.7997C11.0156 18.8663 11.0156 18.9331 11.02 18.9997C11.0151 19.063 11.0151 19.1265 11.02 19.1897C11.0293 19.256 11.0496 19.3202 11.08 19.3797C11.1 19.4412 11.1304 19.4987 11.17 19.5497L11.29 19.7097C11.4816 19.8925 11.7352 19.996 12 19.9997C12.1307 19.9981 12.2598 19.971 12.38 19.9197C12.5012 19.8691 12.6128 19.7981 12.71 19.7097L12.83 19.5497C12.8696 19.4987 12.9 19.4412 12.92 19.3797C12.9505 19.3202 12.9707 19.256 12.98 19.1897C12.9916 19.127 12.9983 19.0635 13 18.9997C13.0045 18.9331 13.0045 18.8663 13 18.7997C12.9828 18.736 12.9558 18.6752 12.92 18.6197ZM12 10.9999C10.9275 10.9992 9.93625 11.5711 9.40001 12.4999C9.26647 12.7304 9.23043 13.0047 9.29989 13.2619C9.36935 13.5191 9.53857 13.7379 9.77001 13.8699C10.248 14.1413 10.8554 13.976 11.13 13.4999C11.3094 13.1893 11.6413 12.9985 12 12.9999C12.5523 12.9999 13 13.4476 13 13.9999C13 14.5522 12.5523 14.9999 12 14.9999C11.4477 14.9999 11 15.4476 11 15.9999C11 16.5522 11.4477 16.9999 12 16.9999C13.6569 16.9999 15 15.6567 15 13.9999C15 12.343 13.6569 10.9999 12 10.9999Z" fill="#171E2B"/>
</svg>
