<svg width="24" height="24" viewBox="0 0 24 24" fill="none" xmlns="http://www.w3.org/2000/svg">
<path fill-rule="evenodd" clip-rule="evenodd" d="M14.29 17.29L13 18.59V13C13 12.4477 12.5523 12 12 12C11.4477 12 11 12.4477 11 13V18.59L9.71001 17.29C9.45635 17.0364 9.08664 16.9373 8.74013 17.0301C8.39363 17.123 8.12298 17.3936 8.03013 17.7401C7.93729 18.0866 8.03635 18.4564 8.29001 18.71L11.29 21.71C11.3851 21.8011 11.4973 21.8724 11.62 21.92C11.8621 22.027 12.138 22.027 12.38 21.92C12.5028 21.8724 12.6149 21.8011 12.71 21.71L15.71 18.71C15.9637 18.4564 16.0627 18.0866 15.9699 17.7401C15.877 17.3936 15.6064 17.123 15.2599 17.0301C14.9134 16.9373 14.5437 17.0364 14.29 17.29ZM18.42 6.22001C17.1642 3.33435 14.137 1.6415 11.021 2.08232C7.90492 2.52314 5.46611 4.98925 5.06001 8.11001C3.08649 8.58262 1.7796 10.4582 2.01967 12.4732C2.25974 14.4883 3.9707 16.0043 6.00001 16C6.55229 16 7.00001 15.5523 7.00001 15C7.00001 14.4477 6.55229 14 6.00001 14C4.89544 14 4.00001 13.1046 4.00001 12C4.00001 10.8954 4.89544 10 6.00001 10C6.26522 10 6.51958 9.89465 6.70711 9.70712C6.89465 9.51958 7.00001 9.26523 7.00001 9.00001C7.00528 6.5577 8.7742 4.47659 11.1838 4.07788C13.5933 3.67918 15.9383 5.07957 16.73 7.39001C16.8465 7.74015 17.1463 7.99769 17.51 8.06001C18.8815 8.31919 19.8931 9.49004 19.9504 10.8847C20.0077 12.2793 19.0956 13.5292 17.75 13.9C17.4035 13.9893 17.1309 14.2567 17.035 14.6015C16.939 14.9463 17.0343 15.3161 17.285 15.5715C17.5356 15.827 17.9035 15.9293 18.25 15.84C20.4124 15.2686 21.9323 13.3306 21.9718 11.0943C22.0114 8.85798 20.5609 6.86747 18.42 6.22001Z" fill="#171E2B"/>
</svg>
