<svg width="24" height="24" viewBox="0 0 24 24" fill="none" xmlns="http://www.w3.org/2000/svg">
<path fill-rule="evenodd" clip-rule="evenodd" d="M9.20999 16.2898C9.11488 16.1988 9.00274 16.1274 8.87999 16.0798C8.50759 15.9232 8.07755 16.0061 7.78999 16.2898C7.70166 16.387 7.63063 16.4987 7.57999 16.6198C7.52401 16.7385 7.49661 16.8687 7.49999 16.9998C7.50164 17.3324 7.66854 17.6424 7.94527 17.8269C8.22201 18.0114 8.57235 18.0462 8.87999 17.9198C9.00117 17.8692 9.11279 17.7982 9.20999 17.7098C9.49373 17.4223 9.57658 16.9922 9.41999 16.6198C9.36935 16.4987 9.29832 16.387 9.20999 16.2898ZM9.21 20.29C9.1128 20.2016 9.00118 20.1306 8.88 20.08C8.5076 19.9234 8.07756 20.0062 7.79 20.29C7.70166 20.3872 7.63064 20.4988 7.58 20.62C7.40164 21.0387 7.52847 21.525 7.88859 21.8032C8.24871 22.0814 8.75128 22.0814 9.1114 21.8032C9.47152 21.525 9.59836 21.0387 9.42 20.62C9.36936 20.4988 9.29833 20.3872 9.21 20.29ZM13.06 14.1699L12.88 14.0799L12.7 13.9999C12.505 13.9618 12.3031 13.9827 12.12 14.0599C11.9963 14.1057 11.8839 14.1773 11.79 14.2699C11.6028 14.4586 11.4985 14.7141 11.5 14.9799C11.4985 15.2457 11.6028 15.5011 11.79 15.6899C11.8872 15.7782 11.9988 15.8492 12.12 15.8999C12.362 16.0068 12.6379 16.0068 12.88 15.8999C13.0012 15.8492 13.1128 15.7782 13.21 15.6899C13.3923 15.5061 13.4963 15.2587 13.5 14.9999C13.4963 14.7351 13.3927 14.4815 13.21 14.2899L13.06 14.1699ZM13.21 18.2897C12.9224 18.006 12.4924 17.9231 12.12 18.0797C11.8688 18.1706 11.6709 18.3685 11.58 18.6197C11.4234 18.9921 11.5062 19.4222 11.79 19.7097C11.8872 19.798 11.9988 19.8691 12.12 19.9197C12.362 20.0267 12.638 20.0267 12.88 19.9197C13.0012 19.8691 13.1128 19.798 13.21 19.7097C13.4937 19.4222 13.5766 18.9921 13.42 18.6197C13.3694 18.4985 13.2983 18.3869 13.21 18.2897ZM21.7 7.06989C21.453 6.82595 21.0972 6.72753 20.76 6.80989C20.5469 6.8602 20.3289 6.88703 20.11 6.88989C18.4531 6.88989 17.11 5.54675 17.11 3.88989C17.1129 3.67095 17.1397 3.45299 17.19 3.23989C17.2837 2.90005 17.1916 2.53596 16.9475 2.28161C16.7034 2.02726 16.3434 1.92022 16 1.99989C13.9604 2.4502 12.4259 4.13691 12.17 6.20989C11.6254 6.06479 11.0636 5.99415 10.5 5.99989C7.52103 5.9982 4.99194 8.18241 4.55999 11.1299C3.13302 11.5272 2.11071 12.7799 2.00741 14.2575C1.90411 15.7352 2.74219 17.1179 4.09999 17.7099C4.22743 17.7604 4.36293 17.7875 4.49999 17.7899C4.97672 17.7938 5.3899 17.4606 5.48713 16.9939C5.58437 16.5272 5.33861 16.0567 4.89999 15.8699C4.3514 15.6362 3.99662 15.0962 3.99999 14.4999C3.99999 13.6715 4.67157 12.9999 5.49999 12.9999C6.05228 12.9999 6.49999 12.5522 6.49999 11.9999C6.49999 9.79075 8.29085 7.99989 10.5 7.99989C11.2782 8.00547 12.0383 8.23456 12.69 8.65989C13.4207 9.13644 13.9755 9.83878 14.27 10.6599C14.3865 11.01 14.6863 11.2676 15.05 11.3299C16.0319 11.4435 16.834 12.1668 17.0482 13.1318C17.2624 14.0968 16.8416 15.0915 16 15.6099C15.6999 15.8064 15.5274 16.1481 15.5475 16.5062C15.5677 16.8644 15.7773 17.1846 16.0975 17.3462C16.4178 17.5079 16.7999 17.4864 17.1 17.2899C18.2976 16.4758 19.0103 15.118 19 13.6699C19.0039 12.973 18.8356 12.286 18.51 11.6699C20.2596 11.1813 21.5999 9.77186 22 7.99989C22.0686 7.65881 21.955 7.3066 21.7 7.06989ZM17.11 9.88987C16.9702 9.9007 16.8298 9.9007 16.69 9.88987C16.4702 9.75404 16.2394 9.63696 16 9.53987C15.5881 8.64301 14.9633 7.86033 14.18 7.25987C14.18 7.13987 14.18 7.00987 14.18 6.88987C14.1799 6.01294 14.5636 5.17988 15.23 4.60987C15.548 6.80087 17.269 8.52188 19.46 8.83987C18.8742 9.5252 18.0113 9.91076 17.11 9.88987Z" fill="#171E2B"/>
</svg>
