<svg width="24" height="24" viewBox="0 0 24 24" fill="none" xmlns="http://www.w3.org/2000/svg">
<path fill-rule="evenodd" clip-rule="evenodd" d="M21.7 9.06987C21.4551 8.82935 21.1041 8.7312 20.77 8.80987C20.5534 8.85989 20.3322 8.88671 20.11 8.88987C18.4531 8.88987 17.11 7.54672 17.11 5.88987C17.1131 5.66765 17.14 5.4464 17.19 5.22987C17.2687 4.89579 17.1705 4.54471 16.93 4.29987C16.6933 4.0449 16.3411 3.93128 16 3.99987C13.9604 4.45017 12.4259 6.13689 12.17 8.20987C11.6254 8.06477 11.0636 7.99413 10.5 7.99987C7.52102 7.99818 4.99193 10.1824 4.55998 13.1299C2.87716 13.6018 1.80039 15.2427 2.03732 16.9743C2.27425 18.7059 3.75225 19.9974 5.49998 19.9999H14.67C17.0614 19.9999 19 18.0613 19 15.6699C19.0039 14.973 18.8356 14.286 18.51 13.6699C20.2596 13.1813 21.5999 11.7718 22 9.99987C22.0686 9.65879 21.9549 9.30658 21.7 9.06987ZM14.7 17.9998H5.49998C4.67156 17.9998 3.99998 17.3282 3.99998 16.4998C3.99998 15.6713 4.67156 14.9998 5.49998 14.9998C6.05227 14.9998 6.49998 14.5521 6.49998 13.9998C6.50501 12.5354 7.30985 11.1908 8.59813 10.4945C9.88642 9.79829 11.4522 9.86167 12.68 10.6598C13.41 11.1346 13.9621 11.8379 14.25 12.6598C14.3665 13.0099 14.6663 13.2675 15.03 13.3298C16.3196 13.4292 17.2844 14.5552 17.185 15.8448C17.0856 17.1344 15.9596 18.0992 14.67 17.9998H14.7ZM17.14 11.8899C17.0002 11.9011 16.8597 11.9011 16.72 11.8899C16.4892 11.7662 16.2484 11.6625 16 11.5799C15.588 10.683 14.9632 9.90031 14.18 9.29986C14.18 9.17986 14.18 9.04986 14.18 8.92986C14.1799 8.05292 14.5636 7.21987 15.23 6.64986C15.548 8.84086 17.269 10.5619 19.46 10.8799C18.8666 11.5503 18.0048 11.9207 17.11 11.8899H17.14Z" fill="#171E2B"/>
</svg>
