<svg width="24" height="24" viewBox="0 0 24 24" fill="none" xmlns="http://www.w3.org/2000/svg">
<path fill-rule="evenodd" clip-rule="evenodd" d="M8.5 5.94016C10.6712 4.71 13.3288 4.71 15.5 5.94016C15.7305 6.0737 16.0048 6.10974 16.262 6.04028C16.5192 5.97082 16.7381 5.8016 16.87 5.57016C17.1414 5.09218 16.9761 4.48477 16.5 4.21016C13.7079 2.63079 10.2921 2.63079 7.5 4.21016C7.02386 4.48477 6.85861 5.09218 7.13 5.57016C7.26195 5.8016 7.4808 5.97082 7.738 6.04028C7.99519 6.10974 8.26948 6.0737 8.5 5.94016ZM18.42 11.2103C18.3161 10.9658 18.1958 10.7286 18.06 10.5003C17.9214 10.2729 17.6977 10.1101 17.4387 10.0482C17.1796 9.98624 16.9065 10.0302 16.68 10.1703C16.2123 10.4588 16.0649 11.0706 16.35 11.5403C16.5046 11.8068 16.6319 12.0883 16.73 12.3803C16.8465 12.7305 17.1463 12.988 17.51 13.0503C18.9465 13.2981 19.9969 14.5427 20 16.0003C20 17.6572 18.6569 19.0003 17 19.0003H5.66C4.824 18.8717 4.15933 18.231 4 17.4003C3.87833 16.8049 4.034 16.1864 4.42307 15.7196C4.81213 15.2527 5.39238 14.988 6 15.0003C6.55229 15.0003 7 14.5526 7 14.0003C6.99799 13.1255 7.22927 12.266 7.67 11.5103C7.80355 11.2798 7.83959 11.0055 7.77012 10.7483C7.70066 10.4911 7.53144 10.2723 7.3 10.1403C6.82202 9.86895 6.21461 10.0342 5.94 10.5103C5.47169 11.3076 5.17216 12.1925 5.06 13.1103C4.22564 13.3135 3.47883 13.7799 2.93 14.4403C1.97909 15.557 1.71558 17.1046 2.24336 18.473C2.77113 19.8415 4.00553 20.8113 5.46 21.0003H5.59H17C19.4789 20.9935 21.5786 19.1714 21.9344 16.7181C22.2903 14.2648 20.7948 11.9212 18.42 11.2103ZM14.87 9.00022C14.87 9.00022 14.87 9.00022 14.87 8.94022C14.9218 8.87947 14.9655 8.81224 15 8.74022C15.1972 8.22663 14.9425 7.65022 14.43 7.45022C13.8707 7.24256 13.285 7.11464 12.69 7.07022C12.59 7.07022 12.49 7.07022 12.39 7.07022C12.1204 7.0502 11.8496 7.0502 11.58 7.07022C11.4767 7.06487 11.3733 7.06487 11.27 7.07022C10.675 7.11464 10.0893 7.24256 9.53 7.45022C9.03316 7.66576 8.7982 8.23764 9 8.74022C9.03407 8.80711 9.07424 8.87071 9.12 8.93022C9.11669 8.96681 9.11669 9.00362 9.12 9.04022C9.25363 9.26996 9.47322 9.43706 9.73027 9.5046C9.98732 9.57215 10.2607 9.53459 10.49 9.40022C11.4224 8.88029 12.5576 8.88029 13.49 9.40022C13.7251 9.53463 14.0046 9.56794 14.2647 9.49255C14.5248 9.41716 14.7432 9.23951 14.87 9.00022ZM11 12.0003C11 12.5525 11.4477 13.0003 12 13.0003C12.5523 13.0003 13 12.5525 13 12.0003C13 11.448 12.5523 11.0003 12 11.0003C11.4477 11.0003 11 11.448 11 12.0003Z" fill="#171E2B"/>
</svg>
