<svg width="24" height="24" viewBox="0 0 24 24" fill="none" xmlns="http://www.w3.org/2000/svg">
<path fill-rule="evenodd" clip-rule="evenodd" d="M14.5 15.9202H13.73L14.12 15.2502C14.3962 14.7697 14.2305 14.1563 13.75 13.8802C13.2695 13.604 12.6562 13.7697 12.38 14.2502L12 14.9202L11.62 14.2502C11.3439 13.7697 10.7305 13.604 10.25 13.8802C9.76953 14.1563 9.60387 14.7697 9.88001 15.2502L10.27 15.9202H9.50001C8.94773 15.9202 8.50001 16.3679 8.50001 16.9202C8.50001 17.4725 8.94773 17.9202 9.50001 17.9202H10.27L9.88001 18.5802C9.60387 19.0607 9.76953 19.674 10.25 19.9502C10.7305 20.2263 11.3439 20.0607 11.62 19.5802L12 18.9202L12.38 19.5802C12.6562 20.0607 13.2695 20.2263 13.75 19.9502C14.2305 19.674 14.3962 19.0607 14.12 18.5802L13.73 17.9202H14.5C15.0523 17.9202 15.5 17.4725 15.5 16.9202C15.5 16.3679 15.0523 15.9202 14.5 15.9202ZM18.42 8.13004C17.167 5.24525 14.1439 3.5503 11.0291 3.98628C7.91436 4.42225 5.47277 6.8821 5.06001 10C3.25301 10.4369 1.98514 12.061 2.00001 13.92C2.0074 15.8687 3.41801 17.5285 5.34001 17.85H5.50001C6.05229 17.8942 6.53582 17.4823 6.58001 16.93C6.62419 16.3778 6.21229 15.8942 5.66001 15.85C4.68986 15.6828 3.9857 14.8344 4.00001 13.85C4.00001 12.7455 4.89544 11.85 6.00001 11.85C6.55229 11.85 7.00001 11.4023 7.00001 10.85C7.00528 8.40772 8.7742 6.32661 11.1838 5.92791C13.5933 5.52921 15.9383 6.9296 16.73 9.24004C16.8495 9.58629 17.1488 9.83949 17.51 9.90004C18.8177 10.1375 19.8132 11.2071 19.9564 12.5285C20.0997 13.8498 19.3564 15.1079 18.13 15.62C17.7683 15.7295 17.4991 16.0337 17.4345 16.406C17.3698 16.7784 17.5206 17.1555 17.8243 17.3805C18.1279 17.6056 18.5325 17.6402 18.87 17.47C20.8262 16.6663 22.0652 14.7188 21.9642 12.6063C21.8632 10.4938 20.444 8.67339 18.42 8.06004V8.13004Z" fill="#171E2B"/>
</svg>
