<svg width="24" height="24" viewBox="0 0 24 24" fill="none" xmlns="http://www.w3.org/2000/svg">
<path fill-rule="evenodd" clip-rule="evenodd" d="M21 18.4999H14.82C14.5176 17.6506 13.8493 16.9823 13 16.6799V13.4999H16.17C18.3615 13.5719 20.2609 11.9944 20.5924 9.82687C20.9239 7.65938 19.5828 5.58622 17.47 4.99991C16.3714 2.56578 13.7963 1.15071 11.1526 1.52838C8.50894 1.90605 6.43306 3.98555 6.06 6.62991C4.37718 7.10181 3.30041 8.74279 3.53734 10.4744C3.77427 12.206 5.25227 13.4974 7 13.4999H11V16.6799C10.1507 16.9823 9.48238 17.6506 9.18 18.4999H3C2.44772 18.4999 2 18.9476 2 19.4999C2 20.0522 2.44772 20.4999 3 20.4999H9.18C9.61062 21.6864 10.7378 22.4764 12 22.4764C13.2622 22.4764 14.3894 21.6864 14.82 20.4999H21C21.5523 20.4999 22 20.0522 22 19.4999C22 18.9476 21.5523 18.4999 21 18.4999ZM7.00001 11.4998C6.17159 11.4998 5.50002 10.8282 5.50002 9.99978C5.50002 9.17135 6.17159 8.49978 7.00001 8.49978C7.5523 8.49978 8.00002 8.05207 8.00002 7.49978C7.99461 5.53869 9.41176 3.86289 11.3465 3.5425C13.2813 3.22211 15.163 4.35163 15.79 6.20978C15.9065 6.55992 16.2063 6.81746 16.57 6.87978C17.6881 7.06623 18.5056 8.03632 18.5 9.16978C18.4945 10.4543 17.4546 11.4943 16.17 11.4998H7.00001ZM12 20.4999C11.4477 20.4999 11 20.0521 11 19.4999C11 18.9476 11.4477 18.4999 12 18.4999C12.5523 18.4999 13 18.9476 13 19.4999C13 20.0521 12.5523 20.4999 12 20.4999Z" fill="#171E2B"/>
</svg>
