<svg width="24" height="24" viewBox="0 0 24 24" fill="none" xmlns="http://www.w3.org/2000/svg">
<path fill-rule="evenodd" clip-rule="evenodd" d="M12.56 12.6699C12.2217 12.4413 11.7783 12.4413 11.44 12.6699C11.33 12.7499 8.75002 14.5299 8.75002 17.2499C8.75002 19.0449 10.2051 20.4999 12 20.4999C13.7949 20.4999 15.25 19.0449 15.25 17.2499C15.25 14.4999 12.67 12.7399 12.56 12.6699ZM12 18.5001C11.3097 18.5001 10.75 17.9405 10.75 17.2501C10.8323 16.302 11.2807 15.4232 12 14.8001C12.7237 15.4199 13.173 16.3005 13.25 17.2501C13.25 17.9405 12.6904 18.5001 12 18.5001ZM18.42 7.72001C17.1642 4.83435 14.137 3.1415 11.021 3.58232C7.90493 4.02314 5.46612 6.48925 5.06001 9.61001C3.15824 10.0767 1.8739 11.8515 2.02522 13.8039C2.17655 15.7562 3.71904 17.312 5.67001 17.48H5.75001C6.27251 17.4817 6.70822 17.0808 6.75001 16.56C6.7721 16.2946 6.68741 16.0314 6.5147 15.8286C6.342 15.6259 6.09556 15.5004 5.83001 15.48C4.79996 15.3922 4.00661 14.5338 4.00001 13.5C4.00001 12.3954 4.89544 11.5 6.00001 11.5C6.5523 11.5 7.00001 11.0523 7.00001 10.5C7.00529 8.0577 8.77421 5.97659 11.1838 5.57788C13.5933 5.17918 15.9383 6.57957 16.73 8.89001C16.8465 9.24015 17.1463 9.49769 17.51 9.56001C18.8531 9.80565 19.8609 10.9272 19.962 12.2889C20.0632 13.6505 19.2321 14.9087 17.94 15.35C17.4354 15.5358 17.1681 16.0874 17.3349 16.5986C17.5017 17.1098 18.0429 17.3976 18.56 17.25C20.6264 16.5603 22.0084 14.612 21.9764 12.4338C21.9444 10.2556 20.5058 8.34875 18.42 7.72001Z" fill="#171E2B"/>
</svg>
