<svg width="24" height="24" viewBox="0 0 24 24" fill="none" xmlns="http://www.w3.org/2000/svg">
<path fill-rule="evenodd" clip-rule="evenodd" d="M18.42 7.72001C17.1642 4.83435 14.137 3.1415 11.021 3.58232C7.90492 4.02314 5.46611 6.48925 5.06 9.61001C3.33946 10.0291 2.09924 11.5295 2.0115 13.2982C1.92376 15.0669 3.00939 16.6827 4.68 17.27C4.78371 17.302 4.89149 17.3188 5 17.32C5.55229 17.4084 6.07164 17.0323 6.16 16.48C6.24837 15.9277 5.87229 15.4084 5.32 15.32C4.54838 15.0415 4.0251 14.32 4 13.5C4 12.3954 4.89543 11.5 6 11.5C6.55229 11.5 7 11.0523 7 10.5C7.00528 8.0577 8.7742 5.97659 11.1838 5.57788C13.5933 5.17918 15.9383 6.57957 16.73 8.89001C16.8465 9.24015 17.1463 9.49769 17.51 9.56001C18.7414 9.78289 19.7051 10.7468 19.9278 11.9782C20.1505 13.2097 19.5854 14.45 18.51 15.09C18.0295 15.3661 17.8639 15.9795 18.14 16.46C18.4161 16.9405 19.0295 17.1061 19.51 16.83C21.0531 15.9343 22.002 14.2842 22 12.5C21.9938 10.2907 20.5383 8.34744 18.42 7.72001ZM12 12.8301C10.8632 12.2411 9.47595 12.4554 8.56998 13.3601C7.43482 14.5028 7.43482 16.3474 8.56998 17.4901L11.29 20.2101C11.4778 20.3994 11.7333 20.5059 12 20.5059C12.2666 20.5059 12.5222 20.3994 12.71 20.2101L15.43 17.4901C16.5652 16.3474 16.5652 14.5028 15.43 13.3601C14.524 12.4554 13.1368 12.2411 12 12.8301ZM14 16.0698L12 18.0698L10 16.0698C9.82351 15.9002 9.72567 15.6646 9.73001 15.4198C9.72687 15.1753 9.82452 14.9402 10 14.7698C10.3592 14.4113 10.9408 14.4113 11.3 14.7698C11.4878 14.9591 11.7434 15.0656 12.01 15.0656C12.2766 15.0656 12.5322 14.9591 12.72 14.7698C13.0835 14.4219 13.6565 14.4219 14.02 14.7698C14.1955 14.9402 14.2931 15.1753 14.29 15.4198C14.2892 15.6677 14.1839 15.9037 14 16.0698Z" fill="#171E2B"/>
</svg>
