<svg width="24" height="24" viewBox="0 0 24 24" fill="none" xmlns="http://www.w3.org/2000/svg">
<path fill-rule="evenodd" clip-rule="evenodd" d="M7.99999 13.0001C7.4477 13.0001 6.99999 13.4478 6.99999 14.0001V19.0001C6.99999 19.5524 7.4477 20.0001 7.99999 20.0001C8.55227 20.0001 8.99998 19.5524 8.99998 19.0001V14.0001C8.99998 13.4478 8.55227 13.0001 7.99999 13.0001ZM12 10.9999C11.4477 10.9999 11 11.4476 11 11.9999V20.9999C11 21.5522 11.4477 21.9999 12 21.9999C12.5523 21.9999 13 21.5522 13 20.9999V11.9999C13 11.4476 12.5523 10.9999 12 10.9999ZM18.42 6.22001C17.1642 3.33435 14.137 1.6415 11.021 2.08232C7.90491 2.52314 5.4661 4.98925 5.05999 8.11001C3.26393 8.54424 1.99906 10.1522 1.99999 12C1.99638 13.1458 2.48427 14.2381 3.33999 15C3.60516 15.2547 3.9887 15.3433 4.33873 15.2308C4.68876 15.1183 4.94882 14.8228 5.01592 14.4613C5.08302 14.0998 4.94633 13.7306 4.65999 13.5C4.23584 13.1172 3.99564 12.5713 3.99999 12C3.99999 10.8954 4.89542 10 5.99999 10C6.55227 10 6.99999 9.55229 6.99999 9.00001C7.00526 6.5577 8.77418 4.47659 11.1837 4.07788C13.5933 3.67918 15.9383 5.07957 16.73 7.39001C16.8465 7.74015 17.1463 7.99769 17.51 8.06001C18.9428 8.30716 19.9921 9.54611 20 11C20.0153 11.7363 19.7508 12.451 19.26 13C18.9286 13.4127 18.9761 14.0122 19.3685 14.3675C19.7609 14.7227 20.3621 14.7107 20.74 14.34C21.8592 13.061 22.2521 11.301 21.7831 9.66745C21.314 8.03387 20.0473 6.75042 18.42 6.26001V6.22001ZM16 13.0001C15.4477 13.0001 15 13.4478 15 14.0001V19.0001C15 19.5524 15.4477 20.0001 16 20.0001C16.5523 20.0001 17 19.5524 17 19.0001V14.0001C17 13.4478 16.5523 13.0001 16 13.0001Z" fill="#171E2B"/>
</svg>
