<svg width="24" height="24" viewBox="0 0 24 24" fill="none" xmlns="http://www.w3.org/2000/svg">
<path fill-rule="evenodd" clip-rule="evenodd" d="M15 12.4999C14.6047 12.5025 14.2481 12.7376 14.09 13.0999C12.3388 12.0193 10.0535 12.4437 8.80698 14.081C7.56047 15.7182 7.75949 18.034 9.26706 19.4346C10.7746 20.8351 13.0988 20.8634 14.64 19.4999C14.9263 19.2693 15.063 18.9001 14.9959 18.5386C14.9288 18.1771 14.6688 17.8816 14.3187 17.7691C13.9687 17.6565 13.5852 17.7452 13.32 17.9999C12.9554 18.3214 12.4861 18.4992 12 18.4999C11.1678 18.4865 10.4308 17.959 10.1497 17.1756C9.86862 16.3921 10.1021 15.5165 10.736 14.977C11.3699 14.4376 12.2716 14.3471 13 14.7499H12.78C12.2277 14.7499 11.78 15.1976 11.78 15.7499C11.78 16.3022 12.2277 16.7499 12.78 16.7499H15C15.5523 16.7499 16 16.3022 16 15.7499V13.4999C16 12.9476 15.5523 12.4999 15 12.4999ZM18.42 7.72001C17.1642 4.83435 14.137 3.1415 11.021 3.58232C7.9049 4.02314 5.46609 6.48925 5.05999 9.61001C3.33945 10.0291 2.09922 11.5295 2.01148 13.2982C1.92374 15.0669 3.00937 16.6827 4.67999 17.27C4.7837 17.302 4.89147 17.3188 4.99999 17.32C5.55227 17.4084 6.07162 17.0323 6.15999 16.48C6.24835 15.9277 5.87227 15.4084 5.31999 15.32C4.54837 15.0415 4.02509 14.32 3.99999 13.5C3.99999 12.3954 4.89542 11.5 5.99999 11.5C6.55227 11.5 6.99999 11.0523 6.99999 10.5C7.00526 8.0577 8.77418 5.97659 11.1837 5.57788C13.5933 5.17918 15.9383 6.57957 16.73 8.89001C16.8465 9.24015 17.1463 9.49769 17.51 9.56001C18.7414 9.78289 19.7051 10.7468 19.9278 11.9782C20.1505 13.2097 19.5854 14.45 18.51 15.09C18.0295 15.3661 17.8638 15.9795 18.14 16.46C18.4161 16.9405 19.0295 17.1061 19.51 16.83C21.0531 15.9343 22.002 14.2842 22 12.5C21.9937 10.2907 20.5383 8.34744 18.42 7.72001Z" fill="#171E2B"/>
</svg>
