<svg width="24" height="24" viewBox="0 0 24 24" fill="none" xmlns="http://www.w3.org/2000/svg">
<path fill-rule="evenodd" clip-rule="evenodd" d="M16.71 16.2901L3.71002 3.29006C3.31789 2.89794 2.68214 2.89794 2.29002 3.29006C1.89789 3.68219 1.89789 4.31794 2.29002 4.71006L5.65002 8.06006C5.3546 8.69353 5.15573 9.36768 5.06002 10.0601C2.92812 10.3857 1.43818 12.3428 1.69173 14.4845C1.94528 16.6261 3.85101 18.1812 6.00002 18.0001H15.59L18.29 20.7101C18.4778 20.8994 18.7334 21.0059 19 21.0059C19.2667 21.0059 19.5222 20.8994 19.71 20.7101C19.8993 20.5223 20.0058 20.2667 20.0058 20.0001C20.0058 19.7334 19.8993 19.4778 19.71 19.2901L16.71 16.2901ZM6.00001 16.0002C4.89544 16.0002 4.00001 15.1047 4.00001 14.0002C4.00001 12.8956 4.89544 12.0002 6.00001 12.0002C6.5523 12.0002 7.00001 11.5524 7.00001 11.0002C7.00096 10.5297 7.06829 10.0618 7.20001 9.61016L13.59 16.0002H6.00001ZM18.42 8.21991C17.3121 5.65963 14.7897 4.00162 12 3.99991C11.2092 3.9961 10.4239 4.1315 9.68002 4.39991C9.20731 4.61347 8.97637 5.15303 9.14819 5.64247C9.32001 6.1319 9.83755 6.4087 10.34 6.27991C10.8731 6.09171 11.4347 5.99698 12 5.99991C14.1396 6.00149 16.0411 7.36427 16.73 9.38991C16.8465 9.74005 17.1463 9.99759 17.51 10.0599C18.5443 10.2429 19.4075 10.9534 19.7859 11.9332C20.1643 12.9129 20.0028 14.0192 19.36 14.8499C19.0197 15.2813 19.0911 15.9065 19.52 16.2499C19.696 16.3911 19.9145 16.4686 20.14 16.4699C20.4443 16.4685 20.7314 16.3286 20.92 16.0899C21.9379 14.789 22.2477 13.0693 21.7476 11.495C21.2475 9.92063 20.0021 8.69491 18.42 8.21991Z" fill="#171E2B"/>
</svg>
