<svg width="24" height="24" viewBox="0 0 24 24" fill="none" xmlns="http://www.w3.org/2000/svg">
<path fill-rule="evenodd" clip-rule="evenodd" d="M19.47 10.54C18.502 8.38659 16.361 7.00103 14 7.00004C13.5311 7.00383 13.0644 7.06427 12.61 7.18004C11.4462 5.53729 9.41072 4.75276 7.44545 5.18948C5.48018 5.62621 3.96852 7.19901 3.61002 9.18004C2.26071 9.6658 1.44389 11.0386 1.66067 12.4562C1.87745 13.8738 3.06721 14.9397 4.50002 15H5.50002C5.48959 15.1665 5.48959 15.3335 5.50002 15.5C5.50002 17.433 7.06702 19 9.00002 19H18.17C20.3072 18.9997 22.1244 17.4401 22.449 15.3277C22.7736 13.2153 21.5085 11.1821 19.47 10.54ZM4.50002 13.0001C3.94773 13.0001 3.50002 12.5524 3.50002 12.0001C3.50002 11.4478 3.94773 11.0001 4.50002 11.0001C5.0523 11.0001 5.50002 10.5524 5.50002 10.0001C5.50002 8.34321 6.84316 7.00006 8.50002 7.00006C9.3481 7.00462 10.1546 7.36792 10.72 8.00007C9.28458 8.93404 8.31665 10.4369 8.06002 12.1301C7.49479 12.2893 6.97886 12.5885 6.56002 13.0001H4.50002ZM18.17 16.9999H9C8.17157 16.9999 7.5 16.3283 7.5 15.4999C7.5 14.6715 8.17157 13.9999 9 13.9999C9.55228 13.9999 10 13.5522 10 12.9999C10.0089 11.0502 11.4222 9.39087 13.3457 9.07194C15.2691 8.75301 17.1423 9.86737 17.78 11.7099C17.8965 12.06 18.1963 12.3176 18.56 12.3799C19.7358 12.5997 20.5541 13.6743 20.4535 14.8662C20.3529 16.0582 19.366 16.9803 18.17 16.9999Z" fill="#171E2B"/>
</svg>
