<svg width="24" height="24" viewBox="0 0 24 24" fill="none" xmlns="http://www.w3.org/2000/svg">
<path fill-rule="evenodd" clip-rule="evenodd" d="M17 14.9999C16.6982 14.9996 16.4017 14.9203 16.14 14.7699C15.138 14.1506 13.8721 14.1506 12.87 14.7699C12.3348 15.079 11.6753 15.079 11.14 14.7699C10.138 14.1506 8.87206 14.1506 7.87002 14.7699C7.60521 14.9216 7.30517 15.0009 7.00002 14.9999C6.44774 14.9999 6.00002 15.4476 6.00002 15.9999C6.00002 16.5522 6.44774 16.9999 7.00002 16.9999C7.66858 17.0005 8.32492 16.8208 8.90002 16.4799C9.26698 16.25 9.73307 16.25 10.1 16.4799C11.2729 17.1692 12.7271 17.1692 13.9 16.4799C14.267 16.25 14.7331 16.25 15.1 16.4799C15.6751 16.8208 16.3315 17.0005 17 16.9999C17.5523 16.9999 18 16.5522 18 15.9999C18 15.4476 17.5523 14.9999 17 14.9999ZM17 18.9997C16.6982 18.9993 16.4017 18.9201 16.14 18.7697C15.138 18.1504 13.8721 18.1504 12.87 18.7697C12.3348 19.0787 11.6753 19.0787 11.14 18.7697C10.138 18.1504 8.87206 18.1504 7.87002 18.7697C7.60521 18.9213 7.30517 19.0006 7.00002 18.9997C6.44774 18.9997 6.00002 19.4474 6.00002 19.9997C6.00002 20.552 6.44774 20.9997 7.00002 20.9997C7.66858 21.0002 8.32492 20.8206 8.90002 20.4797C9.26698 20.2497 9.73307 20.2497 10.1 20.4797C11.2729 21.169 12.7271 21.169 13.9 20.4797C14.267 20.2497 14.7331 20.2497 15.1 20.4797C15.6751 20.8206 16.3315 21.0002 17 20.9997C17.5523 20.9997 18 20.552 18 19.9997C18 19.4474 17.5523 18.9997 17 18.9997ZM18.42 7.20979C17.1628 4.32368 14.1336 2.63187 11.0169 3.07511C7.90021 3.51835 5.46279 5.9876 5.06002 9.10979C3.26396 9.54402 1.99909 11.152 2.00002 12.9998C1.99641 14.1456 2.4843 15.2379 3.34002 15.9998C3.52232 16.1606 3.75695 16.2494 4.00002 16.2498C4.28883 16.2469 4.5623 16.1193 4.75002 15.8998C5.11399 15.4854 5.07372 14.8545 4.66002 14.4898C4.23084 14.1149 3.98926 13.5695 4.00002 12.9998C4.00002 11.8952 4.89545 10.9998 6.00002 10.9998C6.5523 10.9998 7.00002 10.5521 7.00002 9.99979C7.00529 7.55747 8.77421 5.47636 11.1838 5.07766C13.5933 4.67896 15.9383 6.07935 16.73 8.38979C16.8495 8.73604 17.1488 8.98924 17.51 9.04979C18.9465 9.29759 19.9969 10.5421 20 11.9998C20.0133 12.7357 19.7491 13.4497 19.26 13.9998C18.9777 14.2563 18.866 14.6511 18.9719 15.0176C19.0779 15.384 19.3831 15.6582 19.7587 15.7246C20.1343 15.7909 20.515 15.6378 20.74 15.3298C21.5619 14.4165 22.0114 13.2283 22 11.9998C21.9982 9.78681 20.5419 7.83827 18.42 7.20979Z" fill="#171E2B"/>
</svg>
