<svg width="24" height="24" viewBox="0 0 24 24" fill="none" xmlns="http://www.w3.org/2000/svg">
<path fill-rule="evenodd" clip-rule="evenodd" d="M18.42 9.21003C17.1628 6.32392 14.1336 4.63211 11.0169 5.07535C7.90019 5.5186 5.46277 7.98785 5.06001 11.11C3.08649 11.5826 1.7796 13.4582 2.01967 15.4732C2.25974 17.4883 3.9707 19.0043 6.00001 19H17C19.479 18.9932 21.5786 17.171 21.9345 14.7178C22.2903 12.2645 20.7949 9.92088 18.42 9.21003ZM17 17.0002H6.00001C4.89544 17.0002 4.00001 16.1047 4.00001 15.0002C4.00001 13.8956 4.89544 13.0002 6.00001 13.0002C6.55229 13.0002 7.00001 12.5525 7.00001 12.0002C7.00528 9.55786 8.7742 7.47675 11.1838 7.07804C13.5933 6.67934 15.9383 8.07973 16.73 10.3902C16.8495 10.7364 17.1488 10.9896 17.51 11.0502C19.0287 11.3304 20.0866 12.7178 19.9547 14.2566C19.8228 15.7953 18.5443 16.9825 17 17.0002Z" fill="#171E2B"/>
</svg>
