<svg width="24" height="24" viewBox="0 0 24 24" fill="none" xmlns="http://www.w3.org/2000/svg">
<path fill-rule="evenodd" clip-rule="evenodd" d="M12.71 18.7899C12.6128 18.7016 12.5012 18.6306 12.38 18.5799C12.0076 18.4233 11.5776 18.5062 11.29 18.7899C11.1073 18.9815 11.0037 19.2351 11 19.4999C10.9985 19.7657 11.1028 20.0212 11.29 20.2099C11.3872 20.2982 11.4988 20.3693 11.62 20.4199C11.9915 20.5686 12.4158 20.4816 12.6987 20.1986C12.9817 19.9157 13.0687 19.4914 12.92 19.1199C12.8724 18.9972 12.8011 18.885 12.71 18.7899ZM12 12.5002C11.4477 12.5002 11 12.9479 11 13.5002V16.5002C11 17.0525 11.4477 17.5002 12 17.5002C12.5523 17.5002 13 17.0525 13 16.5002V13.5002C13 12.9479 12.5523 12.5002 12 12.5002ZM18.42 7.71003C17.1628 4.82392 14.1336 3.13211 11.0169 3.57535C7.90019 4.0186 5.46277 6.48785 5.06001 9.61003C3.08649 10.0826 1.7796 11.9582 2.01967 13.9732C2.25974 15.9883 3.9707 17.5043 6.00001 17.5H8.00001C8.55229 17.5 9.00001 17.0523 9.00001 16.5C9.00001 15.9477 8.55229 15.5 8.00001 15.5H6.00001C4.89544 15.5 4.00001 14.6046 4.00001 13.5C4.00001 12.3955 4.89544 11.5 6.00001 11.5C6.55229 11.5 7.00001 11.0523 7.00001 10.5C7.00528 8.05772 8.7742 5.97661 11.1838 5.5779C13.5933 5.1792 15.9383 6.57959 16.73 8.89003C16.8495 9.23628 17.1488 9.48949 17.51 9.55003C19.0287 9.83026 20.0866 11.2177 19.9547 12.7564C19.8228 14.2952 18.5443 15.4823 17 15.5H16C15.4477 15.5 15 15.9477 15 16.5C15 17.0523 15.4477 17.5 16 17.5H17C19.479 17.4932 21.5786 15.671 21.9345 13.2178C22.2903 10.7645 20.7949 8.42088 18.42 7.71003Z" fill="#171E2B"/>
</svg>
