<svg width="24" height="24" viewBox="0 0 24 24" fill="none" xmlns="http://www.w3.org/2000/svg">
<path fill-rule="evenodd" clip-rule="evenodd" d="M21 12.4999C20.9914 10.2347 19.5997 8.2047 17.49 7.37988C17.49 4.34232 15.0276 1.87988 11.99 1.87988C8.95244 1.87988 6.49001 4.34232 6.49001 7.37988C4.02908 8.34545 2.60322 10.9252 3.09483 13.5227C3.58644 16.1201 5.85644 18.0004 8.50001 17.9999H8.70001C8.44739 18.8702 8.02606 19.6822 7.46001 20.3899C7.2289 20.69 7.18724 21.095 7.35241 21.436C7.51757 21.7769 7.86121 21.9952 8.24001 21.9999H15.76C16.1463 22.0012 16.4987 21.78 16.6655 21.4315C16.8322 21.0831 16.7834 20.6698 16.54 20.3699C15.9763 19.6682 15.555 18.8631 15.3 17.9999H15.5C18.5353 17.9944 20.9945 15.5352 21 12.4999ZM10.06 20C10.4581 19.1926 10.7312 18.3294 10.87 17.44C11.2737 17.2535 11.6532 17.0184 12 16.74C12.3468 17.0184 12.7263 17.2535 13.13 17.44C13.2688 18.3294 13.5419 19.1926 13.94 20H10.06ZM12.78 14.7L12.7 14.62L12.62 14.54H12.55L12.37 14.45L12.19 14.39H11.81L11.63 14.45C11.5686 14.47 11.511 14.5004 11.46 14.54H11.38L11.3 14.62L11.22 14.7C10.2538 15.8946 8.62145 16.3194 7.19548 15.7473C5.76951 15.1752 4.88338 13.7401 5.01072 12.2089C5.13807 10.6777 6.24911 9.40867 7.74999 9.08001C7.80539 9.05769 7.8589 9.03093 7.90999 9.00001C7.97177 8.97754 8.03192 8.95081 8.08999 8.92C8.14151 8.88221 8.18849 8.83858 8.22999 8.79001C8.33027 8.71078 8.40361 8.60251 8.43999 8.48001C8.47178 8.4272 8.49538 8.36988 8.50999 8.31001C8.51971 8.24369 8.51971 8.17632 8.50999 8.11001C8.51482 8.05344 8.51482 7.99657 8.50999 7.94001C8.50005 7.79017 8.50005 7.63984 8.50999 7.49001C8.50999 5.55701 10.077 3.99001 12.01 3.99001C13.943 3.99001 15.51 5.55701 15.51 7.49001C15.5199 7.63984 15.5199 7.79017 15.51 7.94001C15.5047 7.99321 15.5047 8.0468 15.51 8.10001C15.5 8.16965 15.5 8.24036 15.51 8.31001C15.5246 8.36988 15.5482 8.4272 15.58 8.48001C15.6164 8.60251 15.6897 8.71078 15.79 8.79001C15.8315 8.83858 15.8785 8.88221 15.93 8.92C15.9881 8.95081 16.0482 8.97754 16.11 9.00001C16.1614 9.0275 16.2149 9.05091 16.27 9.07C17.7709 9.39867 18.8819 10.6677 19.0093 12.1989C19.1366 13.7301 18.2505 15.1652 16.8245 15.7373C15.3985 16.3094 13.7662 15.8846 12.8 14.69L12.78 14.7Z" fill="#171E2B"/>
</svg>
