<svg width="24" height="24" viewBox="0 0 24 24" fill="none" xmlns="http://www.w3.org/2000/svg">
<path fill-rule="evenodd" clip-rule="evenodd" d="M9.71 6.28982C9.52223 6.1005 9.26664 5.99402 9 5.99402C8.73336 5.99402 8.47777 6.1005 8.29 6.28982L3.29 11.2898C3.10069 11.4776 2.9942 11.7332 2.9942 11.9998C2.9942 12.2665 3.10069 12.522 3.29 12.7098L8.29 17.7098C8.47777 17.8991 8.73336 18.0056 9 18.0056C9.26664 18.0056 9.52223 17.8991 9.71 17.7098C9.89931 17.522 10.0058 17.2665 10.0058 16.9998C10.0058 16.7332 9.89931 16.4776 9.71 16.2898L5.41 11.9998L9.71 7.70982C9.89931 7.52205 10.0058 7.26645 10.0058 6.99982C10.0058 6.73318 9.89931 6.47758 9.71 6.28982ZM20.71 11.29L15.71 6.28995C15.4564 6.03629 15.0866 5.93723 14.7401 6.03008C14.3936 6.12292 14.123 6.39357 14.0301 6.74008C13.9373 7.08658 14.0364 7.45629 14.29 7.70995L18.59 12L14.29 16.29C14.1007 16.4777 13.9942 16.7333 13.9942 17C13.9942 17.2666 14.1007 17.5222 14.29 17.71C14.4778 17.8993 14.7334 18.0058 15 18.0058C15.2667 18.0058 15.5222 17.8993 15.71 17.71L20.71 12.71C20.8993 12.5222 21.0058 12.2666 21.0058 12C21.0058 11.7333 20.8993 11.4777 20.71 11.29Z" fill="#171E2B"/>
</svg>
