<svg width="24" height="24" viewBox="0 0 24 24" fill="none" xmlns="http://www.w3.org/2000/svg">
<path fill-rule="evenodd" clip-rule="evenodd" d="M9.00002 17H13C15.7614 17 18 14.7614 18 12V11H19C20.6569 11 22 9.65686 22 8C22 6.34315 20.6569 5 19 5H18V4C18 3.44772 17.5523 3 17 3H5.00002C4.44773 3 4.00002 3.44772 4.00002 4V12C4.00002 14.7614 6.23859 17 9.00002 17ZM18 7.00012H19C19.5523 7.00012 20 7.44784 20 8.00012C20 8.55241 19.5523 9.00012 19 9.00012H18V7.00012ZM5.99998 4.99988H16V11.9999C16 13.6567 14.6568 14.9999 13 14.9999H8.99998C7.34313 14.9999 5.99998 13.6567 5.99998 11.9999V4.99988ZM21 19.0001H3C2.44772 19.0001 2 19.4478 2 20.0001C2 20.5524 2.44772 21.0001 3 21.0001H21C21.5523 21.0001 22 20.5524 22 20.0001C22 19.4478 21.5523 19.0001 21 19.0001Z" fill="#171E2B"/>
</svg>
