<svg width="24" height="24" viewBox="0 0 24 24" fill="none" xmlns="http://www.w3.org/2000/svg">
<path fill-rule="evenodd" clip-rule="evenodd" d="M21.32 9.54989L19.43 8.9199L20.32 7.1399C20.5049 6.75806 20.4288 6.30112 20.13 5.9999L18 3.8699C17.697 3.56661 17.2344 3.49018 16.85 3.6799L15.07 4.5699L14.44 2.6799C14.3036 2.27606 13.9263 2.00306 13.5 1.9999H10.5C10.0701 1.99879 9.68759 2.27258 9.55002 2.6799L8.92002 4.5699L7.14002 3.6799C6.75819 3.495 6.30124 3.57115 6.00002 3.8699L3.87002 5.9999C3.56673 6.30288 3.4903 6.76546 3.68002 7.1499L4.57002 8.92989L2.68002 9.5599C2.27618 9.69628 2.00318 10.0737 2.00002 10.4999V13.4999C1.99891 13.9298 2.27271 14.3123 2.68002 14.4499L4.57002 15.0799L3.68002 16.8599C3.49512 17.2417 3.57128 17.6987 3.87002 17.9999L6.00002 20.1299C6.303 20.4332 6.76559 20.5096 7.15002 20.3199L8.93002 19.4299L9.56002 21.3199C9.69759 21.7272 10.0801 22.001 10.51 21.9999H13.51C13.9399 22.001 14.3224 21.7272 14.46 21.3199L15.09 19.4299L16.87 20.3199C17.2492 20.5 17.7006 20.4241 18 20.1299L20.13 17.9999C20.4333 17.6969 20.5097 17.2343 20.32 16.8499L19.43 15.0699L21.32 14.4399C21.7239 14.3035 21.9969 13.9261 22 13.4999V10.4999C22.0011 10.07 21.7273 9.68747 21.32 9.54989ZM20 12.7798L18.8 13.1798C18.2415 13.3609 17.7908 13.7784 17.5675 14.3214C17.3441 14.8644 17.3706 15.4781 17.64 15.9998L18.21 17.1398L17.11 18.2398L16 17.6398C15.4811 17.3813 14.8756 17.3606 14.3403 17.5832C13.805 17.8057 13.3926 18.2496 13.21 18.7998L12.81 19.9998H11.22L10.82 18.7998C10.6388 18.2413 10.2214 17.7906 9.67842 17.5672C9.13542 17.3439 8.5217 17.3704 8 17.6398L6.86 18.2098L5.76 17.1098L6.36 15.9998C6.62937 15.4781 6.6559 14.8644 6.43254 14.3214C6.20918 13.7784 5.75849 13.3609 5.2 13.1798L4 12.7798V11.2198L5.2 10.8198C5.75849 10.6386 6.20918 10.2212 6.43254 9.6782C6.6559 9.1352 6.62937 8.52149 6.36 7.99978L5.79 6.88978L6.89 5.78978L8 6.35978C8.5217 6.62916 9.13542 6.65568 9.67842 6.43232C10.2214 6.20896 10.6388 5.75828 10.82 5.19978L11.22 3.99978H12.78L13.18 5.19978C13.3612 5.75828 13.7786 6.20896 14.3216 6.43232C14.8646 6.65568 15.4783 6.62916 16 6.35978L17.14 5.78978L18.24 6.88978L17.64 7.99978C17.3815 8.51866 17.3608 9.12418 17.5834 9.65946C17.8059 10.1948 18.2498 10.6071 18.8 10.7898L20 11.1898V12.7798ZM12 7.99991C9.79087 7.99991 8 9.79077 8 11.9999C8 14.209 9.79087 15.9999 12 15.9999C14.2091 15.9999 16 14.209 16 11.9999C16 10.939 15.5786 9.92162 14.8284 9.17148C14.0783 8.42133 13.0609 7.99991 12 7.99991ZM12 13.9998C10.8954 13.9998 10 13.1044 10 11.9998C10 10.8952 10.8954 9.99978 12 9.99978C13.1046 9.99978 14 10.8952 14 11.9998C14 13.1044 13.1046 13.9998 12 13.9998Z" fill="#171E2B"/>
</svg>
