<svg width="24" height="24" viewBox="0 0 24 24" fill="none" xmlns="http://www.w3.org/2000/svg">
<path fill-rule="evenodd" clip-rule="evenodd" d="M21.22 12C21.7178 11.4524 21.9956 10.7401 22 10C22 8.34315 20.6569 7 19 7H13.82C14.1441 6.08319 14.0038 5.06615 13.4435 4.27138C12.8832 3.47662 11.9724 3.00273 11 3H5C3.34315 3 2 4.34315 2 6C2.00441 6.74005 2.28221 7.45236 2.78 8C1.76142 9.1388 1.76142 10.8612 2.78 12C1.76142 13.1388 1.76142 14.8612 2.78 16C2.28221 16.5476 2.00441 17.2599 2 18C2 19.6569 3.34315 21 5 21H19C20.1801 20.9937 21.2469 20.2961 21.7259 19.2174C22.2048 18.1388 22.0068 16.8796 21.22 16C22.2386 14.8612 22.2386 13.1388 21.22 12ZM11 18.9999H5C4.44772 18.9999 4 18.5522 4 17.9999C4 17.4476 4.44772 16.9999 5 16.9999H11C11.5523 16.9999 12 17.4476 12 17.9999C12 18.5522 11.5523 18.9999 11 18.9999ZM11 15.0001H5C4.44772 15.0001 4 14.5524 4 14.0001C4 13.4478 4.44772 13.0001 5 13.0001H11C11.5523 13.0001 12 13.4478 12 14.0001C12 14.5524 11.5523 15.0001 11 15.0001ZM11 11H5C4.44772 11 4 10.5523 4 10C4 9.44771 4.44772 9 5 9H11C11.5523 9 12 9.44771 12 10C12 10.5523 11.5523 11 11 11ZM11 6.99988H5C4.44772 6.99988 4 6.55216 4 5.99988C4 5.44759 4.44772 4.99988 5 4.99988H11C11.5523 4.99988 12 5.44759 12 5.99988C12 6.55216 11.5523 6.99988 11 6.99988ZM19.69 18.7099C19.5108 18.8989 19.2605 19.0041 19 18.9999H13.82C14.0598 18.3548 14.0598 17.645 13.82 16.9999H19C19.5523 16.9999 20 17.4476 20 17.9999C19.9963 18.2686 19.8845 18.5245 19.69 18.7099ZM19.69 14.7101C19.5108 14.8992 19.2605 15.0044 19 15.0001H13.82C14.0598 14.355 14.0598 13.6452 13.82 13.0001H19C19.5523 13.0001 20 13.4478 20 14.0001C19.9963 14.2688 19.8845 14.5247 19.69 14.7101ZM19.69 10.71C19.5108 10.899 19.2605 11.0042 19 11H13.82C14.0598 10.3549 14.0598 9.6451 13.82 9H19C19.5523 9 20 9.44772 20 10C19.9963 10.2687 19.8845 10.5246 19.69 10.71Z" fill="#171E2B"/>
</svg>
