<svg width="24" height="24" viewBox="0 0 24 24" fill="none" xmlns="http://www.w3.org/2000/svg">
<path fill-rule="evenodd" clip-rule="evenodd" d="M5.00001 10.9998C5.55229 10.9998 6.00001 10.5521 6.00001 9.99983V5.99983C6.00001 5.44755 5.55229 4.99983 5.00001 4.99983C4.44772 4.99983 4.00001 5.44755 4.00001 5.99983V9.99983C4.00001 10.5521 4.44772 10.9998 5.00001 10.9998ZM4.29 3.70992C4.57756 3.99367 5.0076 4.07652 5.38 3.91992C5.50119 3.86928 5.6128 3.79825 5.71 3.70992C5.79833 3.61272 5.86936 3.50111 5.92 3.37992C5.97598 3.26124 6.00338 3.1311 6 2.99992C6.00154 2.73412 5.89719 2.47864 5.71 2.28992C5.42244 2.00618 4.9924 1.92333 4.62 2.07992C4.49725 2.12752 4.38511 2.19888 4.29 2.28992C4.10281 2.47864 3.99846 2.73412 4 2.99992C4.00158 3.1306 4.02876 3.2597 4.08 3.37992C4.13064 3.50111 4.20167 3.61272 4.29 3.70992ZM17 5.99996H9.00001C8.44772 5.99996 8.00001 6.44767 8.00001 6.99996C8.00001 7.55224 8.44772 7.99996 9.00001 7.99996H17C17.5523 7.99996 18 8.44767 18 8.99996V18.72L16.43 17.27C16.2456 17.0973 16.0026 17.0008 15.75 17H7.00001C6.44772 17 6.00001 16.5522 6.00001 16V14C6.00001 13.4477 5.55229 13 5.00001 13C4.44772 13 4.00001 13.4477 4.00001 14V16C4.00001 17.6568 5.34315 19 7.00001 19H15.36L18.36 21.73C18.5342 21.8935 18.7613 21.9893 19 22C19.1372 21.9985 19.2728 21.9713 19.4 21.92C19.7656 21.7604 20.0014 21.3988 20 21V8.99996C20 7.3431 18.6569 5.99996 17 5.99996Z" fill="#171E2B"/>
</svg>
