<svg width="24" height="24" viewBox="0 0 24 24" fill="none" xmlns="http://www.w3.org/2000/svg">
<path fill-rule="evenodd" clip-rule="evenodd" d="M19 1.99988H4.99998C3.34313 1.99988 1.99998 3.34302 1.99998 4.99988V14.9999C1.99998 16.6567 3.34313 17.9999 4.99998 17.9999H16.59L20.29 21.7099C20.4787 21.8971 20.7342 22.0014 21 21.9999C21.1312 22.0033 21.2613 21.9759 21.38 21.9199C21.7534 21.7665 21.998 21.4036 22 20.9999V4.99988C22 3.34302 20.6568 1.99988 19 1.99988ZM5.76998 16H4.99998C4.44769 16 3.99998 15.5522 3.99998 15V14.58L7.29998 11.29C7.69001 10.9022 8.31994 10.9022 8.70998 11.29L9.57998 12.16L5.76998 16ZM20 18.5898L17.71 16.2898C17.5213 16.1026 17.2658 15.9982 17 15.9998H8.58998L15.3 9.28976C15.6888 8.90862 16.3111 8.90862 16.7 9.28976L20 12.5798V18.5898ZM20 9.75975L18.12 7.88975C16.9487 6.71994 15.0512 6.71994 13.88 7.88975L11 10.7598L10.12 9.88975C8.93565 8.75192 7.0643 8.75192 5.87998 9.88975L3.99998 11.7598V4.99975C3.99998 4.44747 4.44769 3.99975 4.99998 3.99975H19C19.5523 3.99975 20 4.44747 20 4.99975V9.75975Z" fill="#171E2B"/>
</svg>
