<svg width="24" height="24" viewBox="0 0 24 24" fill="none" xmlns="http://www.w3.org/2000/svg">
<path fill-rule="evenodd" clip-rule="evenodd" d="M10.19 5.22979C10.781 5.07581 11.3893 4.99851 12 4.99979C15.866 4.99979 19 8.13379 19 11.9998C19.0013 12.6105 18.924 13.2188 18.77 13.8098C18.6995 14.0657 18.7337 14.3392 18.865 14.5699C18.9963 14.8006 19.214 14.9697 19.47 15.0398C19.5564 15.0496 19.6436 15.0496 19.73 15.0398C20.1949 15.0557 20.6093 14.749 20.73 14.2998C20.9197 13.5481 21.0104 12.7749 21 11.9998C21 7.02923 16.9706 2.99979 12 2.99979C11.2135 2.99651 10.43 3.09739 9.67 3.29979C9.14888 3.45881 8.85097 4.00573 9 4.52979C9.14612 5.04344 9.67006 5.35163 10.19 5.22979ZM21.71 20.2899L3.71 2.28994C3.31788 1.89782 2.68212 1.89782 2.29 2.28994C1.89788 2.68206 1.89788 3.31782 2.29 3.70994L5 6.37994C2.37283 9.66606 2.37283 14.3338 5 17.6199L3.29 19.2899C3.00626 19.5775 2.92341 20.0075 3.08 20.3799C3.23341 20.7534 3.5963 20.9979 4 20.9999H12C14.0462 20.9915 16.0285 20.2861 17.62 18.9999L20.29 21.6799C20.4778 21.8693 20.7334 21.9757 21 21.9757C21.2666 21.9757 21.5222 21.8693 21.71 21.6799C22.0847 21.2923 22.0847 20.6775 21.71 20.2899ZM12 18.9998H6.41L7.05 18.3698C7.43773 17.9797 7.43773 17.3498 7.05 16.9598C4.58669 14.4964 4.30966 10.5966 6.4 7.80979L16.19 17.5998C14.9811 18.5065 13.5112 18.9976 12 18.9998Z" fill="#171E2B"/>
</svg>
