<svg width="24" height="24" viewBox="0 0 24 24" fill="none" xmlns="http://www.w3.org/2000/svg">
<path fill-rule="evenodd" clip-rule="evenodd" d="M12 1.99988C8.83348 2.00217 5.85517 3.50405 3.97076 6.04879C2.08635 8.59354 1.51853 11.8804 2.43999 14.9099C2.4342 14.943 2.4342 14.9768 2.43999 15.0099C2.81675 16.2217 3.42461 17.3491 4.22999 18.3299L2.22999 20.3299C1.94624 20.6174 1.86339 21.0475 2.01999 21.4199C2.19392 21.7985 2.58439 22.0296 2.99999 21.9999H12C16.2792 21.9967 20.0821 19.2711 21.46 15.2199V15.1399C21.8085 14.1293 21.9909 13.0689 22 11.9999C22 9.34771 20.9464 6.80417 19.0711 4.92881C17.1957 3.05345 14.6522 1.99988 12 1.99988ZM12 20H5.41L5.71 19.71L14.12 11.29C14.5088 10.9089 15.1312 10.9089 15.52 11.29L19.14 14.89L19.37 15.11C18.1197 18.0733 15.2163 19.9997 12 20ZM4.54 14.8698L6.12 13.2898C6.51004 12.9021 7.13996 12.9021 7.53 13.2898L8.4 14.1598L5.68 16.8998C5.19892 16.2851 4.81449 15.6006 4.54 14.8698ZM19.95 12.8698L16.95 9.86976C15.7787 8.69994 13.8813 8.69994 12.71 9.86976L9.82 12.7598L8.94 11.8898C7.76989 10.7266 5.88011 10.7266 4.71 11.8898L4 12.5598C3.99004 12.3732 3.99004 12.1863 4 11.9998C4 7.58148 7.58172 3.99975 12 3.99975C16.4183 3.99975 20 7.58148 20 11.9998C20.0149 12.2862 20.0149 12.5733 20 12.8598L19.95 12.8698Z" fill="#171E2B"/>
</svg>
