<svg width="24" height="24" viewBox="0 0 24 24" fill="none" xmlns="http://www.w3.org/2000/svg">
<path fill-rule="evenodd" clip-rule="evenodd" d="M15.71 6.28972L10.41 11.5897L8.29 9.46972C8.04561 9.18434 7.66188 9.06004 7.29658 9.14791C6.93128 9.23578 6.64606 9.521 6.55819 9.8863C6.47032 10.2516 6.59462 10.6353 6.88 10.8797L9.71 13.7097C9.89626 13.8945 10.1477 13.9986 10.41 13.9997C10.6758 14.0013 10.9313 13.8969 11.12 13.7097L17.12 7.70972C17.3093 7.52195 17.4158 7.26636 17.4158 6.99972C17.4158 6.73308 17.3093 6.47749 17.12 6.28972C16.73 5.902 16.1 5.902 15.71 6.28972ZM19 1.99988H5C3.34315 1.99988 2 3.34302 2 4.99988V14.9999C2 16.6567 3.34315 17.9999 5 17.9999H16.59L20.29 21.7099C20.4787 21.8971 20.7342 22.0014 21 21.9999C21.1312 22.0033 21.2613 21.9759 21.38 21.9199C21.7534 21.7665 21.998 21.4036 22 20.9999V4.99988C22 3.34302 20.6569 1.99988 19 1.99988ZM20 18.5898L17.71 16.2898C17.5213 16.1026 17.2658 15.9982 17 15.9998H5.00001C4.44773 15.9998 4.00002 15.552 4.00002 14.9998V4.99975C4.00002 4.44747 4.44773 3.99975 5.00001 3.99975H19C19.5523 3.99975 20 4.44747 20 4.99975V18.5898Z" fill="#171E2B"/>
</svg>
