<svg width="24" height="24" viewBox="0 0 24 24" fill="none" xmlns="http://www.w3.org/2000/svg">
<path fill-rule="evenodd" clip-rule="evenodd" d="M10.66 5.99979H17C17.5523 5.99979 18 6.4475 18 6.99979V13.3398C18 13.8921 18.4477 14.3398 19 14.3398C19.5523 14.3398 20 13.8921 20 13.3398V6.99979C20 5.34293 18.6569 3.99979 17 3.99979H10.66C10.1077 3.99979 9.66 4.4475 9.66 4.99979C9.66 5.55207 10.1077 5.99979 10.66 5.99979ZM21.71 20.2899L3.71 2.28994C3.31788 1.89782 2.68212 1.89782 2.29 2.28994C1.89788 2.68206 1.89788 3.31782 2.29 3.70994L4.29 5.70994C4.0986 6.11302 3.99953 6.55373 4 6.99994V18.9999C4.00202 19.4036 4.24657 19.7665 4.62 19.9199C4.73868 19.9759 4.86882 20.0033 5 19.9999C5.2658 20.0015 5.52128 19.8971 5.71 19.7099L8.41 16.9999H15.59L20.29 21.7099C20.4778 21.8993 20.7334 22.0057 21 22.0057C21.2666 22.0057 21.5222 21.8993 21.71 21.7099C21.8993 21.5222 22.0058 21.2666 22.0058 20.9999C22.0058 20.7333 21.8993 20.4777 21.71 20.2899ZM8 15C7.7342 14.9985 7.47872 15.1028 7.29 15.29L6 16.59V7.41003L13.59 15H8Z" fill="#171E2B"/>
</svg>
