<svg width="24" height="24" viewBox="0 0 24 24" fill="none" xmlns="http://www.w3.org/2000/svg">
<path fill-rule="evenodd" clip-rule="evenodd" d="M19 13.9997C18.7427 13.9329 18.4694 13.9713 18.2405 14.1064C18.0116 14.2415 17.8459 14.4622 17.78 14.7197C16.9933 17.8231 14.2015 19.9972 11 19.9997H5.40998L6.04998 19.3697C6.43771 18.9797 6.43771 18.3497 6.04998 17.9597C4.26688 16.1837 3.57436 13.5873 4.23619 11.1592C4.89801 8.73113 6.8123 6.84521 9.24998 6.21971C9.7857 6.08164 10.1081 5.53542 9.96998 4.99971C9.83191 4.46399 9.2857 4.14164 8.74998 4.27971C5.79776 5.04945 3.43651 7.26242 2.47718 10.1586C1.51784 13.0548 2.09107 16.2398 3.99998 18.6197L2.28998 20.2897C2.00624 20.5773 1.92339 21.0073 2.07998 21.3797C2.23339 21.7531 2.59628 21.9977 2.99998 21.9997H11C15.1061 22.0023 18.6935 19.2255 19.72 15.2497C19.796 14.9883 19.7622 14.7072 19.6263 14.4713C19.4904 14.2354 19.2642 14.0651 19 13.9997ZM21 1.99988C20.4477 1.99988 20 2.4476 20 2.99988C17.8981 1.42029 14.932 1.73843 13.2129 3.72784C11.4938 5.71726 11.6092 8.6982 13.4769 10.5488C15.3446 12.3993 18.3265 12.4872 20.3 10.7499C20.621 10.5343 20.789 10.153 20.7314 9.77066C20.6738 9.38831 20.4009 9.07343 20.0306 8.96205C19.6603 8.85068 19.259 8.96276 19 9.24988C18.0005 10.1313 16.5394 10.2478 15.4129 9.53579C14.2865 8.82382 13.7647 7.4541 14.1319 6.17309C14.4992 4.89208 15.6674 4.00687 17 3.99988C17.8516 4.00161 18.6623 4.36516 19.23 4.99988H18C17.4477 4.99988 17 5.4476 17 5.99988C17 6.55217 17.4477 6.99988 18 6.99988H21C21.5523 6.99988 22 6.55217 22 5.99988V2.99988C22 2.4476 21.5523 1.99988 21 1.99988Z" fill="#171E2B"/>
</svg>
