<svg width="24" height="24" viewBox="0 0 24 24" fill="none" xmlns="http://www.w3.org/2000/svg">
<path fill-rule="evenodd" clip-rule="evenodd" d="M13.29 7.12992C13.1007 7.31768 12.9942 7.57328 12.9942 7.83992C12.9942 8.10655 13.1007 8.36215 13.29 8.54992L15.21 10.4699C15.3978 10.6592 15.6534 10.7657 15.92 10.7657C16.1866 10.7657 16.4422 10.6592 16.63 10.4699L20.71 6.38992C21.0084 6.14745 21.1414 5.75537 21.052 5.38141C20.9626 5.00744 20.6668 4.71784 20.291 4.63648C19.9152 4.55511 19.5261 4.69641 19.29 4.99992L15.92 8.34992L14.71 7.12992C14.5222 6.9406 14.2666 6.83412 14 6.83412C13.7334 6.83412 13.4778 6.9406 13.29 7.12992ZM19.91 10.6399C19.3609 10.6876 18.9538 11.1706 19 11.7199C19.005 11.8132 19.005 11.9066 19 11.9999C19 15.8659 15.866 18.9999 12 18.9999H6.41L7.05 18.3699C7.43773 17.9799 7.43773 17.3499 7.05 16.9599C5.22804 15.1478 4.54542 12.4831 5.27174 10.0182C5.99806 7.55328 8.01654 5.6845 10.53 5.14989C11.4542 4.96509 12.4058 4.96509 13.33 5.14989C13.6873 5.22135 14.0555 5.09677 14.296 4.8231C14.5365 4.54942 14.6128 4.16823 14.496 3.8231C14.3793 3.47797 14.0873 3.22135 13.73 3.14989C12.5386 2.91016 11.3114 2.91016 10.12 3.14989C5.96041 4.05785 2.99615 7.74236 3 11.9999C3.0084 14.0461 3.71384 16.0284 5 17.6199L3.29 19.2899C3.00626 19.5775 2.92341 20.0075 3.08 20.3799C3.23341 20.7533 3.5963 20.9979 4 20.9999H12C16.9706 20.9999 21 16.9705 21 11.9999C21 11.8499 21 11.7099 21 11.5599C20.9797 11.2925 20.8528 11.0444 20.6479 10.8714C20.4429 10.6984 20.1771 10.615 19.91 10.6399Z" fill="#171E2B"/>
</svg>
