<svg width="24" height="24" viewBox="0 0 24 24" fill="none" xmlns="http://www.w3.org/2000/svg">
<path fill-rule="evenodd" clip-rule="evenodd" d="M12 1.99988C6.47717 1.99988 2.00002 6.47703 2.00002 11.9999C1.99127 14.309 2.79081 16.5484 4.26002 18.3299L2.26002 20.3299C1.97627 20.6174 1.89342 21.0475 2.05002 21.4199C2.21988 21.7879 2.59507 22.0169 3.00002 21.9999H12C17.5229 21.9999 22 17.5227 22 11.9999C22 6.47703 17.5229 1.99988 12 1.99988ZM12 19.9998H5.41002L6.34002 19.0698C6.72774 18.6797 6.72774 18.0498 6.34002 17.6598C3.6399 14.9626 3.2209 10.7338 5.33924 7.55928C7.45759 4.38474 11.5233 3.14855 15.0502 4.60667C18.5771 6.06478 20.583 9.81113 19.8411 13.5548C19.0993 17.2984 15.8164 19.9968 12 19.9998ZM14 11H13V10C13 9.44772 12.5523 9 12 9C11.4477 9 11 9.44772 11 10V11H10C9.44773 11 9.00001 11.4477 9.00001 12C9.00001 12.5523 9.44773 13 10 13H11V14C11 14.5523 11.4477 15 12 15C12.5523 15 13 14.5523 13 14V13H14C14.5523 13 15 12.5523 15 12C15 11.4477 14.5523 11 14 11Z" fill="#171E2B"/>
</svg>
