<svg width="24" height="24" viewBox="0 0 24 24" fill="none" xmlns="http://www.w3.org/2000/svg">
<path fill-rule="evenodd" clip-rule="evenodd" d="M19 7.99988H18V4.99988C18 3.34302 16.6569 1.99988 15 1.99988H5.00002C3.34316 1.99988 2.00002 3.34302 2.00002 4.99988V16.9999C2.00203 17.4036 2.24659 17.7665 2.62002 17.9199C2.73869 17.9759 2.86884 18.0033 3.00002 17.9999C3.26582 18.0014 3.5213 17.8971 3.71002 17.7099L6.52002 14.8899H8.00002V16.3299C8.00002 17.9867 9.34316 19.3299 11 19.3299H17.92L20.29 21.7099C20.4787 21.8971 20.7342 22.0014 21 21.9999C21.1312 22.0033 21.2613 21.9759 21.38 21.9199C21.7534 21.7665 21.998 21.4036 22 20.9999V10.9999C22 9.34302 20.6569 7.99988 19 7.99988ZM8.00003 10.9998V12.8898H6.11003C5.84423 12.8882 5.58875 12.9926 5.40003 13.1798L4.00003 14.5898V4.99975C4.00003 4.44747 4.44775 3.99975 5.00003 3.99975H15C15.5523 3.99975 16 4.44747 16 4.99975V7.99975H11C9.34318 7.99975 8.00003 9.3429 8.00003 10.9998ZM20 18.5898L19 17.5898C18.813 17.3989 18.5573 17.2909 18.29 17.2898H11C10.4477 17.2898 10 16.842 10 16.2898V10.9998C10 10.4475 10.4477 9.99975 11 9.99975H19C19.5523 9.99975 20 10.4475 20 10.9998V18.5898Z" fill="#171E2B"/>
</svg>
