<svg width="24" height="24" viewBox="0 0 24 24" fill="none" xmlns="http://www.w3.org/2000/svg">
<path fill-rule="evenodd" clip-rule="evenodd" d="M19 6.00002H15C14.4477 6.00002 14 6.44773 14 7.00002C14 7.5523 14.4477 8.00002 15 8.00002H19C19.5523 8.00002 20 8.44773 20 9.00002V18.72L18.43 17.27C18.2456 17.0974 18.0026 17.0009 17.75 17H9C8.44772 17 8 16.5523 8 16V15C8 14.4477 7.55229 14 7 14C6.44772 14 6 14.4477 6 15V16C6 17.6569 7.34315 19 9 19H17.36L20.36 21.73C20.5342 21.8936 20.7613 21.9894 21 22C21.1372 21.9985 21.2728 21.9714 21.4 21.92C21.7656 21.7605 22.0014 21.3989 22 21V9.00002C22 7.34316 20.6569 6.00002 19 6.00002ZM10.54 10.5401C12.2287 8.85573 12.4925 6.21309 11.1702 4.22809C9.84782 2.24309 7.30753 1.46845 5.10258 2.37784C2.89762 3.28723 1.64197 5.62742 2.10342 7.96748C2.56486 10.3075 4.6149 11.9959 7.00002 12.0001C8.32701 12.0025 9.60051 11.4773 10.54 10.5401ZM4.00002 7.00014C4.00002 5.34329 5.34317 4.00014 7.00002 4.00014C7.44362 4.00427 7.88079 4.10673 8.28003 4.30014L4.28002 8.30014C4.09061 7.89321 3.99493 7.44897 4.00002 7.00014ZM9.70001 5.71014C9.89487 6.11242 9.99737 6.55316 10 7.00014C9.9955 8.02534 9.46777 8.97724 8.60068 9.52424C7.73359 10.0712 6.64722 10.1376 5.72002 9.70014L9.70001 5.71014Z" fill="#171E2B"/>
</svg>
