<svg width="24" height="24" viewBox="0 0 24 24" fill="none" xmlns="http://www.w3.org/2000/svg">
<path fill-rule="evenodd" clip-rule="evenodd" d="M12 10.0001V8.00012C11.9965 6.73187 11.1957 5.60287 10 5.18012V4.00012C10 2.34327 8.65687 1.00012 7.00002 1.00012C5.34316 1.00012 4.00002 2.34327 4.00002 4.00012V5.18012C2.80429 5.60287 2.00358 6.73187 2.00002 8.00012V10.0001C2.00002 11.657 3.34316 13.0001 5.00002 13.0001H9.00002C10.6569 13.0001 12 11.657 12 10.0001ZM6 4C6 3.44771 6.44771 3 7 3C7.55228 3 8 3.44771 8 4V5H6V4ZM4.00003 10.0001V8.00012C4.00003 7.44784 4.44775 7.00012 5.00003 7.00012H9.00003C9.55232 7.00012 10 7.44784 10 8.00012V10.0001C10 10.5524 9.55232 11.0001 9.00003 11.0001H5.00003C4.44775 11.0001 4.00003 10.5524 4.00003 10.0001ZM19 7.00012H15C14.4477 7.00012 14 7.44784 14 8.00012C14 8.55241 14.4477 9.00012 15 9.00012H19C19.5523 9.00012 20 9.44784 20 10.0001V19.7201L18.43 18.2701C18.2456 18.0975 18.0026 18.001 17.75 18.0001H9C8.44771 18.0001 8 17.5524 8 17.0001V16.0001C8 15.4478 7.55228 15.0001 7 15.0001C6.44771 15.0001 6 15.4478 6 16.0001V17.0001C6 18.657 7.34314 20.0001 9 20.0001H17.36L20.36 22.7301C20.5342 22.8937 20.7613 22.9895 21 23.0001C21.1372 22.9986 21.2728 22.9715 21.4 22.9201C21.7656 22.7606 22.0014 22.399 22 22.0001V10.0001C22 8.34327 20.6569 7.00012 19 7.00012Z" fill="#171E2B"/>
</svg>
