<svg width="24" height="24" viewBox="0 0 24 24" fill="none" xmlns="http://www.w3.org/2000/svg">
<path fill-rule="evenodd" clip-rule="evenodd" d="M19.06 13.5103C18.5137 13.4456 18.0177 13.8343 17.95 14.3803C17.5065 17.8802 14.5279 20.5031 11 20.5003H5.41001L6.05001 19.8703C6.43774 19.4802 6.43774 18.8503 6.05001 18.4603C4.26691 16.6843 3.57439 14.0878 4.23622 11.6598C4.89804 9.23171 6.81233 7.34579 9.25001 6.72028C9.78573 6.58221 10.1081 6.036 9.97001 5.50028C9.83194 4.96457 9.28573 4.64221 8.75001 4.78028C5.79779 5.55003 3.43654 7.763 2.47721 10.6592C1.51788 13.5553 2.0911 16.7403 4.00001 19.1203L2.29001 20.7903C2.00627 21.0778 1.92342 21.5079 2.08001 21.8803C2.23342 22.2537 2.59631 22.4983 3.00001 22.5003H11C15.5375 22.5003 19.3654 19.1225 19.93 14.6203C19.9947 14.074 19.606 13.578 19.06 13.5103ZM19 7.50012C18.5753 7.50152 18.162 7.63811 17.82 7.89012L16.07 7.09012L18 6.21012C18.3019 6.39338 18.6469 6.49344 19 6.50012C20.1046 6.50012 21 5.60469 21 4.50012C21 3.39555 20.1046 2.50012 19 2.50012C17.8955 2.50012 17 3.39555 17 4.50012L15.1 5.37012C14.778 5.14078 14.3952 5.01202 14 5.00012C12.8955 5.00012 12 5.89555 12 7.00012C12 8.10469 12.8955 9.00012 14 9.00012C14.3249 8.99685 14.6441 8.91448 14.93 8.76012L17.02 9.76012C17.1593 10.8222 18.1106 11.586 19.1777 11.4925C20.2447 11.399 21.0487 10.4813 21.0011 9.41122C20.9535 8.34111 20.0712 7.4985 19 7.50012Z" fill="#171E2B"/>
</svg>
