<svg width="24" height="24" viewBox="0 0 24 24" fill="none" xmlns="http://www.w3.org/2000/svg">
<path fill-rule="evenodd" clip-rule="evenodd" d="M17 9H7C6.44771 9 6 9.44772 6 10C6 10.5523 6.44771 11 7 11H17C17.5523 11 18 10.5523 18 10C18 9.44772 17.5523 9 17 9ZM13 12.9998H7C6.44771 12.9998 6 13.4475 6 13.9998C6 14.552 6.44771 14.9998 7 14.9998H13C13.5523 14.9998 14 14.552 14 13.9998C14 13.4475 13.5523 12.9998 13 12.9998ZM12 1.99988C6.47714 1.99988 1.99998 6.47703 1.99998 11.9999C1.99124 14.309 2.79078 16.5484 4.25998 18.3299L2.25998 20.3299C1.97624 20.6174 1.89339 21.0475 2.04998 21.4199C2.21985 21.7879 2.59504 22.0169 2.99998 21.9999H12C17.5228 21.9999 22 17.5227 22 11.9999C22 6.47703 17.5228 1.99988 12 1.99988ZM12 19.9998H5.40999L6.33999 19.0698C6.72772 18.6797 6.72772 18.0498 6.33999 17.6598C3.63988 14.9626 3.22088 10.7338 5.33922 7.55928C7.45756 4.38474 11.5233 3.14855 15.0502 4.60667C18.5771 6.06478 20.5829 9.81113 19.8411 13.5548C19.0993 17.2984 15.8164 19.9968 12 19.9998Z" fill="#171E2B"/>
</svg>
