<svg width="24" height="24" viewBox="0 0 24 24" fill="none" xmlns="http://www.w3.org/2000/svg">
<path fill-rule="evenodd" clip-rule="evenodd" d="M6.56999 11.9999C6.77839 11.9986 6.98118 11.9322 7.14999 11.8099L8.76999 10.6499C9.95126 9.80659 10.6605 8.45125 10.68 6.99994V3.62994C10.678 3.33086 10.5423 3.04836 10.31 2.85994C10.0747 2.66959 9.76582 2.59606 9.46999 2.65994C8.66036 2.82788 7.81732 2.6542 7.13999 2.17994C6.79719 1.94214 6.34278 1.94214 5.99999 2.17994C5.32266 2.6542 4.47961 2.82788 3.66999 2.65994C3.37227 2.59911 3.06304 2.67694 2.8296 2.87148C2.59616 3.06601 2.46383 3.35613 2.46999 3.65994V6.99994C2.46955 8.46752 3.17701 9.8452 4.36999 10.6999L5.99999 11.8099C6.16408 11.9339 6.36432 12.0007 6.56999 11.9999ZM4.45997 7.00005V4.72005C5.19445 4.68912 5.91385 4.5016 6.56997 4.17005C7.22565 4.50276 7.94531 4.69035 8.67997 4.72005V7.00005C8.65271 7.79657 8.25745 8.53536 7.60997 9.00005L6.60997 9.74006L5.52997 9.00005C4.88249 8.53536 4.48724 7.79657 4.45997 7.00005ZM18.54 5.99995H13.54C12.9877 5.99995 12.54 6.44766 12.54 6.99995C12.54 7.55223 12.9877 7.99995 13.54 7.99995H18.54C19.0923 7.99995 19.54 8.44766 19.54 8.99995V18.7199L18 17.2699C17.8191 17.0918 17.5738 16.9944 17.32 16.9999H8.53997C7.98769 16.9999 7.53997 16.5522 7.53997 15.9999V14.9999C7.53997 14.4477 7.09226 13.9999 6.53997 13.9999C5.98769 13.9999 5.53997 14.4477 5.53997 14.9999V15.9999C5.53997 17.6568 6.88312 18.9999 8.53997 18.9999H16.9L19.9 21.7299C20.0819 21.9003 20.3208 21.9966 20.57 21.9999C20.7104 21.9985 20.8493 21.9714 20.98 21.9199C21.3416 21.7574 21.5731 21.3965 21.57 20.9999V8.99995C21.57 8.19907 21.2498 7.43143 20.6807 6.86795C20.1116 6.30447 19.3408 5.99194 18.54 5.99995Z" fill="#171E2B"/>
</svg>
