<svg width="24" height="24" viewBox="0 0 24 24" fill="none" xmlns="http://www.w3.org/2000/svg">
<path fill-rule="evenodd" clip-rule="evenodd" d="M6.29 10.3001C5.95387 10.6377 5.90255 11.1655 6.16737 11.5615C6.43219 11.9575 6.93961 12.1118 7.38 11.9301C7.50153 11.8757 7.61308 11.8013 7.71 11.7101C7.79995 11.6179 7.87126 11.5093 7.92 11.3901C7.97717 11.2682 8.00459 11.1346 8 11.0001C7.9989 10.7377 7.89475 10.4863 7.71 10.3001C7.52224 10.1108 7.26664 10.0043 7 10.0043C6.73336 10.0043 6.47777 10.1108 6.29 10.3001ZM7 4.9999C7.55229 4.9999 8 5.44761 8 5.9999C8 6.55218 7.55229 6.9999 7 6.9999C6.44772 6.9999 6 7.44761 6 7.9999C6 8.55218 6.44772 8.99989 7 8.99989C8.45564 8.99896 9.70057 7.95321 9.95272 6.51958C10.2049 5.08595 9.39149 3.67817 8.02354 3.1806C6.65558 2.68303 5.12782 3.23928 4.4 4.4999C4.26646 4.73042 4.23042 5.0047 4.29988 5.2619C4.36934 5.5191 4.53856 5.73794 4.77 5.8699C5.24798 6.14128 5.85539 5.97603 6.13 5.4999C6.30934 5.18926 6.64132 4.99847 7 4.9999ZM19 6H13C12.4477 6 12 6.44772 12 7C12 7.55229 12.4477 8 13 8H19C19.5523 8 20 8.44772 20 9V18.72L18.43 17.27C18.2456 17.0973 18.0026 17.0009 17.75 17H9C8.44771 17 8 16.5523 8 16V15C8 14.4477 7.55228 14 7 14C6.44771 14 6 14.4477 6 15V16C6 17.6569 7.34314 19 9 19H17.36L20.36 21.73C20.5342 21.8936 20.7613 21.9894 21 22C21.1372 21.9985 21.2728 21.9714 21.4 21.92C21.7656 21.7605 22.0014 21.3989 22 21V9C22 7.34315 20.6569 6 19 6Z" fill="#171E2B"/>
</svg>
