<svg width="24" height="24" viewBox="0 0 24 24" fill="none" xmlns="http://www.w3.org/2000/svg">
<path fill-rule="evenodd" clip-rule="evenodd" d="M14.77 5.8699C15.248 6.14128 15.8554 5.97603 16.13 5.4999C16.3545 5.10368 16.8184 4.90921 17.2584 5.02684C17.6983 5.14447 18.0032 5.5445 18 5.9999C18 6.55218 17.5523 6.9999 17 6.9999C16.4477 6.9999 16 7.44761 16 7.9999C16 8.55218 16.4477 8.99989 17 8.99989C18.4557 8.99896 19.7006 7.95321 19.9528 6.51958C20.2049 5.08595 19.3915 3.67817 18.0236 3.1806C16.6556 2.68303 15.1278 3.23928 14.4 4.4999C14.2665 4.73042 14.2304 5.0047 14.2999 5.2619C14.3694 5.5191 14.5386 5.73794 14.77 5.8699ZM19.07 12.9998C18.5235 12.9288 18.0226 13.3134 17.95 13.8598C17.5158 17.3676 14.5346 20.0013 11 19.9998H5.41001L6.06001 19.3498C6.44774 18.9597 6.44774 18.3298 6.06001 17.9398C4.06622 15.9381 3.47112 12.9342 4.55121 10.3236C5.6313 7.713 8.17483 6.0076 11 5.99976C11.5523 5.99976 12 5.55204 12 4.99976C12 4.44747 11.5523 3.99976 11 3.99976C7.54999 4.01415 4.41181 5.99951 2.92108 9.11088C1.43035 12.2222 1.84945 15.912 4.00001 18.6098L2.29001 20.2898C2.00627 20.5773 1.92342 21.0074 2.08001 21.3798C2.23342 21.7532 2.59631 21.9977 3.00001 21.9998H11C15.5341 22.0004 19.3607 18.628 19.93 14.1298C19.967 13.8657 19.8969 13.5978 19.7354 13.3856C19.5739 13.1734 19.3344 13.0345 19.07 12.9998ZM17.38 10.07C17.1979 9.98947 16.996 9.9651 16.8 10L16.62 10.06L16.44 10.15L16.29 10.28C16.2 10.3722 16.1287 10.4808 16.08 10.6C16.0209 10.7247 15.9934 10.8621 16 11C15.9971 11.1334 16.0209 11.266 16.07 11.39C16.1217 11.51 16.1965 11.6187 16.29 11.71C16.4787 11.8972 16.7342 12.0016 17 12C17.5523 12 18 11.5523 18 11C18.0034 10.8688 17.976 10.7387 17.92 10.62C17.8125 10.3797 17.6203 10.1875 17.38 10.08V10.07Z" fill="#171E2B"/>
</svg>
