<svg width="24" height="24" viewBox="0 0 24 24" fill="none" xmlns="http://www.w3.org/2000/svg">
<path fill-rule="evenodd" clip-rule="evenodd" d="M13 10.9999H7C6.44771 10.9999 6 11.4476 6 11.9999C6 12.5522 6.44771 12.9999 7 12.9999H13C13.5523 12.9999 14 12.5522 14 11.9999C14 11.4476 13.5523 10.9999 13 10.9999ZM17 6.99975H7C6.44771 6.99975 6 7.44747 6 7.99975C6 8.55204 6.44771 8.99976 7 8.99976H17C17.5523 8.99976 18 8.55204 18 7.99975C18 7.44747 17.5523 6.99975 17 6.99975ZM19 1.99988H5.00002C3.34316 1.99988 2.00002 3.34302 2.00002 4.99988V14.9999C2.00002 16.6567 3.34316 17.9999 5.00002 17.9999H16.59L20.29 21.7099C20.4787 21.8971 20.7342 22.0014 21 21.9999C21.1312 22.0033 21.2613 21.9759 21.38 21.9199C21.7534 21.7665 21.998 21.4036 22 20.9999V4.99988C22 3.34302 20.6569 1.99988 19 1.99988ZM20 18.5898L17.71 16.2898C17.5213 16.1026 17.2658 15.9982 17 15.9998H5.00003C4.44775 15.9998 4.00003 15.552 4.00003 14.9998V4.99975C4.00003 4.44747 4.44775 3.99975 5.00003 3.99975H19C19.5523 3.99975 20 4.44747 20 4.99975V18.5898Z" fill="#171E2B"/>
</svg>
