<svg width="24" height="24" viewBox="0 0 24 24" fill="none" xmlns="http://www.w3.org/2000/svg">
<path fill-rule="evenodd" clip-rule="evenodd" d="M10.3 10.7499C10.621 10.5343 10.789 10.153 10.7314 9.77066C10.6738 9.38831 10.4009 9.07343 10.0306 8.96205C9.6603 8.85068 9.25899 8.96276 9 9.24988C8.00052 10.1313 6.53941 10.2478 5.41293 9.53579C4.28645 8.82382 3.76465 7.4541 4.1319 6.17309C4.49915 4.89208 5.6674 4.00687 7 3.99988C7.85157 4.00161 8.66228 4.36516 9.23 4.99988H8C7.44771 4.99988 7 5.4476 7 5.99988C7 6.55217 7.44771 6.99988 8 6.99988H11C11.5523 6.99988 12 6.55217 12 5.99988V2.99988C12 2.4476 11.5523 1.99988 11 1.99988C10.4477 1.99988 10 2.4476 10 2.99988C7.89812 1.42029 4.93196 1.73843 3.21289 3.72784C1.49381 5.71726 1.6092 8.6982 3.47692 10.5488C5.34464 12.3993 8.32652 12.4872 10.3 10.7499ZM19 6.00004H15C14.4477 6.00004 14 6.44776 14 7.00004C14 7.55232 14.4477 8.00004 15 8.00004H19C19.5523 8.00004 20 8.44776 20 9.00004V18.72L18.43 17.27C18.2456 17.0974 18.0026 17.0009 17.75 17H8.99999C8.44771 17 7.99999 16.5523 7.99999 16V15C7.99999 14.4478 7.55228 14 6.99999 14C6.44771 14 5.99999 14.4478 5.99999 15V16C5.99999 17.6569 7.34314 19 8.99999 19H17.36L20.36 21.73C20.5342 21.8936 20.7613 21.9894 21 22C21.1371 21.9985 21.2728 21.9714 21.4 21.92C21.7656 21.7605 22.0014 21.3989 22 21V9.00004C22 7.34319 20.6568 6.00004 19 6.00004Z" fill="#171E2B"/>
</svg>
