<svg width="24" height="24" viewBox="0 0 24 24" fill="none" xmlns="http://www.w3.org/2000/svg">
<path fill-rule="evenodd" clip-rule="evenodd" d="M21.21 10.29L19.48 8.57C19.8991 7.89021 20.1239 7.10857 20.13 6.31C20.1245 3.93226 18.1944 2.00817 15.8167 2.01001C13.439 2.01185 11.5119 3.93893 11.51 6.31667C11.5082 8.69441 13.4323 10.6245 15.81 10.63C16.6068 10.6309 17.3886 10.413 18.07 10L19.79 11.73C19.9778 11.9193 20.2334 12.0258 20.5 12.0258C20.7667 12.0258 21.0223 11.9193 21.21 11.73C21.4056 11.5415 21.5161 11.2816 21.5161 11.01C21.5161 10.7384 21.4056 10.4785 21.21 10.29ZM17.45 8.00002C16.7792 8.66264 15.774 8.85332 14.9071 8.48242C14.0402 8.11151 13.484 7.25281 13.5 6.31002C13.4996 5.69762 13.7445 5.11058 14.18 4.68002C15.0848 3.7813 16.5453 3.7813 17.45 4.68002C17.8842 5.11336 18.1282 5.7016 18.1282 6.31502C18.1282 6.92845 17.8842 7.51669 17.45 7.95002V8.00002ZM19.5 14C19.2428 13.9332 18.9695 13.9716 18.7406 14.1067C18.5117 14.2418 18.3459 14.4625 18.28 14.72C17.4934 17.8233 14.7016 19.9975 11.5 20H5.91004L6.55004 19.37C6.93777 18.9799 6.93777 18.35 6.55004 17.96C5.24331 16.6267 4.5233 14.8267 4.55004 12.96C4.56079 10.1389 6.26391 7.60002 8.87004 6.51998C9.38367 6.31563 9.63439 5.7336 9.43004 5.21998C9.2257 4.70635 8.64367 4.45563 8.13004 4.65998C5.48132 5.72171 3.49306 7.97666 2.77131 10.7375C2.04955 13.4983 2.67984 16.4378 4.47004 18.66L2.79004 20.29C2.5063 20.5775 2.42344 21.0076 2.58004 21.38C2.73344 21.7534 3.09634 21.998 3.50004 22H11.5C15.6062 22.0026 19.1935 19.2257 20.22 15.25C20.2961 14.9886 20.2622 14.7075 20.1264 14.4716C19.9905 14.2357 19.7643 14.0654 19.5 14Z" fill="#171E2B"/>
</svg>
