<svg width="24" height="24" viewBox="0 0 24 24" fill="none" xmlns="http://www.w3.org/2000/svg">
<path fill-rule="evenodd" clip-rule="evenodd" d="M5.5 11.0001C5.5 11.5524 5.94772 12.0001 6.5 12.0001C7.05229 12.0001 7.5 11.5524 7.5 11.0001V5.41014L8.79 6.71014C8.97777 6.89945 9.23337 7.00594 9.5 7.00594C9.76664 7.00594 10.0222 6.89945 10.21 6.71014C10.3993 6.52237 10.5058 6.26678 10.5058 6.00014C10.5058 5.7335 10.3993 5.47791 10.21 5.29014L7.21 2.29014C7.1149 2.1991 7.00275 2.12773 6.88 2.08014C6.63654 1.98012 6.36346 1.98012 6.12 2.08014C5.99725 2.12773 5.88511 2.1991 5.79 2.29014L2.79 5.29014C2.39788 5.68226 2.39788 6.31802 2.79 6.71014C3.18212 7.10226 3.81788 7.10226 4.21 6.71014L5.5 5.41014V11.0001ZM18.5 5.99996H13.5C12.9477 5.99996 12.5 6.44767 12.5 6.99996C12.5 7.55224 12.9477 7.99996 13.5 7.99996H18.5C19.0523 7.99996 19.5 8.44767 19.5 8.99996V18.72L17.93 17.27C17.7456 17.0973 17.5027 17.0008 17.25 17H8.50002C7.94773 17 7.50002 16.5522 7.50002 16V15C7.50002 14.4477 7.0523 14 6.50002 14C5.94773 14 5.50002 14.4477 5.50002 15V16C5.50002 17.6568 6.84316 19 8.50002 19H16.86L19.86 21.73C20.0444 21.9026 20.2874 21.9991 20.54 22C20.6772 21.9985 20.8128 21.9713 20.94 21.92C21.3056 21.7604 21.5414 21.3988 21.54 21V8.99996C21.5401 8.19733 21.2185 7.42814 20.6472 6.86437C20.076 6.30059 19.3026 5.98925 18.5 5.99996Z" fill="#171E2B"/>
</svg>
