<svg width="24" height="24" viewBox="0 0 24 24" fill="none" xmlns="http://www.w3.org/2000/svg">
<path fill-rule="evenodd" clip-rule="evenodd" d="M15 9H13V7C13 6.44772 12.5523 6 12 6C11.4477 6 11 6.44772 11 7V9H9C8.44771 9 8 9.44772 8 10C8 10.5523 8.44771 11 9 11H11V13C11 13.5523 11.4477 14 12 14C12.5523 14 13 13.5523 13 13V11H15C15.5523 11 16 10.5523 16 10C16 9.44772 15.5523 9 15 9ZM19 1.99988H5C3.34315 1.99988 2 3.34302 2 4.99988V14.9999C2 16.6567 3.34315 17.9999 5 17.9999H16.59L20.29 21.7099C20.4787 21.8971 20.7342 22.0014 21 21.9999C21.1312 22.0033 21.2613 21.9759 21.38 21.9199C21.7534 21.7665 21.998 21.4036 22 20.9999V4.99988C22 3.34302 20.6569 1.99988 19 1.99988ZM20 18.5898L17.71 16.2898C17.5213 16.1026 17.2658 15.9982 17 15.9998H4.99999C4.44771 15.9998 3.99999 15.552 3.99999 14.9998V4.99975C3.99999 4.44747 4.44771 3.99975 4.99999 3.99975H19C19.5523 3.99975 20 4.44747 20 4.99975V18.5898Z" fill="#171E2B"/>
</svg>
