<svg width="24" height="24" viewBox="0 0 24 24" fill="none" xmlns="http://www.w3.org/2000/svg">
<path fill-rule="evenodd" clip-rule="evenodd" d="M12 9C11.4477 9 11 9.44772 11 10C11 10.5523 11.4477 11 12 11C12.5523 11 13 10.5523 13 10C13 9.44772 12.5523 9 12 9ZM19 1.99988H5C3.34315 1.99988 2 3.34302 2 4.99988V14.9999C2 16.6567 3.34315 17.9999 5 17.9999H16.59L20.29 21.7099C20.4787 21.8971 20.7342 22.0014 21 21.9999C21.1312 22.0033 21.2613 21.9759 21.38 21.9199C21.7534 21.7665 21.998 21.4036 22 20.9999V4.99988C22 3.34302 20.6569 1.99988 19 1.99988ZM20 18.5898L17.71 16.2898C17.5213 16.1026 17.2658 15.9982 17 15.9998H5.00001C4.44773 15.9998 4.00002 15.552 4.00002 14.9998V4.99975C4.00002 4.44747 4.44773 3.99975 5.00001 3.99975H19C19.5523 3.99975 20 4.44747 20 4.99975V18.5898ZM8.00002 9C7.44773 9 7.00002 9.44772 7.00002 10C7.00002 10.5523 7.44773 11 8.00002 11C8.5523 11 9.00002 10.5523 9.00002 10C9.00002 9.44772 8.5523 9 8.00002 9ZM16 9C15.4477 9 15 9.44772 15 10C15 10.5523 15.4477 11 16 11C16.5523 11 17 10.5523 17 10C17 9.44772 16.5523 9 16 9Z" fill="#171E2B"/>
</svg>
