<svg width="24" height="24" viewBox="0 0 24 24" fill="none" xmlns="http://www.w3.org/2000/svg">
<path fill-rule="evenodd" clip-rule="evenodd" d="M15.29 8.84971L10.56 13.5897L8.70998 11.7297C8.45633 11.4761 8.08661 11.377 7.74011 11.4698C7.3936 11.5627 7.12295 11.8333 7.03011 12.1798C6.93726 12.5263 7.03633 12.8961 7.28999 13.1497L9.84998 15.7097C10.0378 15.899 10.2933 16.0055 10.56 16.0055C10.8266 16.0055 11.0822 15.899 11.27 15.7097L16.71 10.2697C16.9636 10.0161 17.0627 9.64634 16.9699 9.29983C16.877 8.95333 16.6064 8.68268 16.2599 8.58983C15.9134 8.49699 15.5436 8.59605 15.29 8.84971ZM12 1.99988C6.47714 1.99988 1.99998 6.47703 1.99998 11.9999C1.99124 14.309 2.79078 16.5484 4.25998 18.3299L2.25998 20.3299C1.97624 20.6174 1.89339 21.0475 2.04998 21.4199C2.21985 21.7879 2.59504 22.0169 2.99998 21.9999H12C17.5228 21.9999 22 17.5227 22 11.9999C22 6.47703 17.5228 1.99988 12 1.99988ZM12 19.9998H5.40999L6.33999 19.0698C6.72772 18.6797 6.72772 18.0498 6.33999 17.6598C3.63988 14.9626 3.22088 10.7338 5.33922 7.55928C7.45756 4.38474 11.5233 3.14855 15.0502 4.60667C18.5771 6.06478 20.5829 9.81113 19.8411 13.5548C19.0993 17.2984 15.8164 19.9968 12 19.9998Z" fill="#171E2B"/>
</svg>
