<svg width="24" height="24" viewBox="0 0 24 24" fill="none" xmlns="http://www.w3.org/2000/svg">
<path fill-rule="evenodd" clip-rule="evenodd" d="M12 9.99975C11.4477 9.99975 11 10.4475 11 10.9998V14.9998C11 15.552 11.4477 15.9998 12 15.9998C12.5523 15.9998 13 15.552 13 14.9998V10.9998C13 10.4475 12.5523 9.99975 12 9.99975ZM7.99998 12.9998C7.44769 12.9998 6.99998 13.4475 6.99998 13.9998V14.9998C6.99998 15.552 7.44769 15.9998 7.99998 15.9998C8.55226 15.9998 8.99998 15.552 8.99998 14.9998V13.9998C8.99998 13.4475 8.55226 12.9998 7.99998 12.9998ZM12 1.99988C6.47714 1.99988 1.99998 6.47703 1.99998 11.9999C1.99124 14.309 2.79078 16.5484 4.25998 18.3299L2.25998 20.3299C1.97624 20.6174 1.89339 21.0475 2.04998 21.4199C2.21985 21.7879 2.59504 22.0169 2.99998 21.9999H12C17.5228 21.9999 22 17.5227 22 11.9999C22 6.47703 17.5228 1.99988 12 1.99988ZM12 19.9998H5.40999L6.33999 19.0698C6.53085 18.8827 6.63888 18.627 6.63999 18.3598C6.63624 18.096 6.52841 17.8444 6.33999 17.6598C3.63988 14.9626 3.22088 10.7338 5.33922 7.55928C7.45756 4.38474 11.5233 3.14855 15.0502 4.60667C18.5771 6.06478 20.5829 9.81113 19.8411 13.5548C19.0993 17.2984 15.8164 19.9968 12 19.9998ZM16 7.99988C15.4477 7.99988 15 8.44759 15 8.99988V14.9999C15 15.5522 15.4477 15.9999 16 15.9999C16.5523 15.9999 17 15.5522 17 14.9999V8.99988C17 8.44759 16.5523 7.99988 16 7.99988Z" fill="#171E2B"/>
</svg>
