<svg width="24" height="24" viewBox="0 0 24 24" fill="none" xmlns="http://www.w3.org/2000/svg">
<path fill-rule="evenodd" clip-rule="evenodd" d="M19 14.0002C18.7427 13.9334 18.4695 13.9718 18.2405 14.1069C18.0116 14.242 17.8459 14.4626 17.78 14.7202C16.9934 17.8235 14.2015 19.9977 11 20.0002H5.41001L6.05001 19.3702C6.43774 18.9801 6.43774 18.3502 6.05001 17.9602C4.04065 15.9591 3.43709 12.9434 4.52156 10.3232C5.60603 7.70296 8.16422 5.99589 11 6.00015C11.5523 6.00015 12 5.55244 12 5.00015C12 4.44787 11.5523 4.00015 11 4.00015C7.54624 4.01151 4.4036 5.99833 2.91208 9.11347C1.42057 12.2286 1.84329 15.9225 4.00001 18.6202L2.29001 20.2902C2.00627 20.5777 1.92342 21.0078 2.08001 21.3802C2.23342 21.7536 2.59631 21.9981 3.00001 22.0002H11C15.1062 22.0028 18.6935 19.2259 19.72 15.2502C19.796 14.9888 19.7622 14.7077 19.6263 14.4718C19.4905 14.2359 19.2643 14.0655 19 14.0002ZM21.71 5.26011L18.71 2.26011C18.6149 2.16907 18.5028 2.09771 18.38 2.05011C18.1366 1.95009 17.8635 1.95009 17.62 2.05011C17.4973 2.09771 17.3851 2.16907 17.29 2.26011L14.29 5.26011C13.8979 5.65223 13.8979 6.28799 14.29 6.68011C14.6821 7.07223 15.3179 7.07223 15.71 6.68011L17 5.41011V11.0001C17 11.5524 17.4477 12.0001 18 12.0001C18.5523 12.0001 19 11.5524 19 11.0001V5.41011L20.29 6.71011C20.4778 6.89942 20.7334 7.00591 21 7.00591C21.2667 7.00591 21.5222 6.89942 21.71 6.71011C21.8993 6.52234 22.0058 6.26675 22.0058 6.00011C22.0058 5.73347 21.8993 5.47788 21.71 5.29011V5.26011Z" fill="#171E2B"/>
</svg>
