<svg width="24" height="24" viewBox="0 0 24 24" fill="none" xmlns="http://www.w3.org/2000/svg">
<path fill-rule="evenodd" clip-rule="evenodd" d="M6.99998 6.99975C6.4477 6.99975 5.99998 7.44747 5.99998 7.99975C5.99998 8.55204 6.4477 8.99976 6.99998 8.99976C7.55227 8.99976 7.99998 8.55204 7.99998 7.99975C7.99998 7.44747 7.55227 6.99975 6.99998 6.99975ZM6.99998 10.9999C6.4477 10.9999 5.99998 11.4476 5.99998 11.9999C5.99998 12.5522 6.4477 12.9999 6.99998 12.9999C7.55227 12.9999 7.99998 12.5522 7.99998 11.9999C7.99998 11.4476 7.55227 10.9999 6.99998 10.9999ZM17 10.9999H11C10.4477 10.9999 9.99999 11.4476 9.99999 11.9999C9.99999 12.5522 10.4477 12.9999 11 12.9999H17C17.5523 12.9999 18 12.5522 18 11.9999C18 11.4476 17.5523 10.9999 17 10.9999ZM17 6.99975H11C10.4477 6.99975 9.99999 7.44747 9.99999 7.99975C9.99999 8.55204 10.4477 8.99976 11 8.99976H17C17.5523 8.99976 18 8.55204 18 7.99975C18 7.44747 17.5523 6.99975 17 6.99975ZM19 1.99988H5C3.34315 1.99988 2 3.34302 2 4.99988V14.9999C2 16.6567 3.34315 17.9999 5 17.9999H16.59L20.29 21.7099C20.4787 21.8971 20.7342 22.0014 21 21.9999C21.1312 22.0033 21.2613 21.9759 21.38 21.9199C21.7534 21.7665 21.998 21.4036 22 20.9999V4.99988C22 3.34302 20.6569 1.99988 19 1.99988ZM20 18.5898L17.71 16.2898C17.5213 16.1026 17.2658 15.9982 17 15.9998H5.00001C4.44773 15.9998 4.00002 15.552 4.00002 14.9998V4.99975C4.00002 4.44747 4.44773 3.99975 5.00001 3.99975H19C19.5523 3.99975 20 4.44747 20 4.99975V18.5898Z" fill="#171E2B"/>
</svg>
