<svg width="24" height="24" viewBox="0 0 24 24" fill="none" xmlns="http://www.w3.org/2000/svg">
<path fill-rule="evenodd" clip-rule="evenodd" d="M6.11999 11.9199C6.36203 12.0269 6.63795 12.0269 6.87999 11.9199C7.00275 11.8723 7.11489 11.8009 7.20999 11.7099L10.21 8.70988C10.4637 8.45622 10.5627 8.0865 10.4699 7.74C10.377 7.3935 10.1064 7.12285 9.75987 7.03C9.41337 6.93715 9.04365 7.03622 8.78999 7.28988L7.49999 8.58988V2.99988C7.49999 2.44759 7.05228 1.99988 6.49999 1.99988C5.94771 1.99988 5.49999 2.44759 5.49999 2.99988V8.58988L4.20999 7.28988C3.95634 7.03622 3.58662 6.93715 3.24012 7.03C2.89361 7.12285 2.62296 7.3935 2.53012 7.74C2.43727 8.0865 2.53634 8.45622 2.78999 8.70988L5.78999 11.7099C5.8851 11.8009 5.99724 11.8723 6.11999 11.9199ZM18.5 5.9999H13.5C12.9477 5.9999 12.5 6.44761 12.5 6.9999C12.5 7.55218 12.9477 7.9999 13.5 7.9999H18.5C19.0523 7.9999 19.5 8.44761 19.5 8.9999V18.7199L17.93 17.2699C17.7456 17.0972 17.5026 17.0008 17.25 16.9999H8.49999C7.9477 16.9999 7.49999 16.5522 7.49999 15.9999V14.9999C7.49999 14.4476 7.05227 13.9999 6.49999 13.9999C5.9477 13.9999 5.49999 14.4476 5.49999 14.9999V15.9999C5.49999 17.6568 6.84314 18.9999 8.49999 18.9999H16.86L19.86 21.7299C20.0444 21.9026 20.2874 21.999 20.54 21.9999C20.6771 21.9984 20.8128 21.9713 20.94 21.9199C21.3056 21.7603 21.5414 21.3988 21.54 20.9999V8.9999C21.5401 8.19727 21.2185 7.42808 20.6472 6.86431C20.0759 6.30054 19.3025 5.9892 18.5 5.9999Z" fill="#171E2B"/>
</svg>
