<svg width="24" height="24" viewBox="0 0 24 24" fill="none" xmlns="http://www.w3.org/2000/svg">
<path fill-rule="evenodd" clip-rule="evenodd" d="M20.61 19.1902C21.8794 17.4886 22.3081 15.303 21.7754 13.248C21.2427 11.193 19.8062 9.4908 17.87 8.62021C17.2997 5.33872 14.7559 2.75394 11.4839 2.13121C8.21197 1.50849 4.89652 2.97813 3.16063 5.82068C1.42473 8.66323 1.63162 12.2839 3.68002 14.9102L2.29002 16.2902C2.00627 16.5778 1.92342 17.0078 2.08002 17.3802C2.23342 17.7536 2.59632 17.9982 3.00002 18.0002H8.69002C9.84652 20.4383 12.3015 21.9946 15 22.0002H21C21.4037 21.9982 21.7666 21.7536 21.92 21.3802C22.0766 21.0078 21.9938 20.5778 21.71 20.2902L20.61 19.1902ZM8.00002 15.0002C8.0014 15.3351 8.02814 15.6694 8.08002 16.0002H5.41003L5.76003 15.6602C5.94934 15.4724 6.05582 15.2168 6.05582 14.9502C6.05582 14.6836 5.94934 14.428 5.76003 14.2402C4.62789 13.1205 3.99364 11.5925 4.00003 10.0002C4.00003 6.6865 6.68632 4.00021 10 4.00021C12.546 3.98491 14.8185 5.59381 15.65 8.00021C15.43 8.00021 15.22 8.00021 15 8.00021C11.134 8.00021 8.00002 11.1342 8.00002 15.0002ZM18.54 20.0003L18.59 20.0503H15C12.6149 20.046 10.5649 18.3577 10.1034 16.0176C9.64197 13.6776 10.8976 11.3374 13.1026 10.428C15.3075 9.51861 17.8478 10.2932 19.1702 12.2783C20.4925 14.2633 20.2287 16.9059 18.54 18.5903C18.3516 18.7749 18.2438 19.0265 18.24 19.2903C18.2411 19.5576 18.3492 19.8132 18.54 20.0003Z" fill="#171E2B"/>
</svg>
