<svg width="24" height="24" viewBox="0 0 24 24" fill="none" xmlns="http://www.w3.org/2000/svg">
<path fill-rule="evenodd" clip-rule="evenodd" d="M19.5 6.50014H14.5C13.9477 6.50014 13.5 6.94786 13.5 7.50014C13.5 8.05243 13.9477 8.50014 14.5 8.50014H19.5C20.0523 8.50014 20.5 8.94786 20.5 9.50014V19.2201L18.93 17.7701C18.7456 17.5975 18.5027 17.501 18.25 17.5001H9.50002C8.94774 17.5001 8.50002 17.0524 8.50002 16.5001V14.5001C8.50002 13.9479 8.05231 13.5001 7.50002 13.5001C6.94774 13.5001 6.50002 13.9479 6.50002 14.5001V16.5001C6.50002 18.157 7.84317 19.5001 9.50002 19.5001H17.86L20.86 22.2301C21.0444 22.4028 21.2874 22.4993 21.54 22.5001C21.6772 22.4986 21.8128 22.4715 21.94 22.4201C22.3056 22.2606 22.5414 21.899 22.54 21.5001V9.50014C22.5401 8.69751 22.2185 7.92833 21.6472 7.36455C21.076 6.80078 20.3026 6.48944 19.5 6.50014ZM9.50001 11.5001C10.3689 11.503 11.1403 10.9444 11.4087 10.118C11.6772 9.29158 11.3813 8.38638 10.6765 7.87806C9.97182 7.36974 9.0195 7.37462 8.32001 7.89012L6.57002 7.09012L8.48001 6.21012C8.7819 6.39338 9.12692 6.49344 9.48002 6.50012C10.5846 6.50012 11.48 5.60469 11.48 4.50012C11.48 3.39555 10.5846 2.50012 9.48002 2.50012C8.37545 2.50012 7.48002 3.39555 7.48002 4.50012L5.58002 5.37012C5.26361 5.14448 4.88832 5.01591 4.50002 5.00012C3.39545 5.00012 2.50002 5.89555 2.50002 7.00012C2.50002 8.10469 3.39545 9.00012 4.50002 9.00012C4.82491 8.99685 5.14411 8.91448 5.43002 8.76012L7.52001 9.76012C7.65039 10.7545 8.4971 11.4986 9.50001 11.5001Z" fill="#171E2B"/>
</svg>
