<svg width="24" height="24" viewBox="0 0 24 24" fill="none" xmlns="http://www.w3.org/2000/svg">
<path fill-rule="evenodd" clip-rule="evenodd" d="M12 6.34983C10.8284 5.74914 9.40428 5.96236 8.46 6.87983C7.29019 8.0511 7.29019 9.94856 8.46 11.1198L11.29 13.9998C11.4778 14.1891 11.7334 14.2956 12 14.2956C12.2666 14.2956 12.5222 14.1891 12.71 13.9998L15.54 11.1698C16.7098 9.99856 16.7098 8.1011 15.54 6.92983C14.6074 5.99551 13.182 5.76196 12 6.34983ZM14.12 9.70996L12 11.83L9.88 9.70996C9.69069 9.5222 9.5842 9.2666 9.5842 8.99996C9.5842 8.73333 9.69069 8.47773 9.88 8.28996C10.27 7.90224 10.9 7.90224 11.29 8.28996C11.4778 8.47928 11.7334 8.58576 12 8.58576C12.2666 8.58576 12.5222 8.47928 12.71 8.28996C13.1 7.90224 13.73 7.90224 14.12 8.28996C14.3093 8.47773 14.4158 8.73333 14.4158 8.99996C14.4158 9.2666 14.3093 9.5222 14.12 9.70996ZM19 1.99988H5C3.34315 1.99988 2 3.34302 2 4.99988V14.9999C2 16.6567 3.34315 17.9999 5 17.9999H16.59L20.29 21.7099C20.4787 21.8971 20.7342 22.0014 21 21.9999C21.1312 22.0033 21.2613 21.9759 21.38 21.9199C21.7534 21.7665 21.998 21.4036 22 20.9999V4.99988C22 3.34302 20.6569 1.99988 19 1.99988ZM20 18.5898L17.71 16.2898C17.5213 16.1026 17.2658 15.9982 17 15.9998H5C4.44772 15.9998 4 15.552 4 14.9998V4.99975C4 4.44747 4.44772 3.99975 5 3.99975H19C19.5523 3.99975 20 4.44747 20 4.99975V18.5898Z" fill="#171E2B"/>
</svg>
