<svg width="24" height="24" viewBox="0 0 24 24" fill="none" xmlns="http://www.w3.org/2000/svg">
<path fill-rule="evenodd" clip-rule="evenodd" d="M11 11H17C17.5523 11 18 10.5523 18 10C18 9.44772 17.5523 9 17 9H11C10.4477 9 9.99998 9.44772 9.99998 10C9.99998 10.5523 10.4477 11 11 11ZM6.99999 9C6.44771 9 6 9.44772 6 10C6 10.5523 6.44771 11 6.99999 11C7.55228 11 7.99999 10.5523 7.99999 10C7.99999 9.44772 7.55228 9 6.99999 9ZM6.99999 12.9998C6.44771 12.9998 6 13.4475 6 13.9998C6 14.552 6.44771 14.9998 6.99999 14.9998C7.55228 14.9998 7.99999 14.552 7.99999 13.9998C7.99999 13.4475 7.55228 12.9998 6.99999 12.9998ZM12 1.99988C6.47714 1.99988 1.99998 6.47703 1.99998 11.9999C1.99124 14.309 2.79078 16.5484 4.25998 18.3299L2.25998 20.3299C1.97624 20.6174 1.89339 21.0475 2.04998 21.4199C2.21985 21.7879 2.59504 22.0169 2.99998 21.9999H12C17.5228 21.9999 22 17.5227 22 11.9999C22 6.47703 17.5228 1.99988 12 1.99988ZM12 19.9998H5.40999L6.33999 19.0698C6.53085 18.8827 6.63888 18.627 6.63999 18.3598C6.63624 18.096 6.52841 17.8444 6.33999 17.6598C3.63988 14.9626 3.22088 10.7338 5.33922 7.55928C7.45756 4.38474 11.5233 3.14855 15.0502 4.60667C18.5771 6.06478 20.5829 9.81113 19.8411 13.5548C19.0993 17.2984 15.8164 19.9968 12 19.9998ZM17 12.9998H11C10.4477 12.9998 9.99998 13.4475 9.99998 13.9998C9.99998 14.552 10.4477 14.9998 11 14.9998H17C17.5523 14.9998 18 14.552 18 13.9998C18 13.4475 17.5523 12.9998 17 12.9998Z" fill="#171E2B"/>
</svg>
