<svg width="24" height="24" viewBox="0 0 24 24" fill="none" xmlns="http://www.w3.org/2000/svg">
<path fill-rule="evenodd" clip-rule="evenodd" d="M14 8.99975H13V7.99975C13 7.44747 12.5523 6.99975 12 6.99975C11.4477 6.99975 11 7.44747 11 7.99975V8.99975H9.99998C9.4477 8.99975 8.99998 9.44747 8.99998 9.99975C8.99998 10.552 9.4477 10.9998 9.99998 10.9998H11V11.9998C11 12.552 11.4477 12.9998 12 12.9998C12.5523 12.9998 13 12.552 13 11.9998V10.9998H14C14.5523 10.9998 15 10.552 15 9.99975C15 9.44747 14.5523 8.99975 14 8.99975ZM19 1.99988H5C3.34315 1.99988 2 3.34302 2 4.99988V14.9999C2 16.6567 3.34315 17.9999 5 17.9999H16.59L20.29 21.7099C20.4787 21.8971 20.7342 22.0014 21 21.9999C21.1312 22.0033 21.2613 21.9759 21.38 21.9199C21.7534 21.7665 21.998 21.4036 22 20.9999V4.99988C22 3.34302 20.6569 1.99988 19 1.99988ZM20 18.5898L17.71 16.2898C17.5213 16.1026 17.2658 15.9982 17 15.9998H5.00001C4.44773 15.9998 4.00002 15.552 4.00002 14.9998V4.99975C4.00002 4.44747 4.44773 3.99975 5.00001 3.99975H19C19.5523 3.99975 20 4.44747 20 4.99975V18.5898Z" fill="#171E2B"/>
</svg>
