<svg width="24" height="24" viewBox="0 0 24 24" fill="none" xmlns="http://www.w3.org/2000/svg">
<path fill-rule="evenodd" clip-rule="evenodd" d="M21.7 2.86002C21.4647 2.66967 21.1558 2.59613 20.86 2.66002C20.0503 2.82795 19.2073 2.65428 18.53 2.18002C18.185 1.93755 17.725 1.93755 17.38 2.18002C16.7026 2.65428 15.8596 2.82795 15.05 2.66002C14.7541 2.59613 14.4453 2.66967 14.21 2.86002C13.9777 3.04844 13.8419 3.33093 13.84 3.63002V7.00002C13.8435 8.46901 14.5545 9.84633 15.75 10.7L17.37 11.86C17.7193 12.112 18.1907 12.112 18.54 11.86L20.16 10.7C21.3554 9.84633 22.0664 8.46901 22.07 7.00002V3.63002C22.068 3.33093 21.9322 3.04844 21.7 2.86002ZM20.07 7.00005C20.0427 7.79656 19.6475 8.53536 19 9.00005L18 9.74005L16.91 9.00005C16.2625 8.53536 15.8673 7.79656 15.84 7.00005V4.72005C16.5914 4.69595 17.3285 4.50825 18 4.17005C18.6557 4.50276 19.3753 4.69035 20.11 4.72005L20.07 7.00005ZM18.93 14.0002C18.3974 13.8674 17.8574 14.1888 17.72 14.7202C16.9324 17.8271 14.1352 20.0023 10.93 20.0002H5.34998L5.99998 19.3702C6.36192 18.9852 6.36192 18.3851 5.99998 18.0002C3.96429 16.0057 3.34101 12.9761 4.42402 10.34C5.50703 7.70389 8.08008 5.98751 10.93 6.00017C11.4823 6.00017 11.93 5.55246 11.93 5.00017C11.93 4.44789 11.4823 4.00017 10.93 4.00017C7.4762 4.01153 4.33357 5.99835 2.84205 9.11349C1.35053 12.2286 1.77326 15.9225 3.92998 18.6202L2.22998 20.2902C1.94282 20.575 1.85549 21.0047 2.00871 21.379C2.16193 21.7533 2.52554 21.9985 2.92998 22.0002H10.93C15.0361 22.0028 18.6234 19.2259 19.65 15.2502C19.726 14.9888 19.6922 14.7077 19.5563 14.4718C19.4204 14.2359 19.1942 14.0656 18.93 14.0002Z" fill="#171E2B"/>
</svg>
