<svg width="24" height="24" viewBox="0 0 24 24" fill="none" xmlns="http://www.w3.org/2000/svg">
<path fill-rule="evenodd" clip-rule="evenodd" d="M19 14C18.7427 13.9332 18.4695 13.9716 18.2405 14.1067C18.0116 14.2418 17.8459 14.4625 17.78 14.72C16.9934 17.8234 14.2015 19.9975 11 20H5.41001L6.05001 19.37C6.43774 18.98 6.43774 18.35 6.05001 17.96C4.26691 16.184 3.57439 13.5876 4.23622 11.1595C4.89804 8.73142 6.81233 6.8455 9.25001 6.22C9.78573 6.08193 10.1081 5.53572 9.97001 5C9.83194 4.46428 9.28573 4.14193 8.75001 4.28C5.79779 5.04974 3.43654 7.26271 2.47721 10.1589C1.51788 13.0551 2.0911 16.24 4.00001 18.62L2.29001 20.29C2.00627 20.5776 1.92342 21.0076 2.08001 21.38C2.23342 21.7534 2.59631 21.998 3.00001 22H11C15.1062 22.0026 18.6935 19.2258 19.72 15.25C19.796 14.9886 19.7622 14.7075 19.6263 14.4716C19.4905 14.2357 19.2643 14.0654 19 14ZM20.54 3.45986C18.8556 1.7712 16.213 1.50738 14.228 2.82972C12.243 4.15206 11.4683 6.69235 12.3777 8.89731C13.2871 11.1023 15.6273 12.3579 17.9674 11.8965C20.3074 11.435 21.9958 9.38498 22 6.99986C22.0024 5.67287 21.4772 4.39937 20.54 3.45986ZM14 6.99971C14 5.34286 15.3432 3.99971 17 3.99971C17.447 4.00236 17.8877 4.10486 18.29 4.29971L14.29 8.29971C14.0972 7.89359 13.9981 7.4493 14 6.99971ZM19.12 9.11984C18.2091 9.98572 16.8635 10.2113 15.72 9.68984L19.72 5.68984C19.9109 6.09982 20.0066 6.54765 20 6.99984C19.9993 7.79522 19.6828 8.55777 19.12 9.11984Z" fill="#171E2B"/>
</svg>
