<svg width="24" height="24" viewBox="0 0 24 24" fill="none" xmlns="http://www.w3.org/2000/svg">
<path fill-rule="evenodd" clip-rule="evenodd" d="M19 5.99999H14C13.4477 5.99999 13 6.4477 13 6.99999C13 7.55227 13.4477 7.99999 14 7.99999H19C19.5523 7.99999 20 8.4477 20 8.99999V18.72L18.43 17.27C18.2456 17.0973 18.0026 17.0009 17.75 17H8.99999C8.44771 17 7.99999 16.5523 7.99999 16V14C7.99999 13.4477 7.55228 13 6.99999 13C6.44771 13 5.99999 13.4477 5.99999 14V16C5.99999 17.6568 7.34314 19 8.99999 19H17.36L20.36 21.73C20.5342 21.8936 20.7612 21.9894 21 22C21.1371 21.9985 21.2728 21.9714 21.4 21.92C21.7656 21.7604 22.0014 21.3989 22 21V8.99999C22 7.34313 20.6568 5.99999 19 5.99999ZM8.56998 9.99987L10.29 11.7299C10.4778 11.9192 10.7333 12.0257 11 12.0257C11.2666 12.0257 11.5222 11.9192 11.71 11.7299C11.8993 11.5421 12.0058 11.2865 12.0058 11.0199C12.0058 10.7532 11.8993 10.4976 11.71 10.3099L9.99998 8.56987C10.4191 7.89008 10.6439 7.10844 10.65 6.30986C10.65 3.92123 8.71362 1.98486 6.32499 1.98486C3.93635 1.98486 1.99998 3.92123 1.99998 6.30986C1.99998 8.69184 3.92802 10.6244 6.30998 10.6299C7.1068 10.6308 7.88857 10.4129 8.56998 9.99987ZM3.99999 6.30998C3.99959 5.69758 4.24449 5.11053 4.67999 4.67998C5.11656 4.23284 5.71507 3.98072 6.33999 3.98072C6.96492 3.98072 7.56342 4.23284 7.99999 4.67998C8.4497 5.11517 8.7036 5.71419 8.7036 6.33998C8.7036 6.96578 8.4497 7.5648 7.99999 7.99998C7.33463 8.70021 6.30503 8.91491 5.41525 8.53898C4.52548 8.16305 3.96172 7.27516 3.99999 6.30998Z" fill="#171E2B"/>
</svg>
