<svg width="24" height="24" viewBox="0 0 24 24" fill="none" xmlns="http://www.w3.org/2000/svg">
<path fill-rule="evenodd" clip-rule="evenodd" d="M21.71 4.71994L19.28 2.28994C18.8899 1.90221 18.26 1.90221 17.87 2.28994L12.29 7.86994C12.1028 8.05866 11.9984 8.31414 12 8.57994V10.9999C12 11.5522 12.4477 11.9999 13 11.9999H15.42C15.6858 12.0015 15.9413 11.8971 16.13 11.7099L21.71 6.12994C22.0977 5.7399 22.0977 5.10998 21.71 4.71994ZM15 10.0001H14V9.0001L18.58 4.4201L19.58 5.4201L15 10.0001ZM19 12.0001C18.4477 12.0001 18 12.4478 18 13.0001C18 16.8661 14.866 20.0001 11 20.0001H5.40998L6.04998 19.3701C6.2393 19.1823 6.34578 18.9267 6.34578 18.6601C6.34578 18.3935 6.2393 18.1379 6.04998 17.9501C4.04778 15.9481 3.4488 12.9371 4.53235 10.3212C5.6159 7.70539 8.16859 5.99989 11 6.0001C11.5523 6.0001 12 5.55238 12 5.0001C12 4.44781 11.5523 4.0001 11 4.0001C7.54621 4.01145 4.40357 5.99828 2.91205 9.11341C1.42054 12.2286 1.84326 15.9225 3.99998 18.6201L2.28998 20.2901C2.00624 20.5777 1.92339 21.0077 2.07998 21.3801C2.23339 21.7535 2.59628 21.9981 2.99998 22.0001H11C15.9705 22.0001 20 17.9707 20 13.0001C20 12.4478 19.5523 12.0001 19 12.0001Z" fill="#171E2B"/>
</svg>
