<svg width="24" height="24" viewBox="0 0 24 24" fill="none" xmlns="http://www.w3.org/2000/svg">
<path fill-rule="evenodd" clip-rule="evenodd" d="M6.77 9.14984L12.21 3.70984C12.4637 3.45618 12.5627 3.08647 12.4699 2.73996C12.377 2.39346 12.1064 2.12281 11.7599 2.02996C11.4134 1.93712 11.0437 2.03618 10.79 2.28984L6.06 6.99984L4.21 5.16984C3.81788 4.77772 3.18212 4.77772 2.79 5.16984C2.39788 5.56196 2.39788 6.19772 2.79 6.58984L5.35 9.14984C5.53777 9.33915 5.79337 9.44564 6.06 9.44564C6.32664 9.44564 6.58224 9.33915 6.77 9.14984ZM18.5 5.9999H13C12.4477 5.9999 12 6.44762 12 6.9999C12 7.55219 12.4477 7.9999 13 7.9999H18.5C19.0523 7.9999 19.5 8.44762 19.5 8.9999V18.7199L17.93 17.2699C17.7456 17.0972 17.5027 17.0008 17.25 16.9999H8.50002C7.94773 16.9999 7.50002 16.5522 7.50002 15.9999V12.4999C7.50002 11.9476 7.0523 11.4999 6.50002 11.4999C5.94773 11.4999 5.50002 11.9476 5.50002 12.4999V15.9999C5.50002 17.6568 6.84316 18.9999 8.50002 18.9999H16.86L19.86 21.7299C20.0444 21.9026 20.2874 21.999 20.54 21.9999C20.6772 21.9984 20.8128 21.9713 20.94 21.9199C21.3056 21.7604 21.5414 21.3988 21.54 20.9999V8.9999C21.5401 8.19727 21.2185 7.42809 20.6472 6.86431C20.076 6.30054 19.3026 5.9892 18.5 5.9999Z" fill="#171E2B"/>
</svg>
