<svg width="24" height="24" viewBox="0 0 24 24" fill="none" xmlns="http://www.w3.org/2000/svg">
<path fill-rule="evenodd" clip-rule="evenodd" d="M12 9C11.4477 9 11 9.44772 11 10V13C11 13.5523 11.4477 14 12 14C12.5523 14 13 13.5523 13 13V10C13 9.44772 12.5523 9 12 9ZM19 1.99988H5C3.34315 1.99988 2 3.34302 2 4.99988V14.9999C2 16.6567 3.34315 17.9999 5 17.9999H16.59L20.29 21.7099C20.4787 21.8971 20.7342 22.0014 21 21.9999C21.1312 22.0033 21.2613 21.9759 21.38 21.9199C21.7534 21.7665 21.998 21.4036 22 20.9999V4.99988C22 3.34302 20.6569 1.99988 19 1.99988ZM20 18.5898L17.71 16.2898C17.5213 16.1026 17.2658 15.9982 17 15.9998H5.00001C4.44773 15.9998 4.00002 15.552 4.00002 14.9998V4.99975C4.00002 4.44747 4.44773 3.99975 5.00001 3.99975H19C19.5523 3.99975 20 4.44747 20 4.99975V18.5898ZM12 6C11.4477 6 11 6.44772 11 7C11 7.55228 11.4477 8 12 8C12.5523 8 13 7.55228 13 7C13 6.44772 12.5523 6 12 6Z" fill="#171E2B"/>
</svg>
