<svg width="24" height="24" viewBox="0 0 24 24" fill="none" xmlns="http://www.w3.org/2000/svg">
<path fill-rule="evenodd" clip-rule="evenodd" d="M12 7.99988C11.4477 7.99988 11 8.44759 11 8.99988V12.9999C11 13.5522 11.4477 13.9999 12 13.9999C12.5523 13.9999 13 13.5522 13 12.9999V8.99988C13 8.44759 12.5523 7.99988 12 7.99988ZM8.00003 10.9999C7.44775 10.9999 7.00003 11.4476 7.00003 11.9999V12.9999C7.00003 13.5522 7.44775 13.9999 8.00003 13.9999C8.55232 13.9999 9.00003 13.5522 9.00003 12.9999V11.9999C9.00003 11.4476 8.55232 10.9999 8.00003 10.9999ZM19 1.99988H5.00002C3.34316 1.99988 2.00002 3.34302 2.00002 4.99988V14.9999C2.00002 16.6567 3.34316 17.9999 5.00002 17.9999H16.59L20.29 21.7099C20.4787 21.8971 20.7342 22.0014 21 21.9999C21.1312 22.0033 21.2613 21.9759 21.38 21.9199C21.7534 21.7665 21.998 21.4036 22 20.9999V4.99988C22 3.34302 20.6569 1.99988 19 1.99988ZM20 18.5898L17.71 16.2898C17.5213 16.1026 17.2658 15.9982 17 15.9998H5.00003C4.44775 15.9998 4.00003 15.552 4.00003 14.9998V4.99975C4.00003 4.44747 4.44775 3.99975 5.00003 3.99975H19C19.5523 3.99975 20 4.44747 20 4.99975V18.5898ZM16 6C15.4477 6 15 6.44772 15 7V13C15 13.5523 15.4477 14 16 14C16.5523 14 17 13.5523 17 13V7C17 6.44772 16.5523 6 16 6Z" fill="#171E2B"/>
</svg>
