<svg width="24" height="24" viewBox="0 0 24 24" fill="none" xmlns="http://www.w3.org/2000/svg">
<path fill-rule="evenodd" clip-rule="evenodd" d="M12 13.9999C11.4477 13.9999 11 14.4476 11 14.9999C11 15.5522 11.4477 15.9999 12 15.9999C12.5523 15.9999 13 15.5522 13 14.9999C13 14.4476 12.5523 13.9999 12 13.9999ZM12 1.99988C6.47717 1.99988 2.00002 6.47703 2.00002 11.9999C1.99127 14.309 2.79081 16.5484 4.26002 18.3299L2.26002 20.3299C1.97627 20.6174 1.89342 21.0475 2.05002 21.4199C2.21988 21.7879 2.59507 22.0169 3.00002 21.9999H12C17.5229 21.9999 22 17.5227 22 11.9999C22 6.47703 17.5229 1.99988 12 1.99988ZM12 19.9998H5.41L6.34 19.0698C6.53086 18.8827 6.63889 18.627 6.64 18.3598C6.63624 18.096 6.52841 17.8444 6.34 17.6598C3.63988 14.9626 3.22088 10.7338 5.33923 7.55928C7.45757 4.38474 11.5233 3.14855 15.0502 4.60667C18.5771 6.06478 20.5829 9.81113 19.8411 13.5548C19.0993 17.2984 15.8164 19.9968 12 19.9998ZM12 7.99988C11.4477 7.99988 11 8.44759 11 8.99988V11.9999C11 12.5522 11.4477 12.9999 12 12.9999C12.5523 12.9999 13 12.5522 13 11.9999V8.99988C13 8.44759 12.5523 7.99988 12 7.99988Z" fill="#171E2B"/>
</svg>
