<svg width="24" height="24" viewBox="0 0 24 24" fill="none" xmlns="http://www.w3.org/2000/svg">
<path fill-rule="evenodd" clip-rule="evenodd" d="M12 1.99988C6.47714 1.99988 1.99998 6.47703 1.99998 11.9999C1.99124 14.309 2.79078 16.5484 4.25998 18.3299L2.25998 20.3299C1.97624 20.6174 1.89339 21.0475 2.04998 21.4199C2.21985 21.7879 2.59504 22.0169 2.99998 21.9999H12C17.5228 21.9999 22 17.5227 22 11.9999C22 6.47703 17.5228 1.99988 12 1.99988ZM12 19.9998H5.40999L6.33999 19.0698C6.72772 18.6797 6.72772 18.0498 6.33999 17.6598C3.63988 14.9626 3.22088 10.7338 5.33922 7.55928C7.45756 4.38474 11.5233 3.14855 15.0502 4.60667C18.5771 6.06478 20.5829 9.81113 19.8411 13.5548C19.0993 17.2984 15.8164 19.9968 12 19.9998ZM17 10.9999H7C6.44771 10.9999 6 11.4476 6 11.9999C6 12.5522 6.44771 12.9999 7 12.9999H17C17.5523 12.9999 18 12.5522 18 11.9999C18 11.4476 17.5523 10.9999 17 10.9999ZM15 15H8.99999C8.4477 15 7.99999 15.4477 7.99999 16C7.99999 16.5523 8.4477 17 8.99999 17H15C15.5523 17 16 16.5523 16 16C16 15.4477 15.5523 15 15 15ZM8.99999 8.99976H15C15.5523 8.99976 16 8.55204 16 7.99975C16 7.44747 15.5523 6.99975 15 6.99975H8.99999C8.4477 6.99975 7.99999 7.44747 7.99999 7.99975C7.99999 8.55204 8.4477 8.99976 8.99999 8.99976Z" fill="#171E2B"/>
</svg>
