<svg width="24" height="24" viewBox="0 0 24 24" fill="none" xmlns="http://www.w3.org/2000/svg">
<path fill-rule="evenodd" clip-rule="evenodd" d="M19 13.9998C18.7427 13.933 18.4694 13.9714 18.2405 14.1065C18.0116 14.2416 17.8459 14.4622 17.78 14.7198C16.9933 17.8231 14.2015 19.9973 11 19.9998H5.40998L6.04998 19.3698C6.43771 18.9797 6.43771 18.3498 6.04998 17.9598C4.04062 15.9587 3.43706 12.943 4.52153 10.3228C5.606 7.70256 8.16419 5.99549 11 5.99975C11.2931 5.98454 11.5868 5.98454 11.88 5.99975C12.2372 6.04263 12.5902 5.89164 12.806 5.60368C13.0218 5.31571 13.0675 4.93451 12.926 4.60368C12.7845 4.27284 12.4772 4.04263 12.12 3.99975C11.7471 3.9746 11.3729 3.9746 11 3.99975C7.54621 4.01111 4.40357 5.99793 2.91205 9.11307C1.42054 12.2282 1.84326 15.9221 3.99998 18.6198L2.28998 20.2898C2.00624 20.5773 1.92339 21.0074 2.07998 21.3798C2.23339 21.7532 2.59628 21.9977 2.99998 21.9998H11C15.1061 22.0024 18.6935 19.2255 19.72 15.2498C19.796 14.9884 19.7622 14.7073 19.6263 14.4714C19.4904 14.2355 19.2642 14.0651 19 13.9998ZM21.71 7.25988C21.5222 7.07057 21.2666 6.96408 21 6.96408C20.7334 6.96408 20.4778 7.07057 20.29 7.25988L19 8.58988V2.99988C19 2.44759 18.5523 1.99988 18 1.99988C17.4477 1.99988 17 2.44759 17 2.99988V8.58988L15.71 7.28988C15.4563 7.03622 15.0866 6.93715 14.7401 7.03C14.3936 7.12285 14.123 7.3935 14.0301 7.74C13.9373 8.0865 14.0363 8.45622 14.29 8.70988L17.29 11.7099C17.3851 11.8009 17.4972 11.8723 17.62 11.9199C17.862 12.0269 18.1379 12.0269 18.38 11.9199C18.5027 11.8723 18.6149 11.8009 18.71 11.7099L21.71 8.70988C21.8993 8.52211 22.0058 8.26652 22.0058 7.99988C22.0058 7.73324 21.8993 7.47764 21.71 7.28988V7.25988Z" fill="#171E2B"/>
</svg>
