<svg width="24" height="24" viewBox="0 0 24 24" fill="none" xmlns="http://www.w3.org/2000/svg">
<path fill-rule="evenodd" clip-rule="evenodd" d="M18.5 5.5H14.5C13.9477 5.5 13.5 5.94771 13.5 6.5C13.5 7.05228 13.9477 7.5 14.5 7.5H18.5C19.0523 7.5 19.5 7.94771 19.5 8.5V18.22L17.93 16.77C17.7456 16.5973 17.5026 16.5009 17.25 16.5H8.5C7.94772 16.5 7.5 16.0523 7.5 15.5V14.5C7.5 13.9477 7.05229 13.5 6.5 13.5C5.94772 13.5 5.5 13.9477 5.5 14.5V15.5C5.5 17.1569 6.84315 18.5 8.5 18.5H16.86L19.86 21.23C20.0444 21.4027 20.2874 21.4991 20.54 21.5C20.6772 21.4985 20.8128 21.4714 20.94 21.42C21.3056 21.2604 21.5414 20.8989 21.54 20.5V8.5C21.5401 7.69737 21.2185 6.92818 20.6472 6.36441C20.0759 5.80063 19.3026 5.48929 18.5 5.5ZM9.08 12.4998H11.5C12.0523 12.4998 12.5 12.0521 12.5 11.4998V9.07982C12.5015 8.81401 12.3972 8.55854 12.21 8.36982L6.63 2.78982C6.23996 2.40209 5.61004 2.40209 5.22 2.78982L2.79 5.21982C2.40228 5.60985 2.40228 6.23978 2.79 6.62982L8.37 12.2098C8.55872 12.397 8.81419 12.5014 9.08 12.4998ZM5.91999 4.90985L10.5 9.48985V10.4899H9.49999L4.90999 5.91985L5.91999 4.90985Z" fill="#171E2B"/>
</svg>
