<svg width="24" height="24" viewBox="0 0 24 24" fill="none" xmlns="http://www.w3.org/2000/svg">
<path fill-rule="evenodd" clip-rule="evenodd" d="M12 8.34971C10.8285 7.74902 9.4043 7.96224 8.46003 8.8797C7.29021 10.051 7.29021 11.9484 8.46003 13.1197L11.29 15.9997C11.4778 16.189 11.7334 16.2955 12 16.2955C12.2667 16.2955 12.5223 16.189 12.71 15.9997L15.54 13.1697C16.7098 11.9984 16.7098 10.101 15.54 8.92971C14.6075 7.99538 13.182 7.76183 12 8.34971ZM14.12 11.7098L12 13.8298L9.88002 11.7098C9.69071 11.5221 9.58423 11.2665 9.58423 10.9998C9.58423 10.7332 9.69071 10.4776 9.88002 10.2898C10.2701 9.90212 10.9 9.90212 11.29 10.2898C11.4778 10.4792 11.7334 10.5856 12 10.5856C12.2667 10.5856 12.5223 10.4792 12.71 10.2898C13.1001 9.90212 13.73 9.90212 14.12 10.2898C14.3093 10.4776 14.4158 10.7332 14.4158 10.9998C14.4158 11.2665 14.3093 11.5221 14.12 11.7098ZM12 1.99988C6.47717 1.99988 2.00001 6.47703 2.00001 11.9999C1.99127 14.309 2.79081 16.5484 4.26001 18.3299L2.26001 20.3299C1.97627 20.6174 1.89342 21.0475 2.05001 21.4199C2.21988 21.7879 2.59507 22.0169 3.00001 21.9999H12C17.5229 21.9999 22 17.5227 22 11.9999C22 6.47703 17.5229 1.99988 12 1.99988ZM12 19.9998H5.41L6.34 19.0698C6.72772 18.6797 6.72772 18.0498 6.34 17.6598C3.63988 14.9626 3.22088 10.7338 5.33923 7.55928C7.45757 4.38474 11.5233 3.14855 15.0502 4.60667C18.5771 6.06478 20.5829 9.81113 19.8411 13.5548C19.0993 17.2984 15.8164 19.9968 12 19.9998Z" fill="#171E2B"/>
</svg>
