<svg width="24" height="24" viewBox="0 0 24 24" fill="none" xmlns="http://www.w3.org/2000/svg">
<path fill-rule="evenodd" clip-rule="evenodd" d="M18.92 16.1299C18.6895 15.9963 18.4152 15.9603 18.158 16.0297C17.9008 16.0992 17.682 16.2684 17.55 16.4999C16.3018 18.6619 13.9965 19.9955 11.5 19.9999H5.91001L6.55001 19.3699C6.93773 18.9798 6.93773 18.3499 6.55001 17.9599C4.65133 16.0719 3.99597 13.2663 4.86182 10.7325C5.72766 8.19883 7.963 6.38102 10.62 6.04987C10.9773 6.007 11.2845 5.77678 11.426 5.44595C11.5675 5.11511 11.5218 4.73391 11.306 4.44595C11.0903 4.15798 10.7373 4.007 10.38 4.04987C7.14056 4.45068 4.37205 6.57404 3.14511 9.59882C1.91818 12.6236 2.42516 16.0756 4.47001 18.6199L2.79001 20.2899C2.50627 20.5774 2.42341 21.0075 2.58001 21.3799C2.73341 21.7533 3.09631 21.9979 3.50001 21.9999H11.5C14.7139 21.9984 17.6831 20.2832 19.29 17.4999C19.4236 17.2693 19.4596 16.9951 19.3901 16.7379C19.3207 16.4807 19.1514 16.2618 18.92 16.1299ZM19.5 6.17988V4.99988C19.5 3.34302 18.1569 1.99988 16.5 1.99988C14.8432 1.99988 13.5 3.34302 13.5 4.99988V6.17988C12.3043 6.60262 11.5036 7.73162 11.5 8.99988V10.9999C11.5 12.6567 12.8432 13.9999 14.5 13.9999H18.5C20.1569 13.9999 21.5 12.6567 21.5 10.9999V8.99988C21.4965 7.73162 20.6957 6.60262 19.5 6.17988ZM15.5 4.99975C15.5 4.44747 15.9477 3.99975 16.5 3.99975C17.0523 3.99975 17.5 4.44747 17.5 4.99975V5.99975H15.5V4.99975ZM19.5 10.9999C19.5 11.5522 19.0523 11.9999 18.5 11.9999H14.5C13.9477 11.9999 13.5 11.5522 13.5 10.9999V8.99988C13.5 8.44759 13.9477 7.99988 14.5 7.99988H18.5C19.0523 7.99988 19.5 8.44759 19.5 8.99988V10.9999Z" fill="#171E2B"/>
</svg>
