<svg width="24" height="24" viewBox="0 0 24 24" fill="none" xmlns="http://www.w3.org/2000/svg">
<path d="M12.8524 11.4788H15.0143C15.1805 11.4788 15.2914 11.4234 15.4023 11.3125C15.5131 11.2017 15.5686 11.0908 15.5686 10.9245V8.87353C15.5686 8.70724 15.5131 8.59637 15.4023 8.48551C15.2914 8.37465 15.1805 8.31921 15.0143 8.31921H12.8524C12.5198 8.31921 12.2981 8.59637 12.2981 8.87353V10.9245C12.2981 11.2571 12.5198 11.4788 12.8524 11.4788ZM13.4067 10.3702V9.42785H14.4599V10.3702H13.4067Z" fill="#171717"/>
<path d="M12.8523 7.37686H15.0142C15.1805 7.37686 15.2913 7.32143 15.4022 7.21057C15.5131 7.09971 15.5685 6.93341 15.5685 6.82255V4.77157C15.5685 4.60528 15.5131 4.49441 15.4022 4.38355C15.2913 4.27269 15.125 4.21725 15.0142 4.21725H12.9078H12.8523C12.5752 4.27269 12.3535 4.49441 12.3535 4.77157V6.82255C12.298 7.15514 12.5198 7.37686 12.8523 7.37686ZM13.4067 6.26823V5.32589H14.4599V6.26823H13.4067Z" fill="#171717"/>
<path d="M21.2225 20.7359H20.5019V9.37242C20.5019 9.20613 20.4465 9.09527 20.3356 8.9844C20.2248 8.87354 20.0585 8.81811 19.9476 8.81811H17.6195V2.55432V2.44345C17.564 2.22173 17.3423 2 17.0652 2H6.69942H6.64399C6.36683 2.05543 6.14511 2.27716 6.14511 2.55432V8.81811H3.70611C3.42895 8.87354 3.26266 9.09526 3.26266 9.37242V20.7359H2.54204H2.48661C2.20945 20.7359 1.93229 21.0131 1.98773 21.3457C1.98773 21.6228 2.26488 21.9 2.54204 21.9H21.278C21.5551 21.9 21.8323 21.6228 21.8323 21.3457C21.7769 21.0131 21.5551 20.7359 21.2225 20.7359ZM19.3933 9.92674V20.7359H17.6195V9.92674H19.3933ZM12.9078 17.7426V20.7359H10.7459V17.7426H12.9078ZM13.9056 16.7448C13.7947 16.634 13.6838 16.5786 13.5175 16.5786H10.2471C9.9699 16.5786 9.69274 16.8557 9.69274 17.1329V20.6805H7.25374V3.0532H16.5108V20.6805H14.0718V17.1329C14.0164 17.022 13.961 16.8557 13.9056 16.7448ZM6.08968 9.92674V20.7359H4.31586V9.92674H6.08968Z" fill="#171717"/>
<path d="M10.8569 12.3658H8.69506H8.63963C8.36247 12.4212 8.14075 12.6429 8.14075 12.9201V14.971C8.14075 15.1373 8.19618 15.2482 8.30704 15.3591C8.41791 15.4699 8.52877 15.5254 8.69506 15.5254H10.8569C11.0232 15.5254 11.1341 15.4699 11.2449 15.3591C11.3558 15.2482 11.4112 15.1373 11.4112 14.971V12.9201C11.4112 12.5875 11.1895 12.3658 10.8569 12.3658ZM10.3026 13.4744V14.4167H9.24938V13.4744H10.3026Z" fill="#171717"/>
<path d="M15.0143 15.5254C15.1805 15.5254 15.2914 15.4699 15.4023 15.3591C15.5131 15.2482 15.5686 15.0819 15.5686 14.971V12.9201C15.5686 12.7538 15.5131 12.6429 15.4023 12.532C15.2914 12.4212 15.1805 12.3658 15.0143 12.3658H12.8524H12.797C12.5198 12.4212 12.2981 12.6429 12.2981 12.9201V14.971C12.2981 15.3036 12.5198 15.5254 12.8524 15.5254H15.0143ZM13.4067 14.4167V13.4744H14.4599V14.4167H13.4067Z" fill="#171717"/>
<path d="M10.8568 4.21725H8.75036H8.69493C8.41777 4.27269 8.19604 4.49441 8.19604 4.77157V6.82255C8.19604 7.15514 8.41777 7.37686 8.75036 7.37686H10.9122C11.0785 7.37686 11.1894 7.32143 11.3002 7.21057C11.4111 7.09971 11.4665 6.98884 11.4665 6.82255V4.77157C11.4111 4.43898 11.1894 4.21725 10.8568 4.21725ZM10.3025 5.32589V6.26823H9.24925V5.32589H10.3025Z" fill="#171717"/>
<path d="M10.8569 8.31921H8.69506C8.36247 8.31921 8.14075 8.59637 8.14075 8.87353V10.9245C8.14075 11.2017 8.41791 11.4788 8.69506 11.4788H10.8569C11.1895 11.4788 11.4112 11.2571 11.4112 10.9245V8.87353C11.4112 8.70724 11.3558 8.59637 11.2449 8.48551C11.1895 8.37465 11.0232 8.31921 10.8569 8.31921ZM10.3026 9.42785V10.3702H9.24938V9.42785H10.3026Z" fill="#171717"/>
</svg>
