<svg width="24" height="24" viewBox="0 0 24 24" fill="none" xmlns="http://www.w3.org/2000/svg">
<path fill-rule="evenodd" clip-rule="evenodd" d="M12 2.00012C6.47715 2.00012 2 6.47727 2 12.0001C2 17.523 6.47715 22.0001 12 22.0001C17.5228 22.0001 22 17.523 22 12.0001C22 9.34796 20.9464 6.80442 19.0711 4.92905C17.1957 3.05369 14.6522 2.00012 12 2.00012ZM13 19.9301V19.0001C13 18.4478 12.5523 18.0001 12 18.0001C11.4477 18.0001 11 18.4478 11 19.0001V19.9301C7.37981 19.471 4.52909 16.6203 4.07 13.0001H5C5.55228 13.0001 6 12.5524 6 12.0001C6 11.4478 5.55228 11.0001 5 11.0001H4.07C4.52909 7.37993 7.37981 4.52921 11 4.07012V5.00012C11 5.55241 11.4477 6.00012 12 6.00012C12.5523 6.00012 13 5.55241 13 5.00012V4.07012C16.6202 4.52921 19.4709 7.37993 19.93 11.0001H19C18.4477 11.0001 18 11.4478 18 12.0001C18 12.5524 18.4477 13.0001 19 13.0001H19.93C19.4709 16.6203 16.6202 19.471 13 19.9301ZM15.14 7.55017L10.14 9.67017C9.90692 9.77116 9.721 9.95708 9.62001 10.1902L7.50001 15.1902C7.33889 15.5653 7.42201 16.0008 7.71001 16.2902C7.89464 16.4786 8.14624 16.5864 8.41001 16.5902C8.54838 16.5903 8.68503 16.5595 8.81001 16.5002L13.81 14.3802C14.0431 14.2792 14.229 14.0933 14.33 13.8602L16.45 8.86017C16.6081 8.48535 16.5233 8.05212 16.2357 7.76447C15.9481 7.47683 15.5148 7.3921 15.14 7.55017ZM12.65 12.6501L10.37 13.6501L11.37 11.3701L13.65 10.3701L12.65 12.6501Z" fill="#171E2B"/>
</svg>
