<svg width="24" height="24" viewBox="0 0 24 24" fill="none" xmlns="http://www.w3.org/2000/svg">
<path fill-rule="evenodd" clip-rule="evenodd" d="M21.71 20.29L15.41 14H17C17.5523 14 18 13.5522 18 13C18 12.4477 17.5523 12 17 12H13.41L19.07 6.33996C19.3554 6.09557 19.4797 5.71185 19.3918 5.34654C19.3039 4.98124 19.0187 4.69603 18.6534 4.60815C18.2881 4.52028 17.9044 4.64459 17.66 4.92996L12 10.59V6.99996C12 6.44768 11.5523 5.99996 11 5.99996C10.4477 5.99996 9.99999 6.44768 9.99999 6.99996V8.58996L3.70999 2.28996C3.45634 2.03631 3.08662 1.93724 2.74012 2.03009C2.39361 2.12293 2.12296 2.39358 2.03012 2.74009C1.93727 3.08659 2.03634 3.45631 2.28999 3.70996L8.58999 9.99996H6.99999C6.44771 9.99996 5.99999 10.4477 5.99999 11C5.99999 11.5522 6.44771 12 6.99999 12H10.59L4.92999 17.66C4.54227 18.05 4.54227 18.6799 4.92999 19.07C5.32003 19.4577 5.94996 19.4577 6.33999 19.07L12 13.41V17C12 17.5522 12.4477 18 13 18C13.5523 18 14 17.5522 14 17V15.41L20.29 21.71C20.4778 21.8993 20.7334 22.0058 21 22.0058C21.2666 22.0058 21.5222 21.8993 21.71 21.71C21.8993 21.5222 22.0058 21.2666 22.0058 21C22.0058 20.7333 21.8993 20.4777 21.71 20.29Z" fill="#171E2B"/>
</svg>
