<svg width="24" height="24" viewBox="0 0 24 24" fill="none" xmlns="http://www.w3.org/2000/svg">
<path fill-rule="evenodd" clip-rule="evenodd" d="M10.5 5.49996C9.94771 5.49996 9.49999 5.94768 9.49999 6.49996V8.08996L3.70999 2.28996C3.45634 2.03631 3.08662 1.93724 2.74012 2.03009C2.39361 2.12293 2.12296 2.39358 2.03012 2.74009C1.93727 3.08659 2.03634 3.45631 2.28999 3.70996L8.08999 9.49996H6.49999C5.94771 9.49996 5.49999 9.94768 5.49999 10.5C5.49999 11.0522 5.94771 11.5 6.49999 11.5H10.5C10.6307 11.4984 10.7598 11.4712 10.88 11.42C11.1243 11.3185 11.3185 11.1243 11.42 10.88C11.4712 10.7597 11.4984 10.6306 11.5 10.5V6.49996C11.5 6.23475 11.3946 5.98039 11.2071 5.79286C11.0196 5.60532 10.7652 5.49996 10.5 5.49996ZM21.71 20.29L15.91 14.5H17.5C18.0523 14.5 18.5 14.0523 18.5 13.5C18.5 12.9477 18.0523 12.5 17.5 12.5H13.5C13.3693 12.5016 13.2402 12.5288 13.12 12.58C12.8756 12.6815 12.6815 12.8757 12.58 13.12C12.5288 13.2402 12.5016 13.3693 12.5 13.5V17.5C12.5 18.0523 12.9477 18.5 13.5 18.5C14.0523 18.5 14.5 18.0523 14.5 17.5V15.91L20.29 21.71C20.4778 21.8993 20.7334 22.0058 21 22.0058C21.2666 22.0058 21.5222 21.8993 21.71 21.71C21.8993 21.5222 22.0058 21.2666 22.0058 21C22.0058 20.7334 21.8993 20.4778 21.71 20.29Z" fill="#171E2B"/>
</svg>
