<svg width="24" height="24" viewBox="0 0 24 24" fill="none" xmlns="http://www.w3.org/2000/svg">
<path fill-rule="evenodd" clip-rule="evenodd" d="M12 2.00012C8.13402 2.00012 5.00002 5.13413 5.00002 9.00012V15.0001C5.00002 18.8661 8.13402 22.0001 12 22.0001C15.866 22.0001 19 18.8661 19 15.0001V9.00012C19 5.13413 15.866 2.00012 12 2.00012ZM7.00003 9.00012C6.99955 6.62378 8.6717 4.57539 11 4.10012V10.0001H7.00003V9.00012ZM17 15.0001C17 17.7615 14.7615 20.0001 12 20.0001C9.23861 20.0001 7.00003 17.7615 7.00003 15.0001V12.0001H17V15.0001ZM17 10.0001H13V4.10012C15.3284 4.57539 17.0005 6.62378 17 9.00012V10.0001Z" fill="#171E2B"/>
</svg>
