<svg width="24" height="24" viewBox="0 0 24 24" fill="none" xmlns="http://www.w3.org/2000/svg">
<path fill-rule="evenodd" clip-rule="evenodd" d="M21.71 2.29006C21.5222 2.10075 21.2666 1.99426 21 1.99426C20.7334 1.99426 20.4778 2.10075 20.29 2.29006L14.5 8.09006V6.50006C14.5 5.94778 14.0523 5.50006 13.5 5.50006C12.9477 5.50006 12.5 5.94778 12.5 6.50006V10.5001C12.5016 10.6307 12.5287 10.7598 12.58 10.8801C12.6815 11.1244 12.8756 11.3186 13.12 11.4201C13.2402 11.4713 13.3693 11.4985 13.5 11.5001H17.5C18.0523 11.5001 18.5 11.0523 18.5 10.5001C18.5 9.94778 18.0523 9.50006 17.5 9.50006H15.91L21.71 3.71006C21.8993 3.52229 22.0058 3.2667 22.0058 3.00006C22.0058 2.73342 21.8993 2.47783 21.71 2.29006ZM10.88 12.5801C10.7598 12.5288 10.6307 12.5016 10.5 12.5001H6.5C5.94772 12.5001 5.5 12.9478 5.5 13.5001C5.5 14.0523 5.94772 14.5001 6.5 14.5001H8.09L2.29 20.29C2.10069 20.4778 1.9942 20.7334 1.9942 21C1.9942 21.2667 2.10069 21.5223 2.29 21.71C2.47777 21.8994 2.73336 22.0058 3 22.0058C3.26664 22.0058 3.52223 21.8994 3.71 21.71L9.5 15.9101V17.5001C9.5 18.0523 9.94772 18.5 10.5 18.5C11.0523 18.5 11.5 18.0523 11.5 17.5001V13.5001C11.4984 13.3694 11.4712 13.2403 11.42 13.1201C11.3185 12.8757 11.1243 12.6815 10.88 12.5801Z" fill="#171E2B"/>
</svg>
