<svg width="24" height="24" viewBox="0 0 24 24" fill="none" xmlns="http://www.w3.org/2000/svg">
<path fill-rule="evenodd" clip-rule="evenodd" d="M12.71 13.2902C12.6149 13.1992 12.5027 13.1278 12.38 13.0802C12.1365 12.9802 11.8634 12.9802 11.62 13.0802C11.4972 13.1278 11.3851 13.1992 11.29 13.2902L8.78997 15.7902C8.39785 16.1823 8.39785 16.8181 8.78997 17.2102C9.1821 17.6023 9.81785 17.6023 10.21 17.2102L11 16.4102V21.0002C11 21.5525 11.4477 22.0002 12 22.0002C12.5523 22.0002 13 21.5525 13 21.0002V16.4102L13.79 17.2102C13.9777 17.3995 14.2333 17.506 14.5 17.506C14.7666 17.506 15.0222 17.3995 15.21 17.2102C15.3993 17.0224 15.5058 16.7668 15.5058 16.5002C15.5058 16.2336 15.3993 15.978 15.21 15.7902L12.71 13.2902ZM11.29 10.7101C11.3851 10.8012 11.4972 10.8725 11.62 10.9201C11.862 11.0271 12.138 11.0271 12.38 10.9201C12.5027 10.8725 12.6149 10.8012 12.71 10.7101L15.21 8.21012C15.4636 7.95646 15.5627 7.58675 15.4699 7.24024C15.377 6.89374 15.1064 6.62309 14.7599 6.53024C14.4134 6.4374 14.0437 6.53646 13.79 6.79012L13 7.59012V3.00012C13 2.44784 12.5523 2.00012 12 2.00012C11.4477 2.00012 11 2.44784 11 3.00012V7.59012L10.21 6.79012C9.95634 6.53646 9.58662 6.4374 9.24012 6.53024C8.89361 6.62309 8.62296 6.89374 8.53012 7.24024C8.43727 7.58675 8.53634 7.95646 8.78999 8.21012L11.29 10.7101Z" fill="#171E2B"/>
</svg>
