<svg width="24" height="24" viewBox="0 0 24 24" fill="none" xmlns="http://www.w3.org/2000/svg">
<path fill-rule="evenodd" clip-rule="evenodd" d="M10.38 13.0799C10.2598 13.0286 10.1307 13.0015 10 12.9999H6C5.44772 12.9999 5 13.4476 5 13.9999C5 14.5522 5.44772 14.9999 6 14.9999H7.59L2.29 20.2899C2.10069 20.4776 1.9942 20.7332 1.9942 20.9999C1.9942 21.2665 2.10069 21.5221 2.29 21.7099C2.47777 21.8992 2.73336 22.0057 3 22.0057C3.26664 22.0057 3.52223 21.8992 3.71 21.7099L9 16.4099V17.9999C9 18.5522 9.44772 18.9999 10 18.9999C10.5523 18.9999 11 18.5522 11 17.9999V13.9999C10.9984 13.8692 10.9712 13.7401 10.92 13.6199C10.8185 13.3755 10.6243 13.1814 10.38 13.0799ZM10 4.99996C9.44772 4.99996 9 5.44768 9 5.99996V7.58996L3.71 2.28996C3.45634 2.03631 3.08663 1.93724 2.74012 2.03009C2.39362 2.12293 2.12297 2.39358 2.03012 2.74009C1.93728 3.08659 2.03634 3.45631 2.29 3.70996L7.59 8.99996H6C5.44772 8.99996 5 9.44768 5 9.99996C5 10.5522 5.44772 11 6 11H10C10.1307 10.9984 10.2598 10.9712 10.38 10.92C10.6244 10.8185 10.8185 10.6243 10.92 10.38C10.9712 10.2597 10.9984 10.1306 11 9.99996V5.99996C11 5.44768 10.5523 4.99996 10 4.99996ZM13.62 10.92C13.7402 10.9713 13.8693 10.9985 14 11H18C18.5523 11 19 10.5523 19 10C19 9.44775 18.5523 9.00004 18 9.00004H16.41L21.71 3.71004C22.1021 3.31791 22.1021 2.68216 21.71 2.29004C21.3179 1.89791 20.6821 1.89791 20.29 2.29004L15 7.59004V6.00004C15 5.44775 14.5523 5.00004 14 5.00004C13.4477 5.00004 13 5.44775 13 6.00004V10C13.0016 10.1307 13.0288 10.2598 13.08 10.38C13.1815 10.6244 13.3756 10.8186 13.62 10.92ZM16.41 14.9999H18C18.5523 14.9999 19 14.5522 19 13.9999C19 13.4476 18.5523 12.9999 18 12.9999H14C13.8693 13.0015 13.7402 13.0286 13.62 13.0799C13.3756 13.1814 13.1815 13.3755 13.08 13.6199C13.0288 13.7401 13.0016 13.8692 13 13.9999V17.9999C13 18.5522 13.4477 18.9999 14 18.9999C14.5523 18.9999 15 18.5522 15 17.9999V16.4099L20.29 21.7099C20.4778 21.8992 20.7334 22.0057 21 22.0057C21.2666 22.0057 21.5222 21.8992 21.71 21.7099C21.8993 21.5221 22.0058 21.2665 22.0058 20.9999C22.0058 20.7332 21.8993 20.4776 21.71 20.2899L16.41 14.9999Z" fill="#171E2B"/>
</svg>
