<svg width="24" height="24" viewBox="0 0 24 24" fill="none" xmlns="http://www.w3.org/2000/svg">
<path fill-rule="evenodd" clip-rule="evenodd" d="M12 2.00012C6.47715 2.00012 2 6.47727 2 12.0001C2 17.523 6.47715 22.0001 12 22.0001C17.5228 22.0001 22 17.523 22 12.0001C22 9.34796 20.9464 6.80442 19.0711 4.92905C17.1957 3.05369 14.6522 2.00012 12 2.00012ZM12 20.0002C7.58174 20.0002 4.00002 16.4185 4.00002 12.0002C4.00002 7.58191 7.58174 4.00018 12 4.00018C16.4183 4.00018 20 7.58191 20 12.0002C20 14.1219 19.1572 16.1567 17.6569 17.657C16.1566 19.1573 14.1217 20.0002 12 20.0002ZM12 9.00006C10.3431 9.00006 8.99998 10.3432 8.99998 12.0001C8.99998 13.6569 10.3431 15.0001 12 15.0001C13.6568 15.0001 15 13.6569 15 12.0001C15 10.3432 13.6568 9.00006 12 9.00006ZM12 13.0001C11.4477 13.0001 11 12.5524 11 12.0001C11 11.4478 11.4477 11.0001 12 11.0001C12.5523 11.0001 13 11.4478 13 12.0001C13 12.5524 12.5523 13.0001 12 13.0001Z" fill="#171E2B"/>
</svg>
