<svg width="24" height="24" viewBox="0 0 24 24" fill="none" xmlns="http://www.w3.org/2000/svg">
<path fill-rule="evenodd" clip-rule="evenodd" d="M16 9.00012H21C21.5523 9.00012 22 8.55241 22 8.00012C22 7.44784 21.5523 7.00012 21 7.00012H17V3.00012C17 2.44784 16.5523 2.00012 16 2.00012C15.4477 2.00012 15 2.44784 15 3.00012V8.00012C15 8.55241 15.4477 9.00012 16 9.00012ZM8 15.0001H3C2.44772 15.0001 2 15.4478 2 16.0001C2 16.5523 2.44772 17.0001 3 17.0001H7V21.0001C7 21.5523 7.44771 22.0001 8 22.0001C8.55228 22.0001 9 21.5523 9 21.0001V16.0001C9 15.4478 8.55228 15.0001 8 15.0001ZM8 2.00012C7.44771 2.00012 7 2.44784 7 3.00012V7.00012H3C2.44772 7.00012 2 7.44784 2 8.00012C2 8.55241 2.44772 9.00012 3 9.00012H8C8.55228 9.00012 9 8.55241 9 8.00012V3.00012C9 2.44784 8.55228 2.00012 8 2.00012ZM21 15.0001H16C15.4477 15.0001 15 15.4478 15 16.0001V21.0001C15 21.5523 15.4477 22.0001 16 22.0001C16.5523 22.0001 17 21.5523 17 21.0001V17.0001H21C21.5523 17.0001 22 16.5523 22 16.0001C22 15.4478 21.5523 15.0001 21 15.0001Z" fill="#171E2B"/>
</svg>
