<svg width="24" height="24" viewBox="0 0 24 24" fill="none" xmlns="http://www.w3.org/2000/svg">
<path fill-rule="evenodd" clip-rule="evenodd" d="M17 20.0002H13V16.4102L13.79 17.2102C13.9778 17.3995 14.2334 17.506 14.5 17.506C14.7666 17.506 15.0222 17.3995 15.21 17.2102C15.3993 17.0224 15.5058 16.7668 15.5058 16.5002C15.5058 16.2336 15.3993 15.978 15.21 15.7902L12.71 13.2902C12.6149 13.1992 12.5028 13.1278 12.38 13.0802C12.1365 12.9802 11.8635 12.9802 11.62 13.0802C11.4972 13.1278 11.3851 13.1992 11.29 13.2902L8.79 15.7902C8.53634 16.0439 8.43728 16.4136 8.53012 16.7601C8.62297 17.1066 8.89362 17.3772 9.24012 17.4701C9.58663 17.5629 9.95634 17.4639 10.21 17.2102L11 16.4102V20.0002H7C6.44772 20.0002 6 20.4479 6 21.0002C6 21.5525 6.44772 22.0002 7 22.0002H17C17.5523 22.0002 18 21.5525 18 21.0002C18 20.4479 17.5523 20.0002 17 20.0002ZM7 4.00012H11V7.59012L10.21 6.79012C9.95634 6.53646 9.58663 6.4374 9.24012 6.53024C8.89362 6.62309 8.62297 6.89374 8.53012 7.24024C8.43728 7.58675 8.53634 7.95646 8.79 8.21012L11.29 10.7101C11.3851 10.8012 11.4972 10.8725 11.62 10.9201C11.862 11.0271 12.138 11.0271 12.38 10.9201C12.5028 10.8725 12.6149 10.8012 12.71 10.7101L15.21 8.21012C15.4637 7.95646 15.5627 7.58675 15.4699 7.24024C15.377 6.89374 15.1064 6.62309 14.7599 6.53024C14.4134 6.4374 14.0437 6.53646 13.79 6.79012L13 7.59012V4.00012H17C17.5523 4.00012 18 3.55241 18 3.00012C18 2.44784 17.5523 2.00012 17 2.00012H7C6.44772 2.00012 6 2.44784 6 3.00012C6 3.55241 6.44772 4.00012 7 4.00012Z" fill="#171E2B"/>
</svg>
