<svg width="24" height="24" viewBox="0 0 24 24" fill="none" xmlns="http://www.w3.org/2000/svg">
<path fill-rule="evenodd" clip-rule="evenodd" d="M9 9.00006C8.44772 9.00006 8 9.44777 8 10.0001C8 10.5523 8.44772 11.0001 9 11.0001C9.55228 11.0001 10 10.5523 10 10.0001C10 9.44777 9.55228 9.00006 9 9.00006ZM14.66 13.5602L10.47 15.0602C10.0156 15.225 9.74412 15.6913 9.82518 16.1679C9.90625 16.6445 10.3166 16.9948 10.8 17.0002C10.916 17 11.031 16.9797 11.14 16.9402L15.34 15.4402C15.6857 15.3261 15.9421 15.0332 16.0094 14.6754C16.0767 14.3177 15.9443 13.9517 15.6637 13.7197C15.3831 13.4878 14.9987 13.4267 14.66 13.5602ZM15 9.00006C14.4477 9.00006 14 9.44777 14 10.0001C14 10.5523 14.4477 11.0001 15 11.0001C15.5523 11.0001 16 10.5523 16 10.0001C16 9.44777 15.5523 9.00006 15 9.00006ZM12 2.00012C6.47715 2.00012 2 6.47727 2 12.0001C2 17.523 6.47715 22.0001 12 22.0001C17.5228 22.0001 22 17.523 22 12.0001C22 9.34796 20.9464 6.80442 19.0711 4.92905C17.1957 3.05369 14.6522 2.00012 12 2.00012ZM12 20.0002C7.58174 20.0002 4.00002 16.4185 4.00002 12.0002C4.00002 7.58191 7.58174 4.00018 12 4.00018C16.4183 4.00018 20 7.58191 20 12.0002C20 14.1219 19.1572 16.1567 17.6569 17.657C16.1566 19.1573 14.1217 20.0002 12 20.0002Z" fill="#171E2B"/>
</svg>
