<svg width="24" height="24" viewBox="0 0 24 24" fill="none" xmlns="http://www.w3.org/2000/svg">
<path fill-rule="evenodd" clip-rule="evenodd" d="M21 8.94012C20.9896 8.84826 20.9695 8.75775 20.94 8.67012V8.58012C20.8919 8.4773 20.8278 8.38279 20.75 8.30012L14.75 2.30012C14.6673 2.22234 14.5728 2.1582 14.47 2.11012C14.4402 2.10588 14.4099 2.10588 14.38 2.11012C14.2784 2.05186 14.1662 2.01447 14.05 2.00012H10C8.34315 2.00012 7 3.34327 7 5.00012V6.00012H6C4.34315 6.00012 3 7.34327 3 9.00012V19.0001C3 20.657 4.34315 22.0001 6 22.0001H14C15.6569 22.0001 17 20.657 17 19.0001V18.0001H18C19.6569 18.0001 21 16.657 21 15.0001V9.00012C21 9.00012 21 9.00012 21 8.94012ZM15 5.41018L17.59 8.00018H16C15.4477 8.00018 15 7.55247 15 7.00018V5.41018ZM15 19.0001C15 19.5524 14.5523 20.0001 14 20.0001H6.00002C5.44773 20.0001 5.00002 19.5524 5.00002 19.0001V9.00012C5.00002 8.44784 5.44773 8.00012 6.00002 8.00012H7.00002V15.0001C7.00002 16.657 8.34316 18.0001 10 18.0001H15V19.0001ZM19 15.0002C19 15.5525 18.5523 16.0002 18 16.0002H10C9.44771 16.0002 9 15.5525 9 15.0002V5.00018C9 4.4479 9.44771 4.00018 10 4.00018H13V7.00018C13 8.65704 14.3431 10.0002 16 10.0002H19V15.0002Z" fill="#171E2B"/>
</svg>
