<svg width="24" height="24" viewBox="0 0 24 24" fill="none" xmlns="http://www.w3.org/2000/svg">
<path fill-rule="evenodd" clip-rule="evenodd" d="M11 9.00019H13C13.5523 9.00019 14 9.4479 14 10.0002C14 10.5525 14.4477 11.0002 15 11.0002C15.5523 11.0002 16 10.5525 16 10.0002C16 8.34333 14.6569 7.00018 13 7.00018H11C9.34315 7.00018 8 8.34333 8 10.0002V14.0002C8 15.657 9.34315 17.0002 11 17.0002H13C14.6569 17.0002 16 15.657 16 14.0002C16 13.4479 15.5523 13.0002 15 13.0002C14.4477 13.0002 14 13.4479 14 14.0002C14 14.5525 13.5523 15.0002 13 15.0002H11C10.4477 15.0002 10 14.5525 10 14.0002V10.0002C10 9.4479 10.4477 9.00019 11 9.00019ZM12 2.00012C6.47715 2.00012 2 6.47727 2 12.0001C2 17.523 6.47715 22.0001 12 22.0001C17.5228 22.0001 22 17.523 22 12.0001C22 9.34796 20.9464 6.80442 19.0711 4.92905C17.1957 3.05369 14.6522 2.00012 12 2.00012ZM12 20.0002C7.58172 20.0002 4 16.4185 4 12.0002C4 7.58191 7.58172 4.00018 12 4.00018C16.4183 4.00018 20 7.58191 20 12.0002C20 14.1219 19.1571 16.1567 17.6569 17.657C16.1566 19.1573 14.1217 20.0002 12 20.0002Z" fill="#171E2B"/>
</svg>
