<svg width="24" height="24" viewBox="0 0 24 24" fill="none" xmlns="http://www.w3.org/2000/svg">
<path fill-rule="evenodd" clip-rule="evenodd" d="M16 20.0001H8C6.34315 20.0001 5 18.6569 5 17.0001V7.00006C5 6.44777 4.55229 6.00006 4 6.00006C3.44772 6.00006 3 6.44777 3 7.00006V17.0001C3 19.7615 5.23858 22.0001 8 22.0001H16C16.5523 22.0001 17 21.5523 17 21.0001C17 20.4478 16.5523 20.0001 16 20.0001ZM21 8.94012C20.9896 8.84826 20.9695 8.75775 20.94 8.67012V8.58012C20.8919 8.4773 20.8278 8.38279 20.75 8.30012L14.75 2.30012C14.6673 2.22234 14.5728 2.1582 14.47 2.11012H14.38L14.06 2.00012H10C8.34315 2.00012 7.00001 3.34327 7.00001 5.00012V15.0001C7.00001 16.657 8.34315 18.0001 10 18.0001H18C19.6569 18.0001 21 16.657 21 15.0001V9.00012C21 9.00012 21 9.00012 21 8.94012ZM15 5.41018L17.59 8.00018H16C15.4477 8.00018 15 7.55247 15 7.00018V5.41018ZM19 15.0002C19 15.5525 18.5523 16.0002 18 16.0002H10C9.44771 16.0002 9 15.5525 9 15.0002V5.00018C9 4.4479 9.44771 4.00018 10 4.00018H13V7.00018C13 8.65704 14.3431 10.0002 16 10.0002H19V15.0002Z" fill="#171E2B"/>
</svg>
