<svg width="24" height="24" viewBox="0 0 24 24" fill="none" xmlns="http://www.w3.org/2000/svg">
<path fill-rule="evenodd" clip-rule="evenodd" d="M18 18.9999H6C4.34315 18.9999 3 17.6568 3 15.9999V7.99994C3 7.44765 2.55228 6.99994 2 6.99994C1.44772 6.99994 1 7.44765 1 7.99994V15.9999C1 17.326 1.52678 18.5978 2.46447 19.5355C3.40215 20.4732 4.67392 20.9999 6 20.9999H18C18.5523 20.9999 19 20.5522 19 19.9999C19 19.4477 18.5523 18.9999 18 18.9999ZM23 9.94C22.9896 9.84814 22.9695 9.75763 22.94 9.67V9.58C22.8919 9.47718 22.8278 9.38267 22.75 9.3L16.75 3.3C16.6673 3.22222 16.5728 3.15808 16.47 3.11H16.38L16.06 3H8C6.34314 3 5 4.34315 5 6V14C5 15.6569 6.34314 17 8 17H20C21.6568 17 23 15.6569 23 14V10C23 10 23 10 23 9.94ZM17 6.41006L19.59 9.00006H18C17.4477 9.00006 17 8.55235 17 8.00006V6.41006ZM21 14.0001C21 14.5523 20.5523 15.0001 20 15.0001H8C7.44772 15.0001 7 14.5523 7 14.0001V6.00006C7 5.44778 7.44772 5.00006 8 5.00006H15V8.00006C15 9.65691 16.3431 11.0001 18 11.0001H21V14.0001Z" fill="#171E2B"/>
</svg>
