<svg width="24" height="24" viewBox="0 0 24 24" fill="none" xmlns="http://www.w3.org/2000/svg">
<path fill-rule="evenodd" clip-rule="evenodd" d="M19.61 16.0001C19.5556 15.8786 19.4813 15.767 19.39 15.6701L14.76 11.0001C14.3632 10.6603 13.7718 10.6832 13.4024 11.0526C13.0331 11.4219 13.0102 12.0134 13.35 12.4101L16.27 15.3301H9.27C7.61315 15.3301 6.27 13.987 6.27 12.3301V3.00012C6.27 2.44784 5.82229 2.00012 5.27 2.00012C4.71772 2.00012 4.27 2.44784 4.27 3.00012V12.3701C4.27 15.1315 6.50858 17.3701 9.27 17.3701H16.27L13.35 20.2901C13.1607 20.4779 13.0542 20.7335 13.0542 21.0001C13.0542 21.2668 13.1607 21.5224 13.35 21.7101C13.5387 21.8973 13.7942 22.0017 14.06 22.0001C14.3223 21.999 14.5737 21.8949 14.76 21.7101L19.39 17.0801C19.4846 16.9859 19.5594 16.8737 19.61 16.7501C19.7073 16.5096 19.7073 16.2407 19.61 16.0001Z" fill="#171E2B"/>
</svg>
