<svg width="24" height="24" viewBox="0 0 24 24" fill="none" xmlns="http://www.w3.org/2000/svg">
<path fill-rule="evenodd" clip-rule="evenodd" d="M20.92 12.62C20.8724 12.4972 20.8011 12.3851 20.71 12.29L17.71 9.29C17.4564 9.03634 17.0866 8.93728 16.7401 9.03012C16.3936 9.12297 16.123 9.39362 16.0301 9.74012C15.9373 10.0866 16.0364 10.4563 16.29 10.71L17.59 12H8.00002C7.44773 12 7.00002 11.5523 7.00002 11V7C7.00002 6.44772 6.5523 6 6.00002 6C5.44773 6 5.00002 6.44772 5.00002 7V11C5.00002 12.6569 6.34316 14 8.00002 14H17.59L16.29 15.29C16.1007 15.4778 15.9942 15.7334 15.9942 16C15.9942 16.2666 16.1007 16.5222 16.29 16.71C16.4778 16.8993 16.7334 17.0058 17 17.0058C17.2667 17.0058 17.5222 16.8993 17.71 16.71L20.71 13.71C20.8011 13.6149 20.8724 13.5027 20.92 13.38C21.02 13.1365 21.02 12.8635 20.92 12.62Z" fill="#171E2B"/>
</svg>
