<svg width="24" height="24" viewBox="0 0 24 24" fill="none" xmlns="http://www.w3.org/2000/svg">
<path fill-rule="evenodd" clip-rule="evenodd" d="M19.61 7.24994C19.5595 7.12635 19.4847 7.01415 19.39 6.91994L14.76 2.28994C14.37 1.90221 13.7401 1.90221 13.35 2.28994C13.1607 2.4777 13.0542 2.7333 13.0542 2.99994C13.0542 3.26658 13.1607 3.52217 13.35 3.70994L16.27 6.62994H8.27002C6.06088 6.62994 4.27002 8.4208 4.27002 10.6299V20.9999C4.27002 21.5522 4.71773 21.9999 5.27002 21.9999C5.8223 21.9999 6.27002 21.5522 6.27002 20.9999V10.6299C6.27002 9.52537 7.16545 8.62994 8.27002 8.62994H16.27L13.35 11.5499C13.0616 11.836 12.9749 12.2682 13.1306 12.6434C13.2864 13.0186 13.6538 13.2623 14.06 13.2599C14.3238 13.2562 14.5754 13.1484 14.76 12.9599L19.39 8.33994C19.4822 8.24001 19.5567 8.12501 19.61 7.99994C19.7073 7.75941 19.7073 7.49047 19.61 7.24994Z" fill="#171E2B"/>
</svg>
