<svg width="24" height="24" viewBox="0 0 24 24" fill="none" xmlns="http://www.w3.org/2000/svg">
<path fill-rule="evenodd" clip-rule="evenodd" d="M21 4.3099H11.63C8.86859 4.3099 6.63001 6.54847 6.63001 9.3099V16.3099L3.71001 13.3499C3.52224 13.1606 3.26665 13.0541 3.00001 13.0541C2.73337 13.0541 2.47778 13.1606 2.29001 13.3499C1.90229 13.7399 1.90229 14.3699 2.29001 14.7599L6.92001 19.3899C7.01422 19.4845 7.12643 19.5593 7.25001 19.6099C7.49205 19.7169 7.76797 19.7169 8.01001 19.6099C8.13154 19.5555 8.24309 19.4812 8.34001 19.3899L13 14.7599C13.3398 14.3631 13.3169 13.7717 12.9476 13.4023C12.5782 13.033 11.9868 13.0101 11.59 13.3499L8.63001 16.2699V9.2699C8.63001 7.61304 9.97316 6.2699 11.63 6.2699H21C21.5523 6.2699 22 5.82218 22 5.2699C22 4.71761 21.5523 4.2699 21 4.2699V4.3099Z" fill="#171E2B"/>
</svg>
