<svg width="24" height="24" viewBox="0 0 24 24" fill="none" xmlns="http://www.w3.org/2000/svg">
<path fill-rule="evenodd" clip-rule="evenodd" d="M17 9.49994H7.40999L8.70999 8.20994C9.10211 7.81782 9.10211 7.18206 8.70999 6.78994C8.31787 6.39782 7.68211 6.39782 7.28999 6.78994L4.28999 9.78994C4.19895 9.88504 4.12758 9.99719 4.07999 10.1199C3.97997 10.3634 3.97997 10.6365 4.07999 10.8799C4.12758 11.0027 4.19895 11.1148 4.28999 11.2099L7.28999 14.2099C7.47775 14.3993 7.73335 14.5057 7.99999 14.5057C8.26662 14.5057 8.52222 14.3993 8.70999 14.2099C8.8993 14.0222 9.00579 13.7666 9.00579 13.4999C9.00579 13.2333 8.8993 12.9777 8.70999 12.7899L7.40999 11.4999H17C17.5523 11.4999 18 11.9477 18 12.4999V16.4999C18 17.0522 18.4477 17.4999 19 17.4999C19.5523 17.4999 20 17.0522 20 16.4999V12.4999C20 10.8431 18.6568 9.49994 17 9.49994Z" fill="#171E2B"/>
</svg>
