<svg width="24" height="24" viewBox="0 0 24 24" fill="none" xmlns="http://www.w3.org/2000/svg">
<path fill-rule="evenodd" clip-rule="evenodd" d="M21.71 13.3499C21.5222 13.1606 21.2666 13.0541 21 13.0541C20.7334 13.0541 20.4778 13.1606 20.29 13.3499L17.37 16.2699V8.2699C17.37 6.06076 15.5791 4.2699 13.37 4.2699H3C2.44772 4.2699 2 4.71761 2 5.2699C2 5.82218 2.44772 6.2699 3 6.2699H13.37C14.4746 6.2699 15.37 7.16533 15.37 8.2699V16.2699L12.45 13.3499C12.0606 12.9495 11.4204 12.9405 11.02 13.3299C10.6196 13.7193 10.6106 14.3595 11 14.7599L15.62 19.3899C15.7169 19.4812 15.8285 19.5555 15.95 19.6099C16.192 19.7169 16.468 19.7169 16.71 19.6099C16.8336 19.5593 16.9458 19.4845 17.04 19.3899L21.67 14.7599C22.069 14.381 22.0869 13.7508 21.71 13.3499Z" fill="#171E2B"/>
</svg>
