<svg width="24" height="24" viewBox="0 0 24 24" fill="none" xmlns="http://www.w3.org/2000/svg">
<path fill-rule="evenodd" clip-rule="evenodd" d="M18.69 1.99995C18.1377 1.99995 17.69 2.44766 17.69 2.99995V13.3699C17.69 14.4745 16.7946 15.3699 15.69 15.3699H7.68999L10.61 12.4499C10.9644 12.0633 10.9599 11.4687 10.5997 11.0875C10.2395 10.7063 9.64605 10.6681 9.23999 10.9999L4.60999 15.6599C4.51871 15.7569 4.44434 15.8684 4.38999 15.9899C4.28997 16.2334 4.28997 16.5065 4.38999 16.7499C4.44055 16.8735 4.51536 16.9857 4.60999 17.0799L9.23999 21.7099C9.42625 21.8947 9.67765 21.9988 9.93999 21.9999C10.2058 22.0015 10.4613 21.8971 10.65 21.7099C10.8393 21.5222 10.9458 21.2666 10.9458 20.9999C10.9458 20.7333 10.8393 20.4777 10.65 20.2899L7.72999 17.3699H15.73C17.9391 17.3699 19.73 15.5791 19.73 13.3699V2.99995C19.7302 2.72765 19.6194 2.46704 19.4231 2.27831C19.2268 2.08958 18.9621 1.98905 18.69 1.99995Z" fill="#171E2B"/>
</svg>
