<svg width="24" height="24" viewBox="0 0 24 24" fill="none" xmlns="http://www.w3.org/2000/svg">
<path fill-rule="evenodd" clip-rule="evenodd" d="M14.69 6.62994H7.69002L10.61 3.70994C10.7993 3.52217 10.9058 3.26658 10.9058 2.99994C10.9058 2.7333 10.7993 2.4777 10.61 2.28994C10.22 1.90221 9.59005 1.90221 9.20002 2.28994L4.61002 6.91994C4.51539 7.01415 4.44058 7.12635 4.39002 7.24994C4.29 7.4934 4.29 7.76648 4.39002 8.00994C4.44437 8.13147 4.51874 8.24302 4.61002 8.33994L9.24002 12.9999C9.42465 13.1884 9.67625 13.2962 9.94002 13.2999C10.3463 13.3023 10.7136 13.0586 10.8694 12.6834C11.0252 12.3082 10.9385 11.876 10.65 11.5899L7.73002 8.62994H14.73C16.3869 8.62994 17.73 9.97308 17.73 11.6299V20.9999C17.73 21.5522 18.1777 21.9999 18.73 21.9999C19.2823 21.9999 19.73 21.5522 19.73 20.9999V11.6299C19.7301 10.2969 19.1978 9.01903 18.2514 8.08019C17.3051 7.14135 16.023 6.61927 14.69 6.62994Z" fill="#171E2B"/>
</svg>
