<svg width="24" height="24" viewBox="0 0 24 24" fill="none" xmlns="http://www.w3.org/2000/svg">
<path fill-rule="evenodd" clip-rule="evenodd" d="M19.92 10.12C19.8724 9.99721 19.801 9.88507 19.71 9.78996L16.71 6.78996C16.4563 6.53631 16.0866 6.43724 15.7401 6.53009C15.3936 6.62293 15.123 6.89358 15.0301 7.24009C14.9373 7.58659 15.0363 7.9563 15.29 8.20996L16.59 9.49996H7C5.34315 9.49996 4 10.8431 4 12.5V16.5C4 17.0522 4.44772 17.5 5 17.5C5.55228 17.5 6 17.0522 6 16.5V12.5C6 11.9477 6.44772 11.5 7 11.5H16.59L15.29 12.79C15.1007 12.9777 14.9942 13.2333 14.9942 13.5C14.9942 13.7666 15.1007 14.0222 15.29 14.21C15.4778 14.3993 15.7334 14.5058 16 14.5058C16.2666 14.5058 16.5222 14.3993 16.71 14.21L19.71 11.21C19.801 11.1149 19.8724 11.0027 19.92 10.88C20.02 10.6365 20.02 10.3634 19.92 10.12Z" fill="#171E2B"/>
</svg>
