<svg width="24" height="24" viewBox="0 0 24 24" fill="none" xmlns="http://www.w3.org/2000/svg">
<path fill-rule="evenodd" clip-rule="evenodd" d="M12 2.00012C6.47714 2.00012 1.99998 6.47727 1.99998 12.0001C1.99998 17.523 6.47714 22.0001 12 22.0001C17.5228 22.0001 22 17.523 22 12.0001C22 9.34796 20.9464 6.80442 19.0711 4.92905C17.1957 3.05369 14.6521 2.00012 12 2.00012ZM12 20.0001C7.5817 20.0001 3.99998 16.4184 3.99998 12.0001C3.99777 10.2235 4.593 8.49767 5.68998 7.10012L7.19998 8.61012C6.44737 9.17457 6.00312 10.0594 5.99998 11.0001V13.0001C6.00622 14.3524 6.91638 15.5333 8.22245 15.8838C9.52851 16.2342 10.9076 15.6676 11.59 14.5001C11.8145 14.1914 11.8437 13.7818 11.6652 13.4444C11.4867 13.107 11.1317 12.9006 10.7502 12.9124C10.3687 12.9243 10.0272 13.1523 9.86998 13.5001C9.71187 13.7694 9.43707 13.9493 9.12706 13.9866C8.81705 14.0239 8.50742 13.9142 8.28998 13.6901C8.10094 13.5109 7.99575 13.2606 7.99998 13.0001V11.0001C8.01001 10.5839 8.2769 10.2174 8.66998 10.0801L12 13.4601C12.1902 14.7761 13.224 15.8099 14.54 16.0001L16.9 18.3601C15.4959 19.4392 13.7707 20.0166 12 20.0001ZM18.31 16.9002L16.79 15.3802C17.1138 15.1444 17.386 14.8449 17.59 14.5002C17.8145 14.1915 17.8437 13.7819 17.6652 13.4445C17.4867 13.107 17.1317 12.9006 16.7502 12.9125C16.3687 12.9243 16.0272 13.1523 15.87 13.5002C15.7407 13.6974 15.5459 13.8426 15.32 13.9102L14 12.5902V11.0002C13.9977 10.5413 14.308 10.1397 14.7526 10.0262C15.1972 9.91268 15.662 10.1163 15.88 10.5202C16.1651 10.9915 16.7776 11.1435 17.25 10.8602C17.4791 10.7232 17.644 10.5003 17.7078 10.2411C17.7717 9.98188 17.7292 9.70791 17.59 9.48017C17.4612 9.26554 17.3067 9.06741 17.13 8.89017C16.3246 8.06122 15.1147 7.76861 14.0196 8.13792C12.9245 8.50724 12.1389 9.4728 12 10.6202L11.65 10.2702C11.7275 10.0043 11.6912 9.7183 11.55 9.48017C11.4212 9.26554 11.2667 9.06741 11.09 8.89017C10.6395 8.43594 10.0532 8.14102 9.41998 8.05017L7.09998 5.69017C8.49753 4.59318 10.2233 3.99796 12 4.00016C16.4183 4.00016 20 7.58189 20 12.0002C20.0022 13.7768 19.407 15.5026 18.31 16.9002Z" fill="#171E2B"/>
</svg>
