<svg width="24" height="24" viewBox="0 0 24 24" fill="none" xmlns="http://www.w3.org/2000/svg">
<path fill-rule="evenodd" clip-rule="evenodd" d="M12 2.00012C6.47715 2.00012 2 6.47727 2 12.0001C2 17.523 6.47715 22.0001 12 22.0001C17.5228 22.0001 22 17.523 22 12.0001C22 9.34796 20.9464 6.80442 19.0711 4.92905C17.1957 3.05369 14.6522 2.00012 12 2.00012ZM12 20.0001C7.58172 20.0001 4 16.4184 4 12.0001C3.99779 10.2235 4.59301 8.49767 5.69 7.10012L8.05 9.47012C8.01802 9.64501 8.00129 9.82234 8 10.0001V14.0001C8 15.657 9.34314 17.0001 11 17.0001H13C13.6906 16.9945 14.3582 16.7508 14.89 16.3101L16.89 18.3101C15.4951 19.405 13.7732 20.0001 12 20.0001ZM10 14.0002V11.4102L13.46 14.8702C13.321 14.9537 13.1622 14.9986 13 15.0002H11C10.4477 15.0002 10 14.5525 10 14.0002ZM18.31 16.9002L16 14.5302C16.0153 14.3538 16.0153 14.1765 16 14.0002C16 13.4479 15.5523 13.0002 15 13.0002C14.8378 13.0018 14.679 13.0466 14.54 13.1302L10.54 9.13018C10.679 9.04663 10.8378 9.00175 11 9.00018H13C13.5523 9.00018 14 9.4479 14 10.0002C14 10.5525 14.4477 11.0002 15 11.0002C15.5523 11.0002 16 10.5525 16 10.0002C16 8.34333 14.6569 7.00018 13 7.00018H11C10.3094 7.00577 9.64179 7.24948 9.11 7.69018L7.11 5.69018C8.50485 4.59532 10.2268 4.00022 12 4.00018C16.4183 4.00018 20 7.58191 20 12.0002C20.0022 13.7768 19.407 15.5026 18.31 16.9002Z" fill="#171E2B"/>
</svg>
