<svg width="24" height="24" viewBox="0 0 24 24" fill="none" xmlns="http://www.w3.org/2000/svg">
<path fill-rule="evenodd" clip-rule="evenodd" d="M18 12.1501V3.00012C18 2.44784 17.5523 2.00012 17 2.00012C16.4477 2.00012 16 2.44784 16 3.00012V12.1501C14.2209 12.6667 12.9978 14.2975 13 16.1501C13 18.2001 14.52 21.9501 17 21.9501C19.48 21.9501 21 18.2001 21 16.1501C21.0022 14.2975 19.7791 12.6667 18 12.1501ZM17 20.0001C16.2 20.0001 15 17.7301 15 16.2001C14.949 15.0419 15.8421 14.0594 17 14.0001C18.1579 14.0594 19.051 15.0419 19 16.2001C19 17.7301 17.8 20.0001 17 20.0001ZM10 2.00012C9.44772 2.00012 9 2.44784 9 3.00012V8.46012L8 9.13012V3.00012C8 2.44784 7.55228 2.00012 7 2.00012C6.44772 2.00012 6 2.44784 6 3.00012V9.13012L5 8.46012V3.00012C5 2.44784 4.55228 2.00012 4 2.00012C3.44772 2.00012 3 2.44784 3 3.00012V9.00012C3.00173 9.33464 3.17061 9.64614 3.45 9.83012L6 11.5401V21.0001C6 21.5524 6.44772 22.0001 7 22.0001C7.55228 22.0001 8 21.5524 8 21.0001V11.5401L10.55 9.83012C10.8294 9.64614 10.9983 9.33464 11 9.00012V3.00012C11 2.44784 10.5523 2.00012 10 2.00012Z" fill="#171E2B"/>
</svg>
