<svg width="24" height="24" viewBox="0 0 24 24" fill="none" xmlns="http://www.w3.org/2000/svg">
<path fill-rule="evenodd" clip-rule="evenodd" d="M16 3.99996H15.41L15.71 3.70996C15.9637 3.45631 16.0627 3.08659 15.9699 2.74009C15.877 2.39358 15.6064 2.12293 15.2599 2.03009C14.9134 1.93724 14.5437 2.03631 14.29 2.28996L12.29 4.28996C12.1007 4.47773 11.9942 4.73333 11.9942 4.99996C11.9942 5.2666 12.1007 5.5222 12.29 5.70996L14.29 7.70996C14.4778 7.89928 14.7334 8.00576 15 8.00576C15.2666 8.00576 15.5222 7.89928 15.71 7.70996C15.8993 7.5222 16.0058 7.2666 16.0058 6.99996C16.0058 6.73333 15.8993 6.47773 15.71 6.28996L15.41 5.99996H16C17.6569 5.99996 19 7.34311 19 8.99996V11C19 11.5522 19.4477 12 20 12C20.5523 12 21 11.5522 21 11V8.99996C21 6.23854 18.7614 3.99996 16 3.99996ZM16 18H15V11C15 10.4477 14.5523 10 14 10H7V9C7 8.44772 6.55229 8 6 8C5.44772 8 5 8.44772 5 9V10H4C3.44772 10 3 10.4477 3 11C3 11.5523 3.44772 12 4 12H5V19C5 19.5523 5.44772 20 6 20H13V21C13 21.5523 13.4477 22 14 22C14.5523 22 15 21.5523 15 21V20H16C16.5523 20 17 19.5523 17 19C17 18.4477 16.5523 18 16 18ZM13 17.9999H6.99998V11.9999H13V17.9999Z" fill="#171E2B"/>
</svg>
