<svg width="24" height="24" viewBox="0 0 24 24" fill="none" xmlns="http://www.w3.org/2000/svg">
<path fill-rule="evenodd" clip-rule="evenodd" d="M19 15.9999H18V6.99988C18 6.44759 17.5523 5.99988 17 5.99988H7.99998V4.99988C7.99998 4.44759 7.55227 3.99988 6.99998 3.99988C6.4477 3.99988 5.99998 4.44759 5.99998 4.99988V5.99988H4.99998C4.4477 5.99988 3.99998 6.44759 3.99998 6.99988C3.99998 7.55216 4.4477 7.99988 4.99998 7.99988H5.99998V16.9999C5.99998 17.5522 6.4477 17.9999 6.99998 17.9999H16V18.9999C16 19.5522 16.4477 19.9999 17 19.9999C17.5523 19.9999 18 19.5522 18 18.9999V17.9999H19C19.5523 17.9999 20 17.5522 20 16.9999C20 16.4476 19.5523 15.9999 19 15.9999ZM16 15.9998H7.99997V7.99982H16V15.9998Z" fill="#171E2B"/>
</svg>
