<svg width="24" height="24" viewBox="0 0 24 24" fill="none" xmlns="http://www.w3.org/2000/svg">
<path fill-rule="evenodd" clip-rule="evenodd" d="M9.71 16.2901C9.45634 16.0364 9.08663 15.9373 8.74012 16.0302C8.39362 16.123 8.12297 16.3937 8.03012 16.7402C7.93728 17.0867 8.03634 17.4564 8.29 17.7101L8.59 18.0001H8C6.34315 18.0001 5 16.6569 5 15.0001V13.0001C5 12.4478 4.55228 12.0001 4 12.0001C3.44772 12.0001 3 12.4478 3 13.0001V15.0001C3 17.7615 5.23858 20.0001 8 20.0001H8.59L8.29 20.2901C8.10069 20.4778 7.9942 20.7334 7.9942 21.0001C7.9942 21.2667 8.10069 21.5223 8.29 21.7101C8.47777 21.8994 8.73336 22.0059 9 22.0059C9.26664 22.0059 9.52223 21.8994 9.71 21.7101L11.71 19.7101C11.8993 19.5223 12.0058 19.2667 12.0058 19.0001C12.0058 18.7334 11.8993 18.4778 11.71 18.2901L9.71 16.2901ZM20 12.0001H19V5.00012C19 4.44784 18.5523 4.00012 18 4.00012H11V3.00012C11 2.44784 10.5523 2.00012 9.99998 2.00012C9.4477 2.00012 8.99998 2.44784 8.99998 3.00012V4.00012H7.99998C7.4477 4.00012 6.99998 4.44784 6.99998 5.00012C6.99998 5.55241 7.4477 6.00012 7.99998 6.00012H8.99998V13.0001C8.99998 13.5524 9.4477 14.0001 9.99998 14.0001H17V15.0001C17 15.5524 17.4477 16.0001 18 16.0001C18.5523 16.0001 19 15.5524 19 15.0001V14.0001H20C20.5523 14.0001 21 13.5524 21 13.0001C21 12.4478 20.5523 12.0001 20 12.0001ZM17 12.0001H11V6.00006H17V12.0001Z" fill="#171E2B"/>
</svg>
