<svg width="24" height="24" viewBox="0 0 24 24" fill="none" xmlns="http://www.w3.org/2000/svg">
<path fill-rule="evenodd" clip-rule="evenodd" d="M21 11.0001H19.93C19.4709 7.37993 16.6202 4.52921 13 4.07012V3.00012C13 2.44784 12.5523 2.00012 12 2.00012C11.4477 2.00012 11 2.44784 11 3.00012V4.07012C7.37981 4.52921 4.52909 7.37993 4.07 11.0001H3C2.44772 11.0001 2 11.4478 2 12.0001C2 12.5524 2.44772 13.0001 3 13.0001H4.07C4.52909 16.6203 7.37981 19.471 11 19.9301V21.0001C11 21.5524 11.4477 22.0001 12 22.0001C12.5523 22.0001 13 21.5524 13 21.0001V19.9301C16.6202 19.471 19.4709 16.6203 19.93 13.0001H21C21.5523 13.0001 22 12.5524 22 12.0001C22 11.4478 21.5523 11.0001 21 11.0001ZM17 13.0001H17.91C17.4828 15.5137 15.5137 17.4829 13 17.9101V17.0001C13 16.4478 12.5523 16.0001 12 16.0001C11.4477 16.0001 11 16.4478 11 17.0001V17.9101C8.48631 17.4829 6.51715 15.5137 6.08998 13.0001H6.99998C7.55227 13.0001 7.99998 12.5523 7.99998 12.0001C7.99998 11.4478 7.55227 11.0001 6.99998 11.0001H6.08998C6.51715 8.48639 8.48631 6.51722 11 6.09006V7.00006C11 7.55234 11.4477 8.00006 12 8.00006C12.5523 8.00006 13 7.55234 13 7.00006V6.09006C15.5137 6.51722 17.4828 8.48639 17.91 11.0001H17C16.4477 11.0001 16 11.4478 16 12.0001C16 12.5523 16.4477 13.0001 17 13.0001ZM12 11.0001C11.4477 11.0001 11 11.4478 11 12.0001C11 12.5524 11.4477 13.0001 12 13.0001C12.5523 13.0001 13 12.5524 13 12.0001C13 11.4478 12.5523 11.0001 12 11.0001Z" fill="#171E2B"/>
</svg>
