<svg width="24" height="24" viewBox="0 0 24 24" fill="none" xmlns="http://www.w3.org/2000/svg">
<path fill-rule="evenodd" clip-rule="evenodd" d="M21 11.0001H19.93C19.4709 7.37993 16.6202 4.52921 13 4.07012V3.00012C13 2.44784 12.5523 2.00012 12 2.00012C11.4477 2.00012 11 2.44784 11 3.00012V4.07012C7.37981 4.52921 4.52909 7.37993 4.07 11.0001H3C2.44772 11.0001 2 11.4478 2 12.0001C2 12.5524 2.44772 13.0001 3 13.0001H4.07C4.52909 16.6203 7.37981 19.471 11 19.9301V21.0001C11 21.5524 11.4477 22.0001 12 22.0001C12.5523 22.0001 13 21.5524 13 21.0001V19.9301C16.6202 19.471 19.4709 16.6203 19.93 13.0001H21C21.5523 13.0001 22 12.5524 22 12.0001C22 11.4478 21.5523 11.0001 21 11.0001ZM12 18.0001C8.6863 18.0001 6.00001 15.3138 6.00001 12.0001C6.00001 8.68635 8.6863 6.00006 12 6.00006C15.3137 6.00006 18 8.68635 18 12.0001C18 13.5914 17.3679 15.1175 16.2426 16.2427C15.1174 17.3679 13.5913 18.0001 12 18.0001ZM12 9.00006C10.3432 9.00006 9.00001 10.3432 9.00001 12.0001C9.00001 13.6569 10.3432 15.0001 12 15.0001C13.6569 15.0001 15 13.6569 15 12.0001C15 10.3432 13.6569 9.00006 12 9.00006ZM12 13.0001C11.4477 13.0001 11 12.5524 11 12.0001C11 11.4478 11.4477 11.0001 12 11.0001C12.5523 11.0001 13 11.4478 13 12.0001C13 12.5524 12.5523 13.0001 12 13.0001Z" fill="#171E2B"/>
</svg>
