<svg width="24" height="24" viewBox="0 0 24 24" fill="none" xmlns="http://www.w3.org/2000/svg">
<path fill-rule="evenodd" clip-rule="evenodd" d="M12 11.0001C11.4477 11.0001 11 11.4478 11 12.0001C11 12.5524 11.4477 13.0001 12 13.0001C12.5523 13.0001 13 12.5524 13 12.0001C13 11.4478 12.5523 11.0001 12 11.0001ZM12 2.00012C6.47715 2.00012 2 6.47727 2 12.0001C2 17.523 6.47715 22.0001 12 22.0001C17.5228 22.0001 22 17.523 22 12.0001C22 9.34796 20.9464 6.80442 19.0711 4.92905C17.1957 3.05369 14.6522 2.00012 12 2.00012ZM13 19.9301V17.0001C13 16.4478 12.5523 16.0001 12 16.0001C11.4477 16.0001 11 16.4478 11 17.0001V19.9301C7.37981 19.471 4.52909 16.6203 4.07 13.0001H7C7.55228 13.0001 8 12.5524 8 12.0001C8 11.4478 7.55228 11.0001 7 11.0001H4.07C4.52909 7.37993 7.37981 4.52921 11 4.07012V7.00012C11 7.55241 11.4477 8.00012 12 8.00012C12.5523 8.00012 13 7.55241 13 7.00012V4.07012C16.6202 4.52921 19.4709 7.37993 19.93 11.0001H17C16.4477 11.0001 16 11.4478 16 12.0001C16 12.5524 16.4477 13.0001 17 13.0001H19.93C19.4709 16.6203 16.6202 19.471 13 19.9301Z" fill="#171E2B"/>
</svg>
