<svg width="24" height="24" viewBox="0 0 24 24" fill="none" xmlns="http://www.w3.org/2000/svg">
<path fill-rule="evenodd" clip-rule="evenodd" d="M20.47 7.37005C20.47 7.37005 20.47 7.37005 20.47 7.29005L20.41 7.14005C20.3891 7.10822 20.3657 7.07812 20.34 7.05005C20.3132 7.00772 20.2831 6.96759 20.25 6.93005L20.16 6.86005L20 6.78005L12.5 2.15005C12.1757 1.94738 11.7643 1.94738 11.44 2.15005L3.99999 6.78005L3.90999 6.86005L3.81999 6.93005C3.78684 6.96759 3.75675 7.00772 3.72999 7.05005C3.70428 7.07812 3.68088 7.10822 3.65999 7.14005L3.59999 7.29005C3.59999 7.29005 3.59999 7.29005 3.59999 7.37005C3.59016 7.45644 3.59016 7.54366 3.59999 7.63005V16.37C3.5993 16.7155 3.77701 17.0369 4.06999 17.22L11.57 21.85C11.6162 21.8786 11.6669 21.8989 11.72 21.91C11.72 21.91 11.77 21.91 11.8 21.91C11.9692 21.9637 12.1508 21.9637 12.32 21.91C12.32 21.91 12.37 21.91 12.4 21.91C12.4531 21.8989 12.5038 21.8786 12.55 21.85L20 17.22C20.293 17.0369 20.4707 16.7155 20.47 16.37V7.63005C20.4798 7.54366 20.4798 7.45644 20.47 7.37005ZM11 19.21L5.49999 15.81V9.42996L11 12.82V19.21ZM12 11.09L6.39999 7.62996L12 4.17996L17.6 7.62996L12 11.09ZM18.5 15.81L13 19.21V12.82L18.5 9.42996V15.81Z" fill="#171E2B"/>
</svg>
