<svg width="24" height="24" viewBox="0 0 24 24" fill="none" xmlns="http://www.w3.org/2000/svg">
<path fill-rule="evenodd" clip-rule="evenodd" d="M8 16.5001C7.44772 16.5001 7 16.9478 7 17.5001C7 18.0524 7.44772 18.5001 8 18.5001C8.55229 18.5001 9 18.0524 9 17.5001C9 16.9478 8.55229 16.5001 8 16.5001ZM12 2.00012C8 2.00012 4 3.37012 4 6.00012V18.0001C4 20.6301 8 22.0001 12 22.0001C16 22.0001 20 20.6301 20 18.0001V6.00012C20 3.37012 16 2.00012 12 2.00012ZM18 18.0001C18 18.7101 15.72 20.0001 12 20.0001C8.27999 20.0001 5.99999 18.7101 5.99999 18.0001V14.7301C7.87206 15.62 9.92788 16.0552 12 16.0001C14.0721 16.0552 16.1279 15.62 18 14.7301V18.0001ZM18 12.0001C18 12.7101 15.72 14.0001 12 14.0001C8.27999 14.0001 5.99999 12.7101 5.99999 12.0001V8.73006C7.87206 9.62002 9.92788 10.0552 12 10.0001C14.0721 10.0552 16.1279 9.62002 18 8.73006V12.0001ZM12 8.00018C8.27999 8.00018 5.99999 6.71018 5.99999 6.00018C5.99999 5.29018 8.27999 4.00018 12 4.00018C15.72 4.00018 18 5.29018 18 6.00018C18 6.71018 15.72 8.00018 12 8.00018ZM8 10.5001C7.44772 10.5001 7 10.9478 7 11.5001C7 12.0523 7.44772 12.5001 8 12.5001C8.55229 12.5001 9 12.0523 9 11.5001C9 10.9478 8.55229 10.5001 8 10.5001Z" fill="#171E2B"/>
</svg>
