<svg width="24" height="24" viewBox="0 0 24 24" fill="none" xmlns="http://www.w3.org/2000/svg">
<path fill-rule="evenodd" clip-rule="evenodd" d="M20.52 3.87006C19.6778 2.1104 17.889 1.00127 15.9384 1.0292C13.9878 1.05713 12.2315 2.21701 11.44 4.00006H7.00001C5.34315 4.00006 4.00001 5.34321 4.00001 7.00006V11.0001C4.00001 11.5523 4.44772 12.0001 5.00001 12.0001C5.55229 12.0001 6.00001 11.5523 6.00001 11.0001V7.00006C6.00001 6.44778 6.44772 6.00006 7.00001 6.00006H9.78001C9.28222 6.5477 9.00442 7.26001 9.00001 8.00006C9.00001 9.65692 10.3432 11.0001 12 11.0001H19.33C21.1288 11.013 22.6703 9.71695 22.9664 7.94268C23.2626 6.16841 22.2255 4.44196 20.52 3.87006ZM19.33 9.00005H12C11.4477 9.00005 11 8.55233 11 8.00005C11 7.44776 11.4477 7.00005 12 7.00005C12.5523 7.00005 13 6.55233 13 6.00005C12.9833 4.52583 14.0403 3.25799 15.4935 3.00916C16.9467 2.76034 18.3652 3.60427 18.84 5.00005C18.9565 5.35019 19.2563 5.60773 19.62 5.67005C20.4284 5.80397 21.016 6.51082 21 7.33005C21 7.77296 20.8241 8.19773 20.5109 8.51092C20.1977 8.8241 19.7729 9.00005 19.33 9.00005ZM19 13.0002C18.4477 13.0002 18 13.4479 18 14.0002V17.0002C18 17.5524 17.5523 18.0002 17 18.0002H14.74C14.3488 16.9985 13.537 16.2196 12.52 15.8702C11.59 13.8966 9.48783 12.7539 7.32589 13.0467C5.16394 13.3395 3.44146 15.0003 3.07001 17.1502C1.67115 17.6099 0.812759 19.017 1.04394 20.4712C1.27513 21.9254 2.52754 22.9969 4.00001 23.0002H11.33C13.0968 23.0002 14.6114 21.738 14.93 20.0002H17C18.6569 20.0002 20 18.657 20 17.0002V14.0002C20 13.4479 19.5523 13.0002 19 13.0002ZM11.33 21H4.00001C3.44773 21 3.00001 20.5523 3.00001 20C3.00001 19.4478 3.44773 19 4.00001 19C4.5523 19 5.00001 18.5523 5.00001 18C4.98334 16.5258 6.04033 15.258 7.49349 15.0092C8.94665 14.7603 10.3652 15.6043 10.84 17C10.9565 17.3502 11.2563 17.6077 11.62 17.67C12.4284 17.804 13.016 18.5108 13 19.33C13 19.773 12.8241 20.1977 12.5109 20.5109C12.1977 20.8241 11.7729 21 11.33 21Z" fill="#171E2B"/>
</svg>
