<svg width="24" height="24" viewBox="0 0 24 24" fill="none" xmlns="http://www.w3.org/2000/svg">
<path fill-rule="evenodd" clip-rule="evenodd" d="M8 17.0001C7.44772 17.0001 7 17.4478 7 18.0001C7 18.5524 7.44772 19.0001 8 19.0001C8.55229 19.0001 9 18.5524 9 18.0001C9 17.4478 8.55229 17.0001 8 17.0001ZM8 11.0001C7.44772 11.0001 7 11.4478 7 12.0001C7 12.5524 7.44772 13.0001 8 13.0001C8.55229 13.0001 9 12.5524 9 12.0001C9 11.4478 8.55229 11.0001 8 11.0001ZM16 2.00012H8C5.79086 2.00012 4 3.79098 4 6.00012V18.0001C4 20.2093 5.79086 22.0001 8 22.0001H16C18.2091 22.0001 20 20.2093 20 18.0001V6.00012C20 3.79098 18.2091 2.00012 16 2.00012ZM18 18.0001C18 19.1047 17.1046 20.0001 16 20.0001H7.99999C6.89542 20.0001 5.99999 19.1047 5.99999 18.0001V15.4401C6.60398 15.8037 7.29503 15.9972 7.99999 16.0001H16C16.705 15.9972 17.396 15.8037 18 15.4401V18.0001ZM18 12.0001C18 13.1047 17.1046 14.0001 16 14.0001H7.99999C6.89542 14.0001 5.99999 13.1047 5.99999 12.0001V9.44012C6.60398 9.80367 7.29503 9.99717 7.99999 10.0001H16C16.705 9.99717 17.396 9.80367 18 9.44012V12.0001ZM16 8.00018H7.99999C6.89542 8.00018 5.99999 7.10475 5.99999 6.00018C5.99999 4.89561 6.89542 4.00018 7.99999 4.00018H16C17.1046 4.00018 18 4.89561 18 6.00018C18 7.10475 17.1046 8.00018 16 8.00018Z" fill="#171E2B"/>
</svg>
