<svg width="24" height="24" viewBox="0 0 24 24" fill="none" xmlns="http://www.w3.org/2000/svg">
<path fill-rule="evenodd" clip-rule="evenodd" d="M18 2.00012C15.7909 2.00012 14 3.79098 14 6.00012C14 8.20926 15.7909 10.0001 18 10.0001C20.2092 10.0001 22 8.20926 22 6.00012C22 4.93926 21.5786 3.92184 20.8284 3.17169C20.0783 2.42155 19.0609 2.00012 18 2.00012ZM18 8.00018C16.8955 8.00018 16 7.10475 16 6.00018C16 4.89561 16.8955 4.00018 18 4.00018C19.1046 4.00018 20 4.89561 20 6.00018C20 6.53062 19.7893 7.03932 19.4142 7.4144C19.0392 7.78947 18.5305 8.00018 18 8.00018ZM15 20.0002H13V18.0002C13 17.4479 12.5523 17.0002 12 17.0002C11.4477 17.0002 11 17.4479 11 18.0002V20.0002H9.00002V16.6202L12.45 14.8902C12.7863 14.7207 12.9989 14.3767 13 14.0002V10.0002C13 9.4479 12.5523 9.00018 12 9.00018C11.4477 9.00018 11 9.4479 11 10.0002V13.3802L9.00002 14.3802V8.00018C9.00002 7.4479 8.5523 7.00018 8.00002 7.00018C7.44773 7.00018 7.00002 7.4479 7.00002 8.00018V16.3802L5.00002 15.3802V13.0002C5.00002 12.4479 4.5523 12.0002 4.00002 12.0002C3.44773 12.0002 3.00002 12.4479 3.00002 13.0002V16.0002C3.00116 16.3767 3.21374 16.7207 3.55002 16.8902L7.00002 18.6202V20.0002H3.00002C2.44773 20.0002 2.00002 20.4479 2.00002 21.0002C2.00002 21.5525 2.44773 22.0002 3.00002 22.0002H15C15.5523 22.0002 16 21.5525 16 21.0002C16 20.4479 15.5523 20.0002 15 20.0002Z" fill="#171E2B"/>
</svg>
