<svg width="24" height="24" viewBox="0 0 24 24" fill="none" xmlns="http://www.w3.org/2000/svg">
<path fill-rule="evenodd" clip-rule="evenodd" d="M10.66 5.99988H18C18.5523 5.99988 19 6.4476 19 6.99988V12.9999C19.0012 13.1764 18.9527 13.3497 18.86 13.4999C18.7181 13.724 18.671 13.9953 18.7291 14.2541C18.7873 14.5129 18.9459 14.738 19.17 14.8799C19.3266 14.9852 19.5113 15.041 19.7 15.0399C20.04 15.0393 20.3564 14.866 20.54 14.5799C20.8406 14.1077 21.0002 13.5596 21 12.9999V6.99988C21 5.34303 19.6569 3.99988 18 3.99988H10.66C10.1077 3.99988 9.66 4.4476 9.66 4.99988C9.66 5.55217 10.1077 5.99988 10.66 5.99988ZM21.71 20.29L5.85999 4.44996L3.70999 2.28996C3.45634 2.03631 3.08662 1.93724 2.74012 2.03009C2.39361 2.12293 2.12296 2.39358 2.03012 2.74009C1.93727 3.08659 2.03634 3.45631 2.28999 3.70996L3.68999 5.09996C3.24712 5.63441 3.00327 6.30588 2.99999 6.99996V13C2.99999 14.6568 4.34314 16 5.99999 16H11V18H6.99999C6.44771 18 5.99999 18.4477 5.99999 19C5.99999 19.5522 6.44771 20 6.99999 20H17C17.4174 19.9956 17.7881 19.7325 17.93 19.34L20.29 21.71C20.4778 21.8993 20.7334 22.0058 21 22.0058C21.2666 22.0058 21.5222 21.8993 21.71 21.71C21.8993 21.5222 22.0058 21.2666 22.0058 21C22.0058 20.7333 21.8993 20.4777 21.71 20.29ZM5.99999 13.9999C5.4477 13.9999 4.99999 13.5522 4.99999 12.9999V6.99994C5.00243 6.83919 5.04359 6.6814 5.11999 6.53994L12.59 13.9999H5.99999ZM13 17.9999V15.9999H14.59L16.59 17.9999H13Z" fill="#171E2B"/>
</svg>
