<svg width="24" height="24" viewBox="0 0 24 24" fill="none" xmlns="http://www.w3.org/2000/svg">
<path fill-rule="evenodd" clip-rule="evenodd" d="M19 2.00012H5C3.34315 2.00012 2 3.34327 2 5.00012V15.0001C2 16.657 3.34315 18.0001 5 18.0001H8V20.0001H5C4.44772 20.0001 4 20.4478 4 21.0001C4 21.5524 4.44772 22.0001 5 22.0001H19C19.5523 22.0001 20 21.5524 20 21.0001C20 20.4478 19.5523 20.0001 19 20.0001H16V18.0001H19C20.6569 18.0001 22 16.657 22 15.0001V5.00012C22 3.34327 20.6569 2.00012 19 2.00012ZM14 20.0001H10V18.0001H14V20.0001ZM20 15.0001C20 15.5524 19.5523 16.0001 19 16.0001H5.00001C4.44773 16.0001 4.00002 15.5524 4.00002 15.0001V14.0001H20V15.0001ZM20 12.0002H4.00002V5.00018C4.00002 4.4479 4.44773 4.00018 5.00001 4.00018H19C19.5523 4.00018 20 4.4479 20 5.00018V12.0002Z" fill="#171E2B"/>
</svg>
