<svg width="24" height="24" viewBox="0 0 24 24" fill="none" xmlns="http://www.w3.org/2000/svg">
<path fill-rule="evenodd" clip-rule="evenodd" d="M21.71 20.2899L3.71 2.28994C3.31788 1.89782 2.68212 1.89782 2.29 2.28994C1.89788 2.68206 1.89788 3.31782 2.29 3.70994L3.29 4.70994C3.0986 5.11302 2.99953 5.55373 3 5.99994V13.9999C3 15.6568 4.34315 16.9999 6 16.9999H9V18.9999H6C5.44772 18.9999 5 19.4477 5 19.9999C5 20.5522 5.44772 20.9999 6 20.9999H18C18.4174 20.9956 18.7881 20.7325 18.93 20.3399L20.29 21.7099C20.4778 21.8993 20.7334 22.0057 21 22.0057C21.2666 22.0057 21.5222 21.8993 21.71 21.7099C21.8993 21.5222 22.0058 21.2666 22.0058 20.9999C22.0058 20.7333 21.8993 20.4777 21.71 20.2899ZM5.00002 6.40991L9.59002 10.9999H5.00002V6.40991ZM13 18.9999H11V16.9999H13V18.9999ZM6.00002 15C5.44773 15 5.00002 14.5523 5.00002 14V13H11.59L13.59 15H6.00002ZM15 18.9999V16.9999H15.59L17.59 18.9999H15ZM9.66002 5.00003H18C18.5523 5.00003 19 5.44775 19 6.00003V11H17.66C17.1077 11 16.66 11.4478 16.66 12C16.66 12.5523 17.1077 13 17.66 13H19V14C19.0055 14.0365 19.0055 14.0736 19 14.11C18.9469 14.37 18.9993 14.6403 19.1456 14.8616C19.2919 15.0829 19.5201 15.237 19.78 15.29H19.98C20.4628 15.2998 20.8835 14.9632 20.98 14.49C21.0008 14.3276 21.0075 14.1636 21 14V6.00003C21 4.34318 19.6569 3.00003 18 3.00003H9.66002C9.10773 3.00003 8.66002 3.44775 8.66002 4.00003C8.66002 4.55232 9.10773 5.00003 9.66002 5.00003Z" fill="#171E2B"/>
</svg>
