<svg width="24" height="24" viewBox="0 0 24 24" fill="none" xmlns="http://www.w3.org/2000/svg">
<path fill-rule="evenodd" clip-rule="evenodd" d="M4.49999 10.0001H9.99999C11.4443 9.99672 12.6812 8.9647 12.9432 7.54437C13.2052 6.12404 12.418 4.71861 11.07 4.2001C10.2994 2.68769 8.65827 1.8263 6.97586 2.05122C5.29345 2.27614 3.93619 3.5384 3.58999 5.2001C2.50789 5.65987 1.89239 6.81153 2.11138 7.96668C2.33038 9.12183 3.32469 9.96828 4.49999 10.0001ZM4.50001 7.00016C5.0523 7.00016 5.50001 6.55244 5.50001 6.00016C5.50683 5.02622 6.21424 4.1988 7.17528 4.04069C8.13632 3.88257 9.07153 4.43974 9.39001 5.36016C9.50952 5.70641 9.80876 5.95962 10.17 6.02016C10.6476 6.10254 10.9974 6.51553 11 7.00016C11 7.55244 10.5523 8.00016 10 8.00016H4.50001C4.22387 8.00016 4.00002 7.7763 4.00002 7.50016C4.00002 7.22402 4.22387 7.00016 4.50001 7.00016ZM19 2.00012H14C13.4477 2.00012 13 2.44784 13 3.00012C13 3.55241 13.4477 4.00012 14 4.00012H19C19.5523 4.00012 20 4.44784 20 5.00012V12.0001H3C2.44772 12.0001 2 12.4478 2 13.0001V15.0001C2 16.657 3.34315 18.0001 5 18.0001H8V20.0001H5C4.44772 20.0001 4 20.4478 4 21.0001C4 21.5524 4.44772 22.0001 5 22.0001H19C19.5523 22.0001 20 21.5524 20 21.0001C20 20.4478 19.5523 20.0001 19 20.0001H16V18.0001H19C20.6569 18.0001 22 16.657 22 15.0001V5.00012C22 3.34327 20.6569 2.00012 19 2.00012ZM14 20.0001H9.99999V18.0001H14V20.0001ZM20 15.0001C20 15.5524 19.5523 16.0001 19 16.0001H5.00001C4.44773 16.0001 4.00002 15.5524 4.00002 15.0001V14.0001H20V15.0001Z" fill="#171E2B"/>
</svg>
