<svg width="24" height="24" viewBox="0 0 24 24" fill="none" xmlns="http://www.w3.org/2000/svg">
<path fill-rule="evenodd" clip-rule="evenodd" d="M19 3H5.00002C3.34316 3 2.00002 4.34315 2.00002 6V14C2.00002 15.6569 3.34316 17 5.00002 17H11V19H7.00002C6.44773 19 6.00002 19.4477 6.00002 20C6.00002 20.5523 6.44773 21 7.00002 21H17C17.5523 21 18 20.5523 18 20C18 19.4477 17.5523 19 17 19H13V17H19C20.6569 17 22 15.6569 22 14V6C22 4.34315 20.6569 3 19 3ZM20 14.0001C20 14.5523 19.5523 15.0001 19 15.0001H5.00003C4.44775 15.0001 4.00003 14.5523 4.00003 14.0001V6.00006C4.00003 5.44778 4.44775 5.00006 5.00003 5.00006H19C19.5523 5.00006 20 5.44778 20 6.00006V14.0001Z" fill="#171E2B"/>
</svg>
