<svg width="24" height="24" viewBox="0 0 24 24" fill="none" xmlns="http://www.w3.org/2000/svg">
<path fill-rule="evenodd" clip-rule="evenodd" d="M7 2.25H3C2.58804 2.25539 2.25539 2.58804 2.25 3V7C2.25539 7.41196 2.58804 7.74462 3 7.75H7C7.41196 7.74462 7.74462 7.41196 7.75 7V3C7.74462 2.58804 7.41196 2.25539 7 2.25ZM6.25 6.25H3.75V3.75H6.25V6.25ZM21 2.25H17C16.588 2.25539 16.2554 2.58804 16.25 3V7C16.2554 7.41196 16.588 7.74462 17 7.75H21C21.412 7.74462 21.7446 7.41196 21.75 7V3C21.7446 2.58804 21.412 2.25539 21 2.25ZM20.25 6.25H17.75V3.75H20.25V6.25ZM14 2.25H10C9.58804 2.25539 9.25539 2.58804 9.25 3V7C9.25539 7.41196 9.58804 7.74462 10 7.75H14C14.412 7.74462 14.7446 7.41196 14.75 7V3C14.7446 2.58804 14.412 2.25539 14 2.25ZM13.25 6.25H10.75V3.75H13.25V6.25ZM7 9.24994H3C2.58804 9.25532 2.25539 9.58798 2.25 9.99994V13.9999C2.25539 14.4119 2.58804 14.7445 3 14.7499H7C7.41196 14.7445 7.74462 14.4119 7.75 13.9999V9.99994C7.74462 9.58798 7.41196 9.25532 7 9.24994ZM6.25 13.2499H3.75V10.7499H6.25V13.2499ZM14 9.24994H10C9.58804 9.25532 9.25539 9.58798 9.25 9.99994V13.9999C9.25539 14.4119 9.58804 14.7445 10 14.7499H14C14.412 14.7445 14.7446 14.4119 14.75 13.9999V9.99994C14.7446 9.58798 14.412 9.25532 14 9.24994ZM13.25 13.2499H10.75V10.7499H13.25V13.2499ZM21 9.24994H17C16.588 9.25532 16.2554 9.58798 16.25 9.99994V13.9999C16.2554 14.4119 16.588 14.7445 17 14.7499H21C21.412 14.7445 21.7446 14.4119 21.75 13.9999V9.99994C21.7446 9.58798 21.412 9.25532 21 9.24994ZM20.25 13.2499H17.75V10.7499H20.25V13.2499ZM14 16.2501H10C9.58804 16.2554 9.25539 16.5881 9.25 17.0001V21.0001C9.25539 21.412 9.58804 21.7447 10 21.7501H14C14.412 21.7447 14.7446 21.412 14.75 21.0001V17.0001C14.7446 16.5881 14.412 16.2554 14 16.2501ZM13.25 20.2501H10.75V17.7501H13.25V20.2501Z" fill="#171E2B"/>
</svg>
