<svg width="24" height="24" viewBox="0 0 24 24" fill="none" xmlns="http://www.w3.org/2000/svg">
<path fill-rule="evenodd" clip-rule="evenodd" d="M5 9.24994C3.48122 9.24994 2.25 10.4812 2.25 11.9999C2.25 13.5187 3.48122 14.7499 5 14.7499C6.51878 14.7499 7.75 13.5187 7.75 11.9999C7.75 10.4812 6.51878 9.24994 5 9.24994ZM5 13.2499C4.30964 13.2499 3.75 12.6903 3.75 11.9999C3.75 11.3096 4.30964 10.7499 5 10.7499C5.69036 10.7499 6.25 11.3096 6.25 11.9999C6.25 12.6903 5.69036 13.2499 5 13.2499ZM12 9.24994C10.4812 9.24994 9.25 10.4812 9.25 11.9999C9.25 13.5187 10.4812 14.7499 12 14.7499C13.5188 14.7499 14.75 13.5187 14.75 11.9999C14.75 10.4812 13.5188 9.24994 12 9.24994ZM12 13.2499C11.3096 13.2499 10.75 12.6903 10.75 11.9999C10.75 11.3096 11.3096 10.7499 12 10.7499C12.6904 10.7499 13.25 11.3096 13.25 11.9999C13.25 12.6903 12.6904 13.2499 12 13.2499ZM19 7.75C20.5188 7.75 21.75 6.51878 21.75 5C21.75 3.48122 20.5188 2.25 19 2.25C17.4812 2.25 16.25 3.48122 16.25 5C16.25 6.51878 17.4812 7.75 19 7.75ZM19 3.75C19.6904 3.75 20.25 4.30964 20.25 5C20.25 5.69036 19.6904 6.25 19 6.25C18.3096 6.25 17.75 5.69036 17.75 5C17.75 4.30964 18.3096 3.75 19 3.75ZM19 9.24994C17.4812 9.24994 16.25 10.4812 16.25 11.9999C16.25 13.5187 17.4812 14.7499 19 14.7499C20.5188 14.7499 21.75 13.5187 21.75 11.9999C21.75 10.4812 20.5188 9.24994 19 9.24994ZM19 13.25C18.4944 13.25 18.0386 12.9455 17.8452 12.4784C17.6517 12.0113 17.7586 11.4736 18.1161 11.1161C18.4736 10.7586 19.0113 10.6517 19.4784 10.8452C19.9454 11.0386 20.25 11.4944 20.25 12C20.25 12.6904 19.6904 13.25 19 13.25ZM5 2.25C3.48122 2.25 2.25 3.48122 2.25 5C2.25 6.51878 3.48122 7.75 5 7.75C6.51878 7.75 7.75 6.51878 7.75 5C7.75 4.27066 7.46027 3.57118 6.94455 3.05546C6.42882 2.53973 5.72935 2.25 5 2.25ZM5 6.25C4.30964 6.25 3.75 5.69036 3.75 5C3.75 4.30964 4.30964 3.75 5 3.75C5.69036 3.75 6.25 4.30964 6.25 5C6.25 5.33152 6.1183 5.64946 5.88388 5.88388C5.64946 6.1183 5.33152 6.25 5 6.25ZM12 16.2501C10.4812 16.2501 9.25 17.4813 9.25 19.0001C9.25 20.5188 10.4812 21.7501 12 21.7501C13.5188 21.7501 14.75 20.5188 14.75 19.0001C14.75 17.4813 13.5188 16.2501 12 16.2501ZM12 20.25C11.4944 20.25 11.0386 19.9454 10.8451 19.4783C10.6517 19.0112 10.7586 18.4736 11.1161 18.1161C11.4736 17.7586 12.0113 17.6516 12.4784 17.8451C12.9454 18.0386 13.25 18.4944 13.25 19C13.25 19.6903 12.6904 20.25 12 20.25ZM12 2.25C10.4812 2.25 9.25 3.48122 9.25 5C9.25 6.51878 10.4812 7.75 12 7.75C13.5188 7.75 14.75 6.51878 14.75 5C14.75 4.27066 14.4603 3.57118 13.9445 3.05546C13.4288 2.53973 12.7293 2.25 12 2.25ZM12 6.25C11.3096 6.25 10.75 5.69036 10.75 5C10.75 4.30964 11.3096 3.75 12 3.75C12.6904 3.75 13.25 4.30964 13.25 5C13.25 5.33152 13.1183 5.64946 12.8839 5.88388C12.6495 6.1183 12.3315 6.25 12 6.25Z" fill="#171E2B"/>
</svg>
