<svg width="24" height="24" viewBox="0 0 24 24" fill="none" xmlns="http://www.w3.org/2000/svg">
<path fill-rule="evenodd" clip-rule="evenodd" d="M20 10.35L14.22 2.93997C13.6331 2.32892 12.8191 1.98854 11.972 1.99991C11.1248 2.01128 10.3203 2.37338 9.74999 2.99997L3.99999 10.35C3.68164 10.8415 3.51153 11.4143 3.50999 12C3.5267 12.5614 3.6961 13.1076 3.99999 13.58L4.05999 13.65L9.79999 21.06C10.3713 21.6648 11.168 22.0052 12 22C12.8604 21.9992 13.6808 21.6362 14.26 21L20 13.65C20.6413 12.6368 20.6177 11.3391 19.94 10.35H20ZM18.43 12.4899L12.76 19.7099C12.3657 20.0731 11.7681 20.1025 11.34 19.7799L5.64999 12.4699C5.56503 12.3273 5.51692 12.1657 5.50999 11.9999C5.51146 11.8445 5.54553 11.6912 5.60999 11.5499L11.28 4.32989C11.6743 3.96672 12.2719 3.93726 12.7 4.25989L18.33 11.5399C18.434 11.7008 18.4895 11.8883 18.49 12.0799C18.4832 12.2217 18.4492 12.3609 18.39 12.4899H18.43Z" fill="#171E2B"/>
</svg>
