<svg width="24" height="24" viewBox="0 0 24 24" fill="none" xmlns="http://www.w3.org/2000/svg">
<path fill-rule="evenodd" clip-rule="evenodd" d="M17 2.00012H5C4.44772 2.00012 4 2.44784 4 3.00012V19.0001C4 19.5524 4.44772 20.0001 5 20.0001H6V21.0001C6 21.5524 6.44772 22.0001 7 22.0001C7.55228 22.0001 8 21.5524 8 21.0001V20.0001H17C18.6569 20.0001 20 18.657 20 17.0001V5.00012C20 3.34327 18.6569 2.00012 17 2.00012ZM14 18.0002H5.99999V4.00018H14V18.0002ZM18 17.0002C18 17.5525 17.5523 18.0002 17 18.0002H16V4.00018H17C17.5523 4.00018 18 4.4479 18 5.00018V17.0002Z" fill="#171E2B"/>
</svg>
