<svg width="24" height="24" viewBox="0 0 24 24" fill="none" xmlns="http://www.w3.org/2000/svg">
<path fill-rule="evenodd" clip-rule="evenodd" d="M9 11C8.44772 11 8 11.4477 8 12C8 12.5523 8.44772 13 9 13C9.55228 13 10 12.5523 10 12C10 11.4477 9.55228 11 9 11ZM9 14.9999C8.44772 14.9999 8 15.4477 8 15.9999C8 16.5522 8.44772 16.9999 9 16.9999C9.55228 16.9999 10 16.5522 10 15.9999C10 15.4477 9.55228 14.9999 9 14.9999ZM9 7.00006C8.44772 7.00006 8 7.44778 8 8.00006C8 8.55235 8.44772 9.00006 9 9.00006C9.55228 9.00006 10 8.55235 10 8.00006C10 7.44778 9.55228 7.00006 9 7.00006ZM15 7.00006C14.4477 7.00006 14 7.44778 14 8.00006C14 8.55235 14.4477 9.00006 15 9.00006C15.5523 9.00006 16 8.55235 16 8.00006C16 7.44778 15.5523 7.00006 15 7.00006ZM17 2H7C4.23858 2 2 4.23858 2 7V17C2 18.3261 2.52678 19.5979 3.46447 20.5355C4.40215 21.4732 5.67392 22 7 22H17C19.7614 22 22 19.7614 22 17V7C22 4.23858 19.7614 2 17 2ZM20 17.0001C20 18.6569 18.6569 20.0001 17 20.0001H7.00001C5.34316 20.0001 4.00002 18.6569 4.00002 17.0001V7.00006C4.00002 5.34321 5.34316 4.00006 7.00001 4.00006H17C18.6569 4.00006 20 5.34321 20 7.00006V17.0001ZM15 11C14.4477 11 14 11.4477 14 12C14 12.5523 14.4477 13 15 13C15.5523 13 16 12.5523 16 12C16 11.4477 15.5523 11 15 11ZM15 14.9999C14.4477 14.9999 14 15.4477 14 15.9999C14 16.5522 14.4477 16.9999 15 16.9999C15.5523 16.9999 16 16.5522 16 15.9999C16 15.4477 15.5523 14.9999 15 14.9999Z" fill="#171E2B"/>
</svg>
