<svg width="24" height="24" viewBox="0 0 24 24" fill="none" xmlns="http://www.w3.org/2000/svg">
<path fill-rule="evenodd" clip-rule="evenodd" d="M17 2H7C4.23858 2 2 4.23858 2 7V17C2 18.3261 2.52678 19.5979 3.46447 20.5355C4.40215 21.4732 5.67392 22 7 22H17C19.7614 22 22 19.7614 22 17V7C22 4.23858 19.7614 2 17 2ZM20 17.0001C20 18.6569 18.6569 20.0001 17 20.0001H7.00001C5.34316 20.0001 4.00002 18.6569 4.00002 17.0001V7.00006C4.00002 5.34321 5.34316 4.00006 7.00001 4.00006H17C18.6569 4.00006 20 5.34321 20 7.00006V17.0001ZM12 11C11.4477 11 11 11.4477 11 12C11 12.5523 11.4477 13 12 13C12.5523 13 13 12.5523 13 12C13 11.4477 12.5523 11 12 11Z" fill="#171E2B"/>
</svg>
