<svg width="24" height="24" viewBox="0 0 24 24" fill="none" xmlns="http://www.w3.org/2000/svg">
<path fill-rule="evenodd" clip-rule="evenodd" d="M17 2.00012H7.00002C4.23859 2.00012 2.00002 4.2387 2.00002 7.00012V17.0001C2.00002 18.3262 2.5268 19.598 3.46448 20.5357C4.40216 21.4733 5.67393 22.0001 7.00002 22.0001H17C19.7614 22.0001 22 19.7615 22 17.0001V7.00012C22 4.2387 19.7614 2.00012 17 2.00012ZM20 17.0002C20 18.657 18.6569 20.0002 17 20.0002H7.00003C5.34318 20.0002 4.00003 18.657 4.00003 17.0002V7.00018C4.00003 5.34333 5.34318 4.00018 7.00003 4.00018H17C18.6569 4.00018 20 5.34333 20 7.00018V17.0002ZM8.00003 15.0001C7.44775 15.0001 7.00003 15.4478 7.00003 16.0001C7.00003 16.5523 7.44775 17.0001 8.00003 17.0001C8.55232 17.0001 9.00003 16.5523 9.00003 16.0001C9.00003 15.4478 8.55232 15.0001 8.00003 15.0001ZM12 11.0001C11.4477 11.0001 11 11.4478 11 12.0001C11 12.5524 11.4477 13.0001 12 13.0001C12.5523 13.0001 13 12.5524 13 12.0001C13 11.4478 12.5523 11.0001 12 11.0001ZM8.00003 7.00018C7.44775 7.00018 7.00003 7.4479 7.00003 8.00019C7.00003 8.55247 7.44775 9.00019 8.00003 9.00019C8.55232 9.00019 9.00003 8.55247 9.00003 8.00019C9.00003 7.4479 8.55232 7.00018 8.00003 7.00018ZM16 15.0001C15.4477 15.0001 15 15.4478 15 16.0001C15 16.5523 15.4477 17.0001 16 17.0001C16.5523 17.0001 17 16.5523 17 16.0001C17 15.4478 16.5523 15.0001 16 15.0001ZM16 7.00018C15.4477 7.00018 15 7.4479 15 8.00019C15 8.55247 15.4477 9.00019 16 9.00019C16.5523 9.00019 17 8.55247 17 8.00019C17 7.4479 16.5523 7.00018 16 7.00018Z" fill="#171E2B"/>
</svg>
