<svg width="24" height="24" viewBox="0 0 24 24" fill="none" xmlns="http://www.w3.org/2000/svg">
<path fill-rule="evenodd" clip-rule="evenodd" d="M12 11C11.4477 11 11 11.4477 11 12C11 12.5523 11.4477 13 12 13C12.5523 13 13 12.5523 13 12C13 11.4477 12.5523 11 12 11ZM7.99999 7.00006C7.44771 7.00006 6.99999 7.44778 6.99999 8.00006C6.99999 8.55235 7.44771 9.00006 7.99999 9.00006C8.55228 9.00006 8.99999 8.55235 8.99999 8.00006C8.99999 7.44778 8.55228 7.00006 7.99999 7.00006ZM17 2H7C4.23858 2 2 4.23858 2 7V17C2 18.3261 2.52678 19.5979 3.46447 20.5355C4.40215 21.4732 5.67392 22 7 22H17C19.7614 22 22 19.7614 22 17V7C22 4.23858 19.7614 2 17 2ZM20 17.0001C20 18.6569 18.6568 20.0001 17 20.0001H6.99999C5.34314 20.0001 3.99999 18.6569 3.99999 17.0001V7.00006C3.99999 5.34321 5.34314 4.00006 6.99999 4.00006H17C18.6568 4.00006 20 5.34321 20 7.00006V17.0001ZM16 14.9999C15.4477 14.9999 15 15.4477 15 15.9999C15 16.5522 15.4477 16.9999 16 16.9999C16.5523 16.9999 17 16.5522 17 15.9999C17 15.4477 16.5523 14.9999 16 14.9999Z" fill="#171E2B"/>
</svg>
