<svg width="24" height="24" viewBox="0 0 24 24" fill="none" xmlns="http://www.w3.org/2000/svg">
<path fill-rule="evenodd" clip-rule="evenodd" d="M9 11C8.44771 11 8 11.4477 8 12C8 12.5523 8.44771 13 9 13C9.55228 13 10 12.5523 10 12C10 11.4477 9.55228 11 9 11ZM17 2H7C4.23858 2 2 4.23858 2 7V17C2 18.3261 2.52678 19.5979 3.46447 20.5355C4.40215 21.4732 5.67392 22 7 22H17C19.7614 22 22 19.7614 22 17V7C22 4.23858 19.7614 2 17 2ZM20 17.0001C20 18.6569 18.6569 20.0001 17 20.0001H7C5.34315 20.0001 4 18.6569 4 17.0001V7.00006C4 5.34321 5.34315 4.00006 7 4.00006H17C18.6569 4.00006 20 5.34321 20 7.00006V17.0001ZM15 11C14.4477 11 14 11.4477 14 12C14 12.5523 14.4477 13 15 13C15.5523 13 16 12.5523 16 12C16 11.4477 15.5523 11 15 11Z" fill="#171E2B"/>
</svg>
