<svg width="24" height="24" viewBox="0 0 24 24" fill="none" xmlns="http://www.w3.org/2000/svg">
<path fill-rule="evenodd" clip-rule="evenodd" d="M9.71007 10.2099L12.0001 7.90994L14.2901 10.2099C14.4778 10.3993 14.7334 10.5057 15.0001 10.5057C15.2667 10.5057 15.5223 10.3993 15.7101 10.2099C15.8994 10.0222 16.0059 9.76658 16.0059 9.49994C16.0059 9.2333 15.8994 8.97771 15.7101 8.78994L12.7101 5.78994C12.5223 5.60063 12.2667 5.49414 12.0001 5.49414C11.7334 5.49414 11.4778 5.60063 11.2901 5.78994L8.29007 8.78994C7.89794 9.18206 7.89794 9.81782 8.29007 10.2099C8.68219 10.6021 9.31794 10.6021 9.71007 10.2099ZM14.29 14.7899L12 17.0899L9.70999 14.7899C9.45634 14.5362 9.08662 14.4372 8.74012 14.53C8.39361 14.6229 8.12296 14.8935 8.03012 15.24C7.93727 15.5865 8.03634 15.9562 8.28999 16.2099L11.29 19.2099C11.4778 19.3992 11.7334 19.5057 12 19.5057C12.2666 19.5057 12.5222 19.3992 12.71 19.2099L15.71 16.2099C16.1021 15.8178 16.1021 15.182 15.71 14.7899C15.3179 14.3978 14.6821 14.3978 14.29 14.7899Z" fill="#171E2B"/>
</svg>
