<svg width="24" height="24" viewBox="0 0 24 24" fill="none" xmlns="http://www.w3.org/2000/svg">
<path fill-rule="evenodd" clip-rule="evenodd" d="M21.12 9.88014L14.12 2.88015C12.9316 1.75252 11.0684 1.75252 9.88 2.88015L2.88 9.88014C1.71019 11.0514 1.71019 12.9489 2.88 14.1201L9.88 21.1201C11.0513 22.29 12.9487 22.29 14.12 21.1201L21.12 14.1201C22.2898 12.9489 22.2898 11.0514 21.12 9.88014ZM19.71 12.7102L12.71 19.7102C12.5222 19.8995 12.2666 20.006 12 20.006C11.7334 20.006 11.4778 19.8995 11.29 19.7102L4.28999 12.7102C4.10068 12.5224 3.99419 12.2668 3.99419 12.0002C3.99419 11.7336 4.10068 11.478 4.28999 11.2902L11.29 4.29021C11.4778 4.1009 11.7334 3.99441 12 3.99441C12.2666 3.99441 12.5222 4.1009 12.71 4.29021L19.71 11.2902C19.8993 11.478 20.0058 11.7336 20.0058 12.0002C20.0058 12.2668 19.8993 12.5224 19.71 12.7102ZM14.21 9.29011C13.8179 8.89799 13.1821 8.89799 12.79 9.29011C12.3979 9.68224 12.3979 10.318 12.79 10.7101L13.09 11.0001H9.50001C8.94772 11.0001 8.50001 11.4478 8.50001 12.0001V14.0001C8.50001 14.5524 8.94772 15.0001 9.50001 15.0001C10.0523 15.0001 10.5 14.5524 10.5 14.0001V13.0001H13.09L12.79 13.2901C12.6007 13.4779 12.4942 13.7335 12.4942 14.0001C12.4942 14.2668 12.6007 14.5223 12.79 14.7101C12.9778 14.8994 13.2334 15.0059 13.5 15.0059C13.7666 15.0059 14.0222 14.8994 14.21 14.7101L16.21 12.7101C16.3993 12.5223 16.5058 12.2668 16.5058 12.0001C16.5058 11.7335 16.3993 11.4779 16.21 11.2901L14.21 9.29011Z" fill="#171E2B"/>
</svg>
