<svg width="24" height="24" viewBox="0 0 24 24" fill="none" xmlns="http://www.w3.org/2000/svg">
<path fill-rule="evenodd" clip-rule="evenodd" d="M8.99999 11.71L9.28999 11.41L9.57999 11.71C9.76776 11.8993 10.0234 12.0058 10.29 12.0058C10.5566 12.0058 10.8122 11.8993 11 11.71C11.1893 11.5223 11.2958 11.2667 11.2958 11C11.2958 10.7334 11.1893 10.4778 11 10.29L10.7 10L11 9.71002C11.3921 9.30685 11.3832 8.66214 10.98 8.27002C10.5768 7.8779 9.93211 7.88686 9.53999 8.29002L9.24999 8.59002L8.99999 8.29002C8.60787 7.88686 7.96316 7.8779 7.55999 8.27002C7.15682 8.66214 7.14787 9.30685 7.53999 9.71002L7.83999 10L7.53999 10.29C7.35068 10.4778 7.24419 10.7334 7.24419 11C7.24419 11.2667 7.35068 11.5223 7.53999 11.71C7.72776 11.8993 7.98335 12.0058 8.24999 12.0058C8.51663 12.0058 8.77223 11.8993 8.95999 11.71H8.99999ZM15 14H8.99998C8.4477 14 7.99998 14.4477 7.99998 15C7.99998 15.5523 8.4477 16 8.99998 16H15C15.5523 16 16 15.5523 16 15C16 14.4477 15.5523 14 15 14ZM12 2C6.47714 2 1.99998 6.47715 1.99998 12C1.99998 17.5228 6.47714 22 12 22C17.5228 22 22 17.5228 22 12C22 9.34784 20.9464 6.8043 19.0711 4.92893C17.1957 3.05357 14.6521 2 12 2ZM12 20.0001C7.5817 20.0001 3.99998 16.4183 3.99998 12.0001C3.99998 7.58178 7.5817 4.00006 12 4.00006C16.4183 4.00006 20 7.58178 20 12.0001C20 14.1218 19.1571 16.1566 17.6568 17.6569C16.1565 19.1572 14.1217 20.0001 12 20.0001ZM17 8.29001C16.8122 8.10069 16.5566 7.99421 16.29 7.99421C16.0233 7.99421 15.7677 8.10069 15.58 8.29001L15.29 8.59001L15 8.29001C14.6079 7.89788 13.9721 7.89788 13.58 8.29001C13.1879 8.68213 13.1879 9.31789 13.58 9.71001L13.88 10L13.58 10.29C13.3907 10.4778 13.2842 10.7334 13.2842 11C13.2842 11.2666 13.3907 11.5222 13.58 11.71C13.7677 11.8993 14.0233 12.0058 14.29 12.0058C14.5566 12.0058 14.8122 11.8993 15 11.71L15.29 11.41L15.58 11.71C15.7677 11.8993 16.0233 12.0058 16.29 12.0058C16.5566 12.0058 16.8122 11.8993 17 11.71C17.1893 11.5222 17.2958 11.2666 17.2958 11C17.2958 10.7334 17.1893 10.4778 17 10.29L16.7 10L17 9.71001C17.1893 9.52224 17.2958 9.26665 17.2958 9.00001C17.2958 8.73337 17.1893 8.47777 17 8.29001Z" fill="#171E2B"/>
</svg>
