<svg width="24" height="24" viewBox="0 0 24 24" fill="none" xmlns="http://www.w3.org/2000/svg">
<path fill-rule="evenodd" clip-rule="evenodd" d="M9.19998 13.73C8.82385 13.3281 8.19364 13.3057 7.78998 13.68C5.3986 15.7864 4.01979 18.8132 3.99998 22C3.99998 22.5523 4.4477 23 4.99998 23C5.55227 23 5.99998 22.5523 5.99998 22C6.01387 19.3666 7.16172 16.8668 9.14998 15.14C9.55188 14.7639 9.57423 14.1336 9.19998 13.73ZM19.37 18.37C18.9975 17.2922 18.4575 16.2798 17.77 15.37C16.7412 14.0372 15.4853 12.8963 14.06 12C16.3 10.57 20 7.4 20 2C20 1.44772 19.5523 1 19 1C18.4477 1 18 1.44772 18 2C18 7.4 13.41 10.17 12 10.89C11.0292 10.3726 10.1258 9.73787 9.30999 9H12C12.5523 9 13 8.55228 13 8C13 7.44772 12.5523 7 12 7H7.54998C7.13818 6.37554 6.80247 5.70412 6.54998 5H15C15.5523 5 16 4.55228 16 4C16 3.44772 15.5523 3 15 3H6.05998C6.01947 2.66821 5.99943 2.33425 5.99998 2C5.99998 1.44772 5.55227 1 4.99998 1C4.4477 1 3.99998 1.44772 3.99998 2C3.99998 9.57 11.3 12.79 11.61 12.92C12.735 13.4606 13.7758 14.1612 14.7 15H12C11.4477 15 11 15.4477 11 16C11 16.5523 11.4477 17 12 17H16.43C16.8445 17.6229 17.1804 18.2946 17.43 19H8.99999C8.4477 19 7.99998 19.4477 7.99998 20C7.99998 20.5523 8.4477 21 8.99999 21H17.94C17.9802 21.3318 18.0002 21.6658 18 22C18 22.5523 18.4477 23 19 23C19.5523 23 20 22.5523 20 22C20.0036 21.2643 19.9298 20.5303 19.78 19.81C19.6825 19.3197 19.5454 18.8381 19.37 18.37Z" fill="#171E2B"/>
</svg>
