<svg width="24" height="24" viewBox="0 0 24 24" fill="none" xmlns="http://www.w3.org/2000/svg">
<path fill-rule="evenodd" clip-rule="evenodd" d="M9 12H15C15.5523 12 16 11.5523 16 11V5C16 4.44772 15.5523 4 15 4H9C8.44772 4 8 4.44772 8 5V11C8 11.5523 8.44772 12 9 12ZM10 6.00006H14V10.0001H10V6.00006ZM21 10H19C18.4477 10 18 10.4477 18 11C18 11.5523 18.4477 12 19 12H21C21.5523 12 22 11.5523 22 11C22 10.4477 21.5523 10 21 10ZM19 8.00006H21C21.5523 8.00006 22 7.55234 22 7.00006C22 6.44778 21.5523 6.00006 21 6.00006H19C18.4477 6.00006 18 6.44778 18 7.00006C18 7.55234 18.4477 8.00006 19 8.00006ZM3 8.00006H5C5.55228 8.00006 6 7.55234 6 7.00006C6 6.44778 5.55228 6.00006 5 6.00006H3C2.44772 6.00006 2 6.44778 2 7.00006C2 7.55234 2.44772 8.00006 3 8.00006ZM3 12H5C5.55228 12 6 11.5523 6 11C6 10.4477 5.55228 10 5 10H3C2.44772 10 2 10.4477 2 11C2 11.5523 2.44772 12 3 12ZM21 13.9999H3C2.44772 13.9999 2 14.4477 2 14.9999C2 15.5522 2.44772 15.9999 3 15.9999H21C21.5523 15.9999 22 15.5522 22 14.9999C22 14.4477 21.5523 13.9999 21 13.9999ZM13 18.0001H3C2.44772 18.0001 2 18.4478 2 19.0001C2 19.5524 2.44772 20.0001 3 20.0001H13C13.5523 20.0001 14 19.5524 14 19.0001C14 18.4478 13.5523 18.0001 13 18.0001Z" fill="#171E2B"/>
</svg>
