<svg width="24" height="24" viewBox="0 0 24 24" fill="none" xmlns="http://www.w3.org/2000/svg">
<path fill-rule="evenodd" clip-rule="evenodd" d="M3 12H9C9.55228 12 10 11.5523 10 11V5C10 4.44772 9.55228 4 9 4H3C2.44772 4 2 4.44772 2 5V11C2 11.5523 2.44772 12 3 12ZM4.00002 6.00006H8.00001V10.0001H4.00002V6.00006ZM13 8.00006H21C21.5523 8.00006 22 7.55234 22 7.00006C22 6.44778 21.5523 6.00006 21 6.00006H13C12.4477 6.00006 12 6.44778 12 7.00006C12 7.55234 12.4477 8.00006 13 8.00006ZM13 18.0001H3C2.44772 18.0001 2 18.4478 2 19.0001C2 19.5524 2.44772 20.0001 3 20.0001H13C13.5523 20.0001 14 19.5524 14 19.0001C14 18.4478 13.5523 18.0001 13 18.0001ZM21 13.9999H3C2.44772 13.9999 2 14.4477 2 14.9999C2 15.5522 2.44772 15.9999 3 15.9999H21C21.5523 15.9999 22 15.5522 22 14.9999C22 14.4477 21.5523 13.9999 21 13.9999ZM21 10H13C12.4477 10 12 10.4477 12 11C12 11.5523 12.4477 12 13 12H21C21.5523 12 22 11.5523 22 11C22 10.4477 21.5523 10 21 10Z" fill="#171E2B"/>
</svg>
