<svg width="24" height="24" viewBox="0 0 24 24" fill="none" xmlns="http://www.w3.org/2000/svg">
<path fill-rule="evenodd" clip-rule="evenodd" d="M12 14C11.4477 14 11 14.4477 11 15V17C11 17.5523 11.4477 18 12 18C12.5523 18 13 17.5523 13 17V15C13 14.4477 12.5523 14 12 14ZM12.38 11.08C12.1989 10.9961 11.9969 10.9682 11.8 11L11.62 11.06L11.44 11.15L11.29 11.27C11.0978 11.4636 10.993 11.7273 11 12C10.9984 12.2658 11.1028 12.5213 11.29 12.71C11.3851 12.801 11.4972 12.8724 11.62 12.92C11.7386 12.976 11.8688 13.0034 12 13C12.2658 13.0015 12.5212 12.8972 12.71 12.71C12.8972 12.5213 13.0015 12.2658 13 12C13.0015 11.7342 12.8972 11.4787 12.71 11.29C12.6128 11.2017 12.5011 11.1306 12.38 11.08ZM20 8.94C19.9896 8.84813 19.9695 8.75763 19.94 8.67V8.58C19.8919 8.47718 19.8278 8.38266 19.75 8.3L13.75 2.3C13.6673 2.22222 13.5728 2.15808 13.47 2.11H13.37C13.2727 2.058 13.1682 2.02092 13.06 2H6.99998C5.34313 2 3.99998 3.34315 3.99998 5V19C3.99998 20.6569 5.34313 22 6.99998 22H17C18.6568 22 20 20.6569 20 19V9C20 9 20 9 20 8.94ZM14 5.41006L16.59 8.00006H15C14.4477 8.00006 14 7.55235 14 7.00006V5.41006ZM18 19.0001C18 19.5523 17.5523 20.0001 17 20.0001H7C6.44772 20.0001 6 19.5523 6 19.0001V5.00006C6 4.44778 6.44772 4.00006 7 4.00006H12V7.00006C12 8.65692 13.3431 10.0001 15 10.0001H18V19.0001Z" fill="#171E2B"/>
</svg>
