<svg width="24" height="24" viewBox="0 0 24 24" fill="none" xmlns="http://www.w3.org/2000/svg">
<path fill-rule="evenodd" clip-rule="evenodd" d="M13 18.0001H3C2.44772 18.0001 2 18.4478 2 19.0001C2 19.5524 2.44772 20.0001 3 20.0001H13C13.5523 20.0001 14 19.5524 14 19.0001C14 18.4478 13.5523 18.0001 13 18.0001ZM3 8.00006H11C11.5523 8.00006 12 7.55234 12 7.00006C12 6.44778 11.5523 6.00006 11 6.00006H3C2.44772 6.00006 2 6.44778 2 7.00006C2 7.55234 2.44772 8.00006 3 8.00006ZM3 12H11C11.5523 12 12 11.5523 12 11C12 10.4477 11.5523 10 11 10H3C2.44772 10 2 10.4477 2 11C2 11.5523 2.44772 12 3 12ZM21 13.9999H3C2.44772 13.9999 2 14.4477 2 14.9999C2 15.5522 2.44772 15.9999 3 15.9999H21C21.5523 15.9999 22 15.5522 22 14.9999C22 14.4477 21.5523 13.9999 21 13.9999ZM21 4H15C14.4477 4 14 4.44772 14 5V11C14 11.5523 14.4477 12 15 12H21C21.5523 12 22 11.5523 22 11V5C22 4.44772 21.5523 4 21 4ZM20 10.0001H16V6.00006H20V10.0001Z" fill="#171E2B"/>
</svg>
