<svg width="24" height="24" viewBox="0 0 24 24" fill="none" xmlns="http://www.w3.org/2000/svg">
<path fill-rule="evenodd" clip-rule="evenodd" d="M14 11H13V7H15C15.5523 7 16 7.44772 16 8C16 8.55228 16.4477 9 17 9C17.5523 9 18 8.55228 18 8C18 6.34315 16.6569 5 15 5H13V3C13 2.44772 12.5523 2 12 2C11.4477 2 11 2.44772 11 3V5H10C7.79086 5 6 6.79086 6 9C6 11.2091 7.79086 13 10 13H11V17H9C8.44772 17 8 16.5523 8 16C8 15.4477 7.55228 15 7 15C6.44772 15 6 15.4477 6 16C6 17.6569 7.34315 19 9 19H11V21C11 21.5523 11.4477 22 12 22C12.5523 22 13 21.5523 13 21V19H14C16.2091 19 18 17.2091 18 15C18 12.7909 16.2091 11 14 11ZM11 11.0001H9.99999C8.89542 11.0001 7.99999 10.1046 7.99999 9.00006C7.99999 7.89549 8.89542 7.00006 9.99999 7.00006H11V11.0001ZM14 17.0001H13V13.0001H14C15.1046 13.0001 16 13.8955 16 15.0001C16 16.1046 15.1046 17.0001 14 17.0001Z" fill="#171E2B"/>
</svg>
