<svg width="24" height="24" viewBox="0 0 24 24" fill="none" xmlns="http://www.w3.org/2000/svg">
<path fill-rule="evenodd" clip-rule="evenodd" d="M21 14C20.4477 14 20 14.4477 20 15V19C20 19.5523 19.5523 20 19 20H4.99998C4.4477 20 3.99998 19.5523 3.99998 19V15C3.99998 14.4477 3.55227 14 2.99998 14C2.4477 14 1.99998 14.4477 1.99998 15V19C1.99998 20.6569 3.34313 22 4.99998 22H19C20.6568 22 22 20.6569 22 19V15C22 14.4477 21.5523 14 21 14ZM11.29 15.71C11.3851 15.801 11.4972 15.8724 11.62 15.92C11.862 16.027 12.1379 16.027 12.38 15.92C12.5027 15.8724 12.6149 15.801 12.71 15.71L16.71 11.71C17.1021 11.3179 17.1021 10.6821 16.71 10.29C16.3179 9.89788 15.6821 9.89788 15.29 10.29L13 12.59V3C13 2.44772 12.5523 2 12 2C11.4477 2 11 2.44772 11 3V12.59L8.70998 10.29C8.45632 10.0363 8.08661 9.93728 7.7401 10.0301C7.3936 10.123 7.12295 10.3936 7.0301 10.7401C6.93726 11.0866 7.03632 11.4563 7.28998 11.71L11.29 15.71Z" fill="#171E2B"/>
</svg>
