<svg width="24" height="24" viewBox="0 0 24 24" fill="none" xmlns="http://www.w3.org/2000/svg">
<path fill-rule="evenodd" clip-rule="evenodd" d="M8.29 13.29C8.10069 13.4778 7.9942 13.7334 7.9942 14C7.9942 14.2666 8.10069 14.5222 8.29 14.71L11.29 17.71C11.4778 17.8993 11.7334 18.0058 12 18.0058C12.2666 18.0058 12.5222 17.8993 12.71 17.71L15.71 14.71C16.1021 14.3179 16.1021 13.6821 15.71 13.29C15.3179 12.8979 14.6821 12.8979 14.29 13.29L13 14.59V3C13 2.44772 12.5523 2 12 2C11.4477 2 11 2.44772 11 3V14.59L9.71 13.29C9.52223 13.1007 9.26664 12.9942 9 12.9942C8.73336 12.9942 8.47777 13.1007 8.29 13.29ZM18 8.99994H16C15.4477 8.99994 15 9.44765 15 9.99994C15 10.5522 15.4477 10.9999 16 10.9999H18C18.5523 10.9999 19 11.4477 19 11.9999V18.9999C19 19.5522 18.5523 19.9999 18 19.9999H6C5.44772 19.9999 5 19.5522 5 18.9999V11.9999C5 11.4477 5.44772 10.9999 6 10.9999H8C8.55228 10.9999 9 10.5522 9 9.99994C9 9.44765 8.55228 8.99994 8 8.99994H6C4.34315 8.99994 3 10.3431 3 11.9999V18.9999C3 20.6568 4.34315 21.9999 6 21.9999H18C19.6569 21.9999 21 20.6568 21 18.9999V11.9999C21 10.3431 19.6569 8.99994 18 8.99994Z" fill="#171E2B"/>
</svg>
