<svg width="24" height="24" viewBox="0 0 24 24" fill="none" xmlns="http://www.w3.org/2000/svg">
<path fill-rule="evenodd" clip-rule="evenodd" d="M12 2C6.47717 2 2.00002 6.47715 2.00002 12C2.00002 17.5228 6.47717 22 12 22C17.5229 22 22 17.5228 22 12C22 9.34784 20.9464 6.8043 19.0711 4.92893C17.1957 3.05357 14.6522 2 12 2ZM12 4.00006C14.0547 3.99924 16.0298 4.79499 17.51 6.22006C15.982 7.11626 14.3629 7.84706 12.68 8.40006C11.8425 6.95689 10.8823 5.5885 9.81 4.31006C10.522 4.10506 11.2591 4.00071 12 4.00006ZM7.89002 5.15C8.9377 6.34851 9.87798 7.6368 10.7 9C8.73712 9.4874 6.72252 9.73587 4.70002 9.74H4.34002C4.90722 7.81964 6.17395 6.18181 7.89002 5.15ZM6 17.3099C4.69875 15.8487 3.98608 13.9565 4 11.9999C4 11.8999 4 11.7999 4 11.7099H4.68C7.04737 11.6888 9.40139 11.3525 11.68 10.7099C12 11.3199 12.3 11.9499 12.59 12.5999C11.0315 13.1494 9.58001 13.9648 8.3 15.0099L8 15.2499C7.28712 15.8902 6.61889 16.5785 6 17.3099ZM12 20C10.4061 20.0035 8.8482 19.5261 7.53 18.63C8.01684 18.0716 8.53784 17.5439 9.09 17.05L9.41 16.78C10.5932 15.7849 11.949 15.0155 13.41 14.51C14.0113 16.136 14.4795 17.8082 14.81 19.51C13.9098 19.8387 12.9583 20.0046 12 20ZM16.63 18.5099C16.3028 16.9965 15.8752 15.5065 15.35 14.0499H15.69C15.7294 14.0402 15.7706 14.0402 15.81 14.0499H15.92H16.02H16.5C17.5524 14.0529 18.5968 14.2321 19.59 14.5799C19.0443 16.1703 18.0079 17.5464 16.63 18.5099ZM16.5 12C16.29 12 16.08 12 15.88 12C15.7505 11.9837 15.6195 11.9837 15.49 12C15.2182 12.0167 14.9477 12.0501 14.68 12.1H14.58C14.29 11.43 13.99 10.78 13.66 10.1C15.4507 9.48506 17.1704 8.68049 18.79 7.7C19.5935 8.98937 20.0132 10.4809 20 12C20 12.17 20 12.34 20 12.51C18.8667 12.1602 17.686 11.9882 16.5 12Z" fill="#171E2B"/>
</svg>
