<svg width="24" height="24" viewBox="0 0 24 24" fill="none" xmlns="http://www.w3.org/2000/svg">
<path fill-rule="evenodd" clip-rule="evenodd" d="M19 4H9.00001C8.44773 4 8.00002 4.44772 8.00002 5V7H3.00002C2.44773 7 2.00002 7.44772 2.00002 8C2.00002 8.55228 2.44773 9 3.00002 9H8.00002V13C8.00002 13.5523 8.44773 14 9.00001 14C9.5523 14 10 13.5523 10 13V12H14V19C14 19.5523 14.4477 20 15 20H17C18.6569 20 20 18.6569 20 17V11.82C21.1957 11.3973 21.9965 10.2683 22 9V7C22 5.34315 20.6569 4 19 4ZM18 17.0001C18 17.5523 17.5523 18.0001 17 18.0001H16V12.0001H18V17.0001ZM20 9.00006C20 9.55235 19.5523 10.0001 19 10.0001H10V6.00006H16V7.00006C16 7.55235 16.4477 8.00006 17 8.00006C17.5523 8.00006 18 7.55235 18 7.00006V6.00006H19C19.5523 6.00006 20 6.44778 20 7.00006V9.00006Z" fill="#171E2B"/>
</svg>
