<svg width="24" height="24" viewBox="0 0 24 24" fill="none" xmlns="http://www.w3.org/2000/svg">
<path fill-rule="evenodd" clip-rule="evenodd" d="M21.61 11.8102L18.36 9.28018L21.62 6.72018C21.8819 6.51465 22.0244 6.19223 22 5.86018C21.9677 5.52995 21.7827 5.23389 21.5 5.06018L16.36 2.13018C15.9901 1.92205 15.529 1.97016 15.21 2.25018L12 5.05018L8.79001 2.25018C8.471 1.97016 8.00996 1.92205 7.64001 2.13018L2.50001 5.06018C2.21732 5.23389 2.03228 5.52995 2.00001 5.86018C1.97561 6.19223 2.11807 6.51465 2.38001 6.72018L5.64001 9.28018L2.39001 11.7702C2.12432 11.9735 1.97795 12.2963 2.00001 12.6302C2.02251 12.9636 2.21012 13.2638 2.50001 13.4302L5.91001 15.4302V17.9002C5.91146 18.2477 6.09319 18.5695 6.39001 18.7502L11.48 21.8802C11.7894 22.0588 12.1706 22.0588 12.48 21.8802L17.57 18.7502C17.8668 18.5695 18.0486 18.2477 18.05 17.9002V15.4202L21.46 13.4702C21.7499 13.3038 21.9375 13.0036 21.96 12.6702C21.9916 12.3434 21.8608 12.022 21.61 11.8102ZM16 4.22015L19.23 6.06015L16.68 8.06015L13.68 6.22015L16 4.22015ZM14.91 9.34015L12 11.3401L9.08999 9.34015L12 7.55015L14.91 9.34015ZM4.79001 6.06015L8.00001 4.22015L10.31 6.22015L7.31001 8.06015L4.79001 6.06015ZM4.79001 12.4501L7.29001 10.5301L10.29 12.6101L8.07 14.3401L4.79001 12.4501ZM16.08 17.3101L12 19.8301L7.91001 17.3101V16.5101C8.20597 16.5827 8.5189 16.5165 8.76001 16.3301L12 13.8301L15.24 16.3301C15.4146 16.4656 15.6291 16.5394 15.85 16.5401C15.9297 16.5497 16.0103 16.5497 16.09 16.5401L16.08 17.3101ZM15.93 14.3101L13.7 12.6101L16.7 10.5301L19.21 12.4701L15.93 14.3101Z" fill="#171E2B"/>
</svg>
