<svg width="24" height="24" viewBox="0 0 24 24" fill="none" xmlns="http://www.w3.org/2000/svg">
<path fill-rule="evenodd" clip-rule="evenodd" d="M17.48 6.54995L14.64 3.70995C14.4522 3.52064 14.1966 3.41415 13.93 3.41415C13.6634 3.41415 13.4078 3.52064 13.22 3.70995C12.8323 4.09999 12.8323 4.72991 13.22 5.11995L15.34 7.23995L7.24001 15.34L5.12001 13.22C4.72997 12.8322 4.10005 12.8322 3.71001 13.22C3.5207 13.4077 3.41421 13.6633 3.41421 13.93C3.41421 14.1966 3.5207 14.4522 3.71001 14.64L6.52001 17.45L9.33001 20.26C9.51708 20.4508 9.77276 20.5588 10.04 20.5599C10.4463 20.5623 10.8136 20.3186 10.9694 19.9434C11.1252 19.5682 11.0385 19.136 10.75 18.85L8.66001 16.76L16.76 8.65995L18.88 10.78C19.1337 11.0318 19.5024 11.1292 19.8474 11.0355C20.1923 10.9418 20.4611 10.6711 20.5524 10.3255C20.6437 9.97989 20.5437 9.61182 20.29 9.35995L17.48 6.54995ZM3.71 17.4599C3.31788 17.0678 2.68212 17.0678 2.29 17.4599C1.89788 17.852 1.89788 18.4878 2.29 18.8799L5.12 21.7099C5.30872 21.8971 5.5642 22.0014 5.83 21.9999C6.0958 22.0014 6.35128 21.8971 6.54 21.7099C6.72931 21.5221 6.8358 21.2665 6.8358 20.9999C6.8358 20.7333 6.72931 20.4777 6.54 20.2899L3.71 17.4599ZM21.71 5.11996L18.88 2.28996C18.6263 2.03631 18.2566 1.93724 17.9101 2.03009C17.5636 2.12293 17.293 2.39358 17.2001 2.74009C17.1073 3.08659 17.2063 3.45631 17.46 3.70996L20.29 6.53996C20.4778 6.72928 20.7334 6.83576 21 6.83576C21.2666 6.83576 21.5222 6.72928 21.71 6.53996C21.8993 6.3522 22.0058 6.0966 22.0058 5.82996C22.0058 5.56333 21.8993 5.30773 21.71 5.11996Z" fill="#171E2B"/>
</svg>
