<svg width="24" height="24" viewBox="0 0 24 24" fill="none" xmlns="http://www.w3.org/2000/svg">
<path fill-rule="evenodd" clip-rule="evenodd" d="M5.00001 18.0002H9.24001C9.50581 18.0017 9.76129 17.8974 9.95001 17.7102L16.87 10.7802L19.71 8.00018C19.8993 7.81242 20.0058 7.55682 20.0058 7.29018C20.0058 7.02355 19.8993 6.76795 19.71 6.58018L15.47 2.29018C15.2822 2.10087 15.0266 1.99438 14.76 1.99438C14.4934 1.99438 14.2378 2.10087 14.05 2.29018L11.23 5.12018L4.29001 12.0502C4.10282 12.2389 3.99847 12.4944 4.00001 12.7602V17.0002C4.00001 17.5525 4.44772 18.0002 5.00001 18.0002ZM14.76 4.41011L17.59 7.24011L16.17 8.66011L13.34 5.83011L14.76 4.41011ZM6.00001 13.1702L11.93 7.24024L14.76 10.0702L8.83001 16.0002H6.00001V13.1702ZM21 20.0002H3C2.44772 20.0002 2 20.4479 2 21.0002C2 21.5525 2.44772 22.0002 3 22.0002H21C21.5523 22.0002 22 21.5525 22 21.0002C22 20.4479 21.5523 20.0002 21 20.0002Z" fill="#171E2B"/>
</svg>
