<svg width="24" height="24" viewBox="0 0 24 24" fill="none" xmlns="http://www.w3.org/2000/svg">
<path fill-rule="evenodd" clip-rule="evenodd" d="M21 12.0002C20.4477 12.0002 20 12.4479 20 13.0002V19.0002C20 19.5525 19.5523 20.0002 19 20.0002H5C4.44772 20.0002 4 19.5525 4 19.0002V5.00018C4 4.44789 4.44772 4.00018 5 4.00018H11C11.5523 4.00018 12 3.55246 12 3.00018C12 2.44789 11.5523 2.00018 11 2.00018H5C3.34315 2.00018 2 3.34332 2 5.00018V19.0002C2 20.657 3.34315 22.0002 5 22.0002H19C20.6569 22.0002 22 20.657 22 19.0002V13.0002C22 12.4479 21.5523 12.0002 21 12.0002ZM5.99998 12.7602V17.0002C5.99998 17.5525 6.44769 18.0002 6.99998 18.0002H11.24C11.5058 18.0017 11.7613 17.8974 11.95 17.7102L18.87 10.7802L21.71 8.00018C21.8993 7.81242 22.0058 7.55682 22.0058 7.29018C22.0058 7.02355 21.8993 6.76795 21.71 6.58018L17.47 2.29018C17.2822 2.10087 17.0266 1.99438 16.76 1.99438C16.4933 1.99438 16.2377 2.10087 16.05 2.29018L13.23 5.12018L6.28998 12.0502C6.10279 12.2389 5.99844 12.4944 5.99998 12.7602ZM16.76 4.41011L19.59 7.24011L18.17 8.66011L15.34 5.83011L16.76 4.41011ZM8 13.1702L13.93 7.24024L16.76 10.0702L10.83 16.0002H8V13.1702Z" fill="#171E2B"/>
</svg>
