<svg width="24" height="24" viewBox="0 0 24 24" fill="none" xmlns="http://www.w3.org/2000/svg">
<path d="M17.88 11.0327L11.64 20.6732C11.48 20.8366 11.32 21 11.16 21H11C10.68 20.8366 10.52 20.6732 10.68 20.3464L11.8 13.3203H7.48C7.32 13.3203 7 13.1569 7 12.9935C7 12.8301 7 12.5033 7 12.3399L13.72 3.51642C13.72 3.51642 14.04 2.86283 14.36 3.02622C14.68 3.18962 14.68 3.35302 14.68 3.67982L13.56 10.0523H17.4C17.56 10.0523 17.88 10.2157 17.88 10.3791C18.04 10.5425 18.04 10.8693 17.88 11.0327Z" fill="#171E2B"/>
</svg>
