<svg width="24" height="24" viewBox="0 0 24 24" fill="none" xmlns="http://www.w3.org/2000/svg">
<path fill-rule="evenodd" clip-rule="evenodd" d="M12 7C13.1046 7 14 6.10457 14 5C14 3.89543 13.1046 3 12 3C10.8954 3 10 3.89543 10 5C10 6.10457 10.8954 7 12 7ZM12 17.0001C10.8954 17.0001 10 17.8955 10 19.0001C10 20.1046 10.8954 21.0001 12 21.0001C13.1046 21.0001 14 20.1046 14 19.0001C14 17.8955 13.1046 17.0001 12 17.0001ZM12 9.99994C10.8954 9.99994 10 10.8954 10 11.9999C10 13.1045 10.8954 13.9999 12 13.9999C13.1046 13.9999 14 13.1045 14 11.9999C14 10.8954 13.1046 9.99994 12 9.99994Z" fill="#171E2B"/>
</svg>
