<svg width="24" height="24" viewBox="0 0 24 24" fill="none" xmlns="http://www.w3.org/2000/svg">
<path fill-rule="evenodd" clip-rule="evenodd" d="M15 10.9999C15.5523 10.9999 16 10.5522 16 9.99994C16 9.44765 15.5523 8.99994 15 8.99994C14.4477 8.99994 14 9.44765 14 9.99994C14 10.5522 14.4477 10.9999 15 10.9999ZM8.99998 10.9999C9.55227 10.9999 9.99998 10.5522 9.99998 9.99994C9.99998 9.44765 9.55227 8.99994 8.99998 8.99994C8.4477 8.99994 7.99998 9.44765 7.99998 9.99994C7.99998 10.5522 8.4477 10.9999 8.99998 10.9999ZM12 2C6.47714 2 1.99998 6.47715 1.99998 12C1.99998 17.5228 6.47714 22 12 22C17.5228 22 22 17.5228 22 12C22 9.34784 20.9464 6.8043 19.0711 4.92893C17.1957 3.05357 14.6521 2 12 2ZM12 20.0001C7.5817 20.0001 3.99998 16.4183 3.99998 12.0001C3.99998 7.58178 7.5817 4.00006 12 4.00006C16.4183 4.00006 20 7.58178 20 12.0001C20 14.1218 19.1571 16.1566 17.6568 17.6569C16.1565 19.1572 14.1217 20.0001 12 20.0001ZM16.28 12.8799C15.9365 12.451 15.3113 12.3796 14.88 12.7199C14.471 13.0543 14.1657 13.4983 14 13.9999H10.35C10.1878 13.4882 9.88242 13.0336 9.46997 12.6899C9.03541 12.3851 8.43837 12.4729 8.10997 12.8899C7.77161 13.3145 7.83375 13.9314 8.24997 14.2799C8.42509 14.4775 8.51496 14.7363 8.49997 14.9999C8.506 15.2622 8.41723 15.5178 8.24997 15.7199C7.95838 15.939 7.80916 16.2994 7.8606 16.6605C7.91204 17.0216 8.15598 17.326 8.49715 17.4549C8.83832 17.5838 9.22262 17.5168 9.49998 17.2799C9.88996 16.9365 10.1801 16.4944 10.34 15.9999H14C14.1601 16.5152 14.4699 16.9712 14.89 17.3099C15.0572 17.4266 15.2561 17.4895 15.46 17.4899C15.7643 17.4885 16.0513 17.3487 16.24 17.1099C16.5783 16.6854 16.5162 16.0685 16.1 15.7199C15.9249 15.5224 15.835 15.2635 15.85 14.9999C15.844 14.7377 15.9327 14.482 16.1 14.2799C16.5353 13.9425 16.6158 13.3165 16.28 12.8799Z" fill="#171E2B"/>
</svg>
