<svg width="24" height="24" viewBox="0 0 24 24" fill="none" xmlns="http://www.w3.org/2000/svg">
<path d="M12.0029 1.125C9.41739 1.125 7.31355 3.22874 7.31355 5.81436C7.31355 8.39988 9.41729 10.5037 12.0029 10.5037C14.5884 10.5037 16.6923 8.39904 16.6923 5.81436C16.6923 3.22884 14.5876 1.125 12.0029 1.125ZM12.0029 1.875C14.1826 1.875 15.9423 3.63374 15.9423 5.81436C15.9423 7.99404 14.1826 9.75372 12.0029 9.75372C9.82323 9.75372 8.06355 7.99404 8.06355 5.81436C8.06355 3.63468 9.82229 1.875 12.0029 1.875ZM12.0029 11.0408C7.36971 11.0408 3.62643 14.7815 3.62643 19.4147V22.5008H3.62549C3.62643 22.6002 3.6658 22.6958 3.73611 22.7662C3.80737 22.8365 3.90299 22.8749 4.00237 22.8749H20.0027C20.2089 22.874 20.3758 22.7071 20.3768 22.5008V19.4147C20.3768 14.7815 16.6361 11.0408 12.0029 11.0408L12.0029 11.0408ZM12.0029 11.7908C12.6432 11.7908 13.2648 11.8696 13.8582 12.0168L13.3454 13.2777H10.8105V13.2768C10.7852 13.274 10.7599 13.273 10.7346 13.274C10.7262 13.2749 10.7177 13.2758 10.7102 13.2768H10.6577L10.1459 12.0158C10.7402 11.8687 11.3618 11.7899 12.003 11.7899L12.0029 11.7908ZM14.5774 12.2408C17.5277 13.2908 19.6267 16.0902 19.6267 19.4147V22.125H16.9726V18.8888H16.9716C16.9735 18.7867 16.9341 18.6882 16.862 18.616C16.7898 18.5438 16.6913 18.5045 16.5901 18.5063C16.4898 18.5082 16.3951 18.5495 16.3257 18.6207C16.2573 18.6929 16.2188 18.7885 16.2216 18.8888V22.125L7.7842 22.1241V18.8879V18.8888C7.78608 18.7867 7.7467 18.6882 7.67452 18.616C7.60233 18.5439 7.50389 18.5045 7.40264 18.5064C7.30233 18.5082 7.20764 18.5495 7.13826 18.6207C7.06982 18.6929 7.03139 18.7885 7.0342 18.8889V22.125H4.3774V19.4147C4.3774 16.0912 6.4774 13.2928 9.42772 12.2418L10.0577 13.7953H10.0568C10.1083 13.9218 10.2255 14.0099 10.3624 14.0249L10.0849 19.2149H10.084C10.0774 19.3274 10.1224 19.4381 10.2058 19.514L11.7508 20.9175C11.8933 21.0468 12.1118 21.0468 12.2543 20.9175L13.7965 19.514C13.8799 19.4381 13.9249 19.3284 13.9184 19.2149L13.6418 14.0249H13.6427C13.7777 14.009 13.8949 13.9218 13.9465 13.7953L14.5774 12.2408ZM11.1142 14.0268H12.8907L13.1598 19.079L12.0029 20.1337L10.8432 19.079L11.1142 14.0268Z" fill="black"/>
</svg>
