<svg width="24" height="24" viewBox="0 0 24 24" fill="none" xmlns="http://www.w3.org/2000/svg">
<path fill-rule="evenodd" clip-rule="evenodd" d="M19 6C18.4477 6 18 6.44772 18 7V11C18 11.5523 17.5523 12 17 12H7.41L8.71 10.71C9.10213 10.3179 9.10213 9.68212 8.71 9.29C8.31788 8.89788 7.68213 8.89788 7.29 9.29L4.29 12.29C4.19896 12.3851 4.1276 12.4972 4.08 12.62C3.97999 12.8635 3.97999 13.1365 4.08 13.38C4.1276 13.5027 4.19896 13.6149 4.29 13.71L7.29 16.71C7.47777 16.8993 7.73337 17.0058 8 17.0058C8.26664 17.0058 8.52224 16.8993 8.71 16.71C8.89932 16.5222 9.0058 16.2666 9.0058 16C9.0058 15.7334 8.89932 15.4778 8.71 15.29L7.41 14H17C18.6569 14 20 12.6569 20 11V7C20 6.44772 19.5523 6 19 6Z" fill="#171E2B"/>
</svg>
