<svg width="90" height="90" viewBox="0 0 90 90" fill="none" xmlns="http://www.w3.org/2000/svg">
<path d="M6 26H25V75H6V26Z" fill="#F3CCD4"/>
<path d="M65 26H84V75H65V26Z" fill="#F3CCD4"/>
<path d="M70 47H79V55H70V47Z" fill="white"/>
<path d="M10.4003 47H19.4003V55H10.4003V47Z" fill="white"/>
<path d="M17 61H26V75H17V61Z" fill="white"/>
<path d="M64 61H73V75H64V61Z" fill="white"/>
<path d="M26 17H64V20H26V17Z" fill="#C1002A"/>
<path d="M65 27H85V30H65V27Z" fill="#C1002A"/>
<path d="M5 27H25V30H5V27Z" fill="#C1002A"/>
<path d="M38 57H51V75H38V57Z" fill="white"/>
<path d="M33 42H42V50H33V42Z" fill="white"/>
<path d="M48 42H57V50H48V42Z" fill="white"/>
<path d="M70 34H79V42H70V34Z" fill="white"/>
<path d="M10.4003 34H19.4003V42H10.4003V34Z" fill="white"/>
<path d="M25.7385 15.8278H64.1376C64.676 15.8278 65.1082 16.2638 65.1082 16.7984V76.336H24.7678V16.7984C24.7678 16.2638 25.2039 15.8278 25.7385 15.8278ZM26.7092 17.7691V74.3946H63.1669V17.7691H26.7092Z" fill="#C1002A"/>
<path fill-rule="evenodd" clip-rule="evenodd" d="M25.7385 16.0778C25.3419 16.0778 25.0178 16.4019 25.0178 16.7984V76.086H64.8582V16.7984C64.8582 16.4012 64.5373 16.0778 64.1376 16.0778H25.7385ZM24.5178 16.7984C24.5178 16.1257 25.0658 15.5778 25.7385 15.5778H64.1376C64.8147 15.5778 65.3582 16.1264 65.3582 16.7984V76.586H24.5178V16.7984ZM26.4592 17.5191H63.4169V74.6446H26.4592V17.5191ZM26.9592 18.0191V74.1446H62.9169V18.0191H26.9592Z" fill="#C1002A"/>
<path d="M38.3456 56.1682H51.5332C52.0678 56.1682 52.5039 56.6043 52.5039 57.1389V76.336H37.3749V57.1389C37.3749 56.6043 37.8109 56.1682 38.3456 56.1682ZM39.3162 74.3946H50.5625V58.1096H39.3162V74.3946Z" fill="#C1002A"/>
<path fill-rule="evenodd" clip-rule="evenodd" d="M38.3456 56.4182C37.949 56.4182 37.6249 56.7423 37.6249 57.1389V76.086H52.2539V57.1389C52.2539 56.7423 51.9298 56.4182 51.5332 56.4182H38.3456ZM37.1249 57.1389C37.1249 56.4662 37.6729 55.9182 38.3456 55.9182H51.5332C52.2059 55.9182 52.7539 56.4662 52.7539 57.1389V76.586H37.1249V57.1389ZM39.0662 57.8596H50.8125V74.6446H39.0662V57.8596ZM39.5662 58.3596V74.1446H50.3125V58.3596H39.5662Z" fill="#C1002A"/>
<path d="M33.3027 25.3923H41.4473C41.9819 25.3923 42.418 25.8246 42.418 26.363V34.5076C42.418 35.0422 41.9819 35.4783 41.4473 35.4783H33.3027C32.7681 35.4783 32.332 35.0422 32.332 34.5076V26.363C32.332 25.8246 32.7681 25.3923 33.3027 25.3923ZM34.2734 33.5369H40.4766V27.3337H34.2734V33.5369Z" fill="#C1002A"/>
<path fill-rule="evenodd" clip-rule="evenodd" d="M33.3027 25.6423C32.9055 25.6423 32.582 25.9633 32.582 26.363V34.5076C32.582 34.9041 32.9062 35.2283 33.3027 35.2283H41.4473C41.8438 35.2283 42.168 34.9041 42.168 34.5076V26.363C42.168 25.9633 41.8445 25.6423 41.4473 25.6423H33.3027ZM32.082 26.363C32.082 25.6859 32.6306 25.1423 33.3027 25.1423H41.4473C42.1194 25.1423 42.668 25.6859 42.668 26.363V34.5076C42.668 35.1803 42.12 35.7283 41.4473 35.7283H33.3027C32.63 35.7283 32.082 35.1803 32.082 34.5076V26.363ZM34.0234 27.0837H40.7266V33.7869H34.0234V27.0837ZM34.5234 27.5837V33.2869H40.2266V27.5837H34.5234Z" fill="#C1002A"/>
<path d="M48.4308 25.3923H56.5753C57.11 25.3923 57.546 25.8246 57.546 26.363V34.5076C57.546 35.0422 57.11 35.4783 56.5753 35.4783H48.4308C47.8923 35.4783 47.4601 35.0422 47.4601 34.5076V26.363C47.4601 25.8246 47.8923 25.3923 48.4308 25.3923ZM49.4014 33.5369H55.6047V27.3337H49.4014V33.5369Z" fill="#C1002A"/>
<path fill-rule="evenodd" clip-rule="evenodd" d="M48.4308 25.6423C48.0304 25.6423 47.7101 25.9627 47.7101 26.363V34.5076C47.7101 34.9048 48.031 35.2283 48.4308 35.2283H56.5753C56.9719 35.2283 57.296 34.9041 57.296 34.5076V26.363C57.296 25.9633 56.9725 25.6423 56.5753 25.6423H48.4308ZM47.2101 26.363C47.2101 25.6865 47.7543 25.1423 48.4308 25.1423H56.5753C57.2474 25.1423 57.796 25.6859 57.796 26.363V34.5076C57.796 35.1803 57.248 35.7283 56.5753 35.7283H48.4308C47.7536 35.7283 47.2101 35.1797 47.2101 34.5076V26.363ZM49.1514 27.0837H55.8547V33.7869H49.1514V27.0837ZM49.6514 27.5837V33.2869H55.3547V27.5837H49.6514Z" fill="#C1002A"/>
<path d="M33.3027 41.0393H41.4473C41.9819 41.0393 42.418 41.4754 42.418 42.01V50.1546C42.418 50.6892 41.9819 51.1252 41.4473 51.1252H33.3027C32.7681 51.1252 32.332 50.6892 32.332 50.1546V42.01C32.332 41.4754 32.7681 41.0393 33.3027 41.0393ZM34.2734 49.1839H40.4766V42.9807H34.2734V49.1839Z" fill="#C1002A"/>
<path fill-rule="evenodd" clip-rule="evenodd" d="M33.3027 41.2893C32.9062 41.2893 32.582 41.6134 32.582 42.01V50.1546C32.582 50.5511 32.9062 50.8752 33.3027 50.8752H41.4473C41.8438 50.8752 42.168 50.5511 42.168 50.1546V42.01C42.168 41.6134 41.8438 41.2893 41.4473 41.2893H33.3027ZM32.082 42.01C32.082 41.3373 32.63 40.7893 33.3027 40.7893H41.4473C42.12 40.7893 42.668 41.3373 42.668 42.01V50.1546C42.668 50.8273 42.12 51.3752 41.4473 51.3752H33.3027C32.63 51.3752 32.082 50.8273 32.082 50.1546V42.01ZM34.0234 42.7307H40.7266V49.4339H34.0234V42.7307ZM34.5234 43.2307V48.9339H40.2266V43.2307H34.5234Z" fill="#C1002A"/>
<path d="M48.4308 41.0393H56.5753C57.11 41.0393 57.546 41.4754 57.546 42.01V50.1546C57.546 50.6892 57.11 51.1252 56.5753 51.1252H48.4308C47.8923 51.1252 47.4601 50.6892 47.4601 50.1546V42.01C47.4601 41.4754 47.8923 41.0393 48.4308 41.0393ZM49.4014 49.1839H55.6047V42.9807H49.4014V49.1839Z" fill="#C1002A"/>
<path fill-rule="evenodd" clip-rule="evenodd" d="M48.4308 41.2893C48.031 41.2893 47.7101 41.6128 47.7101 42.01V50.1546C47.7101 50.5518 48.031 50.8752 48.4308 50.8752H56.5753C56.9719 50.8752 57.296 50.5511 57.296 50.1546V42.01C57.296 41.6134 56.9719 41.2893 56.5753 41.2893H48.4308ZM47.2101 42.01C47.2101 41.3379 47.7536 40.7893 48.4308 40.7893H56.5753C57.248 40.7893 57.796 41.3373 57.796 42.01V50.1546C57.796 50.8273 57.248 51.3752 56.5753 51.3752H48.4308C47.7536 51.3752 47.2101 50.8266 47.2101 50.1546V42.01ZM49.1514 42.7307H55.8547V49.4339H49.1514V42.7307ZM49.6514 43.2307V48.9339H55.3547V43.2307H49.6514Z" fill="#C1002A"/>
<path d="M63.3104 25.9142H85.0294C85.564 25.9142 86 26.3464 86 26.8849V75.3654C86 75.9038 85.564 76.3361 85.0294 76.3361H63.3104V25.9142ZM65.2518 27.8555V74.3947H84.0587V27.8555H65.2518Z" fill="#C1002A"/>
<path fill-rule="evenodd" clip-rule="evenodd" d="M63.0604 25.6642H85.0294C85.7014 25.6642 86.25 26.2077 86.25 26.8849V75.3654C86.25 76.0425 85.7014 76.5861 85.0294 76.5861H63.0604V25.6642ZM63.5604 26.1642V76.0861H85.0294C85.4266 76.0861 85.75 75.7651 85.75 75.3654V26.8849C85.75 26.4851 85.4266 26.1642 85.0294 26.1642H63.5604ZM65.0018 27.6055H84.3087V74.6447H65.0018V27.6055ZM65.5018 28.1055V74.1447H83.8087V28.1055H65.5018Z" fill="#C1002A"/>
<path d="M64.5267 59.5305H72.6713C73.2097 59.5305 73.642 59.9628 73.642 60.5012V76.3349H63.5557V60.5012C63.5557 59.9628 63.9917 59.5305 64.5263 59.5305H64.5267ZM65.4974 74.3935H71.7006V61.4719H65.4974V74.3935Z" fill="#C1002A"/>
<path fill-rule="evenodd" clip-rule="evenodd" d="M64.5263 59.7805C64.1291 59.7805 63.8057 60.1015 63.8057 60.5012V76.0849H73.392V60.5012C73.392 60.1008 73.0717 59.7805 72.6713 59.7805H64.5263ZM63.3057 60.5012C63.3057 59.8241 63.8543 59.2805 64.5263 59.2805H72.6713C73.3478 59.2805 73.892 59.8247 73.892 60.5012V76.5849H63.3057V60.5012ZM65.2474 61.2219H71.9506V74.6435H65.2474V61.2219ZM65.7474 61.7219V74.1435H71.4506V61.7219H65.7474Z" fill="#C1002A"/>
<path d="M70.5704 33.2158H78.715C79.2496 33.2158 79.6857 33.6519 79.6857 34.1865V42.3311C79.6857 42.8657 79.2496 43.3018 78.715 43.3018H70.5704C70.0358 43.3018 69.5997 42.8657 69.5997 42.3311V34.1865C69.5997 33.6519 70.0358 33.2158 70.5704 33.2158ZM71.5411 41.3604H77.7443V35.1572H71.5411V41.3604Z" fill="#C1002A"/>
<path fill-rule="evenodd" clip-rule="evenodd" d="M70.5704 33.4658C70.1739 33.4658 69.8497 33.7899 69.8497 34.1865V42.3311C69.8497 42.7276 70.1739 43.0518 70.5704 43.0518H78.715C79.1115 43.0518 79.4357 42.7276 79.4357 42.3311V34.1865C79.4357 33.7899 79.1115 33.4658 78.715 33.4658H70.5704ZM69.3497 34.1865C69.3497 33.5138 69.8977 32.9658 70.5704 32.9658H78.715C79.3877 32.9658 79.9357 33.5138 79.9357 34.1865V42.3311C79.9357 43.0038 79.3877 43.5518 78.715 43.5518H70.5704C69.8977 43.5518 69.3497 43.0038 69.3497 42.3311V34.1865ZM71.2911 34.9072H77.9943V41.6104H71.2911V34.9072ZM71.7911 35.4072V41.1104H77.4943V35.4072H71.7911Z" fill="#C1002A"/>
<path d="M10.9707 33.2158H19.1152C19.6499 33.2158 20.0859 33.6519 20.0859 34.1865V42.3311C20.0859 42.8657 19.6499 43.3018 19.1152 43.3018H10.9707C10.436 43.3018 10 42.8657 10 42.3311V34.1865C10 33.6519 10.436 33.2158 10.9707 33.2158ZM11.9414 41.3604H18.1446V35.1572H11.9414V41.3604Z" fill="#C1002A"/>
<path fill-rule="evenodd" clip-rule="evenodd" d="M10.9707 33.4658C10.5741 33.4658 10.25 33.7899 10.25 34.1865V42.3311C10.25 42.7276 10.5741 43.0518 10.9707 43.0518H19.1152C19.5118 43.0518 19.8359 42.7276 19.8359 42.3311V34.1865C19.8359 33.7899 19.5118 33.4658 19.1152 33.4658H10.9707ZM9.75 34.1865C9.75 33.5138 10.298 32.9658 10.9707 32.9658H19.1152C19.7879 32.9658 20.3359 33.5138 20.3359 34.1865V42.3311C20.3359 43.0038 19.7879 43.5518 19.1152 43.5518H10.9707C10.298 43.5518 9.75 43.0038 9.75 42.3311V34.1865ZM11.6914 34.9072H18.3946V41.6104H11.6914V34.9072ZM12.1914 35.4072V41.1104H17.8946V35.4072H12.1914Z" fill="#C1002A"/>
<path d="M70.5704 45.9236H78.715C79.2496 45.9236 79.6857 46.3558 79.6857 46.8943V55.0388C79.6857 55.5735 79.2496 56.0095 78.715 56.0095H70.5704C70.0358 56.0095 69.5997 55.5735 69.5997 55.0388V46.8943C69.5997 46.3558 70.0358 45.9236 70.5704 45.9236ZM71.5411 54.0682H77.7443V47.8649H71.5411V54.0682Z" fill="#C1002A"/>
<path fill-rule="evenodd" clip-rule="evenodd" d="M70.5704 46.1736C70.1732 46.1736 69.8497 46.4945 69.8497 46.8943V55.0388C69.8497 55.4354 70.1739 55.7595 70.5704 55.7595H78.715C79.1115 55.7595 79.4357 55.4354 79.4357 55.0388V46.8943C79.4357 46.4945 79.1122 46.1736 78.715 46.1736H70.5704ZM69.3497 46.8943C69.3497 46.2171 69.8983 45.6736 70.5704 45.6736H78.715C79.387 45.6736 79.9357 46.2171 79.9357 46.8943V55.0388C79.9357 55.7115 79.3877 56.2595 78.715 56.2595H70.5704C69.8977 56.2595 69.3497 55.7115 69.3497 55.0388V46.8943ZM71.2911 47.6149H77.9943V54.3182H71.2911V47.6149ZM71.7911 48.1149V53.8182H77.4943V48.1149H71.7911Z" fill="#C1002A"/>
<path d="M10.9707 45.9236H19.1152C19.6499 45.9236 20.0859 46.3558 20.0859 46.8943V55.0388C20.0859 55.5735 19.6499 56.0095 19.1152 56.0095H10.9707C10.436 56.0095 10 55.5735 10 55.0388V46.8943C10 46.3558 10.436 45.9236 10.9707 45.9236ZM11.9414 54.0682H18.1446V47.8649H11.9414V54.0682Z" fill="#C1002A"/>
<path fill-rule="evenodd" clip-rule="evenodd" d="M10.9707 46.1736C10.5735 46.1736 10.25 46.4945 10.25 46.8943V55.0388C10.25 55.4354 10.5741 55.7595 10.9707 55.7595H19.1152C19.5118 55.7595 19.8359 55.4354 19.8359 55.0388V46.8943C19.8359 46.4945 19.5124 46.1736 19.1152 46.1736H10.9707ZM9.75 46.8943C9.75 46.2171 10.2986 45.6736 10.9707 45.6736H19.1152C19.7873 45.6736 20.3359 46.2171 20.3359 46.8943V55.0388C20.3359 55.7115 19.7879 56.2595 19.1152 56.2595H10.9707C10.298 56.2595 9.75 55.7115 9.75 55.0388V46.8943ZM11.6914 47.6149H18.3946V54.3182H11.6914V47.6149ZM12.1914 48.1149V53.8182H17.8946V48.1149H12.1914Z" fill="#C1002A"/>
<path d="M26.6896 25.9142H4.97068C4.43605 25.9142 4 26.3464 4 26.8849V75.3654C4 75.9038 4.43605 76.3361 4.97068 76.3361H26.6896V25.9142ZM24.7483 27.8555V74.3947H5.94136V27.8555H24.7483Z" fill="#C1002A"/>
<path fill-rule="evenodd" clip-rule="evenodd" d="M3.75 26.8849C3.75 26.2077 4.29861 25.6642 4.97068 25.6642H26.9396V76.5861H4.97068C4.29861 76.5861 3.75 76.0425 3.75 75.3654V26.8849ZM4.97068 26.1642C4.57348 26.1642 4.25 26.4851 4.25 26.8849V75.3654C4.25 75.7651 4.57348 76.0861 4.97068 76.0861H26.4396V26.1642H4.97068ZM5.69136 27.6055H24.9983V74.6447H5.69136V27.6055ZM6.19136 28.1055V74.1447H24.4983V28.1055H6.19136Z" fill="#C1002A"/>
<path d="M25.3472 59.5305H17.2064C16.668 59.5305 16.2357 59.9628 16.2357 60.5012V76.3349H26.3182V60.5012C26.3182 59.9628 25.8859 59.5305 25.3475 59.5305H25.3472ZM24.3765 74.3935H18.1771V61.4719H24.3765V74.3935Z" fill="#C1002A"/>
<path fill-rule="evenodd" clip-rule="evenodd" d="M15.9857 60.5012C15.9857 59.8247 16.5299 59.2805 17.2064 59.2805H25.3472C26.0237 59.2805 26.5682 59.8247 26.5682 60.5012V76.5849H15.9857V60.5012ZM17.2064 59.7805C16.806 59.7805 16.4857 60.1008 16.4857 60.5012V76.0849H26.0682V60.5012C26.0682 60.1008 25.7478 59.7805 25.3475 59.7805H17.2064ZM17.9271 61.2219H24.6265V74.6435H17.9271V61.2219ZM18.4271 61.7219V74.1435H24.1265V61.7219H18.4271Z" fill="#C1002A"/>
</svg>
