<svg width="24" height="24" viewBox="0 0 24 24" fill="none" xmlns="http://www.w3.org/2000/svg">
<path fill-rule="evenodd" clip-rule="evenodd" d="M20 12C20 11.4477 19.5523 11 19 11H11.41L13.71 8.71002C13.9636 8.45636 14.0627 8.08665 13.9699 7.74014C13.877 7.39364 13.6064 7.12299 13.2599 7.03014C12.9134 6.9373 12.5436 7.03636 12.29 7.29002L8.28999 11.29C8.19895 11.3851 8.12758 11.4973 8.07999 11.62C7.97997 11.8635 7.97997 12.1366 8.07999 12.38C8.12758 12.5028 8.19895 12.6149 8.28999 12.71L12.29 16.71C12.4778 16.8993 12.7333 17.0058 13 17.0058C13.2666 17.0058 13.5222 16.8993 13.71 16.71C13.8993 16.5223 14.0058 16.2667 14.0058 16C14.0058 15.7334 13.8993 15.4778 13.71 15.29L11.41 13H19C19.5523 13 20 12.5523 20 12ZM17 2H6.99998C5.34313 2 3.99998 3.34315 3.99998 5V19C3.99998 20.6569 5.34313 22 6.99998 22H17C18.6568 22 20 20.6569 20 19V16C20 15.4477 19.5523 15 19 15C18.4477 15 18 15.4477 18 16V19C18 19.5523 17.5523 20 17 20H6.99998C6.4477 20 5.99998 19.5523 5.99998 19V5C5.99998 4.44772 6.4477 4 6.99998 4H17C17.5523 4 18 4.44772 18 5V8C18 8.55228 18.4477 9 19 9C19.5523 9 20 8.55228 20 8V5C20 3.34315 18.6568 2 17 2Z" fill="#171E2B"/>
</svg>
