<svg width="24" height="24" viewBox="0 0 24 24" fill="none" xmlns="http://www.w3.org/2000/svg">
<path fill-rule="evenodd" clip-rule="evenodd" d="M11.29 8.78992C11.4778 8.97923 11.7334 9.08572 12 9.08572C12.2666 9.08572 12.5222 8.97923 12.71 8.78992L14.71 6.78992C15.0977 6.39988 15.0977 5.76996 14.71 5.37992C14.5222 5.19061 14.2666 5.08412 14 5.08412C13.7334 5.08412 13.4778 5.19061 13.29 5.37992L13 5.66992V2.91992C13 2.36764 12.5523 1.91992 12 1.91992C11.4477 1.91992 11 2.36764 11 2.91992V5.66992L10.71 5.37992C10.5222 5.19061 10.2666 5.08412 10 5.08412C9.73337 5.08412 9.47777 5.19061 9.29 5.37992C8.90228 5.76996 8.90228 6.39988 9.29 6.78992L11.29 8.78992ZM16 11.0799H8C6.34315 11.0799 5 12.423 5 14.0799V19.0799C5 20.7367 6.34315 22.0799 8 22.0799H16C17.6569 22.0799 19 20.7367 19 19.0799V14.0799C19 12.423 17.6569 11.0799 16 11.0799ZM15.58 13.0799L12.7 15.9999C12.3112 16.3811 11.6888 16.3811 11.3 15.9999L8.42 13.0799H15.58ZM17 19.0799C17 19.6322 16.5523 20.0799 16 20.0799H7.99999C7.44771 20.0799 6.99999 19.6322 6.99999 19.0799V14.4899L9.87999 17.3699C11.0513 18.5397 12.9487 18.5397 14.12 17.3699L17 14.4899V19.0799Z" fill="#171E2B"/>
</svg>
