<svg width="24" height="24" viewBox="0 0 24 24" fill="none" xmlns="http://www.w3.org/2000/svg">
<path fill-rule="evenodd" clip-rule="evenodd" d="M20 14C19.4477 14 19 14.4477 19 15V19C19 19.5523 18.5523 20 18 20H3.99998C3.4477 20 2.99998 19.5523 2.99998 19V9.41L8.87998 15.3C9.44123 15.8567 10.1995 16.1693 10.99 16.17C11.8003 16.1658 12.5764 15.8425 13.15 15.27L14.87 13.55C15.1236 13.2963 15.2227 12.9266 15.1299 12.5801C15.037 12.2336 14.7664 11.963 14.4199 11.8701C14.0734 11.7773 13.7036 11.8763 13.45 12.13L11.7 13.88C11.3111 14.2611 10.6888 14.2611 10.3 13.88L4.40998 8H9.99998C10.5523 8 11 7.55228 11 7C11 6.44772 10.5523 6 9.99998 6H3.99998C2.34313 6 0.999985 7.34315 0.999985 9V19C0.999985 20.6569 2.34313 22 3.99998 22H18C19.6568 22 21 20.6569 21 19V15C21 14.4477 20.5523 14 20 14ZM20 8C19.5752 8.00139 19.1619 8.13799 18.82 8.39L17.07 7.59L19 6.71C19.3019 6.89326 19.6469 6.99332 20 7C21.1046 7 22 6.10457 22 5C22 3.89543 21.1046 3 20 3C18.8954 3 18 3.89543 18 5L16.1 5.87C15.7779 5.64065 15.3952 5.5119 15 5.5C13.8954 5.5 13 6.39543 13 7.5C13 8.60457 13.8954 9.5 15 9.5C15.3221 9.50015 15.6389 9.4175 15.92 9.26L18.02 10.26C18.1592 11.3221 19.1105 12.0859 20.1776 11.9924C21.2447 11.8988 22.0486 10.9812 22.001 9.91109C21.9534 8.84098 21.0711 7.99838 20 8Z" fill="#171E2B"/>
</svg>
