<svg width="24" height="24" viewBox="0 0 24 24" fill="none" xmlns="http://www.w3.org/2000/svg">
<path fill-rule="evenodd" clip-rule="evenodd" d="M20.5 7.44001V6.26001C20.5 4.60316 19.1569 3.26001 17.5 3.26001C15.8432 3.26001 14.5 4.60316 14.5 6.26001V7.44001C13.3043 7.86276 12.5036 8.99175 12.5 10.26V12.26C12.5 13.9169 13.8432 15.26 15.5 15.26H19.5C21.1569 15.26 22.5 13.9169 22.5 12.26V10.26C22.4964 8.99175 21.6957 7.86276 20.5 7.44001ZM16.5 6.26007C16.5 5.70779 16.9477 5.26007 17.5 5.26007C18.0523 5.26007 18.5 5.70779 18.5 6.26007V7.26007H16.5V6.26007ZM20.5 12.26C20.5 12.8123 20.0523 13.26 19.5 13.26H15.5C14.9477 13.26 14.5 12.8123 14.5 12.26V10.26C14.5 9.70773 14.9477 9.26001 15.5 9.26001H19.5C20.0523 9.26001 20.5 9.70773 20.5 10.26V12.26ZM20.5 17.26C19.9477 17.26 19.5 17.7077 19.5 18.26V19.26C19.5 19.8123 19.0523 20.26 18.5 20.26H4.5C3.94772 20.26 3.5 19.8123 3.5 19.26V9.67001L9.38 15.55C9.63187 15.8037 9.99994 15.9037 10.3455 15.8124C10.6912 15.7211 10.9618 15.4523 11.0555 15.1074C11.1493 14.7624 11.0519 14.3937 10.8 14.14L4.91 8.26001H10.5C11.0523 8.26001 11.5 7.81229 11.5 7.26001C11.5 6.70772 11.0523 6.26001 10.5 6.26001H4.5C2.84315 6.26001 1.5 7.60316 1.5 9.26001V19.26C1.5 20.9169 2.84315 22.26 4.5 22.26H18.5C20.1569 22.26 21.5 20.9169 21.5 19.26V18.26C21.5 17.7077 21.0523 17.26 20.5 17.26Z" fill="#171E2B"/>
</svg>
