<svg width="24" height="24" viewBox="0 0 24 24" fill="none" xmlns="http://www.w3.org/2000/svg">
<path fill-rule="evenodd" clip-rule="evenodd" d="M20.5 13C19.9477 13 19.5 13.4477 19.5 14V18C19.5 18.5522 19.0523 19 18.5 19H4.5C3.94772 19 3.5 18.5522 3.5 18V8.40995L9.38 14.3C9.94124 14.8566 10.6995 15.1693 11.49 15.17C12.2987 15.172 13.0739 14.8475 13.64 14.27L14.53 13.39C14.8128 12.9911 14.7658 12.4463 14.4188 12.1019C14.0719 11.7574 13.5268 11.7143 13.13 12L12.2 12.91C11.8112 13.2911 11.1888 13.2911 10.8 12.91L4.91 6.99995H9.5C10.0523 6.99995 10.5 6.55224 10.5 5.99995C10.5 5.44767 10.0523 4.99995 9.5 4.99995H4.5C2.84315 4.99995 1.5 6.3431 1.5 7.99995V18C1.5 19.6568 2.84315 21 4.5 21H18.5C20.1569 21 21.5 19.6568 21.5 18V14C21.5 13.4477 21.0523 13 20.5 13ZM21.55 3.99989C20.5105 2.99774 18.9436 2.77967 17.67 3.45989C16.2559 2.68216 14.4853 3.05995 13.5117 4.34713C12.5382 5.63431 12.6567 7.4409 13.79 8.58989L17 11.7099C17.1916 11.8926 17.4452 11.9962 17.71 11.9999C17.9758 12.0014 18.2313 11.8971 18.42 11.7099L21.59 8.53989C22.8059 7.26445 22.7881 5.25371 21.55 3.99989ZM20.14 7.11991L17.67 9.58991L15.21 7.11991C14.8956 6.80016 14.7757 6.33697 14.8954 5.90482C15.0151 5.47267 15.3563 5.13722 15.7904 5.02482C16.2245 4.91243 16.6856 5.04016 17 5.35991C17.1878 5.54923 17.4434 5.65571 17.71 5.65571C17.9766 5.65571 18.2322 5.54923 18.42 5.35991C18.9136 4.8926 19.6864 4.8926 20.18 5.35991C20.6467 5.86015 20.6289 6.64139 20.14 7.11991Z" fill="#171E2B"/>
</svg>
