<svg width="24" height="24" viewBox="0 0 24 24" fill="none" xmlns="http://www.w3.org/2000/svg">
<path fill-rule="evenodd" clip-rule="evenodd" d="M17.5 13.2599C19.8884 13.2796 21.9572 11.6072 22.4386 9.26776C22.92 6.92829 21.6795 4.57502 19.4774 3.65012C17.2752 2.72522 14.7264 3.48699 13.393 5.4686C12.0595 7.4502 12.3138 10.0982 14 11.7899C14.9281 12.7209 16.1854 13.249 17.5 13.2599ZM19.62 10.3799C18.7222 11.2706 17.3623 11.5026 16.22 10.9599L20.22 6.95994C20.7671 8.11162 20.5264 9.48327 19.62 10.3799ZM15.38 6.13988C15.9421 5.57711 16.7046 5.26058 17.5 5.25988C17.9436 5.26401 18.3808 5.36647 18.78 5.55988L14.78 9.55988C14.2329 8.40821 14.4736 7.03655 15.38 6.13988ZM20.5 14.2598C19.9477 14.2598 19.5 14.7075 19.5 15.2598V19.2598C19.5 19.8121 19.0523 20.2598 18.5 20.2598H4.5C3.94772 20.2598 3.5 19.8121 3.5 19.2598V9.66982L9.38 15.5498C9.93962 16.1101 10.6981 16.4265 11.49 16.4298C12.3036 16.4319 13.0832 16.1035 13.65 15.5198C14.0247 15.1322 14.0247 14.5174 13.65 14.1298C13.4619 13.9374 13.2041 13.8289 12.935 13.8289C12.6659 13.8289 12.4081 13.9374 12.22 14.1298C11.8312 14.511 11.2088 14.511 10.82 14.1298L4.91 8.25982H9.5C10.0523 8.25982 10.5 7.8121 10.5 7.25982C10.5 6.70753 10.0523 6.25982 9.5 6.25982H4.5C2.84315 6.25982 1.5 7.60296 1.5 9.25982V19.2598C1.5 20.9167 2.84315 22.2598 4.5 22.2598H18.5C20.1569 22.2598 21.5 20.9167 21.5 19.2598V15.2598C21.5 14.7075 21.0523 14.2598 20.5 14.2598Z" fill="#171E2B"/>
</svg>
