<svg width="24" height="24" viewBox="0 0 24 24" fill="none" xmlns="http://www.w3.org/2000/svg">
<path fill-rule="evenodd" clip-rule="evenodd" d="M20.21 8.82003L14 2.78003C12.9075 1.74129 11.1925 1.74129 10.1 2.78003L3.89 8.78003C3.33193 9.26719 3.00817 9.96928 3 10.71V19.29C3.02195 20.8049 4.26504 22.0167 5.78 22H18.22C19.735 22.0167 20.9781 20.8049 21 19.29V10.71C20.9984 10 20.7141 9.31993 20.21 8.82003ZM11.44 4.21998C11.7571 3.93014 12.2429 3.93014 12.56 4.21998L18 9.49998L12.53 14.78C12.2129 15.0698 11.7271 15.0698 11.41 14.78L6 9.49998L11.44 4.21998ZM19 19.29C18.9733 19.698 18.6286 20.0117 18.22 20H5.77999C5.37135 20.0117 5.02672 19.698 4.99999 19.29V11.35L9.04999 15.25L7.38999 16.85C7.00227 17.2401 7.00227 17.87 7.38999 18.26C7.5778 18.4571 7.8378 18.569 8.10999 18.57C8.36746 18.569 8.61462 18.4687 8.79999 18.29L10.57 16.59C11.4663 17.1377 12.5937 17.1377 13.49 16.59L15.26 18.29C15.4454 18.4687 15.6925 18.569 15.95 18.57C16.2222 18.569 16.4822 18.4571 16.67 18.26C17.0577 17.87 17.0577 17.2401 16.67 16.85L15 15.25L19 11.35V19.29Z" fill="#171E2B"/>
</svg>
