<svg width="24" height="24" viewBox="0 0 24 24" fill="none" xmlns="http://www.w3.org/2000/svg">
<path fill-rule="evenodd" clip-rule="evenodd" d="M21 13.5C20.4477 13.5 20 13.9477 20 14.5V18.5C20 19.0523 19.5523 19.5 19 19.5H5.00002C4.44773 19.5 4.00002 19.0523 4.00002 18.5V8.91L9.88001 14.79C11.0513 15.9598 12.9487 15.9598 14.12 14.79L17.71 11.21C18.1021 10.8179 18.1021 10.1821 17.71 9.79C17.3179 9.39788 16.6821 9.39788 16.29 9.79L12.71 13.38C12.5222 13.5693 12.2667 13.6758 12 13.6758C11.7334 13.6758 11.4778 13.5693 11.29 13.38L5.41002 7.5H17C17.5523 7.5 18 7.05228 18 6.5C18 5.94772 17.5523 5.5 17 5.5H5.00002C3.34316 5.5 2.00002 6.84315 2.00002 8.5V18.5C2.00002 20.1569 3.34316 21.5 5.00002 21.5H19C20.6569 21.5 22 20.1569 22 18.5V14.5C22 13.9477 21.5523 13.5 21 13.5ZM21 2.5C20.4477 2.5 20 2.94772 20 3.5V7.5C20 8.05229 20.4477 8.5 21 8.5C21.5523 8.5 22 8.05229 22 7.5V3.5C22 2.94772 21.5523 2.5 21 2.5ZM20.8 9.49993C20.7374 9.51088 20.6767 9.5311 20.62 9.55993C20.5563 9.58182 20.4958 9.61209 20.44 9.64993L20.29 9.76993C20.1073 9.96157 20.0037 10.2152 20 10.4799C19.9951 10.5432 19.9951 10.6067 20 10.6699C20.0093 10.7362 20.0296 10.8004 20.06 10.8599C20.0819 10.9237 20.1122 10.9842 20.15 11.0399C20.1869 11.0923 20.227 11.1424 20.27 11.1899C20.4578 11.3792 20.7134 11.4857 20.98 11.4857C21.2467 11.4857 21.5023 11.3792 21.69 11.1899L21.81 11.0399C21.8479 10.9842 21.8781 10.9237 21.9 10.8599C21.9305 10.8004 21.9507 10.7362 21.96 10.6699C21.9649 10.6067 21.9649 10.5432 21.96 10.4799C21.9662 10.1761 21.8338 9.886 21.6004 9.69147C21.367 9.49693 21.0577 9.4191 20.76 9.47993L20.8 9.49993Z" fill="#171E2B"/>
</svg>
