<svg width="24" height="24" viewBox="0 0 24 24" fill="none" xmlns="http://www.w3.org/2000/svg">
<path fill-rule="evenodd" clip-rule="evenodd" d="M8.29 6.20996L10.29 8.20996C10.4778 8.39928 10.7334 8.50576 11 8.50576C11.2666 8.50576 11.5222 8.39928 11.71 8.20996C11.8993 8.0222 12.0058 7.7666 12.0058 7.49996C12.0058 7.23333 11.8993 6.97773 11.71 6.78996L11.41 6.49996H15C15.5523 6.49996 16 6.05225 16 5.49996C16 4.94768 15.5523 4.49996 15 4.49996H11.41L11.71 4.20996C11.9637 3.95631 12.0627 3.58659 11.9699 3.24009C11.877 2.89358 11.6064 2.62293 11.2599 2.53009C10.9134 2.43724 10.5437 2.53631 10.29 2.78996L8.29 4.78996C8.19896 4.88507 8.1276 4.99721 8.08 5.11996C7.97998 5.36342 7.97998 5.6365 8.08 5.87996C8.1276 6.00271 8.19896 6.11486 8.29 6.20996ZM16 10.4999H8C6.34315 10.4999 5 11.843 5 13.4999V18.4999C5 20.1567 6.34315 21.4999 8 21.4999H16C17.6569 21.4999 19 20.1567 19 18.4999V13.4999C19 11.843 17.6569 10.4999 16 10.4999ZM15.58 12.4999L12.7 15.3799C12.3112 15.7611 11.6888 15.7611 11.3 15.3799L8.42 12.4999H15.58ZM17 18.4999C17 19.0522 16.5523 19.4999 16 19.4999H8C7.44771 19.4999 7 19.0522 7 18.4999V13.9099L9.88 16.7799C10.4366 17.3521 11.2018 17.6734 12 17.6699C12.7954 17.6692 13.5579 17.3527 14.12 16.7899L17 13.9099V18.4999Z" fill="#171E2B"/>
</svg>
