<svg width="24" height="24" viewBox="0 0 24 24" fill="none" xmlns="http://www.w3.org/2000/svg">
<path fill-rule="evenodd" clip-rule="evenodd" d="M20.5 13.9999C19.9477 13.9999 19.5 14.4476 19.5 14.9999V18.9999C19.5 19.5522 19.0523 19.9999 18.5 19.9999H4.5C3.94772 19.9999 3.5 19.5522 3.5 18.9999V9.40991L9.38 15.2999C10.5513 16.4697 12.4487 16.4697 13.62 15.2999L15.26 13.6599C15.6521 13.2678 15.6521 12.632 15.26 12.2399C14.8679 11.8478 14.2321 11.8478 13.84 12.2399L12.2 13.8799C11.8112 14.2611 11.1888 14.2611 10.8 13.8799L4.91 7.99991H11.5C12.0523 7.99991 12.5 7.55219 12.5 6.99991C12.5 6.44762 12.0523 5.99991 11.5 5.99991H4.5C2.84315 5.99991 1.5 7.34305 1.5 8.99991V18.9999C1.5 20.6568 2.84315 21.9999 4.5 21.9999H18.5C20.1569 21.9999 21.5 20.6568 21.5 18.9999V14.9999C21.5 14.4476 21.0523 13.9999 20.5 13.9999ZM22.21 5.2899L19.21 2.2899C19.1149 2.19886 19.0027 2.12749 18.88 2.0799C18.6365 1.97988 18.3635 1.97988 18.12 2.0799C17.9972 2.12749 17.8851 2.19886 17.79 2.2899L14.79 5.2899C14.3979 5.68202 14.3979 6.31777 14.79 6.70989C15.1821 7.10202 15.8179 7.10202 16.21 6.70989L17.5 5.4099V10.9999C17.5 11.5522 17.9477 11.9999 18.5 11.9999C19.0523 11.9999 19.5 11.5522 19.5 10.9999V5.4099L20.79 6.70989C20.9778 6.89921 21.2334 7.00569 21.5 7.00569C21.7666 7.00569 22.0222 6.89921 22.21 6.70989C22.3993 6.52213 22.5058 6.26653 22.5058 5.99989C22.5058 5.73326 22.3993 5.47766 22.21 5.2899Z" fill="#171E2B"/>
</svg>
