<svg width="24" height="24" viewBox="0 0 24 24" fill="none" xmlns="http://www.w3.org/2000/svg">
<path fill-rule="evenodd" clip-rule="evenodd" d="M16.77 5.3699C17.248 5.64129 17.8554 5.47603 18.13 4.9999C18.3093 4.68926 18.6413 4.49847 19 4.4999C19.5523 4.4999 20 4.94761 20 5.4999C20 6.05218 19.5523 6.4999 19 6.4999C18.4477 6.4999 18 6.94761 18 7.4999C18 8.05218 18.4477 8.4999 19 8.4999C20.4556 8.49896 21.7006 7.45321 21.9527 6.01958C22.2049 4.58595 21.3915 3.17817 20.0235 2.6806C18.6556 2.18303 17.1278 2.73928 16.4 3.9999C16.2665 4.23042 16.2304 4.5047 16.2999 4.7619C16.3693 5.0191 16.5386 5.23795 16.77 5.3699ZM21 13.4998C20.4477 13.4998 20 13.9475 20 14.4998V18.4998C20 19.0521 19.5523 19.4998 19 19.4998H5C4.44772 19.4998 4 19.0521 4 18.4998V8.90982L9.88 14.7998C11.0513 15.9696 12.9487 15.9696 14.12 14.7998L15.76 13.1598C16.0137 12.9062 16.1127 12.5364 16.0199 12.1899C15.927 11.8434 15.6564 11.5728 15.3099 11.4799C14.9634 11.3871 14.5937 11.4862 14.34 11.7398L12.7 13.3798C12.3112 13.761 11.6888 13.761 11.3 13.3798L5.41 7.49982H13C13.5523 7.49982 14 7.0521 14 6.49982C14 5.94753 13.5523 5.49982 13 5.49982H5C3.34315 5.49982 2 6.84296 2 8.49982V18.4998C2 20.1567 3.34315 21.4998 5 21.4998H19C20.6569 21.4998 22 20.1567 22 18.4998V14.4998C22 13.9475 21.5523 13.4998 21 13.4998ZM18.29 9.78994C18.1007 9.9777 17.9942 10.2333 17.9942 10.4999C17.9942 10.7666 18.1007 11.0222 18.29 11.2099L18.44 11.3299C18.4957 11.3678 18.5563 11.3981 18.62 11.4199C18.6767 11.4488 18.7374 11.469 18.8 11.4799H19C19.4063 11.4823 19.7736 11.2386 19.9294 10.8634C20.0852 10.4882 19.9985 10.056 19.71 9.76994C19.5196 9.58324 19.2625 9.48034 18.9958 9.4841C18.7292 9.48785 18.4751 9.59795 18.29 9.78994Z" fill="#171E2B"/>
</svg>
