<svg width="24" height="24" viewBox="0 0 24 24" fill="none" xmlns="http://www.w3.org/2000/svg">
<path fill-rule="evenodd" clip-rule="evenodd" d="M20.5 13.9999C19.9477 13.9999 19.5 14.4477 19.5 14.9999V18.9999C19.5 19.5522 19.0523 19.9999 18.5 19.9999H4.5C3.94772 19.9999 3.5 19.5522 3.5 18.9999V9.40994L9.38 15.2999C10.5513 16.4698 12.4487 16.4698 13.62 15.2999L15.26 13.6599C15.6521 13.2678 15.6521 12.6321 15.26 12.2399C14.8679 11.8478 14.2321 11.8478 13.84 12.2399L12.2 13.8799C11.8112 14.2611 11.1888 14.2611 10.8 13.8799L4.91 7.99994H11.5C12.0523 7.99994 12.5 7.55222 12.5 6.99994C12.5 6.44765 12.0523 5.99994 11.5 5.99994H4.5C2.84315 5.99994 1.5 7.34308 1.5 8.99994V18.9999C1.5 20.6568 2.84315 21.9999 4.5 21.9999H18.5C20.1569 21.9999 21.5 20.6568 21.5 18.9999V14.9999C21.5 14.4477 21.0523 13.9999 20.5 13.9999ZM22.21 7.29C22.0222 7.10069 21.7666 6.9942 21.5 6.9942C21.2334 6.9942 20.9778 7.10069 20.79 7.29L19.5 8.59V3C19.5 2.44772 19.0523 2 18.5 2C17.9477 2 17.5 2.44772 17.5 3V8.59L16.21 7.29C15.9563 7.03634 15.5866 6.93728 15.2401 7.03012C14.8936 7.12297 14.623 7.39362 14.5301 7.74012C14.4373 8.08663 14.5363 8.45634 14.79 8.71L17.79 11.71C17.8851 11.801 17.9973 11.8724 18.12 11.92C18.362 12.027 18.638 12.027 18.88 11.92C19.0028 11.8724 19.1149 11.801 19.21 11.71L22.21 8.71C22.3993 8.52223 22.5058 8.26664 22.5058 8C22.5058 7.73336 22.3993 7.47777 22.21 7.29Z" fill="#171E2B"/>
</svg>
