<svg width="24" height="24" viewBox="0 0 24 24" fill="none" xmlns="http://www.w3.org/2000/svg">
<path fill-rule="evenodd" clip-rule="evenodd" d="M20.5 14.26C19.9477 14.26 19.5 14.7077 19.5 15.26V19.26C19.5 19.8123 19.0523 20.26 18.5 20.26H4.5C3.94772 20.26 3.5 19.8123 3.5 19.26V9.67001L9.38 15.55C9.93962 16.1103 10.6981 16.4267 11.49 16.43C12.3036 16.4321 13.0832 16.1037 13.65 15.52C14.0247 15.1324 14.0247 14.5176 13.65 14.13C13.4619 13.9376 13.2041 13.8291 12.935 13.8291C12.6659 13.8291 12.4081 13.9376 12.22 14.13C11.8312 14.5112 11.2088 14.5112 10.82 14.13L4.91 8.26001H9.5C10.0523 8.26001 10.5 7.8123 10.5 7.26001C10.5 6.70773 10.0523 6.26001 9.5 6.26001H4.5C2.84315 6.26001 1.5 7.60316 1.5 9.26001V19.26C1.5 20.9169 2.84315 22.26 4.5 22.26H18.5C20.1569 22.26 21.5 20.9169 21.5 19.26V15.26C21.5 14.7077 21.0523 14.26 20.5 14.26ZM21.5 3.26001C20.9477 3.26001 20.5 3.70773 20.5 4.26001C18.7596 2.95473 16.375 2.92456 14.6022 4.18539C12.8293 5.44621 12.0752 7.70865 12.737 9.78101C13.3987 11.8534 15.3245 13.26 17.5 13.26C18.7167 13.2555 19.8899 12.8075 20.8 12C21.217 11.6355 21.2595 11.002 20.895 10.585C20.5305 10.168 19.897 10.1255 19.48 10.49C18.2409 11.5886 16.346 11.4755 15.2465 10.2372C14.1469 8.99898 14.2587 7.10399 15.4961 6.00353C16.7336 4.90306 18.6286 5.01339 19.73 6.25001H18.5C17.9477 6.25001 17.5 6.69773 17.5 7.25001C17.5 7.8023 17.9477 8.25001 18.5 8.25001H21.5C22.0523 8.25001 22.5 7.8023 22.5 7.25001V4.25001C22.4945 3.70164 22.0484 3.25998 21.5 3.26001Z" fill="#171E2B"/>
</svg>
