<svg width="24" height="24" viewBox="0 0 24 24" fill="none" xmlns="http://www.w3.org/2000/svg">
<path fill-rule="evenodd" clip-rule="evenodd" d="M16 10.5H8.00002C6.34316 10.5 5.00002 11.8431 5.00002 13.5V18.5C5.00002 20.1568 6.34316 21.5 8.00002 21.5H16C17.6569 21.5 19 20.1568 19 18.5V13.5C19 11.8431 17.6569 10.5 16 10.5ZM15.58 12.4998L12.7 15.3798C12.3112 15.761 11.6889 15.761 11.3 15.3798L8.42001 12.4998H15.58ZM17 18.4998C17 19.0521 16.5523 19.4998 16 19.4998H8.00003C7.44775 19.4998 7.00003 19.0521 7.00003 18.4998V13.9098L9.88003 16.7798C10.4366 17.352 11.2018 17.6733 12 17.6698C12.7954 17.6691 13.558 17.3526 14.12 16.7898L17 13.9098V18.4998ZM9.00001 6.49994H12.59L12.29 6.78994C12.1007 6.97771 11.9942 7.2333 11.9942 7.49994C11.9942 7.76658 12.1007 8.02218 12.29 8.20994C12.4778 8.39926 12.7334 8.50574 13 8.50574C13.2667 8.50574 13.5222 8.39926 13.71 8.20994L15.71 6.20994C15.8011 6.11484 15.8724 6.00269 15.92 5.87994C16.02 5.63648 16.02 5.3634 15.92 5.11994C15.8724 4.99719 15.8011 4.88505 15.71 4.78994L13.71 2.78994C13.3179 2.39782 12.6821 2.39782 12.29 2.78994C11.8979 3.18206 11.8979 3.81782 12.29 4.20994L12.59 4.49994H9.00001C8.44773 4.49994 8.00002 4.94766 8.00002 5.49994C8.00002 6.05223 8.44773 6.49994 9.00001 6.49994Z" fill="#171E2B"/>
</svg>
