<svg width="24" height="24" viewBox="0 0 24 24" fill="none" xmlns="http://www.w3.org/2000/svg">
<path fill-rule="evenodd" clip-rule="evenodd" d="M13.64 9.73994L13.35 11.4699C13.2518 12.0628 13.5051 12.6591 14 12.9999C14.4633 13.3375 15.0814 13.3727 15.58 13.0899L17 12.2799L18.44 13.0699C18.9299 13.35 19.5372 13.3228 20 12.9999C20.4802 12.6575 20.7244 12.0721 20.63 11.4899L20.34 9.75994L21.54 8.53994C21.9437 8.12964 22.0849 7.52845 21.906 6.98134C21.7272 6.43424 21.2581 6.03255 20.69 5.93994L19.07 5.69994L18.34 4.14994C18.0939 3.62099 17.5634 3.28271 16.98 3.28271C16.3966 3.28271 15.8661 3.62099 15.62 4.14994L14.89 5.69994L13.27 5.93994C12.7019 6.03255 12.2329 6.43424 12.054 6.98134C11.8752 7.52845 12.0163 8.12964 12.42 8.53994L13.64 9.73994ZM15.47 7.60992C15.968 7.53444 16.3956 7.21565 16.61 6.75992L17 5.92992L17.39 6.75992C17.6075 7.21498 18.0327 7.5358 18.53 7.61992L19.53 7.75992L18.8 8.49992C18.4569 8.85559 18.3013 9.35204 18.38 9.83992L18.54 10.8399L17.75 10.4099C17.3024 10.1607 16.7577 10.1607 16.31 10.4099L15.52 10.8399L15.68 9.83992C15.7603 9.35496 15.6043 8.86081 15.26 8.50992L14.53 7.75992L15.47 7.60992ZM21 15.2599C20.4477 15.2599 20 15.7076 20 16.2599V19.2599C20 19.8122 19.5523 20.2599 19 20.2599H5C4.44772 20.2599 4 19.8122 4 19.2599V9.66992L9.88 15.5499C10.4334 16.1134 11.1902 16.4306 11.98 16.4299H12.25C12.7991 16.3822 13.2062 15.8992 13.16 15.3499C13.1372 15.0843 13.0092 14.8387 12.8045 14.6679C12.5999 14.497 12.3354 14.4149 12.07 14.4399C11.784 14.4692 11.5003 14.3661 11.3 14.1599L5.41 8.25992H9C9.55228 8.25992 10 7.8122 10 7.25992C10 6.70763 9.55228 6.25992 9 6.25992H5C3.34315 6.25992 2 7.60306 2 9.25992V19.2599C2 20.9168 3.34315 22.2599 5 22.2599H19C20.6569 22.2599 22 20.9168 22 19.2599V16.2599C22 15.7076 21.5523 15.2599 21 15.2599Z" fill="#171E2B"/>
</svg>
