<svg width="24" height="24" viewBox="0 0 24 24" fill="none" xmlns="http://www.w3.org/2000/svg">
<path fill-rule="evenodd" clip-rule="evenodd" d="M21.63 5.11993C21.3947 4.92958 21.0859 4.85605 20.79 4.91993C20.0246 5.08826 19.2238 4.92082 18.59 4.45993C18.2386 4.20314 17.7614 4.20314 17.41 4.45993C16.7762 4.92082 15.9754 5.08826 15.21 4.91993C14.9143 4.85641 14.6057 4.93016 14.3706 5.12054C14.1356 5.31091 13.9993 5.59745 14 5.89993V9.20993C13.9969 10.6641 14.6786 12.0349 15.84 12.9099L17.41 14.0699C17.7614 14.3267 18.2386 14.3267 18.59 14.0699L20.16 12.9099C21.3215 12.0349 22.0032 10.6641 22 9.20993V5.89993C22.001 5.59734 21.865 5.31056 21.63 5.11993ZM20 9.2099C20.0111 10.0244 19.6412 10.7975 19 11.2999L18 11.9999L17 11.2799C16.3588 10.7775 15.9889 10.0044 16 9.1899V6.9999C16.6987 6.9719 17.3822 6.78736 18 6.4599C18.6178 6.78736 19.3013 6.9719 20 6.9999V9.2099ZM21 15.2099C20.4477 15.2099 20 15.6576 20 16.2099V19.2099C20 19.7622 19.5523 20.2099 19 20.2099H5C4.44772 20.2099 4 19.7622 4 19.2099V9.66993L9.88 15.5499C10.4396 16.1103 11.1981 16.4266 11.99 16.4299C12.7987 16.432 13.5739 16.1074 14.14 15.5299L13.44 14.8199L12.7 14.1399C12.3112 14.5211 11.6888 14.5211 11.3 14.1399L5.41 8.25993H11C11.5523 8.25993 12 7.81221 12 7.25993C12 6.70764 11.5523 6.25993 11 6.25993H5C3.34315 6.25993 2 7.60307 2 9.25993V19.2599C2 20.9168 3.34315 22.2599 5 22.2599H19C20.6569 22.2599 22 20.9168 22 19.2599V16.2599C22 15.7076 21.5523 15.2599 21 15.2599V15.2099Z" fill="#171E2B"/>
</svg>
