<svg width="24" height="24" viewBox="0 0 24 24" fill="none" xmlns="http://www.w3.org/2000/svg">
<path fill-rule="evenodd" clip-rule="evenodd" d="M19 4H5.00002C3.34316 4 2.00002 5.34315 2.00002 7V17C2.00002 18.6569 3.34316 20 5.00002 20H19C20.6569 20 22 18.6569 22 17V7C22 5.34315 20.6569 4 19 4ZM18.59 6.00006L12.71 11.8801C12.5223 12.0694 12.2667 12.1759 12 12.1759C11.7334 12.1759 11.4778 12.0694 11.29 11.8801L5.41003 6.00006H18.59ZM20 17.0001C20 17.5523 19.5523 18.0001 19 18.0001H5.00003C4.44775 18.0001 4.00003 17.5523 4.00003 17.0001V7.41006L9.88003 13.2901C11.0513 14.4599 12.9488 14.4599 14.12 13.2901L20 7.41006V17.0001Z" fill="#171E2B"/>
</svg>
