<svg width="24" height="24" viewBox="0 0 24 24" fill="none" xmlns="http://www.w3.org/2000/svg">
<path fill-rule="evenodd" clip-rule="evenodd" d="M21 8C20.4477 8 20 8.44772 20 9V17C20 17.5523 19.5523 18 19 18H5C4.44772 18 4 17.5523 4 17V7.41L9.88 13.29C11.0513 14.4598 12.9487 14.4598 14.12 13.29L17.71 9.71C18.1021 9.31788 18.1021 8.68212 17.71 8.29C17.3179 7.89788 16.6821 7.89788 16.29 8.29L12.71 11.88C12.5222 12.0693 12.2666 12.1758 12 12.1758C11.7334 12.1758 11.4778 12.0693 11.29 11.88L5.41 6H13C13.5523 6 14 5.55228 14 5C14 4.44772 13.5523 4 13 4H5C3.34315 4 2 5.34315 2 7V17C2 18.6569 3.34315 20 5 20H19C20.6569 20 22 18.6569 22 17V9C22 8.44772 21.5523 8 21 8ZM17 6H21C21.5523 6 22 5.55229 22 5C22 4.44772 21.5523 4 21 4H17C16.4477 4 16 4.44772 16 5C16 5.55229 16.4477 6 17 6Z" fill="#171E2B"/>
</svg>
