<svg width="24" height="24" viewBox="0 0 24 24" fill="none" xmlns="http://www.w3.org/2000/svg">
<path fill-rule="evenodd" clip-rule="evenodd" d="M21 15.26C20.4477 15.26 20 15.7077 20 16.26V19.26C20 19.8123 19.5523 20.26 19 20.26H5C4.44772 20.26 4 19.8123 4 19.26V9.67001L9.88 15.56C10.4388 16.1142 11.193 16.4267 11.98 16.43C12.4792 16.4309 12.9707 16.3071 13.41 16.07C13.6439 15.9432 13.8176 15.7284 13.8926 15.4731C13.9677 15.2179 13.938 14.9433 13.81 14.71C13.6832 14.4761 13.4684 14.3025 13.2131 14.2274C12.9579 14.1523 12.6833 14.1821 12.45 14.31C12.0697 14.5049 11.6076 14.4366 11.3 14.14L5.41 8.26001H12C12.5523 8.26001 13 7.81229 13 7.26001C13 6.70772 12.5523 6.26001 12 6.26001H5C3.34315 6.26001 2 7.60316 2 9.26001V19.26C2 20.9169 3.34315 22.26 5 22.26H19C20.6569 22.26 22 20.9169 22 19.26V16.26C22 15.7077 21.5523 15.26 21 15.26ZM21 3.26001H16C15.4477 3.26001 15 3.70773 15 4.26001V12.26C15.0006 12.6318 15.2075 12.9726 15.5371 13.1448C15.8666 13.3169 16.2645 13.292 16.57 13.08L18.5 11.79L20.41 13.07C20.5833 13.1907 20.7888 13.2569 21 13.26C21.1415 13.2594 21.2812 13.2287 21.41 13.17C21.7684 13.0089 21.9992 12.6529 22 12.26V4.26001C22 3.70773 21.5523 3.26001 21 3.26001ZM20 10.3801L19.06 9.75007C18.7217 9.5214 18.2783 9.5214 17.94 9.75007L17 10.3801V5.26007H20V10.3801Z" fill="#171E2B"/>
</svg>
