<svg width="24" height="24" viewBox="0 0 24 24" fill="none" xmlns="http://www.w3.org/2000/svg">
<path fill-rule="evenodd" clip-rule="evenodd" d="M17 21.6299H5C3.34315 21.6299 2 20.2867 2 18.6299V10.6299C2 10.0776 1.55228 9.62988 1 9.62988C0.447715 9.62988 0 10.0776 0 10.6299V18.6299C0 21.3913 2.23858 23.6299 5 23.6299H17C17.5523 23.6299 18 23.1822 18 22.6299C18 22.0776 17.5523 21.6299 17 21.6299ZM21 3.62988H7C5.34315 3.62988 4 4.97303 4 6.62988V16.6299C4 18.2867 5.34315 19.6299 7 19.6299H21C22.6569 19.6299 24 18.2867 24 16.6299V6.62988C24 4.97303 22.6569 3.62988 21 3.62988ZM20.59 5.62985L14.71 11.5098C14.5222 11.6992 14.2666 11.8056 14 11.8056C13.7334 11.8056 13.4778 11.6992 13.29 11.5098L7.41 5.62985H20.59ZM22 16.6299C22 17.1822 21.5523 17.6299 21 17.6299H7C6.44772 17.6299 6 17.1822 6 16.6299V6.99991L11.88 12.8799C13.0513 14.0497 14.9487 14.0497 16.12 12.8799L22 6.99991V16.6299Z" fill="#171E2B"/>
</svg>
