<svg width="24" height="24" viewBox="0 0 24 24" fill="none" xmlns="http://www.w3.org/2000/svg">
<path fill-rule="evenodd" clip-rule="evenodd" d="M16.29 8.70994C16.4778 8.89925 16.7334 9.00574 17 9.00574C17.2666 9.00574 17.5222 8.89925 17.71 8.70994L21.71 4.70994C22.1021 4.31782 22.1021 3.68206 21.71 3.28994C21.3179 2.89782 20.6821 2.89782 20.29 3.28994L17 6.58994L15.71 5.28994C15.4563 5.03628 15.0866 4.93722 14.7401 5.03006C14.3936 5.12291 14.123 5.39356 14.0301 5.74006C13.9373 6.08657 14.0363 6.45628 14.29 6.70994L16.29 8.70994ZM21 7.99997C20.4477 7.99997 20 8.44769 20 8.99997V18C20 18.5523 19.5523 19 19 19H5C4.44772 19 4 18.5523 4 18V8.40997L9.88 14.3C10.4412 14.8566 11.1995 15.1693 11.99 15.17C12.8004 15.1658 13.5764 14.8424 14.15 14.27L15.87 12.55C16.2621 12.1579 16.2621 11.5221 15.87 11.13C15.4779 10.7378 14.8421 10.7378 14.45 11.13L12.7 12.88C12.3112 13.2611 11.6888 13.2611 11.3 12.88L5.41 6.99997H11C11.5523 6.99997 12 6.55226 12 5.99997C12 5.44769 11.5523 4.99997 11 4.99997H5C3.34315 4.99997 2 6.34312 2 7.99997V18C2 19.6568 3.34315 21 5 21H19C20.6569 21 22 19.6568 22 18V8.99997C22 8.44769 21.5523 7.99997 21 7.99997Z" fill="#171E2B"/>
</svg>
