<svg width="24" height="24" viewBox="0 0 24 24" fill="none" xmlns="http://www.w3.org/2000/svg">
<path fill-rule="evenodd" clip-rule="evenodd" d="M16 11.0801H8C6.34315 11.0801 5 12.4233 5 14.0801V19.0801C5 20.737 6.34315 22.0801 8 22.0801H16C17.6569 22.0801 19 20.737 19 19.0801V14.0801C19 12.4233 17.6569 11.0801 16 11.0801ZM15.58 13.0801L12.7 16.0001C12.3112 16.3812 11.6888 16.3812 11.3 16.0001L8.42 13.0801H15.58ZM17 19.0801C17 19.6324 16.5523 20.0801 16 20.0801H8C7.44771 20.0801 7 19.6324 7 19.0801V14.4901L9.88 17.3701C11.0513 18.5399 12.9487 18.5399 14.12 17.3701L17 14.4901V19.0801ZM10.71 5.62011L11 5.33011V8.08011C11 8.63239 11.4477 9.08011 12 9.08011C12.5523 9.08011 13 8.63239 13 8.08011V5.33011L13.29 5.62011C13.5419 5.87376 13.9099 5.97378 14.2555 5.88248C14.6012 5.79119 14.8718 5.52244 14.9655 5.17748C15.0593 4.83253 14.9619 4.46376 14.71 4.21011L12.71 2.21011C12.5222 2.02079 12.2666 1.91431 12 1.91431C11.7334 1.91431 11.4778 2.02079 11.29 2.21011L9.29 4.21011C8.90228 4.60014 8.90228 5.23007 9.29 5.62011C9.47777 5.80942 9.73337 5.9159 10 5.9159C10.2666 5.9159 10.5222 5.80942 10.71 5.62011Z" fill="#171E2B"/>
</svg>
