<svg width="24" height="24" viewBox="0 0 24 24" fill="none" xmlns="http://www.w3.org/2000/svg">
<path fill-rule="evenodd" clip-rule="evenodd" d="M21 13.4999C20.4477 13.4999 20 13.9476 20 14.4999V18.4999C20 19.0522 19.5523 19.4999 19 19.4999H5C4.44772 19.4999 4 19.0522 4 18.4999V8.90993L9.88 14.7899C11.0513 15.9597 12.9487 15.9597 14.12 14.7899L17.71 11.2099C18.1021 10.8178 18.1021 10.1821 17.71 9.78993C17.3179 9.39781 16.6821 9.39781 16.29 9.78993L12.71 13.3799C12.5222 13.5692 12.2666 13.6757 12 13.6757C11.7334 13.6757 11.4778 13.5692 11.29 13.3799L5.41 7.49993H17C17.5523 7.49993 18 7.05222 18 6.49993C18 5.94765 17.5523 5.49993 17 5.49993H5C3.34315 5.49993 2 6.84308 2 8.49993V18.4999C2 20.1568 3.34315 21.4999 5 21.4999H19C20.6569 21.4999 22 20.1568 22 18.4999V14.4999C22 13.9476 21.5523 13.4999 21 13.4999ZM21 4.49994C21.2648 4.49625 21.5184 4.39267 21.71 4.20994L21.83 4.04994C21.8696 3.99889 21.9 3.94137 21.92 3.87994C21.9558 3.82443 21.9828 3.76371 22 3.69994C22.0049 3.63336 22.0049 3.56651 22 3.49994C21.9963 3.23517 21.8927 2.98157 21.71 2.78994C21.5222 2.60063 21.2666 2.49414 21 2.49414C20.7334 2.49414 20.4778 2.60063 20.29 2.78994C20.1007 2.97771 19.9942 3.2333 19.9942 3.49994C19.9942 3.76658 20.1007 4.02217 20.29 4.20994C20.4816 4.39267 20.7352 4.49625 21 4.49994ZM21 5.49993C20.4477 5.49993 20 5.94765 20 6.49993V10.4999C20 11.0522 20.4477 11.4999 21 11.4999C21.5523 11.4999 22 11.0522 22 10.4999V6.49993C22 5.94765 21.5523 5.49993 21 5.49993Z" fill="#171E2B"/>
</svg>
