<svg width="24" height="24" viewBox="0 0 24 24" fill="none" xmlns="http://www.w3.org/2000/svg">
<path fill-rule="evenodd" clip-rule="evenodd" d="M17 7H18V8C18 8.55228 18.4477 9 19 9C19.5523 9 20 8.55228 20 8V7H21C21.5523 7 22 6.55228 22 6C22 5.44772 21.5523 5 21 5H20V4C20 3.44772 19.5523 3 19 3C18.4477 3 18 3.44772 18 4V5H17C16.4477 5 16 5.44772 16 6C16 6.55228 16.4477 7 17 7ZM21 11.0001C20.4477 11.0001 20 11.4478 20 12.0001V18.0001C20 18.5523 19.5523 19.0001 19 19.0001H5C4.44772 19.0001 4 18.5523 4 18.0001V8.41006L9.88 14.3001C11.0513 15.4699 12.9487 15.4699 14.12 14.3001L16.59 11.8301C16.9821 11.4379 16.9821 10.8022 16.59 10.4101C16.1979 10.0179 15.5621 10.0179 15.17 10.4101L12.7 12.8801C12.3112 13.2612 11.6888 13.2612 11.3 12.8801L5.41 7.00006H13C13.5523 7.00006 14 6.55235 14 6.00006C14 5.44778 13.5523 5.00006 13 5.00006H5C3.34315 5.00006 2 6.34321 2 8.00006V18.0001C2 19.6569 3.34315 21.0001 5 21.0001H19C20.6569 21.0001 22 19.6569 22 18.0001V12.0001C22 11.4478 21.5523 11.0001 21 11.0001Z" fill="#171E2B"/>
</svg>
