<svg width="24" height="24" viewBox="0 0 24 24" fill="none" xmlns="http://www.w3.org/2000/svg">
<path fill-rule="evenodd" clip-rule="evenodd" d="M14 11.5099H16.42C16.6858 11.5115 16.9413 11.4071 17.13 11.2199L21.71 6.63995C21.8993 6.45218 22.0058 6.19659 22.0058 5.92995C22.0058 5.66331 21.8993 5.40772 21.71 5.21995L19.29 2.79995C19.1022 2.61064 18.8466 2.50415 18.58 2.50415C18.3133 2.50415 18.0577 2.61064 17.87 2.79995L13.29 7.37995C13.1072 7.57158 13.0037 7.82518 13 8.08995V10.5099C13 11.0622 13.4477 11.5099 14 11.5099ZM15 8.51L18.58 4.93L19.58 5.93L16 9.51H15V8.51ZM21 10.5099C20.4477 10.5099 20 10.9576 20 11.5099V18.5099C20 19.0622 19.5523 19.5099 19 19.5099H4.99998C4.4477 19.5099 3.99998 19.0622 3.99998 18.5099V8.89988L9.87998 14.7899C10.4437 15.3609 11.2126 15.6823 12.015 15.6823C12.8174 15.6823 13.5863 15.3609 14.15 14.7899C14.5311 14.401 14.5311 13.7787 14.15 13.3899C13.9618 13.1975 13.7041 13.089 13.435 13.089C13.1659 13.089 12.9081 13.1975 12.72 13.3899C12.3311 13.771 11.7088 13.771 11.32 13.3899L5.40998 7.48988H9.99998C10.5523 7.48988 11 7.04216 11 6.48988C11 5.93759 10.5523 5.48988 9.99998 5.48988H4.99998C3.34313 5.48988 1.99998 6.83302 1.99998 8.48988V18.4899C1.99998 20.1467 3.34313 21.4899 4.99998 21.4899H19C20.6568 21.4899 22 20.1467 22 18.4899V11.4899C22 10.9376 21.5523 10.4899 21 10.4899V10.5099Z" fill="#171E2B"/>
</svg>
