<svg width="24" height="24" viewBox="0 0 24 24" fill="none" xmlns="http://www.w3.org/2000/svg">
<path fill-rule="evenodd" clip-rule="evenodd" d="M22.21 10.29L20.48 8.57C20.8991 7.89021 21.1239 7.10857 21.13 6.31C21.1245 3.93226 19.1944 2.00817 16.8167 2.01001C14.4389 2.01185 12.5118 3.93893 12.51 6.31667C12.5082 8.69441 14.4323 10.6245 16.81 10.63C17.6067 10.6299 18.3882 10.4121 19.07 10L20.79 11.73C20.9778 11.9193 21.2334 12.0258 21.5 12.0258C21.7666 12.0258 22.0222 11.9193 22.21 11.73C22.4055 11.5415 22.516 11.2816 22.516 11.01C22.516 10.7384 22.4055 10.4785 22.21 10.29ZM18.45 8.00005C17.5346 8.87243 16.0954 8.87243 15.18 8.00005C14.743 7.56642 14.498 6.97569 14.5 6.36005C14.4893 5.73958 14.7276 5.14068 15.1617 4.6972C15.5958 4.25372 16.1894 4.00263 16.81 4.00005C17.4256 3.99809 18.0164 4.24303 18.45 4.68005C18.8864 5.10996 19.1315 5.69742 19.13 6.31005C19.1456 6.94296 18.8996 7.55431 18.45 8.00005ZM20.5 14C19.9477 14 19.5 14.4477 19.5 15V19C19.5 19.5522 19.0523 20 18.5 20H4.5C3.94772 20 3.5 19.5522 3.5 19V9.40996L9.38 15.3C10.5513 16.4698 12.4487 16.4698 13.62 15.3L15 13.88C15.3921 13.4878 15.3921 12.8521 15 12.46C14.6079 12.0678 13.9721 12.0678 13.58 12.46L12.2 13.88C11.8112 14.2611 11.1888 14.2611 10.8 13.88L4.91 7.99996H9.5C10.0523 7.99996 10.5 7.55225 10.5 6.99996C10.5 6.44768 10.0523 5.99996 9.5 5.99996H4.5C2.84315 5.99996 1.5 7.34311 1.5 8.99996V19C1.5 20.6568 2.84315 22 4.5 22H18.5C20.1569 22 21.5 20.6568 21.5 19V15C21.5 14.4477 21.0523 14 20.5 14Z" fill="#171E2B"/>
</svg>
