<svg width="24" height="24" viewBox="0 0 24 24" fill="none" xmlns="http://www.w3.org/2000/svg">
<path fill-rule="evenodd" clip-rule="evenodd" d="M21 11C20.4477 11 20 11.4477 20 12V18C20 18.5523 19.5523 19 19 19H5C4.44772 19 4 18.5523 4 18V8.40997L9.88 14.3C10.4412 14.8566 11.1995 15.1693 11.99 15.17C12.8004 15.1658 13.5764 14.8424 14.15 14.27L15.87 12.55C16.2621 12.1579 16.2621 11.5221 15.87 11.13C15.4779 10.7378 14.8421 10.7378 14.45 11.13L12.7 12.88C12.3112 13.2611 11.6888 13.2611 11.3 12.88L5.41 6.99997H13C13.5523 6.99997 14 6.55226 14 5.99997C14 5.44769 13.5523 4.99997 13 4.99997H5C3.34315 4.99997 2 6.34312 2 7.99997V18C2 19.6568 3.34315 21 5 21H19C20.6569 21 22 19.6568 22 18V12C22 11.4477 21.5523 11 21 11ZM20.41 5.99994L21.71 4.70994C22.1021 4.31782 22.1021 3.68206 21.71 3.28994C21.3179 2.89782 20.6821 2.89782 20.29 3.28994L19 4.58994L17.71 3.28994C17.3179 2.89782 16.6821 2.89782 16.29 3.28994C15.8979 3.68206 15.8979 4.31782 16.29 4.70994L17.59 5.99994L16.29 7.28994C16.1007 7.47771 15.9942 7.7333 15.9942 7.99994C15.9942 8.26658 16.1007 8.52217 16.29 8.70994C16.4778 8.89925 16.7334 9.00574 17 9.00574C17.2666 9.00574 17.5222 8.89925 17.71 8.70994L19 7.40994L20.29 8.70994C20.4778 8.89925 20.7334 9.00574 21 9.00574C21.2666 9.00574 21.5222 8.89925 21.71 8.70994C21.8993 8.52217 22.0058 8.26658 22.0058 7.99994C22.0058 7.7333 21.8993 7.47771 21.71 7.28994L20.41 5.99994Z" fill="#171E2B"/>
</svg>
