<svg width="24" height="24" viewBox="0 0 24 24" fill="none" xmlns="http://www.w3.org/2000/svg">
<path fill-rule="evenodd" clip-rule="evenodd" d="M19 4H5C3.34315 4 2 5.34315 2 7V17C2 18.6569 3.34315 20 5 20H19C20.6569 20 22 18.6569 22 17V7C22 5.34315 20.6569 4 19 4ZM5.00001 6.00006H19C19.5523 6.00006 20 6.44778 20 7.00006L12 11.8801L4.00002 7.00006C4.00002 6.44778 4.44773 6.00006 5.00001 6.00006ZM20 17C20 17.5523 19.5523 18 19 18H5.00001C4.44773 18 4.00002 17.5523 4.00002 17V9.28L11.48 13.85C11.7894 14.0286 12.1706 14.0286 12.48 13.85L20 9.28V17Z" fill="#171E2B"/>
</svg>
