<svg width="24" height="24" viewBox="0 0 24 24" fill="none" xmlns="http://www.w3.org/2000/svg">
<path fill-rule="evenodd" clip-rule="evenodd" d="M15 13H8.99998C8.4477 13 7.99998 13.4477 7.99998 14C7.99998 14.5523 8.4477 15 8.99998 15H15C15.5523 15 16 14.5523 16 14C16 13.4477 15.5523 13 15 13ZM15 9.00003H8.99998C8.4477 9.00003 7.99998 9.44774 7.99998 10C7.99998 10.5523 8.4477 11 8.99998 11H15C15.5523 11 16 10.5523 16 10C16 9.44774 15.5523 9.00003 15 9.00003ZM12 2C6.47714 2 1.99998 6.47715 1.99998 12C1.99998 17.5228 6.47714 22 12 22C17.5228 22 22 17.5228 22 12C22 9.34784 20.9464 6.8043 19.0711 4.92893C17.1957 3.05357 14.6521 2 12 2ZM12 20C7.5817 20 3.99998 16.4182 3.99998 12C3.99998 7.58169 7.5817 3.99997 12 3.99997C16.4183 3.99997 20 7.58169 20 12C20 14.1217 19.1571 16.1565 17.6568 17.6568C16.1565 19.1571 14.1217 20 12 20Z" fill="#171E2B"/>
</svg>
