<svg width="24" height="24" viewBox="0 0 24 24" fill="none" xmlns="http://www.w3.org/2000/svg">
<path d="M22.5976 9.12414L12.2464 5.04138C12.0786 4.98621 11.9107 4.98621 11.7429 5.04138L1.44762 9.12414C1.16786 9.23448 1 9.45517 1 9.73103C1 10.0069 1.16786 10.2276 1.44762 10.3379L4.6369 11.6069V15.5793C4.6369 16.8483 8.77738 19 12.0226 19C15.2679 19 19.4083 16.9034 19.4083 15.5793V11.6069L20.3036 11.2759V15.1379C19.6881 15.5241 19.3524 16.2414 19.4083 16.9586C19.4083 18.1172 20.0798 19 20.975 19C21.8702 19 22.5417 18.1172 22.5417 17.0138C22.5976 16.2966 22.2619 15.5793 21.6464 15.1931V10.7793L22.5417 10.3931C22.8214 10.2828 22.9893 10.0621 22.9893 9.78621C23.0452 9.45517 22.8774 9.23448 22.5976 9.12414ZM21.2548 16.9586C21.2548 17.3448 21.0869 17.5655 21.0309 17.6207C20.975 17.5655 20.8071 17.3448 20.8071 16.9586C20.8071 16.5172 20.975 16.2966 21.0309 16.2966C21.0869 16.2966 21.2548 16.5172 21.2548 16.9586ZM11.3512 9.23448C11.2952 9.62069 11.575 9.95172 11.9667 9.95172L18.3452 10.6138L12.0226 13.0966L3.51786 9.78621L12.0226 6.47586L19.5762 9.45517L12.0786 8.68276C11.9107 8.68276 11.7429 8.73793 11.575 8.84828C11.4631 8.90345 11.4071 9.01379 11.3512 9.23448ZM5.97976 12.1586L11.7988 14.4207C11.9667 14.4759 12.1345 14.4759 12.3024 14.4207L18.1214 12.1586V15.469C17.7298 15.9103 15.1 17.6759 12.0786 17.6759C9.05714 17.6759 6.37143 15.9103 6.03571 15.469V12.1586H5.97976Z" fill="#171717"/>
</svg>
