<svg width="24" height="24" viewBox="0 0 24 24" fill="none" xmlns="http://www.w3.org/2000/svg">
<path fill-rule="evenodd" clip-rule="evenodd" d="M12 1C5.92485 1 0.999985 5.92487 0.999985 12C0.999985 18.0751 5.92485 23 12 23C18.0751 23 23 18.0751 23 12C23 9.08262 21.8411 6.28473 19.7782 4.22183C17.7153 2.15893 14.9174 1 12 1ZM12 21C7.02944 21 3 16.9705 3 12C3 7.02941 7.02944 2.99997 12 2.99997C16.9706 2.99997 21 7.02941 21 12C21 16.9705 16.9706 21 12 21ZM12.59 7.66997C13.6306 7.69653 14.5994 8.20681 15.21 9.04997C15.5444 9.48853 16.1708 9.57354 16.61 9.23997C16.822 9.07769 16.9603 8.83736 16.9941 8.57252C17.0279 8.30768 16.9544 8.04031 16.79 7.82997C15.8038 6.49394 14.2504 5.69502 12.59 5.66997C10.2438 5.73824 8.1922 7.26995 7.45997 9.49997H5.99997C5.44768 9.49997 4.99997 9.94768 4.99997 10.5C4.99997 11.0523 5.44768 11.5 5.99997 11.5H6.99997C6.99997 11.67 6.99997 11.83 6.99997 12C6.99997 12.17 6.99997 12.33 6.99997 12.5H5.99997C5.44768 12.5 4.99997 12.9477 4.99997 13.5C4.99997 14.0523 5.44768 14.5 5.99997 14.5H7.45997C8.1922 16.73 10.2438 18.2617 12.59 18.33C14.2504 18.3049 15.8038 17.506 16.79 16.17C17.0841 15.8966 17.1862 15.4737 17.0491 15.0962C16.9121 14.7187 16.5625 14.4598 16.1614 14.4389C15.7604 14.4179 15.3857 14.6388 15.21 15C14.5994 15.8431 13.6306 16.3534 12.59 16.38C11.3472 16.3309 10.229 15.611 9.66997 14.5H12C12.5523 14.5 13 14.0523 13 13.5C13 12.9477 12.5523 12.5 12 12.5H9.04997C9.02341 12.3344 9.00671 12.1675 8.99997 12C9.00671 11.8325 9.02341 11.6655 9.04997 11.5H12C12.5523 11.5 13 11.0523 13 10.5C13 9.94768 12.5523 9.49997 12 9.49997H9.66997C10.2424 8.40834 11.358 7.70919 12.59 7.66997Z" fill="#171E2B"/>
</svg>
