<svg width="24" height="24" viewBox="0 0 24 24" fill="none" xmlns="http://www.w3.org/2000/svg">
<path fill-rule="evenodd" clip-rule="evenodd" d="M12 20C16.4183 20 20 16.4183 20 12C20 7.58172 16.4183 4 12 4C7.58172 4 4 7.58172 4 12C4 16.4183 7.58172 20 12 20ZM12 22C17.5228 22 22 17.5228 22 12C22 6.47715 17.5228 2 12 2C6.47715 2 2 6.47715 2 12C2 17.5228 6.47715 22 12 22Z" fill="#171E2B"/>
<path d="M7 11.355V10.263H8.261C8.521 9.275 9.015 8.48633 9.743 7.897C10.4797 7.299 11.3723 7 12.421 7C13.721 7 14.8347 7.52433 15.762 8.573L14.605 10.081C13.9723 9.30967 13.227 8.924 12.369 8.924C11.3983 8.924 10.7267 9.37033 10.354 10.263H13.383V11.355H10.12C10.1113 11.4417 10.107 11.5717 10.107 11.745C10.107 11.9183 10.1113 12.044 10.12 12.122H13.383V13.214H10.419C10.627 13.6213 10.9087 13.9333 11.264 14.15C11.628 14.3667 12.0267 14.475 12.46 14.475C13.318 14.475 14.02 14.1327 14.566 13.448L15.762 14.774C15.294 15.32 14.7523 15.7273 14.137 15.996C13.5303 16.2647 12.9237 16.399 12.317 16.399C11.3377 16.399 10.484 16.113 9.756 15.541C9.028 14.9603 8.52967 14.1847 8.261 13.214H7V12.122H8.092C8.08333 12.044 8.079 11.9183 8.079 11.745C8.079 11.5717 8.08333 11.4417 8.092 11.355H7Z" fill="#171E2B"/>
</svg>
