<svg width="24" height="24" viewBox="0 0 24 24" fill="none" xmlns="http://www.w3.org/2000/svg">
<path fill-rule="evenodd" clip-rule="evenodd" d="M19.2 17.41C18.1199 18.9759 16.3612 19.9369 14.46 20C11.78 20 9.46 18 8.46 15H14C14.5523 15 15 14.5523 15 14C15 13.4477 14.5523 13 14 13H8.05C8.05 12.67 8 12.33 8 12C8 11.67 8 11.33 8.05 11H14C14.5523 11 15 10.5523 15 10C15 9.44771 14.5523 9 14 9H8.47C9.47 6 11.78 4 14.47 4C16.3677 4.06624 18.122 5.02685 19.2 6.59C19.3926 6.92157 19.7578 7.11384 20.1401 7.08495C20.5224 7.05606 20.8546 6.8111 20.9951 6.45435C21.1357 6.09761 21.0599 5.69192 20.8 5.41C19.3552 3.32306 16.9977 2.05505 14.46 2C10.7 2 7.46 4.84 6.39 9H4C3.44772 9 3 9.44771 3 10C3 10.5523 3.44772 11 4 11H6.05C6.05 11.33 6.05 11.67 6.05 12C6.05 12.33 6.05 12.67 6.05 13H4C3.44772 13 3 13.4477 3 14C3 14.5523 3.44772 15 4 15H6.39C7.48 19.16 10.7 22 14.46 22C16.9977 21.945 19.3552 20.6769 20.8 18.59C21.0562 18.1489 20.9393 17.5857 20.5288 17.283C20.1183 16.9802 19.5457 17.035 19.2 17.41Z" fill="#171E2B"/>
</svg>
