<svg width="24" height="24" viewBox="0 0 24 24" fill="none" xmlns="http://www.w3.org/2000/svg">
<path fill-rule="evenodd" clip-rule="evenodd" d="M21.71 9.28994L17.71 5.28994C17.3178 4.89782 16.6821 4.89782 16.29 5.28994C15.8978 5.68206 15.8978 6.31782 16.29 6.70994L18.59 8.99994H6.99997C6.44769 8.99994 5.99997 9.44766 5.99997 9.99994C5.99997 10.5522 6.44769 10.9999 6.99997 10.9999H21C21.4037 10.9979 21.7666 10.7534 21.92 10.3799C22.0766 10.0075 21.9937 9.5775 21.71 9.28994ZM17 13H2.99998C2.59628 13.002 2.23339 13.2465 2.07998 13.62C1.92339 13.9924 2.00624 14.4224 2.28998 14.71L6.28998 18.71C6.47775 18.8993 6.73335 19.0058 6.99998 19.0058C7.26662 19.0058 7.52222 18.8993 7.70998 18.71C7.8993 18.5222 8.00578 18.2666 8.00578 18C8.00578 17.7333 7.8993 17.4777 7.70998 17.29L5.40998 15H17C17.5523 15 18 14.5523 18 14C18 13.4477 17.5523 13 17 13Z" fill="#171E2B"/>
</svg>
