<svg width="24" height="24" viewBox="0 0 24 24" fill="none" xmlns="http://www.w3.org/2000/svg">
<path fill-rule="evenodd" clip-rule="evenodd" d="M18 9.99994C18 9.44766 17.5523 8.99994 17 8.99994H5.41001L7.71001 6.70994C8.10214 6.31782 8.10214 5.68206 7.71001 5.28994C7.31789 4.89782 6.68214 4.89782 6.29001 5.28994L2.29001 9.28994C2.00627 9.5775 1.92342 10.0075 2.08001 10.3799C2.23342 10.7534 2.59631 10.9979 3.00001 10.9999H17C17.5523 10.9999 18 10.5522 18 9.99994ZM21.92 13.62C21.7666 13.2465 21.4037 13.002 21 13H7C6.44772 13 6 13.4477 6 14C6 14.5523 6.44772 15 7 15H18.59L16.29 17.29C16.1007 17.4777 15.9942 17.7333 15.9942 18C15.9942 18.2666 16.1007 18.5222 16.29 18.71C16.4778 18.8993 16.7334 19.0058 17 19.0058C17.2666 19.0058 17.5222 18.8993 17.71 18.71L21.71 14.71C21.9937 14.4224 22.0766 13.9924 21.92 13.62Z" fill="#171E2B"/>
</svg>
