<svg width="24" height="24" viewBox="0 0 24 24" fill="none" xmlns="http://www.w3.org/2000/svg">
<path fill-rule="evenodd" clip-rule="evenodd" d="M12 16.0001C11.4477 16.0001 11 16.4478 11 17C11 17.5523 11.4477 18 12 18C12.5523 18 13 17.5523 13 17C13 16.4478 12.5523 16.0001 12 16.0001ZM22.67 17.47L14.62 3.47003C14.0902 2.52012 13.0877 1.9314 12 1.9314C10.9123 1.9314 9.90983 2.52012 9.38 3.47003L1.38 17.47C0.832049 18.3942 0.820104 19.5407 1.34868 20.4761C1.87726 21.4114 2.86566 21.9927 3.94 22H20.06C21.1433 22.0107 22.1482 21.4365 22.689 20.4979C23.2298 19.5592 23.2225 18.4018 22.67 17.47ZM20.94 19.47C20.7615 19.7877 20.4243 19.983 20.06 19.98H3.94C3.57566 19.983 3.23852 19.7877 3.06 19.47C2.88137 19.1606 2.88137 18.7794 3.06 18.47L11.06 4.47003C11.2311 4.13607 11.5748 3.92599 11.95 3.92599C12.3252 3.92599 12.6689 4.13607 12.84 4.47003L20.89 18.47C21.0921 18.7753 21.1113 19.1665 20.94 19.49V19.47ZM12 7.99999C11.4477 7.99999 11 8.4477 11 8.99999V13C11 13.5523 11.4477 14 12 14C12.5523 14 13 13.5523 13 13V8.99999C13 8.4477 12.5523 7.99999 12 7.99999Z" fill="#171E2B"/>
</svg>
