<svg width="24" height="24" viewBox="0 0 24 24" fill="none" xmlns="http://www.w3.org/2000/svg">
<path fill-rule="evenodd" clip-rule="evenodd" d="M9.54 7.53997H8.54C7.98771 7.53997 7.54 7.98769 7.54 8.53997V9.53997C7.54 10.0923 7.98771 10.54 8.54 10.54C9.09228 10.54 9.54 10.0923 9.54 9.53997C10.0923 9.53997 10.54 9.09226 10.54 8.53997C10.54 7.98769 10.0923 7.53997 9.54 7.53997ZM15.46 13.46C14.9077 13.46 14.46 13.9077 14.46 14.46C13.9077 14.46 13.46 14.9077 13.46 15.46C13.46 16.0123 13.9077 16.46 14.46 16.46H15.46C15.7252 16.46 15.9796 16.3546 16.1671 16.1671C16.3546 15.9796 16.46 15.7252 16.46 15.46V14.46C16.46 13.9077 16.0123 13.46 15.46 13.46ZM21 7.54H16.46V3C16.46 2.44772 16.0123 2 15.46 2H3C2.44772 2 2 2.44772 2 3V15.46C2 16.0123 2.44772 16.46 3 16.46H7.54V21C7.54 21.5523 7.98772 22 8.54 22H21C21.5523 22 22 21.5523 22 21V8.54C22 7.98772 21.5523 7.54 21 7.54ZM20 20H9.54V16.46C10.0923 16.46 10.54 16.0123 10.54 15.46C10.54 14.9077 10.0923 14.46 9.54 14.46C9.54 13.9077 9.09229 13.46 8.54 13.46C7.98772 13.46 7.54 13.9077 7.54 14.46H4V3.99997H14.46V7.53997C13.9077 7.53997 13.46 7.98768 13.46 8.53997C13.46 9.09225 13.9077 9.53997 14.46 9.53997C14.46 10.0923 14.9077 10.54 15.46 10.54C16.0123 10.54 16.46 10.0923 16.46 9.53997H20V20Z" fill="#171E2B"/>
</svg>
