<svg width="24" height="24" viewBox="0 0 24 24" fill="none" xmlns="http://www.w3.org/2000/svg">
<path fill-rule="evenodd" clip-rule="evenodd" d="M12 6.99997C11.4477 6.99997 11 7.44768 11 7.99997V12C11 12.5523 11.4477 13 12 13C12.5523 13 13 12.5523 13 12V7.99997C13 7.44768 12.5523 6.99997 12 6.99997ZM12 15C11.4477 15 11 15.4477 11 16C11 16.5523 11.4477 17 12 17C12.5523 17 13 16.5523 13 16C13 15.4477 12.5523 15 12 15ZM21.71 7.56L16.44 2.29C16.2484 2.10727 15.9948 2.00368 15.73 2H8.27C8.00523 2.00368 7.75163 2.10727 7.56 2.29L2.29 7.56C2.10727 7.75163 2.00368 8.00523 2 8.27V15.73C2.00368 15.9948 2.10727 16.2484 2.29 16.44L7.56 21.71C7.75163 21.8927 8.00523 21.9963 8.27 22H15.73C15.9948 21.9963 16.2484 21.8927 16.44 21.71L21.71 16.44C21.8927 16.2484 21.9963 15.9948 22 15.73V8.27C21.9963 8.00523 21.8927 7.75163 21.71 7.56ZM20 15.31L15.31 20H8.69001L4.00002 15.31V8.68997L8.69001 3.99997H15.31L20 8.68997V15.31Z" fill="#171E2B"/>
</svg>
