<svg width="24" height="24" viewBox="0 0 24 24" fill="none" xmlns="http://www.w3.org/2000/svg">
<path fill-rule="evenodd" clip-rule="evenodd" d="M12 6.99997C11.4477 6.99997 11 7.44768 11 7.99997V12C11 12.5523 11.4477 13 12 13C12.5523 13 13 12.5523 13 12V7.99997C13 7.44768 12.5523 6.99997 12 6.99997ZM12.92 15.62C12.8981 15.5563 12.8678 15.4958 12.83 15.44L12.71 15.29C12.4224 15.0063 11.9924 14.9234 11.62 15.08C11.4988 15.1307 11.3872 15.2017 11.29 15.29C11.1028 15.4787 10.9985 15.7342 11 16C11.0016 16.1307 11.0288 16.2598 11.08 16.38C11.1709 16.6313 11.3688 16.8291 11.62 16.92C11.862 17.027 12.138 17.027 12.38 16.92C12.6312 16.8291 12.8291 16.6313 12.92 16.38C12.9712 16.2598 12.9984 16.1307 13 16C13.0049 15.9335 13.0049 15.8666 13 15.8C12.9828 15.7363 12.9558 15.6755 12.92 15.62ZM12 2C6.47715 2 2 6.47715 2 12C2 17.5228 6.47715 22 12 22C17.5228 22 22 17.5228 22 12C22 9.34784 20.9464 6.8043 19.0711 4.92893C17.1957 3.05357 14.6522 2 12 2ZM12 20C7.58174 20 4.00002 16.4182 4.00002 12C4.00002 7.58169 7.58174 3.99997 12 3.99997C16.4183 3.99997 20 7.58169 20 12C20 14.1217 19.1572 16.1565 17.6569 17.6568C16.1566 19.1571 14.1217 20 12 20Z" fill="#171E2B"/>
</svg>
