<svg width="24" height="24" viewBox="0 0 24 24" fill="none" xmlns="http://www.w3.org/2000/svg">
<path fill-rule="evenodd" clip-rule="evenodd" d="M4 12C4 12.5523 4.44772 13 5 13H12.59L10.29 15.29C10.1007 15.4778 9.9942 15.7334 9.9942 16C9.9942 16.2667 10.1007 16.5223 10.29 16.71C10.4778 16.8993 10.7334 17.0058 11 17.0058C11.2666 17.0058 11.5222 16.8993 11.71 16.71L15.71 12.71C15.801 12.6149 15.8724 12.5028 15.92 12.38C16.02 12.1366 16.02 11.8635 15.92 11.62C15.8724 11.4973 15.801 11.3851 15.71 11.29L11.71 7.29002C11.4563 7.03636 11.0866 6.9373 10.7401 7.03014C10.3936 7.12299 10.123 7.39364 10.0301 7.74014C9.93728 8.08665 10.0363 8.45636 10.29 8.71002L12.59 11H5C4.44772 11 4 11.4477 4 12ZM17 2H7C5.34315 2 4 3.34315 4 5V8C4 8.55228 4.44772 9 5 9C5.55228 9 6 8.55228 6 8V5C6 4.44772 6.44772 4 7 4H17C17.5523 4 18 4.44772 18 5V19C18 19.5523 17.5523 20 17 20H7C6.44772 20 6 19.5523 6 19V16C6 15.4477 5.55228 15 5 15C4.44772 15 4 15.4477 4 16V19C4 20.6569 5.34315 22 7 22H17C18.6569 22 20 20.6569 20 19V5C20 3.34315 18.6569 2 17 2Z" fill="#171E2B"/>
</svg>
