<svg width="24" height="24" viewBox="0 0 24 24" fill="none" xmlns="http://www.w3.org/2000/svg">
<path fill-rule="evenodd" clip-rule="evenodd" d="M9.29002 13.29L4.00002 18.59V17C4.00002 16.4477 3.5523 16 3.00002 16C2.44773 16 2.00002 16.4477 2.00002 17V21C2.0016 21.1307 2.02877 21.2598 2.08002 21.38C2.18149 21.6244 2.37567 21.8185 2.62002 21.92C2.74024 21.9712 2.86934 21.9984 3.00002 22H7.00002C7.5523 22 8.00002 21.5523 8.00002 21C8.00002 20.4477 7.5523 20 7.00002 20H5.41002L10.71 14.71C11.1021 14.3179 11.1021 13.6821 10.71 13.29C10.3179 12.8979 9.68214 12.8979 9.29002 13.29ZM5.41001 4H7.00001C7.5523 4 8.00001 3.55228 8.00001 3C8.00001 2.44772 7.5523 2 7.00001 2H3.00002C2.86934 2.00158 2.74024 2.02876 2.62002 2.08C2.37567 2.18147 2.18149 2.37565 2.08002 2.62C2.02877 2.74022 2.0016 2.86932 2.00002 3V7C2.00002 7.55229 2.44773 8 3.00002 8C3.5523 8 4.00002 7.55229 4.00002 7V5.41L9.29001 10.71C9.47778 10.8993 9.73338 11.0058 10 11.0058C10.2667 11.0058 10.5222 10.8993 10.71 10.71C10.8993 10.5222 11.0058 10.2666 11.0058 10C11.0058 9.73336 10.8993 9.47777 10.71 9.29L5.41001 4ZM21 16C20.4477 16 20 16.4477 20 17V18.59L14.71 13.29C14.3179 12.8979 13.6821 12.8979 13.29 13.29C12.8979 13.6821 12.8979 14.3179 13.29 14.71L18.59 20H17C16.4477 20 16 20.4477 16 21C16 21.5523 16.4477 22 17 22H21C21.1307 21.9984 21.2598 21.9712 21.38 21.92C21.6244 21.8185 21.8185 21.6244 21.92 21.38C21.9713 21.2598 21.9984 21.1307 22 21V17C22 16.4477 21.5523 16 21 16ZM21.92 2.62C21.8186 2.37565 21.6244 2.18147 21.38 2.08C21.2598 2.02876 21.1307 2.00158 21 2H17C16.4478 2 16 2.44772 16 3C16 3.55228 16.4478 4 17 4H18.59L13.29 9.29C13.1007 9.47777 12.9942 9.73336 12.9942 10C12.9942 10.2666 13.1007 10.5222 13.29 10.71C13.4778 10.8993 13.7334 11.0058 14 11.0058C14.2667 11.0058 14.5223 10.8993 14.71 10.71L20 5.41V7C20 7.55229 20.4478 8 21 8C21.5523 8 22 7.55229 22 7V3C21.9985 2.86932 21.9713 2.74022 21.92 2.62Z" fill="#171E2B"/>
</svg>
