<svg width="24" height="24" viewBox="0 0 24 24" fill="none" xmlns="http://www.w3.org/2000/svg">
<path fill-rule="evenodd" clip-rule="evenodd" d="M9.78998 12.79L3.99998 18.59V17C3.99998 16.4477 3.55227 16 2.99998 16C2.4477 16 1.99998 16.4477 1.99998 17V21C2.00156 21.1307 2.02874 21.2598 2.07998 21.38C2.18146 21.6244 2.37564 21.8186 2.61998 21.92C2.74021 21.9713 2.86931 21.9985 2.99998 22H6.99998C7.55227 22 7.99998 21.5523 7.99998 21C7.99998 20.4477 7.55227 20 6.99998 20H5.40998L11.21 14.21C11.6021 13.8179 11.6021 13.1822 11.21 12.79C10.8179 12.3979 10.1821 12.3979 9.78998 12.79ZM21.92 2.62C21.8185 2.37565 21.6243 2.18147 21.38 2.08C21.2598 2.02876 21.1307 2.00158 21 2H17C16.4477 2 16 2.44772 16 3C16 3.55228 16.4477 4 17 4H18.59L12.79 9.79C12.6007 9.97777 12.4942 10.2334 12.4942 10.5C12.4942 10.7666 12.6007 11.0222 12.79 11.21C12.9778 11.3993 13.2334 11.5058 13.5 11.5058C13.7666 11.5058 14.0222 11.3993 14.21 11.21L20 5.41V7C20 7.55228 20.4477 8 21 8C21.5523 8 22 7.55228 22 7V3C21.9984 2.86932 21.9712 2.74022 21.92 2.62Z" fill="#171E2B"/>
</svg>
