<svg width="24" height="24" viewBox="0 0 24 24" fill="none" xmlns="http://www.w3.org/2000/svg">
<path fill-rule="evenodd" clip-rule="evenodd" d="M21 8C21.5523 8 22 7.55228 22 7V3C21.9984 2.86932 21.9712 2.74022 21.92 2.62C21.8185 2.37565 21.6243 2.18147 21.38 2.08C21.2598 2.02876 21.1307 2.00158 21 2H17C16.4477 2 16 2.44772 16 3C16 3.55228 16.4477 4 17 4H18.59L12 10.59L5.40998 4H6.99998C7.55227 4 7.99998 3.55228 7.99998 3C7.99998 2.44772 7.55227 2 6.99998 2H2.99998C2.86931 2.00158 2.74021 2.02876 2.61998 2.08C2.37564 2.18147 2.18146 2.37565 2.07998 2.62C2.02874 2.74022 2.00156 2.86932 1.99998 3V7C1.99998 7.55228 2.4477 8 2.99998 8C3.55227 8 3.99998 7.55228 3.99998 7V5.41L10.59 12L3.99998 18.59V17C3.99998 16.4477 3.55227 16 2.99998 16C2.4477 16 1.99998 16.4477 1.99998 17V21C2.00156 21.1307 2.02874 21.2598 2.07998 21.38C2.18146 21.6243 2.37564 21.8185 2.61998 21.92C2.74021 21.9712 2.86931 21.9984 2.99998 22H6.99998C7.55227 22 7.99998 21.5523 7.99998 21C7.99998 20.4477 7.55227 20 6.99998 20H5.40998L12 13.41L18.59 20H17C16.4477 20 16 20.4477 16 21C16 21.5523 16.4477 22 17 22H21C21.1307 21.9984 21.2598 21.9712 21.38 21.92C21.6243 21.8185 21.8185 21.6243 21.92 21.38C21.9712 21.2598 21.9984 21.1307 22 21V17C22 16.4477 21.5523 16 21 16C20.4477 16 20 16.4477 20 17V18.59L13.41 12L20 5.41V7C20 7.55228 20.4477 8 21 8Z" fill="#171E2B"/>
</svg>
