<svg width="24" height="24" viewBox="0 0 24 24" fill="none" xmlns="http://www.w3.org/2000/svg">
<path fill-rule="evenodd" clip-rule="evenodd" d="M11 12H3.00002C2.44773 12 2.00002 12.4477 2.00002 13V21C2.00002 21.5523 2.44773 22 3.00002 22H11C11.5523 22 12 21.5523 12 21V13C12 12.4477 11.5523 12 11 12ZM10 20H4.00003V14H10V20ZM21.92 2.62C21.8186 2.37565 21.6244 2.18147 21.38 2.08C21.2598 2.02876 21.1307 2.00158 21 2H15C14.4478 2 14 2.44772 14 3C14 3.55228 14.4478 4 15 4H18.59L13.29 9.29C13.1007 9.47777 12.9942 9.73336 12.9942 10C12.9942 10.2666 13.1007 10.5222 13.29 10.71C13.4778 10.8993 13.7334 11.0058 14 11.0058C14.2667 11.0058 14.5223 10.8993 14.71 10.71L20 5.41V9C20 9.55228 20.4478 10 21 10C21.5523 10 22 9.55228 22 9V3C21.9985 2.86932 21.9713 2.74022 21.92 2.62Z" fill="#171E2B"/>
</svg>
