<svg width="24" height="24" viewBox="0 0 24 24" fill="none" xmlns="http://www.w3.org/2000/svg">
<path fill-rule="evenodd" clip-rule="evenodd" d="M9.17 10.17C9.4358 10.1715 9.69128 10.0672 9.88 9.88C10.0693 9.69223 10.1758 9.43664 10.1758 9.17C10.1758 8.90336 10.0693 8.64777 9.88 8.46L5.41 4H7C7.55228 4 8 3.55228 8 3C8 2.44772 7.55228 2 7 2H3C2.86932 2.00158 2.74022 2.02876 2.62 2.08C2.37565 2.18147 2.18147 2.37565 2.08 2.62C2.02876 2.74022 2.00158 2.86932 2 3V7C2 7.55229 2.44772 8 3 8C3.55228 8 4 7.55229 4 7V5.41L8.46 9.88C8.64872 10.0672 8.9042 10.1715 9.17 10.17ZM15.54 8.45998C15.3523 8.27066 15.0967 8.16418 14.83 8.16418C14.5634 8.16418 14.3078 8.27066 14.12 8.45998L8.46002 14.12C8.27071 14.3077 8.16422 14.5633 8.16422 14.83C8.16422 15.0966 8.27071 15.3522 8.46002 15.54C8.64874 15.7272 8.90422 15.8315 9.17002 15.83C9.43583 15.8315 9.6913 15.7272 9.88002 15.54L15.54 9.87998C15.7293 9.69221 15.8358 9.43661 15.8358 9.16998C15.8358 8.90334 15.7293 8.64774 15.54 8.45998ZM21 16C20.4477 16 20 16.4477 20 17V18.59L15.54 14.12C15.1479 13.7278 14.5121 13.7278 14.12 14.12C13.7279 14.5121 13.7279 15.1478 14.12 15.54L18.59 20H17C16.4477 20 16 20.4477 16 21C16 21.5523 16.4477 22 17 22H21C21.1307 21.9984 21.2598 21.9712 21.38 21.92C21.6244 21.8185 21.8185 21.6243 21.92 21.38C21.9713 21.2597 21.9984 21.1306 22 21V17C22 16.4477 21.5523 16 21 16Z" fill="#171E2B"/>
</svg>
