<svg width="24" height="24" viewBox="0 0 24 24" fill="none" xmlns="http://www.w3.org/2000/svg">
<path fill-rule="evenodd" clip-rule="evenodd" d="M8.71002 7.7099L11 5.4099V14.9999C11 15.5522 11.4477 15.9999 12 15.9999C12.5523 15.9999 13 15.5522 13 14.9999V5.4099L15.29 7.7099C15.4778 7.89921 15.7334 8.0057 16 8.0057C16.2667 8.0057 16.5223 7.89921 16.71 7.7099C16.8993 7.52213 17.0058 7.26654 17.0058 6.9999C17.0058 6.73326 16.8993 6.47766 16.71 6.2899L12.71 2.2899C12.6149 2.19886 12.5028 2.12749 12.38 2.0799C12.1366 1.97988 11.8635 1.97988 11.62 2.0799C11.4973 2.12749 11.3851 2.19886 11.29 2.2899L7.29002 6.2899C7.03636 6.54356 6.9373 6.91327 7.03014 7.25978C7.12299 7.60628 7.39364 7.87693 7.74014 7.96978C8.08665 8.06262 8.45636 7.96356 8.71002 7.7099ZM21 13.9999C20.4477 13.9999 20 14.4476 20 14.9999V18.9999C20 19.5522 19.5523 19.9999 19 19.9999H5C4.44772 19.9999 4 19.5522 4 18.9999V14.9999C4 14.4476 3.55228 13.9999 3 13.9999C2.44772 13.9999 2 14.4476 2 14.9999V18.9999C2 20.6567 3.34315 21.9999 5 21.9999H19C20.6569 21.9999 22 20.6567 22 18.9999V14.9999C22 14.4476 21.5523 13.9999 21 13.9999Z" fill="#171E2B"/>
</svg>
