<svg width="24" height="24" viewBox="0 0 24 24" fill="none" xmlns="http://www.w3.org/2000/svg">
<path fill-rule="evenodd" clip-rule="evenodd" d="M11 6.00003H7.00001C6.44772 6.00003 6.00001 6.44774 6.00001 7.00003C6.00001 7.55231 6.44772 8.00003 7.00001 8.00003H11C11.5523 8.00003 12 7.55231 12 7.00003C12 6.44774 11.5523 6.00003 11 6.00003ZM19 2H5C3.34315 2 2 3.34315 2 5V19C2 20.6569 3.34315 22 5 22H19C20.6569 22 22 20.6569 22 19V5C22 3.34315 20.6569 2 19 2ZM3.99999 18.59V4.99997C3.99999 4.44768 4.44771 3.99997 4.99999 3.99997H18.59L3.99999 18.59ZM20 19C20 19.5523 19.5523 20 19 20H5.40999L20 5.40997V19ZM13 17H14V18C14 18.5523 14.4477 19 15 19C15.5523 19 16 18.5523 16 18V17H17C17.5523 17 18 16.5523 18 16C18 15.4477 17.5523 15 17 15H16V14C16 13.4477 15.5523 13 15 13C14.4477 13 14 13.4477 14 14V15H13C12.4477 15 12 15.4477 12 16C12 16.5523 12.4477 17 13 17Z" fill="#171E2B"/>
</svg>
