<svg width="24" height="24" viewBox="0 0 24 24" fill="none" xmlns="http://www.w3.org/2000/svg">
<path fill-rule="evenodd" clip-rule="evenodd" d="M11 7H10V6C10 5.44772 9.55229 5 9 5C8.44772 5 8 5.44772 8 6V7H7C6.44772 7 6 7.44772 6 8C6 8.55228 6.44772 9 7 9H8V10C8 10.5523 8.44772 11 9 11C9.55229 11 10 10.5523 10 10V9H11C11.5523 9 12 8.55228 12 8C12 7.44772 11.5523 7 11 7ZM13 18H17C17.5523 18 18 17.5522 18 17C18 16.4477 17.5523 16 17 16H13C12.4477 16 12 16.4477 12 17C12 17.5522 12.4477 18 13 18ZM19 2H5C3.34315 2 2 3.34315 2 5V19C2 20.6569 3.34315 22 5 22H19C20.6569 22 22 20.6569 22 19V5C22 3.34315 20.6569 2 19 2ZM4 18.59V4.99997C4 4.44768 4.44772 3.99997 5 3.99997H18.59L4 18.59ZM20 19C20 19.5523 19.5523 20 19 20H5.41L20 5.40997V19Z" fill="#171E2B"/>
</svg>
