<svg width="24" height="24" viewBox="0 0 24 24" fill="none" xmlns="http://www.w3.org/2000/svg">
<path fill-rule="evenodd" clip-rule="evenodd" d="M10.94 6.07994C11.2908 6.02617 11.6451 5.99943 12 5.99994C15.18 5.99994 18.17 8.28994 19.91 11.9999C19.6439 12.5645 19.3433 13.1122 19.01 13.6399C18.9042 13.8038 18.8486 13.9949 18.85 14.1899C18.8546 14.6384 19.1572 15.029 19.5903 15.1454C20.0235 15.2619 20.4812 15.0757 20.71 14.6899C21.1759 13.9579 21.5806 13.1886 21.92 12.3899C22.0284 12.1378 22.0284 11.8521 21.92 11.5999C19.9 6.90994 16.1 3.99994 12 3.99994C11.5307 3.99758 11.0621 4.03774 10.6 4.11994C10.2427 4.18068 9.945 4.4274 9.81897 4.76716C9.69293 5.10693 9.75774 5.48813 9.98897 5.76716C10.2202 6.0462 10.5827 6.18068 10.94 6.11994V6.07994ZM3.70999 2.28996C3.45634 2.03631 3.08662 1.93724 2.74012 2.03009C2.39361 2.12293 2.12296 2.39358 2.03012 2.74009C1.93727 3.08659 2.03634 3.45631 2.28999 3.70996L5.38999 6.79996C3.97557 8.16149 2.84985 9.79395 2.07999 11.6C1.96868 11.855 1.96868 12.1449 2.07999 12.4C4.09999 17.09 7.89999 20 12 20C13.7971 19.9875 15.5518 19.4525 17.05 18.46L20.29 21.71C20.4778 21.8993 20.7334 22.0058 21 22.0058C21.2666 22.0058 21.5222 21.8993 21.71 21.71C21.8993 21.5222 22.0058 21.2666 22.0058 21C22.0058 20.7333 21.8993 20.4777 21.71 20.29L3.70999 2.28996ZM10.07 11.48L12.52 13.93C12.351 13.9785 12.1758 14.0021 12 14C10.8954 14 9.99999 13.1046 9.99999 12C9.99794 11.8242 10.0215 11.649 10.07 11.48ZM12 18C8.81999 18 5.82999 15.71 4.09999 12C4.74608 10.5738 5.66306 9.28658 6.79999 8.21L8.56999 10C7.71601 11.5586 7.99282 13.4938 9.24952 14.7505C10.5062 16.0072 12.4414 16.284 14 15.43L15.59 17C14.5011 17.6409 13.2634 17.9856 12 18Z" fill="#171E2B"/>
</svg>
