<svg width="24" height="24" viewBox="0 0 24 24" fill="none" xmlns="http://www.w3.org/2000/svg">
<path d="M12 4C7 4 2.73 7.31733 1 12C2.73 16.6827 7 20 12 20C17 20 21.27 16.6827 23 12C21.27 7.31733 17 4 12 4ZM12 17.3333C9.24 17.3333 7 14.944 7 12C7 9.056 9.24 6.66667 12 6.66667C14.76 6.66667 17 9.056 17 12C17 14.944 14.76 17.3333 12 17.3333ZM12 8.8C10.34 8.8 9 10.2293 9 12C9 13.7707 10.34 15.2 12 15.2C13.66 15.2 15 13.7707 15 12C15 10.2293 13.66 8.8 12 8.8Z" fill="#171E2B"/>
<path d="M23.0014 2.41279L14.1777 11.2365L11.2364 14.1777L2.41275 23.0014L0.998535 21.5872L9.82223 12.7635L12.7635 9.82227L21.5872 0.998578L23.0014 2.41279Z" fill="#171E2B"/>
</svg>
