<svg width="24" height="24" viewBox="0 0 24 24" fill="none" xmlns="http://www.w3.org/2000/svg">
<path fill-rule="evenodd" clip-rule="evenodd" d="M21.92 11.6C19.9 6.91 16.1 4 12 4C7.89999 4 4.09999 6.91 2.07999 11.6C1.96868 11.855 1.96868 12.1449 2.07999 12.4C4.09999 17.09 7.89999 20 12 20C16.1 20 19.9 17.09 21.92 12.4C22.0313 12.1449 22.0313 11.855 21.92 11.6ZM12 18C8.82999 18 5.82999 15.71 4.09999 12C5.82999 8.28997 8.82999 5.99997 12 5.99997C15.17 5.99997 18.17 8.28997 19.9 12C18.17 15.71 15.17 18 12 18ZM12 8.00003C9.79085 8.00003 7.99999 9.79089 7.99999 12C7.99999 14.2092 9.79085 16 12 16C14.2091 16 16 14.2092 16 12C16 10.9392 15.5786 9.92175 14.8284 9.1716C14.0783 8.42146 13.0609 8.00003 12 8.00003ZM12 14C10.8954 14 9.99998 13.1046 9.99998 12C9.99998 10.8954 10.8954 10 12 10C13.1045 10 14 10.8954 14 12C14 13.1046 13.1045 14 12 14Z" fill="#171E2B"/>
</svg>
