<svg width="24" height="24" viewBox="0 0 24 24" fill="none" xmlns="http://www.w3.org/2000/svg">
<path fill-rule="evenodd" clip-rule="evenodd" d="M18.83 9.44C18.6437 9.16442 18.3326 8.9995 18 9H15V7H17.2C17.7523 7 18.2 6.55228 18.2 6V2C18.2 1.44772 17.7523 1 17.2 1H14C10.7968 1 8.20001 3.59675 8.20001 6.8V9H6.00002C5.44773 9 5.00002 9.44771 5.00002 10V14C5.00002 14.5523 5.44773 15 6.00002 15H8.20001V22C8.20001 22.5523 8.64773 23 9.20001 23H14C14.5523 23 15 22.5523 15 22V15H16.4C16.8098 15.0004 17.1784 14.7507 17.33 14.37L18.93 10.37C19.0526 10.0626 19.0152 9.71434 18.83 9.44ZM15.72 13H14C13.4477 13 13 13.4477 13 14V21H10.2V14C10.2 13.4477 9.75232 13 9.20003 13H7.00003V11H9.20003C9.75232 11 10.2 10.5523 10.2 9.99997V6.79997C10.2055 4.70357 11.9036 3.00546 14 2.99997H16.2V4.99997H15.4C14.7157 4.90027 14.0206 5.08852 13.48 5.51997C13.1521 5.86328 12.9787 6.32569 13 6.79997V9.99997C13 10.5523 13.4477 11 14 11H16.52L15.72 13Z" fill="#171E2B"/>
</svg>
