<svg width="24" height="24" viewBox="0 0 24 24" fill="none" xmlns="http://www.w3.org/2000/svg">
<path fill-rule="evenodd" clip-rule="evenodd" d="M20.5 3H13.5C11.8431 3 10.5 4.34315 10.5 6V20C10.5 20.5523 10.9477 21 11.5 21C12.0523 21 12.5 20.5523 12.5 20V13H18.5C19.0523 13 19.5 12.5523 19.5 12C19.5 11.4477 19.0523 11 18.5 11H12.5V6C12.5 5.44772 12.9477 5 13.5 5H20.5C21.0523 5 21.5 4.55228 21.5 4C21.5 3.44772 21.0523 3 20.5 3ZM5.49998 3C3.84313 3 2.49998 4.34315 2.49998 6C2.49998 7.65685 3.84313 9 5.49998 9C7.15684 9 8.49998 7.65685 8.49998 6C8.49998 5.20435 8.18391 4.44129 7.6213 3.87868C7.0587 3.31607 6.29563 3 5.49998 3ZM5.5 6.99997C4.94771 6.99997 4.5 6.55225 4.5 5.99997C4.5 5.44768 4.94771 4.99997 5.5 4.99997C6.05228 4.99997 6.5 5.44768 6.5 5.99997C6.5 6.55225 6.05228 6.99997 5.5 6.99997Z" fill="#171E2B"/>
</svg>
