<svg width="24" height="24" viewBox="0 0 24 24" fill="none" xmlns="http://www.w3.org/2000/svg">
<path fill-rule="evenodd" clip-rule="evenodd" d="M4.79004 10.4999H2.79004C2.23775 10.4999 1.79004 10.9477 1.79004 11.4999C1.79004 12.0522 2.23775 12.4999 2.79004 12.4999H4.79004C5.34232 12.4999 5.79004 12.0522 5.79004 11.4999C5.79004 10.9477 5.34232 10.4999 4.79004 10.4999ZM21.57 7.6599V7.5999C20.9896 6.8904 20.1166 6.48522 19.2 6.4999H11.27C10.5352 6.4933 9.82357 6.75661 9.27003 7.2399C8.75304 7.69543 8.41313 8.3186 8.31003 8.9999L7.43003 13.9999C7.27685 14.874 7.5185 15.771 8.09003 16.4499C8.65853 17.1264 9.49637 17.5179 10.38 17.5199H18.32C19.7934 17.5422 21.0648 16.4911 21.32 15.0399L22.2 10.0399C22.3402 9.19297 22.1109 8.32655 21.57 7.6599ZM18.83 8.49988L15.43 11.2599C15.0123 11.5965 14.4034 11.5436 14.05 11.1399L11.72 8.49988H18.83ZM19.31 14.6699C19.2264 15.155 18.8022 15.5071 18.31 15.4999H10.38C10.0861 15.4974 9.80816 15.3658 9.62004 15.1399C9.43146 14.9152 9.35103 14.6191 9.40004 14.3299L10.2 9.79991L12.55 12.4599C13.6129 13.6679 15.4395 13.8223 16.69 12.8099L20.13 9.99991L19.31 14.6699ZM5.79004 6.49991H2.79004C2.23775 6.49991 1.79004 6.94763 1.79004 7.49991C1.79004 8.0522 2.23775 8.49991 2.79004 8.49991H5.79004C6.34233 8.49991 6.79004 8.0522 6.79004 7.49991C6.79004 6.94763 6.34233 6.49991 5.79004 6.49991Z" fill="#171E2B"/>
</svg>
