<svg width="24" height="24" viewBox="0 0 24 24" fill="none" xmlns="http://www.w3.org/2000/svg">
<path fill-rule="evenodd" clip-rule="evenodd" d="M15.69 8.99997C15.5653 8.33116 15.2118 7.72658 14.69 7.28997C14.1365 6.80668 13.4248 6.54337 12.69 6.54997H4.80001C3.92092 6.53652 3.08018 6.90937 2.50001 7.56997V7.62997C1.95131 8.28928 1.71108 9.15194 1.84001 9.99997L2.72001 15C2.97525 16.4512 4.24666 17.5022 5.72001 17.48H13.66C14.5437 17.478 15.3815 17.0865 15.95 16.41C16.4958 15.7343 16.722 14.8552 16.57 14L15.69 8.99997ZM12.28 8.49997L9.94003 11.14C9.58386 11.5406 8.97516 11.5891 8.56002 11.25L5.17002 8.49997H12.28ZM14.38 15.14C14.1919 15.3659 13.9139 15.4975 13.62 15.5H5.67999C5.18781 15.5072 4.76362 15.1551 4.67999 14.67L3.86999 10L7.29999 12.8C8.54797 13.8149 10.3743 13.6649 11.44 12.46L13.8 9.8L14.6 14.33C14.649 14.6192 14.5686 14.9153 14.38 15.14ZM21.21 10.5H19.21C18.6577 10.5 18.21 10.9477 18.21 11.5C18.21 12.0523 18.6577 12.5 19.21 12.5H21.21C21.7623 12.5 22.21 12.0523 22.21 11.5C22.21 10.9477 21.7623 10.5 21.21 10.5ZM21.21 8.5C21.7623 8.5 22.21 8.05229 22.21 7.5C22.21 6.94772 21.7623 6.5 21.21 6.5H18.21C17.6577 6.5 17.21 6.94772 17.21 7.5C17.21 8.05229 17.6577 8.5 18.21 8.5H21.21Z" fill="#171E2B"/>
</svg>
