<svg width="24" height="24" viewBox="0 0 24 24" fill="none" xmlns="http://www.w3.org/2000/svg">
<path fill-rule="evenodd" clip-rule="evenodd" d="M22 9.6699C21.871 9.29621 21.5339 9.0336 21.14 8.9999L15.45 8.1699L12.9 2.9999C12.7329 2.65491 12.3834 2.43579 12 2.43579C11.6167 2.43579 11.2671 2.65491 11.1 2.9999L8.55003 8.1599L2.86003 8.9999C2.48246 9.05357 2.16828 9.31732 2.05003 9.6799C1.94192 10.0338 2.03809 10.4185 2.30003 10.6799L6.43003 14.6799L5.43003 20.3599C5.34756 20.7448 5.49855 21.1422 5.81576 21.3753C6.13297 21.6084 6.55739 21.6336 6.90003 21.4399L12 18.7699L17.1 21.4399C17.2404 21.5191 17.3989 21.5604 17.56 21.5599C17.7719 21.5607 17.9785 21.4941 18.15 21.3699C18.4668 21.143 18.6229 20.7527 18.55 20.3699L17.55 14.6899L21.68 10.6899C21.9747 10.4402 22.0993 10.0432 22 9.6699ZM15.85 13.6699C15.6151 13.8981 15.5068 14.2268 15.56 14.5499L16.28 18.7499L12.52 16.7499C12.2238 16.6034 11.8762 16.6034 11.58 16.7499L7.82001 18.7499L8.54001 14.5499C8.59327 14.2268 8.48494 13.8981 8.25001 13.6699L5.25001 10.6699L9.46001 10.0599C9.78896 10.0141 10.0737 9.80806 10.22 9.5099L12 5.6999L13.88 9.5199C14.0263 9.81806 14.3111 10.0241 14.64 10.0699L18.85 10.6799L15.85 13.6699Z" fill="#171E2B"/>
</svg>
