<svg width="24" height="24" viewBox="0 0 24 24" fill="none" xmlns="http://www.w3.org/2000/svg">
<path fill-rule="evenodd" clip-rule="evenodd" d="M22 1.00002H15C13.8184 0.99518 12.8031 1.83774 12.59 3.00002L11.67 8.05002C11.5413 8.7623 11.7354 9.49497 12.2 10.05C12.667 10.6052 13.3545 10.927 14.08 10.93H17L16.75 11.59C16.3755 12.5832 16.5078 13.6964 17.1049 14.574C17.7019 15.4516 18.6887 15.9837 19.75 16C20.1465 16.0032 20.5074 15.7717 20.67 15.41L22.91 10.35C22.961 10.2398 22.9915 10.1212 23 10V2.00002C23 1.44774 22.5523 1.00002 22 1.00002ZM21 9.73003L19.17 13.86C18.9914 13.7629 18.8374 13.626 18.72 13.46C18.4809 13.1216 18.4283 12.6856 18.58 12.3L18.96 11.3C19.1631 10.7732 19.0879 10.1796 18.76 9.72004C18.4373 9.26247 17.9099 8.99318 17.35 9.00004H14.06C13.9256 9.00041 13.7977 8.94195 13.71 8.84004C13.6324 8.7334 13.6 8.60041 13.62 8.47004L14.54 3.47003C14.5313 3.34467 14.5766 3.22157 14.6645 3.13177C14.7524 3.04196 14.8745 2.99402 15 3.00003H21V9.73003ZM9.94 13.05H7.05L7.3 12.39C7.66918 11.391 7.52707 10.2746 6.91938 9.39995C6.31169 8.52527 5.31505 8.00259 4.25 8.00002C3.85348 7.99688 3.49257 8.22834 3.33 8.59002L1.09 13.65C1.0327 13.7757 1.00205 13.9119 1 14.05V22.05C1 22.6023 1.44772 23.05 2 23.05H9C10.1816 23.0549 11.1969 22.2123 11.41 21.05L12.33 16.05C12.4587 15.3377 12.2646 14.6051 11.8 14.05C11.3609 13.4551 10.6784 13.0881 9.94 13.05ZM9.45999 20.6301C9.42442 20.8532 9.22559 21.0131 8.99999 21.0001H2.99999V14.2701L4.82999 10.1401C5.0086 10.2372 5.16254 10.3741 5.27999 10.5401C5.51906 10.8785 5.57168 11.3145 5.41999 11.7001L5.03999 12.7001C4.83693 13.2269 4.91207 13.8205 5.23999 14.2801C5.55826 14.7452 6.08638 15.0224 6.64999 15.0201H9.93999C10.0744 15.0197 10.2023 15.0781 10.29 15.1801C10.3676 15.2867 10.4 15.4197 10.38 15.5501L9.45999 20.6301Z" fill="#171E2B"/>
</svg>
