<svg width="24" height="24" viewBox="0 0 24 24" fill="none" xmlns="http://www.w3.org/2000/svg">
<path fill-rule="evenodd" clip-rule="evenodd" d="M20.71 16.71L18.29 14.29C18.1022 14.1007 17.8466 13.9942 17.58 13.9942C17.3134 13.9942 17.0578 14.1007 16.87 14.29L13.29 17.87C13.1028 18.0587 12.9985 18.3142 13 18.58V21C13 21.5523 13.4477 22 14 22H16.42C16.6858 22.0015 16.9413 21.8972 17.13 21.71L20.71 18.13C20.8993 17.9422 21.0058 17.6866 21.0058 17.42C21.0058 17.1534 20.8993 16.8978 20.71 16.71ZM16 20H15V19L17.58 16.42L18.58 17.42L16 20ZM10 20H6C5.44772 20 5 19.5523 5 19V5C5 4.44772 5.44772 4 6 4H11V7C11 8.65685 12.3431 10 14 10H17V11C17 11.5523 17.4477 12 18 12C18.5523 12 19 11.5523 19 11V9C19 9 19 9 19 8.94C18.9896 8.84813 18.9695 8.75763 18.94 8.67V8.58C18.8919 8.47718 18.8278 8.38266 18.75 8.3L12.75 2.3C12.6673 2.22222 12.5728 2.15808 12.47 2.11C12.4402 2.10576 12.4099 2.10576 12.38 2.11L12.06 2H6C4.34315 2 3 3.34315 3 5V19C3 20.6569 4.34315 22 6 22H10C10.5523 22 11 21.5523 11 21C11 20.4477 10.5523 20 10 20ZM13 5.40997L15.59 7.99997H14C13.4477 7.99997 13 7.55225 13 6.99997V5.40997ZM8 14H14C14.5523 14 15 13.5523 15 13C15 12.4477 14.5523 12 14 12H8C7.44772 12 7 12.4477 7 13C7 13.5523 7.44772 14 8 14ZM8 10H9C9.55229 10 10 9.55229 10 9C10 8.44772 9.55229 8 9 8H8C7.44772 8 7 8.44772 7 9C7 9.55229 7.44772 10 8 10ZM10 16H8C7.44772 16 7 16.4477 7 17C7 17.5522 7.44772 18 8 18H10C10.5523 18 11 17.5522 11 17C11 16.4477 10.5523 16 10 16Z" fill="#171E2B"/>
</svg>
