<svg width="24" height="24" viewBox="0 0 24 24" fill="none" xmlns="http://www.w3.org/2000/svg">
<path fill-rule="evenodd" clip-rule="evenodd" d="M7.49997 10H8.49997C9.05225 10 9.49997 9.55229 9.49997 9C9.49997 8.44772 9.05225 8 8.49997 8H7.49997C6.94768 8 6.49997 8.44772 6.49997 9C6.49997 9.55229 6.94768 10 7.49997 10ZM11.5 16H7.49997C6.94768 16 6.49997 16.4477 6.49997 17C6.49997 17.5522 6.94768 18 7.49997 18H11.5C12.0523 18 12.5 17.5522 12.5 17C12.5 16.4477 12.0523 16 11.5 16ZM11.5 12H7.49997C6.94768 12 6.49997 12.4477 6.49997 13C6.49997 13.5523 6.94768 14 7.49997 14H11.5C12.0523 14 12.5 13.5523 12.5 13C12.5 12.4477 12.0523 12 11.5 12ZM18.42 9.38C18.5766 9.0076 18.4937 8.57756 18.21 8.29L12.21 2.29C12.1273 2.21222 12.0328 2.14808 11.93 2.1C11.9001 2.09576 11.8698 2.09576 11.84 2.1L11.56 2H5.49998C3.84313 2 2.49998 3.34315 2.49998 5V19C2.49998 20.6569 3.84313 22 5.49998 22H11.5C12.0523 22 12.5 21.5523 12.5 21C12.5 20.4477 12.0523 20 11.5 20H5.49998C4.9477 20 4.49998 19.5523 4.49998 19V5C4.49998 4.44772 4.9477 4 5.49998 4H10.5V7C10.5 8.65685 11.8431 10 13.5 10H17.5C17.9037 9.99798 18.2666 9.75343 18.42 9.38ZM13.5 7.99997C12.9477 7.99997 12.5 7.55225 12.5 6.99997V5.40997L15.09 7.99997H13.5ZM20.5 12H15.5C14.9477 12 14.5 12.4477 14.5 13V21C14.501 21.3686 14.7046 21.7068 15.03 21.88C15.3483 22.0435 15.7296 22.0244 16.03 21.83L18 20.53L20 21.83C20.3039 22.0058 20.6776 22.0093 20.9848 21.8394C21.2919 21.6694 21.4875 21.3508 21.5 21V13C21.5 12.4477 21.0523 12 20.5 12ZM19.5 19.12L18.56 18.49C18.2217 18.2613 17.7783 18.2613 17.44 18.49L16.5 19.12V14H19.5V19.12Z" fill="#171E2B"/>
</svg>
