<svg width="24" height="24" viewBox="0 0 24 24" fill="none" xmlns="http://www.w3.org/2000/svg">
<path fill-rule="evenodd" clip-rule="evenodd" d="M12.71 11.29C12.6149 11.199 12.5028 11.1276 12.38 11.08C12.1365 10.98 11.8635 10.98 11.62 11.08C11.4972 11.1276 11.3851 11.199 11.29 11.29L9.29 13.29C8.89788 13.6821 8.89788 14.3179 9.29 14.71C9.68212 15.1021 10.3179 15.1021 10.71 14.71L11 14.41V17C11 17.5523 11.4477 18 12 18C12.5523 18 13 17.5523 13 17V14.41L13.29 14.71C13.4778 14.8993 13.7334 15.0058 14 15.0058C14.2666 15.0058 14.5222 14.8993 14.71 14.71C14.8993 14.5223 15.0058 14.2667 15.0058 14C15.0058 13.7334 14.8993 13.4778 14.71 13.29L12.71 11.29ZM20 8.94C19.9896 8.84813 19.9695 8.75763 19.94 8.67V8.58C19.8919 8.47718 19.8278 8.38266 19.75 8.3L13.75 2.3C13.6673 2.22222 13.5728 2.15808 13.47 2.11H13.37C13.2728 2.058 13.1683 2.02092 13.06 2H7C5.34315 2 4 3.34315 4 5V19C4 20.6569 5.34315 22 7 22H17C18.6569 22 20 20.6569 20 19V9C20 9 20 9 20 8.94ZM14 5.41002L16.59 8.00001H15C14.4477 8.00001 14 7.5523 14 7.00001V5.41002ZM18 19C18 19.5523 17.5523 20 17 20H7.00002C6.44773 20 6.00002 19.5523 6.00002 19V5.00001C6.00002 4.44773 6.44773 4.00002 7.00002 4.00002H12V7.00001C12 8.65687 13.3432 10 15 10H18V19Z" fill="#171E2B"/>
</svg>
