<svg width="24" height="24" viewBox="0 0 24 24" fill="none" xmlns="http://www.w3.org/2000/svg">
<path fill-rule="evenodd" clip-rule="evenodd" d="M15 16H8.99997C8.44768 16 7.99997 16.4477 7.99997 17C7.99997 17.5522 8.44768 18 8.99997 18H15C15.5523 18 16 17.5522 16 17C16 16.4477 15.5523 16 15 16ZM8.99997 10H9.99997C10.5523 10 11 9.55229 11 9C11 8.44772 10.5523 8 9.99997 8H8.99997C8.44768 8 7.99997 8.44772 7.99997 9C7.99997 9.55229 8.44768 10 8.99997 10ZM15 12H8.99997C8.44768 12 7.99997 12.4477 7.99997 13C7.99997 13.5523 8.44768 14 8.99997 14H15C15.5523 14 16 13.5523 16 13C16 12.4477 15.5523 12 15 12ZM19.71 15.29C19.6149 15.199 19.5028 15.1276 19.38 15.08C19.1385 14.9705 18.8615 14.9705 18.62 15.08C18.4972 15.1276 18.3851 15.199 18.29 15.29C18.2017 15.3872 18.1306 15.4988 18.08 15.62C17.9234 15.9924 18.0063 16.4224 18.29 16.71C18.4787 16.8972 18.7342 17.0015 19 17C19.1307 16.9984 19.2598 16.9712 19.38 16.92C19.5012 16.8694 19.6128 16.7983 19.71 16.71C19.9937 16.4224 20.0766 15.9924 19.92 15.62C19.8694 15.4988 19.7983 15.3872 19.71 15.29ZM20 8.94C19.9896 8.84813 19.9695 8.75763 19.94 8.67V8.58C19.8919 8.47718 19.8278 8.38266 19.75 8.3L13.75 2.3C13.6673 2.22222 13.5728 2.15808 13.47 2.11C13.4401 2.10576 13.4098 2.10576 13.38 2.11C13.2784 2.05174 13.1662 2.01434 13.05 2H6.99998C5.34313 2 3.99998 3.34315 3.99998 5V19C3.99998 20.6569 5.34313 22 6.99998 22H15C15.5523 22 16 21.5523 16 21C16 20.4477 15.5523 20 15 20H6.99998C6.4477 20 5.99998 19.5523 5.99998 19V5C5.99998 4.44772 6.4477 4 6.99998 4H12V7C12 8.65685 13.3431 10 15 10H18V12C18 12.5523 18.4477 13 19 13C19.5523 13 20 12.5523 20 12V9C20 9 20 9 20 8.94ZM15 7.99997C14.4477 7.99997 14 7.55225 14 6.99997V5.40997L16.59 7.99997H15ZM19 18C18.4477 18 18 18.4477 18 19V21C18 21.5523 18.4477 22 19 22C19.5523 22 20 21.5523 20 21V19C20 18.4477 19.5523 18 19 18Z" fill="#171E2B"/>
</svg>
