<svg width="24" height="24" viewBox="0 0 24 24" fill="none" xmlns="http://www.w3.org/2000/svg">
<path fill-rule="evenodd" clip-rule="evenodd" d="M8.00001 8C7.44772 8 7.00001 8.44772 7.00001 9C7.00001 9.55229 7.44772 10 8.00001 10H9.00001C9.55229 10 10 9.55229 10 9C10 8.44772 9.55229 8 9.00001 8H8.00001ZM13 20H6C5.44772 20 5 19.5523 5 19V5C5 4.44772 5.44772 4 6 4H11V7C11 8.65685 12.3431 10 14 10H17V15C17 15.5523 17.4477 16 18 16C18.5523 16 19 15.5523 19 15V9C19 9 19 9 19 8.94C18.9896 8.84813 18.9695 8.75763 18.94 8.67V8.58C18.8919 8.47718 18.8278 8.38266 18.75 8.3L12.75 2.3C12.6673 2.22222 12.5728 2.15808 12.47 2.11C12.4369 2.10421 12.4031 2.10421 12.37 2.11C12.2728 2.058 12.1683 2.02092 12.06 2H6C4.34315 2 3 3.34315 3 5V19C3 20.6569 4.34315 22 6 22H13C13.5523 22 14 21.5523 14 21C14 20.4477 13.5523 20 13 20ZM13 5.40997L15.59 7.99997H14C13.4477 7.99997 13 7.55225 13 6.99997V5.40997ZM20 18H16C15.4477 18 15 18.4477 15 19C15 19.5523 15.4477 20 16 20H20C20.5523 20 21 19.5523 21 19C21 18.4477 20.5523 18 20 18ZM13 16H8.00001C7.44772 16 7.00001 16.4477 7.00001 17C7.00001 17.5523 7.44772 18 8.00001 18H13C13.5523 18 14 17.5523 14 17C14 16.4477 13.5523 16 13 16ZM14 12H8.00001C7.44772 12 7.00001 12.4477 7.00001 13C7.00001 13.5523 7.44772 14 8.00001 14H14C14.5523 14 15 13.5523 15 13C15 12.4477 14.5523 12 14 12Z" fill="#171E2B"/>
</svg>
