<svg width="24" height="24" viewBox="0 0 24 24" fill="none" xmlns="http://www.w3.org/2000/svg">
<path fill-rule="evenodd" clip-rule="evenodd" d="M20 18H19V17C19 16.4477 18.5523 16 18 16C17.4477 16 17 16.4477 17 17V18H16C15.4477 18 15 18.4477 15 19C15 19.5523 15.4477 20 16 20H17V21C17 21.5523 17.4477 22 18 22C18.5523 22 19 21.5523 19 21V20H20C20.5523 20 21 19.5523 21 19C21 18.4477 20.5523 18 20 18ZM13 20H6C5.44772 20 5 19.5523 5 19V5C5 4.44772 5.44772 4 6 4H11V7C11 8.65685 12.3431 10 14 10H17V13C17 13.5523 17.4477 14 18 14C18.5523 14 19 13.5523 19 13V9C19 9 19 9 19 8.94C18.9896 8.84813 18.9695 8.75763 18.94 8.67V8.58C18.8919 8.47718 18.8278 8.38266 18.75 8.3L12.75 2.3C12.6673 2.22222 12.5728 2.15808 12.47 2.11C12.4369 2.10421 12.4031 2.10421 12.37 2.11C12.2728 2.058 12.1683 2.02092 12.06 2H6C4.34315 2 3 3.34315 3 5V19C3 20.6569 4.34315 22 6 22H13C13.5523 22 14 21.5523 14 21C14 20.4477 13.5523 20 13 20ZM13 5.41002L15.59 8.00001H14C13.4477 8.00001 13 7.5523 13 7.00001V5.41002ZM7.99998 8C7.4477 8 6.99998 8.44772 6.99998 9C6.99998 9.55228 7.4477 10 7.99998 10H8.99998C9.55227 10 9.99998 9.55228 9.99998 9C9.99998 8.44772 9.55227 8 8.99998 8H7.99998ZM13 16H7.99998C7.4477 16 6.99998 16.4477 6.99998 17C6.99998 17.5523 7.4477 18 7.99998 18H13C13.5523 18 14 17.5523 14 17C14 16.4477 13.5523 16 13 16ZM14 12H7.99998C7.4477 12 6.99998 12.4477 6.99998 13C6.99998 13.5523 7.4477 14 7.99998 14H14C14.5523 14 15 13.5523 15 13C15 12.4477 14.5523 12 14 12Z" fill="#171E2B"/>
</svg>
