<svg width="24" height="24" viewBox="0 0 24 24" fill="none" xmlns="http://www.w3.org/2000/svg">
<path fill-rule="evenodd" clip-rule="evenodd" d="M18 19H6C4.34315 19 3 17.6568 3 16V7.99998C3 7.4477 2.55228 6.99998 2 6.99998C1.44772 6.99998 1 7.4477 1 7.99998V16C1 17.3261 1.52678 18.5978 2.46447 19.5355C3.40215 20.4732 4.67392 21 6 21H18C18.5523 21 19 20.5523 19 20C19 19.4477 18.5523 19 18 19ZM14 11H9.99999C9.44771 11 8.99999 11.4477 8.99999 12C8.99999 12.5523 9.44771 13 9.99999 13H14C14.5523 13 15 12.5523 15 12C15 11.4477 14.5523 11 14 11ZM23 9.94C22.9896 9.84814 22.9695 9.75763 22.94 9.67V9.58C22.8919 9.47718 22.8278 9.38267 22.75 9.3L16.75 3.3C16.6673 3.22222 16.5728 3.15808 16.47 3.11H16.38C16.2784 3.05174 16.1662 3.01434 16.05 3H8.00001C6.34315 3 5.00001 4.34315 5.00001 6V14C5.00001 15.6569 6.34315 17 8.00001 17H20C21.6569 17 23 15.6569 23 14V10C23 10 23 10 23 9.94ZM17 6.41002L19.59 9.00001H18C17.4477 9.00001 17 8.5523 17 8.00001V6.41002ZM21 14C21 14.5523 20.5523 15 20 15H8C7.44772 15 7 14.5523 7 14V6.00002C7 5.44773 7.44772 5.00002 8 5.00002H15V8.00002C15 9.65687 16.3431 11 18 11H21V14ZM9.99999 8.99998H12C12.5523 8.99998 13 8.55227 13 7.99998C13 7.4477 12.5523 6.99998 12 6.99998H9.99999C9.44771 6.99998 8.99999 7.4477 8.99999 7.99998C8.99999 8.55227 9.44771 8.99998 9.99999 8.99998Z" fill="#171E2B"/>
</svg>
