<svg width="24" height="24" viewBox="0 0 24 24" fill="none" xmlns="http://www.w3.org/2000/svg">
<path fill-rule="evenodd" clip-rule="evenodd" d="M12.92 16.62C12.8981 16.5562 12.8679 16.4957 12.83 16.44C12.7931 16.3876 12.753 16.3375 12.71 16.29C12.4224 16.0062 11.9924 15.9234 11.62 16.08C11.4973 16.1276 11.3851 16.1989 11.29 16.29C11.247 16.3375 11.2069 16.3876 11.17 16.44C11.1322 16.4957 11.1019 16.5562 11.08 16.62C11.0512 16.6767 11.031 16.7373 11.02 16.8C11.0156 16.8666 11.0156 16.9334 11.02 17C11.0166 17.1311 11.044 17.2613 11.1 17.38C11.1507 17.5012 11.2217 17.6128 11.31 17.71C11.4938 17.8923 11.7411 17.9963 12 18C12.1312 18.0034 12.2613 17.976 12.38 17.92C12.6312 17.829 12.8291 17.6312 12.92 17.38C12.976 17.2613 13.0034 17.1311 13 17C13.0045 16.9334 13.0045 16.8666 13 16.8C12.9828 16.7362 12.9558 16.6755 12.92 16.62ZM20 8.94C19.9896 8.84813 19.9695 8.75763 19.94 8.67V8.58C19.8919 8.47718 19.8278 8.38266 19.75 8.3L13.75 2.3C13.6673 2.22222 13.5728 2.15808 13.47 2.11H13.38C13.2784 2.05174 13.1662 2.01434 13.05 2H7C5.34315 2 4 3.34315 4 5V19C4 20.6569 5.34315 22 7 22H17C18.6569 22 20 20.6569 20 19V9C20 9 20 9 20 8.94ZM14 5.40997L16.59 7.99997H15C14.4477 7.99997 14 7.55225 14 6.99997V5.40997ZM18 19C18 19.5523 17.5523 20 17 20H6.99999C6.44771 20 5.99999 19.5523 5.99999 19V4.99997C5.99999 4.44768 6.44771 3.99997 6.99999 3.99997H12V6.99997C12 8.65682 13.3431 9.99997 15 9.99997H18V19ZM12 11C11.4477 11 11 11.4477 11 12V14C11 14.5523 11.4477 15 12 15C12.5523 15 13 14.5523 13 14V12C13 11.4477 12.5523 11 12 11Z" fill="#171E2B"/>
</svg>
