<svg width="24" height="24" viewBox="0 0 24 24" fill="none" xmlns="http://www.w3.org/2000/svg">
<path fill-rule="evenodd" clip-rule="evenodd" d="M13.07 12H8.07001C7.51772 12 7.07001 12.4477 7.07001 13C7.07001 13.5523 7.51772 14 8.07001 14H13.07C13.6223 14 14.07 13.5523 14.07 13C14.07 12.4477 13.6223 12 13.07 12ZM14.07 20H6.07C5.51771 20 5.07 19.5523 5.07 19V5C5.07 4.44772 5.51771 4 6.07 4H11.07V7C11.07 8.65685 12.4131 10 14.07 10H17.07V11C17.07 11.5523 17.5177 12 18.07 12C18.6223 12 19.07 11.5523 19.07 11V9C19.0743 8.98023 19.0743 8.95976 19.07 8.94C19.0615 8.84679 19.0379 8.75559 19 8.67V8.58C18.9519 8.47718 18.8878 8.38266 18.81 8.3L12.81 2.3C12.7251 2.22026 12.627 2.15597 12.52 2.11C12.52 2.11 12.47 2.11 12.44 2.11C12.3414 2.05298 12.2328 2.01562 12.12 2H6.12C4.46314 2 3.12 3.34315 3.12 5V19C3.12 20.6569 4.46314 22 6.12 22H14.12C14.6723 22 15.12 21.5523 15.12 21C15.12 20.4477 14.6723 20 14.12 20H14.07ZM13.07 5.41002L15.65 8.00001H14.07C13.5177 8.00001 13.07 7.5523 13.07 7.00001V5.41002ZM18.64 20.29C18.5925 20.247 18.5424 20.2069 18.49 20.17C18.3801 20.0986 18.2581 20.0478 18.13 20.02C17.8038 19.9547 17.4664 20.0559 17.23 20.29C17.0407 20.4778 16.9342 20.7334 16.9342 21C16.9342 21.2667 17.0407 21.5223 17.23 21.71C17.4163 21.8948 17.6677 21.9989 17.93 22C18.2644 22.0017 18.5774 21.8362 18.7643 21.5589C18.9511 21.2816 18.9871 20.9293 18.86 20.62C18.8056 20.4985 18.7313 20.3869 18.64 20.29ZM13.07 16H8.07001C7.51772 16 7.07001 16.4477 7.07001 17C7.07001 17.5523 7.51772 18 8.07001 18H13.07C13.6223 18 14.07 17.5523 14.07 17C14.07 16.4477 13.6223 16 13.07 16ZM17.93 13C16.8575 12.9993 15.8662 13.5712 15.33 14.5C15.0539 14.9805 15.2195 15.5939 15.7 15.87C16.1805 16.1462 16.7939 15.9805 17.07 15.5C17.313 15.0791 17.8235 14.8939 18.2799 15.061C18.7363 15.2282 19.0064 15.6993 18.9201 16.1776C18.8338 16.656 18.416 17.0029 17.93 17C17.3777 17 16.93 17.4477 16.93 18C16.93 18.5523 17.3777 19 17.93 19C19.5869 19 20.93 17.6569 20.93 16C20.93 14.3432 19.5869 13 17.93 13ZM8.07001 10H9.07001C9.6223 10 10.07 9.55228 10.07 9C10.07 8.44772 9.6223 8 9.07001 8H8.07001C7.51773 8 7.07001 8.44772 7.07001 9C7.07001 9.55228 7.51773 10 8.07001 10Z" fill="#171E2B"/>
</svg>
