<svg width="24" height="24" viewBox="0 0 24 24" fill="none" xmlns="http://www.w3.org/2000/svg">
<path fill-rule="evenodd" clip-rule="evenodd" d="M8 8C7.44772 8 7 8.44772 7 9C7 9.55229 7.44772 10 8 10H9C9.55229 10 10 9.55229 10 9C10 8.44772 9.55229 8 9 8H8ZM13 20H6C5.44772 20 5 19.5523 5 19V5C5 4.44772 5.44772 4 6 4H11V7C11 8.65685 12.3431 10 14 10H17V12C17 12.5523 17.4477 13 18 13C18.5523 13 19 12.5523 19 12V9C19 9 19 9 19 8.94C18.9896 8.84813 18.9695 8.75763 18.94 8.67V8.58C18.8919 8.47718 18.8278 8.38266 18.75 8.3L12.75 2.3C12.6673 2.22222 12.5728 2.15808 12.47 2.11C12.4369 2.10421 12.4031 2.10421 12.37 2.11C12.2728 2.058 12.1683 2.02092 12.06 2H6C4.34315 2 3 3.34315 3 5V19C3 20.6569 4.34315 22 6 22H13C13.5523 22 14 21.5523 14 21C14 20.4477 13.5523 20 13 20ZM13 5.40997L15.59 7.99997H14C13.4477 7.99997 13 7.55225 13 6.99997V5.40997ZM14 12H8C7.44772 12 7 12.4477 7 13C7 13.5523 7.44772 14 8 14H14C14.5523 14 15 13.5523 15 13C15 12.4477 14.5523 12 14 12ZM20.71 18.29C20.5222 18.1007 20.2666 17.9942 20 17.9942C19.7334 17.9942 19.4778 18.1007 19.29 18.29L19 18.59V16C19 15.4477 18.5523 15 18 15C17.4477 15 17 15.4477 17 16V18.59L16.71 18.29C16.3179 17.8979 15.6821 17.8979 15.29 18.29C14.8979 18.6822 14.8979 19.3179 15.29 19.71L17.29 21.71C17.3851 21.8011 17.4972 21.8724 17.62 21.92C17.862 22.027 18.138 22.027 18.38 21.92C18.5028 21.8724 18.6149 21.8011 18.71 21.71L20.71 19.71C20.8993 19.5223 21.0058 19.2667 21.0058 19C21.0058 18.7334 20.8993 18.4778 20.71 18.29ZM12 18C12.5523 18 13 17.5522 13 17C13 16.4477 12.5523 16 12 16H8C7.44772 16 7 16.4477 7 17C7 17.5522 7.44772 18 8 18H12Z" fill="#171E2B"/>
</svg>
