<svg width="24" height="24" viewBox="0 0 24 24" fill="none" xmlns="http://www.w3.org/2000/svg">
<path fill-rule="evenodd" clip-rule="evenodd" d="M13 20H6C5.44772 20 5 19.5523 5 19V5C5 4.44772 5.44772 4 6 4H11V7C11 8.65685 12.3431 10 14 10H17V12C17 12.5523 17.4477 13 18 13C18.5523 13 19 12.5523 19 12V9C19 9 19 9 19 8.94C18.9896 8.84813 18.9695 8.75763 18.94 8.67V8.58C18.8919 8.47718 18.8278 8.38266 18.75 8.3L12.75 2.3C12.6673 2.22222 12.5728 2.15808 12.47 2.11C12.4402 2.10576 12.4099 2.10576 12.38 2.11C12.2784 2.05174 12.1662 2.01434 12.05 2H6C4.34315 2 3 3.34315 3 5V19C3 20.6569 4.34315 22 6 22H13C13.5523 22 14 21.5523 14 21C14 20.4477 13.5523 20 13 20ZM13 5.41002L15.59 8.00001H14C13.4477 8.00001 13 7.5523 13 7.00001V5.41002ZM7.99998 8C7.4477 8 6.99998 8.44772 6.99998 9C6.99998 9.55228 7.4477 10 7.99998 10H8.99998C9.55227 10 9.99998 9.55228 9.99998 9C9.99998 8.44772 9.55227 8 8.99998 8H7.99998ZM14 12H7.99998C7.4477 12 6.99998 12.4477 6.99998 13C6.99998 13.5523 7.4477 14 7.99998 14H14C14.5523 14 15 13.5523 15 13C15 12.4477 14.5523 12 14 12ZM20.71 17.29L18.71 15.29C18.6149 15.199 18.5027 15.1276 18.38 15.08C18.1365 14.98 17.8634 14.98 17.62 15.08C17.4972 15.1276 17.3851 15.199 17.29 15.29L15.29 17.29C14.8979 17.6821 14.8979 18.3179 15.29 18.71C15.6821 19.1021 16.3179 19.1021 16.71 18.71L17 18.41V21C17 21.5523 17.4477 22 18 22C18.5523 22 19 21.5523 19 21V18.41L19.29 18.71C19.4777 18.8993 19.7333 19.0058 20 19.0058C20.2666 19.0058 20.5222 18.8993 20.71 18.71C20.8993 18.5222 21.0058 18.2666 21.0058 18C21.0058 17.7334 20.8993 17.4778 20.71 17.29ZM12 18C12.5523 18 13 17.5523 13 17C13 16.4477 12.5523 16 12 16H7.99998C7.4477 16 6.99998 16.4477 6.99998 17C6.99998 17.5523 7.4477 18 7.99998 18H12Z" fill="#171E2B"/>
</svg>
