<svg width="24" height="24" viewBox="0 0 24 24" fill="none" xmlns="http://www.w3.org/2000/svg">
<path fill-rule="evenodd" clip-rule="evenodd" d="M12.57 17.29C12.18 16.9023 11.55 16.9023 11.16 17.29C11.0666 17.3852 10.9919 17.4971 10.94 17.62C10.847 17.8648 10.847 18.1352 10.94 18.38C10.9944 18.5015 11.0687 18.6131 11.16 18.71C11.2522 18.7999 11.3608 18.8713 11.48 18.92C11.6033 18.9725 11.736 18.9997 11.87 19C12.2026 18.9983 12.5126 18.8314 12.6971 18.5547C12.8816 18.278 12.9164 17.9276 12.79 17.62C12.7418 17.4952 12.6667 17.3825 12.57 17.29ZM20 8.94C19.9896 8.84813 19.9695 8.75763 19.94 8.67V8.58C19.8919 8.47718 19.8278 8.38266 19.75 8.3L13.75 2.3C13.6673 2.22222 13.5728 2.15808 13.47 2.11H13.38C13.2784 2.05174 13.1662 2.01434 13.05 2H7C5.34315 2 4 3.34315 4 5V19C4 20.6569 5.34315 22 7 22H17C18.6569 22 20 20.6569 20 19V9C20 9 20 9 20 8.94ZM14 5.41002L16.59 8.00001H15C14.4477 8.00001 14 7.5523 14 7.00001V5.41002ZM18 19C18 19.5523 17.5523 20 17 20H7.00002C6.44773 20 6.00002 19.5523 6.00002 19V5.00001C6.00002 4.44773 6.44773 4.00002 7.00002 4.00002H12V7.00001C12 8.65687 13.3432 10 15 10H18V19ZM11.87 10C10.7975 9.99933 9.80624 10.5712 9.27 11.5C9.07294 11.81 9.06169 12.2031 9.2407 12.5238C9.41971 12.8446 9.76016 13.0414 10.1274 13.0364C10.4947 13.0314 10.8297 12.8255 11 12.5C11.1793 12.1894 11.5113 11.9986 11.87 12C12.4223 12 12.87 12.4477 12.87 13C12.87 13.5523 12.4223 14 11.87 14C11.3177 14 10.87 14.4477 10.87 15C10.87 15.5523 11.3177 16 11.87 16C13.5269 16 14.87 14.6569 14.87 13C14.87 11.3432 13.5269 10 11.87 10Z" fill="#171E2B"/>
</svg>
