<svg width="24" height="24" viewBox="0 0 24 24" fill="none" xmlns="http://www.w3.org/2000/svg">
<path fill-rule="evenodd" clip-rule="evenodd" d="M10.5 20H5.50002C4.94773 20 4.50002 19.5523 4.50002 19V5C4.50002 4.44772 4.94773 4 5.50002 4H10.5V7C10.5 8.65685 11.8432 10 13.5 10H16.5C16.5 10.5523 16.9477 11 17.5 11C18.0523 11 18.5 10.5523 18.5 10V9C18.5 9 18.5 9 18.5 8.94C18.4896 8.84813 18.4695 8.75763 18.44 8.67V8.58C18.3919 8.47718 18.3278 8.38266 18.25 8.3L12.25 2.3C12.1674 2.22222 12.0728 2.15808 11.97 2.11C11.9402 2.10576 11.9099 2.10576 11.88 2.11L11.56 2H5.50002C3.84316 2 2.50002 3.34315 2.50002 5V19C2.50002 20.6569 3.84316 22 5.50002 22H10.5C11.0523 22 11.5 21.5523 11.5 21C11.5 20.4477 11.0523 20 10.5 20ZM12.5 5.41002L15.09 8.00001H13.5C12.9477 8.00001 12.5 7.5523 12.5 7.00001V5.41002ZM7.50002 8C6.94774 8 6.50002 8.44772 6.50002 9C6.50002 9.55228 6.94774 10 7.50002 10H8.50002C9.05231 10 9.50002 9.55228 9.50002 9C9.50002 8.44772 9.05231 8 8.50002 8H7.50002ZM21.13 13.86C20.8947 13.6697 20.5858 13.5961 20.29 13.66C19.5232 13.8216 18.7238 13.6508 18.09 13.19C17.7386 12.9332 17.2614 12.9332 16.91 13.19C16.2756 13.6496 15.4768 13.8203 14.71 13.66C14.4108 13.5957 14.0986 13.6719 13.8627 13.8668C13.6268 14.0618 13.4932 14.354 13.5 14.66V17C13.4969 18.4514 14.1789 19.8192 15.34 20.69L16.9 21.8C17.2556 22.0667 17.7445 22.0667 18.1 21.8L19.66 20.64C20.8071 19.7797 21.4875 18.4338 21.5 17V14.63C21.498 14.3309 21.3623 14.0484 21.13 13.86ZM19.5 17C19.5096 17.8142 19.14 18.5866 18.5 19.09L17.5 19.81L16.5 19.09C15.86 18.5866 15.4905 17.8142 15.5 17V15.72C16.1994 15.6886 16.8829 15.5006 17.5 15.17C18.1171 15.5006 18.8006 15.6886 19.5 15.72V17ZM10.5 16.05H7.50002C6.94774 16.05 6.50002 16.4977 6.50002 17.05C6.50002 17.6023 6.94774 18.05 7.50002 18.05H10.5C11.0523 18.05 11.5 17.6023 11.5 17.05C11.5 16.4977 11.0523 16.05 10.5 16.05ZM11.5 12.05H7.50002C6.94774 12.05 6.50002 12.4977 6.50002 13.05C6.50002 13.6023 6.94774 14.05 7.50002 14.05H11.5C12.0523 14.05 12.5 13.6023 12.5 13.05C12.5 12.4977 12.0523 12.05 11.5 12.05Z" fill="#171E2B"/>
</svg>
