<svg width="24" height="24" viewBox="0 0 24 24" fill="none" xmlns="http://www.w3.org/2000/svg">
<path fill-rule="evenodd" clip-rule="evenodd" d="M23 9.94C22.9896 9.84813 22.9694 9.75763 22.94 9.67V9.58C22.8919 9.47718 22.8278 9.38266 22.75 9.3L16.75 3.3C16.6673 3.22222 16.5728 3.15808 16.47 3.11H16.38C16.2784 3.05174 16.1662 3.01434 16.05 3H7.99997C6.34311 3 4.99997 4.34315 4.99997 6V7H3.99997C2.34312 7 0.999969 8.34315 0.999969 10V18C0.999969 19.6569 2.34312 21 3.99997 21H16C17.6568 21 19 19.6569 19 18V17H20C21.6568 17 23 15.6569 23 14V10C23 10 23 10 23 9.94ZM17 6.41002L19.59 9.00001H18C17.4477 9.00001 17 8.5523 17 8.00001V6.41002ZM17 18C17 18.5523 16.5523 19 16 19H3.99998C3.4477 19 2.99998 18.5523 2.99998 18V10C2.99998 9.44771 3.4477 9 3.99998 9H4.99999V14C4.99999 15.6569 6.34313 17 7.99999 17H17V18ZM21 14C21 14.5523 20.5523 15 20 15H7.99997C7.44768 15 6.99997 14.5523 6.99997 14V6.00002C6.99997 5.44773 7.44768 5.00002 7.99997 5.00002H15V8.00002C15 9.65687 16.3431 11 18 11H21V14Z" fill="#171E2B"/>
</svg>
