<svg width="24" height="24" viewBox="0 0 24 24" fill="none" xmlns="http://www.w3.org/2000/svg">
<path fill-rule="evenodd" clip-rule="evenodd" d="M20 8.94C19.9896 8.84813 19.9695 8.75763 19.94 8.67V8.58C19.8919 8.47718 19.8278 8.38266 19.75 8.3L13.75 2.3C13.6673 2.22222 13.5728 2.15808 13.47 2.11H13.38C13.2784 2.05174 13.1662 2.01434 13.05 2H7C5.34315 2 4 3.34315 4 5V19C4 20.6569 5.34315 22 7 22H17C18.6569 22 20 20.6569 20 19V9C20 9 20 9 20 8.94ZM14 5.40997L16.59 7.99997H15C14.4477 7.99997 14 7.55225 14 6.99997V5.40997ZM18 19C18 19.5523 17.5523 20 17 20H6.99999C6.44771 20 5.99999 19.5523 5.99999 19V4.99997C5.99999 4.44768 6.44771 3.99997 6.99999 3.99997H12V6.99997C12 8.65682 13.3431 9.99997 15 9.99997H18V19Z" fill="#171E2B"/>
</svg>
