<svg width="24" height="24" viewBox="0 0 24 24" fill="none" xmlns="http://www.w3.org/2000/svg">
<path fill-rule="evenodd" clip-rule="evenodd" d="M20 8.94C19.9896 8.84813 19.9695 8.75763 19.94 8.67V8.58C19.8919 8.47718 19.8278 8.38266 19.75 8.3L13.75 2.3C13.6673 2.22222 13.5728 2.15808 13.47 2.11C13.4401 2.10576 13.4098 2.10576 13.38 2.11C13.2784 2.05174 13.1662 2.01434 13.05 2H6.99998C5.34313 2 3.99998 3.34315 3.99998 5V19C3.99998 20.6569 5.34313 22 6.99998 22H17C18.6568 22 20 20.6569 20 19V9C20 9 20 9 20 8.94ZM14 5.40997L16.59 7.99997H15C14.4477 7.99997 14 7.55225 14 6.99997V5.40997ZM18 19C18 19.5523 17.5523 20 17 20H7C6.44772 20 6 19.5523 6 19V4.99997C6 4.44768 6.44772 3.99997 7 3.99997H12V6.99997C12 8.65682 13.3431 9.99997 15 9.99997H18V19ZM14 14H13V13C13 12.4477 12.5523 12 12 12C11.4477 12 11 12.4477 11 13V14H10C9.44772 14 9 14.4477 9 15C9 15.5523 9.44772 16 10 16H11V17C11 17.5523 11.4477 18 12 18C12.5523 18 13 17.5523 13 17V16H14C14.5523 16 15 15.5523 15 15C15 14.4477 14.5523 14 14 14Z" fill="#171E2B"/>
</svg>
