<svg width="24" height="24" viewBox="0 0 24 24" fill="none" xmlns="http://www.w3.org/2000/svg">
<path fill-rule="evenodd" clip-rule="evenodd" d="M14 13C14 12.4477 13.5523 12 13 12H8.00001C7.44772 12 7.00001 12.4477 7.00001 13C7.00001 13.5523 7.44772 14 8.00001 14H13C13.5523 14 14 13.5523 14 13ZM11 20H6C5.44772 20 5 19.5523 5 19V5C5 4.44772 5.44772 4 6 4H11V7C11 8.65685 12.3431 10 14 10H17V11C17 11.5523 17.4477 12 18 12C18.5523 12 19 11.5523 19 11V9C19 9 19 9 19 8.94C18.9907 8.84796 18.9705 8.75734 18.94 8.67V8.58C18.8945 8.47572 18.8301 8.38078 18.75 8.3L12.75 2.3C12.6673 2.22222 12.5728 2.15808 12.47 2.11H12.38C12.2817 2.0525 12.1729 2.01511 12.06 2H6C4.34315 2 3 3.34315 3 5V19C3 20.6569 4.34315 22 6 22H11C11.5523 22 12 21.5523 12 21C12 20.4477 11.5523 20 11 20ZM13 5.41002L15.59 8.00001H14C13.4477 8.00001 13 7.5523 13 7.00001V5.41002ZM20 14C19.6047 14.0026 19.2481 14.2377 19.09 14.6C18.4606 14.2141 17.7382 14.0067 17 14C15.2199 13.9974 13.6523 15.1716 13.1541 16.8806C12.6559 18.5895 13.347 20.4221 14.8497 21.3765C16.3524 22.3309 18.3049 22.1774 19.64 21C20.057 20.6355 20.0995 20.002 19.735 19.585C19.3705 19.168 18.737 19.1255 18.32 19.49C17.9568 19.8152 17.4874 19.9965 17 20C16.1678 19.9866 15.4308 19.4591 15.1497 18.6757C14.8686 17.8922 15.1021 17.0166 15.736 16.4771C16.3699 15.9377 17.2716 15.8472 18 16.25H17.78C17.2277 16.25 16.78 16.6977 16.78 17.25C16.78 17.8023 17.2277 18.25 17.78 18.25H20C20.5523 18.25 21 17.8023 21 17.25V15C21 14.4477 20.5523 14 20 14ZM8.00001 10H9.00001C9.55229 10 10 9.55228 10 9C10 8.44772 9.55229 8 9.00001 8H8.00001C7.44772 8 7.00001 8.44772 7.00001 9C7.00001 9.55228 7.44772 10 8.00001 10ZM8.00001 16C7.44772 16 7.00001 16.4477 7.00001 17C7.00001 17.5523 7.44772 18 8.00001 18H10C10.5523 18 11 17.5523 11 17C11 16.4477 10.5523 16 10 16H8.00001Z" fill="#171E2B"/>
</svg>
