<svg width="24" height="24" viewBox="0 0 24 24" fill="none" xmlns="http://www.w3.org/2000/svg">
<path fill-rule="evenodd" clip-rule="evenodd" d="M16 20H8C6.34315 20 5 18.6569 5 17V7.00003C5 6.44775 4.55229 6.00003 4 6.00003C3.44772 6.00003 3 6.44775 3 7.00003V17C3 19.7615 5.23858 22 8 22H16C16.5523 22 17 21.5523 17 21C17 20.4477 16.5523 20 16 20ZM10 13C10 13.5523 10.4477 14 11 14H16C16.5523 14 17 13.5523 17 13C17 12.4477 16.5523 12 16 12H11C10.4477 12 10 12.4477 10 13ZM21 8.94C20.9896 8.84813 20.9695 8.75763 20.94 8.67V8.58C20.8919 8.47718 20.8278 8.38266 20.75 8.3L14.75 2.3C14.6673 2.22222 14.5728 2.15808 14.47 2.11C14.4401 2.10576 14.4098 2.10576 14.38 2.11C14.2784 2.05174 14.1662 2.01434 14.05 2H9.99998C8.34313 2 6.99998 3.34315 6.99998 5V15C6.99998 16.6569 8.34313 18 9.99998 18H18C19.6568 18 21 16.6569 21 15V9C21 9 21 9 21 8.94ZM15 5.40997L17.59 7.99997H16C15.4477 7.99997 15 7.55225 15 6.99997V5.40997ZM19 15C19 15.5523 18.5523 16 18 16H10C9.44771 16 9 15.5523 9 15V4.99997C9 4.44768 9.44771 3.99997 10 3.99997H13V6.99997C13.0027 7.34111 13.0636 7.67929 13.18 7.99997H11C10.4477 7.99997 10 8.44768 10 8.99997C10 9.55225 10.4477 9.99997 11 9.99997H19V15Z" fill="#171E2B"/>
</svg>
