<svg width="24" height="24" viewBox="0 0 24 24" fill="none" xmlns="http://www.w3.org/2000/svg">
<path fill-rule="evenodd" clip-rule="evenodd" d="M21.71 20.2899L3.71 2.28994C3.31788 1.89782 2.68212 1.89782 2.29 2.28994C1.89788 2.68206 1.89788 3.31782 2.29 3.70994L4 5.40994V18.9999C4 20.6568 5.34315 21.9999 7 21.9999H17C17.9408 21.9968 18.8256 21.5525 19.39 20.7999L20.29 21.7099C20.4778 21.8993 20.7334 22.0057 21 22.0057C21.2666 22.0057 21.5222 21.8993 21.71 21.7099C21.8993 21.5222 22.0058 21.2666 22.0058 20.9999C22.0058 20.7333 21.8993 20.4777 21.71 20.2899ZM17 19.9999H7C6.44772 19.9999 6 19.5522 6 18.9999V7.40994L17.93 19.3399C17.7881 19.7325 17.4174 19.9956 17 19.9999ZM8.66001 3.99996H12V6.99996C12 8.65681 13.3432 9.99996 15 9.99996H18V13.34C18 13.8922 18.4477 14.34 19 14.34C19.5523 14.34 20 13.8922 20 13.34V8.99996C20 8.99996 20 8.99996 20 8.93996C19.9896 8.84809 19.9695 8.75759 19.94 8.66996V8.57996C19.8919 8.47714 19.8278 8.38262 19.75 8.29996L13.75 2.29996C13.6673 2.22217 13.5728 2.15804 13.47 2.10996H13.38L13.06 1.99996H8.66001C8.10772 1.99996 7.66001 2.44767 7.66001 2.99996C7.66001 3.55224 8.10772 3.99996 8.66001 3.99996ZM14 5.40992L16.59 7.99993H15C14.4477 7.99993 14 7.55221 14 6.99993V5.40992Z" fill="#171E2B"/>
</svg>
