<svg width="24" height="24" viewBox="0 0 24 24" fill="none" xmlns="http://www.w3.org/2000/svg">
<path fill-rule="evenodd" clip-rule="evenodd" d="M22 10.94C21.9896 10.8481 21.9695 10.7576 21.94 10.67V10.58C21.8919 10.4772 21.8278 10.3826 21.75 10.3L15.75 4.29997C15.6674 4.22219 15.5728 4.15806 15.47 4.10997H15.38C15.2784 4.05172 15.1662 4.01432 15.05 3.99997H10.66C10.1077 3.99997 9.66003 4.44769 9.66003 4.99997C9.66003 5.55226 10.1077 5.99997 10.66 5.99997H14V8.99998C14 10.6568 15.3432 12 17 12H20V15.34C20 15.8923 20.4477 16.34 21 16.34C21.5523 16.34 22 15.8923 22 15.34V11C22 11 22 11 22 10.94ZM17 9.99995C16.4478 9.99995 16 9.55223 16 8.99995V7.40994L18.59 9.99995H17ZM3.71002 2.28996C3.45637 2.03631 3.08665 1.93724 2.74015 2.03009C2.39364 2.12293 2.12299 2.39358 2.03015 2.74009C1.9373 3.08659 2.03637 3.45631 2.29003 3.70996L3.20003 4.60996C2.44742 5.17441 2.00316 6.05921 2.00003 6.99996V17C2.00003 18.6568 3.34317 20 5.00003 20H18.59L20.29 21.71C20.4778 21.8993 20.7334 22.0058 21 22.0058C21.2667 22.0058 21.5223 21.8993 21.71 21.71C21.8993 21.5222 22.0058 21.2666 22.0058 21C22.0058 20.7333 21.8993 20.4777 21.71 20.29L3.71002 2.28996ZM5.00003 18C4.44775 18 4.00004 17.5523 4.00004 17V6.99998C4.00439 6.58262 4.26751 6.21186 4.66003 6.06998L16.59 18H5.00003Z" fill="#171E2B"/>
</svg>
