<svg width="24" height="24" viewBox="0 0 24 24" fill="none" xmlns="http://www.w3.org/2000/svg">
<path fill-rule="evenodd" clip-rule="evenodd" d="M11.5 20H5.5C4.94772 20 4.5 19.5523 4.5 19V5C4.5 4.44772 4.94772 4 5.5 4H10.5V7C10.5 8.65685 11.8431 10 13.5 10H16.5V15C16.5 15.5523 16.9477 16 17.5 16C18.0523 16 18.5 15.5523 18.5 15V9C18.5 9 18.5 9 18.5 8.94C18.4896 8.84813 18.4695 8.75763 18.44 8.67V8.58C18.3919 8.47718 18.3278 8.38266 18.25 8.3L12.25 2.3C12.1673 2.22222 12.0728 2.15808 11.97 2.11C11.9369 2.10421 11.9031 2.10421 11.87 2.11C11.7728 2.058 11.6683 2.02092 11.56 2H5.5C3.84315 2 2.5 3.34315 2.5 5V19C2.5 20.6569 3.84315 22 5.5 22H11.5C12.0523 22 12.5 21.5523 12.5 21C12.5 20.4477 12.0523 20 11.5 20ZM12.5 5.40997L15.09 7.99997H13.5C12.9477 7.99997 12.5 7.55225 12.5 6.99997V5.40997ZM7.49998 14H13.5C14.0523 14 14.5 13.5523 14.5 13C14.5 12.4477 14.0523 12 13.5 12H7.49998C6.9477 12 6.49998 12.4477 6.49998 13C6.49998 13.5523 6.9477 14 7.49998 14ZM11.5 16H7.49998C6.9477 16 6.49998 16.4477 6.49998 17C6.49998 17.5522 6.9477 18 7.49998 18H11.5C12.0523 18 12.5 17.5522 12.5 17C12.5 16.4477 12.0523 16 11.5 16ZM7.49998 10H8.49998C9.05227 10 9.49998 9.55229 9.49998 9C9.49998 8.44772 9.05227 8 8.49998 8H7.49998C6.9477 8 6.49998 8.44772 6.49998 9C6.49998 9.55229 6.9477 10 7.49998 10ZM21.21 16.29C21.0223 16.1007 20.7667 15.9942 20.5 15.9942C20.2334 15.9942 19.9778 16.1007 19.79 16.29L16.5 19.59L15.21 18.29C14.9564 18.0363 14.5866 17.9373 14.2401 18.0301C13.8936 18.1229 13.623 18.3936 13.5301 18.7401C13.4373 19.0866 13.5364 19.4563 13.79 19.71L15.79 21.71C15.9778 21.8993 16.2334 22.0058 16.5 22.0058C16.7667 22.0058 17.0223 21.8993 17.21 21.71L21.21 17.71C21.3993 17.5222 21.5058 17.2666 21.5058 17C21.5058 16.7333 21.3993 16.4777 21.21 16.29Z" fill="#171E2B"/>
</svg>
