<svg width="24" height="24" viewBox="0 0 24 24" fill="none" xmlns="http://www.w3.org/2000/svg">
<path fill-rule="evenodd" clip-rule="evenodd" d="M21 19H14.82C14.5176 18.1507 13.8493 17.4824 13 17.18V15H16C17.6569 15 19 13.6569 19 12V8C19 8 19 8 19 7.94C18.9896 7.84813 18.9695 7.75763 18.94 7.67V7.58C18.8919 7.47718 18.8278 7.38267 18.75 7.3L12.75 1.3C12.6674 1.22222 12.5728 1.15808 12.47 1.11C12.4402 1.10576 12.4099 1.10576 12.38 1.11C12.2784 1.05174 12.1662 1.01434 12.05 1H8.00002C6.34316 1 5.00002 2.34315 5.00002 4V12C5.00002 13.6569 6.34316 15 8.00002 15H11V17.18C10.1507 17.4824 9.4824 18.1507 9.18002 19H3.00002C2.44773 19 2.00002 19.4477 2.00002 20C2.00002 20.5523 2.44773 21 3.00002 21H9.18002C9.61064 22.1865 10.7378 22.9765 12 22.9765C13.2622 22.9765 14.3894 22.1865 14.82 21H21C21.5523 21 22 20.5523 22 20C22 19.4477 21.5523 19 21 19ZM13 4.40997L15.59 6.99997H14C13.4477 6.99997 13 6.55225 13 5.99997V4.40997ZM8.00003 13C7.44775 13 7.00003 12.5523 7.00003 12V3.99997C7.00003 3.44768 7.44775 2.99997 8.00003 2.99997H11V5.99997C11 7.65682 12.3432 8.99997 14 8.99997H17V12C17 12.5523 16.5523 13 16 13H8.00003ZM12 21C11.4477 21 11 20.5523 11 20C11 19.4477 11.4477 19 12 19C12.5523 19 13 19.4477 13 20C13 20.5523 12.5523 21 12 21Z" fill="#171E2B"/>
</svg>
