<svg width="24" height="24" viewBox="0 0 24 24" fill="none" xmlns="http://www.w3.org/2000/svg">
<path fill-rule="evenodd" clip-rule="evenodd" d="M21.71 20.29L20 18.56C20 18.45 20 18.35 20 18.25C20 17.5207 19.7103 16.8212 19.1945 16.3055C18.6788 15.7897 17.9793 15.5 17.25 15.5H16.91L15.47 14.06C15.5579 14.0201 15.6534 13.9996 15.75 14H19C19.5523 14 20 13.5523 20 13C20 12.4477 19.5523 12 19 12H17.5V11C17.5 10.4477 17.0523 10 16.5 10C15.9477 10 15.5 10.4477 15.5 11V12C14.9626 12.0477 14.4512 12.2529 14.03 12.59L12.71 11.26C12.3179 10.8679 11.6821 10.8679 11.29 11.26C10.8979 11.6521 10.8979 12.2879 11.29 12.68L13 14.44C13 14.55 13 14.65 13 14.75C13 16.2688 14.2312 17.5 15.75 17.5H16.09L17.53 18.94C17.4421 18.9799 17.3466 19.0004 17.25 19H14C13.4477 19 13 19.4477 13 20C13 20.5523 13.4477 21 14 21H15.5V22C15.5 22.5523 15.9477 23 16.5 23C17.0523 23 17.5 22.5523 17.5 22V21C18.0511 20.9496 18.5741 20.7334 19 20.38L20.32 21.71C20.5077 21.8993 20.7633 22.0058 21.03 22.0058C21.2966 22.0058 21.5522 21.8993 21.74 21.71C21.9254 21.5183 22.0265 21.2604 22.0209 20.9937C22.0152 20.7271 21.9033 20.4737 21.71 20.29ZM10 19H5C4.44772 19 4 18.5523 4 18V4C4 3.44772 4.44772 3 5 3H11V7C11 7.55229 11.4477 8 12 8H17C17.4037 7.99798 17.7666 7.75343 17.92 7.38C18.0766 7.0076 17.9937 6.57756 17.71 6.29L12.71 1.29C12.6273 1.21222 12.5328 1.14808 12.43 1.1H12.34C12.2508 1.05615 12.1568 1.0226 12.06 1H5C3.34315 1 2 2.34315 2 4V18C2 19.6569 3.34315 21 5 21H10C10.5523 21 11 20.5523 11 20C11 19.4477 10.5523 19 10 19ZM13 4.40997L14.59 5.99997H13V4.40997Z" fill="#171E2B"/>
</svg>
