<svg width="24" height="24" viewBox="0 0 24 24" fill="none" xmlns="http://www.w3.org/2000/svg">
<path fill-rule="evenodd" clip-rule="evenodd" d="M6.99999 8C6.44771 8 5.99999 8.44772 5.99999 9C5.99999 9.55229 6.44771 10 6.99999 10H7.99999C8.55228 10 8.99999 9.55229 8.99999 9C8.99999 8.44772 8.55228 8 7.99999 8H6.99999ZM12 20H4.99998C4.4477 20 3.99998 19.5523 3.99998 19V5C3.99998 4.44772 4.4477 4 4.99998 4H9.99998V7C9.99998 8.65685 11.3431 10 13 10H16V11C16 11.5523 16.4477 12 17 12C17.5523 12 18 11.5523 18 11V9C18 9 18 9 18 8.94C17.9896 8.84813 17.9695 8.75763 17.94 8.67V8.58C17.8919 8.47718 17.8278 8.38266 17.75 8.3L11.75 2.3C11.6673 2.22222 11.5728 2.15808 11.47 2.11C11.4401 2.10576 11.4098 2.10576 11.38 2.11L11.06 2H4.99998C3.34313 2 1.99998 3.34315 1.99998 5V19C1.99998 20.6569 3.34313 22 4.99998 22H12C12.5523 22 13 21.5523 13 21C13 20.4477 12.5523 20 12 20ZM12 5.40997L14.59 7.99997H13C12.4477 7.99997 12 7.55225 12 6.99997V5.40997ZM20.83 15.17C19.2459 13.6589 16.7541 13.6589 15.17 15.17C13.6092 16.7326 13.6101 19.2645 15.1721 20.8259C16.7341 22.3873 19.2659 22.3873 20.8279 20.8259C22.3899 19.2645 22.3908 16.7326 20.83 15.17ZM16 18C16 16.8954 16.8954 16 18 16C18.1722 16.0022 18.3435 16.0257 18.51 16.07L16.07 18.51C16.0257 18.3435 16.0022 18.1722 16 18ZM19.41 19.41C18.9057 19.9012 18.1803 20.0911 17.5 19.91L19.93 17.49C19.9742 17.6565 19.9977 17.8278 20 18C19.9977 18.5296 19.7856 19.0367 19.41 19.41ZM11 18C11.5523 18 12 17.5522 12 17C12 16.4477 11.5523 16 11 16H6.99999C6.44771 16 5.99999 16.4477 5.99999 17C5.99999 17.5522 6.44771 18 6.99999 18H11ZM13 12H6.99999C6.44771 12 5.99999 12.4477 5.99999 13C5.99999 13.5523 6.44771 14 6.99999 14H13C13.5523 14 14 13.5523 14 13C14 12.4477 13.5523 12 13 12Z" fill="#171E2B"/>
</svg>
