<svg width="24" height="24" viewBox="0 0 24 24" fill="none" xmlns="http://www.w3.org/2000/svg">
<path fill-rule="evenodd" clip-rule="evenodd" d="M12 20H5C4.44772 20 4 19.5523 4 19V5C4 4.44772 4.44772 4 5 4H10V7C10 8.65685 11.3431 10 13 10H16V11C16 11.5523 16.4477 12 17 12C17.5523 12 18 11.5523 18 11V9C18 9 18 9 18 8.94C17.9896 8.84813 17.9695 8.75763 17.94 8.67V8.58C17.8919 8.47718 17.8278 8.38266 17.75 8.3L11.75 2.3C11.6673 2.22222 11.5728 2.15808 11.47 2.11C11.4402 2.10576 11.4099 2.10576 11.38 2.11C11.2784 2.05174 11.1662 2.01434 11.05 2H5C3.34315 2 2 3.34315 2 5V19C2 20.6569 3.34315 22 5 22H12C12.5523 22 13 21.5523 13 21C13 20.4477 12.5523 20 12 20ZM12 5.41002L14.59 8.00001H13C12.4477 8.00001 12 7.5523 12 7.00001V5.41002ZM7 8C6.44772 8 6 8.44772 6 9C6 9.55228 6.44772 10 7 10H8C8.55229 10 9 9.55228 9 9C9 8.44772 8.55229 8 8 8H7ZM21.71 20.29L20.54 19.13C21.3086 17.7884 21.0877 16.0989 20 15C19.0034 13.9679 17.4768 13.6509 16.1517 14.2008C14.8265 14.7507 13.973 16.0556 14 17.49C13.993 18.7174 14.6367 19.8566 15.6917 20.4838C16.7467 21.111 18.0551 21.1324 19.13 20.54L20.29 21.71C20.4778 21.8993 20.7334 22.0058 21 22.0058C21.2666 22.0058 21.5222 21.8993 21.71 21.71C21.8993 21.5222 22.0058 21.2666 22.0058 21C22.0058 20.7334 21.8993 20.4778 21.71 20.29ZM18.54 18.54C17.9472 19.0975 17.0229 19.0975 16.43 18.54C16.1547 18.2598 16.0003 17.8828 16 17.49C15.9958 17.0914 16.1548 16.7085 16.44 16.43C16.7066 16.1648 17.0641 16.0111 17.44 16C17.8487 15.9749 18.2494 16.1214 18.5455 16.4042C18.8416 16.687 19.0063 17.0806 19 17.49C18.9917 17.8871 18.8263 18.2647 18.54 18.54ZM13 12H7C6.44772 12 6 12.4477 6 13C6 13.5523 6.44772 14 7 14H13C13.5523 14 14 13.5523 14 13C14 12.4477 13.5523 12 13 12ZM11 18C11.5523 18 12 17.5523 12 17C12 16.4477 11.5523 16 11 16H7C6.44772 16 6 16.4477 6 17C6 17.5523 6.44772 18 7 18H11Z" fill="#171E2B"/>
</svg>
