<svg width="24" height="24" viewBox="0 0 24 24" fill="none" xmlns="http://www.w3.org/2000/svg">
<path fill-rule="evenodd" clip-rule="evenodd" d="M9.00001 10H10C10.5523 10 11 9.55229 11 9C11 8.44772 10.5523 8 10 8H9.00001C8.44772 8 8.00001 8.44772 8.00001 9C8.00001 9.55229 8.44772 10 9.00001 10ZM15 12H9.00001C8.44772 12 8.00001 12.4477 8.00001 13C8.00001 13.5523 8.44772 14 9.00001 14H15C15.5523 14 16 13.5523 16 13C16 12.4477 15.5523 12 15 12ZM15 16H9.00001C8.44772 16 8.00001 16.4477 8.00001 17C8.00001 17.5522 8.44772 18 9.00001 18H15C15.5523 18 16 17.5522 16 17C16 16.4477 15.5523 16 15 16ZM19.71 20.29C19.6625 20.247 19.6124 20.2069 19.56 20.17C19.5043 20.1321 19.4437 20.1019 19.38 20.08L19.2 20C19.005 19.9619 18.8031 19.9828 18.62 20.06C18.3688 20.1509 18.1709 20.3488 18.08 20.6C18.0209 20.7247 17.9934 20.8621 18 21C17.9952 21.407 18.2377 21.7764 18.613 21.9339C18.9884 22.0914 19.4218 22.0056 19.7089 21.717C19.996 21.4284 20.0795 20.9945 19.92 20.62C19.8694 20.4988 19.7983 20.3872 19.71 20.29ZM20 8.94C19.9896 8.84813 19.9695 8.75763 19.94 8.67V8.58C19.8919 8.47718 19.8278 8.38266 19.75 8.3L13.75 2.3C13.6673 2.22222 13.5728 2.15808 13.47 2.11C13.4401 2.10576 13.4098 2.10576 13.38 2.11C13.2784 2.05174 13.1662 2.01434 13.05 2H7C5.34315 2 4 3.34315 4 5V19C4 20.6569 5.34315 22 7 22H15C15.5523 22 16 21.5523 16 21C16 20.4477 15.5523 20 15 20H7C6.44772 20 6 19.5523 6 19V5C6 4.44772 6.44772 4 7 4H12V7C12 8.65685 13.3431 10 15 10H18V12C18 12.5523 18.4477 13 19 13C19.5523 13 20 12.5523 20 12V9C20 9 20 9 20 8.94ZM15 7.99997C14.4477 7.99997 14 7.55225 14 6.99997V5.40997L16.59 7.99997H15ZM19 15C18.4477 15 18 15.4477 18 16V18C18 18.5523 18.4477 19 19 19C19.5523 19 20 18.5523 20 18V16C20 15.4477 19.5523 15 19 15Z" fill="#171E2B"/>
</svg>
