<svg width="24" height="24" viewBox="0 0 24 24" fill="none" xmlns="http://www.w3.org/2000/svg">
<path fill-rule="evenodd" clip-rule="evenodd" d="M20 8.94C19.9896 8.84813 19.9695 8.75763 19.94 8.67V8.58C19.8919 8.47718 19.8278 8.38266 19.75 8.3L13.75 2.3C13.6673 2.22222 13.5728 2.15808 13.47 2.11C13.4401 2.10576 13.4098 2.10576 13.38 2.11C13.2784 2.05174 13.1662 2.01434 13.05 2H6.99998C5.34313 2 3.99998 3.34315 3.99998 5V19C3.99998 20.6569 5.34313 22 6.99998 22H17C18.6568 22 20 20.6569 20 19V9C20 9 20 9 20 8.94ZM14 5.40997L16.59 7.99997H15C14.4477 7.99997 14 7.55225 14 6.99997V5.40997ZM18 19C18 19.5523 17.5523 20 17 20H7C6.44772 20 6 19.5523 6 19V4.99997C6 4.44768 6.44772 3.99997 7 3.99997H12V6.99997C12 8.65682 13.3431 9.99997 15 9.99997H18V19ZM14.29 12.29L11 15.59L9.71 14.29C9.31788 13.8979 8.68212 13.8979 8.29 14.29C7.89788 14.6821 7.89788 15.3179 8.29 15.71L10.29 17.71C10.4778 17.8993 10.7334 18.0058 11 18.0058C11.2666 18.0058 11.5222 17.8993 11.71 17.71L15.71 13.71C16.1021 13.3179 16.1021 12.6821 15.71 12.29C15.3179 11.8978 14.6821 11.8978 14.29 12.29Z" fill="#171E2B"/>
</svg>
