<svg width="24" height="24" viewBox="0 0 24 24" fill="none" xmlns="http://www.w3.org/2000/svg">
<path fill-rule="evenodd" clip-rule="evenodd" d="M22 10.94C21.9896 10.8481 21.9695 10.7576 21.94 10.67V10.58C21.8919 10.4772 21.8278 10.3827 21.75 10.3L15.75 4.3C15.6673 4.22222 15.5728 4.15808 15.47 4.11H15.37C15.2728 4.058 15.1683 4.02092 15.06 4H5C3.34315 4 2 5.34315 2 7V17C2 18.6569 3.34315 20 5 20H19C20.6569 20 22 18.6569 22 17V11C22 11 22 11 22 10.94ZM16 7.41002L18.59 10H17C16.4477 10 16 9.5523 16 9.00002V7.41002ZM20 17C20 17.5523 19.5523 18 19 18H5.00001C4.44773 18 4.00002 17.5523 4.00002 17V6.99997C4.00002 6.44768 4.44773 5.99997 5.00001 5.99997H14V8.99997C14 10.6568 15.3432 12 17 12H20V17Z" fill="#171E2B"/>
</svg>
