<svg width="24" height="24" viewBox="0 0 24 24" fill="none" xmlns="http://www.w3.org/2000/svg">
<path fill-rule="evenodd" clip-rule="evenodd" d="M10 20H5C4.44772 20 4 19.5523 4 19V5C4 4.44772 4.44772 4 5 4H10V7C10 8.65685 11.3431 10 13 10H17C17.4037 9.99798 17.7666 9.75343 17.92 9.38C18.0766 9.0076 17.9937 8.57756 17.71 8.29L11.71 2.29C11.6273 2.21222 11.5328 2.14808 11.43 2.1C11.4002 2.09576 11.3699 2.09576 11.34 2.1L11.06 2H5C3.34315 2 2 3.34315 2 5V19C2 20.6569 3.34315 22 5 22H10C10.5523 22 11 21.5523 11 21C11 20.4477 10.5523 20 10 20ZM12 5.40997L14.59 7.99997H13C12.4477 7.99997 12 7.55225 12 6.99997V5.40997ZM13 13C13 12.4477 12.5523 12 12 12H7.00001C6.44772 12 6.00001 12.4477 6.00001 13C6.00001 13.5523 6.44772 14 7.00001 14H12C12.5523 14 13 13.5523 13 13ZM7.00001 10H8.00001C8.55229 10 9.00001 9.55229 9.00001 9C9.00001 8.44772 8.55229 8 8.00001 8H7.00001C6.44772 8 6.00001 8.44772 6.00001 9C6.00001 9.55229 6.44772 10 7.00001 10ZM7.00001 16C6.44772 16 6.00001 16.4477 6.00001 17C6.00001 17.5523 6.44772 18 7.00001 18H9.00001C9.55229 18 10 17.5523 10 17C10 16.4477 9.55229 16 9.00001 16H7.00001ZM20 15.18V15C20 13.3431 18.6569 12 17 12C15.3432 12 14 13.3431 14 15V15.18C12.8043 15.6027 12.0036 16.7317 12 18V19C12 20.6568 13.3432 22 15 22H19C20.6569 22 22 20.6568 22 19V18C21.9964 16.7317 21.1957 15.6027 20 15.18ZM17 14C17.5523 14 18 14.4477 18 15H16C16 14.4477 16.4477 14 17 14ZM20 19C20 19.5523 19.5523 20 19 20H15C14.4477 20 14 19.5523 14 19V18C14 17.4477 14.4477 17 15 17H19C19.5523 17 20 17.4477 20 18V19Z" fill="#171E2B"/>
</svg>
