<svg width="24" height="24" viewBox="0 0 24 24" fill="none" xmlns="http://www.w3.org/2000/svg">
<path fill-rule="evenodd" clip-rule="evenodd" d="M13.5 12.5001C13.5 11.9478 13.0523 11.5001 12.5 11.5001H7.5C6.94771 11.5001 6.5 11.9478 6.5 12.5001C6.5 13.0523 6.94771 13.5001 7.5 13.5001H12.5C13.0523 13.5001 13.5 13.0523 13.5 12.5001ZM18.5 17.5C18.0752 17.5014 17.6619 17.638 17.32 17.89L15.57 17.09L17.48 16.21C17.7819 16.3933 18.1269 16.4934 18.48 16.5C19.5846 16.5 20.48 15.6046 20.48 14.5C20.48 13.3955 19.5846 12.5 18.48 12.5C17.3754 12.5 16.48 13.3955 16.48 14.5L14.59 15.37C13.8789 14.8655 12.9228 14.8798 12.227 15.4054C11.5313 15.9311 11.2563 16.8469 11.5474 17.6688C11.8385 18.4908 12.6285 19.0294 13.5 19C13.8222 19.0002 14.139 18.9176 14.42 18.76L16.52 19.76C16.6434 20.8259 17.5859 21.6044 18.6559 21.5244C19.7258 21.4444 20.542 20.5344 20.5056 19.462C20.4691 18.3897 19.5929 17.5372 18.52 17.53L18.5 17.5ZM10.5 19.5H5.5C4.94772 19.5 4.5 19.0523 4.5 18.5V4.50005C4.5 3.94776 4.94772 3.50005 5.5 3.50005H10.5V6.50005C10.5 8.1569 11.8431 9.50005 13.5 9.50005H16.5C16.5 10.0523 16.9477 10.5 17.5 10.5C18.0523 10.5 18.5 10.0523 18.5 9.50005V8.50005C18.5 8.50005 18.5 8.50005 18.5 8.44005C18.4896 8.34818 18.4695 8.25768 18.44 8.17005V8.08005C18.3919 7.97723 18.3278 7.88271 18.25 7.80005L12.25 1.80005C12.1673 1.72227 12.0728 1.65813 11.97 1.61005C11.9369 1.60426 11.9031 1.60426 11.87 1.61005C11.7861 1.57957 11.6988 1.55942 11.61 1.55005H5.5C3.84315 1.55005 2.5 2.89319 2.5 4.55005V18.55C2.5 20.2069 3.84315 21.55 5.5 21.55H10.5C11.0523 21.55 11.5 21.1023 11.5 20.55C11.5 19.9978 11.0523 19.55 10.5 19.55V19.5ZM12.5 4.91005L15.09 7.50005H13.5C12.9477 7.50005 12.5 7.05233 12.5 6.50005V4.91005ZM7.5 15.5C6.94771 15.5 6.5 15.9478 6.5 16.5001C6.5 17.0523 6.94771 17.5001 7.5 17.5001H8.5C9.05228 17.5001 9.5 17.0523 9.5 16.5001C9.5 15.9478 9.05228 15.5 8.5 15.5H7.5ZM7.5 9.50003H8.5C9.05228 9.50003 9.5 9.05231 9.5 8.50003C9.5 7.94775 9.05228 7.50003 8.5 7.50003H7.5C6.94771 7.50003 6.5 7.94775 6.5 8.50003C6.5 9.05231 6.94771 9.50003 7.5 9.50003Z" fill="#171E2B"/>
</svg>
