<svg width="24" height="24" viewBox="0 0 24 24" fill="none" xmlns="http://www.w3.org/2000/svg">
<path fill-rule="evenodd" clip-rule="evenodd" d="M18 18C17.4477 18 17 18.4477 17 19C17 19.5523 16.5523 20 16 20H6C5.44772 20 5 19.5523 5 19V5C5 4.44772 5.44772 4 6 4H11V7C11 8.65685 12.3431 10 14 10H17V11C17 11.5523 17.4477 12 18 12C18.5523 12 19 11.5523 19 11V9C19 9 19 9 19 8.94C18.9896 8.84813 18.9695 8.75763 18.94 8.67C18.9442 8.64015 18.9442 8.60985 18.94 8.58C18.8919 8.47718 18.8278 8.38266 18.75 8.3L12.75 2.3C12.6673 2.22222 12.5728 2.15808 12.47 2.11H12.37C12.2757 2.05943 12.1747 2.0224 12.07 2H6C4.34315 2 3 3.34315 3 5V19C3 20.6569 4.34315 22 6 22H16C17.6569 22 19 20.6569 19 19C19 18.4477 18.5523 18 18 18ZM13 5.40997L15.59 7.99997H14C13.4477 7.99997 13 7.55225 13 6.99997V5.40997ZM20 14H17.5C17.2342 13.9985 16.9787 14.1028 16.79 14.29L15.55 15.54L12.75 12.34C12.5679 12.1314 12.3076 12.0077 12.0309 11.9982C11.7542 11.9887 11.4859 12.0944 11.29 12.29L9.59 14H8C7.44772 14 7 14.4477 7 15C7 15.5523 7.44772 16 8 16H10C10.2658 16.0015 10.5213 15.8972 10.71 15.71L12 14.46L14.8 17.66C14.9826 17.8681 15.2433 17.9912 15.52 18C15.7858 18.0015 16.0413 17.8972 16.23 17.71L17.91 16H20C20.5523 16 21 15.5523 21 15C21 14.4477 20.5523 14 20 14Z" fill="#171E2B"/>
</svg>
