<svg width="24" height="24" viewBox="0 0 24 24" fill="none" xmlns="http://www.w3.org/2000/svg">
<path fill-rule="evenodd" clip-rule="evenodd" d="M14.71 12.29C14.5222 12.1007 14.2666 11.9942 14 11.9942C13.7334 11.9942 13.4778 12.1007 13.29 12.29L12 13.59L10.71 12.29C10.3179 11.8979 9.68213 11.8979 9.29001 12.29C8.89789 12.6821 8.89789 13.3179 9.29001 13.71L10.59 15L9.29001 16.29C9.1007 16.4778 8.99421 16.7333 8.99421 17C8.99421 17.2666 9.1007 17.5222 9.29001 17.71C9.47778 17.8993 9.73337 18.0058 10 18.0058C10.2666 18.0058 10.5222 17.8993 10.71 17.71L12 16.41L13.29 17.71C13.4778 17.8993 13.7334 18.0058 14 18.0058C14.2666 18.0058 14.5222 17.8993 14.71 17.71C14.8993 17.5222 15.0058 17.2666 15.0058 17C15.0058 16.7333 14.8993 16.4778 14.71 16.29L13.41 15L14.71 13.71C14.8993 13.5222 15.0058 13.2666 15.0058 13C15.0058 12.7334 14.8993 12.4778 14.71 12.29ZM20 8.94C19.9896 8.84813 19.9695 8.75763 19.94 8.67V8.58C19.8919 8.47718 19.8278 8.38266 19.75 8.3L13.75 2.3C13.6673 2.22222 13.5728 2.15808 13.47 2.11H13.37C13.2727 2.058 13.1682 2.02092 13.06 2H6.99998C5.34313 2 3.99998 3.34315 3.99998 5V19C3.99998 20.6569 5.34313 22 6.99998 22H17C18.6568 22 20 20.6569 20 19V9C20 9 20 9 20 8.94ZM14 5.41002L16.59 8.00001H15C14.4477 8.00001 14 7.5523 14 7.00001V5.41002ZM18 19C18 19.5523 17.5523 20 17 20H7C6.44772 20 6 19.5523 6 19V5.00001C6 4.44773 6.44772 4.00002 7 4.00002H12V7.00001C12 8.65687 13.3431 10 15 10H18V19Z" fill="#171E2B"/>
</svg>
