<svg width="24" height="24" viewBox="0 0 24 24" fill="none" xmlns="http://www.w3.org/2000/svg">
<path fill-rule="evenodd" clip-rule="evenodd" d="M20 8.94C19.9896 8.84813 19.9695 8.75763 19.94 8.67V8.58C19.8919 8.47718 19.8278 8.38266 19.75 8.3L13.75 2.3C13.6673 2.22222 13.5728 2.15808 13.47 2.11H13.37C13.2727 2.058 13.1682 2.02092 13.06 2H6.99998C5.34313 2 3.99998 3.34315 3.99998 5V19C3.99998 20.6569 5.34313 22 6.99998 22H17C18.6568 22 20 20.6569 20 19V9C20 9 20 9 20 8.94ZM14 5.40997L16.59 7.99997H15C14.4477 7.99997 14 7.55225 14 6.99997V5.40997ZM18 19C18 19.5523 17.5523 20 17 20H7C6.44772 20 6 19.5523 6 19V4.99997C6 4.44768 6.44772 3.99997 7 3.99997H12V6.99997C12 8.65682 13.3431 9.99997 15 9.99997H18V19ZM12 11.34C10.7179 10.6417 9.1171 10.9977 8.25169 12.1734C7.38628 13.3492 7.5222 14.9834 8.56997 16L11.29 18.72C11.4777 18.9093 11.7333 19.0158 12 19.0158C12.2666 19.0158 12.5222 18.9093 12.71 18.72L15.43 16C16.4777 14.9834 16.6137 13.3492 15.7482 12.1734C14.8828 10.9977 13.2821 10.6417 12 11.34ZM14 13.27C14.3586 13.6292 14.3586 14.2109 14 14.57L12 16.57L10 14.57C9.64144 14.2109 9.64144 13.6292 10 13.27C10.3592 12.9115 10.9408 12.9115 11.3 13.27C11.4878 13.4593 11.7434 13.5658 12.01 13.5658C12.2766 13.5658 12.5322 13.4593 12.72 13.27C13.0767 12.9246 13.6433 12.9246 14 13.27Z" fill="#171E2B"/>
</svg>
