<svg width="24" height="24" viewBox="0 0 24 24" fill="none" xmlns="http://www.w3.org/2000/svg">
<path fill-rule="evenodd" clip-rule="evenodd" d="M21 2C20.4477 2 20 2.44772 20 3V5H18V3C18 2.44772 17.5523 2 17 2C16.4477 2 16 2.44772 16 3V4H8V3C8 2.44772 7.55228 2 7 2C6.44772 2 6 2.44772 6 3V5H4V3C4 2.44772 3.55228 2 3 2C2.44772 2 2 2.44772 2 3V21C2 21.5523 2.44772 22 3 22C3.55228 22 4 21.5523 4 21V19H6V21C6 21.5523 6.44772 22 7 22C7.55228 22 8 21.5523 8 21V20H16V21C16 21.5523 16.4477 22 17 22C17.5523 22 18 21.5523 18 21V19H20V21C20 21.5523 20.4477 22 21 22C21.5523 22 22 21.5523 22 21V3C22 2.44772 21.5523 2 21 2ZM6 17H4V15H6V17ZM6 13H4V11H6V13ZM6 9.00002H4V7.00002H6V9.00002ZM16 18H8V13H16V18ZM16 11H8V5.99998H16V11ZM20 17H18V15H20V17ZM20 13H18V11H20V13ZM20 9.00002H18V7.00002H20V9.00002Z" fill="#171E2B"/>
</svg>
