<svg width="24" height="24" viewBox="0 0 24 24" fill="none" xmlns="http://www.w3.org/2000/svg">
<path fill-rule="evenodd" clip-rule="evenodd" d="M19 2H5C3.34315 2 2 3.34315 2 5V6.17C1.99986 6.58294 2.08497 6.99147 2.25 7.37V7.43C2.39128 7.75097 2.59139 8.04266 2.84 8.29L9 14.41V21C8.99931 21.3455 9.17701 21.6669 9.47 21.85C9.62914 21.9486 9.81277 22.0006 10 22C10.1565 21.9991 10.3107 21.9614 10.45 21.89L14.45 19.89C14.7863 19.7205 14.9989 19.3766 15 19V14.41L21.12 8.29C21.3686 8.04266 21.5687 7.75097 21.71 7.43V7.37C21.8888 6.99443 21.9876 6.58578 22 6.17V5C22 3.34315 20.6569 2 19 2ZM13.29 13.29C13.1028 13.4787 12.9985 13.7342 13 14V18.38L11 19.38V14C11.0015 13.7342 10.8972 13.4787 10.71 13.29L5.41 8H18.59L13.29 13.29ZM20 6.00002H4V5.00002C4 4.44773 4.44772 4.00002 5 4.00002H19C19.5523 4.00002 20 4.44773 20 5.00002V6.00002Z" fill="#171E2B"/>
</svg>
