<svg width="24" height="24" viewBox="0 0 24 24" fill="none" xmlns="http://www.w3.org/2000/svg">
<path fill-rule="evenodd" clip-rule="evenodd" d="M19.22 5.99994H12.66C12.1077 5.99994 11.66 6.44766 11.66 6.99994C11.66 7.55223 12.1077 7.99994 12.66 7.99994H19.22C19.6508 7.99994 20 8.34916 20 8.77994V9.55994H16.22C15.6677 9.55994 15.22 10.0077 15.22 10.5599C15.22 11.1122 15.6677 11.5599 16.22 11.5599H18.59L17.89 12.2499C17.7007 12.4377 17.5942 12.6933 17.5942 12.9599C17.5942 13.2266 17.7007 13.4822 17.89 13.6699C18.0778 13.8593 18.3333 13.9657 18.6 13.9657C18.8666 13.9657 19.1222 13.8593 19.31 13.6699L21.19 11.7899C21.42 11.5607 21.6034 11.289 21.73 10.9899V10.8899C21.8958 10.5568 21.9879 10.1919 22 9.81994V8.81994C22.008 8.07654 21.7189 7.36068 21.197 6.83124C20.6751 6.3018 19.9634 6.00257 19.22 5.99994ZM3.70999 2.28996C3.45634 2.03631 3.08662 1.93724 2.74012 2.03009C2.39361 2.12293 2.12296 2.39358 2.03012 2.74009C1.93727 3.08659 2.03634 3.45631 2.28999 3.70996L5.13999 6.54996C4.42133 7.06486 3.9965 7.89589 3.99999 8.77996V9.77996C4.00028 10.1596 4.08213 10.5347 4.23999 10.88V10.94C4.3676 11.2414 4.55079 11.5162 4.77999 11.75L10.19 17.15V21C10.1893 21.3455 10.367 21.6668 10.66 21.85C10.8191 21.9486 11.0028 22.0006 11.19 22C11.3465 21.999 11.5007 21.9613 11.64 21.89L15.2 20.11C15.5363 19.9405 15.7489 19.5965 15.75 19.22V17.22L20.26 21.74C20.4478 21.9293 20.7034 22.0358 20.97 22.0358C21.2366 22.0358 21.4922 21.9293 21.68 21.74C21.8693 21.5522 21.9758 21.2966 21.9758 21.03C21.9758 20.7633 21.8693 20.5077 21.68 20.32L3.70999 2.28996ZM5.99999 8.77996C5.99752 8.45834 6.19777 8.16998 6.49999 8.05996L6.58999 7.99996L8.14999 9.55996H5.99999V8.77996ZM14.07 16.07C13.8828 16.2587 13.7785 16.5142 13.78 16.78V18.6L12.22 19.38V16.78C12.2215 16.5142 12.1172 16.2587 11.93 16.07L7.41 11.56H10.15L14.37 15.78L14.07 16.07Z" fill="#171E2B"/>
</svg>
