<svg width="24" height="24" viewBox="0 0 24 24" fill="none" xmlns="http://www.w3.org/2000/svg">
<path fill-rule="evenodd" clip-rule="evenodd" d="M20.11 17.49L15 8.73V4H16C16.5523 4 17 3.55228 17 3C17 2.44772 16.5523 2 16 2H7.99999C7.44771 2 6.99999 2.44772 6.99999 3C6.99999 3.55228 7.44771 4 7.99999 4H8.99999V8.73L3.88999 17.49C3.34969 18.4176 3.34616 19.5631 3.88074 20.494C4.41532 21.4249 5.40654 21.9992 6.47999 22H17.48C18.5534 21.9992 19.5447 21.4249 20.0792 20.494C20.6138 19.5631 20.6103 18.4176 20.07 17.49H20.11ZM10.86 9.49001C10.9482 9.34151 10.9964 9.1727 11 9.00001V4.00002H13V9.00001C13.0018 9.1761 13.0501 9.34858 13.14 9.50001L14 11H9.99998L10.86 9.49001ZM18.38 19.49C18.2024 19.7976 17.8751 19.9879 17.52 19.99H6.51999C6.16488 19.9879 5.83754 19.7976 5.65999 19.49C5.48136 19.1806 5.48136 18.7994 5.65999 18.49L8.82999 13H15.18L18.38 18.5C18.5586 18.8094 18.5586 19.1906 18.38 19.5V19.49ZM10 15C9.44771 15 9 15.4477 9 16C9 16.5523 9.44771 17 10 17C10.5523 17 11 16.5523 11 16C11 15.4477 10.5523 15 10 15ZM14 16C13.4477 16 13 16.4477 13 17C13 17.5523 13.4477 18 14 18C14.5523 18 15 17.5523 15 17C15 16.4477 14.5523 16 14 16Z" fill="#171E2B"/>
</svg>
