<svg width="24" height="24" viewBox="0 0 24 24" fill="none" xmlns="http://www.w3.org/2000/svg">
<path fill-rule="evenodd" clip-rule="evenodd" d="M18.93 11.67C18.934 11.6368 18.934 11.6032 18.93 11.57C18.1847 9.79159 16.7746 8.37434 15 7.62V4H16C16.5523 4 17 3.55228 17 3C17 2.44772 16.5523 2 16 2H8.00002C7.44774 2 7.00002 2.44772 7.00002 3C7.00002 3.55228 7.44774 4 8.00002 4H9.00002V7.62C7.2311 8.39469 5.83509 9.83017 5.11002 11.62C5.10604 11.6532 5.10604 11.6868 5.11002 11.72C3.8122 14.856 4.78211 18.4727 7.47493 20.5386C10.1678 22.6044 13.9123 22.6044 16.6051 20.5386C19.2979 18.4727 20.2678 14.856 18.97 11.72L18.93 11.67ZM10.31 9.26001C10.7213 9.12592 10.9997 8.74259 11 8.31001V4.00002H13V8.31001C13.0003 8.74259 13.2787 9.12592 13.69 9.26001C14.6868 9.58281 15.5689 10.1871 16.23 11H7.77C8.43106 10.1871 9.31319 9.58281 10.31 9.26001ZM12 20C8.96473 19.9945 6.50552 17.5353 6.50001 14.5C6.50164 13.9921 6.57572 13.487 6.72001 13H17.28C17.4243 13.487 17.4984 13.9921 17.5 14.5C17.4945 17.5353 15.0353 19.9945 12 20ZM14 16C13.4477 16 13 16.4477 13 17C13 17.5523 13.4477 18 14 18C14.5523 18 15 17.5523 15 17C15 16.4477 14.5523 16 14 16ZM10 15C9.44771 15 9 15.4477 9 16C9 16.5523 9.44771 17 10 17C10.5523 17 11 16.5523 11 16C11 15.4477 10.5523 15 10 15Z" fill="#171E2B"/>
</svg>
