<svg width="24" height="24" viewBox="0 0 24 24" fill="none" xmlns="http://www.w3.org/2000/svg">
<path fill-rule="evenodd" clip-rule="evenodd" d="M21 11.0001H3.00002C2.44773 11.0001 2.00002 11.4478 2.00002 12.0001C2.00002 12.5524 2.44773 13.0001 3.00002 13.0001H21C21.5523 13.0001 22 12.5524 22 12.0001C22 11.4478 21.5523 11.0001 21 11.0001ZM10.93 9.00015H12.43C12.9823 9.00015 13.43 8.55243 13.43 8.00015C13.43 7.44786 12.9823 7.00015 12.43 7.00015H10.93C10.3777 7.00015 9.93 7.44786 9.93 8.00015C9.93 8.55243 10.3777 9.00015 10.93 9.00015ZM15.43 8.00012C15.43 8.55241 15.8777 9.00012 16.43 9.00012H17C17.4037 8.99811 17.7666 8.75355 17.92 8.38012C18.0766 8.00773 17.9938 7.57768 17.71 7.29012L17.05 6.64012C16.66 6.2524 16.0301 6.2524 15.64 6.64012C15.3367 6.9431 15.2603 7.40569 15.45 7.79012C15.4384 7.85956 15.4317 7.92974 15.43 8.00012ZM11.65 4.77013L12 4.41013L12.81 5.22013C13.2001 5.60786 13.83 5.60786 14.22 5.22013C14.6077 4.83009 14.6077 4.20017 14.22 3.81013L13.16 2.75013C13.0853 2.67185 12.9973 2.6075 12.9 2.56013C12.7589 2.26792 12.4849 2.06232 12.1649 2.00866C11.8448 1.95499 11.5187 2.05993 11.29 2.29013L10.23 3.35013C9.83789 3.74225 9.83789 4.37801 10.23 4.77013C10.6221 5.16225 11.2579 5.16225 11.65 4.77013ZM17 15.0001H7C6.59629 15.0021 6.2334 15.2467 6.08 15.6201C5.9234 15.9925 6.00625 16.4226 6.29 16.7101L11.29 21.7101C11.4778 21.8994 11.7334 22.0059 12 22.0059C12.2666 22.0059 12.5222 21.8994 12.71 21.7101L17.71 16.7101C17.9937 16.4226 18.0766 15.9925 17.92 15.6201C17.7666 15.2467 17.4037 15.0021 17 15.0001ZM12 19.5901L9.41002 17.0001H14.59L12 19.5901ZM7.05002 9.00013C7.31583 9.00167 7.5713 8.89732 7.76002 8.71013L8.82002 7.60013C9.21215 7.20801 9.21215 6.57225 8.82002 6.18013C8.4279 5.78801 7.79215 5.78801 7.40002 6.18013L6.34002 7.24013C6.15071 7.4279 6.04422 7.68349 6.04422 7.95013C6.04422 8.21677 6.15071 8.47237 6.34002 8.66013C6.52025 8.86577 6.77682 8.98864 7.05002 9.00013Z" fill="#171E2B"/>
</svg>
