<svg width="24" height="24" viewBox="0 0 24 24" fill="none" xmlns="http://www.w3.org/2000/svg">
<path fill-rule="evenodd" clip-rule="evenodd" d="M7.60001 15.18C7.20788 14.7879 6.57213 14.7879 6.18001 15.18C5.78789 15.5721 5.78789 16.2079 6.18001 16.6L7.24001 17.66C7.42777 17.8493 7.68337 17.9558 7.95001 17.9558C8.21664 17.9558 8.47224 17.8493 8.66001 17.66C8.84932 17.4722 8.9558 17.2166 8.9558 16.95C8.9558 16.6834 8.84932 16.4278 8.66001 16.24L7.60001 15.18ZM3.81001 9.77999L2.75001 10.84C2.67172 10.9147 2.60738 11.0027 2.56001 11.1C2.2678 11.2411 2.0622 11.5151 2.00854 11.8351C1.95487 12.1552 2.05981 12.4813 2.29001 12.71L3.35001 13.77C3.53778 13.9593 3.79337 14.0658 4.06001 14.0658C4.32665 14.0658 4.58224 13.9593 4.77001 13.77C4.95932 13.5822 5.06581 13.3266 5.06581 13.06C5.06581 12.7934 4.95932 12.5378 4.77001 12.35L4.41001 12L5.22001 11.19C5.55979 10.7932 5.53694 10.2018 5.16757 9.83243C4.7982 9.46306 4.20677 9.44021 3.81001 9.77999ZM8.00002 10.57C7.44774 10.57 7.00002 11.0177 7.00002 11.57V13.07C7.00002 13.6223 7.44774 14.07 8.00002 14.07C8.55231 14.07 9.00003 13.6223 9.00003 13.07V11.57C9.00003 11.0177 8.55231 10.57 8.00002 10.57ZM21.71 11.29L16.71 6.29C16.4224 6.00626 15.9924 5.92341 15.62 6.08C15.2466 6.23341 15.002 6.5963 15 7V17C15.002 17.4037 15.2466 17.7666 15.62 17.92C15.7387 17.976 15.8688 18.0034 16 18C16.2658 18.0015 16.5213 17.8972 16.71 17.71L21.71 12.71C21.8993 12.5222 22.0058 12.2666 22.0058 12C22.0058 11.7334 21.8993 11.4778 21.71 11.29ZM17 14.59V9.41L19.59 12L17 14.59ZM12 2C11.4477 2 11 2.44772 11 3V21C11 21.5523 11.4477 22 12 22C12.5523 22 13 21.5523 13 21V3C13 2.44772 12.5523 2 12 2ZM8.38 6.08C8.00761 5.92341 7.57756 6.00626 7.29 6.29L6.64 7C6.25228 7.39004 6.25228 8.01997 6.64 8.41C6.82463 8.59842 7.07623 8.70625 7.34 8.71C7.49654 8.70907 7.65068 8.67139 7.79 8.6C8.09452 8.66586 8.41234 8.58603 8.64958 8.38407C8.88683 8.18212 9.01639 7.88113 9 7.57V7C8.99799 6.5963 8.75343 6.23341 8.38 6.08Z" fill="#171E2B"/>
</svg>
