<svg width="24" height="24" viewBox="0 0 24 24" fill="none" xmlns="http://www.w3.org/2000/svg">
<path fill-rule="evenodd" clip-rule="evenodd" d="M4.94004 12.24C4.6786 12.1774 4.40296 12.2227 4.17531 12.3657C3.94766 12.5087 3.78717 12.7373 3.73004 13L3.24004 14.94C3.12842 15.4749 3.46686 16.0004 4.00004 16.12C4.53569 16.2521 5.07713 15.9255 5.21004 15.39L5.70004 13.45C5.76263 13.1886 5.71733 12.9129 5.57434 12.6853C5.43135 12.4576 5.20273 12.2971 4.94004 12.24ZM21.94 19.76L17.94 3.76C17.8326 3.32453 17.4484 3.01386 17 3H14C13.4478 3 13 3.44772 13 4V20C13 20.5523 13.4478 21 14 21H21C21.3078 21.0017 21.5992 20.8615 21.79 20.62C21.99 20.3816 22.0676 20.0637 22 19.76H21.94ZM15 19V4.99999H16.22L19.72 19H15ZM6.40003 6.42C6.14137 6.35353 5.86687 6.3933 5.6377 6.53042C5.40853 6.66755 5.24373 6.89064 5.18003 7.15L4.70003 9.09C4.56792 9.62565 4.89458 10.1671 5.43003 10.3H5.67003C6.14073 10.3137 6.55721 9.99718 6.67003 9.54L7.15003 7.6C7.26223 7.06821 6.92915 6.54416 6.40003 6.42ZM7.51001 5H9.51001C10.0623 5 10.51 4.55229 10.51 4C10.51 3.44772 10.0623 3 9.51001 3H7.51001C6.95772 3 6.51001 3.44772 6.51001 4C6.51001 4.55229 6.95772 5 7.51001 5ZM4.24003 19C4.3063 18.4477 3.91231 17.9463 3.36003 17.88C2.80774 17.8137 2.3063 18.2077 2.24003 18.76L2.00003 19.76C1.92413 20.0591 1.99056 20.3765 2.18003 20.62C2.37727 20.87 2.68178 21.0111 3.00003 21H4.00003C4.55231 21.0663 5.05376 20.6723 5.12003 20.12C5.1863 19.5677 4.79231 19.0663 4.24003 19ZM10 6.51C9.44772 6.51 9.00001 6.95772 9.00001 7.51V9.51C9.00001 10.0623 9.44772 10.51 10 10.51C10.5523 10.51 11 10.0623 11 9.51V7.51C11 6.95772 10.5523 6.51 10 6.51ZM10 12.51C9.44772 12.51 9.00001 12.9577 9.00001 13.51V15.51C9.00001 16.0623 9.44772 16.51 10 16.51C10.5523 16.51 11 16.0623 11 15.51V13.51C11 12.9577 10.5523 12.51 10 12.51ZM10 18.51C9.64697 18.5101 9.3201 18.6963 9.14004 19H8.00004C7.44775 19 7.00004 19.4477 7.00004 20C7.00004 20.5523 7.44775 21 8.00004 21H10C10.5523 21 11 20.5523 11 20V19.51C11 18.9577 10.5523 18.51 10 18.51Z" fill="#171E2B"/>
</svg>
