<svg width="24" height="24" viewBox="0 0 24 24" fill="none" xmlns="http://www.w3.org/2000/svg">
<path fill-rule="evenodd" clip-rule="evenodd" d="M13.21 5.69998C13.2897 5.70961 13.3703 5.70961 13.45 5.69998L15.39 5.20998C15.9254 5.07707 16.2521 4.53563 16.12 3.99998C15.9871 3.46453 15.4456 3.13787 14.91 3.26998L13 3.72998C12.4477 3.79625 12.0537 4.29769 12.12 4.84998C12.1863 5.40226 12.6877 5.79625 13.24 5.72998L13.21 5.69998ZM9.51001 8.99997H7.51001C6.95773 8.99997 6.51002 9.44769 6.51002 9.99997C6.51002 10.5523 6.95773 11 7.51001 11H9.51001C10.0623 11 10.51 10.5523 10.51 9.99997C10.51 9.44769 10.0623 8.99997 9.51001 8.99997ZM13.51 8.99997C12.9577 8.99997 12.51 9.44769 12.51 9.99997C12.51 10.5523 12.9577 11 13.51 11H15.51C16.0623 11 16.51 10.5523 16.51 9.99997C16.51 9.44769 16.0623 8.99997 15.51 8.99997H13.51ZM7.38999 7.14998H7.62999L9.56999 6.66998C10.114 6.53743 10.4475 5.98898 10.315 5.44498C10.1824 4.90098 9.63399 4.56743 9.08999 4.69998L7.14999 5.17998C6.5977 5.24625 6.20371 5.74769 6.26999 6.29998C6.33626 6.85226 6.8377 7.24625 7.38999 7.17998V7.14998ZM4.00001 10.51C4.5523 10.51 5.00002 10.0623 5.00002 9.50997V7.50997C5.00002 6.95769 4.5523 6.50997 4.00001 6.50997C3.44773 6.50997 3.00001 6.95769 3.00001 7.50997V9.50997C3.00001 10.0623 3.44773 10.51 4.00001 10.51ZM20.62 2.20998C20.3816 2.00999 20.0637 1.93237 19.76 1.99998L18.76 2.23998C18.2246 2.37289 17.8979 2.91433 18.03 3.44998C18.1428 3.90716 18.5593 4.22369 19.03 4.20998C19.1504 4.69461 19.6099 5.01612 20.1065 4.96319C20.6031 4.91025 20.9845 4.49911 21 3.99998V2.99998C21.0017 2.6922 20.8615 2.4008 20.62 2.20998ZM20 6.99998C19.4477 6.99998 19 7.4477 19 7.99998V9.13998C18.6127 9.36979 18.4268 9.83011 18.5459 10.2644C18.665 10.6987 19.0597 10.9999 19.51 11H20C20.5523 11 21 10.5523 21 9.99998V7.99998C21 7.4477 20.5523 6.99998 20 6.99998ZM20 13H4C3.44772 13 3 13.4477 3 14V17C2.98629 17.4707 3.30282 17.8872 3.76 18L19.76 22C19.8397 22.0096 19.9203 22.0096 20 22C20.5523 22 21 21.5523 21 21V14C21 13.4477 20.5523 13 20 13ZM19 19.72L4.99998 16.22V15H19V19.72Z" fill="#171E2B"/>
</svg>
