<svg width="24" height="24" viewBox="0 0 24 24" fill="none" xmlns="http://www.w3.org/2000/svg">
<path fill-rule="evenodd" clip-rule="evenodd" d="M19.68 6.87994C18.661 6.34439 17.4727 6.22951 16.37 6.55994C16.2585 4.23037 14.3372 2.39893 12.005 2.39893C9.67277 2.39893 7.75154 4.23037 7.64001 6.55994C6.54029 6.22875 5.35538 6.33257 4.33001 6.84994C2.78672 7.6611 1.87325 9.31198 2.00581 11.0504C2.13836 12.7888 3.29157 14.2822 4.94001 14.8499C4.42519 15.5825 4.14611 16.4546 4.14001 17.3499C4.14445 17.6013 4.16785 17.8521 4.21001 18.0999C4.55782 20.1974 6.37391 21.7341 8.50001 21.7299C8.71309 21.7445 8.92692 21.7445 9.14001 21.7299C10.283 21.5499 11.3099 20.9287 12 19.9999C12.6973 20.9137 13.7232 21.5199 14.86 21.6899C15.0731 21.7045 15.2869 21.7045 15.5 21.6899C17.127 21.6881 18.6175 20.7805 19.3661 19.3359C20.1146 17.8914 19.9966 16.1503 19.06 14.8199C20.7168 14.2618 21.8801 12.768 22.0152 11.0249C22.1503 9.28186 21.2311 7.62665 19.68 6.81994V6.87994ZM10.34 4.93994C11.2682 4.05104 12.7318 4.05104 13.66 4.93994C14.3576 5.63863 14.5632 6.68998 14.18 7.59994L13.92 8.18994L13.26 8.76994C12.8542 8.63066 12.429 8.55641 12 8.54994C11.4456 8.55047 10.8973 8.66626 10.39 8.88994L9.83 7.59994C9.4327 6.69322 9.63552 5.63542 10.34 4.93994ZM4.24 11.7799C3.78011 10.768 4.08533 9.57233 4.97401 8.90462C5.86269 8.23691 7.09602 8.27654 7.94 8.99993L8.43 9.42993L8.78 10.2299C8.27904 10.9002 8.00572 11.7132 8 12.5499C7.98814 12.6997 7.98814 12.8502 8 12.9999H7.45L6.61 13.0799C5.6261 13.1838 4.68122 12.6655 4.24 11.7799ZM10.84 17.8599C10.5919 18.9603 9.60533 19.7354 8.47746 19.716C7.3496 19.6967 6.39024 18.8882 6.18001 17.7799C6.17043 17.6401 6.17043 17.4998 6.18001 17.3599C6.18739 16.5329 6.63268 15.7717 7.35001 15.3599L7.86001 14.9999L8.77001 14.8999C9.34357 15.6978 10.1908 16.2567 11.15 16.4699L10.84 17.8599ZM12 14.5499C10.8954 14.5499 10 13.6545 10 12.5499C10 11.4454 10.8954 10.5499 12 10.5499C13.1046 10.5499 14 11.4454 14 12.5499C14 13.6545 13.1046 14.5499 12 14.5499ZM17.82 17.7699C17.6054 19.0394 16.4129 19.9025 15.14 19.7099C14.1527 19.5708 13.3555 18.8334 13.14 17.86L13 17.26L13.21 16.34C14.1325 16.0395 14.9144 15.414 15.41 14.58L15.91 14.88H16L16.66 15.27C17.5389 15.7719 18.0042 16.7747 17.82 17.7699ZM19.76 11.7699C19.3589 12.5806 18.5345 13.0954 17.63 13.0999H17.39L16.75 12.9999L16 12.5899C15.9986 11.6177 15.6431 10.6792 15 9.94995L15.43 9.57995L16.06 8.99995C16.9074 8.24663 18.1696 8.19897 19.0713 8.88625C19.9731 9.57352 20.2617 10.8032 19.76 11.8199V11.7699Z" fill="#171E2B"/>
</svg>
