<svg width="24" height="24" viewBox="0 0 24 24" fill="none" xmlns="http://www.w3.org/2000/svg">
<path fill-rule="evenodd" clip-rule="evenodd" d="M2.99998 9C3.55227 9 3.99999 8.55229 3.99999 8V5C3.99999 4.44772 4.4477 4 4.99999 4H7.99999C8.55227 4 8.99999 3.55229 8.99999 3C8.99999 2.44772 8.55227 2 7.99999 2H4.99999C3.34313 2 1.99998 3.34315 1.99998 5V8C1.99998 8.55229 2.4477 9 2.99998 9ZM7.99999 20H4.99999C4.4477 20 3.99999 19.5523 3.99999 19V16C3.99999 15.4477 3.55227 15 2.99998 15C2.4477 15 1.99998 15.4477 1.99998 16V19C1.99998 20.6569 3.34313 22 4.99999 22H7.99999C8.55227 22 8.99999 21.5523 8.99999 21C8.99999 20.4477 8.55227 20 7.99999 20ZM17 13C17.5523 13 18 12.5523 18 12C18 11.4477 17.5523 11 17 11H15.86C15.4944 9.59941 14.4006 8.50562 13 8.14001V7.00001C13 6.44772 12.5523 6.00001 12 6.00001C11.4477 6.00001 11 6.44772 11 7.00001V8.14001C9.59939 8.50562 8.50561 9.59941 8.13999 11H6.99999C6.44771 11 5.99999 11.4477 5.99999 12C5.99999 12.5523 6.44771 13 6.99999 13H8.13999C8.50561 14.4006 9.59939 15.4944 11 15.86V17C11 17.5523 11.4477 18 12 18C12.5523 18 13 17.5523 13 17V15.86C14.4006 15.4944 15.4944 14.4006 15.86 13H17ZM12 14C10.8954 14 9.99998 13.1046 9.99998 12C9.99998 10.8954 10.8954 9.99999 12 9.99999C13.1045 9.99999 14 10.8954 14 12C14 13.1046 13.1045 14 12 14ZM21 15C20.4477 15 20 15.4477 20 16V19C20 19.5523 19.5523 20 19 20H16C15.4477 20 15 20.4477 15 21C15 21.5523 15.4477 22 16 22H19C20.6568 22 22 20.6569 22 19V16C22 15.4477 21.5523 15 21 15ZM19 2H16C15.4477 2 15 2.44772 15 3C15 3.55229 15.4477 4 16 4H19C19.5523 4 20 4.44772 20 5V8C20 8.55229 20.4477 9 21 9C21.5523 9 22 8.55229 22 8V5C22 3.34315 20.6568 2 19 2Z" fill="#171E2B"/>
</svg>
