<svg width="24" height="24" viewBox="0 0 24 24" fill="none" xmlns="http://www.w3.org/2000/svg">
<path fill-rule="evenodd" clip-rule="evenodd" d="M8 20H5C4.44772 20 4 19.5523 4 19V16C4 15.4477 3.55228 15 3 15C2.44772 15 2 15.4477 2 16V19C2 20.6569 3.34315 22 5 22H8C8.55229 22 9 21.5523 9 21C9 20.4477 8.55229 20 8 20ZM3 9C3.55228 9 4 8.55229 4 8V5C4 4.44772 4.44772 4 5 4H8C8.55229 4 9 3.55229 9 3C9 2.44772 8.55229 2 8 2H5C3.34315 2 2 3.34315 2 5V8C2 8.55229 2.44772 9 3 9ZM19 2H16C15.4477 2 15 2.44772 15 3C15 3.55229 15.4477 4 16 4H19C19.5523 4 20 4.44772 20 5V8C20 8.55229 20.4477 9 21 9C21.5523 9 22 8.55229 22 8V5C22 3.34315 20.6569 2 19 2ZM16 12C16 11.4477 15.5523 11 15 11H13V9C13 8.44771 12.5523 8 12 8C11.4477 8 11 8.44771 11 9V11H9C8.44772 11 8 11.4477 8 12C8 12.5523 8.44772 13 9 13H11V15C11 15.5523 11.4477 16 12 16C12.5523 16 13 15.5523 13 15V13H15C15.5523 13 16 12.5523 16 12ZM21 15C20.4477 15 20 15.4477 20 16V19C20 19.5523 19.5523 20 19 20H16C15.4477 20 15 20.4477 15 21C15 21.5523 15.4477 22 16 22H19C20.6569 22 22 20.6569 22 19V16C22 15.4477 21.5523 15 21 15Z" fill="#171E2B"/>
</svg>
