<svg width="24" height="24" viewBox="0 0 24 24" fill="none" xmlns="http://www.w3.org/2000/svg">
<path fill-rule="evenodd" clip-rule="evenodd" d="M8 2H3C2.44772 2 2 2.44772 2 3V8C2 8.55229 2.44772 9 3 9C3.55228 9 4 8.55229 4 8V4H8C8.55229 4 9 3.55229 9 3C9 2.44772 8.55229 2 8 2ZM8 20H4V16C4 15.4477 3.55228 15 3 15C2.44772 15 2 15.4477 2 16V21C2 21.5523 2.44772 22 3 22H8C8.55229 22 9 21.5523 9 21C9 20.4477 8.55229 20 8 20ZM21 2H16C15.4477 2 15 2.44772 15 3C15 3.55229 15.4477 4 16 4H20V8C20 8.55229 20.4477 9 21 9C21.5523 9 22 8.55229 22 8V3C22 2.44772 21.5523 2 21 2ZM21 15C20.4477 15 20 15.4477 20 16V20H16C15.4477 20 15 20.4477 15 21C15 21.5523 15.4477 22 16 22H21C21.5523 22 22 21.5523 22 21V16C22 15.4477 21.5523 15 21 15Z" fill="#171E2B"/>
</svg>
