<svg width="24" height="24" viewBox="0 0 24 24" fill="none" xmlns="http://www.w3.org/2000/svg">
<path fill-rule="evenodd" clip-rule="evenodd" d="M19 5.50002H12.72L12.4 4.50002C11.9748 3.29737 10.8356 2.49511 9.55998 2.50002H4.99998C3.34313 2.50002 1.99998 3.84317 1.99998 5.50002V18.5C1.99998 20.1569 3.34313 21.5 4.99998 21.5H19C20.6568 21.5 22 20.1569 22 18.5V8.50002C22 6.84317 20.6568 5.50002 19 5.50002ZM20 18.5C20 19.0523 19.5523 19.5 19 19.5H4.99998C4.44769 19.5 3.99998 19.0523 3.99998 18.5V5.50003C3.99998 4.94774 4.44769 4.50003 4.99998 4.50003H9.55998C9.98989 4.49892 10.3724 4.77272 10.51 5.18003L11.05 6.82003C11.1875 7.22734 11.5701 7.50114 12 7.50003H19C19.5523 7.50003 20 7.94774 20 8.50003V18.5Z" fill="#171E2B"/>
</svg>
