<svg width="24" height="24" viewBox="0 0 24 24" fill="none" xmlns="http://www.w3.org/2000/svg">
<path fill-rule="evenodd" clip-rule="evenodd" d="M14 12.5H13V11.5C13 10.9477 12.5523 10.5 12 10.5C11.4477 10.5 11 10.9477 11 11.5V12.5H10C9.44772 12.5 9 12.9477 9 13.5C9 14.0523 9.44772 14.5 10 14.5H11V15.5C11 16.0523 11.4477 16.5 12 16.5C12.5523 16.5 13 16.0523 13 15.5V14.5H14C14.5523 14.5 15 14.0523 15 13.5C15 12.9477 14.5523 12.5 14 12.5ZM19 5.50002H12.72L12.4 4.50002C11.9748 3.29737 10.8356 2.49511 9.56 2.50002H5C3.34315 2.50002 2 3.84317 2 5.50002V18.5C2 20.1569 3.34315 21.5 5 21.5H19C20.6569 21.5 22 20.1569 22 18.5V8.50002C22 6.84317 20.6569 5.50002 19 5.50002ZM20 18.5C20 19.0523 19.5523 19.5 19 19.5H5C4.44772 19.5 4 19.0523 4 18.5V5.50002C4 4.94773 4.44772 4.50002 5 4.50002H9.56C9.98992 4.49891 10.3724 4.77271 10.51 5.18002L11.05 6.82002C11.1876 7.22733 11.5701 7.50113 12 7.50002H19C19.5523 7.50002 20 7.94773 20 8.50002V18.5Z" fill="#171E2B"/>
</svg>
