<svg width="24" height="24" viewBox="0 0 24 24" fill="none" xmlns="http://www.w3.org/2000/svg">
<path fill-rule="evenodd" clip-rule="evenodd" d="M13.29 13.79L13 14.09V11.5C13 10.9477 12.5523 10.5 12 10.5C11.4477 10.5 11 10.9477 11 11.5V14.09L10.71 13.79C10.3179 13.3979 9.68215 13.3979 9.29003 13.79C8.89791 14.1821 8.89791 14.8179 9.29003 15.21L11.29 17.21C11.3851 17.3011 11.4973 17.3724 11.62 17.42C11.8621 17.527 12.138 17.527 12.38 17.42C12.5028 17.3724 12.6149 17.3011 12.71 17.21L14.71 15.21C15.1022 14.8179 15.1022 14.1821 14.71 13.79C14.3179 13.3979 13.6822 13.3979 13.29 13.79ZM19 5.50002H12.72L12.4 4.50002C11.9748 3.29737 10.8356 2.49511 9.56002 2.50002H5.00002C3.34316 2.50002 2.00002 3.84317 2.00002 5.50002V18.5C2.00002 20.1569 3.34316 21.5 5.00002 21.5H19C20.6569 21.5 22 20.1569 22 18.5V8.50002C22 6.84317 20.6569 5.50002 19 5.50002ZM20 18.5C20 19.0523 19.5523 19.5 19 19.5H5.00003C4.44775 19.5 4.00003 19.0523 4.00003 18.5V5.50003C4.00003 4.94774 4.44775 4.50003 5.00003 4.50003H9.56003C9.98995 4.49892 10.3725 4.77272 10.51 5.18003L11.05 6.82003C11.1876 7.22734 11.5701 7.50114 12 7.50003H19C19.5523 7.50003 20 7.94774 20 8.50003V18.5Z" fill="#171E2B"/>
</svg>
