<svg width="24" height="24" viewBox="0 0 24 24" fill="none" xmlns="http://www.w3.org/2000/svg">
<path fill-rule="evenodd" clip-rule="evenodd" d="M12 9.84003C10.7214 9.1582 9.13628 9.51712 8.27613 10.6832C7.41599 11.8493 7.54108 13.4698 8.57001 14.49L11.29 17.21C11.4778 17.3993 11.7334 17.5058 12 17.5058C12.2666 17.5058 12.5222 17.3993 12.71 17.21L15.43 14.49C16.4589 13.4698 16.584 11.8493 15.7239 10.6832C14.8637 9.51712 13.2786 9.1582 12 9.84003ZM14 13.07L12 15.07L9.99999 13.07C9.64143 12.7109 9.64143 12.1292 9.99999 11.77C10.3592 11.4115 10.9408 11.4115 11.3 11.77C11.4878 11.9593 11.7434 12.0658 12.01 12.0658C12.2766 12.0658 12.5322 11.9593 12.72 11.77C13.0829 11.4355 13.6451 11.447 13.9941 11.7959C14.3431 12.1449 14.3545 12.7071 14.02 13.07H14ZM19 5.50002H12.72L12.4 4.50002C11.9748 3.29737 10.8356 2.49511 9.56 2.50002H5C3.34315 2.50002 2 3.84317 2 5.50002V18.5C2 20.1569 3.34315 21.5 5 21.5H19C20.6569 21.5 22 20.1569 22 18.5V8.50002C22 6.84317 20.6569 5.50002 19 5.50002ZM20 18.5C20 19.0523 19.5523 19.5 19 19.5H5.00001C4.44773 19.5 4.00002 19.0523 4.00002 18.5V5.50002C4.00002 4.94773 4.44773 4.50002 5.00001 4.50002H9.56001C9.98993 4.49891 10.3724 4.77271 10.51 5.18002L11.05 6.82002C11.1876 7.22733 11.5701 7.50113 12 7.50002H19C19.5523 7.50002 20 7.94773 20 8.50002V18.5Z" fill="#171E2B"/>
</svg>
