<svg width="24" height="24" viewBox="0 0 24 24" fill="none" xmlns="http://www.w3.org/2000/svg">
<path fill-rule="evenodd" clip-rule="evenodd" d="M4 4.00002H8.56C8.98992 3.99891 9.37243 4.27271 9.51 4.68002L10.05 6.32002C10.1876 6.72733 10.5701 7.00113 11 7.00002H18C18.5523 7.00002 19 7.44774 19 8.00002C19 8.55231 19.4477 9.00002 20 9.00002C20.5523 9.00002 21 8.55231 21 8.00002C21 6.34317 19.6569 5.00002 18 5.00002H11.72L11.4 4.00002C10.9748 2.79737 9.83559 1.99511 8.56 2.00002H4C2.34315 2.00002 1 3.34317 1 5.00002V18C1 19.6569 2.34315 21 4 21H10C10.5523 21 11 20.5523 11 20C11 19.4477 10.5523 19 10 19H4C3.44772 19 3 18.5523 3 18V5.00002C3 4.44774 3.44772 4.00002 4 4.00002ZM21 15.18V14C21 12.3432 19.6569 11 18 11C16.3431 11 15 12.3432 15 14V15.18C13.8043 15.6028 13.0036 16.7318 13 18V20C13 21.6569 14.3431 23 16 23H20C21.6569 23 23 21.6569 23 20V18C22.9964 16.7318 22.1957 15.6028 21 15.18ZM17 14C17 13.4477 17.4477 13 18 13C18.5523 13 19 13.4477 19 14V15H17V14ZM21 20C21 20.5523 20.5523 21 20 21H16C15.4477 21 15 20.5523 15 20V18C15 17.4477 15.4477 17 16 17H20C20.5523 17 21 17.4477 21 18V20Z" fill="#171E2B"/>
</svg>
