<svg width="24" height="24" viewBox="0 0 24 24" fill="none" xmlns="http://www.w3.org/2000/svg">
<path fill-rule="evenodd" clip-rule="evenodd" d="M14.71 10.79C14.5222 10.6007 14.2666 10.4942 14 10.4942C13.7334 10.4942 13.4778 10.6007 13.29 10.79L12 12.09L10.71 10.79C10.3179 10.3979 9.68212 10.3979 9.28999 10.79C8.89787 11.1821 8.89787 11.8179 9.28999 12.21L10.59 13.5L9.28999 14.79C9.10068 14.9778 8.99419 15.2334 8.99419 15.5C8.99419 15.7667 9.10068 16.0223 9.28999 16.21C9.47776 16.3993 9.73336 16.5058 9.99999 16.5058C10.2666 16.5058 10.5222 16.3993 10.71 16.21L12 14.91L13.29 16.21C13.4778 16.3993 13.7334 16.5058 14 16.5058C14.2666 16.5058 14.5222 16.3993 14.71 16.21C14.8993 16.0223 15.0058 15.7667 15.0058 15.5C15.0058 15.2334 14.8993 14.9778 14.71 14.79L13.41 13.5L14.71 12.21C14.8993 12.0223 15.0058 11.7667 15.0058 11.5C15.0058 11.2334 14.8993 10.9778 14.71 10.79ZM19 5.50002H12.72L12.4 4.50002C11.9748 3.29737 10.8356 2.49511 9.56 2.50002H5C3.34315 2.50002 2 3.84317 2 5.50002V18.5C2 20.1569 3.34315 21.5 5 21.5H19C20.6569 21.5 22 20.1569 22 18.5V8.50002C22 6.84317 20.6569 5.50002 19 5.50002ZM20 18.5C20 19.0523 19.5523 19.5 19 19.5H5.00001C4.44773 19.5 4.00002 19.0523 4.00002 18.5V5.50002C4.00002 4.94774 4.44773 4.50002 5.00001 4.50002H9.56001C9.98993 4.49891 10.3724 4.77271 10.51 5.18002L11.05 6.82002C11.1876 7.22733 11.5701 7.50113 12 7.50002H19C19.5523 7.50002 20 7.94774 20 8.50002V18.5Z" fill="#171E2B"/>
</svg>
