<svg width="24" height="24" viewBox="0 0 24 24" fill="none" xmlns="http://www.w3.org/2000/svg">
<path fill-rule="evenodd" clip-rule="evenodd" d="M12.92 16.12C12.8981 16.0563 12.8678 15.9958 12.83 15.94C12.7931 15.8876 12.753 15.8375 12.71 15.79L12.56 15.67L12.38 15.58C12.3205 15.5496 12.2562 15.5293 12.19 15.52C11.8638 15.4547 11.5264 15.5559 11.29 15.79L11.17 15.94C11.1322 15.9958 11.1019 16.0563 11.08 16.12C11.0512 16.1767 11.0309 16.2374 11.02 16.3C11.0151 16.3666 11.0151 16.4334 11.02 16.5C11.0216 16.6307 11.0488 16.7598 11.1 16.88C11.1506 17.0012 11.2217 17.1128 11.31 17.21C11.5953 17.4972 12.0256 17.5841 12.4 17.43C12.5195 17.372 12.6305 17.298 12.73 17.21C12.818 17.1105 12.892 16.9995 12.95 16.88C12.991 16.7578 13.008 16.6287 13 16.5C13.0049 16.4334 13.0049 16.3666 13 16.3C12.9828 16.2363 12.9558 16.1755 12.92 16.12ZM12 10.5C11.4477 10.5 11 10.9477 11 11.5V13.5C11 14.0523 11.4477 14.5 12 14.5C12.5523 14.5 13 14.0523 13 13.5V11.5C13 10.9477 12.5523 10.5 12 10.5ZM19 5.50002H12.72L12.4 4.50002C11.9748 3.29737 10.8356 2.49511 9.56 2.50002H5C3.34315 2.50002 2 3.84317 2 5.50002V18.5C2 20.1569 3.34315 21.5 5 21.5H19C20.6569 21.5 22 20.1569 22 18.5V8.50002C22 6.84317 20.6569 5.50002 19 5.50002ZM20 18.5C20 19.0523 19.5523 19.5 19 19.5H5.00001C4.44773 19.5 4.00002 19.0523 4.00002 18.5V5.50002C4.00002 4.94773 4.44773 4.50002 5.00001 4.50002H9.56001C9.98993 4.49891 10.3724 4.77271 10.51 5.18002L11.05 6.82002C11.1876 7.22733 11.5701 7.50113 12 7.50002H19C19.5523 7.50002 20 7.94773 20 8.50002V18.5Z" fill="#171E2B"/>
</svg>
