<svg width="24" height="24" viewBox="0 0 24 24" fill="none" xmlns="http://www.w3.org/2000/svg">
<path fill-rule="evenodd" clip-rule="evenodd" d="M21.71 20.29L20.11 18.69L3.71002 2.28996C3.45636 2.03631 3.08665 1.93724 2.74014 2.03009C2.39364 2.12293 2.12299 2.39358 2.03014 2.74009C1.9373 3.08659 2.03636 3.45631 2.29002 3.70996L3.69002 5.09996C3.24715 5.63441 3.0033 6.30588 3.00002 6.99996V18C3.00002 19.6568 4.34317 21 6.00002 21H18C18.447 20.9973 18.8877 20.8948 19.29 20.7L20.29 21.7C20.4778 21.8893 20.7334 21.9958 21 21.9958C21.2667 21.9958 21.5223 21.8893 21.71 21.7C22.0977 21.3099 22.0977 20.68 21.71 20.29ZM6.00002 19C5.44773 19 5.00002 18.5522 5.00002 18V6.99997C5.00246 6.83922 5.04362 6.68143 5.12002 6.53997L17.59 19H6.00002ZM10.62 5.99996C11.0252 6.02207 11.3768 6.28676 11.51 6.66996L12.05 8.30996C12.1841 8.72122 12.5675 8.99964 13 8.99996H18C18.5523 8.99996 19 9.44767 19 9.99996V14.34C19 14.8922 19.4478 15.34 20 15.34C20.5523 15.34 21 14.8922 21 14.34V9.99996C21 8.3431 19.6569 6.99996 18 6.99996H13.72L13.4 5.99996C12.9955 4.85106 11.9365 4.06076 10.72 3.99996C10.1678 3.97234 9.69765 4.39767 9.67004 4.94996C9.64242 5.50224 10.0678 5.97234 10.62 5.99996Z" fill="#171E2B"/>
</svg>
