<svg width="24" height="24" viewBox="0 0 24 24" fill="none" xmlns="http://www.w3.org/2000/svg">
<path fill-rule="evenodd" clip-rule="evenodd" d="M12.57 16.3C12.5271 16.2492 12.4765 16.2053 12.42 16.17L12.25 16.08L12.06 16C11.7321 15.9373 11.3945 16.0423 11.16 16.28C11.0665 16.3713 10.9917 16.48 10.94 16.6C10.8909 16.7241 10.8671 16.8567 10.87 16.99C10.8711 17.2524 10.9753 17.5038 11.16 17.69C11.2513 17.7836 11.36 17.8583 11.48 17.91C11.604 17.9591 11.7366 17.9829 11.87 17.98C12 17.9816 12.1291 17.9578 12.25 17.91C12.37 17.8583 12.4788 17.7836 12.57 17.69C12.7584 17.5054 12.8663 17.2538 12.87 16.99C12.8698 16.856 12.8426 16.7233 12.79 16.6C12.7392 16.4853 12.6641 16.383 12.57 16.3ZM11.87 9.00002C10.7975 8.99934 9.80627 9.57123 9.27003 10.5C9.07297 10.81 9.06172 11.2031 9.24073 11.5238C9.41974 11.8446 9.76019 12.0414 10.1275 12.0364C10.4948 12.0314 10.8298 11.8255 11 11.5C11.2245 11.1038 11.6884 10.9093 12.1284 11.027C12.5683 11.1446 12.8732 11.5446 12.87 12C12.87 12.5523 12.4223 13 11.87 13C11.3177 13 10.87 13.4477 10.87 14C10.87 14.5523 11.3177 15 11.87 15C13.5269 15 14.87 13.6569 14.87 12C14.87 10.3432 13.5269 9.00002 11.87 9.00002ZM19 5.50002H12.72L12.4 4.50002C11.9748 3.29737 10.8356 2.49511 9.56002 2.50002H5.00002C3.34316 2.50002 2.00002 3.84317 2.00002 5.50002V18.5C2.00002 20.1569 3.34316 21.5 5.00002 21.5H19C20.6569 21.5 22 20.1569 22 18.5V8.50002C22 6.84317 20.6569 5.50002 19 5.50002ZM20 18.5C20 19.0523 19.5523 19.5 19 19.5H5.00003C4.44775 19.5 4.00003 19.0523 4.00003 18.5V5.50002C4.00003 4.94773 4.44775 4.50002 5.00003 4.50002H9.56003C9.98995 4.49891 10.3725 4.77271 10.51 5.18002L11.05 6.82002C11.1876 7.22733 11.5701 7.50113 12 7.50002H19C19.5523 7.50002 20 7.94773 20 8.50002V18.5Z" fill="#171E2B"/>
</svg>
