<svg width="24" height="24" viewBox="0 0 24 24" fill="none" xmlns="http://www.w3.org/2000/svg">
<path fill-rule="evenodd" clip-rule="evenodd" d="M21 17.9999H14.82C14.5176 17.1506 13.8493 16.4823 13 16.1799V13.9999H16.67C17.9545 13.9945 18.9945 12.9545 19 11.6699V6.32995C18.9945 5.0454 17.9545 4.00543 16.67 3.99995H12.67L12.54 3.58995C12.224 2.65558 11.3561 2.01964 10.37 1.99995H7.36998C6.74593 1.99194 6.14453 2.23356 5.69948 2.6711C5.25442 3.10865 5.0026 3.70584 4.99998 4.32995V11.6699C5.00546 12.9545 6.04544 13.9945 7.32998 13.9999H11V16.1799C10.1507 16.4823 9.48237 17.1506 9.17998 17.9999H2.99998C2.4477 17.9999 1.99998 18.4477 1.99998 18.9999C1.99998 19.5522 2.4477 19.9999 2.99998 19.9999H9.17998C9.61061 21.1864 10.7378 21.9764 12 21.9764C13.2622 21.9764 14.3894 21.1864 14.82 19.9999H21C21.5523 19.9999 22 19.5522 22 18.9999C22 18.4477 21.5523 17.9999 21 17.9999ZM7.32998 12C7.14772 12 6.99998 11.8522 6.99998 11.67V4.32995C6.99998 4.1477 7.14772 3.99995 7.32998 3.99995H10.33C10.4757 3.99752 10.6058 4.09102 10.65 4.22995L11.01 5.31995C11.152 5.74162 11.5554 6.01876 12 5.99995H16.67C16.8522 5.99995 17 6.1477 17 6.32995V11.67C17 11.8522 16.8522 12 16.67 12H7.32998ZM12 20C11.4477 20 11 19.5522 11 19C11 18.4477 11.4477 18 12 18C12.5523 18 13 18.4477 13 19C13 19.5522 12.5523 20 12 20Z" fill="#171E2B"/>
</svg>
