<svg width="24" height="24" viewBox="0 0 24 24" fill="none" xmlns="http://www.w3.org/2000/svg">
<path fill-rule="evenodd" clip-rule="evenodd" d="M12 13.5C11.4477 13.5 11 13.9477 11 14.5V16.5C11 17.0523 11.4477 17.5 12 17.5C12.5523 17.5 13 17.0523 13 16.5V14.5C13 13.9477 12.5523 13.5 12 13.5ZM19 5.50002H12.72L12.4 4.50002C11.9748 3.29737 10.8356 2.49511 9.56 2.50002H5C3.34315 2.50002 2 3.84317 2 5.50002V18.5C2 20.1569 3.34315 21.5 5 21.5H19C20.6569 21.5 22 20.1569 22 18.5V8.50002C22 6.84317 20.6569 5.50002 19 5.50002ZM20 18.5C20 19.0523 19.5523 19.5 19 19.5H5.00001C4.44773 19.5 4.00002 19.0523 4.00002 18.5V5.50002C4.00002 4.94773 4.44773 4.50002 5.00001 4.50002H9.56001C9.98993 4.49891 10.3724 4.77271 10.51 5.18002L11.05 6.82002C11.1876 7.22733 11.5701 7.50113 12 7.50002H19C19.5523 7.50002 20 7.94773 20 8.50002V18.5ZM12.71 10.79C12.4224 10.5063 11.9924 10.4234 11.62 10.58C11.4964 10.6258 11.3839 10.6974 11.29 10.79C11.1073 10.9817 11.0037 11.2353 11 11.5C11.0011 11.7624 11.1053 12.0138 11.29 12.2C11.4778 12.3893 11.7334 12.4958 12 12.4958C12.2666 12.4958 12.5222 12.3893 12.71 12.2C12.8947 12.0138 12.9989 11.7624 13 11.5C12.9984 11.3693 12.9712 11.2402 12.92 11.12C12.8742 10.9964 12.8026 10.8839 12.71 10.79Z" fill="#171E2B"/>
</svg>
