<svg width="24" height="24" viewBox="0 0 24 24" fill="none" xmlns="http://www.w3.org/2000/svg">
<path fill-rule="evenodd" clip-rule="evenodd" d="M14 12.5H13V11.5C13 10.9477 12.5523 10.5 12 10.5C11.4477 10.5 11 10.9477 11 11.5V12.5H9.99999C9.44771 12.5 8.99999 12.9477 8.99999 13.5C8.99999 14.0523 9.44771 14.5 9.99999 14.5H11V15.5C11 16.0523 11.4477 16.5 12 16.5C12.5523 16.5 13 16.0523 13 15.5V14.5H14C14.5523 14.5 15 14.0523 15 13.5C15 12.9477 14.5523 12.5 14 12.5ZM19 5.50002H12.72L12.4 4.50002C11.9748 3.29737 10.8356 2.49511 9.55998 2.50002H4.99998C3.34313 2.50002 1.99998 3.84317 1.99998 5.50002V18.5C1.99998 20.1569 3.34313 21.5 4.99998 21.5H19C20.6568 21.5 22 20.1569 22 18.5V8.50002C22 6.84317 20.6568 5.50002 19 5.50002ZM20 18.5C20 19.0523 19.5523 19.5 19 19.5H4.99998C4.44769 19.5 3.99998 19.0523 3.99998 18.5V5.50002C3.99998 4.94773 4.44769 4.50002 4.99998 4.50002H9.55998C9.98989 4.49891 10.3724 4.77271 10.51 5.18002L11.05 6.82002C11.1875 7.22733 11.5701 7.50113 12 7.50002H19C19.5523 7.50002 20 7.94773 20 8.50002V18.5Z" fill="#171E2B"/>
</svg>
