<svg width="24" height="24" viewBox="0 0 24 24" fill="none" xmlns="http://www.w3.org/2000/svg">
<path fill-rule="evenodd" clip-rule="evenodd" d="M12.71 10.79C12.6149 10.699 12.5028 10.6276 12.38 10.58C12.1366 10.48 11.8635 10.48 11.62 10.58C11.4973 10.6276 11.3851 10.699 11.29 10.79L9.29002 12.79C8.89789 13.1821 8.89789 13.8179 9.29002 14.21C9.68214 14.6021 10.3179 14.6021 10.71 14.21L11 13.91V16.5C11 17.0523 11.4477 17.5 12 17.5C12.5523 17.5 13 17.0523 13 16.5V13.91L13.29 14.21C13.4778 14.3993 13.7334 14.5058 14 14.5058C14.2667 14.5058 14.5223 14.3993 14.71 14.21C14.8993 14.0223 15.0058 13.7667 15.0058 13.5C15.0058 13.2334 14.8993 12.9778 14.71 12.79L12.71 10.79ZM19 5.50002H12.72L12.4 4.50002C11.9748 3.29737 10.8356 2.49511 9.56 2.50002H5C3.34315 2.50002 2 3.84317 2 5.50002V18.5C2 20.1569 3.34315 21.5 5 21.5H19C20.6569 21.5 22 20.1569 22 18.5V8.50002C22 6.84317 20.6569 5.50002 19 5.50002ZM20 18.5C20 19.0523 19.5523 19.5 19 19.5H5.00001C4.44773 19.5 4.00002 19.0523 4.00002 18.5V5.50002C4.00002 4.94774 4.44773 4.50002 5.00001 4.50002H9.56001C9.98993 4.49891 10.3724 4.77271 10.51 5.18002L11.05 6.82002C11.1876 7.22733 11.5701 7.50113 12 7.50002H19C19.5523 7.50002 20 7.94774 20 8.50002V18.5Z" fill="#171E2B"/>
</svg>
