<svg width="24" height="24" viewBox="0 0 24 24" fill="none" xmlns="http://www.w3.org/2000/svg">
<path fill-rule="evenodd" clip-rule="evenodd" d="M14.29 10.79L11 14.09L9.71 12.79C9.31788 12.3979 8.68212 12.3979 8.29 12.79C7.89788 13.1821 7.89788 13.8179 8.29 14.21L10.29 16.21C10.4778 16.3993 10.7334 16.5058 11 16.5058C11.2666 16.5058 11.5222 16.3993 11.71 16.21L15.71 12.21C16.1021 11.8179 16.1021 11.1821 15.71 10.79C15.3179 10.3979 14.6821 10.3979 14.29 10.79ZM19 5.50002H12.72L12.4 4.50002C11.9748 3.29737 10.8356 2.49511 9.56002 2.50002H5.00002C3.34316 2.50002 2.00002 3.84317 2.00002 5.50002V18.5C2.00002 20.1569 3.34316 21.5 5.00002 21.5H19C20.6569 21.5 22 20.1569 22 18.5V8.50002C22 6.84317 20.6569 5.50002 19 5.50002ZM20 18.5C20 19.0523 19.5523 19.5 19 19.5H5.00003C4.44775 19.5 4.00003 19.0523 4.00003 18.5V5.50003C4.00003 4.94774 4.44775 4.50003 5.00003 4.50003H9.56003C9.98995 4.49892 10.3725 4.77272 10.51 5.18003L11.05 6.82003C11.1876 7.22734 11.5701 7.50114 12 7.50003H19C19.5523 7.50003 20 7.94774 20 8.50003V18.5Z" fill="#171E2B"/>
</svg>
