<svg width="24" height="24" viewBox="0 0 24 24" fill="none" xmlns="http://www.w3.org/2000/svg">
<path fill-rule="evenodd" clip-rule="evenodd" d="M8.51004 12.4801C7.95776 12.4801 7.51004 12.9278 7.51004 13.4801C7.51004 14.0324 7.95776 14.4801 8.51004 14.4801C9.06233 14.4801 9.51004 14.0324 9.51004 13.4801C9.51004 12.9278 9.06233 12.4801 8.51004 12.4801ZM8.51004 8.00007C7.95776 8.00007 7.51004 8.44778 7.51004 9.00007C7.51004 9.55236 7.95776 10.0001 8.51004 10.0001C9.06233 10.0001 9.51004 9.55236 9.51004 9.00007C9.51004 8.44778 9.06233 8.00007 8.51004 8.00007ZM12 10.0001C11.4477 10.0001 11 10.4478 11 11.0001V12.0001C11 12.5524 11.4477 13.0001 12 13.0001C12.5523 13.0001 13 12.5524 13 12.0001V11.0001C13 10.4478 12.5523 10.0001 12 10.0001ZM20.5 8.57007C19.8032 8.16913 18.9746 8.06465 18.2 8.28007C17.801 8.38696 17.4293 8.57789 17.11 8.84007L5.51003 2.13007C5.20063 1.95144 4.81943 1.95144 4.51003 2.13007C4.19554 2.30684 4.00065 2.6393 4.00003 3.00007V16.1701C2.78917 16.5785 1.98081 17.7223 2.00003 19.0001C1.99945 20.6262 3.2945 21.9567 4.92003 22.0001H5.50003C12.1703 21.9844 18.3198 18.3924 21.61 12.5901C22.3859 11.1725 21.8996 9.39509 20.51 8.57007H20.5ZM6.00001 4.73007L15.89 10.4401C13.6648 13.7604 9.99316 15.8246 6.00001 16.0001V4.73007ZM19.87 11.6101C16.845 16.9401 11.1264 20.1666 5.00003 20.0001C4.44775 20.0001 4.00003 19.5524 4.00003 19.0001C3.99845 18.7294 4.1067 18.4696 4.30003 18.2801C4.4879 18.099 4.73911 17.9985 5.00003 18.0001H5.51003C10.7377 17.9979 15.5595 15.182 18.13 10.6301C18.2528 10.4083 18.4634 10.2485 18.71 10.1901C18.9622 10.1209 19.2314 10.1532 19.46 10.2801C19.9371 10.5365 20.1233 11.1262 19.88 11.6101H19.87Z" fill="#171E2B"/>
</svg>
