<svg width="24" height="24" viewBox="0 0 24 24" fill="none" xmlns="http://www.w3.org/2000/svg">
<path fill-rule="evenodd" clip-rule="evenodd" d="M21.84 5.56012C21.7072 4.70854 21.3081 3.92089 20.7 3.31012C20.0892 2.70201 19.3016 2.30293 18.45 2.17012C13.9723 1.55299 9.46377 3.06666 6.26567 6.26084C3.06756 9.45502 1.54835 13.9617 2.15999 18.4401C2.2928 19.2917 2.69187 20.0794 3.29999 20.6901C3.91075 21.2982 4.6984 21.6973 5.54999 21.8301C6.23771 21.9419 6.93324 21.9988 7.62999 22.0001C11.4308 21.973 15.066 20.4413 17.74 17.7401C20.9666 14.5636 22.4889 10.0412 21.84 5.56012ZM4.20999 18.3701C4.18072 18.292 4.15733 18.2117 4.13999 18.1301C3.58326 14.2802 4.89428 10.3954 7.66998 7.67012C9.97188 5.34638 13.0992 4.02713 16.37 4.00012C16.9595 3.99701 17.5483 4.04384 18.13 4.14012C18.2116 4.15746 18.2918 4.18086 18.37 4.21012L13.44 9.15012L12.71 8.42012C12.5222 8.23081 12.2666 8.12432 12 8.12432C11.7333 8.12432 11.4778 8.23081 11.29 8.42012C10.9023 8.81015 10.9023 9.44008 11.29 9.83012L12.02 10.5601L10.56 12.0001L9.82998 11.2701C9.43995 10.8824 8.81002 10.8824 8.41999 11.2701C8.23067 11.4579 8.12419 11.7135 8.12419 11.9801C8.12419 12.2468 8.23067 12.5023 8.41999 12.6901L9.14998 13.4201L4.20999 18.3701ZM16.33 16.3701C13.5945 19.1271 9.71288 20.4222 5.86998 19.8601C5.78836 19.8428 5.70813 19.8194 5.62998 19.7901L10.56 14.8501L11.29 15.5801C11.5419 15.8338 11.9099 15.9338 12.2555 15.8425C12.6011 15.7512 12.8718 15.4825 12.9655 15.1375C13.0593 14.7925 12.9619 14.4238 12.71 14.1701L12 13.4401L13.44 12.0001L14.17 12.7301C14.3587 12.9173 14.6142 13.0217 14.88 13.0201C15.2844 13.0184 15.648 12.7733 15.8013 12.399C15.9545 12.0247 15.8671 11.5949 15.58 11.3101L14.85 10.5801L19.79 5.65012C19.8192 5.72827 19.8426 5.80849 19.86 5.89012C20.4101 9.73343 19.0996 13.6093 16.33 16.3301V16.3701Z" fill="#171E2B"/>
</svg>
