<svg width="24" height="24" viewBox="0 0 24 24" fill="none" xmlns="http://www.w3.org/2000/svg">
<path fill-rule="evenodd" clip-rule="evenodd" d="M20.07 6.11012C18.9817 4.6075 17.4912 3.4428 15.77 2.75012C12.6887 1.49592 9.18538 1.85619 6.42381 3.71128C3.66224 5.56636 2.00404 8.67332 2 12.0001C2 12.1901 2 12.3801 2 12.5601C2.08726 14.1242 2.54299 15.6456 3.33 17.0001C4.61526 19.256 6.72747 20.9235 9.22 21.6501C10.1259 21.8953 11.0616 22.0131 12 22.0001C12.6311 22.003 13.2609 21.9427 13.88 21.8201C18.0672 21.0096 21.2796 17.6326 21.88 13.4101C21.9551 12.9438 21.9953 12.4725 22 12.0001C22.0087 9.88003 21.3317 7.81395 20.07 6.11012ZM18.07 6.88012L17 9.74012L15.38 10.1801L13 8.49012V6.64012L15.49 4.83012C16.5004 5.31737 17.394 6.01656 18.11 6.88012H18.07ZM14 11.6701L13.22 14.0001H10.77L9.99999 11.6701L12 10.2401L14 11.6701ZM12 4.00012C12.3716 4.0043 12.7425 4.03437 13.11 4.09012L12 4.89012L10.89 4.09012C11.2575 4.03437 11.6284 4.0043 12 4.00012ZM4.87999 8.37012L5.27999 9.69012L4.14999 10.4801C4.29195 9.74571 4.53775 9.03524 4.87999 8.37012ZM6.24999 17.5401L7.62999 17.5901L8 18.9201C7.35741 18.5407 6.7688 18.0765 6.24999 17.5401ZM8 15.6001L4.85 15.4901C4.45256 14.7096 4.1889 13.8679 4.07 13.0001L6.56 11.2601L8 11.8801L8.89 14.6401L8 15.6001ZM8.86001 10.0701L7.30001 9.37012L6.39001 6.37012C7.00337 5.74368 7.71638 5.22329 8.50001 4.83012L11 6.64012V8.49012L8.86001 10.0701ZM13 19.9301C12.1227 20.0342 11.2342 19.9936 10.37 19.8101L9.54001 16.8901L10.37 16.0001H13.44L14.11 17.0001L13 19.9301ZM15.41 19.2301L15.87 18.0001L17.23 18.0701C16.6705 18.5413 16.0478 18.9318 15.38 19.2301H15.41ZM18.87 16.1101L15.76 16.0001L15.05 14.9001L15.94 12.1401L17.45 11.7301L19.81 13.7301C19.6198 14.5714 19.292 15.3755 18.84 16.1101H18.87ZM18.92 10.2801L19.4 9.00012C19.6816 9.67983 19.8602 10.3977 19.93 11.1301L18.92 10.2801Z" fill="#171E2B"/>
</svg>
