<svg width="24" height="24" viewBox="0 0 24 24" fill="none" xmlns="http://www.w3.org/2000/svg">
<path fill-rule="evenodd" clip-rule="evenodd" d="M21.84 5.5601C21.7072 4.70852 21.3081 3.92087 20.7 3.3101C20.0892 2.70199 19.3016 2.30292 18.45 2.1701C16.6879 1.90402 14.8908 1.98555 13.16 2.4101C13.0917 2.4241 13.0247 2.44418 12.96 2.4701C10.4274 3.10844 8.11529 4.42172 6.26999 6.2701C4.41409 8.1287 3.09433 10.4538 2.44999 13.0001C2.44999 13.0601 2.44999 13.1201 2.39999 13.1901C1.97541 14.9243 1.89388 16.7247 2.15999 18.4901C2.30274 19.3239 2.70112 20.0927 3.29999 20.6901C3.91076 21.2982 4.69841 21.6973 5.54999 21.8301C6.23771 21.9419 6.93325 21.9988 7.62999 22.0001C8.72911 21.9937 9.82353 21.8561 10.89 21.5901H11.03C16.1958 20.2823 20.2323 16.2534 21.55 11.0901C21.55 11.0301 21.55 10.9701 21.6 10.9001C22.0298 9.15313 22.1114 7.3386 21.84 5.5601ZM16.37 4.0001C16.9596 3.99699 17.5483 4.04382 18.13 4.1401C18.2116 4.15744 18.2918 4.18084 18.37 4.2101L17 5.5901L15.46 4.0501C15.76 4.0001 16.07 4.0001 16.37 4.0001ZM7.66999 7.6701C9.17552 6.17272 11.0319 5.07605 13.07 4.4801L15.59 7.0001L13.44 9.1501L12.71 8.4201C12.5222 8.23079 12.2666 8.12431 12 8.12431C11.7334 8.12431 11.4778 8.23079 11.29 8.4201C10.9023 8.81014 10.9023 9.44007 11.29 9.8301L12.02 10.5601L10.56 12.0001L9.82999 11.2701C9.43995 10.8824 8.81003 10.8824 8.41999 11.2701C8.23068 11.4579 8.12419 11.7135 8.12419 11.9801C8.12419 12.2467 8.23068 12.5023 8.41999 12.6901L9.14999 13.4201L6.99999 15.5901L4.48999 13.0801C5.07956 11.0386 6.1731 9.17825 7.66999 7.6701ZM4.21 18.3701C4.18074 18.292 4.15734 18.2117 4.14 18.1301C3.98858 17.2487 3.94159 16.3525 4 15.4601L5.59 17.0001L4.21 18.3701ZM5.86999 19.8601C5.78836 19.8428 5.70814 19.8194 5.62999 19.7901L6.99999 18.4101L8.53999 20.0001C7.64758 20.0585 6.7514 20.0115 5.86999 19.8601ZM16.33 16.3301C14.8219 17.827 12.9615 18.9205 10.92 19.5101L8.41 17.0001L10.56 14.8501L11.29 15.5801C11.5419 15.8338 11.9099 15.9338 12.2555 15.8425C12.6012 15.7512 12.8718 15.4824 12.9655 15.1375C13.0593 14.7925 12.9619 14.4238 12.71 14.1701L12 13.4401L13.44 12.0001L14.17 12.7301C14.3587 12.9173 14.6142 13.0216 14.88 13.0201C15.2844 13.0184 15.648 12.7733 15.8013 12.399C15.9545 12.0247 15.8672 11.5949 15.58 11.3101L14.85 10.5801L17 8.41011L19.51 10.9201C18.9204 12.9616 17.8269 14.822 16.33 16.3301ZM20 8.54011L18.41 7.00011L19.79 5.63011C19.8193 5.70826 19.8426 5.78848 19.86 5.87011C20.0114 6.75151 20.0584 7.6477 20 8.54011Z" fill="#171E2B"/>
</svg>
