<svg width="24" height="24" viewBox="0 0 24 24" fill="none" xmlns="http://www.w3.org/2000/svg">
<path fill-rule="evenodd" clip-rule="evenodd" d="M21.7 7.56988C21.4552 7.32936 21.1041 7.23121 20.77 7.30988C20.5534 7.35939 20.3322 7.3862 20.11 7.38988C18.4532 7.38988 17.11 6.04673 17.11 4.38988C17.1129 4.17094 17.1397 3.95298 17.19 3.73988C17.2708 3.40429 17.1728 3.05078 16.9307 2.80469C16.6887 2.55859 16.3369 2.45471 16 2.52988C13.9604 2.98018 12.4259 4.6669 12.17 6.73988C11.6268 6.58464 11.065 6.50391 10.5 6.49988C7.52105 6.49818 4.99196 8.6824 4.56001 11.6299C3.13304 12.0272 2.11073 13.2799 2.00743 14.7575C1.90413 16.2352 2.74221 17.6178 4.10001 18.2099C4.22745 18.2604 4.36295 18.2875 4.50001 18.2899C4.97673 18.2938 5.38992 17.9606 5.48715 17.4939C5.58438 17.0271 5.33863 16.5567 4.90001 16.3699C4.35142 16.1362 3.99664 15.5961 4.00001 14.9999C4.00001 14.1714 4.67158 13.4999 5.50001 13.4999C6.05229 13.4999 6.50001 13.0522 6.50001 12.4999C6.50001 10.2907 8.29087 8.49988 10.5 8.49988C11.276 8.49926 12.0347 8.72896 12.68 9.15988C13.4069 9.63804 13.9581 10.3402 14.25 11.1599C14.3665 11.51 14.6663 11.7676 15.03 11.8299C16.0152 11.9365 16.8239 12.6572 17.0429 13.6236C17.2619 14.59 16.8429 15.5889 16 16.1099C15.5361 16.4136 15.4063 17.036 15.71 17.4999C16.0138 17.9638 16.6361 18.0936 17.1 17.7899C18.3004 16.9782 19.0139 15.6188 19 14.1699C19.0039 13.473 18.8356 12.786 18.51 12.1699C20.2596 11.6813 21.5999 10.2718 22 8.49988C22.0686 8.1588 21.955 7.80658 21.7 7.56988ZM17.11 10.3899C16.9702 10.4012 16.8298 10.4012 16.69 10.3899C16.4717 10.2403 16.2408 10.1098 16 9.99988C15.5902 9.10172 14.965 8.31857 14.18 7.71988C14.18 7.59988 14.18 7.46988 14.18 7.34988C14.18 6.47294 14.5636 5.63989 15.23 5.06988C15.548 7.26088 17.269 8.98188 19.46 9.29988C18.882 10.0001 18.0179 10.4009 17.11 10.3899ZM11.11 14.3299C10.7717 14.1012 10.3283 14.1012 9.99 14.3299C9.84 14.4099 7.5 15.9999 7.5 18.4999C7.5 20.1567 8.84315 21.4999 10.5 21.4999C12.1569 21.4999 13.5 20.1567 13.5 18.4999C13.5 15.9999 11.15 14.3999 11.06 14.3299H11.11ZM10.5 19.4999C9.94773 19.4999 9.50002 19.0522 9.50002 18.4999C9.56316 17.7293 9.92141 17.0128 10.5 16.4999C11.0786 17.0128 11.4369 17.7293 11.5 18.4999C11.5 18.7651 11.3947 19.0194 11.2071 19.207C11.0196 19.3945 10.7652 19.4999 10.5 19.4999Z" fill="#171E2B"/>
</svg>
