<svg width="90" height="90" viewBox="0 0 90 90" fill="none" xmlns="http://www.w3.org/2000/svg">
<path d="M21.9061 61.099L17.4903 61.8349C16.944 61.926 16.5758 62.4437 16.669 62.9896L19.858 81.6683C19.94 82.1487 20.3564 82.5 20.8437 82.5H27.122C27.6243 82.5 28.0486 82.1274 28.1136 81.6293L30.8527 60.6293C30.9308 60.0308 30.4647 59.5 29.8611 59.5H23.7208C23.2903 59.5 22.9082 59.7754 22.7721 60.1838L22.6904 60.4288C22.5733 60.7802 22.2715 61.0381 21.9061 61.099Z" fill="#F3CCD4"/>
<path d="M9 9C9 8.44772 9.44772 8 10 8H81C81.5523 8 82 8.44772 82 9V54C82 54.5523 81.5523 55 81 55H10C9.44772 55 9 54.5523 9 54V9Z" fill="#F3CCD4"/>
<path fill-rule="evenodd" clip-rule="evenodd" d="M11.5 10.5V52.5H79.5V10.5H11.5ZM10 8C9.44772 8 9 8.44772 9 9V54C9 54.5523 9.44772 55 10 55H81C81.5523 55 82 54.5523 82 54V9C82 8.44772 81.5523 8 81 8H10Z" fill="#C1002A"/>
<path d="M32 27C32 31.4183 28.4183 35 24 35C19.5817 35 16 31.4183 16 27C16 22.5817 19.5817 19 24 19C28.4183 19 32 22.5817 32 27Z" fill="white"/>
<path fill-rule="evenodd" clip-rule="evenodd" d="M24 32.5C27.0376 32.5 29.5 30.0376 29.5 27C29.5 23.9624 27.0376 21.5 24 21.5C20.9624 21.5 18.5 23.9624 18.5 27C18.5 30.0376 20.9624 32.5 24 32.5ZM24 35C28.4183 35 32 31.4183 32 27C32 22.5817 28.4183 19 24 19C19.5817 19 16 22.5817 16 27C16 31.4183 19.5817 35 24 35Z" fill="#C1002A"/>
<path d="M70 27C70 31.4183 66.4183 35 62 35C57.5817 35 54 31.4183 54 27C54 22.5817 57.5817 19 62 19C66.4183 19 70 22.5817 70 27Z" fill="white"/>
<path fill-rule="evenodd" clip-rule="evenodd" d="M62 32.5C65.0376 32.5 67.5 30.0376 67.5 27C67.5 23.9624 65.0376 21.5 62 21.5C58.9624 21.5 56.5 23.9624 56.5 27C56.5 30.0376 58.9624 32.5 62 32.5ZM62 35C66.4183 35 70 31.4183 70 27C70 22.5817 66.4183 19 62 19C57.5817 19 54 22.5817 54 27C54 31.4183 57.5817 35 62 35Z" fill="#C1002A"/>
<path d="M30 35.5H16C15.4477 35.5 15 35.9477 15 36.5V60.5C15 61.0523 15.4477 61.5 16 61.5H22C22.5523 61.5 23 61.0523 23 60.5V59.5H30C30.5523 59.5 31 59.0523 31 58.5V36.5C31 35.9477 30.5523 35.5 30 35.5Z" fill="white"/>
<path fill-rule="evenodd" clip-rule="evenodd" d="M13.75 36.5C13.75 35.2574 14.7574 34.25 16 34.25H30C31.2426 34.25 32.25 35.2574 32.25 36.5V58.5C32.25 59.7426 31.2426 60.75 30 60.75H24.2363C24.1119 61.875 23.1581 62.75 22 62.75H16C14.7574 62.75 13.75 61.7426 13.75 60.5V36.5ZM24.25 58.25H29.75V36.75H16.25V60.25H21.75V42.5C21.75 41.8096 22.3096 41.25 23 41.25C23.6904 41.25 24.25 41.8096 24.25 42.5V58.25Z" fill="#C1002A"/>
<path fill-rule="evenodd" clip-rule="evenodd" d="M31.1583 57.7601C31.8431 57.8475 32.3273 58.4735 32.2399 59.1583L29.3514 81.7849C29.208 82.9083 28.252 83.75 27.1195 83.75H20.8275C19.7472 83.75 18.8194 82.9822 18.6172 81.921L14.7721 61.7339C14.6429 61.0557 15.0879 60.4013 15.7661 60.2721C16.4443 60.1429 17.0987 60.588 17.2279 61.2661L21.0344 81.25H26.8994L29.76 58.8417C29.8475 58.1569 30.4735 57.6727 31.1583 57.7601Z" fill="#C1002A"/>
<path d="M65.5 59.5H55C54.4477 59.5 54 59.0523 54 58.5V46.062C54 45.713 53.8203 45.3907 53.5224 45.2089C49.5264 42.7689 41.9204 38.0363 40 36.5C38.3483 35.1787 38.1743 32.4025 38.3515 30.5368C38.4055 29.9684 38.9587 29.6297 39.4964 29.8217C40.7939 30.2849 43.2181 31.2546 47 33C53.5 36 57 36 63 36C67.8 36 69.6666 38.3333 70 39.5L72.4417 46.3369C72.4803 46.4448 72.5 46.5586 72.5 46.6732V53.5L72.0553 61.0587C72.0242 61.5873 71.5865 62 71.0571 62H66.8198C66.3431 62 65.9327 61.6636 65.8392 61.1961L65.5 59.5Z" fill="#F3CCD4"/>
<path fill-rule="evenodd" clip-rule="evenodd" d="M37.1071 30.4186C37.241 29.0091 38.6401 28.1887 39.9167 28.6444C41.2609 29.1243 43.7215 30.1102 47.5238 31.8651C50.6892 33.326 53.0766 34.0356 55.3775 34.3896C57.7037 34.7474 59.9805 34.75 63 34.75C68.1769 34.75 70.6409 37.2892 71.1892 39.1132L73.6189 45.9165C73.7056 46.1593 73.75 46.4153 73.75 46.6732V53.5368L73.3032 61.1321C73.2332 62.3214 72.2484 63.25 71.0571 63.25H66.8198C65.7472 63.25 64.8238 62.493 64.6135 61.4413L64.4752 60.75H55C53.7573 60.75 52.75 59.7427 52.75 58.5V46.2018C48.7615 43.7647 41.1983 39.0594 39.2191 37.4761C38.0752 36.561 37.5241 35.2143 37.2663 33.9778C37.0053 32.7264 37.0108 31.4332 37.1071 30.4186ZM66.742 59.3365L67.0247 60.75H70.8213L71.25 53.4633V46.7165L68.8092 39.8823L68.7981 39.8434C68.6534 39.3369 67.3818 37.25 63 37.25H62.9417C59.9872 37.25 57.5296 37.25 54.9974 36.8605C52.4233 36.4645 49.8108 35.674 46.4761 34.135C43.1521 32.6008 40.9007 31.6777 39.5589 31.1756C39.524 31.9067 39.5572 32.7174 39.7136 33.4674C39.9114 34.4156 40.2731 35.1177 40.7808 35.5239C42.6223 36.9971 50.1363 41.6767 54.1738 44.142C54.8458 44.5523 55.25 45.2802 55.25 46.062V58.25H64.1667L63.2526 44.0805C63.2081 43.3916 63.7306 42.7971 64.4195 42.7526C65.1084 42.7082 65.7029 43.2306 65.7474 43.9195L66.742 59.3365Z" fill="#C1002A"/>
<path fill-rule="evenodd" clip-rule="evenodd" d="M53.7649 57.7723C54.4429 57.6425 55.0978 58.0869 55.2277 58.7649L59.5333 81.25H66.4656L70.2721 61.2661C70.4012 60.5879 71.0557 60.1429 71.7339 60.2721C72.412 60.4012 72.8571 61.0557 72.7279 61.7339L68.8827 81.921C68.6806 82.9822 67.7528 83.75 66.6725 83.75H59.3267C58.2472 83.75 57.3198 82.9834 57.1168 81.9232L52.7723 59.2351C52.6425 58.557 53.0869 57.9021 53.7649 57.7723Z" fill="#C1002A"/>
<path d="M65 60H54L58.5 82.5H66.5L69.5 71L71 61.5H66.5L65 60Z" fill="#C1002A"/>
</svg>
