<svg width="24" height="24" viewBox="0 0 24 24" fill="none" xmlns="http://www.w3.org/2000/svg">
<path fill-rule="evenodd" clip-rule="evenodd" d="M20.67 9.68994L14 5.83994C13.1746 5.36575 12.1591 5.3669 11.3347 5.84297C10.5104 6.31904 10.0018 7.198 10 8.14994L6 5.83994C5.17456 5.36575 4.15909 5.3669 3.33473 5.84297C2.51038 6.31904 2.00184 7.198 2 8.14994V15.8499C1.99503 16.8006 2.50354 17.68 3.33 18.1499C3.735 18.3921 4.1981 18.52 4.67 18.5199C5.13707 18.5174 5.59544 18.3934 6 18.1599L10 15.8499C9.99563 16.8031 10.5035 17.6852 11.33 18.1599C12.1555 18.639 13.1745 18.639 14 18.1599L20.67 14.3099C21.4939 13.8324 22.001 12.9522 22.001 11.9999C22.001 11.0477 21.4939 10.1675 20.67 9.68994ZM9.99999 13.5399L4.99999 16.4199C4.79459 16.5362 4.54314 16.5359 4.33808 16.419C4.13301 16.3021 4.00458 16.0859 3.99999 15.8499V8.14994C4.00458 7.91395 4.13301 7.69778 4.33808 7.58089C4.54314 7.464 4.79459 7.46364 4.99999 7.57994L9.99999 10.4599V13.5399ZM19.67 12.5399L13 16.4299C12.7917 16.5457 12.5384 16.5457 12.33 16.4299C12.1232 16.3106 11.997 16.0887 12 15.8499V8.14994C11.997 7.91114 12.1232 7.68933 12.33 7.56994C12.435 7.51445 12.5513 7.48367 12.67 7.47994C12.7862 7.47894 12.9004 7.51008 13 7.56994L19.67 11.4199C19.8771 11.5397 20.0046 11.7607 20.0046 11.9999C20.0046 12.2391 19.8771 12.4602 19.67 12.5799V12.5399Z" fill="#171E2B"/>
</svg>
