<svg width="24" height="24" viewBox="0 0 24 24" fill="none" xmlns="http://www.w3.org/2000/svg">
<path fill-rule="evenodd" clip-rule="evenodd" d="M14.94 6.56012H18.52L17.73 7.36012C17.3423 7.75015 17.3423 8.38008 17.73 8.77012C18.12 9.15784 18.75 9.15784 19.14 8.77012L21.64 6.27012C22.0277 5.88008 22.0277 5.25015 21.64 4.86012L19.14 2.36012C18.7432 2.02034 18.1518 2.04318 17.7824 2.41255C17.4131 2.78192 17.3902 3.37336 17.73 3.77012L18.52 4.56012H14.94C14.3877 4.56012 13.94 5.00783 13.94 5.56012C13.94 6.1124 14.3877 6.56012 14.94 6.56012ZM19.44 13.0001C19.22 13.0001 18.99 12.9301 18.77 12.8801C18.3245 12.7819 17.8867 12.6516 17.46 12.4901C16.4992 12.1406 15.4296 12.5719 14.98 13.4901L14.76 13.9401C13.786 13.3983 12.891 12.7253 12.1 11.9401C11.3148 11.1491 10.6418 10.2541 10.1 9.28011L10.52 9.00011C11.4382 8.55054 11.8695 7.48086 11.52 6.52012C11.3612 6.09254 11.2309 5.65491 11.13 5.21012C11.08 4.99012 11.04 4.76012 11.01 4.53012C10.7591 3.07489 9.48654 2.01865 8.01 2.04012H5.01C4.13794 2.03193 3.30548 2.40362 2.72943 3.0584C2.15338 3.71317 1.89077 4.5862 2.01 5.45012C3.10593 14.0684 9.90781 20.8455 18.53 21.9101H18.91C19.6474 21.9112 20.3594 21.6406 20.91 21.1501C21.5499 20.5778 21.914 19.7587 21.91 18.9001V15.9001C21.8847 14.4677 20.8502 13.253 19.44 13.0001ZM19.94 19.0001C19.9396 19.2873 19.8158 19.5605 19.6 19.7501C19.3741 19.9452 19.0763 20.036 18.78 20.0001C11.076 19.0123 5.02121 12.9287 4.06999 5.22012C4.03783 4.92411 4.12816 4.62783 4.31999 4.40012C4.50956 4.18433 4.78277 4.06048 5.06999 4.06012H8.06999C8.54968 4.04944 8.96935 4.38098 9.06999 4.85012C9.10999 5.12345 9.15999 5.39345 9.21999 5.66012C9.33551 6.18726 9.48925 6.7053 9.67999 7.21012L8.27999 7.86012C8.03823 7.97104 7.85062 8.17372 7.75866 8.42331C7.66671 8.67291 7.67798 8.94885 7.78999 9.19012C9.22919 12.2729 11.7072 14.7509 14.79 16.1901C15.0335 16.2901 15.3065 16.2901 15.55 16.1901C15.8019 16.1 16.0072 15.9127 16.12 15.6701L16.74 14.2701C17.257 14.455 17.7846 14.6086 18.32 14.7301C18.5867 14.7901 18.8567 14.8401 19.13 14.8801C19.5991 14.9808 19.9307 15.4004 19.92 15.8801L19.94 19.0001Z" fill="#171E2B"/>
</svg>
