<svg width="24" height="24" viewBox="0 0 24 24" fill="none" xmlns="http://www.w3.org/2000/svg">
<path fill-rule="evenodd" clip-rule="evenodd" d="M8.36002 15.33C7.94056 15.6823 7.88259 16.3065 8.23002 16.73C8.39957 16.9345 8.64352 17.0632 8.90805 17.0875C9.17258 17.1119 9.43594 17.0301 9.64002 16.86C11.0174 15.7495 12.9826 15.7495 14.36 16.86C14.5641 17.0301 14.8275 17.1119 15.092 17.0875C15.3565 17.0632 15.6005 16.9345 15.77 16.73C16.1174 16.3065 16.0595 15.6823 15.64 15.33C13.5142 13.6212 10.4859 13.6212 8.36002 15.33ZM9.00002 11C9.5523 11 10 10.5523 10 10C10 9.44772 9.5523 9 9.00002 9C8.44773 9 8.00002 9.44772 8.00002 10C8.00002 10.5523 8.44773 11 9.00002 11ZM12 2C6.47717 2 2.00002 6.47715 2.00002 12C2.00002 17.5228 6.47717 22 12 22C17.5229 22 22 17.5228 22 12C22 9.34783 20.9464 6.8043 19.0711 4.92893C17.1957 3.05357 14.6522 2 12 2ZM12 20C7.58175 20 4.00003 16.4183 4.00003 12C4.00003 7.58172 7.58175 4 12 4C16.4183 4 20 7.58172 20 12C20 14.1217 19.1572 16.1566 17.6569 17.6569C16.1566 19.1571 14.1218 20 12 20ZM15 9C14.4477 9 14 9.44772 14 10C14 10.5523 14.4477 11 15 11C15.5523 11 16 10.5523 16 10C16 9.44772 15.5523 9 15 9Z" fill="#171E2B"/>
</svg>
