<svg width="24" height="24" viewBox="0 0 24 24" fill="none" xmlns="http://www.w3.org/2000/svg">
<path fill-rule="evenodd" clip-rule="evenodd" d="M12 2C8.03713 2.00753 4.45255 4.35452 2.86097 7.98377C1.26938 11.613 1.97109 15.8397 4.65003 18.76L4.74003 18.86C6.62855 20.8537 9.25386 21.9831 12 21.9831C14.7462 21.9831 17.3715 20.8537 19.26 18.86L19.35 18.76C22.029 15.8397 22.7307 11.613 21.1391 7.98377C19.5475 4.35452 15.9629 2.00753 12 2ZM5.61 16.79C3.46317 13.9575 3.46317 10.0425 5.61 7.21C7.11302 8.34379 7.99671 10.1173 7.99671 12C7.99671 13.8827 7.11302 15.6562 5.61 16.79ZM12 20C10.1793 20.003 8.41332 19.3779 7.00003 18.23C8.88521 16.7114 9.98136 14.4208 9.98136 12C9.98136 9.57923 8.88521 7.28864 7.00003 5.77C9.91603 3.41109 14.084 3.41109 17 5.77C15.1149 7.28864 14.0187 9.57923 14.0187 12C14.0187 14.4208 15.1149 16.7114 17 18.23C15.5867 19.3779 13.8207 20.003 12 20ZM18.39 16.79C16.887 15.6562 16.0033 13.8827 16.0033 12C16.0033 10.1173 16.887 8.34379 18.39 7.21C20.5369 10.0425 20.5369 13.9575 18.39 16.79Z" fill="#171E2B"/>
</svg>
