<svg width="24" height="24" viewBox="0 0 24 24" fill="none" xmlns="http://www.w3.org/2000/svg">
<path fill-rule="evenodd" clip-rule="evenodd" d="M21 18H19V15C19 14.4477 18.5523 14 18 14H13V11.29L14.13 11.88C14.4661 12.0558 14.8728 12.0263 15.1801 11.8039C15.4873 11.5814 15.6422 11.2042 15.58 10.83L15.18 8.46001L16.9 6.77001C17.1655 6.51074 17.2656 6.12576 17.16 5.77001C17.0418 5.40743 16.7276 5.14367 16.35 5.09001L14 4.72001L12.9 2.56001C12.7329 2.21502 12.3833 1.9959 12 1.9959C11.6167 1.9959 11.2671 2.21502 11.1 2.56001L10 4.72001L7.61001 5.07001C7.23244 5.12367 6.91826 5.38743 6.80001 5.75001C6.69442 6.10576 6.79451 6.49074 7.06002 6.75001L8.82001 8.46001L8.42002 10.83C8.35784 11.2042 8.51274 11.5814 8.81998 11.8039C9.12722 12.0263 9.53389 12.0558 9.87002 11.88L11 11.29V14H6.00002C5.44773 14 5.00002 14.4477 5.00002 15V18H3.00002C2.44773 18 2.00002 18.4477 2.00002 19V21C2.00002 21.5523 2.44773 22 3.00002 22C3.5523 22 4.00002 21.5523 4.00002 21V20H8.00002V21C8.00002 21.5523 8.44773 22 9.00001 22C9.5523 22 10 21.5523 10 21V19C10 18.4477 9.5523 18 9.00001 18H7.00002V16H17V18H15C14.4477 18 14 18.4477 14 19V21C14 21.5523 14.4477 22 15 22C15.5523 22 16 21.5523 16 21V20H20V21C20 21.5523 20.4477 22 21 22C21.5523 22 22 21.5523 22 21V19C22 18.4477 21.5523 18 21 18ZM12 8.63C11.8359 8.63082 11.6745 8.67203 11.53 8.75L10.73 9.17L10.88 8.27C10.9333 7.94688 10.825 7.61815 10.59 7.39L9.94003 6.75L10.84 6.62C11.1669 6.57633 11.4512 6.37431 11.6 6.08L12 5.26L12.4 6.08C12.5488 6.37431 12.8332 6.57633 13.16 6.62L14.06 6.75L13.41 7.39C13.1751 7.61815 13.0668 7.94688 13.12 8.27L13.27 9.17L12.47 8.75C12.3256 8.67203 12.1642 8.63082 12 8.63Z" fill="#171E2B"/>
</svg>
