<svg width="24" height="24" viewBox="0 0 24 24" fill="none" xmlns="http://www.w3.org/2000/svg">
<path fill-rule="evenodd" clip-rule="evenodd" d="M18 7H17.65C17.8782 6.53276 17.9979 6.01999 18 5.5C18.0062 4.0747 17.1451 2.78886 15.8247 2.25194C14.5044 1.71501 12.9903 2.03491 12 3.06C11.0097 2.03491 9.49556 1.71501 8.17525 2.25194C6.85495 2.78886 5.99381 4.0747 6 5.5C6.00213 6.01999 6.12178 6.53276 6.35 7H6C4.34315 7 3 8.34314 3 10V12C3 12.5523 3.44772 13 4 13H5V19C5 20.6569 6.34315 22 8 22H16C17.6569 22 19 20.6569 19 19V13H20C20.5523 13 21 12.5523 21 12V10C21 8.34314 19.6569 7 18 7ZM11 20H7.99998C7.4477 20 6.99998 19.5523 6.99998 19V13H11V20ZM11 11H5.00002V10C5.00002 9.44772 5.44773 9 6.00002 9H11V11ZM11 7H9.50002C8.67159 7 8.00002 6.32842 8.00002 5.5C8.00002 4.67157 8.67159 4 9.50002 4C10.3284 4 11 4.67157 11 5.5V7ZM13 5.5C13 4.67157 13.6716 4 14.5 4C15.3284 4 16 4.67157 16 5.5C16 6.32842 15.3284 7 14.5 7H13V5.5ZM17 19C17 19.5523 16.5523 20 16 20H13V13H17V19ZM19 11H13V9H18C18.5523 9 19 9.44772 19 10V11Z" fill="#171E2B"/>
</svg>
