<svg width="24" height="24" viewBox="0 0 24 24" fill="none" xmlns="http://www.w3.org/2000/svg">
<path fill-rule="evenodd" clip-rule="evenodd" d="M10.4558 18.4658V21.0508C10.4558 21.5304 10.0671 21.9192 9.58744 21.9192C9.10784 21.9192 8.71904 21.5304 8.71904 21.0508L8.72002 19.5411C6.79424 19.8554 5.5719 19.2272 4.42883 17.8119C4.35785 17.724 4.09881 17.3952 4.0387 17.3209C3.69915 16.9013 3.49807 16.7329 3.298 16.6829C2.83272 16.5665 2.54983 16.095 2.66615 15.6298C2.78247 15.1645 3.25396 14.8816 3.71924 14.9979C4.38356 15.164 4.83038 15.5383 5.38881 16.2283C5.45831 16.3142 5.71805 16.6439 5.78001 16.7206C6.60424 17.7412 7.28888 18.0924 8.72117 17.7764L8.72118 17.751C8.68076 17.1763 8.77197 16.607 8.98013 16.0832C5.73155 15.3377 3.94283 13.3798 3.94284 9.37539C3.93609 8.10568 4.36141 6.87701 5.14029 5.88727C4.84362 4.75734 4.92966 3.55516 5.39381 2.47222C5.49552 2.23493 5.69753 2.05519 5.94505 1.98178C5.99478 1.96703 6.05544 1.95368 6.12692 1.9433C6.94308 1.82483 8.13953 2.14704 9.74292 3.16416C11.6391 2.71406 13.6146 2.71406 15.5108 3.16416C17.1142 2.14704 18.3106 1.82483 19.1268 1.9433C19.1983 1.95368 19.2589 1.96703 19.3087 1.98178C19.5562 2.05519 19.7582 2.23493 19.8599 2.47222C20.3241 3.55516 20.4101 4.75734 20.1134 5.88728C20.8858 6.8688 21.3107 8.08552 21.3109 9.34472C21.3109 13.376 19.5131 15.3526 16.2823 16.0689C16.4899 16.5898 16.5788 17.1474 16.5347 17.6901V21.0508C16.5347 21.5304 16.1459 21.9192 15.6663 21.9192C15.1867 21.9192 14.7979 21.5304 14.7979 21.0508L14.8005 17.622C14.8469 17.0329 14.6378 16.4523 14.2265 16.028C13.7241 15.5098 14.0364 14.6404 14.7538 14.5605C18.0266 14.1957 19.5741 12.8945 19.5741 9.34488C19.5739 8.35532 19.1933 7.4037 18.5109 6.68699C18.2818 6.4463 18.2101 6.09593 18.3263 5.78458C18.5759 5.1157 18.6156 4.39147 18.4476 3.70667C18.3866 3.72045 18.3197 3.73757 18.2468 3.75856C17.6873 3.91965 16.9899 4.25777 16.1498 4.8209C15.941 4.96088 15.6817 5.00349 15.4391 4.93773C13.5975 4.43862 11.6562 4.43862 9.81461 4.93773C9.57197 5.00349 9.31273 4.96088 9.10391 4.8209C8.26383 4.25777 7.56646 3.91965 7.00688 3.75856C6.93397 3.73757 6.8671 3.72045 6.80613 3.70667C6.63812 4.39147 6.6778 5.1157 6.92743 5.78458C7.04362 6.09594 6.97193 6.44631 6.74277 6.68701C6.05536 7.40903 5.67432 8.36925 5.67963 9.37077C5.67963 12.8871 7.21545 14.1785 10.5108 14.5878C11.2217 14.6761 11.526 15.5387 11.0278 16.0535C10.6214 16.4734 10.4127 17.0463 10.4558 17.6901V18.4261C10.4562 18.4393 10.4562 18.4526 10.4558 18.4658Z" fill="#171E2B"/>
</svg>
