<svg width="24" height="24" viewBox="0 0 24 24" fill="none" xmlns="http://www.w3.org/2000/svg">
<path fill-rule="evenodd" clip-rule="evenodd" d="M19.75 2.33C19.5586 2.11792 19.2857 1.99782 19 2H4.99999C4.71433 1.99782 4.44138 2.11792 4.24999 2.33C4.05911 2.54238 3.96814 2.82623 3.99999 3.11L5.79999 19.33C5.96894 20.8568 7.2639 22.0093 8.79999 22H15.22C16.7561 22.0093 18.051 20.8568 18.22 19.33L20 3.11C20.0318 2.82623 19.9409 2.54238 19.75 2.33ZM16.2 19.11C16.1437 19.6189 15.712 20.0031 15.2 20H8.78999C8.27796 20.0031 7.8463 19.6189 7.78999 19.11L6.77999 10H17.22L16.2 19.11ZM17.44 8H6.55999L6.11999 4H17.88L17.44 8Z" fill="#171E2B"/>
</svg>
