<svg width="24" height="24" viewBox="0 0 24 24" fill="none" xmlns="http://www.w3.org/2000/svg">
<path fill-rule="evenodd" clip-rule="evenodd" d="M19 3.00001C18.4323 2.36528 17.6216 2.00173 16.77 2.00001H7.23002C6.37375 1.99481 5.55606 2.35576 4.98292 2.99195C4.40978 3.62814 4.13581 4.47892 4.23002 5.33001L5.79002 19.33C5.95896 20.8568 7.25392 22.0093 8.79002 22H15.21C16.7461 22.0093 18.0411 20.8568 18.21 19.33L19.77 5.33001C19.8573 4.47909 19.5771 3.63138 19 3.00001ZM16.2 19.11C16.1437 19.6189 15.7121 20.0031 15.2 20H8.79003C8.278 20.0031 7.84634 19.6189 7.79003 19.11L6.78003 10H17.22L16.2 19.11ZM17.44 8.00002H6.56001L6.24001 5.11001C6.20816 4.82625 6.29913 4.5424 6.49001 4.33001C6.67907 4.12054 6.94783 4.00068 7.23001 4.00001H16.77C17.0522 4.00068 17.321 4.12054 17.51 4.33001C17.7009 4.5424 17.7919 4.82625 17.76 5.11001L17.44 8.00002ZM14 18C14.5523 18 15 17.5523 15 17V13C15 12.4477 14.5523 12 14 12C13.4477 12 13 12.4477 13 13V17C13 17.5523 13.4477 18 14 18ZM10 18C10.5523 18 11 17.5523 11 17V13C11 12.4477 10.5523 12 10 12C9.44774 12 9.00003 12.4477 9.00003 13V17C9.00003 17.5523 9.44774 18 10 18Z" fill="#171E2B"/>
</svg>
