<svg width="24" height="24" viewBox="0 0 24 24" fill="none" xmlns="http://www.w3.org/2000/svg">
<path fill-rule="evenodd" clip-rule="evenodd" d="M18 20H13V14.94C17.5536 14.4309 20.9978 10.582 21 6C21.005 4.83662 20.7772 3.68399 20.33 2.61C20.2783 2.48998 20.2035 2.38127 20.11 2.29L20 2.21C19.9362 2.15742 19.8655 2.1137 19.79 2.08C19.7014 2.03895 19.6069 2.01196 19.51 2H19.41H4.59H4.5C4.40077 2.00455 4.30289 2.0248 4.21 2.06C4.13729 2.10245 4.06716 2.1492 4 2.2L3.88 2.29C3.78647 2.38127 3.71172 2.48998 3.66 2.61C3.21619 3.6847 2.99179 4.8373 3 6C3.00218 10.582 6.44641 14.4309 11 14.94V20H6C5.44772 20 5 20.4477 5 21C5 21.5523 5.44772 22 6 22H18C18.5523 22 19 21.5523 19 21C19 20.4477 18.5523 20 18 20ZM5 6C4.99813 5.32273 5.09585 4.64886 5.29 4H18.71C18.9042 4.64886 19.0019 5.32273 19 6C19 9.866 15.866 13 12 13C8.13401 13 5.00001 9.866 5 6Z" fill="#171E2B"/>
</svg>
