<svg width="24" height="24" viewBox="0 0 24 24" fill="none" xmlns="http://www.w3.org/2000/svg">
<path fill-rule="evenodd" clip-rule="evenodd" d="M19.71 16.29L5.71 2.29C5.31788 1.89788 4.68212 1.89788 4.29 2.29C3.89788 2.68212 3.89788 3.31788 4.29 3.71L6.59 6H5C4.61534 6.00109 4.2654 6.22272 4.1 6.57C3.95697 6.90062 4.00281 7.28261 4.22 7.57L11 16.1V20H6.75C6.19772 20 5.75 20.4477 5.75 21C5.75 21.5523 6.19772 22 6.75 22H17.25C17.8023 22 18.25 21.5523 18.25 21C18.25 20.4477 17.8023 20 17.25 20H13V16.1L14.64 14.1L18.29 17.75C18.4778 17.9393 18.7334 18.0458 19 18.0458C19.2666 18.0458 19.5222 17.9393 19.71 17.75C19.912 17.5609 20.0266 17.2966 20.0266 17.02C20.0266 16.7434 19.912 16.4791 19.71 16.29ZM7.08001 8.00001H8.59001L10.48 9.89H8.59001L7.08001 8.00001ZM12 14.15L10.19 11.89H12.48L13.22 12.63L12 14.15ZM14.66 8H16.92L16.29 8.79C15.9473 9.21875 16.0143 9.84358 16.44 10.19C16.6186 10.3333 16.841 10.411 17.07 10.41C17.3726 10.411 17.6594 10.275 17.85 10.04L19.78 7.62C19.9972 7.33261 20.043 6.95062 19.9 6.62C19.7494 6.25318 19.3964 6.00996 19 6H14.66C14.1077 6 13.66 6.44772 13.66 7C13.66 7.55229 14.1077 8 14.66 8Z" fill="#171E2B"/>
</svg>
