<svg width="24" height="24" viewBox="0 0 24 24" fill="none" xmlns="http://www.w3.org/2000/svg">
<path fill-rule="evenodd" clip-rule="evenodd" d="M21.78 3.62C22.0168 3.32145 22.0633 2.91428 21.9 2.57C21.7346 2.22272 21.3847 2.00109 21 2H2.99999C2.61533 2.00109 2.2654 2.22272 2.09999 2.57C1.93668 2.91428 1.98321 3.32145 2.21999 3.62L11 14.6V20H5.24999C4.69771 20 4.24999 20.4477 4.24999 21C4.24999 21.5523 4.69771 22 5.24999 22H18.75C19.3023 22 19.75 21.5523 19.75 21C19.75 20.4477 19.3023 20 18.75 20H13V14.6L21.78 3.62ZM5.07999 4H18.92L16.52 7H7.51999L5.07999 4ZM12 12.65L9.08 9H14.92L12 12.65Z" fill="#171E2B"/>
</svg>
