<svg width="24" height="24" viewBox="0 0 24 24" fill="none" xmlns="http://www.w3.org/2000/svg">
<path fill-rule="evenodd" clip-rule="evenodd" d="M8.00001 11H16C16.2991 10.998 16.5816 10.8623 16.77 10.63C16.968 10.4022 17.0525 10.0972 17 9.80001L16 4.80001C15.9035 4.32688 15.4828 3.99027 15 4.00001H9.00001C8.51725 3.99027 8.09648 4.32688 8.00001 4.80001L7.00001 9.80001C6.94205 10.0942 7.01912 10.3988 7.21001 10.63C7.40283 10.8678 7.69392 11.0041 8.00001 11ZM9.82003 6H14.18L14.78 9H9.22003L9.82003 6ZM22 13.8C21.9035 13.3269 21.4828 12.9903 21 13H15C14.5172 12.9903 14.0965 13.3269 14 13.8L13 18.8C12.942 19.0942 13.0191 19.3988 13.21 19.63C13.4028 19.8678 13.6939 20.0041 14 20H22C22.2991 19.998 22.5816 19.8623 22.77 19.63C22.968 19.4022 23.0525 19.0972 23 18.8L22 13.8ZM15.22 18L15.82 15H20.18L20.78 18H15.22ZM9.00001 13H3.00001C2.51725 12.9903 2.09648 13.3269 2.00001 13.8L1.00001 18.8C0.942045 19.0942 1.01912 19.3988 1.21001 19.63C1.40283 19.8678 1.69392 20.0041 2.00001 20H10C10.2991 19.998 10.5816 19.8623 10.77 19.63C10.968 19.4022 11.0525 19.0972 11 18.8L10 13.8C9.90353 13.3269 9.48277 12.9903 9.00001 13ZM3.22003 18L3.82003 15H8.18003L8.78003 18H3.22003Z" fill="#171E2B"/>
</svg>
