<svg width="24" height="24" viewBox="0 0 24 24" fill="none" xmlns="http://www.w3.org/2000/svg">
<path fill-rule="evenodd" clip-rule="evenodd" d="M21.49 10.19L20.49 9.63999L11.49 4.63999H11.38C11.3187 4.61407 11.2551 4.59398 11.19 4.57999H11H10.82C10.7517 4.59399 10.6847 4.61407 10.62 4.63999H10.51L1.51 9.63999C1.19669 9.81755 1.00305 10.1499 1.00305 10.51C1.00305 10.8701 1.19669 11.2024 1.51 11.38L4 12.76V17.5C4 19.1568 5.34315 20.5 7 20.5H15C16.6569 20.5 18 19.1568 18 17.5V12.76L20 11.64V14.5C20 15.0523 20.4477 15.5 21 15.5C21.5523 15.5 22 15.0523 22 14.5V11.06C21.9994 10.6992 21.8045 10.3668 21.49 10.19ZM16 17.5C16 18.0523 15.5523 18.5 15 18.5H7C6.44771 18.5 6 18.0523 6 17.5V13.87L10.51 16.37L10.66 16.43H10.75C10.833 16.4404 10.917 16.4404 11 16.43C11.083 16.4404 11.167 16.4404 11.25 16.43H11.34C11.3931 16.4188 11.4438 16.3985 11.49 16.37L16 13.87V17.5ZM11 14.36L4.05998 10.5L11 6.63998L17.94 10.5L11 14.36Z" fill="#171E2B"/>
</svg>
