<svg width="24" height="24" viewBox="0 0 24 24" fill="none" xmlns="http://www.w3.org/2000/svg">
<path fill-rule="evenodd" clip-rule="evenodd" d="M6 13H2C1.44772 13 1 13.4477 1 14V22C1 22.5523 1.44772 23 2 23H6C6.55228 23 7 22.5523 7 22V14C7 13.4477 6.55228 13 6 13ZM4.99999 21H2.99999V15H4.99999V21ZM22 8.99999H18C17.4477 8.99999 17 9.44771 17 9.99999V22C17 22.5523 17.4477 23 18 23H22C22.5523 23 23 22.5523 23 22V9.99999C23 9.44771 22.5523 8.99999 22 8.99999ZM21 21H19V11H21V21ZM14 1H9.99999C9.44771 1 8.99999 1.44772 8.99999 2V22C8.99999 22.5523 9.44771 23 9.99999 23H14C14.5523 23 15 22.5523 15 22V2C15 1.44772 14.5523 1 14 1ZM13 21H11V2.99999H13V21Z" fill="#171E2B"/>
</svg>
