<svg width="24" height="24" viewBox="0 0 24 24" fill="none" xmlns="http://www.w3.org/2000/svg">
<path fill-rule="evenodd" clip-rule="evenodd" d="M3 1.99998H21C21.5523 1.99998 22 2.4477 22 2.99998V21C22 21.5523 21.5523 22 21 22H3C2.44772 22 2 21.5523 2 21V2.99998C2 2.4477 2.44772 1.99998 3 1.99998ZM7.92 4.07998H4.08V7.91998H7.92V4.07998ZM4.08 10.08H7.92V13.92H4.08V10.08ZM7.92 16.08H4.08V19.92H7.92V16.08ZM10.08 4.07998H13.92V7.91998H10.08V4.07998ZM13.92 10.08H10.08V13.92H13.92V10.08ZM10.08 16.08H13.92V19.92H10.08V16.08ZM19.92 4.07998H16.08V7.91998H19.92V4.07998ZM16.08 10.08H19.92V13.92H16.08V10.08ZM19.92 16.08H16.08V19.92H19.92V16.08Z" fill="#171E2B"/>
</svg>
