<svg width="24" height="24" viewBox="0 0 24 24" fill="none" xmlns="http://www.w3.org/2000/svg">
<path fill-rule="evenodd" clip-rule="evenodd" d="M9.20999 10.54C9.60002 10.9277 10.2299 10.9277 10.62 10.54C11.0077 10.15 11.0077 9.52003 10.62 9.13C9.43157 8.00237 7.5684 8.00237 6.37998 9.13C6.09461 9.37439 5.9703 9.75811 6.05817 10.1234C6.14605 10.4887 6.43126 10.7739 6.79657 10.8618C7.16187 10.9497 7.5456 10.8254 7.78998 10.54C7.97775 10.3507 8.23335 10.2442 8.49999 10.2442C8.76662 10.2442 9.02222 10.3507 9.20999 10.54ZM12 1.99998C6.47715 1.99998 2 6.47714 2 12C2 17.5228 6.47715 22 12 22C17.5228 22 22 17.5228 22 12C22 9.34782 20.9464 6.80428 19.0711 4.92892C17.1957 3.05355 14.6522 1.99998 12 1.99998ZM12 20C7.58174 20 4.00002 16.4183 4.00002 12C4.00002 7.5817 7.58174 3.99998 12 3.99998C16.4183 3.99998 20 7.5817 20 12C20 14.1217 19.1572 16.1565 17.6569 17.6568C16.1566 19.1571 14.1217 20 12 20ZM15 8.99999C14.4477 8.99999 14 9.44771 14 9.99999C14 10.5523 14.4477 11 15 11C15.5523 11 16 10.5523 16 9.99999C16 9.44771 15.5523 8.99999 15 8.99999ZM15 13H9C8.44772 13 8 13.4477 8 14C8 14.5523 8.44772 15 9 15C9 16.6568 10.3431 18 12 18C13.6569 18 15 16.6568 15 15C15.5523 15 16 14.5523 16 14C16 13.4477 15.5523 13 15 13ZM12 16C11.4477 16 11 15.5523 11 15H13C13 15.5523 12.5523 16 12 16Z" fill="#171E2B"/>
</svg>
