<svg width="24" height="24" viewBox="0 0 24 24" fill="none" xmlns="http://www.w3.org/2000/svg">
<path fill-rule="evenodd" clip-rule="evenodd" d="M12 1.99998C6.47715 1.99998 2 6.47714 2 12C2 17.5228 6.47715 22 12 22C17.5228 22 22 17.5228 22 12C22 9.34782 20.9464 6.80428 19.0711 4.92892C17.1957 3.05355 14.6522 1.99998 12 1.99998ZM12 20C7.58171 20 3.99999 16.4183 3.99999 12C3.99999 7.5817 7.58171 3.99998 12 3.99998C16.4183 3.99998 20 7.5817 20 12C20 14.1217 19.1571 16.1565 17.6568 17.6568C16.1566 19.1571 14.1217 20 12 20ZM17.62 9.13C16.4316 8.00237 14.5684 8.00237 13.38 9.13C13.0402 9.52676 13.0631 10.1182 13.4324 10.4876C13.8018 10.8569 14.3932 10.8798 14.79 10.54C14.9778 10.3507 15.2334 10.2442 15.5 10.2442C15.7666 10.2442 16.0222 10.3507 16.21 10.54C16.6 10.9277 17.23 10.9277 17.62 10.54C18.0077 10.15 18.0077 9.52004 17.62 9.13ZM9 11C9.55228 11 10 10.5523 10 9.99999C10 9.44771 9.55228 8.99999 9 8.99999C8.44771 8.99999 8 9.44771 8 9.99999C8 10.5523 8.44771 11 9 11ZM15 13H9C8.44771 13 8 13.4477 8 14C8 14.5523 8.44771 15 9 15C9 16.6568 10.3431 18 12 18C13.6569 18 15 16.6568 15 15C15.5523 15 16 14.5523 16 14C16 13.4477 15.5523 13 15 13ZM12 16C11.4477 16 11 15.5523 11 15H13C13 15.5523 12.5523 16 12 16Z" fill="#171E2B"/>
</svg>
