<svg width="24" height="24" viewBox="0 0 24 24" fill="none" xmlns="http://www.w3.org/2000/svg">
<path fill-rule="evenodd" clip-rule="evenodd" d="M9 11C9.55228 11 10 10.5523 10 9.99999C10 9.44771 9.55228 8.99999 9 8.99999C8.44771 8.99999 8 9.44771 8 9.99999C8 10.5523 8.44771 11 9 11ZM12 1.99998C6.47715 1.99998 2 6.47714 2 12C2 17.5228 6.47715 22 12 22C17.5228 22 22 17.5228 22 12C22 9.34782 20.9464 6.80428 19.0711 4.92892C17.1957 3.05355 14.6522 1.99998 12 1.99998ZM12 20C7.58171 20 3.99999 16.4183 3.99999 12C3.99999 7.5817 7.58171 3.99998 12 3.99998C16.4183 3.99998 20 7.5817 20 12C20 14.1217 19.1571 16.1565 17.6568 17.6568C16.1566 19.1571 14.1217 20 12 20ZM15 13H9C8.44771 13 8 13.4477 8 14C8 16.2091 9.79086 18 12 18C14.2091 18 16 16.2091 16 14C16 13.4477 15.5523 13 15 13ZM12 16C11.2862 15.9993 10.6269 15.6182 10.27 15H13.73C13.3731 15.6182 12.7138 15.9993 12 16ZM15 8.99999C14.4477 8.99999 14 9.44771 14 9.99999C14 10.5523 14.4477 11 15 11C15.5523 11 16 10.5523 16 9.99999C16 9.44771 15.5523 8.99999 15 8.99999Z" fill="#171E2B"/>
</svg>
