<svg width="24" height="24" viewBox="0 0 24 24" fill="none" xmlns="http://www.w3.org/2000/svg">
<path fill-rule="evenodd" clip-rule="evenodd" d="M22 14.86V14.81C21.9879 14.6169 21.9544 14.4257 21.9 14.24L20.26 4.50998C20.0179 3.04679 18.743 1.98009 17.26 1.99998H6.69001C5.22595 2.00473 3.97914 3.06557 3.74002 4.50998L2.12002 14.22C2.06566 14.4057 2.03212 14.5969 2.02002 14.79V14.84C2.00002 14.91 2.00002 15 2.00002 15V19C2.00002 20.6568 3.34316 22 5.00002 22H19C20.6569 22 22 20.6568 22 19V15C22 15 22 14.91 22 14.86ZM5.71003 4.82997C5.79366 4.34489 6.21785 3.99281 6.71003 3.99997H17.31C17.8022 3.99281 18.2264 4.34489 18.31 4.82997L19.51 12.05C19.3421 12.0167 19.1713 12 19 12H5.00003C4.83549 12.0013 4.67144 12.018 4.51003 12.05L5.71003 4.82997ZM20 19C20 19.5523 19.5523 20 19 20H5.00003C4.44775 20 4.00003 19.5523 4.00003 19V15.08L4.08003 14.62C4.23343 14.2465 4.59633 14.002 5.00003 14H19C19.4037 14.002 19.7666 14.2465 19.92 14.62L20 15.08V19ZM17 16C16.4477 16 16 16.4477 16 17C16 17.5523 16.4477 18 17 18C17.5523 18 18 17.5523 18 17C18 16.4477 17.5523 16 17 16Z" fill="#171E2B"/>
</svg>
