<svg width="24" height="24" viewBox="0 0 24 24" fill="none" xmlns="http://www.w3.org/2000/svg">
<path fill-rule="evenodd" clip-rule="evenodd" d="M12 3C6.47717 3 2.00002 7.47715 2.00002 13V20C2.00002 20.5523 2.44773 21 3.00002 21H6.00002C7.65687 21 9.00001 19.6569 9.00001 18V16C9.00001 14.3431 7.65687 13 6.00002 13H4.00002C4.00002 8.58172 7.58174 5 12 5C16.4183 5 20 8.58172 20 13H18C16.3432 13 15 14.3431 15 16V18C15 19.6569 16.3432 21 18 21H21C21.5523 21 22 20.5523 22 20V13C22 7.47715 17.5229 3 12 3ZM6.00003 15C6.55232 15 7.00003 15.4477 7.00003 16V18C7.00003 18.5523 6.55232 19 6.00003 19H4.00003V15H6.00003ZM20 19H18C17.4477 19 17 18.5523 17 18V16C17 15.4477 17.4477 15 18 15H20V19Z" fill="#171E2B"/>
</svg>
