<svg width="24" height="24" viewBox="0 0 24 24" fill="none" xmlns="http://www.w3.org/2000/svg">
<path fill-rule="evenodd" clip-rule="evenodd" d="M20 13.18V11C20 6.58172 16.4183 3 12 3C7.58172 3 4 6.58172 4 11V13.18C2.80427 13.6027 2.00356 14.7317 2 16V18C2 19.6569 3.34315 21 5 21H8C8.55228 21 9 20.5523 9 20V14C9 13.4477 8.55228 13 8 13H6V11C6 7.68629 8.68629 5 12 5C15.3137 5 18 7.68629 18 11V13H16C15.4477 13 15 13.4477 15 14V20C15 20.5523 15.4477 21 16 21H19C20.6569 21 22 19.6569 22 18V16C21.9964 14.7317 21.1957 13.6027 20 13.18ZM7.00002 15V19H5.00002C4.44773 19 4.00002 18.5523 4.00002 18V16C4.00002 15.4477 4.44773 15 5.00002 15H7.00002ZM20 18C20 18.5523 19.5523 19 19 19H17V15H19C19.5523 15 20 15.4477 20 16V18Z" fill="#171E2B"/>
</svg>
