<svg width="24" height="24" viewBox="0 0 24 24" fill="none" xmlns="http://www.w3.org/2000/svg">
<path fill-rule="evenodd" clip-rule="evenodd" d="M20.9999 10.41H18.4999C18.2327 10.4111 17.977 10.5191 17.7899 10.71L16.5499 12L13.7499 8.80997C13.5609 8.60802 13.2966 8.49342 13.0199 8.49342C12.7433 8.49342 12.479 8.60802 12.2899 8.80997L10.5899 10.51H8.99994C8.44766 10.51 7.99994 10.9577 7.99994 11.51C7.99994 12.0623 8.44766 12.51 8.99994 12.51H10.9999C11.2657 12.5115 11.5212 12.4072 11.7099 12.22L12.9999 10.88L15.7999 14.07C15.9825 14.2781 16.2432 14.4012 16.5199 14.41C16.7857 14.4115 17.0412 14.3072 17.2299 14.12L18.9299 12.41H20.9999C21.5522 12.41 21.9999 11.9623 21.9999 11.41C21.9999 10.8577 21.5522 10.41 20.9999 10.41ZM13.61 15.71L11.71 17.61C11.5222 17.7993 11.2666 17.9058 11 17.9058C10.7333 17.9058 10.4777 17.7993 10.29 17.61L5.07995 12.4C4.38747 11.7079 3.9984 10.769 3.9984 9.78998C3.9984 8.81095 4.38747 7.87206 5.07995 7.17998C6.52001 5.74457 8.84989 5.74457 10.29 7.17998C10.4777 7.3693 10.7333 7.47578 11 7.47578C11.2666 7.47578 11.5222 7.3693 11.71 7.17998C13.1693 5.79205 15.4606 5.79205 16.92 7.17998C17.1428 7.40573 17.3375 7.65755 17.5 7.92998C17.8016 8.34471 18.368 8.46407 18.8113 8.20633C19.2546 7.94858 19.4311 7.39727 19.22 6.92998C18.9728 6.51953 18.6774 6.14016 18.34 5.79998C16.3797 3.81666 13.2695 3.54972 11 5.16998C9.26861 3.92276 6.98431 3.75109 5.08601 4.72555C3.18771 5.70001 1.9957 7.65618 1.99995 9.78998C1.99935 11.293 2.6008 12.7336 3.66995 13.79L8.87995 19C10.0512 20.1698 11.9487 20.1698 13.12 19L15 17.12C15.3877 16.7299 15.3877 16.1 15 15.71C14.6124 15.3353 13.9975 15.3353 13.61 15.71Z" fill="#171E2B"/>
</svg>
