<svg width="24" height="24" viewBox="0 0 24 24" fill="none" xmlns="http://www.w3.org/2000/svg">
<path fill-rule="evenodd" clip-rule="evenodd" d="M14 11H13V10C13 9.44771 12.5523 9 12 9C11.4477 9 11 9.44771 11 10V11H9.99999C9.44771 11 8.99999 11.4477 8.99999 12C8.99999 12.5523 9.44771 13 9.99999 13H11V14C11 14.5523 11.4477 15 12 15C12.5523 15 13 14.5523 13 14V13H14C14.5523 13 15 12.5523 15 12C15 11.4477 14.5523 11 14 11ZM20.16 5C17.9569 2.81964 14.4938 2.56924 12 4.41C9.36033 2.44663 5.65211 2.85726 3.50596 5.35058C1.35982 7.8439 1.50564 11.5719 3.83999 13.89L9.83999 19.94C11.0113 21.1098 12.9087 21.1098 14.08 19.94L20.08 13.89C21.2735 12.7239 21.953 11.1302 21.968 9.46163C21.983 7.79308 21.3323 6.18738 20.16 5ZM18.75 12.46L12.75 18.46C12.5622 18.6493 12.3066 18.7558 12.04 18.7558C11.7734 18.7558 11.5178 18.6493 11.33 18.46L5.32999 12.46C3.6988 10.7926 3.6988 8.1274 5.32999 6.46C6.99301 4.81809 9.66697 4.81809 11.33 6.46C11.5178 6.64931 11.7734 6.75579 12.04 6.75579C12.3066 6.75579 12.5622 6.64931 12.75 6.46C14.413 4.81809 17.087 4.81809 18.75 6.46C20.3943 8.12983 20.3943 10.8102 18.75 12.48V12.46Z" fill="#171E2B"/>
</svg>
