<svg width="24" height="24" viewBox="0 0 24 24" fill="none" xmlns="http://www.w3.org/2000/svg">
<path fill-rule="evenodd" clip-rule="evenodd" d="M20.16 4.99999C17.9698 2.80406 14.5058 2.53237 12 4.35999C9.36033 2.39662 5.65211 2.80725 3.50596 5.30057C1.35982 7.79389 1.50564 11.5219 3.83999 13.84L10.05 20.06C11.1319 21.1248 12.868 21.1248 13.95 20.06L20.16 13.84C22.5906 11.3945 22.5906 7.44544 20.16 4.99999ZM18.75 12.46L12.54 18.67C12.3973 18.8141 12.2028 18.8952 12 18.8952C11.7972 18.8952 11.6027 18.8141 11.46 18.67L5.25 12.43C3.61881 10.7626 3.61881 8.0974 5.25 6.43C6.91301 4.78809 9.58698 4.78809 11.25 6.43C11.4378 6.61931 11.6934 6.7258 11.96 6.7258C12.2266 6.7258 12.4822 6.61931 12.67 6.43C14.333 4.78809 17.007 4.78809 18.67 6.43C20.3236 8.07557 20.3592 10.7409 18.75 12.43V12.46Z" fill="#171E2B"/>
</svg>
