<svg width="24" height="24" viewBox="0 0 24 24" fill="none" xmlns="http://www.w3.org/2000/svg">
<path fill-rule="evenodd" clip-rule="evenodd" d="M20.16 4.60999C17.9658 2.41518 14.4961 2.15581 12 3.99999C9.36033 2.03662 5.65211 2.44725 3.50596 4.94057C1.35982 7.43389 1.50564 11.1619 3.83999 13.48L11.29 20.93C11.4778 21.1193 11.7334 21.2258 12 21.2258C12.2666 21.2258 12.5222 21.1193 12.71 20.93L20.16 13.48C21.3367 12.304 21.9979 10.7086 21.9979 9.04498C21.9979 7.38137 21.3367 5.78596 20.16 4.60999ZM18.75 12.07L12 18.81L5.24999 12.07C4.0338 10.8488 3.6688 9.01716 4.32394 7.423C4.97908 5.82883 6.52651 4.78317 8.24999 4.77C9.3761 4.77276 10.4551 5.22234 11.25 6.02C11.4378 6.20931 11.6933 6.3158 11.96 6.3158C12.2266 6.3158 12.4822 6.20931 12.67 6.02C14.3681 4.54854 16.916 4.6448 18.4982 6.24019C20.0804 7.83558 20.1555 10.3842 18.67 12.07H18.75Z" fill="#171E2B"/>
</svg>
