<svg width="24" height="24" viewBox="0 0 24 24" fill="none" xmlns="http://www.w3.org/2000/svg">
<path fill-rule="evenodd" clip-rule="evenodd" d="M21 11H17.06C16.9903 10.9905 16.9197 10.9905 16.85 11H16.68C16.6277 11.0298 16.5776 11.0632 16.53 11.1C16.4743 11.1368 16.4209 11.1768 16.37 11.22C16.3366 11.2609 16.3065 11.3044 16.28 11.35C16.2342 11.413 16.194 11.4799 16.16 11.55L14.56 15.96L10.39 4.65999C10.2465 4.26451 9.87073 4.00117 9.45 4.00117C9.02927 4.00117 8.65354 4.26451 8.51 4.65999L6.2 11H3C2.44772 11 2 11.4477 2 12C2 12.5523 2.44772 13 3 13H6.92H7.15H7.3C7.35684 12.9726 7.4105 12.9391 7.46 12.9C7.51568 12.8632 7.56911 12.8232 7.62 12.78L7.71 12.65C7.75766 12.5882 7.79794 12.5211 7.83 12.45L9.45 7.91999L13.61 19.34C13.7531 19.7359 14.129 19.9998 14.55 20C14.971 19.9998 15.3468 19.7359 15.49 19.34L17.79 13H21C21.5523 13 22 12.5523 22 12C22 11.4477 21.5523 11 21 11Z" fill="#171E2B"/>
</svg>
