<svg width="24" height="24" viewBox="0 0 24 24" fill="none" xmlns="http://www.w3.org/2000/svg">
<path fill-rule="evenodd" clip-rule="evenodd" d="M12 2.00002C9.43639 2.00733 6.97349 2.99893 5.12 4.77002V3.00002C5.12 2.44773 4.67228 2.00002 4.12 2.00002C3.56772 2.00002 3.12 2.44773 3.12 3.00002V7.50001C3.12 8.0523 3.56772 8.50002 4.12 8.50002H8.62C9.17228 8.50002 9.62 8.0523 9.62 7.50001C9.62 6.94773 9.17228 6.50002 8.62 6.50002H6.22C8.87218 3.72848 13.1184 3.22965 16.3407 5.31106C19.5629 7.39247 20.8542 11.4682 19.4184 15.0254C17.9826 18.5826 14.2238 20.62 10.4596 19.8813C6.69527 19.1427 3.98512 15.8361 4 12C4 11.4477 3.55228 11 3 11C2.44772 11 2 11.4477 2 12C2 17.5229 6.47715 22 12 22C17.5228 22 22 17.5229 22 12C22 6.47717 17.5228 2.00002 12 2.00002ZM12 8.00002C11.4477 8.00002 11 8.44773 11 9.00002V12C11 12.5523 11.4477 13 12 13H14C14.5523 13 15 12.5523 15 12C15 11.4477 14.5523 11 14 11H13V9.00002C13 8.44773 12.5523 8.00002 12 8.00002Z" fill="#171E2B"/>
</svg>
