<svg width="24" height="24" viewBox="0 0 24 24" fill="none" xmlns="http://www.w3.org/2000/svg">
<path fill-rule="evenodd" clip-rule="evenodd" d="M11.44 2.00002C8.87637 2.00733 6.41347 2.99893 4.55998 4.77002V3.00002C4.55998 2.44773 4.11227 2.00002 3.55998 2.00002C3.0077 2.00002 2.55998 2.44773 2.55998 3.00002V7.50001C2.55998 8.0523 3.0077 8.50002 3.55998 8.50002H8.05998C8.61227 8.50002 9.05998 8.0523 9.05998 7.50001C9.05998 6.94773 8.61227 6.50002 8.05998 6.50002H5.65998C8.1705 3.84828 12.158 3.23307 15.351 5.00485C18.544 6.77662 20.132 10.4857 19.2104 14.0191C18.2889 17.5525 15.0916 20.0134 11.44 20C10.8877 20 10.44 20.4477 10.44 21C10.44 21.5523 10.8877 22 11.44 22C16.9628 22 21.44 17.5229 21.44 12C21.44 6.47717 16.9628 2.00002 11.44 2.00002ZM11.44 8.00002C10.8877 8.00002 10.44 8.44773 10.44 9.00002V12C10.44 12.5523 10.8877 13 11.44 13H13.44C13.9923 13 14.44 12.5523 14.44 12C14.44 11.4477 13.9923 11 13.44 11H12.44V9.00002C12.44 8.44773 11.9923 8.00002 11.44 8.00002Z" fill="#171E2B"/>
</svg>
