<svg width="24" height="24" viewBox="0 0 24 24" fill="none" xmlns="http://www.w3.org/2000/svg">
<path fill-rule="evenodd" clip-rule="evenodd" d="M20 7.99998L14 2.73998C12.8612 1.7214 11.1388 1.7214 9.99997 2.73998L3.99997 7.99998C3.35742 8.57465 2.99312 9.39796 2.99997 10.26V19C2.99997 20.6568 4.34312 22 5.99997 22H18C19.6568 22 21 20.6568 21 19V10.25C21.004 9.39144 20.6399 8.57234 20 7.99998ZM14 20H9.99998V15C9.99998 14.4477 10.4477 14 11 14H13C13.5523 14 14 14.4477 14 15V20ZM19 19C19 19.5523 18.5523 20 18 20H16V15C16 13.3431 14.6568 12 13 12H11C9.34311 12 7.99997 13.3431 7.99997 15V20H5.99996C5.44768 20 4.99996 19.5523 4.99996 19V10.25C5.00033 9.96278 5.12418 9.68957 5.33996 9.5L11.34 4.25C11.7175 3.91836 12.2825 3.91836 12.66 4.25L18.66 9.5C18.8758 9.68957 18.9996 9.96278 19 10.25V19Z" fill="#171E2B"/>
</svg>
