<svg width="24" height="24" viewBox="0 0 24 24" fill="none" xmlns="http://www.w3.org/2000/svg">
<path fill-rule="evenodd" clip-rule="evenodd" d="M21.66 10.25L12.66 2.24999C12.2825 1.91834 11.7175 1.91834 11.34 2.24999L2.33998 10.25C2.0267 10.5271 1.91899 10.9699 2.06998 11.36C2.2184 11.7446 2.58769 11.9988 2.99998 12H3.99998V21C3.99998 21.5523 4.44769 22 4.99998 22H19C19.5523 22 20 21.5523 20 21V12H21C21.4123 11.9988 21.7816 11.7446 21.93 11.36C22.081 10.9699 21.9733 10.5271 21.66 10.25ZM13 20H11V17C11 16.4477 11.4477 16 12 16C12.5523 16 13 16.4477 13 17V20ZM18 20H15V17C15 15.3431 13.6569 14 12 14C10.3431 14 9 15.3431 9 17V20H6V12H18V20ZM5.62997 9.99997L12 4.33997L18.37 9.99997H5.62997Z" fill="#171E2B"/>
</svg>
