<svg width="24" height="24" viewBox="0 0 24 24" fill="none" xmlns="http://www.w3.org/2000/svg">
<path fill-rule="evenodd" clip-rule="evenodd" d="M19 5.00002H18V3.00002C18 2.44773 17.5523 2.00002 17 2.00002C16.4477 2.00002 16 2.44773 16 3.00002V5.00002H15C14.4477 5.00002 14 5.44773 14 6.00002V18C14 18.5523 14.4477 19 15 19H16V21C16 21.5523 16.4477 22 17 22C17.5523 22 18 21.5523 18 21V19H19C19.5523 19 20 18.5523 20 18V6.00002C20 5.44773 19.5523 5.00002 19 5.00002ZM18 17H16V7.00003H18V17ZM11 4.00002H9V3.00002C9 2.44773 8.55228 2.00002 8 2.00002C7.44772 2.00002 7 2.44773 7 3.00002V4.00002H5C4.44772 4.00002 4 4.44773 4 5.00002V19C4 19.5523 4.44772 20 5 20H7V21C7 21.5523 7.44772 22 8 22C8.55228 22 9 21.5523 9 21V20H11C11.5523 20 12 19.5523 12 19V5.00002C12 4.44773 11.5523 4.00002 11 4.00002ZM9.99999 18H5.99999V6H9.99999V18Z" fill="#171E2B"/>
</svg>
