<svg width="24" height="24" viewBox="0 0 24 24" fill="none" xmlns="http://www.w3.org/2000/svg">
<path fill-rule="evenodd" clip-rule="evenodd" d="M19 2.00002C18.4477 2.00002 18 2.44773 18 3.00002V4.00002H13C12.4477 4.00002 12 4.44773 12 5.00002V19C12 19.5523 12.4477 20 13 20H18V21C18 21.5523 18.4477 22 19 22C19.5523 22 20 21.5523 20 21V3.00002C20 2.44773 19.5523 2.00002 19 2.00002ZM18 18H14V6H18V18ZM9 2.00002C8.44772 2.00002 8 2.44773 8 3.00002V5.00002H5C4.44772 5.00002 4 5.44773 4 6.00002V18C4 18.5523 4.44772 19 5 19H8V21C8 21.5523 8.44772 22 9 22C9.55228 22 10 21.5523 10 21V3.00002C10 2.44773 9.55228 2.00002 9 2.00002ZM8.00001 17H6.00002V7.00003H8.00001V17Z" fill="#171E2B"/>
</svg>
