<svg width="24" height="24" viewBox="0 0 24 24" fill="none" xmlns="http://www.w3.org/2000/svg">
<path fill-rule="evenodd" clip-rule="evenodd" d="M11 4.00002H6V3.00002C6 2.44773 5.55228 2.00002 5 2.00002C4.44772 2.00002 4 2.44773 4 3.00002V21C4 21.5523 4.44772 22 5 22C5.55228 22 6 21.5523 6 21V20H11C11.5523 20 12 19.5523 12 19V5.00002C12 4.44773 11.5523 4.00002 11 4.00002ZM9.99999 18H5.99999V6H9.99999V18ZM19 5.00002H16V3.00002C16 2.44773 15.5523 2.00002 15 2.00002C14.4477 2.00002 14 2.44773 14 3.00002V21C14 21.5523 14.4477 22 15 22C15.5523 22 16 21.5523 16 21V19H19C19.5523 19 20 18.5523 20 18V6.00002C20 5.44773 19.5523 5.00002 19 5.00002ZM18 17H16V7.00003H18V17Z" fill="#171E2B"/>
</svg>
