<svg width="24" height="24" viewBox="0 0 24 24" fill="none" xmlns="http://www.w3.org/2000/svg">
<path fill-rule="evenodd" clip-rule="evenodd" d="M21 10H19V7.00002C19 6.44773 18.5523 6.00002 18 6.00002H13V3.00002C13 2.44773 12.5523 2.00002 12 2.00002C11.4477 2.00002 11 2.44773 11 3.00002V6.00002H6C5.44772 6.00002 5 6.44773 5 7.00002V10H3C2.44772 10 2 10.4477 2 11V17C2 17.5523 2.44772 18 3 18H11V21C11 21.5523 11.4477 22 12 22C12.5523 22 13 21.5523 13 21V18H21C21.5523 18 22 17.5523 22 17V11C22 10.4477 21.5523 10 21 10ZM6.99999 8.00002H17V10H6.99999V8.00002ZM20 16H3.99999V12H20V16Z" fill="#171E2B"/>
</svg>
