<svg width="24" height="24" viewBox="0 0 24 24" fill="none" xmlns="http://www.w3.org/2000/svg">
<path fill-rule="evenodd" clip-rule="evenodd" d="M12 9C10.3431 9 8.99998 10.3431 8.99998 12C8.99998 13.6569 10.3431 15 12 15C13.6568 15 15 13.6569 15 12C15 10.3431 13.6568 9 12 9ZM12 13C11.4477 13 11 12.5523 11 12C11 11.4477 11.4477 11 12 11C12.5523 11 13 11.4477 13 12C13 12.5523 12.5523 13 12 13ZM21 11H19.93C19.4709 7.37982 16.6202 4.5291 13 4.07002V3.00002C13 2.44773 12.5523 2.00002 12 2.00002C11.4477 2.00002 11 2.44773 11 3.00002V4.07002C7.37981 4.5291 4.52909 7.37982 4.07 11H3C2.44772 11 2 11.4477 2 12C2 12.5523 2.44772 13 3 13H4.07C4.52909 16.6202 7.37981 19.4709 11 19.93V21C11 21.5523 11.4477 22 12 22C12.5523 22 13 21.5523 13 21V19.93C16.6202 19.4709 19.4709 16.6202 19.93 13H21C21.5523 13 22 12.5523 22 12C22 11.4477 21.5523 11 21 11ZM12 18C8.68628 18 5.99998 15.3137 5.99998 12C5.99998 8.68629 8.68628 6 12 6C15.3137 6 18 8.68629 18 12C18 13.5913 17.3678 15.1174 16.2426 16.2426C15.1174 17.3679 13.5913 18 12 18Z" fill="#171E2B"/>
</svg>
