<svg width="43" height="10" viewBox="0 0 43 10" fill="none" xmlns="http://www.w3.org/2000/svg">
<path d="M1.71406 0.129354H3.32997e-05V9.59113H1.71406V0.129354ZM12.4496 3.32178C12.1585 1.21968 10.5415 -5.90537e-06 8.44406 -5.90537e-06C5.97236 -5.90537e-06 4.1105 1.8018 4.1105 4.86024C4.1105 7.91406 5.94926 9.72049 8.44406 9.72049C10.694 9.72049 12.1863 8.26518 12.4496 6.45876L10.7217 6.44952C10.5046 7.55832 9.59906 8.18202 8.46716 8.18202C6.93332 8.18202 5.83376 7.03164 5.83376 4.86024C5.83376 2.7258 6.92408 1.53846 8.47178 1.53846C9.62216 1.53846 10.5231 2.18988 10.7217 3.32178H12.4496ZM23.2545 4.86024C23.2545 1.8018 21.388 -5.90537e-06 18.907 -5.90537e-06C16.4215 -5.90537e-06 14.5596 1.8018 14.5596 4.86024C14.5596 7.91406 16.4215 9.72049 18.907 9.72049C21.388 9.72049 23.2545 7.91868 23.2545 4.86024ZM21.5312 4.86024C21.5312 7.01316 20.4501 8.18202 18.907 8.18202C17.3686 8.18202 16.2829 7.01316 16.2829 4.86024C16.2829 2.70732 17.3686 1.53846 18.907 1.53846C20.4501 1.53846 21.5312 2.70732 21.5312 4.86024ZM33.431 0.129354H31.7262V6.57888H31.6431L27.1894 0.129354H25.6555V9.59113H27.3695V3.14622H27.4481L31.9064 9.59113H33.431V0.129354ZM41.2213 2.73042H42.8706C42.8383 1.1319 41.4754 -5.90537e-06 39.4611 -5.90537e-06C37.4745 -5.90537e-06 35.9822 1.11804 35.9868 2.79048C35.9868 4.14876 36.9524 4.92954 38.5093 5.33148L39.5858 5.60868C40.6068 5.8674 41.2814 6.18618 41.286 6.92076C41.2814 7.72926 40.5144 8.2698 39.3964 8.2698C38.3245 8.2698 37.4929 7.78932 37.4236 6.79602H35.7373C35.8066 8.67636 37.2065 9.73435 39.4102 9.73435C41.6787 9.73435 42.9954 8.60244 43 6.93462C42.9954 5.29452 41.6417 4.54608 40.2187 4.20882L39.3317 3.98706C38.5555 3.80226 37.7147 3.47424 37.7239 2.68422C37.7286 1.97274 38.3661 1.45068 39.438 1.45068C40.459 1.45068 41.1335 1.92654 41.2213 2.73042Z" fill="#ADB1B4"/>
</svg>
