<svg width="24" height="24" viewBox="0 0 24 24" fill="none" xmlns="http://www.w3.org/2000/svg">
<path fill-rule="evenodd" clip-rule="evenodd" d="M19 10C18.4477 10 18 10.4477 18 11V14.38L16.52 12.9C15.4323 11.8209 13.6777 11.8209 12.59 12.9L11.89 13.61L9.41 11.12C8.32225 10.0409 6.56775 10.0409 5.48 11.12L4 12.61V7.00003C4 6.44775 4.44772 6.00003 5 6.00003H13C13.5523 6.00003 14 5.55231 14 5.00003C14 4.44775 13.5523 4.00003 13 4.00003H5C3.34315 4.00003 2 5.34318 2 7.00003V19.22C2.00549 20.7531 3.24693 21.9945 4.78 22H17.22C17.491 21.9979 17.7603 21.9575 18.02 21.88C19.2069 21.5471 20.0253 20.4627 20.02 19.23V11C20.0201 10.7313 19.912 10.4739 19.7201 10.2858C19.5282 10.0976 19.2687 9.99466 19 10ZM5.00001 20C4.44773 20 4.00002 19.5523 4.00002 19V15.43L6.89001 12.54C7.19427 12.2374 7.68576 12.2374 7.99001 12.54L15.46 20H5.00001ZM18 19C17.9936 19.1936 17.9311 19.3812 17.82 19.54L13.3 15L14.01 14.3C14.1548 14.1522 14.3531 14.0689 14.56 14.0689C14.767 14.0689 14.9652 14.1522 15.11 14.3L18 17.21V19ZM21 4.00002H20V3.00002C20 2.44773 19.5523 2.00002 19 2.00002C18.4477 2.00002 18 2.44773 18 3.00002V4.00002H17C16.4477 4.00002 16 4.44773 16 5.00002C16 5.5523 16.4477 6.00002 17 6.00002H18V7.00002C18 7.5523 18.4477 8.00002 19 8.00002C19.5523 8.00002 20 7.5523 20 7.00002V6.00002H21C21.5523 6.00002 22 5.5523 22 5.00002C22 4.44773 21.5523 4.00002 21 4.00002Z" fill="#171E2B"/>
</svg>
