<svg width="24" height="24" viewBox="0 0 24 24" fill="none" xmlns="http://www.w3.org/2000/svg">
<path fill-rule="evenodd" clip-rule="evenodd" d="M21 3H17C16.4477 3 16 3.44772 16 4C16 4.55229 16.4477 5 17 5H21C21.5523 5 22 4.55229 22 4C22 3.44772 21.5523 3 21 3ZM19 7C18.4477 7 18 7.44772 18 8V13.39L16.52 11.91C15.4323 10.8308 13.6777 10.8308 12.59 11.91L11.89 12.61L9.41 10.12C8.32225 9.04083 6.56775 9.04083 5.48 10.12L4 11.61V6C4 5.44772 4.44772 5 5 5H13C13.5523 5 14 4.55228 14 4C14 3.44772 13.5523 3 13 3H5C3.34315 3 2 4.34315 2 6V18C2 19.6569 3.34315 21 5 21H17C18.6569 21 20 19.6569 20 18V8C20 7.44772 19.5523 7 19 7ZM5.00001 19C4.44773 19 4.00002 18.5523 4.00002 18V14.43L6.90001 11.54C7.20516 11.2492 7.68486 11.2492 7.99001 11.54L11.16 14.71L15.45 19H5.00001ZM18 18C17.9936 18.1936 17.931 18.3812 17.82 18.54L13.31 14L14.01 13.31C14.1548 13.1622 14.3531 13.0789 14.56 13.0789C14.7669 13.0789 14.9652 13.1622 15.11 13.31L18 16.22V18Z" fill="#171E2B"/>
</svg>
