<svg width="24" height="24" viewBox="0 0 24 24" fill="none" xmlns="http://www.w3.org/2000/svg">
<path fill-rule="evenodd" clip-rule="evenodd" d="M21.71 14.54L19.21 12C19.0222 11.8107 18.7666 11.7042 18.5 11.7042C18.2334 11.7042 17.9778 11.8107 17.79 12L15 14.84L12.21 12C12.0222 11.8107 11.7666 11.7042 11.5 11.7042C11.2334 11.7042 10.9778 11.8107 10.79 12L8.5 14.34L6.21 12C6.02223 11.8107 5.76664 11.7042 5.5 11.7042C5.23336 11.7042 4.97777 11.8107 4.79 12L2.29 14.5C2.19896 14.5951 2.1276 14.7073 2.08 14.83C2.02876 14.9503 2.00158 15.0794 2 15.21V19C2 20.6569 3.34315 22 5 22H19C20.6569 22 22 20.6569 22 19V15.25C21.9984 15.1194 21.9712 14.9903 21.92 14.87C21.8724 14.7473 21.801 14.6351 21.71 14.54ZM20 19C20 19.5523 19.5523 20 19 20H4.99999C4.44771 20 3.99999 19.5523 3.99999 19V15.66L5.49999 14.16L7.78999 16.46C7.97776 16.6493 8.23336 16.7558 8.49999 16.7558C8.76663 16.7558 9.02223 16.6493 9.20999 16.46L11.5 14.16L14.29 17C14.4778 17.1893 14.7334 17.2958 15 17.2958C15.2666 17.2958 15.5222 17.1893 15.71 17L18.5 14.2L20 15.7V19ZM19 2.00002H5C3.34315 2.00002 2 3.34316 2 5.00002V10.26C1.98958 10.3497 1.98958 10.4403 2 10.53C2 10.53 2 10.6 2 10.63C2.12725 10.9478 2.40825 11.1785 2.74479 11.2413C3.08132 11.3042 3.42662 11.1905 3.66 10.94L5.5 9.16002L7.79 11.46C7.97777 11.6493 8.23336 11.7558 8.5 11.7558C8.76664 11.7558 9.02224 11.6493 9.21 11.46L11.5 9.16002L14.29 12C14.4778 12.1893 14.7334 12.2958 15 12.2958C15.2666 12.2958 15.5222 12.1893 15.71 12L18.5 9.20002L20.27 10.98C20.5034 11.2305 20.8487 11.3442 21.1852 11.2813C21.5218 11.2185 21.8028 10.9878 21.93 10.67C21.9349 10.6402 21.9349 10.6098 21.93 10.58C21.9652 10.4906 21.9854 10.396 21.99 10.3V5.00002C21.99 3.34706 20.6529 2.00553 19 2.00002ZM20 7.84003L19.21 7.00003C19.0222 6.81072 18.7666 6.70423 18.5 6.70423C18.2334 6.70423 17.9778 6.81072 17.79 7.00003L15 9.84003L12.21 7.00003C12.0222 6.81072 11.7666 6.70423 11.5 6.70423C11.2334 6.70423 10.9778 6.81072 10.79 7.00003L8.49999 9.34003L6.20999 7.00003C6.02223 6.81072 5.76663 6.70423 5.49999 6.70423C5.23336 6.70423 4.97776 6.81072 4.78999 7.00003L3.99999 7.84003V5.00003C3.99999 4.44775 4.44771 4.00003 4.99999 4.00003H19C19.5523 4.00003 20 4.44775 20 5.00003V7.84003Z" fill="#171E2B"/>
</svg>
