<svg width="24" height="24" viewBox="0 0 24 24" fill="none" xmlns="http://www.w3.org/2000/svg">
<path fill-rule="evenodd" clip-rule="evenodd" d="M21.5 1.49997C20.9477 1.49997 20.5 1.94768 20.5 2.49997C18.3981 0.920371 15.432 1.23851 13.7129 3.22793C11.9938 5.21734 12.1092 8.19828 13.9769 10.0489C15.8446 11.8994 18.8265 11.9873 20.8 10.25C21.217 9.88546 21.2595 9.25194 20.895 8.83497C20.5305 8.41799 19.897 8.37546 19.48 8.73997C18.2399 9.83462 16.3477 9.71892 15.2502 8.48133C14.1527 7.24373 14.264 5.3513 15.499 4.25091C16.7341 3.15053 18.6268 3.25747 19.73 4.48997H18.5C17.9477 4.48997 17.5 4.93768 17.5 5.48997C17.5 6.04225 17.9477 6.48997 18.5 6.48997H21.5C22.0523 6.48997 22.5 6.04225 22.5 5.48997V2.48997C22.4945 1.94159 22.0484 1.49994 21.5 1.49997ZM18.5 13.5C17.9477 13.5 17.5 13.9477 17.5 14.5V14.89L16 13.41C15.48 12.8867 14.7727 12.5924 14.035 12.5924C13.2973 12.5924 12.59 12.8867 12.07 13.41L11.37 14.11L8.91 11.62C7.82225 10.5408 6.06775 10.5408 4.98 11.62L3.5 13.1V7.5C3.5 6.94772 3.94772 6.5 4.5 6.5H9.5C10.0523 6.5 10.5 6.05228 10.5 5.5C10.5 4.94772 10.0523 4.5 9.5 4.5H4.5C2.84315 4.5 1.5 5.84315 1.5 7.5V19.5C1.5 21.1569 2.84315 22.5 4.5 22.5H16.5C18.1569 22.5 19.5 21.1569 19.5 19.5V14.5C19.5 13.9477 19.0523 13.5 18.5 13.5ZM4.50002 20.5C3.94773 20.5 3.50002 20.0523 3.50002 19.5V15.93L6.40002 13C6.70516 12.7092 7.18487 12.7092 7.49002 13L10.66 16.17L15 20.5H4.50002ZM17.5 19.5C17.4917 19.6902 17.4292 19.874 17.32 20.03L12.81 15.52L13.51 14.82C13.8143 14.5174 14.3057 14.5174 14.61 14.82L17.5 17.72V19.5Z" fill="#171E2B"/>
</svg>
