<svg width="24" height="24" viewBox="0 0 24 24" fill="none" xmlns="http://www.w3.org/2000/svg">
<path fill-rule="evenodd" clip-rule="evenodd" d="M21.71 20.29L20.78 19.36L20.69 19.26L20.63 19.19L20.13 18.69L20 18.62L14.82 13.42L14.73 13.34L11.53 10.13L11.43 10L3.71003 2.29002C3.45637 2.03636 3.08665 1.9373 2.74015 2.03014C2.39364 2.12299 2.12299 2.39364 2.03015 2.74014C1.9373 3.08665 2.03637 3.45636 2.29003 3.71002L3.29003 4.71002C3.09862 5.1131 2.99955 5.55381 3.00003 6.00002V18C3.00003 19.6569 4.34317 21 6.00003 21H18C18.4414 20.9947 18.8758 20.8887 19.27 20.69C19.27 20.69 19.27 20.69 19.32 20.69L20.27 21.69C20.4578 21.8793 20.7134 21.9858 20.98 21.9858C21.2467 21.9858 21.5023 21.8793 21.69 21.69C22.0768 21.3066 22.0857 20.6843 21.71 20.29ZM5.00002 6.41002L8.24002 9.65001C7.99453 9.77658 7.76883 9.93828 7.57002 10.13L5.00002 12.71V6.41002ZM6.00002 19C5.44774 19 5.00002 18.5523 5.00002 18V15.54L9.00002 11.54C9.31047 11.2529 9.78957 11.2529 10.1 11.54L17.59 19H6.00002ZM9.66002 5H18C18.5523 5 19 5.44771 19 6V11.94C18.7464 11.6863 18.3766 11.5873 18.0301 11.6801C17.6836 11.773 17.413 12.0436 17.3201 12.3901C17.2273 12.7366 17.3264 13.1063 17.58 13.36L19.32 15.1C19.5078 15.2893 19.7634 15.3958 20.03 15.3958C20.2967 15.3958 20.5523 15.2893 20.74 15.1C20.9297 14.9088 21.0342 14.6493 21.03 14.38V6C21.03 4.34315 19.6869 3 18.03 3H9.66002C9.10773 3 8.66002 3.44772 8.66002 4C8.66002 4.55228 9.10773 5 9.66002 5Z" fill="#171E2B"/>
</svg>
