<svg width="24" height="24" viewBox="0 0 24 24" fill="none" xmlns="http://www.w3.org/2000/svg">
<path fill-rule="evenodd" clip-rule="evenodd" d="M19 13C18.4477 13 18 13.4477 18 14V14.39L16.52 12.91C15.4323 11.8309 13.6777 11.8309 12.59 12.91L11.89 13.61L9.41 11.12C8.30545 10.0824 6.58455 10.0824 5.48 11.12L4 12.61V7.00003C4 6.44775 4.44772 6.00003 5 6.00003H9C9.55228 6.00003 10 5.55232 10 5.00003C10 4.44775 9.55228 4.00003 9 4.00003H5C3.34315 4.00003 2 5.34318 2 7.00003V19C2 20.6569 3.34315 22 5 22H17C18.6569 22 20 20.6569 20 19V14C20 13.4477 19.5523 13 19 13ZM5 20C4.44772 20 4 19.5523 4 19V15.43L6.9 12.54C7.20515 12.2492 7.68485 12.2492 7.99 12.54L11.16 15.71L15.45 20H5ZM18 19C17.9936 19.1937 17.931 19.3813 17.82 19.54L13.31 15L14.01 14.31C14.1548 14.1622 14.3531 14.0789 14.56 14.0789C14.7669 14.0789 14.9652 14.1622 15.11 14.31L18 17.22V19ZM21.71 10.29L20 8.57001C21.1782 6.65332 20.6839 4.15284 18.865 2.82861C17.0461 1.50439 14.5147 1.80199 13.0525 3.51193C11.5904 5.22187 11.6894 7.76881 13.28 9.36001C14.0745 10.1595 15.1529 10.6124 16.28 10.62C17.0861 10.63 17.8791 10.4154 18.57 10L20.29 11.73C20.4778 11.9193 20.7334 12.0258 21 12.0258C21.2666 12.0258 21.5222 11.9193 21.71 11.73C21.9056 11.5415 22.016 11.2816 22.016 11.01C22.016 10.7384 21.9056 10.4785 21.71 10.29ZM18 8C17.3377 8.66673 16.3386 8.86806 15.4698 8.50988C14.601 8.1517 14.034 7.30476 14.034 6.365C14.034 5.42524 14.601 4.5783 15.4698 4.22012C16.3386 3.86194 17.3377 4.06327 18 4.73C18.8987 5.63475 18.8987 7.09525 18 8Z" fill="#171E2B"/>
</svg>
