<svg width="24" height="24" viewBox="0 0 24 24" fill="none" xmlns="http://www.w3.org/2000/svg">
<path fill-rule="evenodd" clip-rule="evenodd" d="M21.71 2.29999C21.32 1.91227 20.69 1.91227 20.3 2.29999L16.92 5.59999L15.7 4.39999C15.3051 4.01339 14.6716 4.02011 14.285 4.41499C13.8984 4.80988 13.9051 5.44339 14.3 5.82999L16.22 7.70999C16.6088 8.09114 17.2312 8.09114 17.62 7.70999L21.7 3.70999C22.0905 3.32271 22.095 2.69278 21.71 2.29999ZM19 8.99998C18.4477 8.99998 18 9.4477 18 9.99998V14.39L16.52 12.91C16 12.3866 15.2927 12.0923 14.555 12.0923C13.8173 12.0923 13.11 12.3866 12.59 12.91L11.89 13.61L9.41 11.12C8.32225 10.0408 6.56775 10.0408 5.48 11.12L4 12.6V6.99998C4 6.4477 4.44772 5.99998 5 5.99998H11C11.5523 5.99998 12 5.55227 12 4.99998C12 4.4477 11.5523 3.99998 11 3.99998H5C3.34315 3.99998 2 5.34313 2 6.99998V19C2 20.6568 3.34315 22 5 22H17C18.6569 22 20 20.6568 20 19V9.99998C20 9.4477 19.5523 8.99998 19 8.99998ZM5 20C4.44772 20 4 19.5523 4 19V15.43L6.9 12.53C7.20515 12.2392 7.68485 12.2392 7.99 12.53L11.16 15.7L15.45 20H5ZM18 19C17.9986 19.1914 17.9354 19.3773 17.82 19.53L13.31 15L14.01 14.3C14.3142 13.9974 14.8057 13.9974 15.11 14.3L18 17.22V19Z" fill="#171E2B"/>
</svg>
