<svg width="24" height="24" viewBox="0 0 24 24" fill="none" xmlns="http://www.w3.org/2000/svg">
<path fill-rule="evenodd" clip-rule="evenodd" d="M18 15V4.99997C18 3.34312 16.6569 1.99997 15 1.99997H5.00002C3.34316 1.99997 2.00002 3.34312 2.00002 4.99997V15C2.00002 16.6568 3.34316 18 5.00002 18H15C16.6569 18 18 16.6568 18 15ZM4.00003 4.99994C4.00003 4.44765 4.44775 3.99994 5.00003 3.99994H15C15.5523 3.99994 16 4.44765 16 4.99994V9.35994L14.92 8.26994C14.44 7.78982 13.7889 7.52004 13.11 7.51994C12.4316 7.52222 11.7813 7.79167 11.3 8.26994L10.39 9.17994L9.58003 8.36994C8.43975 7.24795 6.61031 7.24795 5.47003 8.36994L4.00003 9.84994V4.99994ZM4.12003 15.4499C4.04292 15.3124 4.00165 15.1576 4.00003 14.9999V12.6699L6.88003 9.78993C7.05081 9.61833 7.28293 9.52186 7.52503 9.52186C7.76713 9.52186 7.99925 9.61833 8.17003 9.78993L9.00003 10.5999L4.12003 15.4499ZM12.72 9.68994C12.8198 9.58025 12.9617 9.5184 13.11 9.51994C13.2583 9.5184 13.4002 9.58025 13.5 9.68994L16 12.1799V14.9999C16 15.5522 15.5523 15.9999 15 15.9999H6.40003L12.72 9.68994ZM21 6C20.4477 6 20 6.44772 20 7V17C20 18.6569 18.6569 20 17 20H7C6.44771 20 6 20.4477 6 21C6 21.5523 6.44771 22 7 22H17C19.7614 22 22 19.7614 22 17V7C22 6.44772 21.5523 6 21 6Z" fill="#171E2B"/>
</svg>
