<svg width="24" height="24" viewBox="0 0 24 24" fill="none" xmlns="http://www.w3.org/2000/svg">
<path fill-rule="evenodd" clip-rule="evenodd" d="M19 1.99997H5.00002C3.34316 1.99997 2.00002 3.34312 2.00002 4.99997V19C2.00002 20.6568 3.34316 22 5.00002 22H19C19.1645 21.9977 19.3285 21.9809 19.49 21.95L19.79 21.88H19.86H19.91L20.28 21.74L20.41 21.67C20.51 21.61 20.62 21.56 20.72 21.49C20.8535 21.3917 20.9805 21.2848 21.1 21.17L21.17 21.08C21.2682 20.9805 21.3585 20.8735 21.44 20.76L21.53 20.63C21.5999 20.5186 21.6601 20.4015 21.71 20.28C21.7375 20.232 21.7609 20.1818 21.78 20.13C21.83 20.01 21.86 19.88 21.9 19.75V19.6C21.9567 19.4046 21.9903 19.2032 22 19V4.99997C22 3.34312 20.6569 1.99997 19 1.99997ZM5.00003 20C4.44775 20 4.00003 19.5523 4.00003 19V14.69L7.29003 11.39C7.4778 11.2007 7.73339 11.0942 8.00003 11.0942C8.26667 11.0942 8.52226 11.2007 8.71003 11.39L17.31 20H5.00003ZM20 19C19.9991 19.1233 19.9754 19.2453 19.93 19.36C19.9072 19.4087 19.8804 19.4555 19.85 19.5C19.8233 19.5423 19.7932 19.5824 19.76 19.62L14.41 14.27L15.29 13.39C15.4778 13.2007 15.7334 13.0942 16 13.0942C16.2667 13.0942 16.5223 13.2007 16.71 13.39L20 16.69V19ZM20 13.8599L18.12 11.9999C16.9316 10.8723 15.0684 10.8723 13.88 11.9999L13 12.8799L10.12 9.99994C8.93162 8.87231 7.06844 8.87231 5.88003 9.99994L4.00003 11.8599V4.99994C4.00003 4.44765 4.44775 3.99994 5.00003 3.99994H19C19.5523 3.99994 20 4.44765 20 4.99994V13.8599Z" fill="#171E2B"/>
</svg>
