<svg width="24" height="24" viewBox="0 0 24 24" fill="none" xmlns="http://www.w3.org/2000/svg">
<path fill-rule="evenodd" clip-rule="evenodd" d="M13 11H2.00002C1.44774 11 1.00002 11.4477 1.00002 12V21C1.00002 21.5523 1.44774 22 2.00002 22H12.86C12.91 22 12.95 22 13 22C13.5523 22 14 21.5523 14 21V12C14 11.4477 13.5523 11 13 11ZM7.43999 20L9.36999 18.07C9.42558 17.9862 9.51944 17.9358 9.61999 17.9358C9.72054 17.9358 9.81441 17.9862 9.86999 18.07L11.79 20H7.43999ZM12 17.38L11.28 16.67C10.3485 15.7799 8.88153 15.7799 7.94999 16.67L4.60999 20H2.99999V13H12V17.38ZM2 4.10999C2.35307 4.10993 2.67994 3.92369 2.86 3.61999C2.98717 3.43855 3.05367 3.22153 3.05 2.99999C3.05035 2.72588 2.93815 2.46365 2.73966 2.2746C2.54117 2.08556 2.27377 1.98629 2 1.99999C1.44772 1.99999 1 2.44771 1 2.99999V3.09999C0.997335 3.36694 1.10151 3.62387 1.28934 3.81357C1.47716 4.00328 1.73305 4.11001 2 4.10999ZM9.90999 3.99997H10.1C10.6523 3.99997 11.1 3.55225 11.1 2.99997C11.1 2.44768 10.6523 1.99997 10.1 1.99997H9.90999C9.35771 1.99997 8.90999 2.44768 8.90999 2.99997C8.90999 3.55225 9.35771 3.99997 9.90999 3.99997ZM2.00002 8.77997C2.55231 8.77997 3.00002 8.33225 3.00002 7.77997V7.55997C3.00002 7.00769 2.55231 6.55997 2.00002 6.55997C1.44774 6.55997 1.00002 7.00769 1.00002 7.55997V7.77997C1.00002 8.33225 1.44774 8.77997 2.00002 8.77997ZM14.09 1.99997H13.9C13.3477 1.99997 12.9 2.44768 12.9 2.99997C12.9 3.55225 13.3477 3.99997 13.9 3.99997H14.09C14.6423 3.99997 15.09 3.55225 15.09 2.99997C15.09 2.44768 14.6423 1.99997 14.09 1.99997ZM5.91001 3.99997H6.10001C6.65229 3.99997 7.10001 3.55225 7.10001 2.99997C7.10001 2.44768 6.65229 1.99997 6.10001 1.99997H5.91001C5.35772 1.99997 4.91001 2.44768 4.91001 2.99997C4.91001 3.55225 5.35772 3.99997 5.91001 3.99997ZM22 6.40003C21.4477 6.40003 21 6.84775 21 7.40003V7.61003C21 8.16232 21.4477 8.61003 22 8.61003C22.5523 8.61003 23 8.16232 23 7.61003V7.40003C23 6.84775 22.5523 6.40003 22 6.40003ZM17.12 20H16.88C16.3277 20 15.88 20.4477 15.88 21C15.88 21.5523 16.3277 22 16.88 22H17.12C17.6723 22 18.12 21.5523 18.12 21C18.12 20.4477 17.6723 20 17.12 20ZM21.9 1.99997C21.3871 2.05151 20.9974 2.48449 21 2.99997C21.0023 3.14558 21.0365 3.28892 21.1 3.41997C21.2892 3.82592 21.7253 4.05652 22.1674 3.98439C22.6094 3.91227 22.9496 3.55502 23 3.10997V2.99997C22.9528 2.42952 22.4724 1.99277 21.9 1.99997ZM22 10.9C21.4477 10.9 21 11.3477 21 11.9V12.12C21 12.6723 21.4477 13.12 22 13.12C22.5523 13.12 23 12.6723 23 12.12V11.9C23 11.3477 22.5523 10.9 22 10.9ZM18.09 1.99997H17.9C17.3477 1.99997 16.9 2.44768 16.9 2.99997C16.9 3.55225 17.3477 3.99997 17.9 3.99997H18.09C18.6423 3.99997 19.09 3.55225 19.09 2.99997C19.09 2.44768 18.6423 1.99997 18.09 1.99997ZM22 20C21.8465 19.9998 21.6953 20.0376 21.56 20.11C21.2198 20.2767 21.003 20.6212 21 21C21 21.5523 21.4477 22 22 22C22.5704 21.9528 23.0072 21.4724 23 20.9C22.9484 20.3871 22.5155 19.9974 22 20ZM22 15.44C21.4477 15.44 21 15.8877 21 16.44V16.66C21 17.2123 21.4477 17.66 22 17.66C22.5523 17.66 23 17.2123 23 16.66V16.4C23 15.8477 22.5523 15.4 22 15.4V15.44Z" fill="#171E2B"/>
</svg>
