<svg width="24" height="24" viewBox="0 0 24 24" fill="none" xmlns="http://www.w3.org/2000/svg">
<path fill-rule="evenodd" clip-rule="evenodd" d="M3 8.1C3.55228 8.1 4 7.65228 4 7.1V6.91C4 6.35771 3.55228 5.91 3 5.91C2.44771 5.91 2 6.35771 2 6.91V7.1C2 7.65228 2.44771 8.1 3 8.1ZM3 4.10004C3.14561 4.09768 3.28895 4.06355 3.42 4.00004C3.97228 3.91167 4.34836 3.39232 4.26 2.84004C4.17163 2.28775 3.65228 1.91167 3.1 2.00004H3C2.42954 2.04725 1.99279 2.52768 2 3.10004C2.02666 3.6327 2.46666 4.0507 3 4.05004V4.10004ZM20.39 3.91006C20.7087 4.16036 21.1469 4.19358 21.4997 3.99418C21.8525 3.79478 22.0501 3.40219 22 3.00006C22 2.44778 21.5523 2.00006 21 2.00006H20.9C20.4497 2.00019 20.055 2.30132 19.9359 2.73563C19.8168 3.16993 20.0027 3.63026 20.39 3.86006V3.91006ZM11.89 4.00006H12.11C12.6623 4.00006 13.11 3.55235 13.11 3.00006C13.11 2.44778 12.6623 2.00006 12.11 2.00006H11.89C11.3377 2.00006 10.89 2.44778 10.89 3.00006C10.89 3.55235 11.3377 4.00006 11.89 4.00006ZM7.39 4.00006H7.6C8.15229 4.00006 8.6 3.55235 8.6 3.00006C8.6 2.44778 8.15229 2.00006 7.6 2.00006H7.39C6.83772 2.00006 6.39 2.44778 6.39 3.00006C6.39 3.55235 6.83772 4.00006 7.39 4.00006ZM21 20C20.8544 20.0024 20.711 20.0365 20.58 20.1C20.1734 20.2906 19.9437 20.7288 20.0183 21.1716C20.0929 21.6143 20.4534 21.9531 20.9 22H21C21.5704 21.9528 22.0072 21.4724 22 20.9C21.9484 20.3871 21.5155 19.9974 21 20ZM14 11C14 10.4477 13.5523 10 13 10H3.27C3.18035 9.98872 3.08964 9.98872 3 10C2.44771 10 2 10.4477 2 11V21C2 21.5523 2.44771 22 3 22H13.1C13.4399 21.9975 13.7552 21.8225 13.9371 21.5354C14.1191 21.2483 14.1428 20.8885 14 20.58V11ZM12 20.0001H5.52L9.43 16.1001C9.49202 16.0372 9.57667 16.0017 9.665 16.0017C9.75334 16.0017 9.83799 16.0372 9.9 16.1001L12 18.1901V20.0001ZM12 15.37L11.32 14.68C10.4038 13.7712 8.92617 13.7712 8.01 14.68L4.01 18.68V12H12.01L12 15.37ZM21 15.37C20.4477 15.37 20 15.8177 20 16.37V16.58C20 17.1323 20.4477 17.58 21 17.58C21.5523 17.58 22 17.1323 22 16.58V16.4C22 15.8477 21.5523 15.4 21 15.4V15.37ZM21 6.37003C20.4477 6.37003 20 6.81775 20 7.37003V7.60003C20 8.15232 20.4477 8.60003 21 8.60003C21.5523 8.60003 22 8.15232 22 7.60003V7.39003C22 6.83775 21.5523 6.39003 21 6.39003V6.37003ZM21 10.87C20.4477 10.87 20 11.3177 20 11.87V12.09C20 12.6423 20.4477 13.09 21 13.09C21.5523 13.09 22 12.6423 22 12.09V11.87C21.9891 11.3256 21.5446 10.8899 21 10.89V10.87ZM17.1 20.0001H16.9C16.3477 20.0001 15.9 20.4478 15.9 21.0001C15.9 21.5523 16.3477 22.0001 16.9 22.0001H17.1C17.6523 22.0001 18.1 21.5523 18.1 21.0001C18.1 20.4478 17.6523 20.0001 17.1 20.0001ZM16.61 4.00006C17.1623 4.00006 17.61 3.55235 17.61 3.00006C17.61 2.44778 17.1623 2.00006 16.61 2.00006H16.4C15.8477 2.00006 15.4 2.44778 15.4 3.00006C15.4 3.55235 15.8477 4.00006 16.4 4.00006H16.61Z" fill="#171E2B"/>
</svg>
