<svg width="24" height="24" viewBox="0 0 24 24" fill="none" xmlns="http://www.w3.org/2000/svg">
<path fill-rule="evenodd" clip-rule="evenodd" d="M20 6.99997C19.5752 7.00136 19.1619 7.13796 18.82 7.38997L17.07 6.58997L19 5.70997C19.3019 5.89323 19.6469 5.99329 20 5.99997C21.1046 5.99997 22 5.10454 22 3.99997C22 2.8954 21.1046 1.99997 20 1.99997C18.8954 1.99997 18 2.8954 18 3.99997L16.11 4.86997C15.4009 4.36635 14.4477 4.37872 13.7519 4.90055C13.0561 5.42239 12.7773 6.33406 13.0623 7.15578C13.3472 7.97751 14.1305 8.52089 15 8.49997C15.3222 8.50012 15.639 8.41748 15.92 8.25997L18.02 9.25997C18.1593 10.322 19.1106 11.0859 20.1776 10.9923C21.2447 10.8988 22.0487 9.98118 22.001 8.91107C21.9534 7.84095 21.0712 6.99835 20 6.99997ZM19 12.9999C18.4477 12.9999 18 13.4477 18 13.9999V14.3899L16.52 12.9099C16 12.3866 15.2928 12.0923 14.555 12.0923C13.8173 12.0923 13.11 12.3866 12.59 12.9099L11.89 13.6099L9.41 11.1199C8.32225 10.0408 6.56775 10.0408 5.48 11.1199L4 12.5999V6.99994C4 6.44765 4.44772 5.99994 5 5.99994H10C10.5523 5.99994 11 5.55222 11 4.99994C11 4.44765 10.5523 3.99994 10 3.99994H5C3.34315 3.99994 2 5.34308 2 6.99994V18.9999C2 20.6568 3.34315 21.9999 5 21.9999H17C18.6569 21.9999 20 20.6568 20 18.9999V13.9999C20 13.4477 19.5523 12.9999 19 12.9999ZM5 19.9999C4.44772 19.9999 4 19.5522 4 18.9999V15.4299L6.9 12.5299C7.20515 12.2391 7.68485 12.2391 7.99 12.5299L11.16 15.6999L15.45 19.9999H5ZM18 18.9999C17.9986 19.1914 17.9354 19.3772 17.82 19.5299L13.31 14.9999L14.01 14.2999C14.3143 13.9974 14.8057 13.9974 15.11 14.2999L18 17.2199V18.9999Z" fill="#171E2B"/>
</svg>
