<svg width="24" height="24" viewBox="0 0 24 24" fill="none" xmlns="http://www.w3.org/2000/svg">
<path fill-rule="evenodd" clip-rule="evenodd" d="M19 12.9999C18.4477 12.9999 18 13.4477 18 13.9999V14.3899L16.52 12.9099C16 12.3866 15.2928 12.0923 14.555 12.0923C13.8173 12.0923 13.11 12.3866 12.59 12.9099L11.89 13.6099L9.41002 11.1199C8.30745 10.0774 6.58258 10.0774 5.48002 11.1199L4.00002 12.5999V6.99994C4.00002 6.44766 4.44773 5.99994 5.00002 5.99994H13C13.5523 5.99994 14 5.55223 14 4.99994C14 4.44766 13.5523 3.99994 13 3.99994H5.00002C3.34316 3.99994 2.00002 5.34309 2.00002 6.99994V18.9999C2.00002 20.6568 3.34316 21.9999 5.00002 21.9999H17C18.6569 21.9999 20 20.6568 20 18.9999V13.9999C20 13.4477 19.5523 12.9999 19 12.9999ZM5.00003 19.9999C4.44775 19.9999 4.00003 19.5522 4.00003 18.9999V15.4299L6.90003 12.5299C7.20518 12.2391 7.68488 12.2391 7.99003 12.5299L11.16 15.6999L15.45 19.9999H5.00003ZM18 18.9999C17.9917 19.1901 17.9292 19.374 17.82 19.5299L13.31 14.9999L14.01 14.2999C14.3143 13.9974 14.8058 13.9974 15.11 14.2999L18 17.2199V18.9999ZM19 1.99997C17.9275 1.99928 16.9362 2.57117 16.4 3.49997C16.2665 3.73049 16.2304 4.00478 16.2999 4.26197C16.3693 4.51917 16.5386 4.73802 16.77 4.86997C17.248 5.14136 17.8554 4.97611 18.13 4.49997C18.3545 4.10376 18.8184 3.90928 19.2583 4.02692C19.6983 4.14455 20.0032 4.54458 20 4.99997C20 5.55225 19.5523 5.99997 19 5.99997C18.4477 5.99997 18 6.44768 18 6.99997C18 7.55225 18.4477 7.99997 19 7.99997C20.6569 7.99997 22 6.65682 22 4.99997C22 3.34312 20.6569 1.99997 19 1.99997ZM19.38 9.07999C19.199 8.99605 18.997 8.96819 18.8 8.99999L18.62 9.05999L18.44 9.14999L18.29 9.27999C18.1004 9.47115 17.9958 9.73073 18 9.99999C17.9985 10.2658 18.1028 10.5213 18.29 10.71C18.4778 10.8993 18.7334 11.0058 19 11.0058C19.2667 11.0058 19.5223 10.8993 19.71 10.71C19.8972 10.5213 20.0016 10.2658 20 9.99999C19.998 9.59629 19.7535 9.23339 19.38 9.07999Z" fill="#171E2B"/>
</svg>
