<svg width="24" height="24" viewBox="0 0 24 24" fill="none" xmlns="http://www.w3.org/2000/svg">
<path fill-rule="evenodd" clip-rule="evenodd" d="M19.5 4.00003H9.99999C9.44771 4.00003 8.99999 4.44775 8.99999 5.00003C8.99999 5.55232 9.44771 6.00003 9.99999 6.00003H19.5C20.0523 6.00003 20.5 6.44775 20.5 7.00003V13.76L18.62 11.88C18.2985 11.5603 17.9088 11.3175 17.48 11.17C17.1406 11.0557 16.766 11.1311 16.4973 11.3679C16.2286 11.6047 16.1066 11.9668 16.1773 12.3179C16.248 12.669 16.5006 12.9557 16.84 13.07C16.9782 13.1135 17.1024 13.1929 17.2 13.3L20.51 16.59C20.5043 16.6399 20.5043 16.6902 20.51 16.74C20.5055 16.7899 20.5055 16.8401 20.51 16.89C20.5476 16.954 20.5911 17.0143 20.64 17.07C20.6644 17.111 20.6947 17.148 20.73 17.18C20.79 17.2356 20.8573 17.2827 20.93 17.32C20.9645 17.3438 21.0013 17.3639 21.04 17.38C21.1564 17.4323 21.2824 17.4596 21.41 17.46C21.9623 17.46 22.41 17.0123 22.41 16.46V7.00003C22.4107 5.3777 21.1216 4.0487 19.5 4.00003ZM3.21 2.29C2.81788 1.89788 2.18212 1.89788 1.79 2.29C1.39788 2.68212 1.39788 3.31788 1.79 3.71L3.18 5.1C2.74073 5.63581 2.50046 6.30715 2.5 7V17C2.5 18.6569 3.84315 20 5.5 20H18.09L19.79 21.71C19.9778 21.8993 20.2334 22.0058 20.5 22.0058C20.7666 22.0058 21.0222 21.8993 21.21 21.71C21.3993 21.5222 21.5058 21.2666 21.5058 21C21.5058 20.7334 21.3993 20.4778 21.21 20.29L3.21 2.29ZM4.49999 7C4.50244 6.83925 4.5436 6.68146 4.61999 6.54L7.33999 9.25C6.96818 9.39161 6.62825 9.60577 6.33999 9.88L4.49999 11.76V7ZM5.49999 18C4.94771 18 4.49999 17.5523 4.49999 17V14.58L7.8 11.29C8.18884 10.9089 8.81115 10.9089 9.2 11.29L15.91 18H5.49999Z" fill="#171E2B"/>
</svg>
