<svg width="24" height="24" viewBox="0 0 24 24" fill="none" xmlns="http://www.w3.org/2000/svg">
<path fill-rule="evenodd" clip-rule="evenodd" d="M19 12.9999C18.4477 12.9999 18 13.4477 18 13.9999V14.3799L16.52 12.8999C15.4323 11.8208 13.6777 11.8208 12.59 12.8999L11.89 13.5999L9.41 11.1199C8.30945 10.0723 6.58055 10.0723 5.48 11.1199L4 12.5999V6.99994C4 6.44765 4.44772 5.99994 5 5.99994H12C12.5523 5.99994 13 5.55222 13 4.99994C13 4.44765 12.5523 3.99994 12 3.99994H5C3.34315 3.99994 2 5.34308 2 6.99994V18.9999C2 20.6568 3.34315 21.9999 5 21.9999H17C18.6569 21.9999 20 20.6568 20 18.9999V13.9999C20 13.4477 19.5523 12.9999 19 12.9999ZM5.00001 19.9999C4.44773 19.9999 4.00002 19.5522 4.00002 18.9999V15.4299L6.90001 12.5299C7.20516 12.2391 7.68487 12.2391 7.99001 12.5299L11.16 15.6999L15.46 19.9999H5.00001ZM18 19C17.9986 19.1914 17.9354 19.3773 17.82 19.53L13.31 15L14.01 14.3C14.1548 14.1522 14.3531 14.0689 14.56 14.0689C14.7669 14.0689 14.9652 14.1522 15.11 14.3L18 17.21V19ZM22.71 4.28996L19.71 1.28996C19.6149 1.19892 19.5027 1.12755 19.38 1.07996C19.1365 0.979939 18.8634 0.979939 18.62 1.07996C18.4972 1.12755 18.3851 1.19892 18.29 1.28996L15.29 4.28996C15.0363 4.54362 14.9373 4.91333 15.0301 5.25984C15.123 5.60634 15.3936 5.87699 15.7401 5.96984C16.0866 6.06268 16.4563 5.96362 16.71 5.70996L18 4.40996V9.99996C18 10.5522 18.4477 11 19 11C19.5523 11 20 10.5522 20 9.99996V4.40996L21.29 5.70996C21.4778 5.89927 21.7334 6.00576 22 6.00576C22.2666 6.00576 22.5222 5.89927 22.71 5.70996C22.8993 5.52219 23.0058 5.26659 23.0058 4.99996C23.0058 4.73332 22.8993 4.47772 22.71 4.28996Z" fill="#171E2B"/>
</svg>
