<svg width="24" height="24" viewBox="0 0 24 24" fill="none" xmlns="http://www.w3.org/2000/svg">
<path fill-rule="evenodd" clip-rule="evenodd" d="M22.71 6.28998C22.5222 6.10067 22.2666 5.99419 22 5.99419C21.7334 5.99419 21.4778 6.10067 21.29 6.28998L20 7.58998V1.99998C20 1.4477 19.5523 0.999985 19 0.999985C18.4477 0.999985 18 1.4477 18 1.99998V7.58998L16.71 6.28998C16.3179 5.89786 15.6821 5.89786 15.29 6.28998C14.8979 6.68211 14.8979 7.31786 15.29 7.70998L18.29 10.71C18.3851 10.801 18.4972 10.8724 18.62 10.92C18.862 11.027 19.138 11.027 19.38 10.92C19.5028 10.8724 19.6149 10.801 19.71 10.71L22.71 7.70998C22.8993 7.52222 23.0058 7.26662 23.0058 6.99998C23.0058 6.73335 22.8993 6.47775 22.71 6.28998ZM19 13C18.4477 13 18 13.4477 18 14V14.38L16.52 12.9C15.4323 11.8208 13.6778 11.8208 12.59 12.9L11.89 13.6L9.41 11.12C8.30945 10.0724 6.58055 10.0724 5.48 11.12L4 12.6V6.99998C4 6.4477 4.44772 5.99998 5 5.99998H13C13.5523 5.99998 14 5.55227 14 4.99998C14 4.4477 13.5523 3.99998 13 3.99998H5C3.34315 3.99998 2 5.34313 2 6.99998V19C2 20.6568 3.34315 22 5 22H17C18.6569 22 20 20.6568 20 19V14C20 13.4477 19.5523 13 19 13ZM5 20C4.44772 20 4 19.5523 4 19V15.43L6.9 12.53C7.20515 12.2392 7.68485 12.2392 7.99 12.53L11.16 15.7L15.46 20H5ZM18 19C17.9986 19.1914 17.9354 19.3773 17.82 19.53L13.31 15L14.01 14.3C14.1548 14.1522 14.3531 14.0689 14.56 14.0689C14.7669 14.0689 14.9652 14.1522 15.11 14.3L18 17.21V19Z" fill="#171E2B"/>
</svg>
