<svg width="24" height="24" viewBox="0 0 24 24" fill="none" xmlns="http://www.w3.org/2000/svg">
<path fill-rule="evenodd" clip-rule="evenodd" d="M19 11.48C18.4477 11.48 18 11.9277 18 12.48V14.87L16.5 13.39C15.4049 12.3386 13.6751 12.3386 12.58 13.39L11.88 14.09L9.39 11.6C8.30567 10.522 6.55433 10.522 5.47 11.6L4 13.09V7.48003C4 6.92775 4.44772 6.48003 5 6.48003H11C11.5523 6.48003 12 6.03232 12 5.48003C12 4.92775 11.5523 4.48003 11 4.48003H5C3.34315 4.48003 2 5.82318 2 7.48003V19.48C2 21.1369 3.34315 22.48 5 22.48H17C18.6569 22.48 20 21.1369 20 19.48V12.48C20 11.9277 19.5523 11.48 19 11.48ZM4.99999 20.48C4.44771 20.48 3.99999 20.0323 3.99999 19.48V15.92L6.87999 13C7.0269 12.8485 7.22894 12.763 7.43999 12.763C7.65104 12.763 7.85308 12.8485 7.99999 13L11.17 16.17L15.43 20.43L4.99999 20.48ZM18 19.48C17.9965 19.6726 17.9375 19.8602 17.83 20.02L13.29 15.5L13.99 14.81C14.2943 14.5075 14.7858 14.5075 15.09 14.81L18 17.7V19.48ZM21.72 4.23001L19.3 1.81001C18.91 1.42229 18.28 1.42229 17.89 1.81001L13.31 6.39001C13.1155 6.57541 13.0037 6.83131 13 7.10001V9.52001C13 10.0723 13.4477 10.52 14 10.52H16.42C16.6823 10.5189 16.9337 10.4148 17.12 10.23L21.7 5.65001C21.892 5.46492 22.0021 5.21082 22.0058 4.94418C22.0096 4.67753 21.9067 4.42043 21.72 4.23001ZM16 8.52H15V7.52L18.6 3.93L19.6 4.93L16 8.52Z" fill="#171E2B"/>
</svg>
