<svg width="24" height="24" viewBox="0 0 24 24" fill="none" xmlns="http://www.w3.org/2000/svg">
<path fill-rule="evenodd" clip-rule="evenodd" d="M22.13 2.36003C21.8947 2.16969 21.5858 2.09615 21.29 2.16003C20.5232 2.33088 19.72 2.1593 19.09 1.69003C18.7386 1.43324 18.2614 1.43324 17.91 1.69003C17.28 2.1593 16.4768 2.33088 15.71 2.16003C15.4142 2.09615 15.1053 2.16969 14.87 2.36003C14.635 2.55066 14.499 2.83744 14.5 3.14003V6.45003C14.4984 7.90385 15.1798 9.27398 16.34 10.15L17.91 11.31C18.2614 11.5668 18.7386 11.5668 19.09 11.31L20.66 10.15C21.8202 9.27398 22.5016 7.90385 22.5 6.45003V3.14003C22.501 2.83744 22.365 2.55066 22.13 2.36003ZM20.5 6.45006C20.5096 7.26427 20.14 8.03664 19.5 8.54006L18.5 9.26006L17.5 8.54006C16.86 8.03664 16.4905 7.26427 16.5 6.45006V4.22006C17.198 4.18747 17.8805 4.00319 18.5 3.68006C19.1195 4.00319 19.802 4.18747 20.5 4.22006V6.45006ZM18.5 13.5C17.9477 13.5 17.5 13.9477 17.5 14.5V14.89L16 13.41C15.48 12.8866 14.7727 12.5924 14.035 12.5924C13.2973 12.5924 12.59 12.8866 12.07 13.41L11.37 14.11L8.91 11.62C7.80945 10.5724 6.08055 10.5724 4.98 11.62L3.5 13.1V7.5C3.5 6.94771 3.94772 6.5 4.5 6.5H11.5C12.0523 6.5 12.5 6.05228 12.5 5.5C12.5 4.94771 12.0523 4.5 11.5 4.5H4.5C2.84315 4.5 1.5 5.84314 1.5 7.5V19.5C1.5 21.1569 2.84315 22.5 4.5 22.5H16.5C18.1569 22.5 19.5 21.1569 19.5 19.5V14.5C19.5 13.9477 19.0523 13.5 18.5 13.5ZM4.49999 20.5C3.94771 20.5 3.49999 20.0523 3.49999 19.5V15.93L6.39999 13C6.70514 12.7092 7.18484 12.7092 7.48999 13L10.66 16.17L15 20.5H4.49999ZM17.5 19.5C17.4917 19.6902 17.4292 19.8741 17.32 20.0301L12.81 15.5201L13.51 14.8201C13.8143 14.5175 14.3057 14.5175 14.61 14.8201L17.5 17.7201V19.5Z" fill="#171E2B"/>
</svg>
