<svg width="24" height="24" viewBox="0 0 24 24" fill="none" xmlns="http://www.w3.org/2000/svg">
<path fill-rule="evenodd" clip-rule="evenodd" d="M20.54 2.46001C18.8556 0.771345 16.213 0.507525 14.2279 1.82987C12.2429 3.15221 11.4683 5.6925 12.3777 7.89746C13.2871 10.1024 15.6273 11.3581 17.9673 10.8966C20.3074 10.4352 21.9957 8.38513 22 6.00001C22.0024 4.67302 21.4771 3.39952 20.54 2.46001ZM14 6C14 4.34315 15.3432 3 17 3C17.447 3.00265 17.8877 3.10515 18.29 3.3L14.29 7.3C14.0971 6.89387 13.998 6.44959 14 6ZM19.12 8.12003C18.2091 8.98591 16.8635 9.2115 15.72 8.69003L19.72 4.69003C19.9109 5.10001 20.0066 5.54784 20 6.00003C19.9993 6.79541 19.6828 7.55796 19.12 8.12003ZM19 13C18.4477 13 18 13.4477 18 14V14.39L16.52 12.9C15.4155 11.8624 13.6945 11.8624 12.59 12.9L11.89 13.61L9.41 11.12C8.30545 10.0824 6.58455 10.0824 5.48 11.12L4 12.61V7.00003C4 6.44775 4.44772 6.00003 5 6.00003H9C9.55228 6.00003 10 5.55232 10 5.00003C10 4.44775 9.55228 4.00003 9 4.00003H5C3.34315 4.00003 2 5.34318 2 7.00003V19C2 20.6569 3.34315 22 5 22H17C17.3238 21.995 17.6446 21.9376 17.95 21.83H18.04C19.085 21.4571 19.8389 20.5379 20 19.44C20.0056 19.3668 20.0056 19.2933 20 19.22V14C20 13.4477 19.5523 13 19 13ZM5.00001 20C4.44773 20 4.00002 19.5523 4.00002 19V15.43L6.90001 12.54C7.20516 12.2492 7.68487 12.2492 7.99001 12.54L11.18 15.72L15.46 20H5.00001ZM18 19C17.9936 19.1937 17.931 19.3813 17.82 19.54L13.3 15L14.01 14.3C14.3151 14.0092 14.7948 14.0092 15.1 14.3L18 17.21V19Z" fill="#171E2B"/>
</svg>
