<svg width="24" height="24" viewBox="0 0 24 24" fill="none" xmlns="http://www.w3.org/2000/svg">
<path fill-rule="evenodd" clip-rule="evenodd" d="M19 3.99998H5.00002C3.34316 3.99998 2.00002 5.34313 2.00002 6.99998V17C2.00002 18.6568 3.34316 20 5.00002 20H19C20.6569 20 22 18.6568 22 17V6.99998C22 5.34313 20.6569 3.99998 19 3.99998ZM5.00003 18C4.44775 18 4.00003 17.5523 4.00003 17V14.58L7.30003 11.29C7.68887 10.9089 8.31119 10.9089 8.70003 11.29L15.41 18H5.00003ZM20 17C20 17.5523 19.5523 18 19 18H18.23L14.42 14.17L15.3 13.29C15.6889 12.9088 16.3112 12.9088 16.7 13.29L20 16.58V17ZM20 13.76L18.12 11.89C16.9357 10.7522 15.0644 10.7522 13.88 11.89L13 12.77L10.12 9.89C8.9357 8.75217 7.06435 8.75217 5.88003 9.89L4.00003 11.76V7C4.00003 6.44772 4.44775 6 5.00003 6H19C19.5523 6 20 6.44772 20 7V13.76Z" fill="#171E2B"/>
</svg>
