<svg width="24" height="24" viewBox="0 0 24 24" fill="none" xmlns="http://www.w3.org/2000/svg">
<path fill-rule="evenodd" clip-rule="evenodd" d="M20 5.17998V3.99998C20 2.34313 18.6569 0.999985 17 0.999985C15.3432 0.999985 14 2.34313 14 3.99998V5.17998C12.8043 5.60273 12.0036 6.73173 12 7.99998V9.99998C12 11.6568 13.3432 13 15 13H19C20.6569 13 22 11.6568 22 9.99998V7.99998C21.9964 6.73173 21.1957 5.60273 20 5.17998ZM16 4C16 3.44772 16.4477 3 17 3C17.5523 3 18 3.44772 18 4V5H16V4ZM20 9.99999C20 10.5523 19.5523 11 19 11H15C14.4477 11 14 10.5523 14 9.99999V7.99999C14 7.4477 14.4477 6.99998 15 6.99998H19C19.5523 6.99998 20 7.4477 20 7.99999V9.99999ZM19 15C18.4477 15 18 15.4477 18 16V19C17.9986 19.1914 17.9354 19.3773 17.82 19.53L9.41 11.12C8.30744 10.0774 6.58256 10.0774 5.48 11.12L4 12.6V6.99998C4 6.4477 4.44772 5.99998 5 5.99998H10C10.5523 5.99998 11 5.55227 11 4.99998C11 4.4477 10.5523 3.99998 10 3.99998H5C3.34315 3.99998 2 5.34313 2 6.99998V19C2 20.6568 3.34315 22 5 22H17C18.6569 22 20 20.6568 20 19V16C20 15.4477 19.5523 15 19 15ZM4.99999 20C4.44771 20 3.99999 19.5523 3.99999 19V15.43L6.89999 12.53C7.20514 12.2392 7.68484 12.2392 7.98999 12.53L15.46 20H4.99999Z" fill="#171E2B"/>
</svg>
