<svg width="24" height="24" viewBox="0 0 24 24" fill="none" xmlns="http://www.w3.org/2000/svg">
<path fill-rule="evenodd" clip-rule="evenodd" d="M19 10C18.4477 10 18 10.4477 18 11V14.39L16.52 12.91C16 12.3867 15.2927 12.0924 14.555 12.0924C13.8173 12.0924 13.11 12.3867 12.59 12.91L11.89 13.61L9.41 11.12C8.32225 10.0409 6.56775 10.0409 5.48 11.12L4 12.6V7.00003C4 6.44775 4.44772 6.00003 5 6.00003H13C13.5523 6.00003 14 5.55232 14 5.00003C14 4.44775 13.5523 4.00003 13 4.00003H5C3.34315 4.00003 2 5.34318 2 7.00003V19C2 20.6569 3.34315 22 5 22H17C18.6569 22 20 20.6569 20 19V11C20 10.4477 19.5523 10 19 10ZM5.00001 20C4.44773 20 4.00002 19.5523 4.00002 19V15.43L6.90001 12.53C7.20516 12.2392 7.68486 12.2392 7.99001 12.53L11.16 15.7L15.45 20H5.00001ZM18 19C17.9986 19.1915 17.9354 19.3773 17.82 19.53L13.31 15L14.01 14.3C14.3143 13.9975 14.8057 13.9975 15.11 14.3L18 17.22V19ZM20.41 5.00001L21.71 3.71001C22.0977 3.31997 22.0977 2.69005 21.71 2.30001C21.5222 2.1107 21.2666 2.00421 21 2.00421C20.7334 2.00421 20.4778 2.1107 20.29 2.30001L19 3.59001L17.71 2.30001C17.5222 2.1107 17.2666 2.00421 17 2.00421C16.7334 2.00421 16.4778 2.1107 16.29 2.30001C15.9023 2.69005 15.9023 3.31997 16.29 3.71001L17.59 5.00001L16.29 6.30001C15.9023 6.69005 15.9023 7.31997 16.29 7.71001C16.4778 7.89932 16.7334 8.00581 17 8.00581C17.2666 8.00581 17.5222 7.89932 17.71 7.71001L19 6.42001L20.29 7.71001C20.4778 7.89932 20.7334 8.00581 21 8.00581C21.2666 8.00581 21.5222 7.89932 21.71 7.71001C22.0977 7.31997 22.0977 6.69005 21.71 6.30001L20.41 5.00001Z" fill="#171E2B"/>
</svg>
