<svg width="24" height="24" viewBox="0 0 24 24" fill="none" xmlns="http://www.w3.org/2000/svg">
<path fill-rule="evenodd" clip-rule="evenodd" d="M15.55 8.99999C15.6745 9.0474 15.8068 9.07114 15.94 9.06999H19.94C20.4923 9.06999 20.94 8.62228 20.94 8.06999C20.94 7.51771 20.4923 7.06999 19.94 7.06999H18.35L21.64 3.77999C21.9254 3.5356 22.0497 3.15187 21.9618 2.78657C21.8739 2.42127 21.5887 2.13605 21.2234 2.04818C20.8581 1.96031 20.4744 2.08462 20.23 2.36999L16.94 5.64999V4.05999C16.94 3.50771 16.4923 3.05999 15.94 3.05999C15.3877 3.05999 14.94 3.50771 14.94 4.05999V8.05999C14.9389 8.19322 14.9626 8.32548 15.01 8.44999C15.1093 8.69812 15.3037 8.89618 15.55 8.99999ZM19.44 13C19.22 13 18.99 12.93 18.77 12.88C18.3245 12.7818 17.8867 12.6515 17.46 12.49C16.4992 12.1405 15.4296 12.5718 14.98 13.49L14.76 13.94C13.786 13.3982 12.891 12.7252 12.1 11.94C11.3148 11.149 10.6418 10.254 10.1 9.28001L10.52 9.00001C11.4382 8.55044 11.8695 7.48076 11.52 6.52001C11.3612 6.09243 11.2309 5.65481 11.13 5.21001C11.08 4.99001 11.04 4.76001 11.01 4.53001C10.7591 3.07478 9.48654 2.01854 8.01 2.04001H5.01C4.13794 2.03182 3.30548 2.40352 2.72943 3.05829C2.15338 3.71307 1.89077 4.5861 2.01 5.45001C3.10593 14.0683 9.90781 20.8454 18.53 21.91H18.91C19.6474 21.9111 20.3594 21.6405 20.91 21.15C21.5499 20.5777 21.914 19.7586 21.91 18.9V15.9C21.8847 14.4676 20.8502 13.2529 19.44 13ZM19.94 19C19.9396 19.2872 19.8158 19.5604 19.6 19.75C19.3741 19.9451 19.0763 20.0358 18.78 20C11.076 19.0122 5.02121 12.9286 4.06999 5.21999C4.03783 4.92398 4.12816 4.6277 4.31999 4.39999C4.50956 4.1842 4.78277 4.06035 5.06999 4.05999H8.06999C8.54968 4.04931 8.96935 4.38085 9.06999 4.84999C9.10999 5.12332 9.15999 5.39332 9.21999 5.65999C9.33551 6.18713 9.48925 6.70517 9.67999 7.20999L8.27999 7.85999C8.03823 7.97091 7.85062 8.17359 7.75866 8.42318C7.66671 8.67278 7.67798 8.94873 7.78999 9.18999C9.22919 12.2727 11.7072 14.7508 14.79 16.19C15.0335 16.29 15.3065 16.29 15.55 16.19C15.8019 16.0999 16.0072 15.9126 16.12 15.67L16.74 14.27C17.257 14.4549 17.7846 14.6085 18.32 14.73C18.5867 14.79 18.8567 14.84 19.13 14.88C19.5991 14.9806 19.9307 15.4003 19.92 15.88L19.94 19Z" fill="#171E2B"/>
</svg>
