<svg width="90" height="90" viewBox="0 0 90 90" fill="none" xmlns="http://www.w3.org/2000/svg">
<path d="M42 62.5455V48.2955L47.8333 47L49 61.6818L44.7222 66L42 62.5455Z" fill="#F3CCD4"/>
<circle cx="44.5" cy="27.5" r="11.5" fill="#F3CCD4"/>
<path d="M45.0047 15C38.2134 15 32.6873 20.61 32.6873 27.505C32.6873 34.3998 38.2131 40.01 45.0047 40.01C51.796 40.01 57.3221 34.3975 57.3221 27.505C57.3221 20.6103 51.7938 15 45.0047 15ZM45.0047 17C50.73 17 55.3521 21.69 55.3521 27.505C55.3521 33.3175 50.73 38.01 45.0047 38.01C39.2794 38.01 34.6573 33.3175 34.6573 27.505C34.6573 21.6925 39.2769 17 45.0047 17ZM45.0047 41.4424C32.8348 41.4424 23.0025 51.4174 23.0025 63.7727V72.0025H23C23.0025 72.2675 23.1059 72.5225 23.2906 72.71C23.4777 72.8975 23.7289 73 23.9899 73H66.0175C66.5592 72.9975 66.9975 72.5525 67 72.0025V63.7727C67 51.4174 57.1746 41.4424 45.0047 41.4424L45.0047 41.4424ZM45.0047 43.4424C46.6866 43.4424 48.3192 43.6524 49.878 44.0449L48.531 47.4074H41.8727V47.4049C41.8062 47.3974 41.7398 47.3949 41.6733 47.3974C41.6511 47.3999 41.6289 47.4024 41.6092 47.4049H41.4713L40.1268 44.0424C41.6881 43.6499 43.3207 43.4399 45.0051 43.4399L45.0047 43.4424ZM51.767 44.6424C59.5165 47.4424 65.03 54.9074 65.03 63.7727V71.0002H58.0584V62.3704H58.0559C58.0609 62.0979 57.9574 61.8354 57.7678 61.6429C57.5782 61.4504 57.3196 61.3454 57.0537 61.3504C56.7902 61.3554 56.5415 61.4654 56.3592 61.6554C56.1795 61.8479 56.0785 62.1029 56.0859 62.3705V71.0003L33.9236 70.9978V62.368V62.3705C33.9285 62.098 33.8251 61.8355 33.6355 61.643C33.4458 61.4505 33.1873 61.3455 32.9213 61.3505C32.6578 61.3555 32.4091 61.4655 32.2269 61.6555C32.0471 61.848 31.9462 62.103 31.9535 62.3705V71.0003H24.975V63.7727C24.975 54.91 30.491 47.4475 38.2405 44.645L39.8953 48.7875H39.8929C40.0283 49.125 40.3361 49.36 40.6956 49.4L39.9668 63.2401H39.9643C39.9471 63.5401 40.0653 63.8351 40.2844 64.0376L44.3426 67.7801C44.7169 68.1251 45.2907 68.1251 45.665 67.7801L49.7158 64.0376C49.935 63.8351 50.0532 63.5426 50.036 63.2401L49.3095 49.4H49.312C49.6666 49.3575 49.9744 49.125 50.1098 48.7875L51.767 44.6424ZM42.6703 49.4049H47.3367L48.0435 62.8776L45.0048 65.6901L41.9587 62.8776L42.6703 49.4049Z" fill="#C1002A"/>
<path d="M42 49L40 44L43.6 42L50 43L48.4 49H42Z" fill="#C1002A"/>
<path d="M47 70C47 71.6569 45.8807 73 44.5 73C43.1193 73 42 71.6569 42 70C42 68.3431 43.1193 67 44.5 67C45.8807 67 47 68.3431 47 70Z" fill="white"/>
<path d="M17.0366 59.6161C16.6964 56.9499 18.7739 54.5905 21.4617 54.5905H67.5383C70.2261 54.5905 72.3036 56.9499 71.9634 59.6161L68.848 84.0335H20.152L17.0366 59.6161Z" fill="#F3CCD4"/>
<path fill-rule="evenodd" clip-rule="evenodd" d="M67.5383 56.3749H21.4617C19.849 56.3749 18.6025 57.7905 18.8066 59.3903L21.7232 82.249H67.2768L70.1934 59.3903C70.3975 57.7905 69.151 56.3749 67.5383 56.3749ZM68.848 84.0335L71.9635 59.6161C72.3036 56.9499 70.2262 54.5905 67.5383 54.5905H21.4617C18.7739 54.5905 16.6964 56.9499 17.0366 59.6161L20.152 84.0335H68.848Z" fill="#C1002A"/>
<path fill-rule="evenodd" clip-rule="evenodd" d="M44.946 70.6503C45.4388 70.6503 45.8383 70.2508 45.8383 69.7581C45.8383 69.2653 45.4388 68.8658 44.946 68.8658C44.4533 68.8658 44.0538 69.2653 44.0538 69.7581C44.0538 70.2508 44.4533 70.6503 44.946 70.6503ZM44.946 72.4347C46.4243 72.4347 47.6227 71.2363 47.6227 69.7581C47.6227 68.2798 46.4243 67.0814 44.946 67.0814C43.4678 67.0814 42.2694 68.2798 42.2694 69.7581C42.2694 71.2363 43.4678 72.4347 44.946 72.4347Z" fill="#C1002A"/>
<path fill-rule="evenodd" clip-rule="evenodd" d="M19.9641 85.8179C19.9641 85.3251 20.3636 84.9257 20.8563 84.9257H68.1436C68.6363 84.9257 69.0358 85.3251 69.0358 85.8179C69.0358 86.3106 68.6363 86.7101 68.1436 86.7101H20.8563C20.3636 86.7101 19.9641 86.3106 19.9641 85.8179Z" fill="#C1002A"/>
<path d="M81 85V25.5784C81 25.2206 80.8088 24.89 80.4987 24.7116L44.9987 4.28692C44.69 4.10929 44.31 4.10929 44.0013 4.28692L8.50131 24.7116C8.19117 24.89 8 25.2206 8 25.5784V85" stroke="#C1002A" stroke-width="2" stroke-linecap="round"/>
</svg>
