<svg width="24" height="24" viewBox="0 0 24 24" fill="none" xmlns="http://www.w3.org/2000/svg">
<path fill-rule="evenodd" clip-rule="evenodd" d="M12 11C11.4477 11 11 11.4477 11 12V16C11 16.5523 11.4477 17 12 17C12.5523 17 13 16.5523 13 16V12C13 11.4477 12.5523 11 12 11ZM12.38 7.07996C12.1365 6.97994 11.8635 6.97994 11.62 7.07996C11.4972 7.12755 11.3851 7.19892 11.29 7.28996C11.2017 7.38716 11.1306 7.49877 11.08 7.61996C11.024 7.73864 10.9966 7.86878 11 7.99996C10.9985 8.26576 11.1028 8.52124 11.29 8.70996C11.3872 8.79829 11.4988 8.86932 11.62 8.91996C11.9276 9.04635 12.278 9.01152 12.5547 8.82703C12.8314 8.64254 12.9983 8.33254 13 7.99996C12.9963 7.73519 12.8927 7.48159 12.71 7.28996C12.6149 7.19892 12.5028 7.12755 12.38 7.07996ZM12 1.99997C6.47715 1.99997 2 6.47712 2 12C2 17.5228 6.47715 22 12 22C17.5228 22 22 17.5228 22 12C22 9.3478 20.9464 6.80427 19.0711 4.9289C17.1957 3.05354 14.6522 1.99997 12 1.99997ZM12 19.9999C7.58171 19.9999 3.99999 16.4182 3.99999 11.9999C3.99999 7.58166 7.58171 3.99994 12 3.99994C16.4183 3.99994 20 7.58166 20 11.9999C20 14.1217 19.1571 16.1565 17.6568 17.6568C16.1566 19.1571 14.1217 19.9999 12 19.9999Z" fill="#171E2B"/>
</svg>
