<svg width="90" height="90" viewBox="0 0 90 90" fill="none" xmlns="http://www.w3.org/2000/svg">
<path d="M57.7273 25.2222L50 33.2222L52.2727 35L59.5455 39L65 33.2222H68.6364L74.5455 32.7778L78.1818 30.1111L80 19.4444L79.0909 19L71.3636 26.1111L65 19.8889L71.3636 14.1111L72.2727 11L62.7273 11.8889L58.6364 14.1111L56.8182 19L57.7273 25.2222Z" fill="#F3CCD4"/>
<path d="M25.182 33.1346L33.4582 40.5702L35.1992 38.2793L39.0633 30.991L33.0891 25.7456L32.9996 22.1518L32.405 16.323L29.6202 12.7963L18.794 11.2678L18.3671 12.1775L25.7449 19.6354L19.6123 26.0812L13.6157 19.9374L10.4488 19.1172L11.5821 28.5286L13.9289 32.5158L18.9152 34.1896L25.182 33.1346Z" fill="#F3CCD4"/>
<path d="M12.2581 71.8571L10 75.7143L12.2581 79.1429L76.8387 80L80 76.5714L79.0968 73.5714L75.0323 71L17.6774 71.8571H12.2581Z" fill="#F3CCD4"/>
<path d="M76.4938 69.8938V65.2943C76.4825 54.3926 70.8135 44.277 61.5117 38.5555L65.665 34.4131C70.7266 35.2882 74.3655 34.7412 76.767 32.7303C79.5312 30.4222 80.6757 26.4256 80.5913 19.3078V19.3049C80.6222 18.5702 80.1751 17.8999 79.4862 17.639C78.0239 17.1286 76.2973 18.6374 72.1751 23.1641C71.7589 23.6212 71.2808 24.1429 70.9097 24.5327L66.028 19.6639C66.4105 19.2993 66.9279 18.8338 67.3778 18.4299C71.9389 14.2875 73.4686 12.557 72.9456 11.0986C72.6672 10.3947 71.9642 9.95151 71.2078 10.0049C64.1215 9.91511 60.1116 11.065 57.8029 13.8191C55.7923 16.2142 55.2356 19.8406 56.1186 24.8917L49.4541 31.5386C46.5014 31.1123 43.4983 31.1123 40.5456 31.5386L33.8811 24.8917C34.7613 19.8435 34.2101 16.2143 32.1996 13.8162C29.8881 11.0649 25.8894 9.91504 18.7465 10.0076C18.007 9.96832 17.3264 10.4086 17.0593 11.0957C16.5362 12.5541 18.0659 14.2874 22.6271 18.427C23.077 18.8337 23.5888 19.2992 23.9712 19.6611L19.0924 24.5327C18.7212 24.1428 18.246 23.6212 17.827 23.1641C13.7017 18.6374 11.978 17.1286 10.5159 17.639C9.81011 17.9139 9.36297 18.6122 9.41077 19.3666C9.32641 26.4342 10.4709 30.4278 13.2351 32.7361C15.6394 34.7414 19.2781 35.2938 24.3371 34.4188L28.4904 38.5612C19.1881 44.2826 13.5191 54.3962 13.5054 65.2943V69.8938C10.6737 70.466 8.73905 73.0883 9.02866 75.9546C9.31829 78.8209 11.7394 81.0028 14.6302 81H75.3698C78.2606 81.0028 80.6817 78.8208 80.9713 75.9546C81.261 73.0883 79.3263 70.466 76.4946 69.8938L76.4938 69.8938ZM74.2442 65.2943V69.7817H53.0639L57.8669 39.1162C62.7738 41.5198 66.91 45.2443 69.8039 49.8715C72.7002 54.4991 74.2356 59.842 74.2441 65.2936L74.2442 65.2943ZM58.1254 26.0634C58.3897 25.7998 58.505 25.424 58.4347 25.0594C57.5405 20.4037 57.8976 17.1983 59.5229 15.2576C61.2495 13.199 64.6099 12.2622 70.3967 12.251C68.9879 13.8581 67.4722 15.3669 65.8553 16.7693C63.7266 18.7016 63.3441 19.0494 63.3638 19.7477C63.3723 20.0338 63.4876 20.3086 63.6929 20.5106L70.0564 26.8545V26.8573C70.2673 27.0677 70.5542 27.1855 70.8523 27.1855C71.544 27.1855 71.8927 26.8041 73.8358 24.6754H73.833C75.2305 23.0683 76.7378 21.5623 78.3434 20.1656C78.3322 25.9262 77.393 29.2889 75.3233 31.0164C73.3774 32.6402 70.1632 32.9936 65.4984 32.1046V32.1017C65.1301 32.0316 64.7504 32.1466 64.4862 32.4103L59.4752 37.408C59.0646 37.1949 58.6484 36.9901 58.2266 36.7966L58.4797 35.1784C58.5556 34.682 58.2913 34.194 57.8329 33.9836C55.9967 33.1563 54.0845 32.5084 52.1217 32.0484L58.1254 26.0634ZM56.1261 35.6857L50.786 69.781H39.2118L33.8718 35.6857C40.989 32.7073 49.0086 32.7073 56.1261 35.6857ZM25.509 32.41C25.2446 32.1435 24.865 32.0285 24.4967 32.1014C19.8343 32.9933 16.6226 32.6371 14.6718 31.0133C12.6049 29.2828 11.6657 25.9314 11.6601 20.1683C13.263 21.5649 14.7646 23.071 16.1593 24.6724C18.0996 26.8039 18.4483 27.1825 19.1429 27.1825V27.1853C19.4409 27.1853 19.7278 27.0647 19.9387 26.8544L26.3051 20.5104C26.5104 20.3085 26.6257 20.0336 26.6341 19.7476C26.651 19.0492 26.2686 18.7015 24.1427 16.7691C22.5258 15.3668 21.0073 13.8551 19.5957 12.2453C25.3716 12.2565 28.746 13.196 30.4723 15.2574C32.0977 17.1982 32.4548 20.4011 31.5606 25.0592H31.5634C31.4931 25.4238 31.6084 25.7996 31.8727 26.0632L37.8735 32.0482C35.9107 32.5054 33.9958 33.1561 32.1595 33.9834C31.7011 34.1909 31.4368 34.6789 31.5155 35.1782L31.7686 36.7964C31.3468 36.9927 30.9306 37.1947 30.5201 37.4078L25.509 32.41ZM15.7539 65.294C15.7623 59.8418 17.2977 54.4992 20.1941 49.8719C23.0876 45.2443 27.2241 41.5196 32.1311 39.1166L36.9341 69.7821H15.7538L15.7539 65.294ZM75.3684 78.756H14.6287C12.7644 78.756 11.2543 77.2499 11.2543 75.3905C11.2543 73.5311 12.7644 72.025 14.6287 72.025H75.3684C77.2327 72.025 78.7428 73.5311 78.7428 75.3905C78.7428 77.2499 77.2327 78.756 75.3684 78.756Z" fill="#C1002A"/>
<path d="M38.4231 70L32.5 35.1294L37.0962 33.3412L45.5 32L57 35.1294L52.1346 70H38.4231Z" fill="#C1002A"/>
</svg>
