<svg width="24" height="24" viewBox="0 0 24 24" fill="none" xmlns="http://www.w3.org/2000/svg">
<path fill-rule="evenodd" clip-rule="evenodd" d="M12 6.99994C9.23858 6.99994 7 9.23852 7 11.9999C7 14.7614 9.23858 16.9999 12 16.9999C14.7614 16.9999 17 14.7614 17 11.9999C17 10.6739 16.4732 9.40209 15.5355 8.46441C14.5979 7.52672 13.3261 6.99994 12 6.99994ZM12 15C10.3431 15 9 13.6569 9 12C9 10.3431 10.3431 9 12 9C13.6569 9 15 10.3431 15 12C15 12.7956 14.6839 13.5587 14.1213 14.1213C13.5587 14.6839 12.7957 15 12 15ZM17 6C16.4477 6 16 6.44771 16 7C16 7.55228 16.4477 8 17 8C17.5523 8 18 7.55228 18 7C18 6.44771 17.5523 6 17 6ZM21.94 8.23997C21.9234 7.38539 21.7611 6.53992 21.46 5.73997C20.8953 4.26782 19.7322 3.10465 18.26 2.53997C17.4601 2.23887 16.6146 2.07654 15.76 2.05997C14.79 1.99997 14.47 1.99997 12 1.99997C9.53 1.99997 9.21 1.99997 8.24 2.05997C7.38542 2.07654 6.53995 2.23887 5.74 2.53997C4.26785 3.10465 3.10468 4.26782 2.54 5.73997C2.2389 6.53992 2.07657 7.38539 2.06 8.23997C2 9.21997 2 9.53997 2 12C2 14.46 2 14.78 2.06 15.76C2.07657 16.6145 2.2389 17.46 2.54 18.26C3.10468 19.7321 4.26785 20.8953 5.74 21.46C6.53995 21.7611 7.38542 21.9234 8.24 21.94C9.24 21.94 9.53 22 12 22C14.47 22 14.79 22 15.76 21.94C16.6146 21.9234 17.4601 21.7611 18.26 21.46C19.7322 20.8953 20.8953 19.7321 21.46 18.26C21.7611 17.46 21.9234 16.6145 21.94 15.76C21.94 14.76 22 14.46 22 12C22 9.53997 22 9.21997 21.94 8.23997ZM19.94 15.6699C19.9225 16.3046 19.8043 16.9324 19.59 17.5299C19.4128 18.0023 19.1327 18.4293 18.77 18.7799C18.4214 19.1428 17.9936 19.42 17.52 19.5899C16.921 19.813 16.289 19.9347 15.65 19.9499C14.71 19.9499 14.42 19.9999 11.99 19.9999C9.56 19.9999 9.28 19.9999 8.34 19.9999C7.70202 19.9835 7.07075 19.8653 6.47 19.6499C5.99765 19.4727 5.57067 19.1926 5.22 18.8299C4.85715 18.4814 4.57992 18.0535 4.41 17.5799C4.1878 16.9842 4.06614 16.3556 4.05 15.7199C4.05 14.7199 4.05 14.4699 4.05 12.0499C4.05 9.62994 4.05 9.33994 4.05 8.37994C4.06723 7.74115 4.18884 7.10947 4.41 6.50994C4.58255 6.04057 4.85953 5.61656 5.22 5.26994C5.56857 4.90709 5.9964 4.62986 6.47 4.45994C7.06899 4.23683 7.70099 4.11517 8.34 4.09994C9.28 3.99994 9.57 3.99994 12 3.99994C14.43 3.99994 14.72 3.99994 15.66 3.99994C16.3021 4.01627 16.9372 4.13788 17.54 4.35994C18.0094 4.5325 18.4334 4.80947 18.78 5.16994C19.1428 5.51851 19.4201 5.94635 19.59 6.41994C19.8348 7.0285 19.9735 7.67452 20 8.32994C20 9.32994 20.05 9.57994 20.05 11.9999C20.05 14.4199 20 14.7099 20 15.6699H19.94Z" fill="#171E2B"/>
</svg>
