<svg width="24" height="24" viewBox="0 0 24 24" fill="none" xmlns="http://www.w3.org/2000/svg">
<path fill-rule="evenodd" clip-rule="evenodd" d="M16.4649 1.92H7.37434C4.362 1.92 1.92001 4.36198 1.92001 7.37433V16.4649C1.92001 19.4772 4.362 21.9192 7.37434 21.9192H16.4649C19.4772 21.9192 21.9192 19.4772 21.9192 16.4649V7.37433C21.9192 4.36198 19.4772 1.92 16.4649 1.92ZM3.73812 7.37434C3.73812 5.36611 5.36611 3.73812 7.37434 3.73812H16.4649C18.4731 3.73812 20.1011 5.36611 20.1011 7.37434V16.4649C20.1011 18.4731 18.4731 20.1011 16.4649 20.1011H7.37434C5.36611 20.1011 3.73812 18.4731 3.73812 16.4649V7.37434ZM14.0025 15.9402C15.754 15.0586 16.7427 13.1532 16.4551 11.2135C16.1614 9.23294 14.6062 7.67782 12.6257 7.38413C10.686 7.0965 8.78054 8.08521 7.89895 9.83673C7.01736 11.5882 7.35841 13.7077 8.74495 15.0942C10.1315 16.4808 12.2509 16.8218 14.0025 15.9402ZM12.359 9.18257C13.5473 9.35879 14.4804 10.2919 14.6566 11.4802C14.8292 12.644 14.236 13.7873 13.1851 14.3162C12.1341 14.8452 10.8625 14.6406 10.0306 13.8086C9.19862 12.9767 8.994 11.705 9.52295 10.6541C10.0519 9.60322 11.1952 9.01 12.359 9.18257ZM17.5622 7.56258C17.2072 7.91758 16.6316 7.91758 16.2766 7.56258C15.9216 7.20757 15.9216 6.63199 16.2766 6.27698C16.6316 5.92197 17.2072 5.92197 17.5622 6.27698C17.9172 6.63199 17.9172 7.20757 17.5622 7.56258Z" fill="#171E2B"/>
</svg>
