<svg width="24" height="24" viewBox="0 0 24 24" fill="none" xmlns="http://www.w3.org/2000/svg">
<path fill-rule="evenodd" clip-rule="evenodd" d="M13 16H7.00002C6.44773 16 6.00002 16.4478 6.00002 17C6.00002 17.5523 6.44773 18 7.00002 18H13C13.5523 18 14 17.5523 14 17C14 16.4478 13.5523 16 13 16ZM9.00001 9.99998H11C11.5523 9.99998 12 9.55226 12 8.99998C12 8.44769 11.5523 7.99998 11 7.99998H9.00001C8.44772 7.99998 8.00001 8.44769 8.00001 8.99998C8.00001 9.55226 8.44772 9.99998 9.00001 9.99998ZM21 12H18V3.00001C18.0014 2.64132 17.8106 2.30935 17.5 2.13001C17.1906 1.95137 16.8094 1.95137 16.5 2.13001L13.5 3.85001L10.5 2.13001C10.1906 1.95137 9.80941 1.95137 9.50001 2.13001L6.50001 3.85001L3.50001 2.13001C3.19061 1.95137 2.80941 1.95137 2.50001 2.13001C2.18937 2.30935 1.99858 2.64132 2.00001 3.00001V19C2.00001 20.6569 3.34315 22 5.00001 22H19C20.6569 22 22 20.6569 22 19V13C22 12.4477 21.5523 12 21 12ZM5 20C4.44772 20 4 19.5523 4 19V4.73004L6 5.87004C6.31326 6.03365 6.68675 6.03365 7 5.87004L10 4.15004L13 5.87004C13.3133 6.03365 13.6867 6.03365 14 5.87004L16 4.73004V19C16.0027 19.3412 16.0636 19.6794 16.18 20H5ZM20 19C20 19.5523 19.5523 20 19 20C18.4477 20 18 19.5523 18 19V14H20V19ZM13 12H7.00002C6.44773 12 6.00002 12.4477 6.00002 13C6.00002 13.5523 6.44773 14 7.00002 14H13C13.5523 14 14 13.5523 14 13C14 12.4477 13.5523 12 13 12Z" fill="#171E2B"/>
</svg>
