<svg width="24" height="24" viewBox="0 0 24 24" fill="none" xmlns="http://www.w3.org/2000/svg">
<path fill-rule="evenodd" clip-rule="evenodd" d="M18.85 15.6899C18.46 15.3022 17.83 15.3022 17.44 15.6899L15.38 17.7499C15.129 18.0029 15.0316 18.3704 15.1243 18.7145C15.217 19.0586 15.4859 19.3273 15.83 19.4199L16.09 19.4899L15.29 20.2899C15.1007 20.4777 14.9942 20.7333 14.9942 20.9999C14.9942 21.2666 15.1007 21.5222 15.29 21.7099C15.4778 21.8992 15.7334 22.0057 16 22.0057C16.2666 22.0057 16.5222 21.8992 16.71 21.7099L18.71 19.7099C18.9755 19.4507 19.0756 19.0657 18.97 18.7099C18.8779 18.363 18.6069 18.092 18.26 17.9999L18 17.9399L18.83 17.0999C19.2233 16.7154 19.2322 16.0855 18.85 15.6899ZM7.91 19.4899L8.17 19.4199C8.51414 19.3273 8.78299 19.0586 8.87571 18.7145C8.96843 18.3704 8.87102 18.0029 8.62 17.7499L6.56 15.6899C6.16324 15.3502 5.57181 15.373 5.20244 15.7424C4.83307 16.1117 4.81023 16.7032 5.15 17.0999L5.98 17.9399L5.72 17.9999C5.37306 18.092 5.10209 18.363 5.01 18.7099C4.90441 19.0657 5.0045 19.4507 5.27 19.7099L7.27 21.7099C7.45777 21.8992 7.71336 22.0057 7.98 22.0057C8.24664 22.0057 8.50224 21.8992 8.69 21.7099C8.87931 21.5222 8.9858 21.2666 8.9858 20.9999C8.9858 20.7333 8.87931 20.4777 8.69 20.2899L7.91 19.4899ZM21 3.99997C20.4477 3.99997 20 4.44768 20 4.99997H17C17 3.34312 15.6569 1.99997 14 1.99997H10C8.34315 1.99997 7 3.34312 7 4.99997H4C4 4.44768 3.55228 3.99997 3 3.99997C2.44772 3.99997 2 4.44768 2 4.99997V6.99997C2 7.55225 2.44772 7.99997 3 7.99997C3.55228 7.99997 4 7.55225 4 6.99997H7V8.99997C6.99933 10.2719 7.80082 11.406 9 11.83V13C9 14.1045 9.89543 15 11 15V21C11 21.5523 11.4477 22 12 22C12.5523 22 13 21.5523 13 21V15C14.1046 15 15 14.1045 15 13V11.83C16.1992 11.406 17.0007 10.2719 17 8.99997V6.99997H20C20 7.55225 20.4477 7.99997 21 7.99997C21.5523 7.99997 22 7.55225 22 6.99997V4.99997C22 4.44768 21.5523 3.99997 21 3.99997ZM15 8.99994C15 9.55222 14.5523 9.99994 14 9.99994C13.4477 9.99994 13 10.4477 13 10.9999V12.9999H11V10.9999C11 10.4477 10.5523 9.99994 10 9.99994C9.44772 9.99994 9.00001 9.55222 9.00001 8.99994V4.99994C9.00001 4.44765 9.44772 3.99994 10 3.99994H14C14.5523 3.99994 15 4.44765 15 4.99994V8.99994ZM12 6C11.4477 6 11 6.44772 11 7V8C11 8.55228 11.4477 9 12 9C12.5523 9 13 8.55228 13 8V7C13 6.44772 12.5523 6 12 6Z" fill="#171E2B"/>
</svg>
