<svg width="24" height="24" viewBox="0 0 24 24" fill="none" xmlns="http://www.w3.org/2000/svg">
<path fill-rule="evenodd" clip-rule="evenodd" d="M21.12 16.88C20.2222 15.9894 18.8623 15.7574 17.72 16.3L16.57 15.16C18.9261 12.6176 20.7035 9.59491 21.78 6.29999C22.197 5.13803 21.9061 3.83978 21.0331 2.96684C20.1602 2.09391 18.8619 1.80301 17.7 2.21999C14.4051 3.29646 11.3824 5.07388 8.83998 7.42999L7.69998 6.27999C8.35698 4.90152 7.87369 3.24948 6.57733 2.44245C5.28097 1.63542 3.58525 1.93094 2.63831 3.12892C1.69137 4.32689 1.79541 6.04503 2.87998 7.11999C3.44205 7.68276 4.2046 7.99929 4.99998 7.99999C5.44358 7.99586 5.88075 7.8934 6.27998 7.69999L7.42998 8.83999C5.07387 11.3824 3.29645 14.4051 2.21998 17.7C1.83766 18.8591 2.13917 20.1347 2.99998 21C3.57736 21.6156 4.37637 21.9755 5.21998 22C5.58637 21.9965 5.95025 21.9393 6.29998 21.83C9.5949 20.7535 12.6175 18.9761 15.16 16.62L16.3 17.77C15.643 19.1485 16.1263 20.8005 17.4226 21.6075C18.719 22.4146 20.4147 22.119 21.3617 20.9211C22.3086 19.7231 22.2046 18.005 21.12 16.93V16.88ZM5.70999 5.70004C5.32063 6.09216 4.68711 6.0944 4.29499 5.70504C3.90286 5.31568 3.90063 4.68216 4.28999 4.29004C4.67935 3.89791 5.31287 3.89568 5.70499 4.28504C6.09711 4.6744 6.09935 5.30791 5.70999 5.70004ZM18.31 4.12996C18.4618 4.07997 18.6202 4.05301 18.78 4.04996C19.0911 4.04742 19.3901 4.16992 19.61 4.38996C19.9428 4.73551 20.0443 5.24301 19.87 5.68996C19.3417 7.31376 18.6269 8.87082 17.74 10.33L13.67 6.25996C15.1291 5.37301 16.6862 4.65824 18.31 4.12996ZM5.69 19.87C5.24424 20.0484 4.73504 19.9439 4.39554 19.6044C4.05603 19.2649 3.95157 18.7557 4.13 18.31C4.65827 16.6862 5.37305 15.1291 6.26 13.67L10.33 17.74C8.87086 18.6269 7.31379 19.3417 5.69 19.87ZM12 16.59L7.40997 12C7.85561 11.3952 8.33294 10.8144 8.83997 10.26L13.75 15.17C13.1921 15.6739 12.608 16.1479 12 16.59ZM15.15 13.75L10.25 8.83999C10.8076 8.33268 11.3918 7.85534 12 7.40999L16.6 12.01C16.1511 12.6151 15.6704 13.1959 15.16 13.75H15.15ZM19.7 19.75C19.4481 20.0036 19.0801 20.1036 18.7344 20.0123C18.3888 19.921 18.1182 19.6523 18.0244 19.3073C17.9307 18.9624 18.0281 18.5936 18.28 18.34C18.67 17.9522 19.3 17.9522 19.69 18.34C20.0576 18.7196 20.0664 19.3197 19.71 19.71L19.7 19.75Z" fill="#171E2B"/>
</svg>
