<svg width="24" height="24" viewBox="0 0 24 24" fill="none" xmlns="http://www.w3.org/2000/svg">
<path fill-rule="evenodd" clip-rule="evenodd" d="M21.71 6.53L20.29 5.12L21.71 3.71C22.1021 3.31788 22.1021 2.68212 21.71 2.29C21.3179 1.89788 20.6821 1.89788 20.29 2.29L9.74998 12.83C7.60812 11.4169 4.74424 11.8545 3.12217 13.8429C1.50011 15.8312 1.64649 18.7246 3.46094 20.539C5.27539 22.3535 8.16882 22.4999 10.1571 20.8778C12.1454 19.2557 12.5831 16.3919 11.17 14.25L16.05 9.36L17.46 10.78C17.6487 10.9672 17.9042 11.0715 18.17 11.07C18.4358 11.0715 18.6913 10.9672 18.88 10.78C19.0693 10.5922 19.1758 10.3366 19.1758 10.07C19.1758 9.80336 19.0693 9.54777 18.88 9.36L17.46 8L18.88 6.58L20.29 8C20.4787 8.18719 20.7342 8.29154 21 8.29C21.2658 8.29154 21.5213 8.18719 21.71 8C21.9152 7.81069 22.0319 7.5442 22.0319 7.265C22.0319 6.9858 21.9152 6.71932 21.71 6.53ZM6.99998 20C5.34313 20 3.99998 18.6568 3.99998 17C3.99998 15.3431 5.34313 14 6.99998 14C8.65684 14 9.99998 15.3431 9.99998 17C9.99998 18.6568 8.65684 20 6.99998 20Z" fill="#171E2B"/>
</svg>
