<svg width="24" height="24" viewBox="0 0 24 24" fill="none" xmlns="http://www.w3.org/2000/svg">
<path fill-rule="evenodd" clip-rule="evenodd" d="M21 4.41L21.71 3.71C22.1021 3.31788 22.1021 2.68212 21.71 2.29C21.3179 1.89788 20.6821 1.89788 20.29 2.29L18.89 3.7L16.06 6.53L9.75 12.83C7.60813 11.4169 4.74425 11.8545 3.12219 13.8429C1.50012 15.8312 1.6465 18.7246 3.46096 20.539C5.27541 22.3535 8.16884 22.4999 10.1572 20.8778C12.1455 19.2557 12.5831 16.3919 11.17 14.25L16.76 8.65L18.88 10.78C19.1337 11.0319 19.5024 11.1293 19.8474 11.0355C20.1923 10.9418 20.4611 10.6712 20.5524 10.3256C20.6437 9.97994 20.5437 9.61187 20.29 9.36L18.17 7.24L19.59 5.83L20.29 6.53C20.5419 6.78366 20.9099 6.88368 21.2555 6.79238C21.6012 6.70108 21.8718 6.43234 21.9655 6.08738C22.0593 5.74242 21.9619 5.37366 21.71 5.12L21 4.41ZM7 20C5.34315 20 4 18.6568 4 17C4 15.3431 5.34315 14 7 14C8.65685 14 10 15.3431 10 17C10 18.6568 8.65685 20 7 20Z" fill="#171E2B"/>
</svg>
