<svg width="24" height="24" viewBox="0 0 24 24" fill="none" xmlns="http://www.w3.org/2000/svg">
<path fill-rule="evenodd" clip-rule="evenodd" d="M6.70997 9.29001C6.5222 9.1007 6.26661 8.99421 5.99997 8.99421C5.73333 8.99421 5.47773 9.1007 5.28997 9.29001C5.19893 9.38511 5.12756 9.49726 5.07997 9.62001C4.92337 9.99241 5.00622 10.4224 5.28997 10.71C5.38717 10.7983 5.49878 10.8694 5.61997 10.92C5.73865 10.976 5.86879 11.0034 5.99997 11C6.33255 10.9984 6.64255 10.8315 6.82704 10.5547C7.01152 10.278 7.04636 9.92765 6.91997 9.62001C6.87237 9.49726 6.80101 9.38511 6.70997 9.29001ZM10 11C10.3326 10.9983 10.6426 10.8314 10.8271 10.5547C11.0116 10.2779 11.0464 9.92759 10.92 9.61996C10.8724 9.4972 10.801 9.38506 10.71 9.28996C10.4775 9.0486 10.1396 8.93972 9.81 8.99995C9.74377 9.00923 9.67955 9.02951 9.62 9.05996L9.44 9.14995L9.29 9.26995C9.10253 9.4666 8.99858 9.72827 9 9.99995C9 10.5522 9.44772 11 10 11ZM6.37997 13.08C6.13651 12.9799 5.86343 12.9799 5.61997 13.08C5.24654 13.2334 5.00198 13.5963 4.99997 14C5.00163 14.3325 5.16853 14.6425 5.44526 14.827C5.72199 15.0115 6.07233 15.0463 6.37997 14.92C6.50115 14.8693 6.61277 14.7983 6.70997 14.71C6.89715 14.5212 7.0015 14.2658 6.99997 14C7.0015 13.7342 6.89715 13.4787 6.70997 13.29C6.6161 13.1974 6.50361 13.1258 6.37997 13.08ZM14 12.9999H10C9.44771 12.9999 9 13.4477 9 13.9999C9 14.5522 9.44771 14.9999 10 14.9999H14C14.5523 14.9999 15 14.5522 15 13.9999C15 13.4477 14.5523 12.9999 14 12.9999ZM14.71 9.29001C14.5222 9.1007 14.2666 8.99421 14 8.99421C13.7333 8.99421 13.4777 9.1007 13.29 9.29001C13.1989 9.38511 13.1276 9.49726 13.08 9.62001C12.9205 9.99455 13.004 10.4284 13.2911 10.717C13.5782 11.0056 14.0115 11.0914 14.3869 10.9339C14.7623 10.7764 15.0048 10.4071 15 10C15.0034 9.86883 14.976 9.73869 14.92 9.62001C14.8724 9.49726 14.801 9.38511 14.71 9.29001ZM18.56 13.17C18.5042 13.1321 18.4437 13.1018 18.38 13.08C18.1365 12.9799 17.8635 12.9799 17.62 13.08C17.4988 13.1306 17.3872 13.2016 17.29 13.29C17.1073 13.4816 17.0037 13.7352 17 14C17 14.5522 17.4477 15 18 15C18.5523 15 19 14.5522 19 14C18.9963 13.7352 18.8927 13.4816 18.71 13.29L18.56 13.17ZM20 4.99997H3.99998C2.34313 4.99997 0.999985 6.34312 0.999985 7.99997V16C0.999985 17.6568 2.34313 19 3.99998 19H20C21.6568 19 23 17.6568 23 16V7.99997C23 6.34312 21.6568 4.99997 20 4.99997ZM21 15.9999C21 16.5522 20.5523 16.9999 20 16.9999H4C3.44772 16.9999 3 16.5522 3 15.9999V7.99994C3 7.44765 3.44772 6.99994 4 6.99994H20C20.5523 6.99994 21 7.44765 21 7.99994V15.9999ZM18.71 9.28995C18.4239 9.00149 17.9917 8.91479 17.6165 9.07058C17.2413 9.22637 16.9976 9.59369 17 9.99995C16.9952 10.407 17.2376 10.7763 17.613 10.9338C17.9884 11.0913 18.4218 11.0056 18.7089 10.7169C18.996 10.4283 19.0795 9.9945 18.92 9.61995C18.8724 9.4972 18.801 9.38506 18.71 9.28995Z" fill="#171E2B"/>
</svg>
