<svg width="24" height="24" viewBox="0 0 24 24" fill="none" xmlns="http://www.w3.org/2000/svg">
<path fill-rule="evenodd" clip-rule="evenodd" d="M6.20996 13.29C6.1161 13.1974 6.00361 13.1258 5.87996 13.08C5.6365 12.9799 5.36343 12.9799 5.11996 13.08C4.86873 13.1709 4.67089 13.3687 4.57996 13.62C4.40161 14.0386 4.52844 14.5249 4.88856 14.8032C5.24868 15.0814 5.75125 15.0814 6.11137 14.8032C6.47149 14.5249 6.59832 14.0386 6.41997 13.62C6.37237 13.4972 6.30101 13.3851 6.20996 13.29ZM13.5 11H14.5C15.0523 11 15.5 10.5523 15.5 10C15.5 9.44771 15.0523 9 14.5 9H13.5C12.9477 9 12.5 9.44771 12.5 10C12.5 10.5523 12.9477 11 13.5 11ZM9.49998 11H10.5C11.0523 11 11.5 10.5523 11.5 10C11.5 9.44771 11.0523 9 10.5 9H9.49998C8.9477 9 8.49999 9.44771 8.49999 10C8.49999 10.5523 8.9477 11 9.49998 11ZM6.5 9H5.5C4.94772 9 4.5 9.44771 4.5 10C4.5 10.5523 4.94772 11 5.5 11H6.5C7.05228 11 7.5 10.5523 7.5 10C7.5 9.44771 7.05228 9 6.5 9ZM20 4.99997H3.99998C2.34313 4.99997 0.999985 6.34312 0.999985 7.99997V16C0.999985 17.6568 2.34313 19 3.99998 19H20C21.6568 19 23 17.6568 23 16V7.99997C23 6.34312 21.6568 4.99997 20 4.99997ZM21 15.9999C21 16.5522 20.5523 16.9999 20 16.9999H4C3.44772 16.9999 3 16.5522 3 15.9999V7.99994C3 7.44765 3.44772 6.99994 4 6.99994H20C20.5523 6.99994 21 7.44765 21 7.99994V15.9999ZM15 12.9999H8.99997C8.44768 12.9999 7.99997 13.4477 7.99997 13.9999C7.99997 14.5522 8.44768 14.9999 8.99997 14.9999H15C15.5523 14.9999 16 14.5522 16 13.9999C16 13.4477 15.5523 12.9999 15 12.9999ZM18.5 9H17.5C16.9477 9 16.5 9.44771 16.5 10C16.5 10.5523 16.9477 11 17.5 11H18.5C19.0523 11 19.5 10.5523 19.5 10C19.5 9.44771 19.0523 9 18.5 9ZM19.21 13.29C19.1149 13.1989 19.0027 13.1276 18.88 13.08C18.6365 12.9799 18.3634 12.9799 18.12 13.08C17.9963 13.1258 17.8838 13.1974 17.79 13.29C17.6989 13.3851 17.6276 13.4972 17.58 13.62C17.4205 13.9945 17.504 14.4283 17.7911 14.717C18.0782 15.0056 18.5115 15.0913 18.8869 14.9338C19.2623 14.7763 19.5048 14.407 19.5 14C19.5034 13.8688 19.476 13.7386 19.42 13.62C19.3724 13.4972 19.301 13.3851 19.21 13.29Z" fill="#171E2B"/>
</svg>
