<svg width="24" height="24" viewBox="0 0 24 24" fill="none" xmlns="http://www.w3.org/2000/svg">
<path fill-rule="evenodd" clip-rule="evenodd" d="M6.71001 10.2899C6.6128 10.2016 6.50119 10.1306 6.38001 10.0799C6.00761 9.92334 5.57757 10.0062 5.29001 10.2899C5.19897 10.385 5.1276 10.4972 5.08001 10.6199C4.92341 10.9923 5.00626 11.4224 5.29001 11.7099C5.38721 11.7983 5.49882 11.8693 5.62001 11.9199C5.99147 12.0686 6.4158 11.9816 6.69872 11.6987C6.98165 11.4157 7.06869 10.9914 6.92001 10.6199C6.87241 10.4972 6.80105 10.385 6.71001 10.2899ZM9.29 7.71001C9.47871 7.8972 9.73419 8.00155 10 8.00001C10.1312 8.00339 10.2613 7.97599 10.38 7.92001C10.5012 7.86937 10.6128 7.79834 10.71 7.71001C10.7983 7.61281 10.8694 7.50119 10.92 7.38001C11.027 7.13797 11.027 6.86205 10.92 6.62001C10.8694 6.49882 10.7983 6.38721 10.71 6.29001C10.5222 6.1007 10.2666 5.99421 10 5.99421C9.73336 5.99421 9.47776 6.1007 9.29 6.29001C9.20166 6.38721 9.13064 6.49882 9.08 6.62001C8.97302 6.86205 8.97302 7.13797 9.08 7.38001C9.13064 7.50119 9.20166 7.61281 9.29 7.71001ZM6.71 6.28995C6.42391 6.00149 5.99173 5.91479 5.61652 6.07058C5.2413 6.22637 4.99764 6.59369 5 6.99995C5.00158 7.13063 5.02876 7.25973 5.08 7.37995C5.13064 7.50114 5.20167 7.61275 5.29 7.70995C5.47872 7.89714 5.7342 8.00149 6 7.99995C6.13118 8.00333 6.26132 7.97593 6.38 7.91995C6.50118 7.86931 6.6128 7.79828 6.71 7.70995C6.79833 7.61275 6.86936 7.50114 6.92 7.37995C7.02698 7.13791 7.02698 6.86199 6.92 6.61995C6.86936 6.49877 6.79833 6.38715 6.71 6.28995ZM13.29 18.29L12 19.59L10.71 18.29C10.4563 18.0363 10.0866 17.9372 9.74012 18.0301C9.39361 18.1229 9.12296 18.3936 9.03012 18.7401C8.93727 19.0866 9.03634 19.4563 9.29 19.71L11.29 21.71C11.4778 21.8993 11.7334 22.0058 12 22.0058C12.2666 22.0058 12.5222 21.8993 12.71 21.71L14.71 19.71C15.1021 19.3178 15.1021 18.6821 14.71 18.29C14.3179 17.8978 13.6821 17.8978 13.29 18.29ZM18.71 6.28995C18.4239 6.00149 17.9917 5.91479 17.6165 6.07058C17.2413 6.22637 16.9976 6.59369 17 6.99995C16.9966 7.13113 17.024 7.26127 17.08 7.37995C17.1306 7.50114 17.2017 7.61275 17.29 7.70995C17.4778 7.89926 17.7334 8.00575 18 8.00575C18.2666 8.00575 18.5222 7.89926 18.71 7.70995C18.7983 7.61275 18.8694 7.50114 18.92 7.37995C18.976 7.26127 19.0034 7.13113 19 6.99995C18.9984 6.86927 18.9712 6.74017 18.92 6.61995C18.8694 6.49877 18.7983 6.38715 18.71 6.28995ZM14 9.99994H9.99999C9.44771 9.99994 8.99999 10.4477 8.99999 10.9999C8.99999 11.5522 9.44771 11.9999 9.99999 11.9999H14C14.5523 11.9999 15 11.5522 15 10.9999C15 10.4477 14.5523 9.99994 14 9.99994ZM20 1.99997H4C2.34315 1.99997 1 3.34312 1 4.99997V13C1 14.6568 2.34315 16 4 16H20C21.6569 16 23 14.6568 23 13V4.99997C23 3.34312 21.6569 1.99997 20 1.99997ZM21 12.9999C21 13.5522 20.5523 13.9999 20 13.9999H3.99999C3.44771 13.9999 2.99999 13.5522 2.99999 12.9999V4.99994C2.99999 4.44765 3.44771 3.99994 3.99999 3.99994H20C20.5523 3.99994 21 4.44765 21 4.99994V12.9999ZM18.71 10.29C18.6149 10.199 18.5027 10.1276 18.38 10.08C18.1385 9.97048 17.8615 9.97048 17.62 10.08C17.4988 10.1307 17.3872 10.2017 17.29 10.29C17.1073 10.4816 17.0037 10.7352 17 11C16.9952 11.4071 17.2377 11.7764 17.613 11.9339C17.9884 12.0914 18.4218 12.0056 18.7089 11.717C18.996 11.4284 19.0795 10.9946 18.92 10.62C18.8724 10.4973 18.801 10.3851 18.71 10.29ZM13.62 6.08C13.4988 6.13064 13.3872 6.20167 13.29 6.29C13.1073 6.48163 13.0037 6.73523 13 7C13.0016 7.13068 13.0288 7.25978 13.08 7.38C13.1306 7.50118 13.2017 7.6128 13.29 7.71C13.4787 7.89719 13.7342 8.00154 14 8C14.1312 8.00338 14.2613 7.97598 14.38 7.92C14.5012 7.86936 14.6128 7.79833 14.71 7.71C14.7983 7.6128 14.8694 7.50118 14.92 7.38C14.976 7.26132 15.0034 7.13118 15 7C14.9963 6.73523 14.8927 6.48163 14.71 6.29C14.4224 6.00625 13.9924 5.9234 13.62 6.08Z" fill="#171E2B"/>
</svg>
