<svg width="24" height="24" viewBox="0 0 24 24" fill="none" xmlns="http://www.w3.org/2000/svg">
<path fill-rule="evenodd" clip-rule="evenodd" d="M6.71 10.29C6.42391 10.0015 5.99173 9.91482 5.61651 10.0706C5.2413 10.2264 4.99763 10.5937 5 11C4.99521 11.407 5.23765 11.7764 5.61304 11.9339C5.98842 12.0914 6.42181 12.0056 6.7089 11.717C6.99599 11.4284 7.07947 10.9945 6.92 10.62C6.8724 10.4972 6.80104 10.3851 6.71 10.29ZM9.29 7.71001C9.47871 7.8972 9.73419 8.00155 10 8.00001C10.2658 8.00155 10.5213 7.8972 10.71 7.71001C10.7983 7.61281 10.8694 7.50119 10.92 7.38001C10.9712 7.25979 10.9984 7.13069 11 7.00001C10.9963 6.73524 10.8927 6.48164 10.71 6.29001L10.56 6.17001L10.38 6.08001C10.3218 6.04258 10.2575 6.01551 10.19 6.00001C9.86376 5.93468 9.5264 6.03589 9.29 6.27001C9.19896 6.36511 9.12759 6.47726 9.08 6.60001C8.97302 6.84205 8.97302 7.11797 9.08 7.36001C9.12857 7.48827 9.19969 7.6068 9.29 7.71001ZM6.56 6.17001C6.50426 6.13217 6.44373 6.1019 6.38 6.08001L6.2 6.00001C5.87056 5.93114 5.52857 6.03261 5.29 6.27001C5.19896 6.36512 5.1276 6.47726 5.08 6.60001C4.97302 6.84205 4.97302 7.11797 5.08 7.36001C5.13064 7.4812 5.20167 7.59281 5.29 7.69001C5.3872 7.77834 5.49882 7.84937 5.62 7.90001C5.73698 7.96292 5.86721 7.99719 6 8.00001C6.26581 8.00155 6.52128 7.8972 6.71 7.71001C6.79833 7.61281 6.86936 7.5012 6.92 7.38001C6.97124 7.25979 6.99842 7.13069 7 7.00001C6.99632 6.73525 6.89274 6.48165 6.71 6.29001L6.56 6.17001ZM12.71 18.29C12.5222 18.1007 12.2666 17.9942 12 17.9942C11.7334 17.9942 11.4778 18.1007 11.29 18.29L9.29 20.29C8.89788 20.6821 8.89788 21.3179 9.29 21.71C9.68212 22.1021 10.3179 22.1021 10.71 21.71L12 20.41L13.29 21.71C13.4778 21.8993 13.7334 22.0058 14 22.0058C14.2666 22.0058 14.5222 21.8993 14.71 21.71C14.8993 21.5222 15.0058 21.2667 15.0058 21C15.0058 20.7334 14.8993 20.4778 14.71 20.29L12.71 18.29ZM18.71 10.2899C18.5222 10.1006 18.2666 9.99415 18 9.99415C17.7334 9.99415 17.4778 10.1006 17.29 10.2899C17.199 10.385 17.1276 10.4972 17.08 10.6199C16.9313 10.9914 17.0184 11.4157 17.3013 11.6987C17.5842 11.9816 18.0085 12.0686 18.38 11.9199C18.5012 11.8693 18.6128 11.7983 18.71 11.7099C18.8972 11.5212 19.0015 11.2657 19 10.9999C19.0034 10.8688 18.976 10.7386 18.92 10.6199C18.8724 10.4972 18.801 10.385 18.71 10.2899ZM14 9.99994H10C9.44772 9.99994 9 10.4477 9 10.9999C9 11.5522 9.44772 11.9999 10 11.9999H14C14.5523 11.9999 15 11.5522 15 10.9999C15 10.4477 14.5523 9.99994 14 9.99994ZM20 1.99997H4C2.34315 1.99997 1 3.34312 1 4.99997V13C1 14.6568 2.34315 16 4 16H20C21.6569 16 23 14.6568 23 13V4.99997C23 3.34312 21.6569 1.99997 20 1.99997ZM21 12.9999C21 13.5522 20.5523 13.9999 20 13.9999H4C3.44772 13.9999 3 13.5522 3 12.9999V4.99994C3 4.44765 3.44772 3.99994 4 3.99994H20C20.5523 3.99994 21 4.44765 21 4.99994V12.9999ZM17.62 6.08C17.4964 6.12581 17.3839 6.19739 17.29 6.29C17.1073 6.48163 17.0037 6.73523 17 7C17.0016 7.13068 17.0288 7.25978 17.08 7.38C17.1306 7.50118 17.2017 7.6128 17.29 7.71C17.4787 7.89719 17.7342 8.00154 18 8C18.2658 8.00154 18.5213 7.89719 18.71 7.71C18.7983 7.6128 18.8694 7.50118 18.92 7.38C18.9712 7.25978 18.9984 7.13068 19 7C18.9963 6.73523 18.8927 6.48163 18.71 6.29C18.4224 6.00625 17.9924 5.9234 17.62 6.08ZM14.56 6.16998L14.38 6.07998L14.2 5.99998C14.005 5.96192 13.8031 5.98281 13.62 6.05998C13.4964 6.1058 13.3839 6.17738 13.29 6.26998C13.199 6.36508 13.1276 6.47723 13.08 6.59998C12.973 6.84202 12.973 7.11794 13.08 7.35998C13.1306 7.48116 13.2017 7.59278 13.29 7.68998C13.4754 7.88451 13.7313 7.99624 14 7.99998C14.2658 8.00151 14.5213 7.89716 14.71 7.70998C14.7983 7.61278 14.8694 7.50116 14.92 7.37998C14.9712 7.25976 14.9984 7.13066 15 6.99998C14.9963 6.73521 14.8927 6.48161 14.71 6.28998L14.56 6.16998Z" fill="#171E2B"/>
</svg>
