<svg width="24" height="24" viewBox="0 0 24 24" fill="none" xmlns="http://www.w3.org/2000/svg">
<path fill-rule="evenodd" clip-rule="evenodd" d="M12 7.99997C10.8954 7.99997 10 8.8954 10 9.99997C10.0043 10.7102 10.3849 11.3649 11 11.72V15C11 15.5523 11.4477 16 12 16C12.5523 16 13 15.5523 13 15V11.72C13.6151 11.3649 13.9957 10.7102 14 9.99997C14 8.8954 13.1046 7.99997 12 7.99997ZM12 1.99997C6.47715 1.99997 2 6.47712 2 12C2 17.5228 6.47715 22 12 22C17.5228 22 22 17.5228 22 12C22 9.3478 20.9464 6.80427 19.0711 4.9289C17.1957 3.05354 14.6522 1.99997 12 1.99997ZM12 19.9999C7.58172 19.9999 4 16.4182 4 11.9999C4 7.58166 7.58172 3.99994 12 3.99994C16.4183 3.99994 20 7.58166 20 11.9999C20 14.1217 19.1571 16.1565 17.6569 17.6568C16.1566 19.1571 14.1217 19.9999 12 19.9999Z" fill="#171E2B"/>
</svg>
