<svg width="24" height="24" viewBox="0 0 24 24" fill="none" xmlns="http://www.w3.org/2000/svg">
<path fill-rule="evenodd" clip-rule="evenodd" d="M11 11.72V15C11 15.5523 11.4477 16 12 16C12.5523 16 13 15.5523 13 15V11.72C13.6151 11.3649 13.9957 10.7102 14 9.99997C14 8.8954 13.1046 7.99997 12 7.99997C10.8954 7.99997 9.99999 8.8954 9.99999 9.99997C10.0043 10.7102 10.3849 11.3649 11 11.72ZM21 1.99997H3C2.44772 1.99997 2 2.44768 2 2.99997V21C2 21.5523 2.44772 22 3 22H21C21.5523 22 22 21.5523 22 21V2.99997C22 2.44768 21.5523 1.99997 21 1.99997ZM20 19.9999H3.99999V3.99994H20V19.9999Z" fill="#171E2B"/>
</svg>
