<svg width="24" height="24" viewBox="0 0 24 24" fill="none" xmlns="http://www.w3.org/2000/svg">
<path fill-rule="evenodd" clip-rule="evenodd" d="M19 1.99997H5C3.34315 1.99997 2 3.34312 2 4.99997V19C2 20.6568 3.34315 22 5 22H19C20.6569 22 22 20.6568 22 19V4.99997C22 3.34312 20.6569 1.99997 19 1.99997ZM20 18.9999C20 19.5522 19.5523 19.9999 19 19.9999H4.99999C4.44771 19.9999 3.99999 19.5522 3.99999 18.9999V4.99994C3.99999 4.44765 4.44771 3.99994 4.99999 3.99994H19C19.5523 3.99994 20 4.44765 20 4.99994V18.9999ZM12 7.99997C10.8954 7.99997 9.99999 8.8954 9.99999 9.99997C10.0043 10.7102 10.3849 11.3649 11 11.72V15C11 15.5523 11.4477 16 12 16C12.5523 16 13 15.5523 13 15V11.72C13.6151 11.3649 13.9957 10.7102 14 9.99997C14 8.8954 13.1046 7.99997 12 7.99997Z" fill="#171E2B"/>
</svg>
