<svg width="24" height="24" viewBox="0 0 24 24" fill="none" xmlns="http://www.w3.org/2000/svg">
<path fill-rule="evenodd" clip-rule="evenodd" d="M10 10C10 9.44771 9.55228 9 9 9C8.44772 9 8 9.44771 8 10C8 10.5523 8.44772 11 9 11C9.55228 11 10 10.5523 10 10ZM14.5 14.06C14.2707 13.9256 13.9973 13.888 13.7403 13.9556C13.4832 14.0231 13.2636 14.1902 13.13 14.42C12.8989 14.8263 12.4675 15.0772 12 15.0772C11.5326 15.0772 11.1011 14.8263 10.87 14.42C10.7364 14.1902 10.5168 14.0231 10.2597 13.9556C10.0027 13.888 9.72932 13.9256 9.50002 14.06C9.02388 14.3346 8.85863 14.942 9.13002 15.42C9.72038 16.4475 10.815 17.081 12 17.081C13.185 17.081 14.2797 16.4475 14.87 15.42C15.1414 14.942 14.9762 14.3346 14.5 14.06ZM15 9C14.4477 9 14 9.44771 14 10C14 10.5523 14.4477 11 15 11C15.5523 11 16 10.5523 16 10C16 9.44771 15.5523 9 15 9ZM12 1.99997C6.47715 1.99997 2 6.47712 2 12C2 17.5228 6.47715 22 12 22C17.5228 22 22 17.5228 22 12C22 9.3478 20.9464 6.80427 19.0711 4.9289C17.1957 3.05354 14.6522 1.99997 12 1.99997ZM12 19.9999C8.15746 20.0165 4.8459 17.2988 4.11253 13.5268C3.37916 9.75487 5.43117 5.99432 9.00001 4.56994C8.98973 4.71309 8.98973 4.85679 9.00001 4.99994C9.00001 6.65679 10.3432 7.99994 12 7.99994C12.5523 7.99994 13 7.55222 13 6.99994C13 6.44765 12.5523 5.99994 12 5.99994C11.4477 5.99994 11 5.55222 11 4.99994C11 4.44765 11.4477 3.99994 12 3.99994C16.4183 3.99994 20 7.58166 20 11.9999C20 16.4182 16.4183 19.9999 12 19.9999Z" fill="#171E2B"/>
</svg>
