<svg width="24" height="24" viewBox="0 0 24 24" fill="none" xmlns="http://www.w3.org/2000/svg">
<path fill-rule="evenodd" clip-rule="evenodd" d="M21.71 11.29L16.71 6.29005C16.5213 6.10286 16.2658 5.99851 16 6.00005H5C3.34315 6.00005 2 7.34319 2 9.00005V15C2 16.6569 3.34315 18.0001 5 18.0001H16C16.2658 18.0016 16.5213 17.8972 16.71 17.7101L21.71 12.71C21.8993 12.5223 22.0058 12.2667 22.0058 12C22.0058 11.7334 21.8993 11.4778 21.71 11.29ZM15.59 16.0001H5.00002C4.44773 16.0001 4.00002 15.5524 4.00002 15.0001V9.00007C4.00002 8.44778 4.44773 8.00007 5.00002 8.00007H15.59L19.59 12.0001L15.59 16.0001Z" fill="#171E2B"/>
</svg>
