<svg width="24" height="24" viewBox="0 0 24 24" fill="none" xmlns="http://www.w3.org/2000/svg">
<path fill-rule="evenodd" clip-rule="evenodd" d="M15 12.0001C15 12.5524 15.4477 13.0001 16 13.0001C16.5523 13.0001 17 12.5524 17 12.0001C17 11.4478 16.5523 11.0001 16 11.0001C15.4477 11.0001 15 11.4478 15 12.0001ZM21.71 11.29L16.71 6.29005C16.5213 6.10286 16.2658 5.99851 16 6.00005H5.00002C3.34316 6.00005 2.00002 7.34319 2.00002 9.00005V15C2.00002 16.6569 3.34316 18.0001 5.00002 18.0001H16C16.2658 18.0016 16.5213 17.8972 16.71 17.7101L21.71 12.71C21.8993 12.5223 22.0058 12.2667 22.0058 12C22.0058 11.7334 21.8993 11.4778 21.71 11.29ZM15.59 16.0001H5.00003C4.44775 16.0001 4.00003 15.5524 4.00003 15.0001V9.00007C4.00003 8.44778 4.44775 8.00007 5.00003 8.00007H15.59L19.59 12.0001L15.59 16.0001Z" fill="#171E2B"/>
</svg>
