<svg width="24" height="24" viewBox="0 0 24 24" fill="none" xmlns="http://www.w3.org/2000/svg">
<path fill-rule="evenodd" clip-rule="evenodd" d="M18 2.78003C17.8952 2.31487 17.4766 1.98838 17 2.00003H6.99998C6.52332 1.98838 6.10473 2.31487 5.99998 2.78003L3.99998 11.78C3.93289 12.079 4.0066 12.3923 4.19998 12.63C4.39498 12.8706 4.69041 13.0072 4.99998 13H8.93998C8.98019 13.3318 9.00023 13.6658 8.99998 14C9.00934 16.3571 8.08538 18.6221 6.42998 20.3C6.14865 20.587 6.06648 21.0146 6.22136 21.3854C6.37624 21.7563 6.73809 21.9984 7.13998 22H16.86C17.2619 21.9984 17.6237 21.7563 17.7786 21.3854C17.9335 21.0146 17.8513 20.587 17.57 20.3C15.9146 18.6221 14.9906 16.3571 15 14C14.9997 13.6658 15.0198 13.3318 15.06 13H16V15C16 15.5523 16.4477 16 17 16C17.5523 16 18 15.5523 18 15V13H19C19.3026 13.0011 19.5893 12.865 19.78 12.63C19.9734 12.3923 20.0471 12.079 19.98 11.78L18 2.78003ZM9.21998 20C10.3871 18.217 11.0059 16.131 11 14C11 13.67 11 13.33 10.95 13H13.05C13.05 13.33 13 13.67 13 14C12.994 16.131 13.6129 18.217 14.78 20H9.21998ZM6.21998 11L7.79998 4.00003H16.2L17.75 11H6.21998Z" fill="#171E2B"/>
</svg>
