<svg width="24" height="24" viewBox="0 0 24 24" fill="none" xmlns="http://www.w3.org/2000/svg">
<path fill-rule="evenodd" clip-rule="evenodd" d="M4.50001 10H10C11.4443 9.99665 12.6812 8.96463 12.9432 7.54429C13.2052 6.12396 12.418 4.71853 11.07 4.20002C10.2995 2.68762 8.6583 1.82622 6.97588 2.05114C5.29347 2.27606 3.93621 3.53832 3.59001 5.20002C2.50791 5.6598 1.89241 6.81145 2.11141 7.9666C2.3304 9.12175 3.32472 9.96821 4.50001 10ZM4.49999 6.99999C5.05228 6.99999 5.49999 6.55228 5.49999 5.99999C5.50681 5.02605 6.21422 4.19864 7.17526 4.04052C8.1363 3.88241 9.07151 4.43957 9.38999 5.35999C9.50949 5.70624 9.80874 5.95945 10.17 6.01999C10.6476 6.10238 10.9974 6.51536 11 6.99999C11 7.55228 10.5523 7.99999 9.99999 7.99999H4.49999C4.22385 7.99999 3.99999 7.77614 3.99999 7.49999C3.99999 7.22385 4.22385 6.99999 4.49999 6.99999ZM21 16H20V8.99999C20 7.34313 18.6569 5.99999 17 5.99999H16C15.4477 5.99999 15 6.4477 15 6.99999C15 7.55227 15.4477 7.99999 16 7.99999H17C17.5523 7.99999 18 8.4477 18 8.99999V16H6V13C6 12.4477 5.55228 12 5 12C4.44772 12 4 12.4477 4 13V16H3C2.44772 16 2 16.4477 2 17V19C2 20.6568 3.34315 22 5 22H19C20.6569 22 22 20.6568 22 19V17C22 16.4477 21.5523 16 21 16ZM20 19C20 19.5523 19.5523 20 19 20H4.99999C4.44771 20 3.99999 19.5523 3.99999 19V18H20V19Z" fill="#171E2B"/>
</svg>
