<svg width="24" height="24" viewBox="0 0 24 24" fill="none" xmlns="http://www.w3.org/2000/svg">
<path fill-rule="evenodd" clip-rule="evenodd" d="M21 14H20V7.00003C20 5.34318 18.6569 4.00003 17 4.00003H7C5.34315 4.00003 4 5.34318 4 7.00003V14H3C2.44772 14 2 14.4477 2 15V17C2 18.6569 3.34315 20 5 20H19C20.6569 20 22 18.6569 22 17V15C22 14.4477 21.5523 14 21 14ZM5.99998 7C5.99998 6.44771 6.4477 6 6.99998 6H17C17.5523 6 18 6.44771 18 7V14H5.99998V7ZM20 17C20 17.5523 19.5523 18 19 18H5.00001C4.44773 18 4.00002 17.5523 4.00002 17V16H20V17Z" fill="#171E2B"/>
</svg>
