<svg width="24" height="24" viewBox="0 0 24 24" fill="none" xmlns="http://www.w3.org/2000/svg">
<path fill-rule="evenodd" clip-rule="evenodd" d="M14.16 12.21C14.3487 12.3971 14.6042 12.5015 14.87 12.5C15.1358 12.5015 15.3913 12.3971 15.58 12.21C15.7693 12.0222 15.8758 11.7666 15.8758 11.5C15.8758 11.2333 15.7693 10.9777 15.58 10.79L14.79 9.99996L15.58 9.20996C15.8337 8.9563 15.9327 8.58658 15.8399 8.24008C15.747 7.89358 15.4764 7.62292 15.1299 7.53008C14.7834 7.43723 14.4137 7.5363 14.16 7.78996L12.66 9.28996C12.4707 9.47772 12.3642 9.73332 12.3642 9.99996C12.3642 10.2666 12.4707 10.5222 12.66 10.71L14.16 12.21ZM9.08 12.2099L10.58 10.7099C10.7693 10.5222 10.8758 10.2666 10.8758 9.99994C10.8758 9.7333 10.7693 9.47771 10.58 9.28994L9.08 7.78994C8.68788 7.39782 8.05212 7.39782 7.66 7.78994C7.26788 8.18206 7.26788 8.81782 7.66 9.20994L8.46 9.99994L7.66 10.7899C7.47069 10.9777 7.3642 11.2333 7.3642 11.4999C7.3642 11.7666 7.47069 12.0222 7.66 12.2099C7.84872 12.3971 8.1042 12.5015 8.37 12.4999C8.6358 12.5015 8.89128 12.3971 9.08 12.2099ZM14.36 14.21C12.9826 15.3205 11.0174 15.3205 9.64 14.21C9.21474 13.8565 8.58346 13.9147 8.23 14.34C7.87654 14.7652 7.93474 15.3965 8.36 15.75C10.4677 17.5095 13.5323 17.5095 15.64 15.75C15.9151 15.5213 16.0473 15.1633 15.9868 14.8107C15.9264 14.4581 15.6824 14.1646 15.3468 14.0407C15.0113 13.9168 14.6351 13.9813 14.36 14.21ZM12 1.99997C6.47715 1.99997 2 6.47712 2 12C2 17.5228 6.47715 22 12 22C17.5228 22 22 17.5228 22 12C22 9.3478 20.9464 6.80427 19.0711 4.9289C17.1957 3.05354 14.6522 1.99997 12 1.99997ZM12 19.9999C7.58172 19.9999 4 16.4182 4 11.9999C4 7.58166 7.58172 3.99994 12 3.99994C16.4183 3.99994 20 7.58166 20 11.9999C20 14.1217 19.1571 16.1565 17.6569 17.6568C16.1566 19.1571 14.1217 19.9999 12 19.9999Z" fill="#171E2B"/>
</svg>
