<svg width="24" height="24" viewBox="0 0 24 24" fill="none" xmlns="http://www.w3.org/2000/svg">
<path fill-rule="evenodd" clip-rule="evenodd" d="M10.26 5.00003L12 4.00003L19 8.00003L15.85 9.83003C15.3739 10.1046 15.2086 10.712 15.48 11.19C15.612 11.4215 15.8308 11.5907 16.088 11.6601C16.3452 11.7296 16.6195 11.6936 16.85 11.56L21.5 8.87003C21.8133 8.69246 22.007 8.36015 22.007 8.00003C22.007 7.6399 21.8133 7.30759 21.5 7.13003L12.5 1.93003C12.1906 1.75139 11.8094 1.75139 11.5 1.93003L9.26002 3.23003C9.02858 3.36198 8.85936 3.58082 8.78989 3.83802C8.72043 4.09522 8.75647 4.3695 8.89002 4.60003C9.01684 4.83659 9.23343 5.01224 9.49109 5.08747C9.74875 5.1627 10.0258 5.13119 10.26 5.00003ZM3.71002 2.29002C3.45637 2.03636 3.08665 1.93729 2.74015 2.03014C2.39364 2.12298 2.12299 2.39363 2.03015 2.74014C1.9373 3.08664 2.03637 3.45636 2.29003 3.71002L4.54002 6.00002L2.54003 7.17002C2.22671 7.34758 2.03308 7.67989 2.03308 8.04002C2.03308 8.40014 2.22671 8.73245 2.54003 8.91002L11.54 14.11C11.8494 14.2886 12.2306 14.2886 12.54 14.11L12.64 14.05L13.71 15.12L12.04 16.12L3.50003 11.13C3.1892 10.9514 2.80669 10.9521 2.49658 11.132C2.18647 11.3119 1.99587 11.6435 1.99658 12.002C1.99729 12.3605 2.1892 12.6914 2.50003 12.87L11.5 18.07C11.6524 18.1564 11.8248 18.2012 12 18.2C12.1752 18.2012 12.3476 18.1564 12.5 18.07L15.13 16.55L16.2 17.62L12 20L3.50003 15.13C3.01954 14.8539 2.40617 15.0195 2.13003 15.5C1.85388 15.9805 2.01954 16.5939 2.50003 16.87L11.5 22.07C11.8094 22.2486 12.1906 22.2486 12.5 22.07L17.67 19.07L20.29 21.7C20.4778 21.8893 20.7334 21.9958 21 21.9958C21.2667 21.9958 21.5223 21.8893 21.71 21.7C21.8993 21.5122 22.0058 21.2567 22.0058 20.99C22.0058 20.7234 21.8993 20.4678 21.71 20.28L3.71002 2.29002ZM5.00002 8.00003L6.00002 7.42002L8.75002 10.17L5.00002 8.00003ZM20.5 11.13L18.38 12.35C17.8995 12.6261 17.7339 13.2395 18.01 13.72C18.2862 14.2005 18.8995 14.3661 19.38 14.09L21.5 12.87C21.8108 12.6914 22.0027 12.3605 22.0035 12.002C22.0042 11.6435 21.8136 11.3119 21.5035 11.132C21.1933 10.9521 20.8108 10.9514 20.5 11.13Z" fill="#171E2B"/>
</svg>
