<svg width="24" height="24" viewBox="0 0 24 24" fill="none" xmlns="http://www.w3.org/2000/svg">
<path fill-rule="evenodd" clip-rule="evenodd" d="M2.50001 8.85997L11.5 14.06C11.8094 14.2386 12.1906 14.2386 12.5 14.06L21.5 8.85997C21.8076 8.68242 21.9979 8.35509 22 7.99997C22.0014 7.64129 21.8106 7.30932 21.5 7.12997L12.5 1.93997C12.1906 1.76134 11.8094 1.76134 11.5 1.93997L2.50001 7.12997C2.18938 7.30932 1.99859 7.64129 2.00001 7.99997C2.00216 8.35509 2.19247 8.68242 2.50001 8.85997ZM12 3.99994L19 7.99995L12 11.9999L5.00001 7.99995L12 3.99994ZM20.5 11.17L12 16L3.50001 11.13C3.26949 10.9964 2.99521 10.9604 2.73801 11.0299C2.48081 11.0993 2.26196 11.2685 2.13001 11.5C1.85862 11.978 2.02388 12.5854 2.50001 12.86L11.5 18.06C11.8094 18.2386 12.1906 18.2386 12.5 18.06L21.5 12.86C21.9761 12.5854 22.1414 11.978 21.87 11.5C21.7381 11.2685 21.5192 11.0993 21.262 11.0299C21.0048 10.9604 20.7305 10.9964 20.5 11.13V11.17ZM20.5 15.17L12 20L3.50001 15.13C3.26949 14.9965 2.99521 14.9604 2.73801 15.0299C2.48081 15.0994 2.26196 15.2686 2.13001 15.5C1.85862 15.978 2.02388 16.5854 2.50001 16.86L11.5 22.06C11.8094 22.2387 12.1906 22.2387 12.5 22.06L21.5 16.86C21.9761 16.5854 22.1414 15.978 21.87 15.5C21.7381 15.2686 21.5192 15.0994 21.262 15.0299C21.0048 14.9604 20.7305 14.9965 20.5 15.13V15.17Z" fill="#171E2B"/>
</svg>
