<svg width="24" height="24" viewBox="0 0 24 24" fill="none" xmlns="http://www.w3.org/2000/svg">
<path fill-rule="evenodd" clip-rule="evenodd" d="M20.49 13.94L20.15 14.14C19.6751 14.4218 19.5184 15.0351 19.8 15.51C19.9801 15.8137 20.3069 16 20.66 16C20.8395 16 21.0156 15.9516 21.17 15.86L21.51 15.66C21.9247 15.3584 22.0441 14.792 21.7863 14.3487C21.5286 13.9054 20.9773 13.7289 20.51 13.94H20.49ZM11.65 6.36007L12 6.15007L19 10.1501L17.24 11.1501C16.8438 11.3746 16.6493 11.8384 16.7669 12.2784C16.8846 12.7183 17.2846 13.0232 17.74 13.0201C17.9152 13.0213 18.0876 12.9764 18.24 12.8901L21.5 11.0001C21.8133 10.8225 22.0069 10.4902 22.0069 10.1301C22.0069 9.76994 21.8133 9.43763 21.5 9.26006L12.5 4.07007C12.1906 3.89143 11.8094 3.89143 11.5 4.07007L10.65 4.56007C10.1695 4.83621 10.0038 5.44958 10.28 5.93007C10.5561 6.41055 11.1695 6.57621 11.65 6.30007V6.36007ZM3.70999 2.29003C3.45633 2.03637 3.08662 1.9373 2.74011 2.03015C2.39361 2.12299 2.12296 2.39364 2.03011 2.74015C1.93727 3.08665 2.03633 3.45637 2.28999 3.71002L5.92999 7.34002L2.49999 9.34002C2.18668 9.51759 1.99304 9.8499 1.99304 10.21C1.99304 10.5702 2.18668 10.9025 2.49999 11.08L11.5 16.28C11.6538 16.3628 11.8253 16.4074 12 16.41C12.1745 16.4059 12.3456 16.3614 12.5 16.28L14 15.4L15.45 16.86L12.01 18.86L3.49999 13.93C3.0195 13.6539 2.40613 13.8195 2.12999 14.3C1.85385 14.7805 2.0195 15.3939 2.49999 15.67L11.5 20.87C11.8094 21.0487 12.1906 21.0487 12.5 20.87L16.91 18.32L20.29 21.71C20.4778 21.8993 20.7334 22.0058 21 22.0058C21.2666 22.0058 21.5222 21.8993 21.71 21.71C21.8993 21.5223 22.0058 21.2667 22.0058 21C22.0058 20.7334 21.8993 20.4778 21.71 20.29L3.70999 2.29003ZM12 14.2901L5.00001 10.1901L7.40001 8.81007L12.52 13.9401L12 14.2901Z" fill="#171E2B"/>
</svg>
