<svg width="24" height="24" viewBox="0 0 24 24" fill="none" xmlns="http://www.w3.org/2000/svg">
<path fill-rule="evenodd" clip-rule="evenodd" d="M21 1.99997H9C8.44771 1.99997 8 2.44768 8 2.99997V6.99997H6C5.44772 6.99997 5 7.44768 5 7.99997V12H3C2.44772 12 2 12.4477 2 13V21C2 21.5523 2.44772 22 3 22H11C11.5523 22 12 21.5523 12 21V19H16C16.5523 19 17 18.5523 17 18V16H21C21.5523 16 22 15.5523 22 15V2.99997C22 2.44768 21.5523 1.99997 21 1.99997ZM10 20H4.00002V14H10V20ZM15 17H12V13C12 12.4477 11.5523 12 11 12H7.00002V9H15V17ZM20 13.9999H17V7.99994C17 7.44765 16.5523 6.99994 16 6.99994H10V3.99994H20V13.9999Z" fill="#171E2B"/>
</svg>
