<svg width="24" height="24" viewBox="0 0 24 24" fill="none" xmlns="http://www.w3.org/2000/svg">
<path fill-rule="evenodd" clip-rule="evenodd" d="M2.50002 10.56L11.5 15.76C11.8094 15.9386 12.1906 15.9386 12.5 15.76L21.5 10.56C21.8084 10.3811 21.9983 10.0515 21.9983 9.69501C21.9983 9.33847 21.8084 9.0089 21.5 8.83001L12.5 3.63001C12.1906 3.45137 11.8094 3.45137 11.5 3.63001L2.50002 8.83001C2.19162 9.0089 2.00179 9.33847 2.00179 9.69501C2.00179 10.0515 2.19162 10.3811 2.50002 10.56ZM12 5.65004L19 9.65004L12 13.7L5.00002 9.69004L12 5.65004ZM20.5 13.44L12 18.35L3.50001 13.44C3.2707 13.3056 2.99734 13.2681 2.74028 13.3356C2.48323 13.4032 2.26364 13.5703 2.13001 13.8C1.99647 14.0305 1.96043 14.3048 2.02989 14.562C2.09935 14.8192 2.26857 15.0381 2.50001 15.17L11.5 20.37C11.8094 20.5486 12.1906 20.5486 12.5 20.37L21.5 15.17C21.7315 15.0381 21.9007 14.8192 21.9701 14.562C22.0396 14.3048 22.0036 14.0305 21.87 13.8C21.7364 13.5703 21.5168 13.4032 21.2597 13.3356C21.0027 13.2681 20.7293 13.3056 20.5 13.44Z" fill="#171E2B"/>
</svg>
