<svg width="24" height="24" viewBox="0 0 24 24" fill="none" xmlns="http://www.w3.org/2000/svg">
<path fill-rule="evenodd" clip-rule="evenodd" d="M21 11H9.41002L11.71 8.70999C11.9637 8.45633 12.0627 8.08662 11.9699 7.74011C11.877 7.39361 11.6064 7.12296 11.2599 7.03011C10.9134 6.93727 10.5437 7.03633 10.29 7.28999L6.29002 11.29C6.19898 11.3851 6.12761 11.4972 6.08002 11.62C5.98 11.8635 5.98 12.1365 6.08002 12.38C6.12761 12.5027 6.19898 12.6149 6.29002 12.71L10.29 16.71C10.4778 16.8993 10.7334 17.0058 11 17.0058C11.2667 17.0058 11.5223 16.8993 11.71 16.71C11.8993 16.5222 12.0058 16.2666 12.0058 16C12.0058 15.7334 11.8993 15.4778 11.71 15.29L9.41002 13H21C21.5523 13 22 12.5523 22 12C22 11.4477 21.5523 11 21 11ZM3.00001 3C2.44773 3 2.00002 3.44772 2.00002 4V20C2.00002 20.5523 2.44773 21 3.00001 21C3.5523 21 4.00001 20.5523 4.00001 20V4C4.00001 3.44772 3.5523 3 3.00001 3Z" fill="#171E2B"/>
</svg>
