<svg width="24" height="24" viewBox="0 0 24 24" fill="none" xmlns="http://www.w3.org/2000/svg">
<path fill-rule="evenodd" clip-rule="evenodd" d="M9 4.99997C8.44772 4.99997 8 5.44768 8 5.99997V18C8 18.5523 8.44772 19 9 19C9.55229 19 10 18.5523 10 18V5.99997C10 5.44768 9.55229 4.99997 9 4.99997ZM13 6.99997H21C21.5523 6.99997 22 6.55225 22 5.99997C22 5.44768 21.5523 4.99997 21 4.99997H13C12.4477 4.99997 12 5.44768 12 5.99997C12 6.55225 12.4477 6.99997 13 6.99997ZM5.77 9.68998C5.60046 9.48548 5.3565 9.35684 5.09197 9.33245C4.82745 9.30806 4.56409 9.38993 4.36 9.55998L2.36 11.23C2.13073 11.42 1.99805 11.7022 1.99805 12C1.99805 12.2977 2.13073 12.58 2.36 12.77L4.36 14.44C4.56409 14.61 4.82745 14.6919 5.09197 14.6675C5.3565 14.6431 5.60046 14.5145 5.77 14.31C5.94006 14.1059 6.02193 13.8425 5.99754 13.578C5.97315 13.3135 5.84451 13.0695 5.64 12.9L4.56 12L5.64 11.1C5.84451 10.9304 5.97315 10.6865 5.99754 10.422C6.02193 10.1574 5.94006 9.89407 5.77 9.68998ZM21 9H13C12.4477 9 12 9.44771 12 10C12 10.5523 12.4477 11 13 11H21C21.5523 11 22 10.5523 22 10C22 9.44771 21.5523 9 21 9ZM21 12.9999H13C12.4477 12.9999 12 13.4477 12 13.9999C12 14.5522 12.4477 14.9999 13 14.9999H21C21.5523 14.9999 22 14.5522 22 13.9999C22 13.4477 21.5523 12.9999 21 12.9999ZM21 17H13C12.4477 17 12 17.4477 12 18C12 18.5523 12.4477 19 13 19H21C21.5523 19 22 18.5523 22 18C22 17.4477 21.5523 17 21 17Z" fill="#171E2B"/>
</svg>
