<svg width="24" height="24" viewBox="0 0 24 24" fill="none" xmlns="http://www.w3.org/2000/svg">
<path fill-rule="evenodd" clip-rule="evenodd" d="M3 6.99997H21C21.5523 6.99997 22 6.55225 22 5.99997C22 5.44768 21.5523 4.99997 21 4.99997H3C2.44772 4.99997 2 5.44768 2 5.99997C2 6.55225 2.44772 6.99997 3 6.99997ZM3 11H13C13.5523 11 14 10.5523 14 10C14 9.44771 13.5523 9 13 9H3C2.44772 9 2 9.44771 2 10C2 10.5523 2.44772 11 3 11ZM21.77 9.68995C21.599 9.48692 21.3544 9.36018 21.0899 9.33768C20.8254 9.31517 20.5628 9.39873 20.36 9.56995L18.36 11.23C18.1307 11.4199 17.9981 11.7022 17.9981 12C17.9981 12.2977 18.1307 12.58 18.36 12.77L20.36 14.43C20.5385 14.5826 20.7651 14.6676 21 14.67C21.2974 14.6704 21.5797 14.5385 21.77 14.31C21.9401 14.1059 22.0219 13.8425 21.9975 13.578C21.9732 13.3135 21.8445 13.0695 21.64 12.9L20.56 12L21.64 11.1C21.8445 10.9304 21.9732 10.6865 21.9975 10.4219C22.0219 10.1574 21.9401 9.89404 21.77 9.68995ZM21 17H3C2.44772 17 2 17.4477 2 18C2 18.5523 2.44772 19 3 19H21C21.5523 19 22 18.5523 22 18C22 17.4477 21.5523 17 21 17ZM3 14.9999H13C13.5523 14.9999 14 14.5522 14 13.9999C14 13.4477 13.5523 12.9999 13 12.9999H3C2.44772 12.9999 2 13.4477 2 13.9999C2 14.5522 2.44772 14.9999 3 14.9999Z" fill="#171E2B"/>
</svg>
