<svg width="24" height="24" viewBox="0 0 24 24" fill="none" xmlns="http://www.w3.org/2000/svg">
<path fill-rule="evenodd" clip-rule="evenodd" d="M17 11H5.40999L7.70999 8.70999C7.96365 8.45633 8.06271 8.08662 7.96987 7.74011C7.87702 7.39361 7.60637 7.12296 7.25987 7.03011C6.91336 6.93727 6.54365 7.03633 6.28999 7.28999L2.28999 11.29C2.19895 11.3851 2.12758 11.4972 2.07999 11.62C1.97997 11.8635 1.97997 12.1365 2.07999 12.38C2.12758 12.5027 2.19895 12.6149 2.28999 12.71L6.28999 16.71C6.47775 16.8993 6.73335 17.0058 6.99999 17.0058C7.26663 17.0058 7.52222 16.8993 7.70999 16.71C7.8993 16.5222 8.00579 16.2666 8.00579 16C8.00579 15.7334 7.8993 15.4778 7.70999 15.29L5.40999 13H17C17.5523 13 18 12.5523 18 12C18 11.4477 17.5523 11 17 11ZM21 4.00003C20.4477 4.00003 20 4.44775 20 5.00003V19C20 19.5523 20.4477 20 21 20C21.5523 20 22 19.5523 22 19V5.00003C22 4.44775 21.5523 4.00003 21 4.00003Z" fill="#171E2B"/>
</svg>
