<svg width="24" height="24" viewBox="0 0 24 24" fill="none" xmlns="http://www.w3.org/2000/svg">
<path fill-rule="evenodd" clip-rule="evenodd" d="M22 11.05C22 10.94 22 10.83 22 10.72L21.91 10.12L21.82 9.72997C21.82 9.55997 21.74 9.38997 21.69 9.21997C21.64 9.04997 21.61 8.94997 21.56 8.81997C21.5321 8.74138 21.5087 8.66125 21.49 8.57997C21.49 8.57997 21.49 8.57997 21.49 8.52997C20.4656 5.80489 18.3151 3.6544 15.59 2.62997C15.59 2.62997 15.59 2.62997 15.54 2.62997L15.31 2.55997L14.89 2.42997C14.74 2.42997 14.58 2.34997 14.43 2.30997L13.97 2.20997L13.51 2.13997C13.35 2.13997 13.2 2.13997 13.03 2.07997C12.86 2.01997 12.68 2.07997 12.51 2.07997L12 1.99997H11.61C11.44 1.99997 11.26 1.99997 11.09 1.99997C10.92 1.99997 10.77 1.99997 10.61 2.05997L10.15 2.12997L9.69 2.22997C9.54 2.22997 9.38 2.29997 9.23 2.34997L8.81 2.47997L8.58 2.54997C8.58 2.54997 8.58 2.54997 8.53 2.54997C5.80492 3.5744 3.65443 5.72489 2.63 8.44997C2.63 8.44997 2.63 8.44997 2.63 8.49997C2.61129 8.58125 2.58792 8.66138 2.56 8.73997C2.56 8.86997 2.47 8.99997 2.43 9.13997C2.39 9.27997 2.34 9.47997 2.3 9.64997L2.21 10.04L2.12 10.64C2.12 10.75 2.12 10.86 2.12 10.97C2.12 11.28 2.12 11.6 2.12 11.92C2.12 12.24 2.12 12.56 2.12 12.87C2.12 12.98 2.12 13.09 2.12 13.2L2.21 13.8L2.3 14.19C2.3 14.36 2.38 14.53 2.43 14.7C2.48 14.87 2.51 14.97 2.56 15.1C2.58792 15.1786 2.61129 15.2587 2.63 15.34C2.6319 15.3633 2.6319 15.3867 2.63 15.41C3.6457 18.1327 5.79556 20.2789 8.52 21.29C8.52 21.29 8.52 21.29 8.57 21.29L8.81 21.36L9.21 21.49L9.72 21.62L10.11 21.71L10.71 21.8H11.04C11.35 21.8 11.67 21.85 11.99 21.85C12.31 21.85 12.63 21.85 12.94 21.8H13.27L13.87 21.71L14.26 21.62L14.77 21.49L15.17 21.36L15.41 21.29C15.41 21.29 15.41 21.29 15.46 21.29C18.1844 20.2789 20.3343 18.1327 21.35 15.41C21.3481 15.3867 21.3481 15.3633 21.35 15.34C21.35 15.26 21.4 15.18 21.42 15.1C21.44 15.02 21.51 14.84 21.55 14.7C21.59 14.56 21.64 14.36 21.68 14.19L21.77 13.8L21.86 13.2C21.86 13.09 21.86 12.98 21.86 12.87C21.86 12.56 21.91 12.24 21.91 11.92C21.91 11.6 22 11.36 22 11.05ZM15.7 4.89C17.1864 5.65365 18.3963 6.8636 19.16 8.35L16.3 9.35C15.8854 8.68553 15.3245 8.12458 14.66 7.71L15.7 4.89ZM10.34 4.19C10.55 4.14 10.75 4.11 10.95 4.08H11.19C11.7618 4.01999 12.3382 4.01999 12.91 4.08H13.15C13.35 4.08 13.55 4.14 13.76 4.19H13.82L12.82 7.05C12.5488 7.00831 12.2743 6.99157 12 7C11.7554 6.99967 11.5112 7.01974 11.27 7.06L10.27 4.2L10.34 4.19ZM8.39999 4.89L9.39999 7.75C8.73188 8.16338 8.16743 8.72442 7.74999 9.39L4.88999 8.39C5.64689 6.88874 6.85753 5.66411 8.34999 4.89H8.39999ZM4.19 13.71C4.1421 13.5127 4.10868 13.3122 4.09 13.11C4.09 13.02 4.09 12.94 4.09 12.86C4.02332 12.2886 4.02332 11.7114 4.09 11.14C4.09 11.06 4.09 10.98 4.09 10.89C4.10868 10.6878 4.1421 10.4873 4.19 10.29C4.19 10.29 4.19 10.29 4.19 10.23L7.05 11.23C6.96998 11.7134 6.96998 12.2066 7.05 12.69L4.19 13.69C4.19 13.69 4.19 13.73 4.19 13.71ZM8.34999 19.1099C6.86359 18.3463 5.65364 17.1363 4.88999 15.6499L7.74999 14.6499C8.16457 15.3144 8.72552 15.8754 9.38999 16.2899L8.34999 19.1099ZM13.71 19.81C13.5 19.86 13.3 19.89 13.1 19.92H12.86C12.2882 19.98 11.7118 19.98 11.14 19.92H10.9C10.7 19.92 10.5 19.86 10.29 19.81H10.23L11.23 16.95C11.7134 17.03 12.2066 17.03 12.69 16.95L13.69 19.81H13.71ZM13.04 14.81C12.87 14.87 12.7 14.91 12.54 14.95C12.2095 15.0116 11.8705 15.0116 11.54 14.95C11.38 14.95 11.21 14.87 11.04 14.81C10.1852 14.5148 9.50917 13.8498 9.19999 13C9.13946 12.8341 9.09264 12.6635 9.05999 12.49C8.99604 12.1597 8.99604 11.8202 9.05999 11.49C9.09042 11.3235 9.13389 11.1597 9.18999 11C9.49523 10.1604 10.1588 9.50057 11 9.19998C11.17 9.13998 11.34 9.09998 11.5 9.05998C11.8305 8.99841 12.1695 8.99841 12.5 9.05998C12.66 9.05998 12.83 9.13998 13 9.19998C13.8374 9.50306 14.4969 10.1625 14.8 11C14.8605 11.1659 14.9073 11.3364 14.94 11.51C15.0039 11.8402 15.0039 12.1797 14.94 12.51C14.9073 12.6835 14.8605 12.8541 14.8 13.02C14.492 13.8498 13.8332 14.5012 13 14.8L13.04 14.81ZM15.65 19.1199L14.65 16.2599C15.3145 15.8454 15.8754 15.2844 16.29 14.6199L19.15 15.6199C18.381 17.1235 17.1558 18.3452 15.65 19.1099V19.1199ZM20 12.86C20 12.94 20 13.02 20 13.11C19.9813 13.3121 19.9479 13.5127 19.9 13.71C19.9 13.71 19.9 13.71 19.9 13.77L17.04 12.77C17.12 12.2866 17.12 11.7933 17.04 11.31L19.9 10.31C19.9 10.31 19.9 10.31 19.9 10.37C19.9479 10.5673 19.9813 10.7678 20 10.97C20 11.06 20 11.14 20 11.22C20.0667 11.7914 20.0667 12.3686 20 12.94V12.86Z" fill="#171E2B"/>
</svg>
