<svg width="24" height="24" viewBox="0 0 24 24" fill="none" xmlns="http://www.w3.org/2000/svg">
<path fill-rule="evenodd" clip-rule="evenodd" d="M17.09 2.81999C15.2274 1.28806 12.7731 0.67816 10.41 1.15999C7.23261 1.8018 4.75657 4.29759 4.14001 7.47999C3.69428 9.84219 4.32484 12.2801 5.86001 14.13C6.56369 14.9241 6.96704 15.9395 7.00001 17V20C7.00001 21.6568 8.34315 23 10 23H14C15.6569 23 17 21.6568 17 20V17.19C17.0336 16.0192 17.4637 14.8944 18.22 14C20.978 10.5883 20.4739 5.59199 17.09 2.79999V2.81999ZM15 20C15 20.5523 14.5523 21 14 21H10C9.44772 21 9.00001 20.5523 9.00001 20V19H15V20ZM16.67 12.7599C15.6645 13.9525 15.0779 15.442 15 16.9999H13V13.9999C13 13.4477 12.5523 12.9999 12 12.9999C11.4477 12.9999 11 13.4477 11 13.9999V16.9999H9.00002C8.97363 15.468 8.40696 13.9947 7.40002 12.8399C6.0486 11.2207 5.64657 9.01089 6.3411 7.01947C7.03564 5.02805 8.72475 3.54752 10.79 3.11994C12.557 2.75612 14.394 3.2067 15.7921 4.34689C17.1902 5.48709 18.001 7.19586 18 8.99994C18.0074 10.3698 17.5371 11.6994 16.67 12.7599Z" fill="#171E2B"/>
</svg>
