<svg width="24" height="24" viewBox="0 0 24 24" fill="none" xmlns="http://www.w3.org/2000/svg">
<path fill-rule="evenodd" clip-rule="evenodd" d="M17.45 12.46C19.8808 9.46712 19.4337 5.07209 16.45 2.63001C14.7873 1.29747 12.6135 0.783383 10.53 1.23001C8.18198 1.74934 6.26491 3.43759 5.45289 5.70111C4.64086 7.96463 5.04757 10.4865 6.53 12.38C7.19468 13.1887 7.57426 14.1939 7.61 15.24V15.53C7.22949 15.8976 7.01015 16.401 7 16.93V18.93C7 20.0346 7.89543 20.93 9 20.93V21.93C9 22.4823 9.44772 22.93 10 22.93C10.5523 22.93 11 22.4823 11 21.93V20.93H13V21.93C13 22.4823 13.4477 22.93 14 22.93C14.5523 22.93 15 22.4823 15 21.93V20.93C16.1046 20.93 17 20.0346 17 18.93V16.93C17.0005 16.4067 16.7958 15.9041 16.43 15.53V15.1C16.4592 14.1295 16.8191 13.198 17.45 12.46ZM9 18.93V16.93H15V18.93H9ZM15.89 11.21C15.0048 12.2541 14.4913 13.5625 14.43 14.93H9.56C9.46567 13.5445 8.94129 12.2231 8.06 11.15C6.98374 9.7993 6.68071 7.98885 7.25848 6.36133C7.83625 4.73381 9.21301 3.51968 10.9 3.14997C12.3894 2.81401 13.9507 3.177 15.1392 4.13556C16.3277 5.09412 17.013 6.54317 17 8.06997C17.0063 9.21385 16.6138 10.3242 15.89 11.21Z" fill="#171E2B"/>
</svg>
