<svg width="24" height="24" viewBox="0 0 24 24" fill="none" xmlns="http://www.w3.org/2000/svg">
<path fill-rule="evenodd" clip-rule="evenodd" d="M6.29 9.71002C6.47777 9.89933 6.73337 10.0058 7 10.0058C7.26664 10.0058 7.52224 9.89933 7.71 9.71002C7.89932 9.52225 8.0058 9.26666 8.0058 9.00002C8.0058 8.73338 7.89932 8.47779 7.71 8.29002L5.71 6.29002C5.6149 6.19898 5.50275 6.12761 5.38 6.08002C5.13654 5.98 4.86346 5.98 4.62 6.08002C4.49725 6.12761 4.38511 6.19898 4.29 6.29002L2.29 8.29002C1.89788 8.68214 1.89788 9.3179 2.29 9.71002C2.68212 10.1021 3.31788 10.1021 3.71 9.71002L4 9.41002V14.59L3.71 14.29C3.31788 13.8979 2.68212 13.8979 2.29 14.29C1.89788 14.6821 1.89788 15.3179 2.29 15.71L4.29 17.71C4.38511 17.8011 4.49725 17.8724 4.62 17.92C4.86204 18.027 5.13796 18.027 5.38 17.92C5.50275 17.8724 5.6149 17.8011 5.71 17.71L7.71 15.71C7.96366 15.4564 8.06273 15.0866 7.96988 14.7401C7.87704 14.3936 7.60639 14.123 7.25988 14.0301C6.91338 13.9373 6.54366 14.0364 6.29 14.29L6 14.59V9.41002L6.29 9.71002ZM11 8H21C21.5523 8 22 7.55228 22 7C22 6.44771 21.5523 6 21 6H11C10.4477 6 9.99998 6.44771 9.99998 7C9.99998 7.55228 10.4477 8 11 8ZM21 11H11C10.4477 11 9.99998 11.4477 9.99998 12C9.99998 12.5523 10.4477 13 11 13H21C21.5523 13 22 12.5523 22 12C22 11.4477 21.5523 11 21 11ZM21 16H11C10.4477 16 9.99998 16.4477 9.99998 17C9.99998 17.5523 10.4477 18 11 18H21C21.5523 18 22 17.5523 22 17C22 16.4477 21.5523 16 21 16Z" fill="#171E2B"/>
</svg>
