<svg width="24" height="24" viewBox="0 0 24 24" fill="none" xmlns="http://www.w3.org/2000/svg">
<path fill-rule="evenodd" clip-rule="evenodd" d="M8 11.9999C8 12.5522 8.44772 12.9999 9 12.9999H15C15.5523 12.9999 16 12.5522 16 11.9999C16 11.4476 15.5523 10.9999 15 10.9999H9C8.44772 10.9999 8 11.4476 8 11.9999ZM10 14.9999H7C5.34315 14.9999 4 13.6568 4 11.9999C4 10.3431 5.34315 8.99994 7 8.99994H10C10.5523 8.99994 11 8.55222 11 7.99994C11 7.44765 10.5523 6.99994 10 6.99994H7C4.23858 6.99994 2 9.23852 2 11.9999C2 14.7614 4.23858 16.9999 7 16.9999H10C10.5523 16.9999 11 16.5522 11 15.9999C11 15.4477 10.5523 14.9999 10 14.9999ZM17 6.99994H14C13.4477 6.99994 13 7.44765 13 7.99994C13 8.55222 13.4477 8.99994 14 8.99994H17C18.6568 8.99994 20 10.3431 20 11.9999C20 13.6568 18.6568 14.9999 17 14.9999H14C13.4477 14.9999 13 15.4477 13 15.9999C13 16.5522 13.4477 16.9999 14 16.9999H17C19.7614 16.9999 22 14.7614 22 11.9999C22 9.23852 19.7614 6.99994 17 6.99994Z" fill="#171E2B"/>
</svg>
