<svg width="24" height="24" viewBox="0 0 24 24" fill="none" xmlns="http://www.w3.org/2000/svg">
<path fill-rule="evenodd" clip-rule="evenodd" d="M10 17.55L8.23002 19.27C7.26353 20.2365 5.69652 20.2365 4.73002 19.27C3.76353 18.3035 3.76353 16.7365 4.73002 15.77L9.27002 11.22C10.1955 10.2915 11.6866 10.2519 12.66 11.13L12.78 11.23C13.1749 11.6166 13.8084 11.6099 14.195 11.215C14.5816 10.8201 14.5749 10.1866 14.18 9.79999C14.1236 9.72701 14.0635 9.65693 14 9.58999C12.2286 8.04882 9.56563 8.14502 7.91002 9.80999L3.31002 14.36C1.68598 16.1277 1.74385 18.8614 3.44126 20.5588C5.13866 22.2562 7.8723 22.314 9.64002 20.69L11.37 19C11.7244 18.6134 11.7199 18.0187 11.3597 17.6375C10.9996 17.2563 10.4061 17.2181 10 17.55ZM20.69 3.31C18.9389 1.56972 16.1112 1.56972 14.36 3.31L12.63 5C12.2757 5.3866 12.2801 5.98129 12.6403 6.36249C13.0005 6.74369 13.594 6.78189 14 6.45L15.73 4.73C16.6965 3.76351 18.2635 3.76351 19.23 4.73C20.1965 5.6965 20.1965 7.2635 19.23 8.23L14.69 12.78C13.7645 13.7085 12.2735 13.7481 11.3 12.87L11.18 12.77C10.7851 12.3834 10.1516 12.3901 9.76502 12.785C9.37842 13.1799 9.38514 13.8134 9.78002 14.2C9.85266 14.2743 9.92945 14.3444 10.01 14.41C11.7832 15.9462 14.4423 15.8501 16.1 14.19L20.65 9.64C22.4014 7.89986 22.4193 5.07214 20.69 3.31Z" fill="#171E2B"/>
</svg>
