<svg width="24" height="24" viewBox="0 0 24 24" fill="none" xmlns="http://www.w3.org/2000/svg">
<path fill-rule="evenodd" clip-rule="evenodd" d="M12.11 15.39L8.23001 19.27C7.25362 20.2123 5.70639 20.2123 4.73001 19.27C4.26468 18.8065 4.00311 18.1767 4.00311 17.52C4.00311 16.8632 4.26468 16.2335 4.73001 15.77L8.61001 11.89C9.00213 11.4978 9.00213 10.8621 8.61001 10.47C8.21789 10.0778 7.58213 10.0778 7.19001 10.47L3.31001 14.36C1.68597 16.1277 1.74384 18.8613 3.44124 20.5587C5.13864 22.2561 7.87229 22.314 9.64001 20.69L13.53 16.81C13.9221 16.4178 13.9221 15.7821 13.53 15.39C13.1379 14.9978 12.5021 14.9978 12.11 15.39ZM20.69 3.31C18.9388 1.56972 16.1112 1.56972 14.36 3.31L10.47 7.19C10.2163 7.44366 10.1173 7.81338 10.2101 8.15988C10.303 8.50638 10.5736 8.77704 10.9201 8.86988C11.2666 8.96273 11.6363 8.86366 11.89 8.61L15.77 4.73C16.7464 3.78768 18.2936 3.78768 19.27 4.73C19.7353 5.1935 19.9969 5.82323 19.9969 6.48C19.9969 7.13678 19.7353 7.76651 19.27 8.23L15.39 12.11C15.2007 12.2978 15.0942 12.5534 15.0942 12.82C15.0942 13.0866 15.2007 13.3422 15.39 13.53C15.5778 13.7193 15.8334 13.8258 16.1 13.8258C16.3666 13.8258 16.6222 13.7193 16.81 13.53L20.69 9.64C22.4303 7.88884 22.4303 5.06117 20.69 3.31ZM8.83002 15.1701C9.01874 15.3573 9.27422 15.4616 9.54002 15.4601C9.80583 15.4616 10.0613 15.3573 10.25 15.1701L15.17 10.2501C15.5621 9.85796 15.5621 9.22221 15.17 8.83009C14.7779 8.43797 14.1421 8.43797 13.75 8.83009L8.83002 13.7501C8.64071 13.9379 8.53422 14.1934 8.53422 14.4601C8.53422 14.7267 8.64071 14.9823 8.83002 15.1701Z" fill="#171E2B"/>
</svg>
