<svg width="24" height="24" viewBox="0 0 24 24" fill="none" xmlns="http://www.w3.org/2000/svg">
<path fill-rule="evenodd" clip-rule="evenodd" d="M4.64718 7.85432C6.15335 7.85432 7.37434 6.63333 7.37434 5.12716C7.37434 3.62099 6.15335 2.39999 4.64718 2.39999C3.14101 2.39999 1.92001 3.62099 1.92001 5.12716C1.92001 6.63333 3.14101 7.85432 4.64718 7.85432ZM4.64719 6.03622C4.14513 6.03622 3.73813 5.62923 3.73813 5.12717C3.73813 4.62511 4.14513 4.21811 4.64719 4.21811C5.14925 4.21811 5.55624 4.62511 5.55624 5.12717C5.55624 5.62923 5.14925 6.03622 4.64719 6.03622ZM21.9192 14.2177C21.9192 10.7033 19.0702 7.85436 15.5558 7.85436C12.0414 7.85436 9.19245 10.7033 9.19245 14.2177V20.5811C9.19245 21.0832 9.59945 21.4902 10.1015 21.4902H13.7377C14.2398 21.4902 14.6468 21.0832 14.6468 20.5811V14.2177C14.6468 13.7157 15.0538 13.3087 15.5558 13.3087C16.0579 13.3087 16.4649 13.7157 16.4649 14.2177V20.5811C16.4649 21.0832 16.8719 21.4902 17.3739 21.4902H21.0102C21.5122 21.4902 21.9192 21.0832 21.9192 20.5811V14.2177ZM20.1011 14.2177V19.6721H18.283V14.2177C18.283 12.7116 17.062 11.4906 15.5558 11.4906C14.0497 11.4906 12.8287 12.7116 12.8287 14.2177V19.6721H11.0106V14.2177C11.0106 11.7075 13.0456 9.67248 15.5558 9.67248C18.0661 9.67248 20.1011 11.7075 20.1011 14.2177ZM2.82907 8.76332C2.32701 8.76332 1.92001 9.17032 1.92001 9.67238V20.581C1.92001 21.0831 2.32701 21.4901 2.82907 21.4901H6.46529C6.96734 21.4901 7.37434 21.0831 7.37434 20.581V9.67238C7.37434 9.17032 6.96734 8.76332 6.46529 8.76332H2.82907ZM3.73813 19.672V10.5814H5.55624V19.672H3.73813Z" fill="#171E2B"/>
</svg>
