<svg width="24" height="24" viewBox="0 0 24 24" fill="none" xmlns="http://www.w3.org/2000/svg">
<path fill-rule="evenodd" clip-rule="evenodd" d="M4.76 10.5901C5.31228 10.6619 5.8182 10.2724 5.89 9.72007C5.96179 9.16779 5.57228 8.66187 5.02 8.59007L3.26 8.15007C2.9106 8.04296 2.5306 8.13497 2.26891 8.39005C2.00721 8.64512 1.9055 9.02264 2.00362 9.37467C2.10175 9.72669 2.38408 9.99715 2.74 10.0801L4.5 10.5501C4.58377 10.578 4.67169 10.5916 4.76 10.5901ZM8.61998 5.00006C8.74064 5.44928 9.15511 5.75599 9.61998 5.74006C9.70609 5.75389 9.79386 5.75389 9.87998 5.74006C10.4082 5.59393 10.7204 5.04984 10.58 4.52006L10.11 2.76006C10.0271 2.40415 9.75659 2.12181 9.40457 2.02369C9.05255 1.92556 8.67503 2.02728 8.41995 2.28897C8.16487 2.55067 8.07286 2.93067 8.17998 3.28006L8.61998 5.00006ZM13.45 15C13.2612 14.8013 12.9991 14.6887 12.725 14.6887C12.4509 14.6887 12.1888 14.8013 12 15L8.50001 18.56C7.64495 19.3803 6.29506 19.3803 5.44001 18.56C5.03082 18.156 4.8005 17.605 4.8005 17.03C4.8005 16.455 5.03082 15.904 5.44001 15.5L9.00001 12C9.28538 11.7556 9.40969 11.3719 9.32182 11.0066C9.23394 10.6413 8.94873 10.356 8.58342 10.2682C8.21812 10.1803 7.8344 10.3046 7.59001 10.59L4.00001 14.08C2.9425 15.1375 2.5295 16.6788 2.91657 18.1234C3.30365 19.568 4.43199 20.6963 5.87657 21.0834C7.32115 21.4705 8.8625 21.0575 9.92001 20L13.45 16.47C13.6552 16.2807 13.7719 16.0142 13.7719 15.735C13.7719 15.4558 13.6552 15.1893 13.45 15ZM5.17999 6.59009C5.36625 6.77483 5.61765 6.87898 5.87999 6.88009C6.14579 6.88162 6.40127 6.77727 6.58999 6.59009C6.97771 6.20005 6.97771 5.57012 6.58999 5.18009L5.29999 3.89009C4.90323 3.55031 4.31179 3.57315 3.94243 3.94252C3.57306 4.31189 3.55021 4.90333 3.88999 5.30009L5.17999 6.59009ZM21.26 13.92L19.5 13.45C19.1444 13.3271 18.7499 13.4141 18.4791 13.6753C18.2083 13.9365 18.107 14.3275 18.2169 14.6873C18.3269 15.0471 18.6295 15.3148 19 15.38L20.76 15.85H21.02C21.5723 15.9218 22.0782 15.5323 22.15 14.98C22.2218 14.4277 21.8323 13.9218 21.28 13.85L21.26 13.92ZM15.38 19.0001C15.3099 18.744 15.1408 18.5264 14.9101 18.3951C14.6794 18.2638 14.4059 18.2296 14.15 18.3001C13.6218 18.4462 13.3096 18.9903 13.45 19.5201L13.92 21.2801C14.0407 21.7293 14.4551 22.036 14.92 22.0201C15.0064 22.0299 15.0936 22.0299 15.18 22.0201C15.4379 21.9521 15.6579 21.784 15.7913 21.553C15.9246 21.322 15.9601 21.0474 15.89 20.7901L15.38 19.0001ZM18.82 17.43C18.4232 17.0902 17.8318 17.1131 17.4624 17.4825C17.0931 17.8518 17.0702 18.4433 17.41 18.84L18.7 20.13C19.09 20.5177 19.72 20.5177 20.11 20.13C20.4977 19.74 20.4977 19.1101 20.11 18.72L18.82 17.43ZM21.2 7.00012C21.2318 5.29874 20.2242 3.74954 18.656 3.0888C17.0878 2.42806 15.2754 2.78902 14.08 4.00012L10.55 7.56012C10.2928 7.81914 10.1932 8.19571 10.2889 8.54799C10.3847 8.90027 10.661 9.17473 11.014 9.26799C11.3669 9.36125 11.7428 9.25914 12 9.00012L15.5 5.44012C16.355 4.61978 17.7049 4.61978 18.56 5.44012C18.9692 5.84409 19.1995 6.39512 19.1995 6.97012C19.1995 7.54512 18.9692 8.09615 18.56 8.50012L15 12.0001C14.6123 12.3902 14.6123 13.0201 15 13.4101C15.39 13.7978 16.02 13.7978 16.41 13.4101L20 9.92012C20.7654 9.14047 21.196 8.09268 21.2 7.00012Z" fill="#171E2B"/>
</svg>
