<svg width="24" height="24" viewBox="0 0 24 24" fill="none" xmlns="http://www.w3.org/2000/svg">
<path fill-rule="evenodd" clip-rule="evenodd" d="M3.5 6C2.94772 6 2.5 6.44771 2.5 7C2.5 7.55228 2.94772 8 3.5 8C4.05229 8 4.5 7.55228 4.5 7C4.5 6.44771 4.05229 6 3.5 6ZM7.5 8H21.5C22.0523 8 22.5 7.55228 22.5 7C22.5 6.44771 22.0523 6 21.5 6H7.5C6.94771 6 6.5 6.44771 6.5 7C6.5 7.55228 6.94771 8 7.5 8ZM7.5 11.0001C6.94772 11.0001 6.5 11.4478 6.5 12.0001C6.5 12.5523 6.94772 13.0001 7.5 13.0001C8.05229 13.0001 8.5 12.5523 8.5 12.0001C8.5 11.4478 8.05229 11.0001 7.5 11.0001ZM11.5 15.9999C10.9477 15.9999 10.5 16.4477 10.5 16.9999C10.5 17.5522 10.9477 17.9999 11.5 17.9999C12.0523 17.9999 12.5 17.5522 12.5 16.9999C12.5 16.4477 12.0523 15.9999 11.5 15.9999ZM21.5 11.0001H11.5C10.9477 11.0001 10.5 11.4478 10.5 12.0001C10.5 12.5523 10.9477 13.0001 11.5 13.0001H21.5C22.0523 13.0001 22.5 12.5523 22.5 12.0001C22.5 11.4478 22.0523 11.0001 21.5 11.0001ZM21.5 15.9999H15.5C14.9477 15.9999 14.5 16.4477 14.5 16.9999C14.5 17.5522 14.9477 17.9999 15.5 17.9999H21.5C22.0523 17.9999 22.5 17.5522 22.5 16.9999C22.5 16.4477 22.0523 15.9999 21.5 15.9999Z" fill="#171E2B"/>
</svg>
