<svg width="24" height="24" viewBox="0 0 24 24" fill="none" xmlns="http://www.w3.org/2000/svg">
<path fill-rule="evenodd" clip-rule="evenodd" d="M3.70999 16.29C3.61489 16.1989 3.50274 16.1276 3.37999 16.08C3.13653 15.9799 2.86345 15.9799 2.61999 16.08C2.49724 16.1276 2.38509 16.1989 2.28999 16.29C2.19895 16.3851 2.12758 16.4972 2.07999 16.62C1.92339 16.9924 2.00624 17.4224 2.28999 17.71C2.38719 17.7983 2.4988 17.8693 2.61999 17.92C2.86203 18.0269 3.13795 18.0269 3.37999 17.92C3.50117 17.8693 3.61279 17.7983 3.70999 17.71C3.99373 17.4224 4.07659 16.9924 3.91999 16.62C3.87239 16.4972 3.80103 16.3851 3.70999 16.29ZM6.99999 8H21C21.5523 8 22 7.55228 22 7C22 6.44771 21.5523 6 21 6H6.99999C6.4477 6 5.99999 6.44771 5.99999 7C5.99999 7.55228 6.4477 8 6.99999 8ZM3.70999 11.29C3.42243 11.0062 2.99239 10.9234 2.61999 11.08C2.4988 11.1306 2.38719 11.2016 2.28999 11.29C2.19895 11.3851 2.12758 11.4972 2.07999 11.62C1.97301 11.862 1.97301 12.1379 2.07999 12.38C2.13063 12.5012 2.20166 12.6128 2.28999 12.71C2.38719 12.7983 2.4988 12.8693 2.61999 12.92C2.86203 13.0269 3.13795 13.0269 3.37999 12.92C3.50117 12.8693 3.61279 12.7983 3.70999 12.71C3.79832 12.6128 3.86935 12.5012 3.91999 12.38C4.02697 12.1379 4.02697 11.862 3.91999 11.62C3.87239 11.4972 3.80103 11.3851 3.70999 11.29ZM21 11.0001H6.99999C6.4477 11.0001 5.99999 11.4478 5.99999 12.0001C5.99999 12.5523 6.4477 13.0001 6.99999 13.0001H21C21.5523 13.0001 22 12.5523 22 12.0001C22 11.4478 21.5523 11.0001 21 11.0001ZM3.70999 6.29009C3.61488 6.19905 3.50274 6.12768 3.37999 6.08009C3.00759 5.92349 2.57755 6.00634 2.28999 6.29009C2.20166 6.38729 2.13063 6.4989 2.07999 6.62009C1.97301 6.86213 1.97301 7.13805 2.07999 7.38009C2.13063 7.50128 2.20166 7.61289 2.28999 7.71009C2.38719 7.79842 2.4988 7.86945 2.61999 7.92009C2.99239 8.07669 3.42243 7.99384 3.70999 7.71009C3.79832 7.61289 3.86935 7.50128 3.91999 7.38009C4.02697 7.13805 4.02697 6.86213 3.91999 6.62009C3.86935 6.4989 3.79832 6.38729 3.70999 6.29009ZM21 15.9999H6.99999C6.4477 15.9999 5.99999 16.4477 5.99999 16.9999C5.99999 17.5522 6.4477 17.9999 6.99999 17.9999H21C21.5523 17.9999 22 17.5522 22 16.9999C22 16.4477 21.5523 15.9999 21 15.9999Z" fill="#171E2B"/>
</svg>
