<svg width="24" height="24" viewBox="0 0 24 24" fill="none" xmlns="http://www.w3.org/2000/svg">
<path fill-rule="evenodd" clip-rule="evenodd" d="M21.68 17.6501L14.68 3.65008C14.1705 2.63732 13.1337 1.99826 12 1.99826C10.8663 1.99826 9.82948 2.63732 9.32001 3.65008L2.32001 17.6501C1.75662 18.782 1.96344 20.1457 2.83713 21.0597C3.71082 21.9738 5.06379 22.2419 6.22001 21.7301L11.59 19.3301C11.8523 19.2201 12.1477 19.2201 12.41 19.3301L17.78 21.7301C18.9362 22.2419 20.2892 21.9738 21.1629 21.0597C22.0366 20.1457 22.2434 18.782 21.68 17.6501ZM19.68 19.6501C19.3875 19.9546 18.9353 20.0427 18.55 19.8701L13.18 17.4801C12.4034 17.1344 11.5166 17.1344 10.74 17.4801L5.41 19.9001C5.02697 20.0665 4.58084 19.9774 4.29115 19.6766C4.00146 19.3757 3.92923 18.9266 4.11 18.5501L11.11 4.55009C11.2811 4.21612 11.6248 4.00605 12 4.00605C12.3752 4.00605 12.7189 4.21612 12.89 4.55009L19.89 18.5501C20.0753 18.9252 20.0075 19.3761 19.72 19.6801L19.68 19.6501Z" fill="#171E2B"/>
</svg>
