<svg width="24" height="24" viewBox="0 0 24 24" fill="none" xmlns="http://www.w3.org/2000/svg">
<path fill-rule="evenodd" clip-rule="evenodd" d="M21.15 2.85991C20.3703 2.0651 19.2033 1.78892 18.15 2.14991L3.99999 6.87991C2.83042 7.26275 2.02983 8.34207 2.00284 9.57241C1.97585 10.8028 2.72833 11.9162 3.87999 12.3499L9.11999 14.3499C9.36119 14.4421 9.55318 14.6305 9.64999 14.8699L11.65 20.1199C12.0671 21.2549 13.1508 22.0067 14.36 21.9999H14.43C15.6622 21.9775 16.7436 21.1735 17.12 19.9999L21.85 5.82991C22.2009 4.78737 21.9295 3.63601 21.15 2.85991ZM20 5.19999L15.22 19.38C15.1061 19.7484 14.7656 19.9997 14.38 20C13.9976 20.0063 13.6513 19.7753 13.51 19.42L11.51 14.17C11.2167 13.3985 10.6097 12.7878 9.83998 12.49L4.58998 10.49C4.22679 10.3569 3.98926 10.0066 3.99998 9.61999C4.00029 9.23439 4.2516 8.89391 4.61998 8.77999L18.8 4.04999C19.1326 3.91444 19.5138 3.98718 19.7731 4.23568C20.0324 4.48417 20.1213 4.86194 20 5.19999Z" fill="#171E2B"/>
</svg>
