<svg width="24" height="24" viewBox="0 0 24 24" fill="none" xmlns="http://www.w3.org/2000/svg">
<path fill-rule="evenodd" clip-rule="evenodd" d="M12 10.7999C13.1046 10.7999 14 9.90444 14 8.79987C14 7.6953 13.1046 6.79987 12 6.79987C10.8954 6.79987 10 7.6953 10 8.79987C10 9.90444 10.8954 10.7999 12 10.7999ZM11.29 17.71C11.4778 17.8993 11.7334 18.0058 12 18.0058C12.2666 18.0058 12.5222 17.8993 12.71 17.71L16.8 13.61C18.7427 11.6683 19.3242 8.74754 18.2735 6.20986C17.2227 3.67217 14.7466 2.01746 12 2.01746C9.25338 2.01746 6.77728 3.67217 5.72652 6.20986C4.67577 8.74754 5.25734 11.6683 7.2 13.61L11.29 17.71ZM7.22998 8.33993C7.36836 6.89595 8.151 5.59154 9.35998 4.78993C10.9627 3.7376 13.0373 3.7376 14.64 4.78993C15.8406 5.58863 16.6206 6.88298 16.7658 8.31771C16.9111 9.75245 16.4063 11.1768 15.39 12.1999L12 15.5899L8.60998 12.1999C7.59237 11.1866 7.08547 9.76873 7.22998 8.33993ZM19 19.9999H5C4.44772 19.9999 4 20.4476 4 20.9999C4 21.5522 4.44772 21.9999 5 21.9999H19C19.5523 21.9999 20 21.5522 20 20.9999C20 20.4476 19.5523 19.9999 19 19.9999Z" fill="#171E2B"/>
</svg>
