<svg width="24" height="24" viewBox="0 0 24 24" fill="none" xmlns="http://www.w3.org/2000/svg">
<path fill-rule="evenodd" clip-rule="evenodd" d="M18 4.48003C14.6863 1.16632 9.31371 1.16632 6.00001 4.48003C2.6863 7.79374 2.6863 13.1663 6.00001 16.48L11.27 21.76C11.4578 21.9493 11.7134 22.0558 11.98 22.0558C12.2466 22.0558 12.5022 21.9493 12.69 21.76L18 16.43C21.2999 13.1301 21.2999 7.77995 18 4.48003ZM16.57 15L12 19.59L7.43001 15C4.90893 12.4766 4.91017 8.38743 7.4328 5.86558C9.95543 3.34372 14.0446 3.34372 16.5672 5.86558C19.0899 8.38743 19.0911 12.4766 16.57 15ZM8.99999 7.41001C7.31918 9.09599 7.31918 11.824 8.99999 13.51C10.2263 14.7384 12.0697 15.1113 13.6771 14.4562C15.2844 13.801 16.3419 12.2456 16.36 10.51C16.3691 9.36491 15.9146 8.26481 15.1 7.46001C14.2995 6.64116 13.2055 6.17542 12.0604 6.16604C10.9153 6.15665 9.81379 6.60439 8.99999 7.41001ZM13.69 12.09C12.9085 12.8835 11.6747 13.0129 10.7455 12.399C9.81633 11.785 9.45156 10.5993 9.87497 9.56919C10.2984 8.5391 11.3916 7.95268 12.484 8.16965C13.5763 8.38663 14.3624 9.34632 14.36 10.46C14.3455 11.0773 14.0865 11.6636 13.64 12.09H13.69Z" fill="#171E2B"/>
</svg>
