<svg width="24" height="24" viewBox="0 0 24 24" fill="none" xmlns="http://www.w3.org/2000/svg">
<path fill-rule="evenodd" clip-rule="evenodd" d="M14.49 10.8599C15.4194 9.58045 15.2328 7.80568 14.0575 6.74751C12.8823 5.68934 11.0977 5.68934 9.92243 6.74751C8.74715 7.80568 8.56052 9.58045 9.48999 10.8599C9.06516 11.1307 8.68694 11.4684 8.36999 11.8599C8.14491 12.1511 8.09227 12.5402 8.23189 12.8808C8.37151 13.2213 8.68219 13.4614 9.04689 13.5108C9.41159 13.5601 9.77491 13.4111 9.99999 13.1199C10.4948 12.4911 11.2498 12.1227 12.05 12.1199C12.8502 12.1227 13.6052 12.4911 14.1 13.1199C14.2906 13.3549 14.5774 13.491 14.88 13.4899C15.2625 13.4882 15.6105 13.2684 15.7764 12.9238C15.9423 12.5791 15.8971 12.1701 15.66 11.8699C15.3288 11.4706 14.9334 11.1293 14.49 10.8599ZM12 10.13C11.4033 10.1296 10.9178 9.64947 10.9108 9.05282C10.9038 8.45616 11.3778 7.96476 11.9743 7.95029C12.5708 7.93582 13.0681 8.40368 13.09 8.99997C13.1008 9.29592 12.9908 9.58356 12.7852 9.79671C12.5796 10.0099 12.2961 10.1302 12 10.13ZM20.46 9.62999C20.1744 6.65797 18.3504 4.0537 15.655 2.76949C12.9596 1.48527 9.78799 1.70943 7.29999 3.35999C5.17228 4.78274 3.79288 7.08296 3.53999 9.62999C3.29188 12.1607 4.19522 14.6687 5.99999 16.46L11.3 21.77C11.4878 21.9593 11.7433 22.0658 12.01 22.0658C12.2766 22.0658 12.5322 21.9593 12.72 21.77L18 16.46C19.8048 14.6687 20.7081 12.1607 20.46 9.62999ZM16.6 15.05L12 19.65L7.4 15.05C6.02733 13.6773 5.34125 11.7621 5.53 9.83004C5.71998 7.86802 6.78087 6.09498 8.42 5.00004C10.5892 3.5591 13.4108 3.5591 15.58 5.00004C17.214 6.09065 18.2743 7.85527 18.47 9.81004C18.6649 11.7489 17.9784 13.6727 16.6 15.05Z" fill="#171E2B"/>
</svg>
