<svg width="24" height="24" viewBox="0 0 24 24" fill="none" xmlns="http://www.w3.org/2000/svg">
<path fill-rule="evenodd" clip-rule="evenodd" d="M10.84 5.37989C11.6335 4.81459 12.7188 4.90328 13.41 5.58989C13.7856 5.96324 13.9978 6.47031 14 6.99989V9.99989C14 10.5522 14.4477 10.9999 15 10.9999H16C16.5523 10.9999 17 11.4476 17 11.9999V12.3399C17 12.8922 17.4477 13.3399 18 13.3399C18.5523 13.3399 19 12.8922 19 12.3399V11.9999C19 10.343 17.6569 8.99989 16 8.99989V6.99989C16.0008 5.9387 15.58 4.92068 14.83 4.16989C13.4218 2.8023 11.2368 2.63811 9.64 3.77989C9.19817 4.11126 9.10863 4.73806 9.44 5.17989C9.77137 5.62172 10.3982 5.71126 10.84 5.37989ZM21.71 20.2899L3.71 2.28988C3.31788 1.89776 2.68212 1.89776 2.29 2.28988C1.89788 2.682 1.89788 3.31776 2.29 3.70988L7.62 8.99988C6.11305 9.19226 4.98777 10.4807 5 11.9999V17.9999C5 19.6567 6.34315 20.9999 8 20.9999H16C16.9408 20.9967 17.8256 20.5525 18.39 19.7999L20.29 21.7099C20.4778 21.8992 20.7334 22.0057 21 22.0057C21.2666 22.0057 21.5222 21.8992 21.71 21.7099C21.8993 21.5221 22.0058 21.2665 22.0058 20.9999C22.0058 20.7332 21.8993 20.4776 21.71 20.2899ZM16 18.9998H8C7.44772 18.9998 7.00001 18.5521 7.00001 17.9998V11.9998C7.00001 11.4476 7.44772 10.9998 8 10.9998H9.59L11.66 13.0698C11.2675 13.2117 11.0044 13.5825 11 13.9998V15.9998C11 16.5521 11.4477 16.9998 12 16.9998C12.5523 16.9998 13 16.5521 13 15.9998V14.4098L16.93 18.3398C16.7881 18.7324 16.4174 18.9955 16 18.9998Z" fill="#171E2B"/>
</svg>
