<svg width="24" height="24" viewBox="0 0 24 24" fill="none" xmlns="http://www.w3.org/2000/svg">
<path fill-rule="evenodd" clip-rule="evenodd" d="M12 13.0001C11.4477 13.0001 11 13.4478 11 14.0001V17.0001C11 17.5524 11.4477 18.0001 12 18.0001C12.5523 18.0001 13 17.5524 13 17.0001V14.0001C13 13.4478 12.5523 13.0001 12 13.0001ZM17 9.00006V7.00006C17 4.23864 14.7614 2.00006 12 2.00006C9.23858 2.00006 7 4.23864 7 7.00006V9.00006C5.34315 9.00006 4 10.3432 4 12.0001V19.0001C4 20.6569 5.34315 22.0001 7 22.0001H17C18.6569 22.0001 20 20.6569 20 19.0001V12.0001C20 10.3432 18.6569 9.00006 17 9.00006ZM8.99999 7.00012C8.99999 5.34327 10.3431 4.00012 12 4.00012C13.6568 4.00012 15 5.34327 15 7.00012V9.00012H8.99999V7.00012ZM18 19.0001C18 19.5523 17.5523 20.0001 17 20.0001H6.99999C6.44771 20.0001 5.99999 19.5523 5.99999 19.0001V12.0001C5.99999 11.4478 6.44771 11.0001 6.99999 11.0001H17C17.5523 11.0001 18 11.4478 18 12.0001V19.0001Z" fill="#171E2B"/>
</svg>
