<svg width="24" height="24" viewBox="0 0 24 24" fill="none" xmlns="http://www.w3.org/2000/svg">
<path fill-rule="evenodd" clip-rule="evenodd" d="M21 2.00006H15C14.4477 2.00006 14 2.44778 14 3.00006C14 3.55235 14.4477 4.00006 15 4.00006H20V9.00006C20 9.55235 20.4477 10.0001 21 10.0001C21.5523 10.0001 22 9.55235 22 9.00006V3.00006C22 2.44778 21.5523 2.00006 21 2.00006ZM21 14.0001C20.4477 14.0001 20 14.4478 20 15.0001V20.0001H15C14.4477 20.0001 14 20.4478 14 21.0001C14 21.5523 14.4477 22.0001 15 22.0001H21C21.5523 22.0001 22 21.5523 22 21.0001V15.0001C22 14.4478 21.5523 14.0001 21 14.0001ZM12 6C10.3432 6 9.00002 7.34314 9.00002 9V10C7.89545 10 7.00002 10.8954 7.00002 12V16C7.00002 17.1046 7.89545 18 9.00002 18H15C16.1046 18 17 17.1046 17 16V12C17 10.8954 16.1046 10 15 10V9C15 7.34314 13.6569 6 12 6ZM11 9.00006C11 8.44778 11.4477 8.00006 12 8.00006C12.5523 8.00006 13 8.44778 13 9.00006V10.0001H11V9.00006ZM15 16H8.99998V12H15V16ZM3 10.0001C3.55228 10.0001 4 9.55235 4 9.00006V4.00006H9C9.55228 4.00006 10 3.55235 10 3.00006C10 2.44778 9.55228 2.00006 9 2.00006H3C2.44772 2.00006 2 2.44778 2 3.00006V9.00006C2 9.55235 2.44772 10.0001 3 10.0001ZM9 20.0001H4V15.0001C4 14.4478 3.55228 14.0001 3 14.0001C2.44772 14.0001 2 14.4478 2 15.0001V21.0001C2 21.5523 2.44772 22.0001 3 22.0001H9C9.55228 22.0001 10 21.5523 10 21.0001C10 20.4478 9.55228 20.0001 9 20.0001Z" fill="#171E2B"/>
</svg>
