<svg width="24" height="24" viewBox="0 0 24 24" fill="none" xmlns="http://www.w3.org/2000/svg">
<path fill-rule="evenodd" clip-rule="evenodd" d="M17 9.00006V7.00006C17 4.23864 14.7614 2.00006 12 2.00006C9.23856 2.00006 6.99998 4.23864 6.99998 7.00006V9.00006C5.34313 9.00006 3.99998 10.3432 3.99998 12.0001V19.0001C3.99998 20.6569 5.34313 22.0001 6.99998 22.0001H17C18.6568 22.0001 20 20.6569 20 19.0001V12.0001C20 10.3432 18.6568 9.00006 17 9.00006ZM9 7.00012C9 5.34327 10.3431 4.00012 12 4.00012C13.6569 4.00012 15 5.34327 15 7.00012V9.00012H9V7.00012ZM18 19.0001C18 19.5523 17.5523 20.0001 17 20.0001H7C6.44772 20.0001 6 19.5523 6 19.0001V12.0001C6 11.4478 6.44772 11.0001 7 11.0001H17C17.5523 11.0001 18 11.4478 18 12.0001V19.0001Z" fill="#171E2B"/>
</svg>
