<svg width="90" height="90" viewBox="0 0 90 90" fill="none" xmlns="http://www.w3.org/2000/svg">
<path d="M69 73.5L57.5 61.5L63.5 55.5L76 67L69 73.5Z" fill="#F3CCD4"/>
<path d="M61 34.5C61 49.1355 49.1355 61 34.5 61C19.8645 61 8 49.1355 8 34.5C8 19.8645 19.8645 8 34.5 8C49.1355 8 61 19.8645 61 34.5Z" fill="#F3CCD4"/>
<path fill-rule="evenodd" clip-rule="evenodd" d="M34.5 58.5C47.7548 58.5 58.5 47.7548 58.5 34.5C58.5 21.2452 47.7548 10.5 34.5 10.5C21.2452 10.5 10.5 21.2452 10.5 34.5C10.5 47.7548 21.2452 58.5 34.5 58.5ZM34.5 61C49.1355 61 61 49.1355 61 34.5C61 19.8645 49.1355 8 34.5 8C19.8645 8 8 19.8645 8 34.5C8 49.1355 19.8645 61 34.5 61Z" fill="#C1002A"/>
<path d="M56 34.5C56 46.3741 46.3741 56 34.5 56C22.6259 56 13 46.3741 13 34.5C13 22.6259 22.6259 13 34.5 13C46.3741 13 56 22.6259 56 34.5Z" fill="white"/>
<path fill-rule="evenodd" clip-rule="evenodd" d="M34.5 53.5C44.9934 53.5 53.5 44.9934 53.5 34.5C53.5 24.0066 44.9934 15.5 34.5 15.5C24.0066 15.5 15.5 24.0066 15.5 34.5C15.5 44.9934 24.0066 53.5 34.5 53.5ZM34.5 56C46.3741 56 56 46.3741 56 34.5C56 22.6259 46.3741 13 34.5 13C22.6259 13 13 22.6259 13 34.5C13 46.3741 22.6259 56 34.5 56Z" fill="#C1002A"/>
<path fill-rule="evenodd" clip-rule="evenodd" d="M63.473 57.7979L59.6896 61.5813C59.4944 61.7766 59.4944 62.0932 59.6896 62.2884L75.5121 78.1109C75.7074 78.3062 76.024 78.3062 76.2192 78.1109L80.0027 74.3275C80.1979 74.1323 80.1979 73.8157 80.0027 73.6204L64.1801 57.7979C63.9849 57.6026 63.6683 57.6026 63.473 57.7979ZM57.9219 59.8136C56.7503 60.9851 56.7503 62.8846 57.9219 64.0562L73.7444 79.8787C74.9159 81.0503 76.8154 81.0503 77.987 79.8787L81.7704 76.0953C82.942 74.9237 82.942 73.0242 81.7704 71.8526L65.9479 56.0301C64.7763 54.8586 62.8768 54.8586 61.7053 56.0301L57.9219 59.8136Z" fill="#C1002A"/>
<path fill-rule="evenodd" clip-rule="evenodd" d="M50.6886 53.24L55.1317 48.7969L62.704 56.3691L60.9362 58.1369L55.1317 52.3324L54.2241 53.24L60.0286 59.0445L58.2609 60.8123L50.6886 53.24Z" fill="#C1002A"/>
<path fill-rule="evenodd" clip-rule="evenodd" d="M76.8839 68.8839L70.8839 74.8839L69.1161 73.1161L75.1161 67.1161L76.8839 68.8839Z" fill="#C1002A"/>
<path d="M58.5 60L52.5 53.5L55.5 51L61.5 57L58.5 60Z" fill="#C1002A"/>
<path d="M76 79.5L70.5 74L76 68L82 74L76 79.5Z" fill="#C1002A"/>
</svg>
