<svg width="90" height="90" viewBox="0 0 90 90" fill="none" xmlns="http://www.w3.org/2000/svg">
<path d="M58.7705 44.5175H5.44809L4.79382 51.7095L26.3845 65.1556H36.5256L58.7705 51.7095V44.5175Z" fill="#F3CCD4"/>
<path d="M28.3869 66.7849L6.03154 51.7027C5.50433 51.347 4.79382 51.7247 4.79382 52.3607V82.6186C4.79382 83.057 5.14921 83.4124 5.5876 83.4124H57.9767C58.4151 83.4124 58.7705 83.057 58.7705 82.6186V52.2989C58.7705 51.6757 58.085 51.2955 57.5563 51.6256L35.6555 65.2983C35.5818 65.3443 35.501 65.3779 35.4164 65.3977L29.0121 66.8997C28.7968 66.9502 28.5702 66.9086 28.3869 66.7849Z" fill="#F3CCD4"/>
<path fill-rule="evenodd" clip-rule="evenodd" d="M16.105 35.9844V43.7237H14.1206V35.786C14.1206 34.7996 14.9202 34 15.9066 34H47.6576C48.6439 34 49.4436 34.7996 49.4436 35.786V43.7237H47.4591V35.9844H16.105Z" fill="#C1002A"/>
<path fill-rule="evenodd" clip-rule="evenodd" d="M57.1829 44.9144H6.38132C6.16213 44.9144 5.98444 45.0921 5.98444 45.3113V82.6186C5.98444 82.8378 6.16213 83.0155 6.38132 83.0155H57.1829C57.4021 83.0155 57.5798 82.8378 57.5798 82.6186V45.3113C57.5798 45.0921 57.4021 44.9144 57.1829 44.9144ZM6.38132 42.9299C5.06615 42.9299 4 43.9961 4 45.3113V82.6186C4 83.9338 5.06616 85 6.38132 85H57.1829C58.498 85 59.5642 83.9338 59.5642 82.6186V45.3113C59.5642 43.9961 58.498 42.9299 57.1829 42.9299H6.38132Z" fill="#C1002A"/>
<path d="M4 81.8249C4 80.5098 5.06615 79.4436 6.38132 79.4436H57.1829C58.498 79.4436 59.5642 80.5098 59.5642 81.8249V82.6187C59.5642 83.9339 58.498 85 57.1829 85H6.38132C5.06616 85 4 83.9339 4 82.6187V81.8249Z" fill="#C1002A"/>
<path fill-rule="evenodd" clip-rule="evenodd" d="M4.25745 51.7024L5.33002 50.0328L29.7972 65.7509H33.7669L58.2341 50.0328L59.3067 51.7024L34.3494 67.7353H29.2147L4.25745 51.7024Z" fill="#C1002A"/>
<path d="M26.2257 59.5992C26.2257 59.1608 26.5811 58.8054 27.0195 58.8054H36.5448C36.9832 58.8054 37.3385 59.1608 37.3385 59.5992V67.5369C37.3385 67.9753 36.9832 68.3307 36.5448 68.3307H27.0195C26.5811 68.3307 26.2257 67.9753 26.2257 67.5369V59.5992Z" fill="white"/>
<path fill-rule="evenodd" clip-rule="evenodd" d="M28.2101 60.7899V66.3463H35.3541V60.7899H28.2101ZM27.0195 58.8054C26.5811 58.8054 26.2257 59.1608 26.2257 59.5992V67.5369C26.2257 67.9753 26.5811 68.3307 27.0195 68.3307H36.5448C36.9832 68.3307 37.3385 67.9753 37.3385 67.5369V59.5992C37.3385 59.1608 36.9832 58.8054 36.5448 58.8054H27.0195Z" fill="#C1002A"/>
<path d="M75.9999 26.5C75.9999 38.3741 66.374 48 54.4999 48C42.6258 48 32.9999 38.3741 32.9999 26.5C32.9999 14.6259 42.6258 5 54.4999 5C66.374 5 75.9999 14.6259 75.9999 26.5Z" fill="white"/>
<path d="M75.5136 67.5094L68.3764 54.5168L74.9305 50.7328L83.0446 63.5256L75.5136 67.5094Z" fill="#F3CCD4"/>
<path fill-rule="evenodd" clip-rule="evenodd" d="M48.6774 48.7768C61.2859 52.1552 74.2459 44.6728 77.6244 32.0642C81.0028 19.4557 73.5204 6.49567 60.9118 3.11722C48.3033 -0.261226 35.3433 7.22124 31.9648 19.8298C28.5864 32.4383 36.0688 45.3983 48.6774 48.7768ZM49.8316 44.4693C60.0611 47.2103 70.5759 41.1396 73.3169 30.9101C76.0579 20.6805 69.9872 10.1658 59.7576 7.42475C49.5281 4.68374 39.0133 10.7544 36.2723 20.984C33.5313 31.2136 39.602 41.7283 49.8316 44.4693Z" fill="#F3CCD4"/>
<path fill-rule="evenodd" clip-rule="evenodd" d="M49.2545 46.623C60.6735 49.6828 72.4109 42.9062 75.4706 31.4871C78.5304 20.0681 71.7538 8.3307 60.3347 5.27098C48.9157 2.21125 37.1783 8.98782 34.1186 20.4069C31.0588 31.8259 37.8354 43.5633 49.2545 46.623ZM48.6774 48.7768C61.2859 52.1552 74.2459 44.6728 77.6244 32.0642C81.0028 19.4557 73.5204 6.49567 60.9118 3.11722C48.3033 -0.261226 35.3433 7.22124 31.9648 19.8298C28.5864 32.4383 36.0688 45.3983 48.6774 48.7768Z" fill="#C1002A"/>
<path fill-rule="evenodd" clip-rule="evenodd" d="M50.4087 42.3155C59.4488 44.7378 68.7408 39.373 71.1631 30.3329C73.5854 21.2928 68.2206 12.0007 59.1805 9.57845C50.1404 7.15617 40.8484 12.521 38.4261 21.561C36.0038 30.6011 41.3686 39.8932 50.4087 42.3155ZM49.8316 44.4693C60.0611 47.2103 70.5759 41.1396 73.3169 30.91C76.0579 20.6804 69.9872 10.1657 59.7576 7.4247C49.5281 4.68369 39.0133 10.7544 36.2723 20.9839C33.5313 31.2135 39.602 41.7283 49.8316 44.4693Z" fill="#C1002A"/>
<path fill-rule="evenodd" clip-rule="evenodd" d="M74.3769 52.7062L70.2441 55.0923C70.0308 55.2155 69.9577 55.4882 70.0809 55.7015L80.0595 72.985C80.1827 73.1983 80.4554 73.2714 80.6687 73.1483L84.8015 70.7622C85.0148 70.6391 85.0878 70.3663 84.9647 70.153L74.986 52.8695C74.8629 52.6562 74.5902 52.5831 74.3769 52.7062ZM69.1292 53.1613C67.8495 53.9002 67.411 55.5366 68.1498 56.8163L78.1285 74.0999C78.8674 75.3797 80.5038 75.8181 81.7836 75.0793L85.9163 72.6932C87.1961 71.9543 87.6346 70.3179 86.8957 69.0382L76.917 51.7546C76.1782 50.4749 74.5417 50.0364 73.262 50.7752L69.1292 53.1613Z" fill="#C1002A"/>
<path fill-rule="evenodd" clip-rule="evenodd" d="M64.4152 45.8285L69.2686 43.0264L74.0441 51.2979L72.1131 52.4127L68.4524 46.0722L67.461 46.6446L71.1217 52.9851L69.1907 54.1L64.4152 45.8285Z" fill="#C1002A"/>
<path fill-rule="evenodd" clip-rule="evenodd" d="M83.3712 65.3525L76.8171 69.1365L75.7022 67.2055L82.2563 63.4215L83.3712 65.3525Z" fill="#C1002A"/>
<path d="M69.5843 53.4554L65.9157 46.4706L69.0773 45.0094L72.8613 51.5634L69.5843 53.4554Z" fill="#C1002A"/>
<path d="M80.1592 74.2944L76.6905 68.2865L82.8138 64.3871L86.5978 70.9412L80.1592 74.2944Z" fill="#C1002A"/>
</svg>
