<svg width="24" height="24" viewBox="0 0 24 24" fill="none" xmlns="http://www.w3.org/2000/svg">
<path fill-rule="evenodd" clip-rule="evenodd" d="M8.00001 12.0001H10C10.5523 12.0001 11 11.5524 11 11.0001C11 10.4478 10.5523 10.0001 10 10.0001H8.00001C7.44772 10.0001 7.00001 10.4478 7.00001 11.0001C7.00001 11.5524 7.44772 12.0001 8.00001 12.0001ZM17 6.00006H12V4.00006H13C13.5523 4.00006 14 3.55235 14 3.00006C14 2.44778 13.5523 2.00006 13 2.00006H11C10.4477 2.00006 10 2.44778 10 3.00006V6.00006H7C4.79086 6.00006 3 7.79092 3 10.0001V16.0001C3 16.5523 3.44772 17.0001 4 17.0001H10V21.0001C10 21.5523 10.4477 22.0001 11 22.0001C11.5523 22.0001 12 21.5523 12 21.0001V17.0001H20C20.5523 17.0001 21 16.5523 21 16.0001V10.0001C21 7.79092 19.2091 6.00006 17 6.00006ZM13 10.0001V15.0001H4.99999V10.0001C4.99999 8.89549 5.89542 8.00006 6.99999 8.00006H13.56C13.1964 8.60405 13.0029 9.2951 13 10.0001ZM19 15.0001H15V10.0001C15 8.89549 15.8954 8.00006 17 8.00006C18.1046 8.00006 19 8.89549 19 10.0001V15.0001Z" fill="#171E2B"/>
</svg>
