<svg width="24" height="24" viewBox="0 0 24 24" fill="none" xmlns="http://www.w3.org/2000/svg">
<path fill-rule="evenodd" clip-rule="evenodd" d="M11 13H13C13.5523 13 14 12.5523 14 12C14 11.4477 13.5523 11 13 11H11C10.4477 11 10 11.4477 10 12C10 12.5523 10.4477 13 11 13ZM19 20H18V9.00001H19C19.5523 9.00001 20 8.5523 20 8.00001C20 7.44773 19.5523 7.00001 19 7.00001H17.91C17.4071 4.12945 14.9143 2.03534 12 2.03534C9.08572 2.03534 6.59287 4.12945 6.09 7.00001H5C4.44772 7.00001 4 7.44773 4 8.00001C4 8.5523 4.44772 9.00001 5 9.00001H6V20H5C4.44772 20 4 20.4477 4 21C4 21.5523 4.44772 22 5 22H19C19.5523 22 20 21.5523 20 21C20 20.4477 19.5523 20 19 20ZM12 4.00009C13.8192 4.006 15.4052 5.23869 15.86 7.00009H8.14C8.59478 5.23869 10.1808 4.006 12 4.00009ZM16 20H8.00001V18H16V20ZM16 16H8.00001V8.99997H16V16Z" fill="#171E2B"/>
</svg>
