<svg width="24" height="24" viewBox="0 0 24 24" fill="none" xmlns="http://www.w3.org/2000/svg">
<path fill-rule="evenodd" clip-rule="evenodd" d="M14 9.45H10C9.44772 9.45 9 9.89772 9 10.45C9 11.0023 9.44772 11.45 10 11.45H14C14.5523 11.45 15 11.0023 15 10.45C15 9.89772 14.5523 9.45 14 9.45ZM20.46 9.62993C20.1037 5.89763 17.3442 2.83955 13.6679 2.10316C9.9917 1.36677 6.26717 3.126 4.50084 6.43312C2.73451 9.74024 3.34361 13.8141 6 16.4599L11.3 21.7699C11.4878 21.9592 11.7434 22.0657 12.01 22.0657C12.2766 22.0657 12.5322 21.9592 12.72 21.7699L18 16.4599C19.8048 14.6687 20.7081 12.1606 20.46 9.62993ZM16.6 15.0499L12 19.6499L7.39999 15.0499C6.02732 13.6771 5.34124 11.762 5.52999 9.82987C5.71997 7.86785 6.78086 6.09481 8.41999 4.99987C10.5892 3.55893 13.4108 3.55893 15.58 4.99987C17.214 6.09049 18.2742 7.8551 18.47 9.80987C18.6649 11.7487 17.9784 13.6725 16.6 15.0499Z" fill="#171E2B"/>
</svg>
