<svg width="24" height="24" viewBox="0 0 24 24" fill="none" xmlns="http://www.w3.org/2000/svg">
<path fill-rule="evenodd" clip-rule="evenodd" d="M12 9.99996C11.4477 9.99996 11 10.4477 11 11V13C11 13.5522 11.4477 14 12 14C12.5523 14 13 13.5522 13 13V11C13 10.4477 12.5523 9.99996 12 9.99996ZM20.46 9.67998C20.1903 6.69895 18.3725 4.07951 15.6743 2.78373C12.9761 1.48794 9.79525 1.70682 7.29999 3.35998C5.17228 4.78272 3.79288 7.08295 3.53999 9.62998C3.29188 12.1607 4.19522 14.6687 5.99999 16.46L11.3 21.77C11.4878 21.9593 11.7433 22.0658 12.01 22.0658C12.2766 22.0658 12.5322 21.9593 12.72 21.77L18 16.46C19.8048 14.6687 20.7081 12.1607 20.46 9.62998V9.67998ZM16.6 15.0499L12 19.6499L7.4 15.0499C6.02733 13.6771 5.34125 11.762 5.53 9.82989C5.71998 7.86787 6.78087 6.09483 8.42 4.9999C10.5892 3.55896 13.4108 3.55896 15.58 4.9999C17.214 6.09051 18.2743 7.85512 18.47 9.8099C18.6649 11.7487 17.9784 13.6725 16.6 15.0499ZM12.92 7.56997C12.9 7.50854 12.8696 7.45102 12.83 7.39997L12.71 7.24997C12.4675 7.01975 12.126 6.92593 11.8 6.99997H11.62L11.44 7.08997L11.29 7.21997L11.17 7.36997C11.1304 7.42102 11.1 7.47854 11.08 7.53997C11.0495 7.59952 11.0293 7.66374 11.02 7.72997C11.0034 7.81896 10.9967 7.90951 11 7.99997C10.9965 8.13438 11.0239 8.26779 11.08 8.38997C11.1309 8.50799 11.202 8.61627 11.29 8.70997C11.3852 8.80342 11.4971 8.87806 11.62 8.92997C11.8648 9.02297 12.1352 9.02297 12.38 8.92997C12.5015 8.87562 12.6131 8.80125 12.71 8.70997C12.798 8.61627 12.869 8.50799 12.92 8.38997C12.9725 8.26665 12.9997 8.13402 13 7.99997C13.0049 7.93673 13.0049 7.87321 13 7.80997C12.9907 7.72519 12.9634 7.64338 12.92 7.56997Z" fill="#171E2B"/>
</svg>
