<svg width="24" height="24" viewBox="0 0 24 24" fill="none" xmlns="http://www.w3.org/2000/svg">
<path fill-rule="evenodd" clip-rule="evenodd" d="M16.37 12.79C16.0377 12.6579 15.6602 12.713 15.3796 12.9346C15.099 13.1563 14.9579 13.5108 15.0096 13.8646C15.0612 14.2185 15.2977 14.5179 15.63 14.65C17.09 15.23 18 16.13 18 17C18 18.42 15.54 20 12 20C8.46 20 6 18.42 6 17C6 16.13 6.91 15.23 8.37 14.65C8.88363 14.4457 9.13435 13.8637 8.93 13.35C8.72565 12.8364 8.14362 12.5857 7.63 12.79C5.36 13.69 4 15.26 4 17C4 19.8 7.51 22.0001 12 22.0001C16.49 22.0001 20 19.8 20 17C20 15.26 18.64 13.69 16.37 12.79ZM11 9.85998V17C11 17.5523 11.4477 18 12 18C12.5523 18 13 17.5523 13 17V9.85998C14.9503 9.35642 16.2219 7.4812 15.9681 5.48298C15.7143 3.48477 14.0143 1.987 12 1.987C9.98575 1.987 8.28571 3.48477 8.0319 5.48298C7.7781 7.4812 9.04972 9.35642 11 9.85998ZM12 3.99997C13.1046 3.99997 14 4.8954 14 5.99997C14 7.10453 13.1046 7.99996 12 7.99996C10.8954 7.99996 10 7.10453 10 5.99997C10 4.8954 10.8954 3.99997 12 3.99997Z" fill="#171E2B"/>
</svg>
