<svg width="24" height="24" viewBox="0 0 24 24" fill="none" xmlns="http://www.w3.org/2000/svg">
<path fill-rule="evenodd" clip-rule="evenodd" d="M11 11.9V17C11 17.5522 11.4477 18 12 18C12.5523 18 13 17.5522 13 17V11.9C15.515 11.3866 17.2327 9.05226 16.9747 6.49843C16.7167 3.94461 14.5668 2.00098 12 2.00098C9.43319 2.00098 7.28332 3.94461 7.02533 6.49843C6.76734 9.05226 8.48505 11.3866 11 11.9ZM12 3.99994C13.6569 3.99994 15 5.34309 15 6.99994C15 8.6568 13.6569 9.99994 12 9.99994C10.3431 9.99994 9 8.6568 9 6.99994C9 5.34309 10.3431 3.99994 12 3.99994ZM16.21 14.42C15.8527 14.345 15.4826 14.4662 15.239 14.7381C14.9954 15.01 14.9153 15.3912 15.029 15.7381C15.1426 16.085 15.4327 16.345 15.79 16.42C18.06 16.87 19 17.68 19 18C19 18.58 16.55 20 12 20C7.45 20 5 18.58 5 18C5 17.68 5.94 16.87 8.21 16.38C8.56727 16.305 8.85737 16.045 8.97103 15.6981C9.08468 15.3512 9.00463 14.97 8.76103 14.6981C8.51742 14.4262 8.14727 14.305 7.79 14.38C4.75 15.08 3 16.39 3 18C3 20.63 7.53 22 12 22C16.47 22 21 20.63 21 18C21 16.39 19.25 15.08 16.21 14.42Z" fill="#171E2B"/>
</svg>
