<svg width="24" height="24" viewBox="0 0 24 24" fill="none" xmlns="http://www.w3.org/2000/svg">
<path fill-rule="evenodd" clip-rule="evenodd" d="M14.41 6.53008C13.7755 6.67022 13.1114 6.52791 12.59 6.14008C12.2386 5.88329 11.7614 5.88329 11.41 6.14008C10.8886 6.52791 10.2245 6.67022 9.58998 6.53008C9.29414 6.4662 8.98529 6.53973 8.74998 6.73008C8.51499 6.92071 8.37895 7.20749 8.37998 7.51008V10.4101C8.36578 11.7132 8.96597 12.9469 9.99998 13.7401L11.37 14.7401C11.7214 14.9969 12.1986 14.9969 12.55 14.7401L13.92 13.7401C14.969 12.9553 15.5847 11.7202 15.58 10.4101V7.51008C15.581 7.20749 15.445 6.92071 15.21 6.73008C14.9845 6.55145 14.693 6.47858 14.41 6.53008ZM13.62 10.4101C13.6255 11.0886 13.3104 11.7298 12.77 12.1401L12 12.7101L11.23 12.1401C10.6895 11.7298 10.3745 11.0886 10.38 10.4101V8.57008C10.9447 8.53026 11.4956 8.37722 12 8.12008C12.5043 8.37722 13.0553 8.53026 13.62 8.57008V10.4101ZM20.46 9.63002C20.1744 6.658 18.3504 4.05373 15.655 2.76952C12.9596 1.4853 9.78799 1.70946 7.29999 3.36002C5.17228 4.78277 3.79288 7.08299 3.53999 9.63002C3.29188 12.1607 4.19522 14.6687 5.99999 16.46L11.3 21.77C11.4878 21.9593 11.7433 22.0658 12.01 22.0658C12.2766 22.0658 12.5322 21.9593 12.72 21.77L18 16.46C19.8048 14.6687 20.7081 12.1607 20.46 9.63002ZM16.6 15.0501L12 19.6501L7.4 15.0501C6.02733 13.6773 5.34125 11.7622 5.53 9.83007C5.71998 7.86805 6.78087 6.09501 8.42 5.00007C10.5892 3.55913 13.4108 3.55913 15.58 5.00007C17.214 6.09069 18.2743 7.8553 18.47 9.81007C18.6649 11.7489 17.9784 13.6727 16.6 15.0501Z" fill="#171E2B"/>
</svg>
