<svg width="24" height="24" viewBox="0 0 24 24" fill="none" xmlns="http://www.w3.org/2000/svg">
<path fill-rule="evenodd" clip-rule="evenodd" d="M20.46 9.62993C20.1037 5.89763 17.3442 2.83955 13.6679 2.10316C9.9917 1.36677 6.26717 3.126 4.50084 6.43312C2.73451 9.74024 3.34361 13.8141 6 16.4599L11.3 21.7699C11.4878 21.9592 11.7434 22.0657 12.01 22.0657C12.2766 22.0657 12.5322 21.9592 12.72 21.7699L18 16.4599C19.8048 14.6687 20.7081 12.1606 20.46 9.62993ZM16.6 15.0499L12 19.6499L7.40001 15.0499C6.02734 13.6771 5.34127 11.762 5.53001 9.82987C5.72 7.86785 6.78089 6.09481 8.42001 4.99987C10.5892 3.55893 13.4108 3.55893 15.58 4.99987C17.214 6.09049 18.2743 7.8551 18.47 9.80987C18.6649 11.7487 17.9784 13.6725 16.6 15.0499ZM13.79 6.24989C13.6022 6.06057 13.3466 5.95409 13.08 5.95409C12.8134 5.95409 12.5578 6.06057 12.37 6.24989L8.78999 9.82989C8.60525 10.0161 8.50109 10.2675 8.49999 10.5299V12.9999C8.49999 13.5522 8.9477 13.9999 9.49999 13.9999H11.92C12.1858 14.0014 12.4413 13.8971 12.63 13.7099L16.21 10.1299C16.5977 9.73985 16.5977 9.10992 16.21 8.71989L13.79 6.24989ZM11.51 11.9999H10.51V10.9999L13.09 8.41988L14.09 9.41988L11.51 11.9999Z" fill="#171E2B"/>
</svg>
