<svg width="24" height="24" viewBox="0 0 24 24" fill="none" xmlns="http://www.w3.org/2000/svg">
<path fill-rule="evenodd" clip-rule="evenodd" d="M14 9.44994H13V8.44994C13 7.89766 12.5523 7.44994 12 7.44994C11.4477 7.44994 11 7.89766 11 8.44994V9.44994H9.99999C9.44771 9.44994 8.99999 9.89766 8.99999 10.4499C8.99999 11.0022 9.44771 11.4499 9.99999 11.4499H11V12.4499C11 13.0022 11.4477 13.4499 12 13.4499C12.5523 13.4499 13 13.0022 13 12.4499V11.4499H14C14.5523 11.4499 15 11.0022 15 10.4499C15 9.89766 14.5523 9.44994 14 9.44994ZM20.46 9.62993C20.1037 5.89763 17.3442 2.83955 13.6679 2.10316C9.99171 1.36677 6.26717 3.126 4.50084 6.43312C2.73451 9.74024 3.34361 13.8141 6 16.4599L11.3 21.7699C11.4878 21.9592 11.7434 22.0657 12.01 22.0657C12.2766 22.0657 12.5322 21.9592 12.72 21.7699L18 16.4599C19.8048 14.6687 20.7081 12.1606 20.46 9.62993ZM16.6 15.0499L12 19.6499L7.39999 15.0499C6.02732 13.6771 5.34124 11.762 5.52999 9.82987C5.71997 7.86785 6.78087 6.09481 8.41999 4.99987C10.5892 3.55893 13.4108 3.55893 15.58 4.99987C17.214 6.09049 18.2743 7.8551 18.47 9.80987C18.6649 11.7487 17.9784 13.6725 16.6 15.0499Z" fill="#171E2B"/>
</svg>
