<svg width="24" height="24" viewBox="0 0 24 24" fill="none" xmlns="http://www.w3.org/2000/svg">
<path fill-rule="evenodd" clip-rule="evenodd" d="M12 2.00006C7.58172 2.00006 4 5.58178 4 10.0001C4 15.4001 11.05 21.5001 11.35 21.7601C11.7242 22.0802 12.2758 22.0802 12.65 21.7601C13 21.5001 20 15.4001 20 10.0001C20 5.58178 16.4183 2.00006 12 2.00006ZM12 19.6501C9.87002 17.6501 6.00002 13.3401 6.00002 10.0001C6.00002 6.68641 8.68631 4.00012 12 4.00012C15.3137 4.00012 18 6.68641 18 10.0001C18 13.3401 14.13 17.6601 12 19.6501ZM12 6C9.79085 6 7.99998 7.79086 7.99998 10C7.99998 12.2091 9.79085 14 12 14C14.2091 14 16 12.2091 16 10C16 8.93913 15.5786 7.92172 14.8284 7.17157C14.0783 6.42143 13.0609 6 12 6ZM12 12.0001C10.8954 12.0001 10 11.1046 10 10.0001C10 8.89549 10.8954 8.00006 12 8.00006C13.1046 8.00006 14 8.89549 14 10.0001C14 11.1046 13.1046 12.0001 12 12.0001Z" fill="#171E2B"/>
</svg>
