<svg width="24" height="24" viewBox="0 0 24 24" fill="none" xmlns="http://www.w3.org/2000/svg">
<path fill-rule="evenodd" clip-rule="evenodd" d="M20.46 9.63002C20.1744 6.658 18.3504 4.05373 15.655 2.76952C12.9596 1.4853 9.788 1.70946 7.3 3.36002C5.17229 4.78277 3.79289 7.08299 3.54 9.63002C3.29189 12.1607 4.19523 14.6687 6 16.46L11.3 21.77C11.4878 21.9593 11.7434 22.0658 12.01 22.0658C12.2766 22.0658 12.5322 21.9593 12.72 21.77L18 16.46C19.8048 14.6687 20.7081 12.1607 20.46 9.63002ZM16.6 15.0501L12 19.6501L7.40001 15.0501C6.02734 13.6773 5.34126 11.7622 5.53001 9.83007C5.71999 7.86805 6.78088 6.09501 8.42001 5.00007C10.5892 3.55913 13.4108 3.55913 15.58 5.00007C17.214 6.09069 18.2743 7.8553 18.47 9.81007C18.6649 11.7489 17.9784 13.6727 16.6 15.0501ZM12 6.00002C9.51472 6.00002 7.5 8.01474 7.5 10.5C7.5 12.9853 9.51472 15 12 15C14.4853 15 16.5 12.9853 16.5 10.5C16.4945 8.01702 14.483 6.00552 12 6.00002ZM12 13.0001C10.6193 13.0001 9.50002 11.8808 9.50002 10.5001C9.50002 9.11937 10.6193 8.00008 12 8.00008C13.3807 8.00008 14.5 9.11937 14.5 10.5001C14.5 11.8808 13.3807 13.0001 12 13.0001Z" fill="#171E2B"/>
</svg>
