<svg width="24" height="24" viewBox="0 0 24 24" fill="none" xmlns="http://www.w3.org/2000/svg">
<path fill-rule="evenodd" clip-rule="evenodd" d="M10.63 5.49004C12.6488 5.01817 14.7682 5.62199 16.2353 7.08699C17.7023 8.55198 18.3091 10.6705 17.84 12.69C17.7769 12.9487 17.8195 13.2218 17.9584 13.4489C18.0973 13.6761 18.321 13.8384 18.58 13.9C18.6564 13.9099 18.7337 13.9099 18.81 13.9C19.2807 13.9138 19.6972 13.5972 19.81 13.14C20.4434 10.4451 19.6385 7.61435 17.682 5.65584C15.7255 3.69733 12.8955 2.88949 10.2 3.52004C9.64772 3.64706 9.30298 4.19775 9.43 4.75004C9.55703 5.30232 10.1077 5.64706 10.66 5.52004L10.63 5.49004ZM21.71 20.07L17.44 15.8L3.71 2.06997C3.52223 1.88066 3.26664 1.77417 3 1.77417C2.73336 1.77417 2.47777 1.88066 2.29 2.06997C1.90228 2.46001 1.90228 3.08993 2.29 3.47997L5.5 6.68997C3.22168 9.8698 3.577 14.2309 6.34 17L11.29 21.95C11.4778 22.1393 11.7334 22.2458 12 22.2458C12.2666 22.2458 12.5222 22.1393 12.71 21.95L16.71 17.95L20.27 21.51C20.6594 21.9021 21.2929 21.9043 21.685 21.515C22.0771 21.1256 22.0794 20.4921 21.69 20.1L21.71 20.07ZM12.12 13.3099C11.5521 13.3462 10.9957 13.1389 10.59 12.7399C10.1837 12.3377 9.96894 11.7808 10 11.2099L12.12 13.3099ZM12 19.81L7.75999 15.57C5.78364 13.5854 5.4433 10.4974 6.93999 8.13002L8.40999 9.60002C7.67517 11.1247 7.97954 12.9469 9.16999 14.15C9.91914 14.9036 10.9374 15.3282 12 15.33C12.6004 15.3273 13.1922 15.187 13.73 14.92L15.31 16.5L12 19.81Z" fill="#171E2B"/>
</svg>
