<svg width="24" height="24" viewBox="0 0 24 24" fill="none" xmlns="http://www.w3.org/2000/svg">
<path fill-rule="evenodd" clip-rule="evenodd" d="M12.44 13.11L12.27 13C11.8956 12.846 11.4653 12.9328 11.18 13.22C11.0835 13.3088 11.0083 13.4182 10.96 13.54C10.9075 13.6634 10.8802 13.796 10.88 13.93C10.8816 14.0607 10.9087 14.1898 10.96 14.31C11.0674 14.5503 11.2597 14.7426 11.5 14.85C11.6202 14.9013 11.7493 14.9285 11.88 14.93C12.0138 14.9275 12.146 14.9004 12.27 14.85C12.39 14.7983 12.4987 14.7236 12.59 14.63C12.9777 14.24 12.9777 13.6101 12.59 13.22L12.44 13.11ZM11.88 6.00003C10.9093 5.98911 10.0047 6.49079 9.49998 7.32003C9.30293 7.63002 9.29168 8.02309 9.47069 8.34384C9.6497 8.66459 9.99015 8.86138 10.3574 8.85641C10.7247 8.85144 11.0597 8.64551 11.23 8.32003C11.3798 8.11172 11.6235 7.99173 11.88 8.00003C12.2942 8.00003 12.63 8.33581 12.63 8.75003C12.63 9.16424 12.2942 9.50003 11.88 9.50003C11.3277 9.50003 10.88 9.94774 10.88 10.5C10.88 11.0523 11.3277 11.5 11.88 11.5C13.3988 11.5 14.63 10.2688 14.63 8.75003C14.63 7.23124 13.3988 6.00003 11.88 6.00003ZM20.46 9.67998C20.1903 6.69895 18.3725 4.07951 15.6743 2.78373C12.9761 1.48794 9.79525 1.70682 7.29999 3.35998C5.17228 4.78272 3.79288 7.08295 3.53999 9.62998C3.29188 12.1607 4.19522 14.6687 5.99999 16.46L11.3 21.77C11.4878 21.9593 11.7433 22.0658 12.01 22.0658C12.2766 22.0658 12.5322 21.9593 12.72 21.77L18 16.46C19.8048 14.6687 20.7081 12.1607 20.46 9.62998V9.67998ZM16.6 15.0499L12 19.6499L7.39998 15.0499C6.02731 13.6771 5.34124 11.762 5.52998 9.82989C5.71997 7.86787 6.78086 6.09483 8.41998 4.9999C10.5892 3.55896 13.4108 3.55896 15.58 4.9999C17.214 6.09051 18.2742 7.85512 18.47 9.8099C18.6649 11.7487 17.9784 13.6725 16.6 15.0499Z" fill="#171E2B"/>
</svg>
