<svg width="24" height="24" viewBox="0 0 24 24" fill="none" xmlns="http://www.w3.org/2000/svg">
<path fill-rule="evenodd" clip-rule="evenodd" d="M21.32 5.04994L15.32 3.04994H15.25C15.2035 3.04526 15.1566 3.04526 15.11 3.04994H14.88H14.75H14.68L9 4.99994L3.32 3.04994C3.01493 2.94934 2.6801 3.00143 2.42 3.18994C2.15781 3.37662 2.00149 3.67808 2 3.99994V17.9999C1.99889 18.4299 2.27269 18.8124 2.68 18.9499L8.68 20.9499C8.88145 21.0156 9.09856 21.0156 9.3 20.9499L15 19.0499L20.68 20.9999C20.7862 21.0143 20.8938 21.0143 21 20.9999C21.2091 21.0029 21.4132 20.936 21.58 20.8099C21.8422 20.6233 21.9985 20.3218 22 19.9999V5.99994C22.0011 5.57002 21.7273 5.18751 21.32 5.04994ZM7.99999 18.6099L3.99998 17.2799V5.38986L7.99999 6.71986V18.6099ZM14 17.2799L9.99998 18.6099V6.71986L14 5.38986V17.2799ZM20 18.6099L16 17.2799V5.38986L20 6.71986V18.6099Z" fill="#171E2B"/>
</svg>
