<svg width="24" height="24" viewBox="0 0 24 24" fill="none" xmlns="http://www.w3.org/2000/svg">
<path fill-rule="evenodd" clip-rule="evenodd" d="M20.42 4.12006C20.3185 3.87571 20.1244 3.68154 19.88 3.58006C19.7598 3.52882 19.6307 3.50164 19.5 3.50006H15.5C14.9477 3.50006 14.5 3.94778 14.5 4.50006C14.5 5.05235 14.9477 5.50006 15.5 5.50006H17.09L14.69 7.90006C11.7501 5.69982 7.60974 6.14533 5.20522 8.92063C2.80069 11.6959 2.94945 15.8576 5.54599 18.4541C8.14253 21.0506 12.3041 21.1994 15.0794 18.7949C17.8547 16.3903 18.3003 12.25 16.1 9.31006L18.5 6.91006V8.50006C18.5 9.05235 18.9477 9.50006 19.5 9.50006C20.0523 9.50006 20.5 9.05235 20.5 8.50006V4.50006C20.4984 4.36938 20.4713 4.24028 20.42 4.12006ZM14 17C12.578 18.4507 10.4197 18.8969 8.539 18.1289C6.65836 17.3609 5.4293 15.5314 5.4293 13.5C5.4293 11.4686 6.65836 9.63908 8.539 8.87109C10.4197 8.10309 12.578 8.54927 14 10C15.9057 11.9442 15.9057 15.0558 14 17Z" fill="#171E2B"/>
</svg>
