<svg width="24" height="24" viewBox="0 0 24 24" fill="none" xmlns="http://www.w3.org/2000/svg">
<path fill-rule="evenodd" clip-rule="evenodd" d="M5.41002 4.00006H7.00002C7.5523 4.00006 8.00002 3.55235 8.00002 3.00006C8.00002 2.44778 7.5523 2.00006 7.00002 2.00006H3.00002C2.86934 2.00164 2.74024 2.02882 2.62002 2.08006C2.37567 2.18154 2.18149 2.37571 2.08002 2.62006C2.02877 2.74028 2.0016 2.86938 2.00002 3.00006V7.00006C2.00002 7.55235 2.44773 8.00006 3.00002 8.00006C3.5523 8.00006 4.00002 7.55235 4.00002 7.00006V5.41006L9.79002 11.2101C9.97778 11.3994 10.2334 11.5059 10.5 11.5059C10.7667 11.5059 11.0222 11.3994 11.21 11.2101C11.3993 11.0223 11.5058 10.7667 11.5058 10.5001C11.5058 10.2334 11.3993 9.97783 11.21 9.79006L5.41002 4.00006ZM21 16.0001C20.4477 16.0001 20 16.4478 20 17.0001V18.5901L14.21 12.7901C13.8179 12.398 13.1821 12.398 12.79 12.7901C12.3979 13.1822 12.3979 13.818 12.79 14.2101L18.59 20.0001H17C16.4477 20.0001 16 20.4478 16 21.0001C16 21.5524 16.4477 22.0001 17 22.0001H21C21.1307 21.9985 21.2598 21.9713 21.38 21.9201C21.6243 21.8186 21.8185 21.6244 21.92 21.3801C21.9712 21.2599 21.9984 21.1308 22 21.0001V17.0001C22 16.4478 21.5523 16.0001 21 16.0001Z" fill="#171E2B"/>
</svg>
