<svg width="24" height="24" viewBox="0 0 24 24" fill="none" xmlns="http://www.w3.org/2000/svg">
<path fill-rule="evenodd" clip-rule="evenodd" d="M21.38 5.76004C21.311 5.50212 21.1418 5.28248 20.91 5.15004L15.71 2.15004C15.4807 2.01567 15.2073 1.97811 14.9502 2.04565C14.6932 2.1132 14.4736 2.2803 14.34 2.51004L12 6.57004L9.65997 2.51004C9.52634 2.2803 9.30676 2.1132 9.0497 2.04565C8.79265 1.97811 8.51928 2.01567 8.28997 2.15004L3.08997 5.15004C2.85816 5.28248 2.68893 5.50212 2.61997 5.76004C2.55379 6.01349 2.58969 6.28279 2.71997 6.51004L6.71997 13.34C6.27372 14.1576 6.02701 15.069 5.99997 16C5.99345 18.4876 7.52261 20.7212 9.84408 21.6151C12.1655 22.5089 14.7978 21.8775 16.4612 20.0279C18.1246 18.1783 18.4742 15.494 17.34 13.28L21.24 6.52004C21.3866 6.2957 21.437 6.0219 21.38 5.76004ZM4.99996 6.37998L8.45996 4.37998L11.68 9.99998C10.3074 10.0848 9.00675 10.6432 7.99996 11.58L4.99996 6.37998ZM12 20C9.79082 20 7.99996 18.2091 7.99996 16C7.99996 13.7908 9.79082 12 12 12C14.2091 12 16 13.7908 16 16C16 18.2091 14.2091 20 12 20ZM16 11.55C15.457 11.0541 14.8262 10.6641 14.14 10.4L13.16 8.56998L15.58 4.37998L19.04 6.37998L16 11.55Z" fill="#171E2B"/>
</svg>
