<svg width="24" height="24" viewBox="0 0 24 24" fill="none" xmlns="http://www.w3.org/2000/svg">
<path fill-rule="evenodd" clip-rule="evenodd" d="M21 2.00006H3C2.44772 2.00006 2 2.44778 2 3.00006V21.0001C2 21.5523 2.44772 22.0001 3 22.0001H21C21.5523 22.0001 22 21.5523 22 21.0001V3.00006C22 2.44778 21.5523 2.00006 21 2.00006ZM20 20.0001H3.99999V4.00012H20V20.0001ZM7.00001 14.79H9.00001V16.79C9.00001 17.3423 9.44772 17.79 10 17.79H14C14.5523 17.79 15 17.3423 15 16.79V14.79H17C17.5523 14.79 18 14.3423 18 13.79V9.79C18 9.23771 17.5523 8.79 17 8.79H15V6.79C15 6.23771 14.5523 5.79 14 5.79H10C9.44772 5.79 9.00001 6.23771 9.00001 6.79V8.79H7.00001C6.44772 8.79 6.00001 9.23771 6.00001 9.79V13.79C6.00001 14.3423 6.44772 14.79 7.00001 14.79ZM8 10.7901H10C10.5523 10.7901 11 10.3423 11 9.79006V7.79006H13V9.79006C13 10.3423 13.4477 10.7901 14 10.7901H16V12.7901H14C13.4477 12.7901 13 13.2378 13 13.7901V15.7901H11V13.7901C11 13.2378 10.5523 12.7901 10 12.7901H8V10.7901Z" fill="#171E2B"/>
</svg>
