<svg width="24" height="24" viewBox="0 0 24 24" fill="none" xmlns="http://www.w3.org/2000/svg">
<path fill-rule="evenodd" clip-rule="evenodd" d="M19 2.00006H5C3.34315 2.00006 2 3.34321 2 5.00006V19.0001C2 20.6569 3.34315 22.0001 5 22.0001H19C20.6569 22.0001 22 20.6569 22 19.0001V5.00006C22 3.34321 20.6569 2.00006 19 2.00006ZM20 19.0001C20 19.5524 19.5523 20.0001 19 20.0001H5C4.44772 20.0001 4 19.5524 4 19.0001V5.00012C4 4.44784 4.44772 4.00012 5 4.00012H19C19.5523 4.00012 20 4.44784 20 5.00012V19.0001ZM17 9H15V7C15 6.44771 14.5523 6 14 6H10C9.44771 6 9 6.44771 9 7V9H7C6.44771 9 6 9.44771 6 10V14C6 14.5523 6.44771 15 7 15H9V17C9 17.5523 9.44771 18 10 18H14C14.5523 18 15 17.5523 15 17V15H17C17.5523 15 18 14.5523 18 14V10C18 9.44771 17.5523 9 17 9ZM16 13.0001H14C13.4477 13.0001 13 13.4478 13 14.0001V16.0001H11V14.0001C11 13.4478 10.5523 13.0001 10 13.0001H8V11.0001H10C10.5523 11.0001 11 10.5523 11 10.0001V8.00006H13V10.0001C13 10.5523 13.4477 11.0001 14 11.0001H16V13.0001Z" fill="#171E2B"/>
</svg>
