<svg width="24" height="24" viewBox="0 0 24 24" fill="none" xmlns="http://www.w3.org/2000/svg">
<path fill-rule="evenodd" clip-rule="evenodd" d="M17 6.00006H15V4.00006H17C17.5523 4.00006 18 3.55235 18 3.00006C18 2.44778 17.5523 2.00006 17 2.00006H9C6.23858 2.00006 4 4.23864 4 7.00006V21.0001C4 21.5523 4.44772 22.0001 5 22.0001C5.55228 22.0001 6 21.5523 6 21.0001V7.00006C6 5.34321 7.34315 4.00006 9 4.00006H13V6.00006H11C9.34315 6.00006 8 7.34321 8 9.00006V13.9301C7.99962 14.9353 8.50271 15.8738 9.34 16.4301L11 17.5401V18.0001C11 19.1046 11.8954 20.0001 13 20.0001V21.0001C13 21.5523 13.4477 22.0001 14 22.0001C14.5523 22.0001 15 21.5523 15 21.0001V20.0001C16.1046 20.0001 17 19.1046 17 18.0001V17.5401L18.66 16.4301C19.4973 15.8738 20.0004 14.9353 20 13.9301V9.00006C20 7.34321 18.6569 6.00006 17 6.00006ZM16 11.0001H18V12.0001H17C16.4477 12.0001 16 12.4478 16 13.0001C16 13.5523 16.4477 14.0001 17 14.0001H18C17.9784 14.3077 17.816 14.5881 17.56 14.7601L15.46 16.1701C15.1768 16.3517 15.0039 16.6636 15 17.0001V18.0001H13V17.0001C12.9983 16.6655 12.8294 16.354 12.55 16.1701L10.45 14.7601C10.1706 14.5761 10.0017 14.2646 10 13.9301V9.00006C10 8.44778 10.4477 8.00006 11 8.00006H17C17.5523 8.00006 18 8.44778 18 9.00006H16C15.4477 9.00006 15 9.44778 15 10.0001C15 10.5523 15.4477 11.0001 16 11.0001Z" fill="#171E2B"/>
</svg>
