<svg width="24" height="24" viewBox="0 0 24 24" fill="none" xmlns="http://www.w3.org/2000/svg">
<path fill-rule="evenodd" clip-rule="evenodd" d="M8.81999 11.2899C8.63068 11.4777 8.52419 11.7333 8.52419 11.9999C8.52419 12.2666 8.63068 12.5222 8.81999 12.7099C9.21003 13.0977 9.83995 13.0977 10.23 12.7099C10.4193 12.5222 10.5258 12.2666 10.5258 11.9999C10.5258 11.7333 10.4193 11.4777 10.23 11.2899C9.83995 10.9022 9.21003 10.9022 8.81999 11.2899ZM11.29 13.7699C10.9023 14.16 10.9023 14.7899 11.29 15.1799C11.4777 15.3692 11.7333 15.4757 12 15.4757C12.2666 15.4757 12.5222 15.3692 12.71 15.1799C13.0977 14.7899 13.0977 14.16 12.71 13.7699C12.5222 13.5806 12.2666 13.4741 12 13.4741C11.7333 13.4741 11.4777 13.5806 11.29 13.7699ZM20.29 3.7699C18.0301 1.4914 14.3775 1.39447 12 3.5499C9.63488 1.42092 6.01903 1.50868 3.75999 3.7499C1.51539 6.0129 1.43195 9.63598 3.56999 11.9999C1.99758 13.7578 1.6009 16.2739 2.55619 18.4303C3.51148 20.5867 5.64152 21.9834 7.99999 21.9999C9.48021 22.0015 10.9073 21.4485 12 20.4499C14.3665 22.5852 17.9897 22.4974 20.25 20.2499C22.4917 17.9842 22.5708 14.3612 20.43 11.9999C22.5708 9.6386 22.4917 6.01559 20.25 3.7499L20.29 3.7699ZM18.83 5.16999C20.2713 6.65265 20.345 8.98945 19 10.56L13.44 4.99999C15.0218 3.68748 17.334 3.76041 18.83 5.16999ZM5.16998 18.83C3.72868 17.3473 3.65498 15.0105 4.99998 13.44L10.6 19.04C8.99989 20.3609 6.66328 20.2705 5.16998 18.83ZM18.83 18.8299C17.2526 20.3385 14.7673 20.3385 13.19 18.8299L5.18999 10.8299C3.63909 9.26975 3.63909 6.75005 5.18999 5.1899C6.75013 3.639 9.26984 3.639 10.83 5.1899L18.83 13.1899C20.3809 14.75 20.3809 17.2697 18.83 18.8299ZM13.77 11.2899C13.5807 11.4777 13.4742 11.7333 13.4742 11.9999C13.4742 12.2666 13.5807 12.5222 13.77 12.7099C14.16 13.0977 14.79 13.0977 15.18 12.7099C15.3693 12.5222 15.4758 12.2666 15.4758 11.9999C15.4758 11.7333 15.3693 11.4777 15.18 11.2899C14.79 10.9022 14.16 10.9022 13.77 11.2899ZM11.29 8.81993C10.9023 9.20997 10.9023 9.83989 11.29 10.2299C11.4777 10.4192 11.7333 10.5257 12 10.5257C12.2666 10.5257 12.5222 10.4192 12.71 10.2299C13.0977 9.83989 13.0977 9.20997 12.71 8.81993C12.5222 8.63062 12.2666 8.52413 12 8.52413C11.7333 8.52413 11.4777 8.63062 11.29 8.81993Z" fill="#171E2B"/>
</svg>
