<svg width="24" height="24" viewBox="0 0 24 24" fill="none" xmlns="http://www.w3.org/2000/svg">
<path fill-rule="evenodd" clip-rule="evenodd" d="M10 17.0001H11V18.0001C11 18.5524 11.4477 19.0001 12 19.0001C12.5523 19.0001 13 18.5524 13 18.0001V17.0001H14C14.5523 17.0001 15 16.5524 15 16.0001C15 15.4478 14.5523 15.0001 14 15.0001H13V14.0001C13 13.4478 12.5523 13.0001 12 13.0001C11.4477 13.0001 11 13.4478 11 14.0001V15.0001H10C9.44772 15.0001 9.00001 15.4478 9.00001 16.0001C9.00001 16.5524 9.44772 17.0001 10 17.0001ZM19 6.00006H17V5.00006C17 3.34321 15.6569 2.00006 14 2.00006H10C8.34315 2.00006 7 3.34321 7 5.00006V6.00006H5C3.34315 6.00006 2 7.34321 2 9.00006V19.0001C2 20.6569 3.34315 22.0001 5 22.0001H19C20.6569 22.0001 22 20.6569 22 19.0001V9.00006C22 7.34321 20.6569 6.00006 19 6.00006ZM9.00001 5.00012C9.00001 4.44784 9.44772 4.00012 10 4.00012H14C14.5523 4.00012 15 4.44784 15 5.00012V6.00012H9.00001V5.00012ZM20 19C20 19.5523 19.5523 20 19 20H4.99999C4.44771 20 3.99999 19.5523 3.99999 19V12H20V19ZM20 10.0001H3.99999V9.00006C3.99999 8.44778 4.44771 8.00006 4.99999 8.00006H19C19.5523 8.00006 20 8.44778 20 9.00006V10.0001Z" fill="#171E2B"/>
</svg>
