<svg width="24" height="24" viewBox="0 0 24 24" fill="none" xmlns="http://www.w3.org/2000/svg">
<path fill-rule="evenodd" clip-rule="evenodd" d="M6.99998 10.0001H8.99999C9.55227 10.0001 9.99999 9.55235 9.99999 9.00006C9.99999 8.44778 9.55227 8.00006 8.99999 8.00006H6.99998C6.4477 8.00006 5.99998 8.44778 5.99998 9.00006C5.99998 9.55235 6.4477 10.0001 6.99998 10.0001ZM21 4.00006H13V3.00006C13 2.44778 12.5523 2.00006 12 2.00006C11.4477 2.00006 11 2.44778 11 3.00006V4.00006H3C2.44772 4.00006 2 4.44778 2 5.00006V15.0001C2 16.6569 3.34315 18.0001 5 18.0001H9.59L7.29 20.2901C7.10069 20.4778 6.9942 20.7334 6.9942 21.0001C6.9942 21.2667 7.10069 21.5223 7.29 21.7101C7.47777 21.8994 7.73336 22.0059 8 22.0059C8.26664 22.0059 8.52223 21.8994 8.71 21.7101L11 19.4101V21.0001C11 21.5523 11.4477 22.0001 12 22.0001C12.5523 22.0001 13 21.5523 13 21.0001V19.4101L15.29 21.7101C15.4778 21.8994 15.7334 22.0059 16 22.0059C16.2666 22.0059 16.5222 21.8994 16.71 21.7101C16.8993 21.5223 17.0058 21.2667 17.0058 21.0001C17.0058 20.7334 16.8993 20.4778 16.71 20.2901L14.41 18.0001H19C20.6569 18.0001 22 16.6569 22 15.0001V5.00006C22 4.44778 21.5523 4.00006 21 4.00006ZM20 15C20 15.5523 19.5523 16 19 16H5.00001C4.44773 16 4.00002 15.5523 4.00002 15V6H20V15ZM6.99998 14H13C13.5523 14 14 13.5523 14 13C14 12.4477 13.5523 12 13 12H6.99998C6.4477 12 5.99998 12.4477 5.99998 13C5.99998 13.5523 6.4477 14 6.99998 14Z" fill="#171E2B"/>
</svg>
