<svg width="24" height="24" viewBox="0 0 24 24" fill="none" xmlns="http://www.w3.org/2000/svg">
<path fill-rule="evenodd" clip-rule="evenodd" d="M9.21 10.54C9.60004 10.9277 10.23 10.9277 10.62 10.54C11.0077 10.15 11.0077 9.52004 10.62 9.13C9.43159 8.00237 7.56841 8.00237 6.38 9.13C6.09462 9.37439 5.97032 9.75812 6.05819 10.1234C6.14606 10.4887 6.43128 10.7739 6.79658 10.8618C7.16188 10.9497 7.54561 10.8254 7.79 10.54C7.97777 10.3507 8.23336 10.2442 8.5 10.2442C8.76664 10.2442 9.02223 10.3507 9.21 10.54ZM15 14.0001H9.00002C8.44773 14.0001 8.00002 14.4478 8.00002 15.0001C8.00002 15.5523 8.44773 16.0001 9.00002 16.0001H15C15.5523 16.0001 16 15.5523 16 15.0001C16 14.4478 15.5523 14.0001 15 14.0001ZM17.62 9.13C16.4316 8.00237 14.5684 8.00237 13.38 9.13C13.0402 9.52676 13.0631 10.1182 13.4325 10.4876C13.8018 10.8569 14.3933 10.8798 14.79 10.54C14.9778 10.3507 15.2334 10.2442 15.5 10.2442C15.7667 10.2442 16.0223 10.3507 16.21 10.54C16.6001 10.9277 17.23 10.9277 17.62 10.54C18.0077 10.15 18.0077 9.52004 17.62 9.13ZM12 2.00006C6.47717 2.00006 2.00002 6.47721 2.00002 12.0001C2.00002 17.5229 6.47717 22.0001 12 22.0001C17.5229 22.0001 22 17.5229 22 12.0001C22 9.3479 20.9464 6.80436 19.0711 4.92899C17.1957 3.05363 14.6522 2.00006 12 2.00006ZM12 20.0001C7.58175 20.0001 4.00003 16.4184 4.00003 12.0001C4.00003 7.58184 7.58175 4.00012 12 4.00012C16.4183 4.00012 20 7.58184 20 12.0001C20 14.1219 19.1572 16.1567 17.6569 17.657C16.1566 19.1573 14.1218 20.0001 12 20.0001Z" fill="#171E2B"/>
</svg>
