<svg width="24" height="24" viewBox="0 0 24 24" fill="none" xmlns="http://www.w3.org/2000/svg">
<path fill-rule="evenodd" clip-rule="evenodd" d="M9.00002 11H10C10.5523 11 11 10.5523 11 10C11 9.44771 10.5523 9 10 9H9.00002C8.44773 9 8.00002 9.44771 8.00002 10C8.00002 10.5523 8.44773 11 9.00002 11ZM15 14.0001H9.00002C8.44773 14.0001 8.00002 14.4478 8.00002 15.0001C8.00002 15.5523 8.44773 16.0001 9.00002 16.0001H15C15.5523 16.0001 16 15.5523 16 15.0001C16 14.4478 15.5523 14.0001 15 14.0001ZM15 9H14C13.4477 9 13 9.44771 13 10C13 10.5523 13.4477 11 14 11H15C15.5523 11 16 10.5523 16 10C16 9.44771 15.5523 9 15 9ZM12 2.00006C6.47717 2.00006 2.00002 6.47721 2.00002 12.0001C2.00002 17.5229 6.47717 22.0001 12 22.0001C17.5229 22.0001 22 17.5229 22 12.0001C22 9.3479 20.9464 6.80436 19.0711 4.92899C17.1957 3.05363 14.6522 2.00006 12 2.00006ZM12 20.0001C7.58175 20.0001 4.00003 16.4184 4.00003 12.0001C4.00003 7.58184 7.58175 4.00012 12 4.00012C16.4183 4.00012 20 7.58184 20 12.0001C20 14.1219 19.1572 16.1567 17.6569 17.657C16.1566 19.1573 14.1218 20.0001 12 20.0001Z" fill="#171E2B"/>
</svg>
