<svg width="24" height="24" viewBox="0 0 24 24" fill="none" xmlns="http://www.w3.org/2000/svg">
<path fill-rule="evenodd" clip-rule="evenodd" d="M9 11C9.55228 11 10 10.5523 10 10C10 9.44771 9.55228 9 9 9C8.44772 9 8 9.44771 8 10C8 10.5523 8.44772 11 9 11ZM15 14.0001H9C8.44772 14.0001 8 14.4478 8 15.0001C8 15.5523 8.44772 16.0001 9 16.0001H15C15.5523 16.0001 16 15.5523 16 15.0001C16 14.4478 15.5523 14.0001 15 14.0001ZM15 9C14.4477 9 14 9.44771 14 10C14 10.5523 14.4477 11 15 11C15.5523 11 16 10.5523 16 10C16 9.44771 15.5523 9 15 9ZM12 2.00006C6.47715 2.00006 2 6.47721 2 12.0001C2 17.5229 6.47715 22.0001 12 22.0001C17.5228 22.0001 22 17.5229 22 12.0001C22 9.3479 20.9464 6.80436 19.0711 4.92899C17.1957 3.05363 14.6522 2.00006 12 2.00006ZM12 20.0001C7.58174 20.0001 4.00002 16.4184 4.00002 12.0001C4.00002 7.58184 7.58174 4.00012 12 4.00012C16.4183 4.00012 20 7.58184 20 12.0001C20 14.1219 19.1572 16.1567 17.6569 17.657C16.1566 19.1573 14.1217 20.0001 12 20.0001Z" fill="#171E2B"/>
</svg>
