<svg width="24" height="24" viewBox="0 0 24 24" fill="none" xmlns="http://www.w3.org/2000/svg">
<path fill-rule="evenodd" clip-rule="evenodd" d="M20.34 9.32001L6.33998 2.32001C5.20802 1.75662 3.84433 1.96344 2.93031 2.83713C2.0163 3.71082 1.7482 5.06379 2.25998 6.22001L4.65998 11.59C4.76998 11.8523 4.76998 12.1477 4.65998 12.41L2.25998 17.78C1.84693 18.7079 1.93144 19.7818 2.48456 20.6337C3.03768 21.4856 3.98428 21.9998 4.99998 22C5.46821 21.9953 5.92947 21.886 6.34998 21.68L20.35 14.68C21.3627 14.1705 22.0018 13.1337 22.0018 12C22.0018 10.8663 21.3627 9.82948 20.35 9.32001H20.34ZM19.45 12.89L5.44998 19.89C5.07349 20.0708 4.62432 19.9985 4.32349 19.7089C4.02266 19.4192 3.93354 18.973 4.09998 18.59L6.48997 13.22C6.52091 13.1483 6.54763 13.0748 6.56997 13H13.46C14.0123 13 14.46 12.5523 14.46 12C14.46 11.4477 14.0123 11 13.46 11H6.56997C6.54763 10.9252 6.52091 10.8517 6.48997 10.78L4.09998 5.41C3.93354 5.02697 4.02266 4.58084 4.32349 4.29115C4.62432 4.00146 5.07349 3.92923 5.44998 4.11L19.45 11.11C19.7839 11.2811 19.994 11.6248 19.994 12C19.994 12.3752 19.7839 12.7189 19.45 12.89Z" fill="#171E2B"/>
</svg>
