<svg width="24" height="24" viewBox="0 0 24 24" fill="none" xmlns="http://www.w3.org/2000/svg">
<path fill-rule="evenodd" clip-rule="evenodd" d="M10.5 3.73018C10.8588 3.29787 11.383 3.03642 11.9441 3.00979C12.5053 2.98316 13.0519 3.19379 13.45 3.59018C13.811 3.96999 14.0085 4.47628 14 5.00018V8.41018C14 8.96246 14.4477 9.41018 15 9.41018C15.5523 9.41018 16 8.96246 16 8.41018V5.00018C15.9532 3.35763 14.9066 1.9108 13.3613 1.35225C11.8159 0.793711 10.0861 1.2371 9.00001 2.47018C8.68155 2.72209 8.54704 3.14156 8.65961 3.53169C8.77218 3.92182 9.10948 4.20516 9.51319 4.2487C9.91689 4.29224 10.3068 4.08734 10.5 3.73018ZM18.72 13.2702H18.92C19.4059 13.279 19.8278 12.9373 19.92 12.4602C19.9917 11.977 20.0185 11.4882 20 11.0002C20 10.4479 19.5523 10.0002 19 10.0002C18.4477 10.0002 18 10.4479 18 11.0002C18.0001 11.3696 17.9633 11.7381 17.89 12.1002C17.8409 12.3659 17.9014 12.6402 18.0577 12.8606C18.2141 13.081 18.453 13.2287 18.72 13.2702ZM21.72 19.3301L3.72001 1.3301C3.53224 1.14079 3.27665 1.0343 3.01001 1.0343C2.74337 1.0343 2.48778 1.14079 2.30001 1.3301C1.91229 1.72014 1.91229 2.35006 2.30001 2.7401L8.00001 8.4801V11.0001C8.00147 12.4284 8.76445 13.7476 10.0018 14.4611C11.2391 15.1747 12.763 15.1743 14 14.4601L15.46 15.9201C13.6261 17.2146 11.223 17.3771 9.23151 16.3414C7.24 15.3056 5.99322 13.2448 6.00001 11.0001C6.00001 10.4478 5.55229 10.0001 5.00001 10.0001C4.44772 10.0001 4.00001 10.4478 4.00001 11.0001C4.00366 15.029 7.00275 18.4265 11 18.9301V21.0001H9.00001C8.44772 21.0001 8.00001 21.4478 8.00001 22.0001C8.00001 22.5524 8.44772 23.0001 9.00001 23.0001H15C15.5523 23.0001 16 22.5524 16 22.0001C16 21.4478 15.5523 21.0001 15 21.0001H13V18.9301C14.4029 18.7555 15.7328 18.2063 16.85 17.3401L20.25 20.7401C20.6394 21.1322 21.2729 21.1345 21.665 20.7451C22.0571 20.3557 22.0594 19.7222 21.67 19.3301H21.72ZM12 13.0002C10.8954 13.0002 10 12.1047 10 11.0002V10.4802L12.45 12.9402C12.3033 12.9797 12.152 12.9999 12 13.0002Z" fill="#171E2B"/>
</svg>
