<svg width="24" height="24" viewBox="0 0 24 24" fill="none" xmlns="http://www.w3.org/2000/svg">
<path fill-rule="evenodd" clip-rule="evenodd" d="M12 14.9999C14.2091 14.9999 16 13.2091 16 10.9999V4.99994C16 2.7908 14.2091 0.999939 12 0.999939C9.79087 0.999939 8.00001 2.7908 8.00001 4.99994V10.9999C8.00001 13.2091 9.79087 14.9999 12 14.9999ZM10 5C10 3.89543 10.8954 3 12 3C13.1046 3 14 3.89543 14 5V11C14 12.1046 13.1046 13 12 13C10.8954 13 10 12.1046 10 11V5ZM20 10.9999C20 10.4477 19.5523 9.99994 19 9.99994C18.4477 9.99994 18 10.4477 18 10.9999C18 14.3136 15.3137 16.9999 12 16.9999C8.68629 16.9999 6 14.3136 6 10.9999C6 10.4477 5.55228 9.99994 5 9.99994C4.44772 9.99994 4 10.4477 4 10.9999C4.00365 15.0288 7.00274 18.4263 11 18.9299V20.9999H9C8.44771 20.9999 8 21.4477 8 21.9999C8 22.5522 8.44771 22.9999 9 22.9999H15C15.5523 22.9999 16 22.5522 16 21.9999C16 21.4477 15.5523 20.9999 15 20.9999H13V18.9299C16.9973 18.4263 19.9963 15.0288 20 10.9999Z" fill="#171E2B"/>
</svg>
