<svg width="24" height="24" viewBox="0 0 24 24" fill="none" xmlns="http://www.w3.org/2000/svg">
<path fill-rule="evenodd" clip-rule="evenodd" d="M9 13.0001H15C15.5523 13.0001 16 12.5523 16 12.0001C16 11.4478 15.5523 11.0001 15 11.0001H9C8.44772 11.0001 8 11.4478 8 12.0001C8 12.5523 8.44772 13.0001 9 13.0001ZM21 2.00006H3C2.44772 2.00006 2 2.44778 2 3.00006V21.0001C2 21.5523 2.44772 22.0001 3 22.0001H21C21.5523 22.0001 22 21.5523 22 21.0001V3.00006C22 2.44778 21.5523 2.00006 21 2.00006ZM20 20.0001H4.00002V4.00012H20V20.0001Z" fill="#171E2B"/>
</svg>
