<svg width="24" height="24" viewBox="0 0 24 24" fill="none" xmlns="http://www.w3.org/2000/svg">
<path fill-rule="evenodd" clip-rule="evenodd" d="M19 2.00006H5C3.34315 2.00006 2 3.34321 2 5.00006V19.0001C2 20.6569 3.34315 22.0001 5 22.0001H19C20.6569 22.0001 22 20.6569 22 19.0001V5.00006C22 3.34321 20.6569 2.00006 19 2.00006ZM20 19.0001C20 19.5524 19.5523 20.0001 19 20.0001H5.00001C4.44773 20.0001 4.00002 19.5524 4.00002 19.0001V5.00012C4.00002 4.44784 4.44773 4.00012 5.00001 4.00012H19C19.5523 4.00012 20 4.44784 20 5.00012V19.0001ZM16 11.0001H8.00002C7.44773 11.0001 7.00002 11.4478 7.00002 12.0001C7.00002 12.5523 7.44773 13.0001 8.00002 13.0001H16C16.5523 13.0001 17 12.5523 17 12.0001C17 11.4478 16.5523 11.0001 16 11.0001Z" fill="#171E2B"/>
</svg>
