<svg width="24" height="24" viewBox="0 0 24 24" fill="none" xmlns="http://www.w3.org/2000/svg">
<path fill-rule="evenodd" clip-rule="evenodd" d="M12 2.00006C6.47715 2.00006 2 6.47721 2 12.0001C2 17.5229 6.47715 22.0001 12 22.0001C17.5228 22.0001 22 17.5229 22 12.0001C22 9.3479 20.9464 6.80436 19.0711 4.92899C17.1957 3.05363 14.6522 2.00006 12 2.00006ZM12 20.0001C7.58171 20.0001 3.99999 16.4184 3.99999 12.0001C3.99999 7.58184 7.58171 4.00012 12 4.00012C16.4183 4.00012 20 7.58184 20 12.0001C20 14.1219 19.1571 16.1567 17.6568 17.657C16.1566 19.1573 14.1217 20.0001 12 20.0001ZM16 11.0001H7.99999C7.44771 11.0001 6.99999 11.4478 6.99999 12.0001C6.99999 12.5523 7.44771 13.0001 7.99999 13.0001H16C16.5523 13.0001 17 12.5523 17 12.0001C17 11.4478 16.5523 11.0001 16 11.0001Z" fill="#171E2B"/>
</svg>
