<svg width="24" height="24" viewBox="0 0 24 24" fill="none" xmlns="http://www.w3.org/2000/svg">
<path fill-rule="evenodd" clip-rule="evenodd" d="M8.17999 4.00006H10.28C10.8323 4.00006 11.28 3.55235 11.28 3.00006C11.28 2.44778 10.8323 2.00006 10.28 2.00006H8.17999C7.62771 2.00006 7.17999 2.44778 7.17999 3.00006C7.17999 3.55235 7.62771 4.00006 8.17999 4.00006ZM3 11.2801C3.55229 11.2801 4 10.8324 4 10.2801V8.18012C4 7.62784 3.55229 7.18012 3 7.18012C2.44772 7.18012 2 7.62784 2 8.18012V10.2801C2 10.8324 2.44772 11.2801 3 11.2801ZM14.46 4.00006C14.46 4.55235 14.9077 5.00006 15.46 5.00006C16.0123 5.00006 16.46 4.55235 16.46 4.00006V3.00006C16.46 2.44778 16.0123 2.00006 15.46 2.00006H14.46C13.9077 2.00006 13.46 2.44778 13.46 3.00006C13.46 3.55235 13.9077 4.00006 14.46 4.00006ZM21 7.54H16.46C16.46 6.98771 16.0123 6.54 15.46 6.54C14.9077 6.54 14.46 6.98771 14.46 7.54H8.54001C7.98772 7.54 7.54001 7.98771 7.54001 8.54V14.46C6.98772 14.46 6.54001 14.9077 6.54001 15.46C6.54001 16.0123 6.98772 16.46 7.54001 16.46V21C7.54001 21.5523 7.98772 22 8.54001 22H21C21.5523 22 22 21.5523 22 21V8.54C22 7.98771 21.5523 7.54 21 7.54ZM20 20H9.54001V15.47V9.54H20V20ZM4 2.00006H3C2.44772 2.00006 2 2.44778 2 3.00006V4.00006C2 4.55235 2.44772 5.00006 3 5.00006C3.55228 5.00006 4 4.55235 4 4.00006C4.55228 4.00006 5 3.55235 5 3.00006C5 2.44778 4.55228 2.00006 4 2.00006ZM4 14.4601C4 13.9078 3.55228 13.4601 3 13.4601C2.44772 13.4601 2 13.9078 2 14.4601V15.4601C2 16.0123 2.44772 16.4601 3 16.4601H4C4.55228 16.4601 5 16.0123 5 15.4601C5 14.9078 4.55228 14.4601 4 14.4601Z" fill="#171E2B"/>
</svg>
