<svg width="24" height="24" viewBox="0 0 24 24" fill="none" xmlns="http://www.w3.org/2000/svg">
<path fill-rule="evenodd" clip-rule="evenodd" d="M5.99997 7.48999C6.55225 7.48999 6.99997 7.04227 6.99997 6.48999V5.89999L9.87997 8.77999C11.0512 9.9498 12.9487 9.9498 14.12 8.77999L18.71 4.18999C19.0977 3.79995 19.0977 3.17003 18.71 2.77999C18.5222 2.59068 18.2666 2.48419 18 2.48419C17.7333 2.48419 17.4777 2.59068 17.29 2.77999L12.71 7.35999C12.5222 7.5493 12.2666 7.65579 12 7.65579C11.7333 7.65579 11.4777 7.5493 11.29 7.35999L8.40997 4.48999H8.99997C9.55225 4.48999 9.99997 4.04228 9.99997 3.48999C9.99997 2.93771 9.55225 2.48999 8.99997 2.48999H5.99997C5.59869 2.49032 5.23647 2.73049 5.07997 3.09999C5.02958 3.22398 5.00247 3.35618 4.99997 3.48999V6.48999C4.99997 7.04227 5.44768 7.48999 5.99997 7.48999ZM21.94 14.85C16.0838 10.3307 7.91615 10.3307 2.05998 14.85C1.45223 15.3399 1.08731 16.0698 1.05998 16.85C1.00714 17.6205 1.2918 18.3759 1.83998 18.92L3.59998 20.72C4.52888 21.6485 5.99386 21.7671 7.05998 21L7.52998 20.68C7.85002 20.4734 8.18418 20.2896 8.52998 20.13C9.41142 19.7407 9.84649 18.7401 9.52998 17.83L9.43998 17.59C11.1522 17.1501 12.9478 17.1501 14.66 17.59L14.57 17.83C14.2535 18.7401 14.6885 19.7407 15.57 20.13C15.9158 20.2896 16.2499 20.4734 16.57 20.68L17.04 21C17.4864 21.3276 18.0263 21.5029 18.58 21.5C19.2993 21.5008 19.9896 21.2168 20.5 20.71L22.31 18.89C22.8227 18.3328 23.0737 17.5835 23 16.83C22.9522 16.047 22.5651 15.3238 21.94 14.85ZM20.8 17.4899L19 19.2999C18.7743 19.535 18.4136 19.5769 18.14 19.3999C17.95 19.2599 17.76 19.1299 17.55 18.9999C17.1978 18.7772 16.8339 18.5736 16.46 18.3899L16.86 17.2999C17.0475 16.7808 16.7789 16.2079 16.26 16.0199C13.5148 15.0202 10.5051 15.0202 7.75996 16.0199C7.24097 16.2079 6.97242 16.7808 7.15996 17.2999L7.55996 18.3999C7.18087 18.5762 6.81345 18.7766 6.45996 18.9999L5.87996 19.3999C5.60448 19.5975 5.22407 19.5543 4.99996 19.2999L3.19996 17.4899C3.06887 17.3609 2.99656 17.1838 2.99996 16.9999C3.01674 16.7923 3.11796 16.6007 3.27996 16.4699C8.41938 12.5113 15.5805 12.5113 20.72 16.4699C20.882 16.6007 20.9832 16.7923 21 16.9999C21.0034 17.1838 20.931 17.3609 20.8 17.4899Z" fill="#171E2B"/>
</svg>
