<svg width="24" height="24" viewBox="0 0 24 24" fill="none" xmlns="http://www.w3.org/2000/svg">
<path fill-rule="evenodd" clip-rule="evenodd" d="M5.99997 11.0001C5.44768 11.0001 4.99997 11.4478 4.99997 12.0001C4.99997 12.5524 5.44768 13.0001 5.99997 13.0001C6.55225 13.0001 6.99997 12.5524 6.99997 12.0001C6.99997 11.4478 6.55225 11.0001 5.99997 11.0001ZM11.86 9.45002L4.70998 2.29003C4.45633 2.03637 4.08661 1.9373 3.74011 2.03015C3.3936 2.12299 3.12295 2.39364 3.03011 2.74015C2.93726 3.08665 3.03633 3.45637 3.28998 3.71002L4.58998 5.00003H3.99998C2.34313 5.00003 0.999985 6.34317 0.999985 8.00002V16C0.999985 17.6569 2.34313 19 3.99998 19H18.59L21.29 21.71C21.4777 21.8993 21.7333 22.0058 22 22.0058C22.2666 22.0058 22.5222 21.8993 22.71 21.71C22.8993 21.5223 23.0058 21.2667 23.0058 21C23.0058 20.7334 22.8993 20.4778 22.71 20.29L11.86 9.45002ZM11.12 11.5401L12.46 12.8801C12.3185 12.9565 12.1607 12.9976 12 13.0001C11.4477 13.0001 11 12.5524 11 12.0001C11.0024 11.8393 11.0436 11.6815 11.12 11.5401ZM4 16.9999C3.44772 16.9999 3 16.5522 3 15.9999V7.99994C3 7.44766 3.44772 6.99994 4 6.99994H6.59L9.69 10.0999C9.24713 10.6344 9.00328 11.3059 9 11.9999C9 13.6568 10.3431 14.9999 12 14.9999C12.6941 14.9967 13.3656 14.7528 13.9 14.3099L16.59 16.9999H4ZM20 5.00007H12.66C12.1077 5.00007 11.66 5.44778 11.66 6.00007C11.66 6.55235 12.1077 7.00007 12.66 7.00007H20C20.5523 7.00007 21 7.44778 21 8.00007V15.3401C21 15.8924 21.4477 16.3401 22 16.3401C22.5523 16.3401 23 15.8924 23 15.3401V8.00007C23 6.34321 21.6568 5.00007 20 5.00007ZM19 12.0001C19 11.4478 18.5523 11.0001 18 11.0001C17.4477 11.0001 17 11.4478 17 12.0001C17 12.5524 17.4477 13.0001 18 13.0001C18.5523 13.0001 19 12.5524 19 12.0001Z" fill="#171E2B"/>
</svg>
