<svg width="24" height="24" viewBox="0 0 24 24" fill="none" xmlns="http://www.w3.org/2000/svg">
<path fill-rule="evenodd" clip-rule="evenodd" d="M9.87999 14.1202L9.72999 14.0002L9.54999 13.9002L9.36999 13.8502C9.04375 13.7848 8.70639 13.886 8.46999 14.1202C8.37107 14.2108 8.29558 14.324 8.24999 14.4502C8.14301 14.6922 8.14301 14.9681 8.24999 15.2102C8.35744 15.4505 8.5497 15.6427 8.78999 15.7502C8.91021 15.8014 9.03931 15.8286 9.16999 15.8302C9.3038 15.8277 9.436 15.8005 9.55999 15.7502C9.68187 15.7019 9.79126 15.6267 9.87999 15.5302C9.97353 15.4389 10.0483 15.3302 10.1 15.2102C10.1478 15.0892 10.1716 14.9602 10.17 14.8302C10.1734 14.699 10.146 14.5688 10.09 14.4502C10.0442 14.3265 9.97259 14.214 9.87999 14.1202ZM3.50999 8.76008C3.77723 8.75897 4.03292 8.65094 4.21999 8.46008L8.45999 4.22008C8.84771 3.83004 8.84771 3.20012 8.45999 2.81008C8.06995 2.42236 7.44003 2.42236 7.04999 2.81008L2.80999 7.05008C2.42226 7.44012 2.42226 8.07004 2.80999 8.46008C2.99462 8.64849 3.24622 8.75632 3.50999 8.76008ZM21.19 15.54C20.8 15.1523 20.17 15.1523 19.78 15.54L15.54 19.78C15.2528 20.0648 15.1655 20.4946 15.3187 20.8689C15.4719 21.2432 15.8355 21.4883 16.24 21.49C16.5072 21.4889 16.7629 21.3809 16.95 21.19L21.19 17C21.3919 16.8109 21.5065 16.5467 21.5065 16.27C21.5065 15.9934 21.3919 15.7291 21.19 15.54ZM21.36 9.88006C21.3619 9.08611 21.0491 8.32376 20.49 7.76006L16.24 3.51006C15.0516 2.38243 13.1884 2.38243 12 3.51006L3.50998 12.0001C2.34017 13.1713 2.34017 15.0688 3.50998 16.2401L7.75998 20.4901C8.93125 21.6599 10.8287 21.6599 12 20.4901L20.49 12.0001C21.0491 11.4364 21.3619 10.674 21.36 9.88006ZM19.07 10.5901L10.59 19.0701C10.4022 19.2594 10.1466 19.3659 9.87999 19.3659C9.61336 19.3659 9.35776 19.2594 9.16999 19.0701L4.92999 14.8301C4.74068 14.6423 4.63419 14.3867 4.63419 14.1201C4.63419 13.8534 4.74068 13.5978 4.92999 13.4101L13.41 4.93006C13.5978 4.74075 13.8534 4.63426 14.12 4.63426C14.3866 4.63426 14.6422 4.74075 14.83 4.93006L19.07 9.17006C19.2593 9.35783 19.3658 9.61342 19.3658 9.88006C19.3658 10.1467 19.2593 10.4023 19.07 10.5901Z" fill="#171E2B"/>
</svg>
