<svg width="24" height="24" viewBox="0 0 24 24" fill="none" xmlns="http://www.w3.org/2000/svg">
<path fill-rule="evenodd" clip-rule="evenodd" d="M12.71 16.29L12.56 16.17C12.5043 16.1322 12.4438 16.1019 12.38 16.08L12.2 16C11.8706 15.9312 11.5286 16.0326 11.29 16.27C11.2017 16.3672 11.1307 16.4789 11.08 16.6C10.9253 16.9726 11.0096 17.4017 11.2937 17.688C11.5779 17.9744 12.0063 18.0619 12.38 17.91C12.4995 17.8521 12.6106 17.778 12.71 17.69C12.9938 17.4025 13.0766 16.9724 12.92 16.6C12.8702 16.4844 12.7989 16.3792 12.71 16.29ZM16 2.00006H8.00003C6.34318 2.00006 5.00003 3.34321 5.00003 5.00006V19.0001C5.00003 20.6569 6.34318 22.0001 8.00003 22.0001H16C17.6569 22.0001 19 20.6569 19 19.0001V5.00006C19 3.34321 17.6569 2.00006 16 2.00006ZM17 19.0001C17 19.5524 16.5523 20.0001 16 20.0001H8.00005C7.44776 20.0001 7.00005 19.5524 7.00005 19.0001V5.00012C7.00005 4.44784 7.44776 4.00012 8.00005 4.00012H16C16.5523 4.00012 17 4.44784 17 5.00012V19.0001Z" fill="#171E2B"/>
</svg>
