<svg width="24" height="24" viewBox="0 0 24 24" fill="none" xmlns="http://www.w3.org/2000/svg">
<path fill-rule="evenodd" clip-rule="evenodd" d="M16 2.00006H8C6.34315 2.00006 5 3.34321 5 5.00006V19.0001C5 20.6569 6.34315 22.0001 8 22.0001H16C17.6569 22.0001 19 20.6569 19 19.0001V5.00006C19 3.34321 17.6569 2.00006 16 2.00006ZM17 19C17 19.5523 16.5523 20 16 20H7.99999C7.44771 20 6.99999 19.5523 6.99999 19V18H17V19ZM17 16.0001H6.99999V5.00012C6.99999 4.44784 7.44771 4.00012 7.99999 4.00012H16C16.5523 4.00012 17 4.44784 17 5.00012V16.0001Z" fill="#171E2B"/>
</svg>
