<svg width="24" height="24" viewBox="0 0 24 24" fill="none" xmlns="http://www.w3.org/2000/svg">
<path fill-rule="evenodd" clip-rule="evenodd" d="M21.48 13.1301C21.4741 13.0612 21.4572 12.9937 21.43 12.9301C21.4094 12.8707 21.3826 12.8138 21.35 12.7601C21.3226 12.7032 21.2891 12.6496 21.25 12.6001L21.09 12.4701L21 12.3801L6.28 3.88007C5.79951 3.60393 5.18614 3.76959 4.91 4.25007C4.63386 4.73056 4.79951 5.34393 5.28 5.62007L16.77 12.2501H3.5C2.94772 12.2501 2.5 12.6978 2.5 13.2501V17.2501C2.5 18.9069 3.84315 20.2501 5.5 20.2501H18.5C20.1569 20.2501 21.5 18.9069 21.5 17.2501V13.2501C21.5 13.2501 21.48 13.1701 21.48 13.1301ZM19.48 17.25C19.48 17.8023 19.0323 18.25 18.48 18.25H5.5C4.94772 18.25 4.5 17.8023 4.5 17.25V14.25H19.5L19.48 17.25ZM16.48 17.2501C17.0323 17.2501 17.48 16.8024 17.48 16.2501C17.48 15.6979 17.0323 15.2501 16.48 15.2501C15.9277 15.2501 15.48 15.6979 15.48 16.2501C15.4799 16.5189 15.588 16.7763 15.7799 16.9644C15.9718 17.1525 16.2313 17.2555 16.5 17.2501H16.48Z" fill="#171E2B"/>
</svg>
