<svg width="24" height="24" viewBox="0 0 24 24" fill="none" xmlns="http://www.w3.org/2000/svg">
<path fill-rule="evenodd" clip-rule="evenodd" d="M6 11.0001C5.44771 11.0001 5 11.4478 5 12.0001C5 12.5523 5.44771 13.0001 6 13.0001C6.55228 13.0001 6.99999 12.5523 6.99999 12.0001C6.99999 11.4478 6.55228 11.0001 6 11.0001ZM18 11.0001C17.4477 11.0001 17 11.4478 17 12.0001C17 12.5523 17.4477 13.0001 18 13.0001C18.5523 13.0001 19 12.5523 19 12.0001C19 11.4478 18.5523 11.0001 18 11.0001ZM20 5.00006H4C2.34315 5.00006 1 6.34321 1 8.00006V16.0001C1 17.6569 2.34315 19.0001 4 19.0001H20C21.6569 19.0001 23 17.6569 23 16.0001V8.00006C23 6.34321 21.6569 5.00006 20 5.00006ZM21 16.0001C21 16.5524 20.5523 17.0001 20 17.0001H4C3.44772 17.0001 3 16.5524 3 16.0001V8.00012C3 7.44784 3.44772 7.00012 4 7.00012H20C20.5523 7.00012 21 7.44784 21 8.00012V16.0001ZM12 9C10.3431 9 9 10.3431 9 12C9 13.6569 10.3431 15 12 15C13.6569 15 15 13.6569 15 12C15 10.3431 13.6569 9 12 9ZM12 13.0001C11.4477 13.0001 11 12.5523 11 12.0001C11 11.4478 11.4477 11.0001 12 11.0001C12.5523 11.0001 13 11.4478 13 12.0001C13 12.5523 12.5523 13.0001 12 13.0001Z" fill="#171E2B"/>
</svg>
