<svg width="24" height="24" viewBox="0 0 24 24" fill="none" xmlns="http://www.w3.org/2000/svg">
<path fill-rule="evenodd" clip-rule="evenodd" d="M22 16.9999H2C1.44772 16.9999 1 17.4476 1 17.9999C1 18.5522 1.44772 18.9999 2 18.9999H22C22.5523 18.9999 23 18.5522 23 17.9999C23 17.4476 22.5523 16.9999 22 16.9999ZM22 21H2C1.44772 21 1 21.4477 1 22C1 22.5523 1.44772 23 2 23H22C22.5523 23 23 22.5523 23 22C23 21.4477 22.5523 21 22 21ZM5.99998 6.99994C5.4477 6.99994 4.99998 7.44765 4.99998 7.99994C4.99998 8.55222 5.4477 8.99994 5.99998 8.99994C6.55227 8.99994 6.99998 8.55222 6.99998 7.99994C6.99998 7.44765 6.55227 6.99994 5.99998 6.99994ZM20 0.999939H4C2.34315 0.999939 1 2.34309 1 3.99994V11.9999C1 13.6568 2.34315 14.9999 4 14.9999H20C21.6569 14.9999 23 13.6568 23 11.9999V3.99994C23 2.34309 21.6569 0.999939 20 0.999939ZM21 12C21 12.5523 20.5523 13 20 13H4.00002C3.44773 13 3.00002 12.5523 3.00002 12V4C3.00002 3.44772 3.44773 3 4.00002 3H20C20.5523 3 21 3.44772 21 4V12ZM12 4.99988C10.3432 4.99988 9.00001 6.34302 9.00001 7.99988C9.00001 9.65673 10.3432 10.9999 12 10.9999C13.6569 10.9999 15 9.65673 15 7.99988C15 6.34302 13.6569 4.99988 12 4.99988ZM12 8.99994C11.4477 8.99994 11 8.55222 11 7.99994C11 7.44765 11.4477 6.99994 12 6.99994C12.5523 6.99994 13 7.44765 13 7.99994C13 8.55222 12.5523 8.99994 12 8.99994ZM18 6.99994C17.4477 6.99994 17 7.44765 17 7.99994C17 8.55222 17.4477 8.99994 18 8.99994C18.5523 8.99994 19 8.55222 19 7.99994C19 7.44765 18.5523 6.99994 18 6.99994Z" fill="#171E2B"/>
</svg>
