<svg width="24" height="24" viewBox="0 0 24 24" fill="none" xmlns="http://www.w3.org/2000/svg">
<path fill-rule="evenodd" clip-rule="evenodd" d="M22 2.00006H1.99998C1.4477 2.00006 0.999985 2.44778 0.999985 3.00006V11.0001C0.999985 11.5523 1.4477 12.0001 1.99998 12.0001H4.99998V21.0001C4.99998 21.5523 5.4477 22.0001 5.99998 22.0001H18C18.5523 22.0001 19 21.5523 19 21.0001V12.0001H22C22.5523 12.0001 23 11.5523 23 11.0001V3.00006C23 2.44778 22.5523 2.00006 22 2.00006ZM6.99998 20V18C8.10455 18 8.99999 18.8954 8.99999 20H6.99998ZM17 20H15C15 18.8954 15.8954 18 17 18V20ZM17 16.0001C14.7908 16.0001 13 17.7909 13 20.0001H11C11 17.7909 9.20912 16.0001 6.99998 16.0001V8.00006H17V16.0001ZM21 10.0001H19V7.00012C19 6.44784 18.5523 6.00012 18 6.00012H6C5.44772 6.00012 5 6.44784 5 7.00012V10.0001H3V4.00012H21V10.0001ZM12 15C13.6569 15 15 13.6569 15 12C15 10.3431 13.6569 9 12 9C10.3431 9 9 10.3431 9 12C9 13.6569 10.3431 15 12 15ZM12 11.0001C12.5523 11.0001 13 11.4478 13 12.0001C13 12.5523 12.5523 13.0001 12 13.0001C11.4477 13.0001 11 12.5523 11 12.0001C11 11.4478 11.4477 11.0001 12 11.0001Z" fill="#171E2B"/>
</svg>
