<svg width="24" height="24" viewBox="0 0 24 24" fill="none" xmlns="http://www.w3.org/2000/svg">
<path fill-rule="evenodd" clip-rule="evenodd" d="M12 11.0001C10.3431 11.0001 8.99998 12.3432 8.99998 14.0001C8.99998 15.6569 10.3431 17.0001 12 17.0001C13.6568 17.0001 15 15.6569 15 14.0001C15 12.3432 13.6568 11.0001 12 11.0001ZM12 15.0001C11.4477 15.0001 11 14.5524 11 14.0001C11 13.4478 11.4477 13.0001 12 13.0001C12.5523 13.0001 13 13.4478 13 14.0001C13 14.5524 12.5523 15.0001 12 15.0001ZM19 6.00006H16V5.00006C16 3.34321 14.6569 2.00006 13 2.00006H11C9.34315 2.00006 8 3.34321 8 5.00006V6.00006H5C3.34315 6.00006 2 7.34321 2 9.00006V19.0001C2 20.6569 3.34315 22.0001 5 22.0001H19C20.6569 22.0001 22 20.6569 22 19.0001V9.00006C22 7.34321 20.6569 6.00006 19 6.00006ZM9.99999 5.00012C9.99999 4.44784 10.4477 4.00012 11 4.00012H13C13.5523 4.00012 14 4.44784 14 5.00012V6.00012H9.99999V5.00012ZM4.00002 9.00006C4.00002 8.44778 4.44773 8.00006 5.00002 8.00006H6.00002C6.00002 9.10463 5.10459 10.0001 4.00002 10.0001V9.00006ZM5.00002 20C4.44773 20 4.00002 19.5523 4.00002 19V18C5.10459 18 6.00002 18.8954 6.00002 20H5.00002ZM20 19C20 19.5523 19.5523 20 19 20H18C18 18.8954 18.8954 18 20 18V19ZM20 16.0001C17.7909 16.0001 16 17.7909 16 20.0001H8.00001C8.00001 17.7909 6.20915 16.0001 4.00002 16.0001V12.0001C6.20915 12.0001 8.00001 10.2092 8.00001 8.00006H16C16 10.2092 17.7909 12.0001 20 12.0001V16.0001ZM20 10.0001C18.8954 10.0001 18 9.10463 18 8.00006H19C19.5523 8.00006 20 8.44778 20 9.00006V10.0001Z" fill="#171E2B"/>
</svg>
