<svg width="24" height="24" viewBox="0 0 24 24" fill="none" xmlns="http://www.w3.org/2000/svg">
<path fill-rule="evenodd" clip-rule="evenodd" d="M10.46 6.00008L11 5.41008V9.00008C11 9.55236 11.4477 10.0001 12 10.0001C12.5523 10.0001 13 9.55236 13 9.00008V5.41008L13.54 5.96008C13.7235 6.16731 13.9846 6.28923 14.2613 6.29681C14.538 6.30439 14.8055 6.19695 15 6.00008C15.1893 5.81231 15.2958 5.55672 15.2958 5.29008C15.2958 5.02344 15.1893 4.76785 15 4.58008L12.71 2.29008C12.6149 2.19904 12.5028 2.12767 12.38 2.08008C12.1365 1.98006 11.8635 1.98006 11.62 2.08008C11.4973 2.12767 11.3851 2.19904 11.29 2.29008L9.00001 4.54008C8.59684 4.94325 8.59684 5.59691 9.00001 6.00008C9.40317 6.40325 10.0568 6.40325 10.46 6.00008ZM12 12C10.3432 12 9.00001 13.3431 9.00001 15C9.00001 16.6569 10.3432 18 12 18C13.6569 18 15 16.6569 15 15C15 13.3431 13.6569 12 12 12ZM12 16.0001C11.4477 16.0001 11 15.5523 11 15.0001C11 14.4478 11.4477 14.0001 12 14.0001C12.5523 14.0001 13 14.4478 13 15.0001C13 15.5523 12.5523 16.0001 12 16.0001ZM4.99998 15.0001C4.99998 15.5523 5.4477 16.0001 5.99998 16.0001C6.55227 16.0001 6.99998 15.5523 6.99998 15.0001C6.99998 14.4478 6.55227 14.0001 5.99998 14.0001C5.4477 14.0001 4.99998 14.4478 4.99998 15.0001ZM19 15.0001C19 14.4478 18.5523 14.0001 18 14.0001C17.4477 14.0001 17 14.4478 17 15.0001C17 15.5523 17.4477 16.0001 18 16.0001C18.5523 16.0001 19 15.5523 19 15.0001ZM20 8.00006H16C15.4477 8.00006 15 8.44778 15 9.00006C15 9.55234 15.4477 10.0001 16 10.0001H20C20.5523 10.0001 21 10.4478 21 11.0001V19.0001C21 19.5523 20.5523 20.0001 20 20.0001H4C3.44772 20.0001 3 19.5523 3 19.0001V11.0001C3 10.4478 3.44772 10.0001 4 10.0001H8C8.55228 10.0001 9 9.55234 9 9.00006C9 8.44778 8.55228 8.00006 8 8.00006H4C2.34315 8.00006 1 9.34321 1 11.0001V19.0001C1 20.6569 2.34315 22.0001 4 22.0001H20C21.6569 22.0001 23 20.6569 23 19.0001V11.0001C23 9.34321 21.6569 8.00006 20 8.00006Z" fill="#171E2B"/>
</svg>
