<svg width="24" height="24" viewBox="0 0 24 24" fill="none" xmlns="http://www.w3.org/2000/svg">
<path fill-rule="evenodd" clip-rule="evenodd" d="M12 12C10.3431 12 9 13.3431 9 15C9 16.6569 10.3431 18 12 18C13.6569 18 15 16.6569 15 15C15 13.3431 13.6569 12 12 12ZM12 16.0001C11.4477 16.0001 11 15.5523 11 15.0001C11 14.4478 11.4477 14.0001 12 14.0001C12.5523 14.0001 13 14.4478 13 15.0001C13 15.5523 12.5523 16.0001 12 16.0001ZM11.29 9.71006C11.3851 9.8011 11.4972 9.87247 11.62 9.92006C11.862 10.027 12.138 10.027 12.38 9.92006C12.5027 9.87247 12.6149 9.8011 12.71 9.71006L15 7.46006C15.4032 7.05689 15.4032 6.40323 15 6.00006C14.5968 5.59689 13.9432 5.59689 13.54 6.00006L13 6.59006V3.00006C13 2.44778 12.5523 2.00006 12 2.00006C11.4477 2.00006 11 2.44778 11 3.00006V6.59006L10.46 6.00006C10.0568 5.59689 9.40316 5.59689 8.99999 6.00006C8.59682 6.40323 8.59682 7.05689 8.99999 7.46006L11.29 9.71006ZM19 15.0001C19 14.4478 18.5523 14.0001 18 14.0001C17.4477 14.0001 17 14.4478 17 15.0001C17 15.5523 17.4477 16.0001 18 16.0001C18.5523 16.0001 19 15.5523 19 15.0001ZM20 8.00006H17C16.4477 8.00006 16 8.44778 16 9.00006C16 9.55234 16.4477 10.0001 17 10.0001H20C20.5523 10.0001 21 10.4478 21 11.0001V19.0001C21 19.5523 20.5523 20.0001 20 20.0001H3.99998C3.4477 20.0001 2.99998 19.5523 2.99998 19.0001V11.0001C2.99998 10.4478 3.4477 10.0001 3.99998 10.0001H6.99998C7.55227 10.0001 7.99998 9.55234 7.99998 9.00006C7.99998 8.44778 7.55227 8.00006 6.99998 8.00006H3.99998C2.34313 8.00006 0.999985 9.34321 0.999985 11.0001V19.0001C0.999985 20.6569 2.34313 22.0001 3.99998 22.0001H20C21.6568 22.0001 23 20.6569 23 19.0001V11.0001C23 9.34321 21.6568 8.00006 20 8.00006ZM4.99997 15.0001C4.99997 15.5523 5.44768 16.0001 5.99997 16.0001C6.55225 16.0001 6.99997 15.5523 6.99997 15.0001C6.99997 14.4478 6.55225 14.0001 5.99997 14.0001C5.44768 14.0001 4.99997 14.4478 4.99997 15.0001Z" fill="#171E2B"/>
</svg>
