<svg width="24" height="24" viewBox="0 0 24 24" fill="none" xmlns="http://www.w3.org/2000/svg">
<path fill-rule="evenodd" clip-rule="evenodd" d="M20 0.999939H4C2.34315 0.999939 1 2.34308 1 3.99994V19.9999C1 21.6568 2.34315 22.9999 4 22.9999H20C21.6569 22.9999 23 21.6568 23 19.9999V3.99994C23 2.34308 21.6569 0.999939 20 0.999939ZM7.99999 20.9999H3.99999C3.44771 20.9999 2.99999 20.5522 2.99999 19.9999V18.8199C3.32067 18.9364 3.65885 18.9972 3.99999 18.9999H7.99999V20.9999ZM7.99999 17H3.99999C3.44771 17 2.99999 16.5523 2.99999 16V14.82C3.32067 14.9364 3.65885 14.9973 3.99999 15H7.99999V17ZM7.99999 13H3.99999C3.44771 13 2.99999 12.5523 2.99999 12V4C2.99999 3.44772 3.44771 3 3.99999 3H7.99999V13ZM14 21H10V15H14V21ZM14 13H10V3H14V13ZM21 19.9999C21 20.5522 20.5523 20.9999 20 20.9999H16V18.9999H20C20.3412 18.9972 20.6793 18.9364 21 18.8199V19.9999ZM21 16C21 16.5523 20.5523 17 20 17H16V15H20C20.3412 14.9973 20.6793 14.9364 21 14.82V16ZM21 12C21 12.5523 20.5523 13 20 13H16V3H20C20.5523 3 21 3.44772 21 4V12ZM18 6.99994C17.4477 6.99994 17 7.44765 17 7.99994C17 8.55222 17.4477 8.99994 18 8.99994C18.5523 8.99994 19 8.55222 19 7.99994C19 7.44765 18.5523 6.99994 18 6.99994ZM6.00001 8.99994C6.55229 8.99994 7.00001 8.55222 7.00001 7.99994C7.00001 7.44765 6.55229 6.99994 6.00001 6.99994C5.44772 6.99994 5.00001 7.44765 5.00001 7.99994C5.00001 8.55222 5.44772 8.99994 6.00001 8.99994Z" fill="#171E2B"/>
</svg>
