<svg width="24" height="24" viewBox="0 0 24 24" fill="none" xmlns="http://www.w3.org/2000/svg">
<path fill-rule="evenodd" clip-rule="evenodd" d="M19 7H16V6C16 4.34315 14.6569 3 13 3H11C9.34315 3 8 4.34315 8 6V7H5C3.34315 7 2 8.34315 2 10V18C2 19.6569 3.34315 21 5 21H19C20.6569 21 22 19.6569 22 18V10C22 8.34315 20.6569 7 19 7ZM9.99999 6.00006C9.99999 5.44778 10.4477 5.00006 11 5.00006H13C13.5523 5.00006 14 5.44778 14 6.00006V7.00006H9.99999V6.00006ZM3.99999 10C3.99999 9.44771 4.44771 9 4.99999 9H5.99999C5.99999 10.1046 5.10456 11 3.99999 11V10ZM4.99999 19.0001C4.44771 19.0001 3.99999 18.5523 3.99999 18.0001V17.0001C5.10456 17.0001 5.99999 17.8955 5.99999 19.0001H4.99999ZM20 18.0001C20 18.5523 19.5523 19.0001 19 19.0001H18C18 17.8955 18.8954 17.0001 20 17.0001V18.0001ZM20 15C17.7909 15 16 16.7909 16 19H7.99999C7.99999 16.7909 6.20913 15 3.99999 15V13C6.20913 13 7.99999 11.2091 7.99999 9H16C16 11.2091 17.7909 13 20 13V15ZM20 11C18.8954 11 18 10.1046 18 9H19C19.5523 9 20 9.44771 20 10V11ZM12 11.0001C10.3432 11.0001 9.00001 12.3432 9.00001 14.0001C9.00001 15.6569 10.3432 17.0001 12 17.0001C13.6569 17.0001 15 15.6569 15 14.0001C15 12.3432 13.6569 11.0001 12 11.0001ZM12 14.9999C11.4477 14.9999 11 14.5522 11 13.9999C11 13.4477 11.4477 12.9999 12 12.9999C12.5523 12.9999 13 13.4477 13 13.9999C13 14.5522 12.5523 14.9999 12 14.9999Z" fill="#171E2B"/>
</svg>
