<svg width="24" height="24" viewBox="0 0 24 24" fill="none" xmlns="http://www.w3.org/2000/svg">
<path fill-rule="evenodd" clip-rule="evenodd" d="M9 19C9.13068 18.9985 9.25978 18.9713 9.38 18.92C9.50118 18.8694 9.6128 18.7984 9.71 18.71C9.75524 18.6609 9.79545 18.6073 9.83 18.55C9.86958 18.499 9.90003 18.4415 9.92 18.38C9.95579 18.3245 9.98278 18.2638 10 18.2C10.0049 18.1335 10.0049 18.0666 10 18C9.99842 17.8694 9.97124 17.7403 9.92 17.62C9.82907 17.3688 9.63123 17.171 9.38 17.08C9.19898 16.9961 8.99698 16.9682 8.8 17L8.62 17.06C8.55857 17.08 8.50105 17.1105 8.45 17.15C8.39279 17.1846 8.33919 17.2248 8.29 17.27C8.19896 17.3651 8.12759 17.4773 8.08 17.6C8.02613 17.7265 7.9989 17.8626 8 18C8 18.5523 8.44771 19 9 19ZM5.29 18.7102C5.3872 18.7985 5.49881 18.8695 5.62 18.9202C5.74022 18.9714 5.86932 18.9986 6 19.0002H6.19C6.25623 18.9909 6.32045 18.9706 6.38 18.9402C6.44372 18.9183 6.50425 18.888 6.56 18.8502L6.71 18.7302C6.79833 18.633 6.86936 18.5213 6.92 18.4002C6.97913 18.2754 7.0066 18.138 7 18.0002C7.00491 17.9336 7.00491 17.8667 7 17.8002C6.98905 17.7375 6.96883 17.6768 6.94 17.6202C6.92003 17.5587 6.88958 17.5012 6.85 17.4502C6.81545 17.3929 6.77525 17.3393 6.73 17.2902C6.44244 17.0064 6.0124 16.9236 5.64 17.0802C5.51725 17.1277 5.4051 17.1991 5.31 17.2902C5.26475 17.3393 5.22455 17.3929 5.19 17.4502C5.15042 17.5012 5.11997 17.5587 5.1 17.6202C5.05717 17.6744 5.0234 17.7351 5 17.8002C4.99509 17.8667 4.99509 17.9336 5 18.0002C5.00158 18.1308 5.02876 18.2599 5.08 18.3802C5.13064 18.5013 5.20167 18.613 5.29 18.7102ZM19 2.00006H5C3.34315 2.00006 2 3.34321 2 5.00006V19.0001C2 20.6569 3.34315 22.0001 5 22.0001H19C20.6569 22.0001 22 20.6569 22 19.0001V5.00006C22 3.34321 20.6569 2.00006 19 2.00006ZM20 19.0001C20 19.5524 19.5523 20.0001 19 20.0001H5C4.44772 20.0001 4 19.5524 4 19.0001V16.0001H20V19.0001ZM20 14H4V10H8C8.2658 10.0015 8.52128 9.89719 8.71 9.71L10 8.46L12.8 11.66C12.9826 11.8681 13.2433 11.9912 13.52 12C13.7858 12.0015 14.0413 11.8972 14.23 11.71L15.91 10H20V14ZM20 8.00012H15.5C15.2342 7.99859 14.9787 8.10294 14.79 8.29012L13.55 9.54012L10.75 6.34012C10.5609 6.13817 10.2966 6.02357 10.02 6.02357C9.74336 6.02357 9.47907 6.13817 9.29 6.34012L7.59 8.00012H4V5.00012C4 4.44784 4.44772 4.00012 5 4.00012H19C19.5523 4.00012 20 4.44784 20 5.00012V8.00012Z" fill="#171E2B"/>
</svg>
