<svg width="24" height="24" viewBox="0 0 24 24" fill="none" xmlns="http://www.w3.org/2000/svg">
<path fill-rule="evenodd" clip-rule="evenodd" d="M19 2.00006H5C3.34315 2.00006 2 3.34321 2 5.00006V15.0001C2 16.6569 3.34315 18.0001 5 18.0001H7.64L7.06 19.0001C6.70273 19.6189 6.70273 20.3813 7.06 21.0001C7.42045 21.6244 8.08906 22.0065 8.81 22.0001H15.27C15.9838 21.9993 16.6431 21.6182 17 21.0001C17.3573 20.3813 17.3573 19.6189 17 19.0001L16.41 18.0001H19C20.6569 18.0001 22 16.6569 22 15.0001V5.00006C22 3.34321 20.6569 2.00006 19 2.00006ZM8.77 20L10 18H14L15.2 20H8.77ZM20 15.0001C20 15.5523 19.5523 16.0001 19 16.0001H5C4.44772 16.0001 4 15.5523 4 15.0001V14.0001H20V15.0001ZM20 12.0001H4V5.00012C4 4.44784 4.44772 4.00012 5 4.00012H19C19.5523 4.00012 20 4.44784 20 5.00012V12.0001Z" fill="#171E2B"/>
</svg>
