<svg width="24" height="24" viewBox="0 0 24 24" fill="none" xmlns="http://www.w3.org/2000/svg">
<path fill-rule="evenodd" clip-rule="evenodd" d="M11 18.9999H7.99998C7.4477 18.9999 6.99998 19.4477 6.99998 19.9999C6.99998 20.5522 7.4477 20.9999 7.99998 20.9999H11C11.5523 20.9999 12 20.5522 12 19.9999C12 19.4477 11.5523 18.9999 11 18.9999ZM20 14.9999H18.84C19.4153 14.1017 19.8094 13.0995 20 12.0499C20.0589 11.7017 19.9296 11.3481 19.66 11.1199C19.3862 10.879 19.003 10.8062 18.66 10.9299C18.0417 11.1404 17.3932 11.2485 16.74 11.2499C13.4164 11.2501 10.7129 8.57334 10.68 5.24995C10.6891 4.91463 10.7225 4.58042 10.78 4.24995C10.8328 3.90312 10.7 3.55399 10.43 3.32995C10.1543 3.09246 9.77125 3.02352 9.43 3.14995C6.21107 4.26088 4.0376 7.27491 4 10.6799C4.00099 12.2118 4.44179 13.7112 5.27 14.9999H4C3.44772 14.9999 3 15.4477 3 15.9999C3 16.5522 3.44772 16.9999 4 16.9999H20C20.5523 16.9999 21 16.5522 21 15.9999C21 15.4477 20.5523 14.9999 20 14.9999ZM16.28 15H7.82998C6.50804 13.7326 5.83734 11.9308 6.00876 10.1074C6.18019 8.28407 7.17497 6.63885 8.70998 5.64001C8.9488 9.91092 12.4824 13.2514 16.76 13.25C17.0231 13.2649 17.2869 13.2649 17.55 13.25C17.2346 13.9045 16.8045 14.4972 16.28 15ZM16 18.9999H15C14.4477 18.9999 14 19.4477 14 19.9999C14 20.5522 14.4477 20.9999 15 20.9999H16C16.5523 20.9999 17 20.5522 17 19.9999C17 19.4477 16.5523 18.9999 16 18.9999Z" fill="#171E2B"/>
</svg>
