<svg width="24" height="24" viewBox="0 0 24 24" fill="none" xmlns="http://www.w3.org/2000/svg">
<path fill-rule="evenodd" clip-rule="evenodd" d="M12 2.00006C11.2801 2.0028 10.5626 2.08327 9.86 2.24006H9.74C5.24582 3.30183 2.06313 7.30286 2.03938 11.9207C2.01563 16.5385 5.15698 20.5721 9.64 21.6801H9.78C10.5049 21.8734 11.25 21.9808 12 22.0001C17.5229 22.0001 22 17.5229 22 12.0001C22 6.47721 17.5229 2.00006 12 2.00006ZM10 19.74C6.47913 18.8198 4.02298 15.6392 4.02298 12C4.02298 8.36085 6.47913 5.18024 10 4.26C13.5209 5.18024 15.977 8.36085 15.977 12C15.977 15.6392 13.5209 18.8198 10 19.74ZM14.53 19.5801C16.7377 17.6804 18.0074 14.9126 18.0074 12.0001C18.0074 9.08761 16.7377 6.31982 14.53 4.42012C17.7823 5.51768 19.9719 8.56763 19.9719 12.0001C19.9719 15.4326 17.7823 18.4826 14.53 19.5801Z" fill="#171E2B"/>
</svg>
