<svg width="24" height="24" viewBox="0 0 24 24" fill="none" xmlns="http://www.w3.org/2000/svg">
<path fill-rule="evenodd" clip-rule="evenodd" d="M21.64 13.0001C21.3455 12.7567 20.938 12.7023 20.59 12.8601C19.5326 13.344 18.3829 13.593 17.22 13.5901C12.7423 13.5847 9.10749 9.96779 9.08003 5.49011C9.08459 4.81594 9.1685 4.14465 9.33003 3.49011C9.39982 3.13487 9.27216 2.76965 8.99627 2.53524C8.72037 2.30083 8.33932 2.23384 8.00003 2.36011C3.67673 4.30408 1.27715 8.98391 2.22186 13.6291C3.16657 18.2742 7.20346 21.645 11.9426 21.7459C16.6818 21.8468 20.8585 18.6508 22 14.0501C22.1031 13.6595 21.9611 13.2453 21.64 13.0001ZM12.14 19.69C8.70133 19.6658 5.64882 17.4832 4.51372 14.2371C3.37861 10.9911 4.4058 7.3819 7.08003 5.22001V5.49001C7.08555 11.0879 11.6222 15.6245 17.22 15.63C17.9259 15.6326 18.63 15.5588 19.32 15.41C17.9136 18.0707 15.1495 19.7337 12.14 19.73V19.69Z" fill="#171E2B"/>
</svg>
