<svg width="24" height="24" viewBox="0 0 24 24" fill="none" xmlns="http://www.w3.org/2000/svg">
<path fill-rule="evenodd" clip-rule="evenodd" d="M21.85 17.47L16.85 9.47002C16.6677 9.1758 16.3462 8.9968 16 8.9968C15.6539 8.9968 15.3324 9.1758 15.15 9.47002L14.15 11.1L10.86 5.50002C10.6799 5.19643 10.353 5.01031 10 5.01031C9.64702 5.01031 9.32017 5.19643 9.14003 5.50002L2.14003 17.5C1.96192 17.8085 1.96135 18.1884 2.13851 18.4974C2.31568 18.8064 2.64384 18.9979 3.00003 19H21C21.3639 19.0008 21.6995 18.8038 21.8762 18.4857C22.0529 18.1676 22.0429 17.7786 21.85 17.47ZM10.45 17.0001H4.74003L10 8.00008L12.93 13.0001L10.45 17.0001ZM12.8 17L15 13.57L16 11.89L19.2 17H12.8Z" fill="#171E2B"/>
</svg>
