<svg width="24" height="24" viewBox="0 0 24 24" fill="none" xmlns="http://www.w3.org/2000/svg">
<path fill-rule="evenodd" clip-rule="evenodd" d="M18 10.0001C20.2092 10.0001 22 8.2092 22 6.00006C22 3.79092 20.2092 2.00006 18 2.00006C15.7909 2.00006 14 3.79092 14 6.00006C14 8.2092 15.7909 10.0001 18 10.0001ZM18 4.00012C19.1045 4.00012 20 4.89555 20 6.00012C20 7.10469 19.1045 8.00012 18 8.00012C16.8954 8.00012 16 7.10469 16 6.00012C16 4.89555 16.8954 4.00012 18 4.00012ZM16.85 12.47C16.6677 12.1758 16.3461 11.9968 16 11.9968C15.6539 11.9968 15.3323 12.1758 15.15 12.47L14.15 14.1L10.86 8.5C10.6799 8.19642 10.353 8.0103 10 8.0103C9.64699 8.0103 9.32014 8.19642 9.14 8.5L2.14 20.5C1.96189 20.8085 1.96132 21.1884 2.13848 21.4974C2.31565 21.8064 2.64381 21.9979 3 22H21C21.3639 22.0007 21.6994 21.8037 21.8762 21.4856C22.0529 21.1676 22.0429 20.7786 21.85 20.47L16.85 12.47ZM10.45 20.0001H4.74L10 11.0001L12.94 16.0001L11.69 18.0001L10.45 20.0001ZM12.8 20.0001L14.29 17.6301L15 16.5701L16 14.8901L19.2 20.0001H12.8Z" fill="#171E2B"/>
</svg>
