<svg width="24" height="24" viewBox="0 0 24 24" fill="none" xmlns="http://www.w3.org/2000/svg">
<path fill-rule="evenodd" clip-rule="evenodd" d="M12 2.00006C8.13402 2.00006 5.00002 5.13407 5.00002 9.00006V15.0001C5.00002 18.8661 8.13402 22.0001 12 22.0001C15.866 22.0001 19 18.8661 19 15.0001V9.00006C19 5.13407 15.866 2.00006 12 2.00006ZM17 15.0001C17 17.7615 14.7614 20.0001 12 20.0001C9.23861 20.0001 7.00003 17.7615 7.00003 15.0001V9.00006C6.99955 6.62372 8.6717 4.57533 11 4.10006V12.0001C11 12.5523 11.4477 13.0001 12 13.0001C12.5523 13.0001 13 12.5523 13 12.0001V4.10006C15.3284 4.57533 17.0005 6.62372 17 9.00006V15.0001Z" fill="#171E2B"/>
</svg>
