<svg width="24" height="24" viewBox="0 0 24 24" fill="none" xmlns="http://www.w3.org/2000/svg">
<path fill-rule="evenodd" clip-rule="evenodd" d="M12 6C11.4477 6 11 6.44771 11 7V9C11 9.55229 11.4477 10 12 10C12.5523 10 13 9.55229 13 9V7C13 6.44771 12.5523 6 12 6ZM12 2.00006C8.13404 2.00006 5.00003 5.13407 5.00003 9.00006V15.0001C5.00003 18.8661 8.13404 22.0001 12 22.0001C15.866 22.0001 19 18.8661 19 15.0001V9.00006C19 5.13407 15.866 2.00006 12 2.00006ZM17 15.0001C17 17.7615 14.7615 20.0001 12 20.0001C9.23862 20.0001 7.00005 17.7615 7.00005 15.0001V9.00012C7.00005 6.2387 9.23862 4.00012 12 4.00012C14.7615 4.00012 17 6.2387 17 9.00012V15.0001Z" fill="#171E2B"/>
</svg>
