<svg width="24" height="24" viewBox="0 0 24 24" fill="none" xmlns="http://www.w3.org/2000/svg">
<path fill-rule="evenodd" clip-rule="evenodd" d="M13.41 11.9999L19.71 5.70994C20.1021 5.31782 20.1021 4.68206 19.71 4.28994C19.3179 3.89782 18.6821 3.89782 18.29 4.28994L12 10.5899L5.71 4.28994C5.31788 3.89782 4.68212 3.89782 4.29 4.28994C3.89788 4.68206 3.89788 5.31782 4.29 5.70994L10.59 11.9999L4.29 18.2899C4.10069 18.4777 3.9942 18.7333 3.9942 18.9999C3.9942 19.2666 4.10069 19.5222 4.29 19.7099C4.47777 19.8993 4.73336 20.0057 5 20.0057C5.26664 20.0057 5.52223 19.8993 5.71 19.7099L12 13.4099L18.29 19.7099C18.4778 19.8993 18.7334 20.0057 19 20.0057C19.2666 20.0057 19.5222 19.8993 19.71 19.7099C19.8993 19.5222 20.0058 19.2666 20.0058 18.9999C20.0058 18.7333 19.8993 18.4777 19.71 18.2899L13.41 11.9999Z" fill="#171E2B"/>
</svg>
