<svg width="24" height="24" viewBox="0 0 24 24" fill="none" xmlns="http://www.w3.org/2000/svg">
<path fill-rule="evenodd" clip-rule="evenodd" d="M12 7.32993C12.5523 7.32993 13 6.88221 13 6.32993V5.77993L19 4.27992V7.21992L14.7 8.29992C14.1477 8.3662 13.7538 8.86764 13.82 9.41993C13.8863 9.97221 14.3877 10.3662 14.94 10.2999H15.18L20.24 8.99993H20.31L20.5 8.90992L20.65 8.80993C20.6986 8.76471 20.7422 8.71442 20.78 8.65992C20.819 8.61396 20.8526 8.56362 20.88 8.50992C20.9103 8.45385 20.9306 8.39295 20.94 8.32993C20.9493 8.26693 20.9493 8.20292 20.94 8.13993C20.9747 8.10101 20.9958 8.05187 21 7.99992V2.99992C21.0092 2.68735 20.8716 2.38848 20.6282 2.19218C20.3848 1.99587 20.0636 1.92474 19.76 1.99992L11.76 3.99992C11.3028 4.11274 10.9863 4.52923 11 4.99992V6.32993C11 6.88221 11.4477 7.32993 12 7.32993ZM21.71 20.33L12.71 11.33L3.71003 2.32996C3.31622 2.02527 2.75824 2.05672 2.40116 2.40374C2.04409 2.75076 1.99671 3.30761 2.29003 3.70996L11 12.41V15.35C10.5328 15.1217 10.02 15.0021 9.50003 15C8.08441 15 6.80819 15.8527 6.26645 17.1606C5.72472 18.4684 6.02416 19.9738 7.02516 20.9748C8.02615 21.9758 9.53156 22.2753 10.8394 21.7335C12.1473 21.1918 13 19.9156 13 18.5V14.41L20.29 21.71C20.4778 21.8993 20.7334 22.0058 21 22.0058C21.2667 22.0058 21.5223 21.8993 21.71 21.71C21.8993 21.5222 22.0058 21.2666 22.0058 21C22.0058 20.7333 21.8993 20.4777 21.71 20.29V20.33ZM9.50002 19.9999C8.67159 19.9999 8.00002 19.3283 8.00002 18.4999C8.00002 17.6715 8.67159 16.9999 9.50002 16.9999C10.3284 16.9999 11 17.6715 11 18.4999C11 19.3283 10.3284 19.9999 9.50002 19.9999Z" fill="#171E2B"/>
</svg>
