<svg width="24" height="24" viewBox="0 0 24 24" fill="none" xmlns="http://www.w3.org/2000/svg">
<path fill-rule="evenodd" clip-rule="evenodd" d="M19.12 2.2101C18.8816 2.01011 18.5637 1.93249 18.26 2.0001L10.26 4.0001C9.80282 4.11291 9.48629 4.5294 9.5 5.0001V15.3501C9.03277 15.1219 8.51999 15.0022 8 15.0001C6.067 15.0001 4.5 16.5671 4.5 18.5001C4.5 20.4331 6.067 22.0001 8 22.0001C9.933 22.0001 11.5 20.4331 11.5 18.5001V10.7801L18.74 9.0001H18.81L19 8.8501L19.15 8.7501C19.1986 8.70488 19.2421 8.65459 19.28 8.6001C19.319 8.55413 19.3526 8.5038 19.38 8.4501C19.4103 8.39403 19.4306 8.33312 19.44 8.2701C19.4504 8.2072 19.4504 8.143 19.44 8.0801C19.4445 8.05362 19.4445 8.02658 19.44 8.0001V3.0001C19.4565 2.70222 19.3392 2.41251 19.12 2.2101ZM8 20.0001C7.17157 20.0001 6.5 19.3285 6.5 18.5001C6.5 17.6717 7.17157 17.0001 8 17.0001C8.82842 17.0001 9.5 17.6717 9.5 18.5001C9.5 19.3285 8.82842 20.0001 8 20.0001ZM17.5 7.22009L11.5 8.72009V5.78009L17.5 4.28009V7.22009Z" fill="#171E2B"/>
</svg>
