<svg width="24" height="24" viewBox="0 0 24 24" fill="none" xmlns="http://www.w3.org/2000/svg">
<path fill-rule="evenodd" clip-rule="evenodd" d="M21.65 2.23997C21.4294 2.05069 21.1374 1.96674 20.85 2.00997L7.85 4.00997C7.36074 4.0842 6.99935 4.50512 7 4.99997V15.35C6.53277 15.1218 6.01999 15.0021 5.5 15C3.567 15 2 16.567 2 18.5C2 20.433 3.567 22 5.5 22C7.433 22 9 20.433 9 18.5V10.86L20 9.16997V13.35C19.5328 13.1218 19.02 13.0021 18.5 13C16.567 13 15 14.567 15 16.5C15 18.433 16.567 20 18.5 20C20.433 20 22 18.433 22 16.5V2.99997C22 2.70766 21.8721 2.42998 21.65 2.23997ZM5.5 20C4.67158 20 4 19.3285 4 18.5C4 17.6716 4.67158 17 5.5 17C6.32843 17 7 17.6716 7 18.5C7 19.3285 6.32843 20 5.5 20ZM18.5 18C17.6716 18 17 17.3284 17 16.5C17 15.6715 17.6716 15 18.5 15C19.3284 15 20 15.6715 20 16.5C20 17.3284 19.3284 18 18.5 18ZM20 7.13998L9 8.82998V5.82998L20 4.16998V7.13998Z" fill="#171E2B"/>
</svg>
