<svg width="24" height="24" viewBox="0 0 24 24" fill="none" xmlns="http://www.w3.org/2000/svg">
<path fill-rule="evenodd" clip-rule="evenodd" d="M19 6H18C16.3432 6 15 7.34315 15 9V17C15 17.5523 15.4477 18 16 18C16.5523 18 17 17.5523 17 17V13H20V17C20 17.5523 20.4477 18 21 18C21.5523 18 22 17.5523 22 17V9C22 7.34315 20.6569 6 19 6ZM20 10.9999H17V8.99988C17 8.44759 17.4477 7.99988 18 7.99988H19C19.5523 7.99988 20 8.44759 20 8.99988V10.9999ZM8 6C7.44772 6 7 6.44772 7 7V12.76L3.89 6.55C3.67989 6.13984 3.21668 5.92638 2.76836 6.03312C2.32005 6.13986 2.00273 6.53916 2 7V17C2 17.5523 2.44772 18 3 18C3.55228 18 4 17.5523 4 17V11.24L7.11 17.45C7.27945 17.7863 7.62344 17.9989 8 18C8.07636 18.0097 8.15364 18.0097 8.23 18C8.69117 17.8912 9.01266 17.4737 9 17V7C9 6.44772 8.55228 6 8 6ZM12 3.99994C11.4477 3.99994 11 4.44765 11 4.99994V18.9999C11 19.5522 11.4477 19.9999 12 19.9999C12.5523 19.9999 13 19.5522 13 18.9999V4.99994C13 4.44765 12.5523 3.99994 12 3.99994Z" fill="#171E2B"/>
</svg>
