<svg width="24" height="24" viewBox="0 0 24 24" fill="none" xmlns="http://www.w3.org/2000/svg">
<path fill-rule="evenodd" clip-rule="evenodd" d="M20.17 9.23003L6.16999 3.45003C5.08833 3.00241 3.84509 3.22485 2.98573 4.01975C2.12638 4.81466 1.80789 6.03682 2.16999 7.15003L3.70999 12L2.12999 16.85C1.758 17.968 2.07485 19.2002 2.93999 20C3.48463 20.5051 4.19728 20.7902 4.93999 20.8C5.33472 20.7998 5.72552 20.7216 6.08999 20.57L20.14 14.79C21.2589 14.3247 21.988 13.2319 21.988 12.02C21.988 10.8082 21.2589 9.71537 20.14 9.25003L20.17 9.23003ZM5.35998 18.7C4.9998 18.8485 4.58613 18.7744 4.29998 18.51C4.0309 18.2528 3.92688 17.8676 4.02998 17.51L5.48998 13H19.22L5.35998 18.7ZM5.48998 11L3.99998 6.52997C3.89688 6.17236 4.0009 5.78709 4.26998 5.52997C4.46018 5.33043 4.72432 5.21827 4.99998 5.21997C5.13402 5.22022 5.26665 5.24743 5.38998 5.29997L19.22 11H5.48998Z" fill="#171E2B"/>
</svg>
