<svg width="24" height="24" viewBox="0 0 24 24" fill="none" xmlns="http://www.w3.org/2000/svg">
<path fill-rule="evenodd" clip-rule="evenodd" d="M21.41 8.64994C21.41 8.64994 21.41 8.64994 21.41 8.58994C19.9794 4.64469 16.2376 2.01242 12.041 1.99901C7.84434 1.98561 4.08582 4.59391 2.63 8.52994C2.59151 8.6055 2.56454 8.6864 2.55 8.76994C2.18799 9.80844 2.00209 10.9002 2 11.9999C1.98646 15.9911 4.34747 19.6081 8.0066 21.2019C11.6657 22.7957 15.9222 22.0611 18.8354 19.3329C21.7486 16.6048 22.7606 12.4057 21.41 8.64994ZM12 3.99994C14.8552 4.00287 17.4924 5.52727 18.92 7.99994H17.72C17.1179 7.33813 16.2519 6.97959 15.3582 7.02214C14.4645 7.0647 13.6365 7.50392 13.1 8.21994C12.7493 8.0818 12.3768 8.0073 12 7.99994C11.6232 8.0073 11.2507 8.0818 10.9 8.21994C10.3635 7.50392 9.53549 7.0647 8.64181 7.02214C7.74812 6.97959 6.88208 7.33813 6.28001 7.99994H5.08001C6.50761 5.52727 9.14482 4.00287 12 3.99994ZM16.5 10C16.5 10.5523 16.0523 11 15.5 11C14.9477 11 14.5 10.5523 14.5 10C14.5 9.44772 14.9477 9.00001 15.5 9.00001C16.0523 9.00001 16.5 9.44772 16.5 10ZM9.49998 10C9.49998 10.5523 9.05226 11 8.49998 11C7.94769 11 7.49998 10.5523 7.49998 10C7.49998 9.44772 7.94769 9.00001 8.49998 9.00001C9.05226 9.00001 9.49998 9.44772 9.49998 10ZM12 19.9999C7.58173 19.9999 4.00001 16.4182 4.00001 11.9999C4.00445 11.3251 4.09178 10.6534 4.26001 9.99994H5.50001C5.4503 11.6568 6.75316 13.0402 8.41001 13.0899C10.0669 13.1396 11.4503 11.8368 11.5 10.1799C11.8094 10.0013 12.1906 10.0013 12.5 10.1799C12.5497 11.8368 13.9332 13.1396 15.59 13.0899C17.2469 13.0402 18.5497 11.6568 18.5 9.99994H19.74C19.9082 10.6534 19.9956 11.3251 20 11.9999C20 16.4182 16.4183 19.9999 12 19.9999ZM14.36 14.2299C12.9826 15.3404 11.0174 15.3404 9.63999 14.2299C9.21473 13.8765 8.58345 13.9347 8.22999 14.3599C7.87653 14.7852 7.93473 15.4165 8.35999 15.7699C10.4677 17.5294 13.5323 17.5294 15.64 15.7699C15.9151 15.5413 16.0473 15.1832 15.9868 14.8307C15.9264 14.4781 15.6824 14.1846 15.3468 14.0607C15.0113 13.9368 14.6351 14.0013 14.36 14.2299Z" fill="#171E2B"/>
</svg>
