<svg width="24" height="24" viewBox="0 0 24 24" fill="none" xmlns="http://www.w3.org/2000/svg">
<path fill-rule="evenodd" clip-rule="evenodd" d="M17 11.0001H16C15.4477 11.0001 15 11.4478 15 12.0001C15 12.5523 15.4477 13.0001 16 13.0001H17C17.5523 13.0001 18 12.5523 18 12.0001C18 11.4478 17.5523 11.0001 17 11.0001ZM17 15H16C15.4477 15 15 15.4477 15 16C15 16.5523 15.4477 17 16 17H17C17.5523 17 18 16.5523 18 16C18 15.4477 17.5523 15 17 15ZM11 8.99994H17C17.5523 8.99994 18 8.55222 18 7.99994C18 7.44765 17.5523 6.99994 17 6.99994H11C10.4477 6.99994 10 7.44765 10 7.99994C10 8.55222 10.4477 8.99994 11 8.99994ZM21 3H7.00002C6.44773 3 6.00002 3.44772 6.00002 4V7H3.00002C2.44773 7 2.00002 7.44772 2.00002 8V18C2.00002 19.6569 3.34316 21 5.00002 21H18C20.2092 21 22 19.2091 22 17V4C22 3.44772 21.5523 3 21 3ZM6.00003 18C6.00003 18.5523 5.55232 19 5.00003 19C4.44775 19 4.00003 18.5523 4.00003 18V9H6.00003V18ZM20 17.0001C20 18.1046 19.1046 19.0001 18 19.0001H7.82002C7.93644 18.6794 7.99731 18.3412 8.00002 18.0001V5.00006H20V17.0001ZM11 13.0001H12C12.5523 13.0001 13 12.5523 13 12.0001C13 11.4478 12.5523 11.0001 12 11.0001H11C10.4477 11.0001 10 11.4478 10 12.0001C10 12.5523 10.4477 13.0001 11 13.0001ZM11 17H12C12.5523 17 13 16.5523 13 16C13 15.4477 12.5523 15 12 15H11C10.4477 15 10 15.4477 10 16C10 16.5523 10.4477 17 11 17Z" fill="#171E2B"/>
</svg>
