<svg width="24" height="24" viewBox="0 0 24 24" fill="none" xmlns="http://www.w3.org/2000/svg">
<path fill-rule="evenodd" clip-rule="evenodd" d="M19.44 5.33994L19.38 5.26994C17.4855 3.19806 14.8074 2.01794 12 2.01794C9.19258 2.01794 6.51445 3.19806 4.62 5.26994L4.56 5.33994C1.57834 8.65996 1.15725 13.5537 3.52793 17.3343C5.89861 21.1149 10.4873 22.8672 14.7745 21.6291C19.0616 20.3911 22.0097 16.4623 22 11.9999C22.0013 9.53944 21.089 7.1661 19.44 5.33994ZM12 3.99985C13.3512 3.9963 14.6805 4.34069 15.86 4.99985H8.13998C9.31947 4.34069 10.6488 3.9963 12 3.99985ZM5.76001 6.99994H18.24C19.1614 8.15196 19.7462 9.53629 19.93 10.9999H4.07001C4.25379 9.53629 4.83867 8.15196 5.76001 6.99994ZM12 19.9999C7.97115 19.9963 4.57362 16.9972 4.07001 12.9999H19.93C19.4264 16.9972 16.0289 19.9963 12 19.9999ZM7.99998 7.99988C7.4477 7.99988 6.99998 8.44759 6.99998 8.99988C6.99998 9.55216 7.4477 9.99988 7.99998 9.99988C8.55227 9.99988 8.99998 9.55216 8.99998 8.99988C8.99998 8.44759 8.55227 7.99988 7.99998 7.99988ZM14 7.99988C13.4477 7.99988 13 8.44759 13 8.99988C13 9.55216 13.4477 9.99988 14 9.99988C14.5523 9.99988 15 9.55216 15 8.99988C15 8.44759 14.5523 7.99988 14 7.99988ZM11 17.9299C11.1494 18.0146 11.3182 18.0594 11.49 18.0599C11.8507 18.0593 12.1832 17.8644 12.36 17.5499C12.8903 16.5893 13.9027 15.9949 15 15.9999C15.5523 15.9999 16 15.5522 16 14.9999C16 14.4476 15.5523 13.9999 15 13.9999C13.1848 13.9998 11.5122 14.9835 10.63 16.5699C10.3586 17.0479 10.5238 17.6553 11 17.9299Z" fill="#171E2B"/>
</svg>
