<svg width="24" height="24" viewBox="0 0 24 24" fill="none" xmlns="http://www.w3.org/2000/svg">
<path fill-rule="evenodd" clip-rule="evenodd" d="M21 20.0001H19.76L15.37 4.20006C15.0105 2.90064 13.8282 2.00068 12.48 2.00006H11.48C10.1466 2.01848 8.98547 2.91482 8.63 4.20006L4.24 20.0001H3C2.44772 20.0001 2 20.4478 2 21.0001C2 21.5523 2.44772 22.0001 3 22.0001H21C21.5523 22.0001 22 21.5523 22 21.0001C22 20.4478 21.5523 20.0001 21 20.0001ZM10.56 4.72998C10.6845 4.28474 11.098 3.9829 11.56 3.99998H12.56C13.022 3.9829 13.4355 4.28474 13.56 4.72998L14.35 7.99998H9.65L10.56 4.72998ZM9.09 10.0001H14.91L16 14.0001H8L9.09 10.0001ZM6.32 20.0001L7.43 16.0001H16.57L17.68 20.0001H6.32Z" fill="#171E2B"/>
</svg>
