<svg width="24" height="24" viewBox="0 0 24 24" fill="none" xmlns="http://www.w3.org/2000/svg">
<path fill-rule="evenodd" clip-rule="evenodd" d="M16 14.0001H8C7.44772 14.0001 7 14.4478 7 15.0001C7 15.5523 7.44772 16.0001 8 16.0001H16C16.5523 16.0001 17 15.5523 17 15.0001C17 14.4478 16.5523 14.0001 16 14.0001ZM16 10.0001H10C9.44772 10.0001 9 10.4478 9 11.0001C9 11.5524 9.44772 12.0001 10 12.0001H16C16.5523 12.0001 17 11.5524 17 11.0001C17 10.4478 16.5523 10.0001 16 10.0001ZM20 4.00006H17V3.00006C17 2.44778 16.5523 2.00006 16 2.00006C15.4477 2.00006 15 2.44778 15 3.00006V4.00006H13V3.00006C13 2.44778 12.5523 2.00006 12 2.00006C11.4477 2.00006 11 2.44778 11 3.00006V4.00006H9V3.00006C9 2.44778 8.55228 2.00006 8 2.00006C7.44772 2.00006 7 2.44778 7 3.00006V4.00006H4C3.44772 4.00006 3 4.44778 3 5.00006V19.0001C3 20.6569 4.34315 22.0001 6 22.0001H18C19.6569 22.0001 21 20.6569 21 19.0001V5.00006C21 4.44778 20.5523 4.00006 20 4.00006ZM19 19C19 19.5523 18.5523 20 18 20H6C5.44772 20 5 19.5523 5 19V6H7V7C7 7.55228 7.44772 8 8 8C8.55229 8 9 7.55228 9 7V6H11V7C11 7.55228 11.4477 8 12 8C12.5523 8 13 7.55228 13 7V6H15V7C15 7.55228 15.4477 8 16 8C16.5523 8 17 7.55228 17 7V6H19V19Z" fill="#171E2B"/>
</svg>
