<svg width="24" height="24" viewBox="0 0 24 24" fill="none" xmlns="http://www.w3.org/2000/svg">
<path fill-rule="evenodd" clip-rule="evenodd" d="M21 6C20.4477 6 20 6.44771 20 7V17C20 18.6569 18.6569 20 17 20H7.00001C6.44772 20 6.00001 20.4477 6.00001 21C6.00001 21.5523 6.44772 22 7.00001 22H17C19.7614 22 22 19.7614 22 17V7C22 6.44771 21.5523 6 21 6ZM18 15.0001V5.00006C18 3.34321 16.6569 2.00006 15 2.00006H5C3.34315 2.00006 2 3.34321 2 5.00006V15.0001C2 16.6569 3.34315 18.0001 5 18.0001H15C16.6569 18.0001 18 16.6569 18 15.0001ZM9.99999 4.00012H12V8.86012L11.64 8.56012C11.2692 8.25129 10.7308 8.25129 10.36 8.56012L9.99999 8.86012V4.00012ZM3.99999 15.0001V5.00012C3.99999 4.44784 4.44771 4.00012 4.99999 4.00012H7.99999V11.0001C7.99997 11.3905 8.22708 11.7452 8.58163 11.9085C8.93618 12.0718 9.35335 12.0139 9.64999 11.7601L11 10.6301L12.35 11.7601C12.5311 11.915 12.7616 12.0001 13 12.0001C13.1447 11.9991 13.2876 11.9685 13.42 11.9101C13.7744 11.7461 14.001 11.3907 14 11.0001V4.00012H15C15.5523 4.00012 16 4.44784 16 5.00012V15.0001C16 15.5524 15.5523 16.0001 15 16.0001H4.99999C4.44771 16.0001 3.99999 15.5524 3.99999 15.0001Z" fill="#171E2B"/>
</svg>
