<svg width="24" height="24" viewBox="0 0 24 24" fill="none" xmlns="http://www.w3.org/2000/svg">
<path fill-rule="evenodd" clip-rule="evenodd" d="M21 18.28V11.72C21.7416 11.3075 22.1421 10.4718 21.9992 9.63535C21.8563 8.79885 21.2011 8.14361 20.3646 8.00071C19.5281 7.8578 18.6925 8.25835 18.28 8.99996H15V5.71996C15.7416 5.30745 16.1421 4.47184 15.9992 3.63535C15.8563 2.79885 15.2011 2.14361 14.3646 2.00071C13.5281 1.8578 12.6925 2.25835 12.28 2.99996H5.71996C5.30745 2.25835 4.47184 1.8578 3.63535 2.00071C2.79885 2.14361 2.14361 2.79885 2.00071 3.63535C1.8578 4.47184 2.25835 5.30745 2.99996 5.71996V12.28C2.25835 12.6925 1.8578 13.5281 2.00071 14.3646C2.14361 15.2011 2.79885 15.8563 3.63535 15.9992C4.47184 16.1421 5.30745 15.7416 5.71996 15H8.99996V18.28C8.25835 18.6925 7.8578 19.5281 8.00071 20.3646C8.14361 21.2011 8.79885 21.8563 9.63535 21.9992C10.4718 22.1421 11.3075 21.7416 11.72 21H18.28C18.6925 21.7416 19.5281 22.1421 20.3646 21.9992C21.2011 21.8563 21.8563 21.2011 21.9992 20.3646C22.1421 19.5281 21.7416 18.6925 21 18.28ZM7.99996 10C8.00425 10.7103 8.38487 11.3649 8.99996 11.72V13H5.71996C5.54954 12.6993 5.30069 12.4505 4.99996 12.28V5.72003C5.30069 5.54961 5.54954 5.30076 5.71996 5.00003H12.28C12.4504 5.30076 12.6992 5.54961 13 5.72003V9.00003H11.72C11.2623 8.22854 10.3469 7.85614 9.48066 8.08901C8.61438 8.32188 8.00912 9.10305 7.99996 10ZM13 11V12.28C12.6992 12.4505 12.4504 12.6993 12.28 13H11V11.72C11.3007 11.5496 11.5495 11.3008 11.72 11H13ZM19 18.28C18.6992 18.4505 18.4504 18.6993 18.28 19H11.72C11.5495 18.6993 11.3007 18.4505 11 18.28V15H12.28C12.6925 15.7416 13.5281 16.1422 14.3646 15.9993C15.2011 15.8564 15.8563 15.2011 15.9992 14.3646C16.1421 13.5281 15.7416 12.6925 15 12.28V11H18.28C18.4504 11.3008 18.6992 11.5496 19 11.72V18.28Z" fill="#171E2B"/>
</svg>
