<svg width="24" height="24" viewBox="0 0 24 24" fill="none" xmlns="http://www.w3.org/2000/svg">
<path fill-rule="evenodd" clip-rule="evenodd" d="M16 9.99991H14V7.99991C14 7.44762 13.5523 6.99991 13 6.99991H7.99999C7.44771 6.99991 6.99999 7.44762 6.99999 7.99991V12.9999C6.99999 13.5522 7.44771 13.9999 7.99999 13.9999H9.99999V15.9999C9.99999 16.5522 10.4477 16.9999 11 16.9999H16C16.5523 16.9999 17 16.5522 17 15.9999V10.9999C17 10.4476 16.5523 9.99991 16 9.99991ZM9.99999 11V12H8.99999V8.99997H12V9.99997H11C10.4477 9.99997 9.99999 10.4477 9.99999 11ZM15 15H12V12H15V15ZM21 18.28V5.71996C21.7416 5.30745 22.1421 4.47184 21.9992 3.63535C21.8563 2.79885 21.2011 2.14361 20.3646 2.00071C19.5281 1.8578 18.6925 2.25835 18.28 2.99996H5.71999C5.30748 2.25835 4.47187 1.8578 3.63538 2.00071C2.79888 2.14361 2.14364 2.79885 2.00074 3.63535C1.85783 4.47184 2.25838 5.30745 2.99999 5.71996V18.28C2.25838 18.6925 1.85783 19.5281 2.00074 20.3646C2.14364 21.2011 2.79888 21.8563 3.63538 21.9992C4.47187 22.1421 5.30748 21.7416 5.71999 21H18.28C18.6925 21.7416 19.5281 22.1421 20.3646 21.9992C21.2011 21.8563 21.8563 21.2011 21.9992 20.3646C22.1421 19.5281 21.7416 18.6925 21 18.28ZM19 18.28C18.6993 18.4505 18.4504 18.6993 18.28 19H5.71999C5.54956 18.6993 5.30072 18.4505 4.99999 18.28V5.72003C5.30072 5.54961 5.54956 5.30076 5.71999 5.00003H18.28C18.4504 5.30076 18.6993 5.54961 19 5.72003V18.28Z" fill="#171E2B"/>
</svg>
