<svg width="24" height="24" viewBox="0 0 24 24" fill="none" xmlns="http://www.w3.org/2000/svg">
<path fill-rule="evenodd" clip-rule="evenodd" d="M21.71 7.57006L16.44 2.29006C16.2484 2.10733 15.9948 2.00374 15.73 2.00006H8.27C8.00523 2.00374 7.75163 2.10733 7.56 2.29006L2.29 7.57006C2.10526 7.75632 2.0011 8.00772 2 8.27006V15.7301C2.0011 15.9924 2.10526 16.2438 2.29 16.4301L7.56 21.7101C7.75163 21.8928 8.00523 21.9964 8.27 22.0001H15.73C15.9948 21.9964 16.2484 21.8928 16.44 21.7101L21.71 16.4301C21.8947 16.2438 21.9989 15.9924 22 15.7301V8.27006C21.9989 8.00772 21.8947 7.75632 21.71 7.57006ZM20 15.3101L15.31 20.0001H8.68999L3.99999 15.3101V8.69012L8.68999 4.00012H15.31L20 8.69012V15.3101Z" fill="#171E2B"/>
</svg>
