<svg width="24" height="24" viewBox="0 0 24 24" fill="none" xmlns="http://www.w3.org/2000/svg">
<path d="M6.07299 2.86914C5.88651 2.88289 5.74471 3.0436 5.75417 3.23008C5.76448 3.41742 5.92175 3.56179 6.10824 3.55664H6.78285V10.3087H2.37515C2.28405 10.3078 2.19554 10.3448 2.13108 10.4092C2.06662 10.4737 2.02967 10.5622 2.03053 10.6533V20.7863C2.02967 20.8782 2.06663 20.9659 2.13108 21.0303C2.19553 21.0956 2.28405 21.1317 2.37515 21.1317H21.6251C21.7162 21.1317 21.8048 21.0956 21.8692 21.0303C21.9337 20.9659 21.9706 20.8782 21.9698 20.7863V10.6533C21.9706 10.5622 21.9337 10.4737 21.8692 10.4092C21.8048 10.3448 21.7162 10.3078 21.6251 10.3087H17.2174V3.55664H17.8929C18.0794 3.55235 18.2289 3.39938 18.2289 3.21289C18.2289 3.02555 18.0794 2.87343 17.8929 2.86914H6.10839C6.09636 2.86828 6.08503 2.86828 6.07299 2.86914ZM7.4712 3.55664H16.5299V20.4443H14.6419V16.9166C14.6419 16.8246 14.6058 16.737 14.5413 16.6725C14.476 16.6072 14.3884 16.5711 14.2964 16.5711H9.70391C9.61196 16.5711 9.5243 16.6072 9.45899 16.6725C9.39453 16.737 9.35844 16.8246 9.35844 16.9166V20.4443H7.4704V10.6543L7.4712 3.55664ZM9.02581 4.94968C8.8505 4.96687 8.71645 5.11554 8.71645 5.29172V7.23304C8.71559 7.42296 8.86942 7.57765 9.05934 7.57851H11.0746H11.0737C11.1657 7.57851 11.2533 7.54241 11.3187 7.4771C11.3831 7.41265 11.4192 7.32499 11.4192 7.23303V5.29171C11.4183 5.10179 11.2636 4.94882 11.0737 4.94968H9.05849H9.05935C9.04817 4.94882 9.03698 4.94882 9.02581 4.94968ZM12.8903 4.94968C12.7159 4.96859 12.5835 5.1164 12.5835 5.29172V7.23304C12.5827 7.42296 12.7365 7.57765 12.9264 7.57851H14.9417H14.9408C15.1307 7.57765 15.2846 7.42296 15.2837 7.23304V5.29172C15.2829 5.10351 15.1299 4.95054 14.9408 4.94968H12.9265C12.9144 4.94882 12.9024 4.94882 12.8903 4.94968ZM9.40463 5.63718H10.7324V6.89101H9.40463V5.63718ZM13.2692 5.63718H14.5969V6.89101H13.2683L13.2692 5.63718ZM9.02559 8.79374C8.85028 8.81179 8.71623 8.9596 8.71623 9.13664V11.078V11.0771C8.71537 11.267 8.8692 11.4217 9.05912 11.4226H11.0744H11.0735C11.1655 11.4226 11.2531 11.3865 11.3184 11.322C11.3829 11.2567 11.419 11.1691 11.419 11.0771V9.13577V9.13663C11.4181 8.94671 11.2634 8.79374 11.0735 8.79374H9.05827H9.05913L9.02559 8.79374ZM12.8901 8.79374C12.7157 8.81265 12.5833 8.96046 12.5833 9.13664V11.078V11.0771C12.5825 11.267 12.7363 11.4217 12.9262 11.4226H14.9415H14.9406C15.1305 11.4217 15.2843 11.267 15.2835 11.0771V9.13663C15.2826 8.94757 15.1297 8.7946 14.9406 8.79374H12.9262L12.8901 8.79374ZM9.40441 9.48124H10.7322V10.7351H9.40441V9.48124ZM13.2689 9.48124H14.5967V10.7351H13.2681L13.2689 9.48124ZM2.71839 10.9955H6.78333V20.4434H2.71839V10.9955ZM17.2177 10.9955H21.2826V20.4434H17.2177V10.9955ZM3.98515 12.4452L3.98343 12.4461C3.79695 12.4495 3.64743 12.6025 3.64743 12.7898C3.64743 12.9763 3.79696 13.1293 3.98343 13.1336H5.51657C5.70305 13.1293 5.85257 12.9763 5.85257 12.7898C5.85257 12.6025 5.70304 12.4495 5.51657 12.4461L3.98515 12.4452ZM18.4845 12.4452L18.4828 12.4461C18.2963 12.4495 18.1467 12.6025 18.1467 12.7898C18.1467 12.9763 18.2963 13.1293 18.4828 13.1336H20.0159C20.2024 13.1293 20.3519 12.9763 20.3519 12.7898C20.3519 12.6025 20.2024 12.4495 20.0159 12.4461L18.4845 12.4452ZM9.06055 12.5793L9.05883 12.5801C8.86977 12.581 8.7168 12.734 8.71594 12.9222V14.8661C8.7168 15.0551 8.86977 15.2081 9.05883 15.2081H11.0741H11.0732C11.2631 15.209 11.4178 15.056 11.4187 14.8661V12.9222C11.4178 12.7322 11.2631 12.5793 11.0732 12.5801L9.06055 12.5793ZM12.9277 12.5793L12.926 12.5801C12.7369 12.581 12.584 12.734 12.5831 12.9222V14.8661C12.584 15.0551 12.7369 15.2081 12.926 15.2081H14.9412H14.9404C15.1294 15.2081 15.2824 15.0551 15.2833 14.8661V12.9222C15.2824 12.734 15.1294 12.581 14.9404 12.5801L12.9277 12.5793ZM9.40595 13.2668H10.7337V14.5206H9.40595V13.2668ZM13.2705 13.2668H14.5982V14.5206H13.2679L13.2705 13.2668ZM3.98581 14.4063L3.98323 14.4072C3.79675 14.4106 3.64723 14.5636 3.64723 14.7509C3.64723 14.9374 3.79676 15.0904 3.98323 15.0947H5.51637C5.60832 15.0964 5.69856 15.0612 5.76387 14.9967C5.83004 14.9314 5.86785 14.8429 5.86785 14.7509C5.86785 14.6581 5.83004 14.5696 5.76387 14.5051C5.69856 14.4398 5.60832 14.4046 5.51637 14.4072L3.98581 14.4063ZM18.4851 14.4063L18.4826 14.4072C18.2961 14.4106 18.1465 14.5636 18.1465 14.7509C18.1465 14.9374 18.2961 15.0904 18.4826 15.0947H20.0157C20.1076 15.0964 20.197 15.0612 20.2632 14.9967C20.3294 14.9314 20.3672 14.8429 20.3672 14.7509C20.3672 14.6581 20.3294 14.5696 20.2632 14.5051C20.197 14.4398 20.1076 14.4046 20.0157 14.4072L18.4851 14.4063ZM3.94891 16.3708C3.94891 16.3708 3.94805 16.3708 3.94805 16.3717C3.76157 16.3855 3.61977 16.5453 3.62923 16.7326C3.63868 16.9191 3.79595 17.0644 3.9833 17.0592H5.51643C5.70292 17.0549 5.85244 16.9019 5.85244 16.7155C5.85244 16.5281 5.70291 16.3751 5.51643 16.3717H3.9833C3.97213 16.3708 3.96094 16.37 3.94891 16.3708ZM18.4482 16.3708C18.4482 16.3708 18.4474 16.3708 18.4474 16.3717C18.26 16.3855 18.1191 16.5453 18.1285 16.7326C18.138 16.9191 18.2953 17.0644 18.4826 17.0592H20.0158C20.2022 17.0549 20.3518 16.9019 20.3518 16.7155C20.3518 16.5281 20.2022 16.3751 20.0158 16.3717H18.4826C18.4714 16.3708 18.4594 16.37 18.4482 16.3708ZM10.0479 17.2586H11.6592V20.4435H10.0479V17.2586ZM12.3449 17.2586H13.9563V20.4435H12.3449V17.2586Z" fill="#171E2B"/>
<path d="M9.02667 4.94968H9.02581M9.02581 4.94968C8.8505 4.96687 8.71645 5.11554 8.71645 5.29172V7.23304C8.71559 7.42296 8.86942 7.57765 9.05934 7.57851H11.0746H11.0737C11.1657 7.57851 11.2533 7.54241 11.3187 7.4771C11.3831 7.41265 11.4192 7.32499 11.4192 7.23303V5.29171C11.4183 5.10179 11.2637 4.94882 11.0737 4.94968H9.05849H9.05935C9.04817 4.94882 9.03698 4.94882 9.02581 4.94968ZM12.8912 4.94968H12.8903M12.8903 4.94968C12.7159 4.96859 12.5835 5.1164 12.5835 5.29172V7.23304C12.5827 7.42296 12.7365 7.57765 12.9264 7.57851H14.9417H14.9408C15.1307 7.57765 15.2846 7.42296 15.2837 7.23304V5.29172C15.2829 5.10351 15.1299 4.95054 14.9408 4.94968H12.9265C12.9144 4.94882 12.9024 4.94882 12.8903 4.94968ZM9.02645 8.79374H9.02559M9.02559 8.79374C8.85028 8.81179 8.71623 8.9596 8.71623 9.13664V11.078V11.0771C8.71537 11.267 8.8692 11.4217 9.05912 11.4226H11.0744H11.0735C11.1655 11.4226 11.2531 11.3865 11.3184 11.322C11.3829 11.2567 11.419 11.1691 11.419 11.0771V9.13577V9.13663C11.4181 8.94671 11.2634 8.79374 11.0735 8.79374H9.05827H9.05913L9.02559 8.79374ZM12.891 8.79374H12.8901M12.8901 8.79374C12.7157 8.81265 12.5833 8.96046 12.5833 9.13664V11.078V11.0771C12.5825 11.267 12.7363 11.4217 12.9262 11.4226H14.9415H14.9406C15.1305 11.4217 15.2843 11.267 15.2835 11.0771V9.13663C15.2826 8.94757 15.1297 8.7946 14.9406 8.79374H12.9262L12.8901 8.79374ZM3.95149 16.37L3.94891 16.3708M3.94891 16.3708C3.94891 16.3708 3.94805 16.3708 3.94805 16.3717C3.76157 16.3855 3.61977 16.5453 3.62923 16.7326C3.63868 16.9191 3.79595 17.0644 3.9833 17.0592H5.51643C5.70292 17.0549 5.85244 16.9019 5.85244 16.7155C5.85244 16.5281 5.70291 16.3751 5.51643 16.3717H3.9833C3.97213 16.3708 3.96094 16.37 3.94891 16.3708ZM18.4508 16.37L18.4482 16.3708M18.4482 16.3708C18.4482 16.3708 18.4474 16.3708 18.4474 16.3717C18.26 16.3855 18.1191 16.5453 18.1285 16.7326C18.138 16.9191 18.2953 17.0644 18.4826 17.0592H20.0158C20.2022 17.0549 20.3518 16.9019 20.3518 16.7155C20.3518 16.5281 20.2022 16.3751 20.0158 16.3717H18.4826C18.4714 16.3708 18.4594 16.37 18.4482 16.3708ZM6.07299 2.86914C5.88651 2.88289 5.74471 3.0436 5.75417 3.23008C5.76448 3.41742 5.92175 3.56179 6.10824 3.55664H6.78285V10.3087H2.37515C2.28405 10.3078 2.19554 10.3448 2.13108 10.4092C2.06662 10.4737 2.02967 10.5622 2.03053 10.6533V20.7863C2.02967 20.8782 2.06663 20.9659 2.13108 21.0303C2.19553 21.0956 2.28405 21.1317 2.37515 21.1317H21.6251C21.7162 21.1317 21.8048 21.0956 21.8692 21.0303C21.9337 20.9659 21.9706 20.8782 21.9698 20.7863V10.6533C21.9706 10.5622 21.9337 10.4737 21.8692 10.4092C21.8048 10.3448 21.7162 10.3078 21.6251 10.3087H17.2174V3.55664H17.8929C18.0794 3.55235 18.2289 3.39938 18.2289 3.21289C18.2289 3.02555 18.0794 2.87343 17.8929 2.86914H6.10839C6.09636 2.86828 6.08503 2.86828 6.07299 2.86914ZM7.4712 3.55664H16.5299V20.4443H14.6419V16.9166C14.6419 16.8246 14.6058 16.737 14.5413 16.6725C14.476 16.6072 14.3884 16.5711 14.2964 16.5711H9.70391C9.61196 16.5711 9.5243 16.6072 9.45899 16.6725C9.39453 16.737 9.35844 16.8246 9.35844 16.9166V20.4443H7.4704V10.6543L7.4712 3.55664ZM9.40463 5.63718H10.7324V6.89101H9.40463V5.63718ZM13.2692 5.63718H14.5969V6.89101H13.2683L13.2692 5.63718ZM9.40441 9.48124H10.7322V10.7351H9.40441V9.48124ZM13.2689 9.48124H14.5967V10.7351H13.2681L13.2689 9.48124ZM2.71839 10.9955H6.78333V20.4434H2.71839V10.9955ZM17.2177 10.9955H21.2827V20.4434H17.2177V10.9955ZM3.98515 12.4452L3.98343 12.4461C3.79695 12.4495 3.64743 12.6025 3.64743 12.7898C3.64743 12.9763 3.79696 13.1293 3.98343 13.1336H5.51657C5.70305 13.1293 5.85257 12.9763 5.85257 12.7898C5.85257 12.6025 5.70304 12.4495 5.51657 12.4461L3.98515 12.4452ZM18.4845 12.4452L18.4828 12.4461C18.2963 12.4495 18.1467 12.6025 18.1467 12.7898C18.1467 12.9763 18.2963 13.1293 18.4828 13.1336H20.0159C20.2024 13.1293 20.3519 12.9763 20.3519 12.7898C20.3519 12.6025 20.2024 12.4495 20.0159 12.4461L18.4845 12.4452ZM9.06055 12.5793L9.05883 12.5801C8.86977 12.581 8.7168 12.734 8.71594 12.9222V14.8661C8.7168 15.0551 8.86977 15.2081 9.05883 15.2081H11.0741H11.0732C11.2631 15.209 11.4178 15.056 11.4187 14.8661V12.9222C11.4178 12.7322 11.2631 12.5793 11.0732 12.5801L9.06055 12.5793ZM12.9277 12.5793L12.926 12.5801C12.7369 12.581 12.584 12.734 12.5831 12.9222V14.8661C12.584 15.0551 12.7369 15.2081 12.926 15.2081H14.9412H14.9404C15.1294 15.2081 15.2824 15.0551 15.2833 14.8661V12.9222C15.2824 12.734 15.1294 12.581 14.9404 12.5801L12.9277 12.5793ZM9.40595 13.2668H10.7337V14.5206H9.40595V13.2668ZM13.2705 13.2668H14.5982V14.5206H13.2679L13.2705 13.2668ZM3.98581 14.4063L3.98323 14.4072C3.79675 14.4106 3.64723 14.5636 3.64723 14.7509C3.64723 14.9374 3.79676 15.0904 3.98323 15.0947H5.51637C5.60832 15.0964 5.69856 15.0612 5.76387 14.9967C5.83004 14.9314 5.86785 14.8429 5.86785 14.7509C5.86785 14.6581 5.83004 14.5696 5.76387 14.5051C5.69856 14.4398 5.60832 14.4046 5.51637 14.4072L3.98581 14.4063ZM18.4851 14.4063L18.4826 14.4072C18.2961 14.4106 18.1465 14.5636 18.1465 14.7509C18.1465 14.9374 18.2961 15.0904 18.4826 15.0947H20.0157C20.1076 15.0964 20.197 15.0612 20.2632 14.9967C20.3294 14.9314 20.3672 14.8429 20.3672 14.7509C20.3672 14.6581 20.3294 14.5696 20.2632 14.5051C20.197 14.4398 20.1076 14.4046 20.0157 14.4072L18.4851 14.4063ZM10.0479 17.2586H11.6592V20.4435H10.0479V17.2586ZM12.3449 17.2586H13.9563V20.4435H12.3449V17.2586Z" stroke="#171E2B" stroke-width="0.4"/>
</svg>
