<svg width="90" height="90" viewBox="0 0 90 90" fill="none" xmlns="http://www.w3.org/2000/svg">
<path fill-rule="evenodd" clip-rule="evenodd" d="M15 24H34V77H30V61H19V77H15V24ZM19 28H30V34H19V28ZM30 39H19V45H30V39ZM19 50H30V56H19V50Z" fill="#F3CCD4"/>
<path d="M64 63L61 66.5L59.5 65.5V58.5L61 54.5L66 52.5L70 53.5L74.5 57L74.7515 65.5H71L70 63.5L71 58H64V63Z" fill="#F3CCD4"/>
<path d="M77.6976 75.7916C77.4885 75.7916 77.3419 75.5836 77.3859 75.3791C77.4851 74.918 77.4848 74.4357 77.3789 73.9697L76.2747 69.001C76.1867 68.5859 76.0413 68.1707 75.8491 67.787C75.8123 67.7136 75.7917 67.633 75.7917 67.5509V30.1248C75.7917 29.9287 75.6771 29.7508 75.4986 29.6696L63.9386 24.4153C63.7601 24.3341 63.6455 24.1561 63.6455 23.9601V12.25C63.6455 11.9739 63.4216 11.75 63.1455 11.75H33.2288C32.9527 11.75 32.7288 11.9739 32.7288 12.25V22.2917C32.7288 22.5678 32.505 22.7917 32.2288 22.7917H14.4583C14.1822 22.7917 13.9583 23.0155 13.9583 23.2917V75.2917C13.9583 75.5678 13.7345 75.7917 13.4583 75.7917H12.25C11.9739 75.7917 11.75 76.0155 11.75 76.2917V77.5C11.75 77.7761 11.9739 78 12.25 78H77.5C77.7761 78 78 77.7761 78 77.5V76.0941C78 75.927 77.8646 75.7916 77.6976 75.7916ZM28.3127 75.2915C28.3127 75.5677 28.0889 75.7915 27.8127 75.7915H21.0832C20.8071 75.7915 20.5832 75.5677 20.5832 75.2915V63.0415C20.5832 62.7654 20.8071 62.5415 21.0832 62.5415H27.8127C28.0889 62.5415 28.3127 62.7654 28.3127 63.0415V75.2915ZM32.7294 75.2915C32.7294 75.5677 32.5055 75.7915 32.2294 75.7915H31.0211C30.7449 75.7915 30.5211 75.5677 30.5211 75.2915V60.8332C30.5211 60.557 30.2972 60.3332 30.0211 60.3332H18.8749C18.5987 60.3332 18.3749 60.557 18.3749 60.8332V75.2915C18.3749 75.5677 18.151 75.7915 17.8749 75.7915H16.6666C16.3904 75.7915 16.1666 75.5677 16.1666 75.2915V25.4999C16.1666 25.2237 16.3904 24.9999 16.6666 24.9999H32.2294C32.5055 24.9999 32.7294 25.2237 32.7294 25.4999V75.2915ZM63.6461 27.4877C63.6461 27.1241 64.0218 26.8821 64.3528 27.0324L73.29 31.0915C73.4686 31.1726 73.5832 31.3506 73.5832 31.5467V53.1673C73.5832 53.6286 72.9885 53.8636 72.6357 53.5663C70.353 51.6431 67.2252 50.9947 64.3465 51.8965C64.0074 52.0027 63.6461 51.7597 63.6461 51.4043V27.4877ZM66.9586 53.7082C70.6161 53.7082 73.5836 56.6756 73.5836 60.3332V64.662C73.5836 64.9801 73.2263 65.1948 72.9349 65.0673L71.2798 64.4052C70.9911 64.2898 70.8787 63.9417 71.004 63.6572C71.2495 63.1 71.3752 62.4934 71.3752 61.879V57.5207C71.3752 57.2445 71.1514 57.0207 70.8752 57.0207H63.0419C62.7658 57.0207 62.5419 57.2445 62.5419 57.5207V61.879C62.5419 62.4934 62.6676 63.1 62.9131 63.6572C63.0385 63.9416 62.926 64.2898 62.6374 64.4052L60.9823 65.0673C60.6909 65.1948 60.3336 64.9801 60.3336 64.662V60.3332C60.3336 56.6756 63.301 53.7082 66.9586 53.7082ZM68.6669 59.229C68.9431 59.229 69.1669 59.4529 69.1669 59.729V61.879C69.1669 63.0936 68.1732 64.0874 66.9586 64.0874C65.744 64.0874 64.7502 63.0936 64.7502 61.879V59.729C64.7502 59.4529 64.9741 59.229 65.2502 59.229H68.6669ZM34.9374 14.4585C34.9374 14.1824 35.1612 13.9585 35.4374 13.9585H60.9374C61.2135 13.9585 61.4374 14.1824 61.4374 14.4585V15.6669C61.4374 15.943 61.2135 16.1669 60.9374 16.1669H35.4374C35.1612 16.1669 34.9374 15.943 34.9374 15.6669V14.4585ZM56.2342 75.3778C56.0272 75.64 55.7097 75.7918 55.3785 75.7918H40.9964C40.3891 75.7918 39.8923 75.295 39.8923 74.6877C39.8923 74.6049 39.9061 74.522 39.9199 74.453L41.024 69.4843C41.2587 68.4216 42.0177 67.5382 43.0253 67.1242L45.7278 66.0432C45.8531 65.9931 45.9929 65.9968 46.118 66.0473C46.2961 66.1192 46.4753 66.1812 46.6585 66.2317C46.8931 66.2963 47.0693 66.5015 47.0693 66.7449V73.0833C47.0693 73.3594 47.2932 73.5833 47.5693 73.5833H48.7777C49.0538 73.5833 49.2777 73.3594 49.2777 73.0833V66.7308C49.2777 66.4937 49.4449 66.2913 49.673 66.2267C49.8639 66.1726 50.0503 66.1094 50.2355 66.0389C50.3565 65.9928 50.4904 65.9917 50.6107 66.0398L53.3217 67.1242C54.3431 67.5245 55.0884 68.4078 55.323 69.4843L56.4153 74.3995C56.4232 74.4351 56.429 74.4713 56.4371 74.5069C56.4393 74.5165 56.441 74.5262 56.441 74.5358V74.8395C56.441 75.0327 56.3584 75.2259 56.2342 75.3778ZM51.0001 58.1252C51.2762 58.1252 51.5001 58.3491 51.5001 58.6252V60.9132C51.5001 62.1692 50.7962 63.3148 49.6644 63.8807C48.7259 64.3499 47.6355 64.3499 46.697 63.8807C45.5652 63.3286 44.8612 62.1692 44.8612 60.9132V58.6252C44.8612 58.3491 45.0851 58.1252 45.3612 58.1252H51.0001ZM45.7758 55.9169C45.4306 55.9169 45.192 55.5736 45.3736 55.28C45.9698 54.3164 47.0312 53.7085 48.1876 53.7085H51.0001C51.2762 53.7085 51.5001 53.9324 51.5001 54.2085V55.4169C51.5001 55.693 51.2762 55.9169 51.0001 55.9169H45.7758ZM58.1254 67.5515C58.1254 67.6336 58.1047 67.7141 58.0682 67.7877C57.8779 68.1714 57.7429 68.5865 57.6423 69.0015C57.6267 69.0763 57.5199 69.0763 57.5043 69.0015C57.104 67.2211 55.8619 65.7442 54.1642 65.0679L53.1115 64.6451C52.7985 64.5194 52.6975 64.1251 52.8763 63.8391C53.4211 62.9678 53.7087 61.9546 53.7087 60.9135V52.0007C53.7087 51.7245 53.4849 51.5007 53.2087 51.5007H48.1879C45.1376 51.5007 42.667 53.9713 42.667 57.0215V60.9137C42.667 61.9548 42.9546 62.968 43.4994 63.8393C43.6783 64.1253 43.5773 64.5196 43.2642 64.6454L42.2116 65.0681C40.514 65.7444 39.2717 67.2213 38.8715 69.0017L37.7673 73.9704C37.6824 74.3441 37.6654 74.7283 37.7131 75.1036C37.7567 75.4466 37.514 75.7923 37.1682 75.7923H35.4378C35.1617 75.7923 34.9378 75.5684 34.9378 75.2923V18.8756C34.9378 18.5995 35.1617 18.3756 35.4378 18.3756H60.9378C61.214 18.3756 61.4378 18.5995 61.4378 18.8756V53.2057C61.4378 53.3581 61.3678 53.5014 61.2513 53.5995C59.2681 55.2694 58.1253 57.7368 58.1253 60.334L58.1254 67.5515ZM75.0055 75.3778C74.7985 75.64 74.481 75.7918 74.1498 75.7918H59.7677C59.2157 75.7918 58.7464 75.3916 58.6774 74.8395V74.5358C58.6774 74.5262 58.679 74.5165 58.6812 74.5068C58.6893 74.4713 58.6952 74.435 58.7031 74.3994L59.7953 69.4843C60.03 68.4215 60.789 67.5382 61.7966 67.1242L64.79 65.9242C64.9227 65.871 65.0712 65.8787 65.2025 65.9353C65.2948 65.9751 65.3875 66.011 65.4811 66.0441C65.6916 66.1186 65.8406 66.3119 65.8406 66.5352V73.0837C65.8406 73.3598 66.0644 73.5837 66.3406 73.5837H67.5489C67.8251 73.5837 68.0489 73.3598 68.0489 73.0837V66.5395C68.0489 66.308 68.2092 66.1099 68.4271 66.0314C68.5138 66.0001 68.5994 65.9656 68.6831 65.9281C68.8169 65.8682 68.9692 65.8586 69.1053 65.9131L72.0929 67.1107C73.1142 67.511 73.8595 68.3943 74.0942 69.4709L75.1983 74.4396C75.2949 74.7708 75.2126 75.1155 75.0055 75.3778Z" fill="#C1002A"/>
<path d="M30.5212 38.7499C30.5212 38.4737 30.2973 38.2499 30.0212 38.2499H18.875C18.5989 38.2499 18.375 38.4737 18.375 38.7499V45.4794C18.375 45.7555 18.5989 45.9794 18.875 45.9794H30.0212C30.2973 45.9794 30.5212 45.7555 30.5212 45.4794V38.7499ZM28.3129 43.2707C28.3129 43.5469 28.089 43.7707 27.8129 43.7707H21.0833C20.8072 43.7707 20.5833 43.5469 20.5833 43.2707V40.9582C20.5833 40.6821 20.8072 40.4582 21.0833 40.4582H27.8129C28.089 40.4582 28.3129 40.6821 28.3129 40.9582V43.2707Z" fill="#C1002A"/>
<path d="M38.2499 32.2287C38.2499 32.5048 38.4737 32.7287 38.7499 32.7287H45.4794C45.7555 32.7287 45.9794 32.5048 45.9794 32.2287V21.0825C45.9794 20.8064 45.7555 20.5825 45.4794 20.5825H38.7499C38.4737 20.5825 38.2499 20.8064 38.2499 21.0825V32.2287ZM40.4582 23.2916C40.4582 23.0154 40.6821 22.7916 40.9582 22.7916H43.2707C43.5469 22.7916 43.7707 23.0154 43.7707 23.2916V30.0211C43.7707 30.2972 43.5469 30.5211 43.2707 30.5211H40.9582C40.6821 30.5211 40.4582 30.2972 40.4582 30.0211V23.2916Z" fill="#C1002A"/>
<path d="M30.5212 49.7915C30.5212 49.5154 30.2973 49.2915 30.0212 49.2915H18.875C18.5989 49.2915 18.375 49.5154 18.375 49.7915V56.521C18.375 56.7972 18.5989 57.021 18.875 57.021H30.0212C30.2973 57.021 30.5212 56.7972 30.5212 56.521V49.7915ZM28.3129 54.3123C28.3129 54.5885 28.089 54.8123 27.8129 54.8123H21.0833C20.8072 54.8123 20.5833 54.5885 20.5833 54.3123V51.9998C20.5833 51.7237 20.8072 51.4998 21.0833 51.4998H27.8129C28.089 51.4998 28.3129 51.7237 28.3129 51.9998V54.3123Z" fill="#C1002A"/>
<path d="M50.3954 32.2287C50.3954 32.5048 50.6192 32.7287 50.8954 32.7287H57.6249C57.901 32.7287 58.1249 32.5048 58.1249 32.2287V21.0825C58.1249 20.8064 57.901 20.5825 57.6249 20.5825H50.8954C50.6192 20.5825 50.3954 20.8064 50.3954 21.0825V32.2287ZM52.6037 23.2916C52.6037 23.0154 52.8276 22.7916 53.1037 22.7916H55.4162C55.6924 22.7916 55.9162 23.0154 55.9162 23.2916V30.0211C55.9162 30.2972 55.6924 30.5211 55.4162 30.5211H53.1037C52.8276 30.5211 52.6037 30.2972 52.6037 30.0211V23.2916Z" fill="#C1002A"/>
<path d="M38.2499 47.6877C38.2499 47.9638 38.4737 48.1877 38.7499 48.1877H45.4794C45.7555 48.1877 45.9794 47.9638 45.9794 47.6877V36.5415C45.9794 36.2654 45.7555 36.0415 45.4794 36.0415H38.7499C38.4737 36.0415 38.2499 36.2654 38.2499 36.5415V47.6877ZM40.4582 38.7505C40.4582 38.4744 40.6821 38.2505 40.9582 38.2505H43.2707C43.5469 38.2505 43.7707 38.4744 43.7707 38.7505V45.4801C43.7707 45.7562 43.5469 45.9801 43.2707 45.9801H40.9582C40.6821 45.9801 40.4582 45.7562 40.4582 45.4801V38.7505Z" fill="#C1002A"/>
<path d="M50.3954 47.6877C50.3954 47.9638 50.6192 48.1877 50.8954 48.1877H57.6249C57.901 48.1877 58.1249 47.9638 58.1249 47.6877V36.5415C58.1249 36.2654 57.901 36.0415 57.6249 36.0415H50.8954C50.6192 36.0415 50.3954 36.2654 50.3954 36.5415V47.6877ZM52.6037 38.7505C52.6037 38.4744 52.8276 38.2505 53.1037 38.2505H55.4162C55.6924 38.2505 55.9162 38.4744 55.9162 38.7505V45.4801C55.9162 45.7562 55.6924 45.9801 55.4162 45.9801H53.1037C52.8276 45.9801 52.6037 45.7562 52.6037 45.4801V38.7505Z" fill="#C1002A"/>
<path d="M65.8544 33.2286C65.8544 32.9525 66.0782 32.7286 66.3544 32.7286H70.8752C71.1513 32.7286 71.3752 32.9525 71.3752 33.2286V34.437C71.3752 34.7131 71.1513 34.937 70.8752 34.937H66.3544C66.0782 34.937 65.8544 34.7131 65.8544 34.437V33.2286Z" fill="#C1002A"/>
<path d="M65.8544 38.7499C65.8544 38.4737 66.0782 38.2499 66.3544 38.2499H70.8752C71.1513 38.2499 71.3752 38.4737 71.3752 38.7499V39.9582C71.3752 40.2344 71.1513 40.4582 70.8752 40.4582H66.3544C66.0782 40.4582 65.8544 40.2344 65.8544 39.9582V38.7499Z" fill="#C1002A"/>
<path d="M65.8544 44.271C65.8544 43.9949 66.0782 43.771 66.3544 43.771H70.8752C71.1513 43.771 71.3752 43.9949 71.3752 44.271V45.4793C71.3752 45.7555 71.1513 45.9793 70.8752 45.9793H66.3544C66.0782 45.9793 65.8544 45.7555 65.8544 45.4793V44.271Z" fill="#C1002A"/>
<path d="M30.5212 27.7082C30.5212 27.432 30.2973 27.2082 30.0212 27.2082H18.875C18.5989 27.2082 18.375 27.432 18.375 27.7082V34.4377C18.375 34.7139 18.5989 34.9377 18.875 34.9377H30.0212C30.2973 34.9377 30.5212 34.7139 30.5212 34.4377V27.7082ZM28.3129 32.229C28.3129 32.5052 28.089 32.729 27.8129 32.729H21.0833C20.8072 32.729 20.5833 32.5052 20.5833 32.229V29.9165C20.5833 29.6404 20.8072 29.4165 21.0833 29.4165H27.8129C28.089 29.4165 28.3129 29.6404 28.3129 29.9165V32.229Z" fill="#C1002A"/>
<path d="M46.5 53L44 56L44.5 56.5L52 56V53H49.5H46.5Z" fill="#C1002A"/>
<rect x="34" y="13" width="28" height="4" fill="#C1002A"/>
</svg>
