<svg width="90" height="90" viewBox="0 0 90 90" fill="none" xmlns="http://www.w3.org/2000/svg">
<path d="M77 36H20.8261L9 44.5L20.8261 53H77V36Z" fill="#F3CCD4"/>
<path fill-rule="evenodd" clip-rule="evenodd" d="M78.0001 37C78.0001 35.8954 77.1046 35 76.0001 35H20.3137C19.9053 35 19.5068 35.125 19.1716 35.3582L9.04099 42.4055C7.93607 43.1742 7.89053 44.7928 8.9505 45.6224L19.1122 53.575C19.4641 53.8504 19.898 54 20.3448 54H76.0001C77.1046 54 78.0001 53.1046 78.0001 52V37ZM20.3137 37H76.0001V52H20.3448L10.1831 44.0473L20.3137 37Z" fill="#C1002A"/>
<path d="M42.0001 5C42.0001 4.44771 42.4478 4 43.0001 4H47.0001C47.5523 4 48.0001 4.44772 48.0001 5V84C48.0001 84.5523 47.5523 85 47.0001 85H43.0001C42.4478 85 42.0001 84.5523 42.0001 84V5Z" fill="white"/>
<path fill-rule="evenodd" clip-rule="evenodd" d="M41.0001 5C41.0001 3.89543 41.8955 3 43.0001 3H47.0001C48.1046 3 49.0001 3.89543 49.0001 5V84C49.0001 85.1046 48.1046 86 47.0001 86H43.0001C41.8955 86 41.0001 85.1046 41.0001 84V5ZM47.0001 5L43.0001 5V84H47.0001V5Z" fill="#C1002A"/>
<path d="M32.0001 84.9755C32.0001 81.123 35.1231 78 38.9756 78H51.0245C54.877 78 58.0001 81.123 58.0001 84.9755C58.0001 84.989 57.9891 85 57.9756 85H32.0245C32.011 85 32.0001 84.989 32.0001 84.9755Z" fill="#C1002A"/>
<path fill-rule="evenodd" clip-rule="evenodd" d="M31.0001 84.9755C31.0001 80.5708 34.5708 77 38.9756 77H51.0245C55.4293 77 59.0001 80.5708 59.0001 84.9755C59.0001 85.5413 58.5414 86 57.9756 86H32.0245C31.4587 86 31.0001 85.5413 31.0001 84.9755ZM33.0793 84H56.9208C56.4551 81.1638 53.9925 79 51.0245 79H38.9756C36.0076 79 33.545 81.1638 33.0793 84Z" fill="#C1002A"/>
<path d="M13 12H69.1739L81 19.5L69.1739 28H13V12Z" fill="#F3CCD4"/>
<path fill-rule="evenodd" clip-rule="evenodd" d="M11.5 12.5C11.5 11.3954 12.3954 10.5 13.5 10.5H69.1864C69.5947 10.5 69.9933 10.625 70.3285 10.8582L80.4591 17.9055C81.564 18.6742 81.6095 20.2928 80.5496 21.1224L70.3878 29.075C70.036 29.3504 69.602 29.5 69.1552 29.5H13.5C12.3954 29.5 11.5 28.6046 11.5 27.5V12.5ZM69.1864 12.5H13.5V27.5H69.1552L79.3169 19.5473L69.1864 12.5Z" fill="#C1002A"/>
</svg>
