<svg width="24" height="24" viewBox="0 0 24 24" fill="none" xmlns="http://www.w3.org/2000/svg">
<path fill-rule="evenodd" clip-rule="evenodd" d="M19.44 12.9999C19.22 12.9999 18.99 12.9299 18.77 12.8799C18.3245 12.7818 17.8867 12.6514 17.46 12.4899C16.4992 12.1404 15.4296 12.5717 14.98 13.4899L14.76 13.9399C13.786 13.3981 12.891 12.7252 12.1 11.9399C11.3148 11.1489 10.6418 10.2539 10.1 9.27993L10.52 8.99993C11.4382 8.55036 11.8695 7.48068 11.52 6.51993C11.3612 6.09236 11.2309 5.65473 11.13 5.20993C11.08 4.98993 11.04 4.75993 11.01 4.52993C10.7591 3.07471 9.48654 2.01847 8.01 2.03993H5.01C4.13794 2.03175 3.30548 2.40344 2.72943 3.05822C2.15338 3.71299 1.89077 4.58602 2.01 5.44993C3.10593 14.0682 9.90781 20.8454 18.53 21.9099H18.91C19.6474 21.911 20.3594 21.6405 20.91 21.1499C21.5499 20.5776 21.914 19.7585 21.91 18.8999V15.8999C21.8847 14.4675 20.8502 13.2528 19.44 12.9999ZM19.94 18.9999C19.9396 19.2871 19.8158 19.5603 19.6 19.7499C19.3741 19.945 19.0763 20.0358 18.78 19.9999C11.076 19.0121 5.02121 12.9285 4.06999 5.21991C4.03783 4.9239 4.12816 4.62763 4.31999 4.39991C4.50956 4.18413 4.78277 4.06027 5.06999 4.05991H8.06999C8.54968 4.04924 8.96935 4.38077 9.06999 4.84991C9.10999 5.12324 9.15999 5.39324 9.21999 5.65991C9.33551 6.18705 9.48925 6.70509 9.67999 7.20991L8.27999 7.85991C8.03823 7.97083 7.85062 8.17351 7.75866 8.42311C7.66671 8.6727 7.67798 8.94865 7.78999 9.18991C9.22919 12.2727 11.7072 14.7507 14.79 16.1899C15.0335 16.2899 15.3065 16.2899 15.55 16.1899C15.8019 16.0998 16.0072 15.9125 16.12 15.6699L16.74 14.2699C17.257 14.4548 17.7846 14.6084 18.32 14.7299C18.5867 14.7899 18.8567 14.8399 19.13 14.8799C19.5991 14.9806 19.9307 15.4002 19.92 15.8799L19.94 18.9999ZM21.86 2.6799C21.7585 2.43555 21.5644 2.24137 21.32 2.1399C21.1998 2.08866 21.0707 2.06148 20.94 2.0599H16.94C16.3877 2.0599 15.94 2.50761 15.94 3.0599C15.94 3.61218 16.3877 4.0599 16.94 4.0599H18.52L15.23 7.3599C14.8423 7.74994 14.8423 8.37986 15.23 8.7699C15.62 9.15762 16.25 9.15762 16.64 8.7699L19.94 5.4799V7.0599C19.94 7.61218 20.3877 8.0599 20.94 8.0599C21.4923 8.0599 21.94 7.61218 21.94 7.0599V3.0599C21.9384 2.92922 21.9112 2.80012 21.86 2.6799Z" fill="#171E2B"/>
</svg>
