<svg width="24" height="24" viewBox="0 0 24 24" fill="none" xmlns="http://www.w3.org/2000/svg">
<path fill-rule="evenodd" clip-rule="evenodd" d="M19 2.00006H5C3.34315 2.00006 2 3.34321 2 5.00006V19.0001C2 20.6569 3.34315 22.0001 5 22.0001H19C20.6569 22.0001 22 20.6569 22 19.0001V5.00006C22 3.34321 20.6569 2.00006 19 2.00006ZM10 4.00012H14V7.13012L12.55 6.13012C12.2163 5.91034 11.7837 5.91034 11.45 6.13012L10 7.13012V4.00012ZM20 19.0001C20 19.5524 19.5523 20.0001 19 20.0001H5.00001C4.44773 20.0001 4.00002 19.5524 4.00002 19.0001V5.00012C4.00002 4.44784 4.44773 4.00012 5.00001 4.00012H8.00001V9.00012C8.001 9.36872 8.20467 9.70688 8.53001 9.88012C8.84829 10.0435 9.22963 10.0245 9.53001 9.83012L12 8.20012L14.45 9.83012C14.7564 10.0319 15.1487 10.0497 15.4721 9.87653C15.7955 9.70335 15.9981 9.36698 16 9.00012V4.00012H19C19.5523 4.00012 20 4.44784 20 5.00012V19.0001Z" fill="#171E2B"/>
</svg>
