<svg width="24" height="24" viewBox="0 0 24 24" fill="none" xmlns="http://www.w3.org/2000/svg">
<path fill-rule="evenodd" clip-rule="evenodd" d="M12 13C11.3764 12.9928 10.8143 13.3745 10.5912 13.9569C10.3681 14.5392 10.5312 15.1988 11 15.61V17C11 17.5523 11.4477 18 12 18C12.5522 18 13 17.5523 13 17V15.61C13.4687 15.1988 13.6319 14.5392 13.4087 13.9569C13.1856 13.3745 12.6235 12.9928 12 13ZM17 9.00012V7.00012C17 4.2387 14.7614 2.00012 12 2.00012C9.23856 2.00012 6.99998 4.2387 6.99998 7.00012V9.00012C5.34313 9.00012 3.99998 10.3433 3.99998 12.0001V19.0001C3.99998 20.657 5.34313 22.0001 6.99998 22.0001H17C18.6568 22.0001 20 20.657 20 19.0001V12.0001C20 10.3433 18.6568 9.00012 17 9.00012ZM9 7.00018C9 5.34333 10.3431 4.00018 12 4.00018C13.6569 4.00018 15 5.34333 15 7.00018V9.00018H9V7.00018ZM18 19.0001C18 19.5524 17.5523 20.0001 17 20.0001H7C6.44772 20.0001 6 19.5524 6 19.0001V12.0001C6 11.4478 6.44772 11.0001 7 11.0001H17C17.5523 11.0001 18 11.4478 18 12.0001V19.0001Z" fill="#171E2B"/>
</svg>
