<svg width="24" height="24" viewBox="0 0 24 24" fill="none" xmlns="http://www.w3.org/2000/svg">
<path fill-rule="evenodd" clip-rule="evenodd" d="M18 0.999878H10C8.34315 0.999878 7 2.34302 7 3.99988H6C4.34315 3.99988 3 5.34302 3 6.99988V9.99988C3 11.6567 4.34315 12.9999 6 12.9999H12C12.5523 12.9999 13 13.4476 13 13.9999V14.9999C11.8954 14.9999 11 15.8953 11 16.9999V20.9999C11 22.1044 11.8954 22.9999 13 22.9999H15C16.1046 22.9999 17 22.1044 17 20.9999V16.9999C17 15.8953 16.1046 14.9999 15 14.9999V13.9999C15 12.343 13.6569 10.9999 12 10.9999H6C5.44772 10.9999 5 10.5522 5 9.99988V6.99988C5 6.44759 5.44772 5.99988 6 5.99988H7C7 7.65673 8.34315 8.99988 10 8.99988H18C19.6569 8.99988 21 7.65673 21 5.99988V3.99988C21 2.34302 19.6569 0.999878 18 0.999878ZM15 16.9998V20.9998H13V16.9998H15ZM19 5.99994C19 6.55222 18.5523 6.99994 18 6.99994H10C9.44771 6.99994 9 6.55222 9 5.99994V3.99994C9 3.44765 9.44771 2.99994 10 2.99994H18C18.5523 2.99994 19 3.44765 19 3.99994V5.99994Z" fill="#171E2B"/>
</svg>
