<svg width="24" height="24" viewBox="0 0 24 24" fill="none" xmlns="http://www.w3.org/2000/svg">
<path fill-rule="evenodd" clip-rule="evenodd" d="M21.54 5.15996C21.2433 4.95917 20.8618 4.93247 20.54 5.08996C17.8366 6.21892 14.9292 6.77725 12 6.72996C9.05732 6.78279 6.13572 6.22434 3.41998 5.08996C3.09818 4.93247 2.71671 4.95917 2.41998 5.15996C2.14903 5.35271 1.99162 5.66754 1.99998 5.99996V18C2.00055 18.3399 2.17382 18.6564 2.45998 18.84C2.75671 19.0407 3.13818 19.0674 3.45998 18.91C6.16333 17.781 9.07075 17.2227 12 17.27C14.9426 17.2171 17.8642 17.7756 20.58 18.91C20.7124 18.9683 20.8553 18.9989 21 19C21.1916 18.9995 21.379 18.9439 21.54 18.84C21.8261 18.6564 21.9994 18.3399 22 18V5.99996C21.9994 5.65996 21.8261 5.34355 21.54 5.15996ZM20 16.52C17.4199 15.6674 14.7172 15.2451 12 15.27C9.2828 15.2451 6.58003 15.6674 3.99998 16.52V7.52002C6.58003 8.37267 9.2828 8.79498 12 8.77002C14.7172 8.79498 17.4199 8.37267 20 7.52002V16.52Z" fill="#171E2B"/>
</svg>
