<svg width="24" height="24" viewBox="0 0 24 24" fill="none" xmlns="http://www.w3.org/2000/svg">
<path fill-rule="evenodd" clip-rule="evenodd" d="M21.46 5.82993C21.4011 5.42344 21.0997 5.09427 20.7 4.99993H20.59C14.9405 3.67011 9.05945 3.67011 3.40998 4.99993H3.29998C2.90914 5.09005 2.60995 5.40498 2.53998 5.79993C1.82001 9.88176 1.82001 14.0581 2.53998 18.1399C2.60995 18.5349 2.90914 18.8498 3.29998 18.9399H3.40998C6.223 19.6226 9.10541 19.9783 12 19.9999C14.8922 19.9979 17.7746 19.6624 20.59 18.9999H20.7C21.0908 18.9098 21.39 18.5949 21.46 18.1999C22.1835 14.1083 22.1835 9.92153 21.46 5.82993ZM19.6 17.17C14.593 18.27 9.40695 18.27 4.39998 17.17C3.85996 13.7445 3.85996 10.2555 4.39998 6.83C9.40695 5.73005 14.593 5.73005 19.6 6.83C20.14 10.2555 20.14 13.7445 19.6 17.17Z" fill="#171E2B"/>
</svg>
