<svg width="24" height="24" viewBox="0 0 24 24" fill="none" xmlns="http://www.w3.org/2000/svg">
<path fill-rule="evenodd" clip-rule="evenodd" d="M17.27 12C17.2125 9.05689 17.7711 6.13433 18.91 3.41995C19.0675 3.09815 19.0408 2.71668 18.84 2.41995C18.6472 2.149 18.3324 1.99159 18 1.99995H5.99999C5.65999 2.00052 5.34358 2.17379 5.15999 2.45995C4.9592 2.75668 4.9325 3.13815 5.08999 3.45995C6.22341 6.16195 6.78193 9.07032 6.72999 12C6.78751 14.943 6.22888 17.8656 5.08999 20.58C4.9325 20.9018 4.9592 21.2832 5.15999 21.58C5.35274 21.8509 5.66757 22.0083 5.99999 22H18C18.34 21.9994 18.6564 21.8261 18.84 21.54C19.0408 21.2432 19.0675 20.8618 18.91 20.54C17.7766 17.838 17.218 14.9296 17.27 12ZM16.52 19.9999H7.51998C8.37263 17.4199 8.79494 14.7171 8.76998 11.9999C8.78205 9.28051 8.34622 6.57768 7.47998 3.9999H16.48C15.6273 6.57996 15.205 9.28273 15.23 11.9999C15.2179 14.7193 15.6538 17.4221 16.52 19.9999Z" fill="#171E2B"/>
</svg>
