<svg width="24" height="24" viewBox="0 0 24 24" fill="none" xmlns="http://www.w3.org/2000/svg">
<path fill-rule="evenodd" clip-rule="evenodd" d="M18.08 12.42L11.9 18.61C10.2181 20.1047 7.66263 20.0295 6.07156 18.4384C4.4805 16.8473 4.40527 14.2919 5.89999 12.61L13.9 4.60997C14.8919 3.66774 16.4481 3.66774 17.44 4.60997C18.4083 5.59131 18.4083 7.16864 17.44 8.14997L10.54 15.04C10.3542 15.24 10.0758 15.3258 9.80966 15.2649C9.5435 15.2041 9.33003 15.0059 9.24966 14.7449C9.16928 14.484 9.23421 14.2 9.41999 14L14.55 8.87997C14.9421 8.48785 14.9421 7.85209 14.55 7.45997C14.1579 7.06785 13.5221 7.06785 13.13 7.45997L7.99999 12.6C7.48152 13.1144 7.18991 13.8146 7.18991 14.545C7.18991 15.2754 7.48152 15.9755 7.99999 16.49C9.08914 17.5274 10.8008 17.5274 11.89 16.49L18.78 9.58997C20.4321 7.81691 20.3834 5.05391 18.6697 3.34024C16.9561 1.62657 14.1931 1.57782 12.42 3.22997L4.41999 11.23C2.17875 13.7123 2.28877 17.519 4.66963 19.8677C7.05049 22.2165 10.8584 22.2747 13.31 20L19.5 13.82C19.7537 13.5663 19.8527 13.1966 19.7599 12.8501C19.667 12.5036 19.3964 12.2329 19.0499 12.1401C18.7034 12.0472 18.3337 12.1463 18.08 12.4V12.42Z" fill="#171E2B"/>
</svg>
