<svg width="24" height="24" viewBox="0 0 24 24" fill="none" xmlns="http://www.w3.org/2000/svg">
<path fill-rule="evenodd" clip-rule="evenodd" d="M7.00001 14.0001H9.00001C9.55229 14.0001 10 13.5523 10 13.0001C10 12.4478 9.55229 12.0001 9.00001 12.0001H7.00001C6.44772 12.0001 6.00001 12.4478 6.00001 13.0001C6.00001 13.5523 6.44772 14.0001 7.00001 14.0001ZM13 16.0002H7.00001C6.44772 16.0002 6.00001 16.4479 6.00001 17.0002C6.00001 17.5525 6.44772 18.0002 7.00001 18.0002H13C13.5523 18.0002 14 17.5525 14 17.0002C14 16.4479 13.5523 16.0002 13 16.0002ZM19 2.00012H5C3.34315 2.00012 2 3.34327 2 5.00012V19.0001C2 20.657 3.34315 22.0001 5 22.0001H19C20.6569 22.0001 22 20.657 22 19.0001V5.00012C22 3.34327 20.6569 2.00012 19 2.00012ZM14 4.00018V7.29018L12.49 6.45018C12.1806 6.27155 11.7994 6.27155 11.49 6.45018L9.99999 7.29018V4.00018H14ZM20 19.0002C20 19.5525 19.5523 20.0002 19 20.0002H4.99999C4.44771 20.0002 3.99999 19.5525 3.99999 19.0002V5.00018C3.99999 4.4479 4.44771 4.00018 4.99999 4.00018H7.99999V9.00018C8.00214 9.3553 8.19245 9.68263 8.49999 9.86018C8.80939 10.0388 9.19059 10.0388 9.49999 9.86018L12 8.47018L14.51 9.87018C14.6594 9.95489 14.8282 9.99966 15 10.0002C15.5523 10.0002 16 9.55247 16 9.00018V4.00018H19C19.5523 4.00018 20 4.4479 20 5.00018V19.0002Z" fill="#171E2B"/>
</svg>
