<svg width="24" height="24" viewBox="0 0 24 24" fill="none" xmlns="http://www.w3.org/2000/svg">
<path fill-rule="evenodd" clip-rule="evenodd" d="M12 6.00006H9C8.44772 6.00006 8 6.44777 8 7.00006V17.0001C8 17.5523 8.44772 18.0001 9 18.0001C9.55229 18.0001 10 17.5523 10 17.0001V14.0001H12C14.2091 14.0001 16 12.2092 16 10.0001C16 7.79092 14.2091 6.00006 12 6.00006ZM12 12.0001H10V8.00012H12C13.1046 8.00012 14 8.89555 14 10.0001C14 11.1047 13.1046 12.0001 12 12.0001ZM19 2.00012H5C3.34315 2.00012 2 3.34327 2 5.00012V19.0001C2 20.657 3.34315 22.0001 5 22.0001H19C20.6569 22.0001 22 20.657 22 19.0001V5.00012C22 3.34327 20.6569 2.00012 19 2.00012ZM20 19.0002C20 19.5525 19.5523 20.0002 19 20.0002H5.00001C4.44773 20.0002 4.00002 19.5525 4.00002 19.0002V5.00018C4.00002 4.4479 4.44773 4.00018 5.00001 4.00018H19C19.5523 4.00018 20 4.4479 20 5.00018V19.0002Z" fill="#171E2B"/>
</svg>
