<svg width="24" height="24" viewBox="0 0 24 24" fill="none" xmlns="http://www.w3.org/2000/svg">
<path fill-rule="evenodd" clip-rule="evenodd" d="M21 7.53988H16.46V2.99988C16.46 2.44759 16.0123 1.99988 15.46 1.99988H3.00002C2.44773 1.99988 2.00002 2.44759 2.00002 2.99988V15.4599C2.00002 16.0122 2.44773 16.4599 3.00002 16.4599H7.54002V20.9999C7.54002 21.5522 7.98773 21.9999 8.54002 21.9999H21C21.5523 21.9999 22 21.5522 22 20.9999V8.53988C22 7.98759 21.5523 7.53988 21 7.53988ZM20 19.9998H9.54003V15.4598C9.54003 14.9075 9.09231 14.4598 8.54003 14.4598H4.00003V3.99975H14.46V8.53975C14.46 9.09204 14.9077 9.53975 15.46 9.53975H20V19.9998Z" fill="#171E2B"/>
</svg>
