<svg width="24" height="24" viewBox="0 0 24 24" fill="none" xmlns="http://www.w3.org/2000/svg">
<path fill-rule="evenodd" clip-rule="evenodd" d="M4 14.4601C4 13.9078 3.55228 13.4601 3 13.4601C2.44772 13.4601 2 13.9078 2 14.4601V15.4601C2 16.0124 2.44772 16.4601 3 16.4601H4C4.55228 16.4601 5 16.0124 5 15.4601C5 14.9078 4.55228 14.4601 4 14.4601ZM8.18002 4.00012H10.28C10.8323 4.00012 11.28 3.55241 11.28 3.00012C11.28 2.44784 10.8323 2.00012 10.28 2.00012H8.18002C7.62773 2.00012 7.18002 2.44784 7.18002 3.00012C7.18002 3.55241 7.62773 4.00012 8.18002 4.00012ZM14.46 4.00012C14.46 4.55241 14.9077 5.00012 15.46 5.00012C16.0123 5.00012 16.46 4.55241 16.46 4.00012V3.00012C16.46 2.44784 16.0123 2.00012 15.46 2.00012H14.46C13.9077 2.00012 13.46 2.44784 13.46 3.00012C13.46 3.55241 13.9077 4.00012 14.46 4.00012ZM4 2.00012H3C2.44772 2.00012 2 2.44784 2 3.00012V4.00012C2 4.55241 2.44772 5.00012 3 5.00012C3.55228 5.00012 4 4.55241 4 4.00012C4.55228 4.00012 5 3.55241 5 3.00012C5 2.44784 4.55228 2.00012 4 2.00012ZM3 11.2802C3.55228 11.2802 4 10.8325 4 10.2802V8.18018C4 7.6279 3.55228 7.18018 3 7.18018C2.44772 7.18018 2 7.6279 2 8.18018V10.2802C2 10.8325 2.44772 11.2802 3 11.2802ZM15.82 20.0001H13.72C13.1677 20.0001 12.72 20.4478 12.72 21.0001C12.72 21.5524 13.1677 22.0001 13.72 22.0001H15.82C16.3723 22.0001 16.82 21.5524 16.82 21.0001C16.82 20.4478 16.3723 20.0001 15.82 20.0001ZM21 7.54019H20C19.4477 7.54019 19 7.9879 19 8.54019C19 9.09247 19.4477 9.54018 20 9.54018C20 10.0925 20.4477 10.5402 21 10.5402C21.5523 10.5402 22 10.0925 22 9.54018V8.54019C22 7.9879 21.5523 7.54019 21 7.54019ZM21 12.7201C20.4477 12.7201 20 13.1678 20 13.7201V15.8201C20 16.3724 20.4477 16.8201 21 16.8201C21.5523 16.8201 22 16.3724 22 15.8201V13.7201C22 13.1678 21.5523 12.7201 21 12.7201ZM16.46 7.54006C16.46 6.98777 16.0123 6.54006 15.46 6.54006C14.9077 6.54006 14.46 6.98777 14.46 7.54006H8.53998C7.9877 7.54006 7.53998 7.98777 7.53998 8.54006V14.4601C6.9877 14.4601 6.53998 14.9078 6.53998 15.4601C6.53998 16.0123 6.9877 16.4601 7.53998 16.4601C7.53998 17.0123 7.9877 17.4601 8.53998 17.4601C9.09227 17.4601 9.53998 17.0123 9.53998 16.4601H15.46C15.7252 16.4601 15.9796 16.3547 16.1671 16.1672C16.3546 15.9796 16.46 15.7253 16.46 15.4601V9.54006C17.0123 9.54006 17.46 9.09234 17.46 8.54006C17.46 7.98777 17.0123 7.54006 16.46 7.54006ZM14.46 14.4601H9.53998V9.54006H14.46V14.4601ZM21 19.0002C20.4477 19.0002 20 19.4479 20 20.0002C19.4477 20.0002 19 20.4479 19 21.0002C19 21.5525 19.4477 22.0002 20 22.0002H21C21.5523 22.0002 22 21.5525 22 21.0002V20.0002C22 19.4479 21.5523 19.0002 21 19.0002ZM9.54002 20.0002C9.54002 19.4479 9.0923 19.0002 8.54002 19.0002C7.98773 19.0002 7.54002 19.4479 7.54002 20.0002V21.0002C7.54002 21.5525 7.98773 22.0002 8.54002 22.0002H9.54002C10.0923 22.0002 10.54 21.5525 10.54 21.0002C10.54 20.4479 10.0923 20.0002 9.54002 20.0002Z" fill="#171E2B"/>
</svg>
