<svg width="24" height="24" viewBox="0 0 24 24" fill="none" xmlns="http://www.w3.org/2000/svg">
<path fill-rule="evenodd" clip-rule="evenodd" d="M16 1.99988C14.3432 1.99988 13 3.34302 13 4.99988V18.9999C13 20.6567 14.3432 21.9999 16 21.9999C17.6569 21.9999 19 20.6567 19 18.9999V4.99988C19 3.34302 17.6569 1.99988 16 1.99988ZM17 18.9998C17 19.552 16.5523 19.9998 16 19.9998C15.4477 19.9998 15 19.552 15 18.9998V4.99975C15 4.44747 15.4477 3.99975 16 3.99975C16.5523 3.99975 17 4.44747 17 4.99975V18.9998ZM8.00002 1.99988C6.34316 1.99988 5.00002 3.34302 5.00002 4.99988V18.9999C5.00002 20.6567 6.34316 21.9999 8.00002 21.9999C9.65687 21.9999 11 20.6567 11 18.9999V4.99988C11 3.34302 9.65687 1.99988 8.00002 1.99988ZM9.00003 18.9998C9.00003 19.552 8.55232 19.9998 8.00003 19.9998C7.44775 19.9998 7.00003 19.552 7.00003 18.9998V4.99975C7.00003 4.44747 7.44775 3.99975 8.00003 3.99975C8.55232 3.99975 9.00003 4.44747 9.00003 4.99975V18.9998Z" fill="#171E2B"/>
</svg>
