<svg width="24" height="24" viewBox="0 0 24 24" fill="none" xmlns="http://www.w3.org/2000/svg">
<path fill-rule="evenodd" clip-rule="evenodd" d="M22 7.23977C22.0016 6.97397 21.8972 6.71849 21.71 6.52977L17.47 2.28977C17.2813 2.10259 17.0258 1.99824 16.76 1.99977C16.4942 1.99824 16.2387 2.10259 16.05 2.28977L13.22 5.11977L2.29002 16.0498C2.10283 16.2385 1.99848 16.494 2.00002 16.7598V20.9998C2.00002 21.5521 2.44773 21.9998 3.00002 21.9998H7.24002C7.523 22.0152 7.79922 21.9098 8.00002 21.7098L18.87 10.7798L21.71 7.99977C21.8013 7.90285 21.8757 7.79131 21.93 7.66977C21.9396 7.59006 21.9396 7.50948 21.93 7.42977C21.9347 7.38322 21.9347 7.33632 21.93 7.28977L22 7.23977ZM6.83001 19.9997H4.00002V17.1697L13.93 7.2397L16.76 10.0697L6.83001 19.9997ZM18.17 8.6597L15.34 5.8297L16.76 4.4197L19.58 7.2397L18.17 8.6597Z" fill="#171E2B"/>
</svg>
