<svg width="90" height="90" viewBox="0 0 90 90" fill="none" xmlns="http://www.w3.org/2000/svg">
<path d="M79 26H11.8242L11 35.0606L38.2 52H50.9758L79 35.0606V26Z" fill="#F3CCD4"/>
<path d="M40.7226 54.0527L12.5593 35.052C11.8951 34.6039 11 35.0798 11 35.881V74C11 74.5523 11.4477 75 12 75H78C78.5523 75 79 74.5523 79 74V35.8032C79 35.018 78.1365 34.5391 77.4704 34.9549L49.8797 52.1798C49.7868 52.2377 49.685 52.2801 49.5784 52.3051L41.5102 54.1973C41.239 54.2609 40.9536 54.2085 40.7226 54.0527Z" fill="#F3CCD4"/>
<path fill-rule="evenodd" clip-rule="evenodd" d="M25.25 15.25V25H22.75V15C22.75 13.7574 23.7574 12.75 25 12.75H65C66.2426 12.75 67.25 13.7574 67.25 15V25H64.75V15.25H25.25Z" fill="#C1002A"/>
<path fill-rule="evenodd" clip-rule="evenodd" d="M77 26.5H13C12.7239 26.5 12.5 26.7239 12.5 27V74C12.5 74.2761 12.7239 74.5 13 74.5H77C77.2761 74.5 77.5 74.2761 77.5 74V27C77.5 26.7239 77.2761 26.5 77 26.5ZM13 24C11.3431 24 10 25.3431 10 27V74C10 75.6569 11.3431 77 13 77H77C78.6569 77 80 75.6569 80 74V27C80 25.3431 78.6569 24 77 24H13Z" fill="#C1002A"/>
<path d="M10 73C10 71.3431 11.3431 70 13 70H77C78.6569 70 80 71.3431 80 73V74C80 75.6569 78.6569 77 77 77H13C11.3431 77 10 75.6569 10 74V73Z" fill="#C1002A"/>
<path fill-rule="evenodd" clip-rule="evenodd" d="M10.3243 35.0517L11.6756 32.9483L42.4994 52.75H47.5005L78.3243 32.9483L79.6756 35.0517L48.2343 55.25H41.7656L10.3243 35.0517Z" fill="#C1002A"/>
<path d="M38 45C38 44.4477 38.4477 44 39 44H51C51.5523 44 52 44.4477 52 45V55C52 55.5523 51.5523 56 51 56H39C38.4477 56 38 55.5523 38 55V45Z" fill="white"/>
<path fill-rule="evenodd" clip-rule="evenodd" d="M40.5 46.5V53.5H49.5V46.5H40.5ZM39 44C38.4477 44 38 44.4477 38 45V55C38 55.5523 38.4477 56 39 56H51C51.5523 56 52 55.5523 52 55V45C52 44.4477 51.5523 44 51 44H39Z" fill="#C1002A"/>
</svg>
