<svg width="24" height="24" viewBox="0 0 24 24" fill="none" xmlns="http://www.w3.org/2000/svg">
<path fill-rule="evenodd" clip-rule="evenodd" d="M19.85 5.55983L21.64 3.76983C21.9254 3.52544 22.0497 3.14171 21.9618 2.77641C21.8739 2.41111 21.5887 2.12589 21.2234 2.03802C20.8581 1.95015 20.4744 2.07445 20.23 2.35983L18.44 4.14983L16.64 2.35983C16.2432 2.02005 15.6518 2.0429 15.2824 2.41227C14.9131 2.78164 14.8902 3.37307 15.23 3.76983L17 5.55983L15.21 7.35983C14.8223 7.74987 14.8223 8.37979 15.21 8.76983C15.6 9.15756 16.23 9.15756 16.62 8.76983L18.44 6.99983L20.23 8.78983C20.62 9.17756 21.2499 9.17756 21.64 8.78983C22.0277 8.39979 22.0277 7.76987 21.64 7.37983L19.85 5.55983ZM19.44 12.9997C19.22 12.9997 18.99 12.9297 18.77 12.8797C18.3245 12.7815 17.8867 12.6512 17.46 12.4897C16.4992 12.1402 15.4296 12.5715 14.98 13.4897L14.76 13.9397C13.786 13.3979 12.891 12.7249 12.1 11.9397C11.3148 11.1487 10.6418 10.2537 10.1 9.27969L10.52 8.99969C11.4382 8.55012 11.8695 7.48044 11.52 6.51969C11.3612 6.09212 11.2309 5.65449 11.13 5.20969C11.08 4.98969 11.04 4.75969 11.01 4.52969C10.7591 3.07447 9.48654 2.01823 8.01 2.03969H5.01C4.13794 2.03151 3.30548 2.4032 2.72943 3.05798C2.15338 3.71275 1.89077 4.58578 2.01 5.44969C3.10593 14.068 9.90781 20.8451 18.53 21.9097H18.91C19.6474 21.9108 20.3594 21.6402 20.91 21.1497C21.5499 20.5773 21.914 19.7582 21.91 18.8997V15.8997C21.8847 14.4673 20.8502 13.2526 19.44 12.9997ZM19.94 18.9997C19.9396 19.2869 19.8158 19.5601 19.6 19.7497C19.3741 19.9447 19.0763 20.0355 18.78 19.9997C11.076 19.0119 5.02121 12.9282 4.06999 5.21967C4.03783 4.92366 4.12816 4.62739 4.31999 4.39967C4.50956 4.18389 4.78277 4.06003 5.06999 4.05967H8.06999C8.54968 4.049 8.96935 4.38053 9.06999 4.84967C9.10999 5.123 9.15999 5.393 9.21999 5.65967C9.33551 6.18681 9.48925 6.70485 9.67999 7.20967L8.27999 7.85967C8.03823 7.9706 7.85062 8.17327 7.75866 8.42287C7.66671 8.67246 7.67798 8.94841 7.78999 9.18967C9.22919 12.2724 11.7072 14.7505 14.79 16.1897C15.0335 16.2897 15.3065 16.2897 15.55 16.1897C15.8019 16.0996 16.0072 15.9123 16.12 15.6697L16.74 14.2697C17.257 14.4545 17.7846 14.6082 18.32 14.7297C18.5867 14.7897 18.8567 14.8397 19.13 14.8797C19.5991 14.9803 19.9307 15.4 19.92 15.8797L19.94 18.9997Z" fill="#171E2B"/>
</svg>
