<svg width="24" height="24" viewBox="0 0 24 24" fill="none" xmlns="http://www.w3.org/2000/svg">
<path fill-rule="evenodd" clip-rule="evenodd" d="M19.41 12.9999C19.19 12.9999 18.96 12.9298 18.74 12.8798C18.2948 12.7803 17.8571 12.65 17.43 12.4899C16.4692 12.1403 15.3996 12.5717 14.95 13.4899L14.73 13.9498C13.7588 13.3991 12.8616 12.727 12.06 11.9499C11.2828 11.1482 10.6108 10.251 10.06 9.27985L10.52 9.06985C11.4382 8.62028 11.8695 7.5506 11.52 6.58985C11.3612 6.15888 11.2309 5.71793 11.13 5.26985C11.08 5.04985 11.04 4.81985 11.01 4.59985C10.7591 3.14462 9.48653 2.08838 8.00999 2.10985H4.99999C4.14494 2.10873 3.33003 2.47253 2.75999 3.10985C2.17781 3.76483 1.91112 4.64163 2.02999 5.50985C2.57358 9.67199 4.4752 13.5385 7.43999 16.5098C10.4113 19.4746 14.2779 21.3763 18.44 21.9199C18.5698 21.9298 18.7002 21.9298 18.83 21.9199C19.5674 21.9209 20.2794 21.6504 20.83 21.1599C21.4673 20.5898 21.8311 19.7749 21.83 18.9199V15.9199C21.8189 14.4954 20.8076 13.2752 19.41 12.9999ZM19.9 19C19.8993 19.2822 19.7795 19.551 19.57 19.74C19.3481 19.9422 19.047 20.034 18.75 19.99C15.0183 19.5027 11.5503 17.802 8.88001 15.15C6.20748 12.4775 4.49204 8.9974 4.00001 5.25003C3.95602 4.95303 4.04781 4.65198 4.25001 4.43003C4.4414 4.21796 4.71435 4.09786 5.00001 4.10003H8.00001C8.47667 4.08838 8.89526 4.41488 9.00001 4.88003C9.00001 5.15003 9.09001 5.43003 9.15001 5.70003C9.26559 6.2239 9.41933 6.7386 9.61001 7.24003L8.21001 7.90003C7.96938 8.0105 7.78237 8.21189 7.69001 8.46003C7.58999 8.7035 7.58999 8.97657 7.69001 9.22003C9.12921 12.3028 11.6073 14.7808 14.69 16.22C14.9335 16.3201 15.2066 16.3201 15.45 16.22C15.6982 16.1277 15.8995 15.9407 16.01 15.7L16.64 14.3C17.1559 14.4882 17.6837 14.6418 18.22 14.76C18.48 14.82 18.76 14.87 19.03 14.91C19.4952 15.0148 19.8217 15.4334 19.81 15.91L19.9 19ZM14 1.99988C13.77 1.99988 13.53 1.99988 13.3 1.99988C12.7477 2.04682 12.338 2.53259 12.385 3.08488C12.4319 3.63716 12.9177 4.04682 13.47 3.99988H14C17.3137 3.99988 20 6.68617 20 9.99988C20 10.1799 20 10.3499 20 10.5299C19.9538 11.0792 20.3608 11.5622 20.91 11.6099H20.99C21.5089 11.612 21.9433 11.2167 21.99 10.6999C21.99 10.4699 21.99 10.2299 21.99 9.99988C21.99 5.5855 18.4143 2.0054 14 1.99988ZM16 10C16 10.5523 16.4477 11 17 11C17.5523 11 18 10.5523 18 10C18 7.79086 16.2091 6 14 6C13.4477 6 13 6.44772 13 7C13 7.55229 13.4477 8 14 8C15.1046 8 16 8.89543 16 10Z" fill="#171E2B"/>
</svg>
