<svg width="24" height="24" viewBox="0 0 24 24" fill="none" xmlns="http://www.w3.org/2000/svg">
<path fill-rule="evenodd" clip-rule="evenodd" d="M4.90998 13.1C5.09309 13.393 5.41448 13.5707 5.75998 13.57C6.13718 13.5808 6.48835 13.3783 6.66801 13.0465C6.84767 12.7147 6.82523 12.3099 6.60998 12C5.30155 9.92186 4.45889 7.58493 4.13998 5.14999C4.0964 4.8578 4.18426 4.56129 4.37998 4.33999C4.56955 4.12421 4.84275 4.00036 5.12998 3.99999H8.12998C8.61274 3.99026 9.0335 4.32687 9.12998 4.79999C9.12998 5.02999 9.20998 5.23999 9.25998 5.46999V5.59999C9.37634 6.12477 9.53348 6.63967 9.72998 7.13999L8.33998 7.79999C8.09737 7.91278 7.91008 8.11808 7.81998 8.36999C7.7172 8.61637 7.7172 8.89361 7.81998 9.13999C7.91998 9.34999 8.01998 9.55999 8.13998 9.77999C8.27193 10.0114 8.49078 10.1807 8.74797 10.2501C9.00517 10.3196 9.27945 10.2835 9.50998 10.15C9.84346 9.9588 10.0378 9.59338 10.01 9.20999L10.58 8.99999C11.5175 8.56814 11.9724 7.49376 11.63 6.51999C11.4685 6.09674 11.3381 5.66225 11.24 5.21999V5.11999C11.24 4.91999 11.16 4.71999 11.13 4.53999C10.9028 3.07619 9.6413 1.99729 8.15998 1.99999H5.15998C4.29101 1.98735 3.45926 2.35215 2.87998 2.99999C2.30421 3.65426 2.04142 4.52656 2.15998 5.38999C2.50713 8.1289 3.44546 10.7596 4.90998 13.1ZM19.52 12.89L18.92 12.78H18.84C18.3876 12.6833 17.943 12.5529 17.51 12.39C16.5522 12.0465 15.489 12.4769 15.04 13.39L14.83 13.85C14.1479 13.4555 13.505 12.9967 12.91 12.48L21.71 3.69004C22.1021 3.29792 22.1021 2.66217 21.71 2.27004C21.3179 1.87792 20.6821 1.87792 20.29 2.27004L2.29 20.27C2.10069 20.4578 1.9942 20.7134 1.9942 20.98C1.9942 21.2467 2.10069 21.5023 2.29 21.69C2.47777 21.8794 2.73336 21.9858 3 21.9858C3.26664 21.9858 3.52223 21.8794 3.71 21.69L8.3 17.09C11.1726 19.6713 14.7605 21.3205 18.59 21.82C18.7231 21.83 18.8569 21.83 18.99 21.82C19.7261 21.8239 20.4379 21.5569 20.99 21.07C21.6299 20.4977 21.994 19.6786 21.99 18.82V15.82C21.979 14.3762 20.9411 13.1451 19.52 12.89ZM20 18.8901C19.9996 19.1774 19.8758 19.4506 19.66 19.6401C19.4387 19.8359 19.1422 19.9237 18.85 19.8801C15.4529 19.4356 12.2681 17.9791 9.70999 15.7001L11.48 13.9301C12.4995 14.8189 13.637 15.5626 14.86 16.1401C15.1064 16.2429 15.3836 16.2429 15.63 16.1401C15.8819 16.05 16.0872 15.8627 16.2 15.6201L16.82 14.2101C17.3418 14.4037 17.8764 14.5608 18.42 14.6801H18.53L19.22 14.8101C19.6851 14.9149 20.0116 15.3335 20 15.8101V18.8901Z" fill="#171E2B"/>
</svg>
