<svg width="24" height="24" viewBox="0 0 24 24" fill="none" xmlns="http://www.w3.org/2000/svg">
<path fill-rule="evenodd" clip-rule="evenodd" d="M20 3.99983C20.4019 3.99817 20.7637 3.75607 20.9186 3.38522C21.0735 3.01437 20.9913 2.58683 20.71 2.29983C20.5222 2.11051 20.2666 2.00403 20 2.00403C19.7333 2.00403 19.4778 2.11051 19.29 2.29983C19.2 2.39198 19.1287 2.50063 19.08 2.61983C19.024 2.73851 18.9966 2.86865 19 2.99983C19 3.55211 19.4477 3.99983 20 3.99983ZM20 12.9998C19.4477 12.9998 19 13.4475 19 13.9998V14.3898L17.52 12.9098C17 12.3864 16.2927 12.0921 15.555 12.0921C14.8173 12.0921 14.11 12.3864 13.59 12.9098L12.89 13.6098L10.41 11.1198C9.30744 10.0772 7.58256 10.0772 6.48 11.1198L5 12.5998V6.99976C5 6.44747 5.44772 5.99976 6 5.99976H16C16.5523 5.99976 17 5.55204 17 4.99976C17 4.44747 16.5523 3.99976 16 3.99976H6C4.34315 3.99976 3 5.3429 3 6.99976V18.9998C3 20.6566 4.34315 21.9998 6 21.9998H18C19.6569 21.9998 21 20.6566 21 18.9998V13.9998C21 13.4475 20.5523 12.9998 20 12.9998ZM6.00002 19.9998C5.44773 19.9998 5.00002 19.5521 5.00002 18.9998V15.4298L7.90001 12.5298C8.20516 12.2391 8.68486 12.2391 8.99001 12.5298L12.16 15.6998L16.45 19.9998H6.00002ZM19 18.9997C18.9917 19.1899 18.9292 19.3738 18.82 19.5297L14.31 14.9997L15.01 14.2997C15.3143 13.9972 15.8057 13.9972 16.11 14.2997L19 17.2197V18.9997ZM20 4.99988C19.4477 4.99988 19 5.4476 19 5.99988V9.99988C19 10.5522 19.4477 10.9999 20 10.9999C20.5523 10.9999 21 10.5522 21 9.99988V5.99988C21 5.4476 20.5523 4.99988 20 4.99988Z" fill="#171E2B"/>
</svg>
