<svg width="24" height="24" viewBox="0 0 24 24" fill="none" xmlns="http://www.w3.org/2000/svg">
<path fill-rule="evenodd" clip-rule="evenodd" d="M21.75 12.0001C21.7488 11.6235 21.5363 11.2795 21.2 11.1101L15.08 8.05009V4.05009C15.08 2.34906 13.701 0.970093 12 0.970093C10.2989 0.970093 8.91997 2.34906 8.91997 4.05009V8.05009L2.79997 11.1101C2.46369 11.2795 2.25112 11.6235 2.24997 12.0001V15.3301C2.24722 15.6608 2.40819 15.9716 2.67997 16.1601C2.95013 16.3452 3.2938 16.3863 3.59997 16.2701L8.91997 14.2701V18.0001L7.09997 18.6001C6.69266 18.7377 6.41886 19.1202 6.41997 19.5501V22.0001C6.42108 22.2673 6.52912 22.523 6.71997 22.7101C6.90623 22.8948 7.15763 22.999 7.41997 23.0001H16.59C17.1423 23.0001 17.59 22.5524 17.59 22.0001V19.5001C17.5911 19.0702 17.3173 18.6877 16.91 18.5501L15.08 18.0001V14.2801L20.4 16.2801C20.7062 16.3963 21.0498 16.3552 21.32 16.1701C21.5918 15.9816 21.7527 15.6708 21.75 15.3401V12.0001ZM14.44 11.9C14.1309 11.7802 13.7826 11.8214 13.51 12.01C13.2411 12.1965 13.0805 12.5027 13.08 12.83V18.67C13.0803 19.1025 13.3587 19.4859 13.77 19.62L15.58 20.22V21H8.40998V20.22L10.22 19.62C10.6312 19.4859 10.9097 19.1025 10.91 18.67V12.83C10.9094 12.5027 10.7488 12.1965 10.48 12.01C10.2074 11.8214 9.85905 11.7802 9.54998 11.9L4.23998 13.9V12.62L10.35 9.55997C10.6901 9.39331 10.9069 9.04875 10.91 8.66997V4.07997C10.91 3.4835 11.3935 2.99997 11.99 2.99997C12.5864 2.99997 13.07 3.4835 13.07 4.07997V8.66997C13.073 9.04875 13.2898 9.39331 13.63 9.55997L19.74 12.62V13.89L14.44 11.9Z" fill="#171E2B"/>
</svg>
