<svg width="24" height="24" viewBox="0 0 24 24" fill="none" xmlns="http://www.w3.org/2000/svg">
<path fill-rule="evenodd" clip-rule="evenodd" d="M22 5.07992C22.0017 3.83287 21.2513 2.70784 20.0992 2.23038C18.9472 1.75292 17.6209 2.01726 16.74 2.89992L13.93 5.70992L7.44 3.54992C7.08792 3.43926 6.70351 3.53152 6.44 3.78992L4.06 6.14992C3.83115 6.38143 3.7293 6.70984 3.78701 7.03021C3.84472 7.35059 4.05475 7.62282 4.35 7.75992L9.53 10.1099L6.93 12.7099L5.22 11.8499C4.84136 11.645 4.37406 11.7054 4.06 11.9999L2.29 13.8099C1.90228 14.2 1.90228 14.8299 2.29 15.2199L8.78 21.7099C9.17004 22.0976 9.79996 22.0976 10.19 21.7099L12 19.9399C12.3079 19.6352 12.3846 19.1669 12.19 18.7799L11.33 17.0699L13.93 14.4699L16.28 19.6499C16.4171 19.9452 16.6893 20.1552 17.0097 20.2129C17.3301 20.2706 17.6585 20.1688 17.89 19.9399L20.25 17.5799C20.5084 17.3164 20.6007 16.932 20.49 16.5799L18.33 10.0899L21.1 7.25992C21.6802 6.68334 22.0045 5.89787 22 5.07992ZM19.68 5.85008L16.44 9.09008C16.1816 9.35359 16.0893 9.738 16.2 10.0901L18.36 16.5701L17.46 17.4701L15.11 12.3001C14.9746 12.0021 14.702 11.7892 14.38 11.7301C14.0553 11.6708 13.7223 11.7756 13.49 12.0101L9.37 16.1701C9.06672 16.4731 8.99029 16.9356 9.18 17.3201L10 19.0001L9.44 19.5601L4.41 14.5201L5 14.0001L6.71 14.8601C7.09443 15.0498 7.55702 14.9734 7.86 14.6701L12 10.5101C12.2332 10.2787 12.3379 9.94742 12.28 9.624C12.2221 9.30057 12.009 9.02622 11.71 8.89008L6.5 6.54008L7.4 5.64008L13.88 7.80008C14.2321 7.91074 14.6165 7.81848 14.88 7.56008L18.12 4.32008C18.3213 4.11423 18.5971 3.99819 18.885 3.99819C19.1729 3.99819 19.4487 4.11423 19.65 4.32008C19.861 4.51559 19.9776 4.79251 19.97 5.08008C19.981 5.36532 19.8764 5.64293 19.68 5.85008Z" fill="#171E2B"/>
</svg>
