<svg width="24" height="24" viewBox="0 0 24 24" fill="none" xmlns="http://www.w3.org/2000/svg">
<path fill-rule="evenodd" clip-rule="evenodd" d="M21.12 16.23C20.7755 14.9676 19.9497 13.8905 18.82 13.23L16.71 12L16.23 6.53001C16.2033 6.20578 16.0205 5.91482 15.74 5.75001L12.74 4.03001C12.4306 3.85137 12.0494 3.85137 11.74 4.03001C11.4308 4.19886 11.2333 4.51796 11.22 4.87001L11.07 8.77001L9.32 7.77001L6.46 3.92001C6.22241 3.60478 5.82162 3.45881 5.43695 3.54741C5.05229 3.63601 4.75574 3.94261 4.68 4.33001L3.81 8.94001C3.49894 10.2231 4.06322 11.5587 5.2 12.23L19.26 20.34C19.7302 20.6166 20.3353 20.4653 20.62 20C21.2863 18.8615 21.4665 17.5028 21.12 16.23ZM19.24 18.0001L6.2 10.5001C5.81563 10.2655 5.6355 9.80288 5.76 9.37011L6.22 6.93011L7.88 9.13011C7.96061 9.23956 8.06269 9.33143 8.18 9.40011L11.53 11.3401C11.8339 11.5158 12.2076 11.5194 12.5148 11.3494C12.8219 11.1795 13.0175 10.8609 13.03 10.5101L13.19 6.61011L14.28 7.24011L14.76 12.7101C14.7889 13.0363 14.9757 13.3277 15.26 13.4901L17.82 15.0001C18.4927 15.3882 18.9824 16.0291 19.18 16.7801C19.2915 17.1771 19.3121 17.5941 19.24 18.0001Z" fill="#171E2B"/>
</svg>
