<svg width="24" height="24" viewBox="0 0 24 24" fill="none" xmlns="http://www.w3.org/2000/svg">
<path fill-rule="evenodd" clip-rule="evenodd" d="M23 9.31992C23.0626 9.06299 23.027 8.79191 22.9 8.55992C22.2454 7.42413 21.1655 6.5958 19.8988 6.25803C18.6322 5.92026 17.2832 6.10087 16.15 6.75992L14 7.99992L9 5.64992C8.71154 5.50048 8.36846 5.50048 8.08 5.64992L5.08 7.37992C4.77851 7.55383 4.58913 7.87199 4.58 8.21992C4.57015 8.57053 4.7447 8.90066 5.04 9.08992L8.34 11.1699L6.6 12.1699L1.82 12.7499C1.42741 12.7985 1.10035 13.0739 0.985688 13.4525C0.871028 13.8311 0.990321 14.2417 1.29 14.4999L4.83 17.5599C5.78692 18.4732 7.22907 18.6519 8.38 17.9999L22.5 9.92992C22.7432 9.80368 22.9239 9.58317 23 9.31992ZM7.47 16.3201C7.07514 16.5373 6.58373 16.4636 6.27 16.1401L4.37 14.5101L7.1 14.1801C7.23415 14.1629 7.36343 14.1187 7.48 14.0501L10.84 12.1201C11.1445 11.9443 11.3343 11.6216 11.34 11.2701C11.3442 10.921 11.166 10.5951 10.87 10.4101L7.57 8.32008L8.67 7.69008L13.67 10.0101C13.9585 10.1595 14.3015 10.1595 14.59 10.0101L17.15 8.53008C18.2235 7.92849 19.5555 8.04345 20.51 8.82008L7.47 16.3201Z" fill="#171E2B"/>
</svg>
