<svg width="24" height="24" viewBox="0 0 24 24" fill="none" xmlns="http://www.w3.org/2000/svg">
<path fill-rule="evenodd" clip-rule="evenodd" d="M16 10.2698L11 7.37981C10.3815 7.02273 9.61955 7.02253 9.00089 7.3793C8.38222 7.73606 8.00073 8.39565 8 9.10981V14.8898C8.00073 15.6036 8.38183 16.2629 9 16.6198C9.6188 16.9771 10.3812 16.9771 11 16.6198L16 13.7298C16.6168 13.372 16.9965 12.7129 16.9965 11.9998C16.9965 11.2867 16.6168 10.6276 16 10.2698ZM15 11.9999L9.99999 14.8899V9.10988L15 11.9999ZM12 1.99988C6.47715 1.99988 2 6.47703 2 11.9999C2 17.5227 6.47715 21.9999 12 21.9999C17.5228 21.9999 22 17.5227 22 11.9999C22 9.34771 20.9464 6.80417 19.0711 4.92881C17.1957 3.05345 14.6522 1.99988 12 1.99988ZM12 19.9998C7.58171 19.9998 3.99999 16.418 3.99999 11.9998C3.99999 7.58148 7.58171 3.99975 12 3.99975C16.4183 3.99975 20 7.58148 20 11.9998C20 14.1215 19.1571 16.1563 17.6568 17.6566C16.1566 19.1569 14.1217 19.9998 12 19.9998Z" fill="#171E2B"/>
</svg>
