<svg width="24" height="24" viewBox="0 0 24 24" fill="none" xmlns="http://www.w3.org/2000/svg">
<path fill-rule="evenodd" clip-rule="evenodd" d="M19 5.99988H16V2.99988C16 2.44759 15.5523 1.99988 15 1.99988C14.4477 1.99988 14 2.44759 14 2.99988V5.99988H10V2.99988C10 2.44759 9.55228 1.99988 9 1.99988C8.44772 1.99988 8 2.44759 8 2.99988V5.99988H5C4.44772 5.99988 4 6.44759 4 6.99988C4 7.55216 4.44772 7.99988 5 7.99988H6V12.9999C5.99846 13.2657 6.10281 13.5212 6.29 13.7099L9 16.4099V20.9999C9 21.5522 9.44772 21.9999 10 21.9999C10.5523 21.9999 11 21.5522 11 20.9999V16.9999H13V20.9999C13 21.5522 13.4477 21.9999 14 21.9999C14.5523 21.9999 15 21.5522 15 20.9999V16.4099L17.71 13.7099C17.8972 13.5212 18.0015 13.2657 18 12.9999V7.99988H19C19.5523 7.99988 20 7.55216 20 6.99988C20 6.44759 19.5523 5.99988 19 5.99988ZM16 12.5899L13.59 14.9999H10.41L7.99998 12.5899V7.99988H16V12.5899ZM11 12.9999H13C13.5523 12.9999 14 12.5522 14 11.9999C14 11.4476 13.5523 10.9999 13 10.9999H11C10.4477 10.9999 10 11.4476 10 11.9999C10 12.5522 10.4477 12.9999 11 12.9999Z" fill="#171E2B"/>
</svg>
