<svg width="24" height="24" viewBox="0 0 24 24" fill="none" xmlns="http://www.w3.org/2000/svg">
<path fill-rule="evenodd" clip-rule="evenodd" d="M12 1.99988C6.47717 1.99988 2.00002 6.47703 2.00002 11.9999C2.00002 17.5227 6.47717 21.9999 12 21.9999C17.5229 21.9999 22 17.5227 22 11.9999C22 9.34771 20.9464 6.80417 19.0711 4.92881C17.1957 3.05345 14.6522 1.99988 12 1.99988ZM12 19.9998C7.58175 19.9998 4.00003 16.418 4.00003 11.9998C4.00003 7.58148 7.58175 3.99975 12 3.99975C16.4183 3.99975 20 7.58148 20 11.9998C20 14.1215 19.1572 16.1563 17.6569 17.6566C16.1566 19.1569 14.1218 19.9998 12 19.9998ZM16 10.9998H13V7.99975C13 7.44747 12.5523 6.99975 12 6.99975C11.4477 6.99975 11 7.44747 11 7.99975V10.9998H8.00003C7.44775 10.9998 7.00003 11.4475 7.00003 11.9998C7.00003 12.552 7.44775 12.9998 8.00003 12.9998H11V15.9998C11 16.552 11.4477 16.9998 12 16.9998C12.5523 16.9998 13 16.552 13 15.9998V12.9998H16C16.5523 12.9998 17 12.552 17 11.9998C17 11.4475 16.5523 10.9998 16 10.9998Z" fill="#171E2B"/>
</svg>
