<svg width="24" height="24" viewBox="0 0 24 24" fill="none" xmlns="http://www.w3.org/2000/svg">
<path fill-rule="evenodd" clip-rule="evenodd" d="M19 11.0001H13V5.00012C13 4.44784 12.5523 4.00012 12 4.00012C11.4477 4.00012 11 4.44784 11 5.00012V11.0001H5C4.44772 11.0001 4 11.4478 4 12.0001C4 12.5524 4.44772 13.0001 5 13.0001H11V19.0001C11 19.5524 11.4477 20.0001 12 20.0001C12.5523 20.0001 13 19.5524 13 19.0001V13.0001H19C19.5523 13.0001 20 12.5524 20 12.0001C20 11.4478 19.5523 11.0001 19 11.0001Z" fill="#171E2B"/>
</svg>
