<svg width="24" height="24" viewBox="0 0 24 24" fill="none" xmlns="http://www.w3.org/2000/svg">
<path fill-rule="evenodd" clip-rule="evenodd" d="M9.00002 12.9999H11V14.9999C11 15.5522 11.4477 15.9999 12 15.9999C12.5523 15.9999 13 15.5522 13 14.9999V12.9999H15C15.5523 12.9999 16 12.5522 16 11.9999C16 11.4476 15.5523 10.9999 15 10.9999H13V8.99988C13 8.44759 12.5523 7.99988 12 7.99988C11.4477 7.99988 11 8.44759 11 8.99988V10.9999H9.00002C8.44773 10.9999 8.00002 11.4476 8.00002 11.9999C8.00002 12.5522 8.44773 12.9999 9.00002 12.9999ZM21 1.99988H3.00002C2.44773 1.99988 2.00002 2.44759 2.00002 2.99988V20.9999C2.00002 21.5522 2.44773 21.9999 3.00002 21.9999H21C21.5523 21.9999 22 21.5522 22 20.9999V2.99988C22 2.44759 21.5523 1.99988 21 1.99988ZM20 19.9998H4.00003V3.99975H20V19.9998Z" fill="#171E2B"/>
</svg>
