<svg width="24" height="24" viewBox="0 0 24 24" fill="none" xmlns="http://www.w3.org/2000/svg">
<path fill-rule="evenodd" clip-rule="evenodd" d="M19.79 7.13012C19.5992 6.88863 19.3078 6.74846 19 6.75012H7.99999V6.25012C8.00255 5.35565 8.59873 4.57163 9.45999 4.33012C9.72927 4.58995 10.0859 4.73975 10.46 4.75012H11.46C12.2884 4.75012 12.96 4.07855 12.96 3.25012C12.96 2.42169 12.2884 1.75012 11.46 1.75012H10.46C10.0032 1.75075 9.57201 1.96084 9.28999 2.32012C7.38786 2.6632 6.00313 4.3173 5.99999 6.25012V6.75012H4.99999C4.69221 6.74846 4.40082 6.88863 4.20999 7.13012C4.00689 7.37087 3.92907 7.69323 3.99999 8.00012L4.61999 10.4901C4.92271 11.6629 5.90097 12.5386 7.09999 12.7101L7.87999 19.7101H6.99999C6.44771 19.7101 5.99999 20.1578 5.99999 20.7101C5.99999 21.2624 6.44771 21.7101 6.99999 21.7101H17C17.5523 21.7101 18 21.2624 18 20.7101C18 20.1578 17.5523 19.7101 17 19.7101H16.12L16.9 12.7101C18.0903 12.526 19.055 11.6479 19.35 10.4801L20 8.00012C20.0709 7.69323 19.9931 7.37087 19.79 7.13012ZM14.1 19.75H9.9L9.12 12.75H14.88L14.1 19.75ZM17.41 10.0002C17.2972 10.4574 16.8807 10.774 16.41 10.7602H7.55998C7.08929 10.774 6.6728 10.4574 6.55998 10.0002L6.27998 8.75024H17.72L17.41 10.0002Z" fill="#171E2B"/>
</svg>
