<svg width="24" height="24" viewBox="0 0 24 24" fill="none" xmlns="http://www.w3.org/2000/svg">
<path fill-rule="evenodd" clip-rule="evenodd" d="M21.87 11.5L17.37 3.70997C17.1907 3.39933 16.8587 3.20854 16.5 3.20997H7.50001C7.14132 3.20854 6.80935 3.39933 6.63001 3.70997L2.13001 11.5C1.95137 11.8094 1.95137 12.1906 2.13001 12.5L6.63001 20.29C6.80935 20.6006 7.14132 20.7914 7.50001 20.79H16.5C16.8587 20.7914 17.1907 20.6006 17.37 20.29L21.87 12.5C22.0486 12.1906 22.0486 11.8094 21.87 11.5ZM15.87 18.7899H8.08002L4.15002 11.9999L8.08002 5.20987H15.92L19.85 11.9999L15.87 18.7899Z" fill="#171E2B"/>
</svg>
