<svg width="24" height="24" viewBox="0 0 24 24" fill="none" xmlns="http://www.w3.org/2000/svg">
<path fill-rule="evenodd" clip-rule="evenodd" d="M17 11.0002H18C18.5523 11.0002 19 10.5525 19 10.0002V9.00025C19 8.44796 18.5523 8.00025 18 8.00025H17C16.4477 8.00025 16 8.44796 16 9.00025V10.0002C16 10.5525 16.4477 11.0002 17 11.0002ZM6 12.0001H11C11.5523 12.0001 12 11.5524 12 11.0001C12 10.4478 11.5523 10.0001 11 10.0001H6C5.44771 10.0001 5 10.4478 5 11.0001C5 11.5524 5.44771 12.0001 6 12.0001ZM22 4.00012H2C1.44772 4.00012 1 4.44784 1 5.00012V19.0001C1 19.5524 1.44772 20.0001 2 20.0001H22C22.5523 20.0001 23 19.5524 23 19.0001V5.00012C23 4.44784 22.5523 4.00012 22 4.00012ZM21 18H3V6H21V18ZM6 16.0002H11C11.5523 16.0002 12 15.5525 12 15.0002C12 14.448 11.5523 14.0002 11 14.0002H6C5.44771 14.0002 5 14.448 5 15.0002C5 15.5525 5.44771 16.0002 6 16.0002Z" fill="#171E2B"/>
</svg>
