<svg width="24" height="24" viewBox="0 0 24 24" fill="none" xmlns="http://www.w3.org/2000/svg">
<path fill-rule="evenodd" clip-rule="evenodd" d="M22.5 5.49988C23.0523 5.49988 23.5 5.05216 23.5 4.49988V1.49988C23.5 0.947593 23.0523 0.499878 22.5 0.499878H19.5C18.9477 0.499878 18.5 0.947593 18.5 1.49988C18.5 1.77602 18.2761 1.99988 18 1.99988C17.7239 1.99988 17.5 1.77602 17.5 1.49988C17.5 0.947593 17.0523 0.499878 16.5 0.499878H13.5C12.9477 0.499878 12.5 0.947593 12.5 1.49988C12.5 1.77602 12.2761 1.99988 12 1.99988C11.7239 1.99988 11.5 1.77602 11.5 1.49988C11.5 0.947593 11.0523 0.499878 10.5 0.499878H7.5C6.94772 0.499878 6.5 0.947593 6.5 1.49988C6.5 1.77602 6.27614 1.99988 6 1.99988C5.72386 1.99988 5.5 1.77602 5.5 1.49988C5.5 0.947593 5.05228 0.499878 4.5 0.499878H1.5C0.947715 0.499878 0.5 0.947593 0.5 1.49988V4.49988C0.5 5.05216 0.947715 5.49988 1.5 5.49988C1.77614 5.49988 2 5.72374 2 5.99988C2 6.27602 1.77614 6.49988 1.5 6.49988C0.947715 6.49988 0.5 6.94759 0.5 7.49988V10.4999C0.5 11.0522 0.947715 11.4999 1.5 11.4999C1.77614 11.4999 2 11.7237 2 11.9999C2 12.276 1.77614 12.4999 1.5 12.4999C0.947715 12.4999 0.5 12.9476 0.5 13.4999V16.4999C0.5 17.0522 0.947715 17.4999 1.5 17.4999C1.77614 17.4999 2 17.7237 2 17.9999C2 18.276 1.77614 18.4999 1.5 18.4999C0.947715 18.4999 0.5 18.9476 0.5 19.4999V22.4999C0.5 23.0522 0.947715 23.4999 1.5 23.4999H4.5C5.05228 23.4999 5.5 23.0522 5.5 22.4999C5.5 22.2237 5.72386 21.9999 6 21.9999C6.27614 21.9999 6.5 22.2237 6.5 22.4999C6.5 23.0522 6.94772 23.4999 7.5 23.4999H10.5C11.0523 23.4999 11.5 23.0522 11.5 22.4999C11.5 22.2237 11.7239 21.9999 12 21.9999C12.2761 21.9999 12.5 22.2237 12.5 22.4999C12.5 23.0522 12.9477 23.4999 13.5 23.4999H16.5C17.0523 23.4999 17.5 23.0522 17.5 22.4999C17.5 22.2237 17.7239 21.9999 18 21.9999C18.2761 21.9999 18.5 22.2237 18.5 22.4999C18.5 23.0522 18.9477 23.4999 19.5 23.4999H22.5C23.0523 23.4999 23.5 23.0522 23.5 22.4999V19.4999C23.5 18.9476 23.0523 18.4999 22.5 18.4999C22.2239 18.4999 22 18.276 22 17.9999C22 17.7237 22.2239 17.4999 22.5 17.4999C23.0523 17.4999 23.5 17.0522 23.5 16.4999V13.4999C23.5 12.9476 23.0523 12.4999 22.5 12.4999C22.2239 12.4999 22 12.276 22 11.9999C22 11.7237 22.2239 11.4999 22.5 11.4999C23.0523 11.4999 23.5 11.0522 23.5 10.4999V7.49988C23.5 6.94759 23.0523 6.49988 22.5 6.49988C22.2239 6.49988 22 6.27602 22 5.99988C22 5.72374 22.2239 5.49988 22.5 5.49988ZM21.5 3.70975C20.5905 4.10808 20.0029 5.00687 20.0029 5.99975C20.0029 6.99264 20.5905 7.89143 21.5 8.28975V9.70975C20.5905 10.1081 20.0029 11.0069 20.0029 11.9998C20.0029 12.9926 20.5905 13.8914 21.5 14.2898V15.7098C20.5905 16.1081 20.0029 17.0069 20.0029 17.9998C20.0029 18.9926 20.5905 19.8914 21.5 20.2898V21.4998H20.29C19.8917 20.5903 18.9929 20.0027 18 20.0027C17.0071 20.0027 16.1083 20.5903 15.71 21.4998H14.29C13.8917 20.5903 12.9929 20.0027 12 20.0027C11.0071 20.0027 10.1083 20.5903 9.71 21.4998H8.29C7.89168 20.5903 6.99289 20.0027 6 20.0027C5.00711 20.0027 4.10833 20.5903 3.71 21.4998H2.5V20.2898C3.40949 19.8914 3.99706 18.9926 3.99706 17.9998C3.99706 17.0069 3.40949 16.1081 2.5 15.7098V14.2898C3.40949 13.8914 3.99706 12.9926 3.99706 11.9998C3.99706 11.0069 3.40949 10.1081 2.5 9.70975V8.28975C3.40949 7.89143 3.99706 6.99264 3.99706 5.99975C3.99706 5.00687 3.40949 4.10808 2.5 3.70975V2.49975H3.71C4.10833 3.40924 5.00711 3.99681 6 3.99681C6.99289 3.99681 7.89168 3.40924 8.29 2.49975H9.71C10.1083 3.40924 11.0071 3.99681 12 3.99681C12.9929 3.99681 13.8917 3.40924 14.29 2.49975H15.71C16.1083 3.40924 17.0071 3.99681 18 3.99681C18.9929 3.99681 19.8917 3.40924 20.29 2.49975H21.5V3.70975ZM12 4.99988C8.13401 4.99988 5 8.13389 5 11.9999C5 15.8659 8.13401 18.9999 12 18.9999C13.2294 19.0026 14.4374 18.6781 15.5 18.0599C15.8255 17.8896 16.0314 17.5546 16.0364 17.1873C16.0414 16.82 15.8446 16.4796 15.5238 16.3006C15.2031 16.1216 14.81 16.1328 14.5 16.3299C12.5401 17.4614 10.0646 17.1355 8.46444 15.5353C6.86424 13.935 6.53836 11.4595 7.6699 9.4997C8.80145 7.53986 11.1083 6.58439 13.2942 7.17015C15.4801 7.75591 17.0001 9.73684 17 11.9999V12.4999C17 12.9583 16.6284 13.3299 16.17 13.3299C15.71 13.3299 15.3355 12.9599 15.33 12.4999V9.66988C15.3193 9.25014 15.0476 8.88176 14.6497 8.74764C14.2519 8.61353 13.8126 8.74224 13.55 9.06988C13.0748 8.8094 12.5419 8.6719 12 8.66988C10.1609 8.66988 8.67 10.1608 8.67 11.9999C8.67 13.839 10.1609 15.3299 12 15.3299C12.7991 15.33 13.5707 15.0384 14.17 14.5099C14.9828 15.3082 16.194 15.5436 17.2466 15.1077C18.2993 14.6719 18.9895 13.6491 19 12.5099V11.9999C19 8.13389 15.866 4.99988 12 4.99988ZM12 13.3299C11.2655 13.3299 10.67 12.7344 10.67 11.9999C10.67 11.2653 11.2655 10.6699 12 10.6699C12.7345 10.6699 13.33 11.2653 13.33 11.9999C13.3327 12.3534 13.1934 12.6933 12.9434 12.9433C12.6934 13.1933 12.3536 13.3326 12 13.3299Z" fill="#171E2B"/>
</svg>
