<svg width="24" height="24" viewBox="0 0 24 24" fill="none" xmlns="http://www.w3.org/2000/svg">
<path fill-rule="evenodd" clip-rule="evenodd" d="M16 15.0002H10.82C10.9364 14.6795 10.9973 14.3413 11 14.0002V13.0002H13.5C14.0523 13.0002 14.5 12.5525 14.5 12.0002C14.5 11.4479 14.0523 11.0002 13.5 11.0002H11V10.0002C10.9955 9.11896 11.5825 8.34421 12.4321 8.11017C13.2817 7.87612 14.1826 8.24095 14.63 9.00018C14.9061 9.48067 15.5195 9.64632 16 9.37018C16.4805 9.09404 16.6461 8.48067 16.37 8.00018C15.4292 6.52458 13.6385 5.83184 11.9496 6.29015C10.2607 6.74847 9.06578 8.25144 9 10.0002V11.0002H8C7.44771 11.0002 7 11.4479 7 12.0002C7 12.5525 7.44771 13.0002 8 13.0002H9V14.0002C9 14.5525 8.55228 15.0002 8 15.0002C7.44771 15.0002 7 15.4479 7 16.0002C7 16.5525 7.44771 17.0002 8 17.0002H16C16.5523 17.0002 17 16.5525 17 16.0002C17 15.4479 16.5523 15.0002 16 15.0002ZM12 1.00012C5.92487 1.00012 1 5.92499 1 12.0001C1 18.0753 5.92487 23.0001 12 23.0001C18.0751 23.0001 23 18.0753 23 12.0001C23 9.08274 21.8411 6.28485 19.7782 4.22195C17.7153 2.15905 14.9174 1.00012 12 1.00012ZM12 21C7.02943 21 2.99999 16.9706 2.99999 12C2.99999 7.02944 7.02943 3 12 3C16.9706 3 21 7.02944 21 12C21 16.9706 16.9706 21 12 21Z" fill="#171E2B"/>
</svg>
