<svg width="24" height="24" viewBox="0 0 24 24" fill="none" xmlns="http://www.w3.org/2000/svg">
<path fill-rule="evenodd" clip-rule="evenodd" d="M20 20.0001H8C8.65438 19.1373 9.00587 18.0829 9 17.0001V14.0001H15C15.5523 14.0001 16 13.5523 16 13.0001C16 12.4478 15.5523 12.0001 15 12.0001H9V8.89006C8.99822 6.67418 10.4867 4.73406 12.6275 4.16194C14.7682 3.58982 17.0261 4.52872 18.13 6.45006C18.2636 6.6798 18.4832 6.8469 18.7403 6.91445C18.9973 6.982 19.2707 6.94443 19.5 6.81006C19.9761 6.53545 20.1414 5.92804 19.87 5.45006C18.307 2.75292 15.1298 1.43871 12.1182 2.24366C9.10667 3.04862 7.00885 5.77279 7 8.89006V12.0001H4C3.44772 12.0001 3 12.4478 3 13.0001C3 13.5523 3.44772 14.0001 4 14.0001H7V17.0001C7 18.6569 5.65685 20.0001 4 20.0001C3.44772 20.0001 3 20.4478 3 21.0001C3 21.5523 3.44772 22.0001 4 22.0001H20C20.5523 22.0001 21 21.5523 21 21.0001C21 20.4478 20.5523 20.0001 20 20.0001Z" fill="#171E2B"/>
</svg>
