<svg width="24" height="24" viewBox="0 0 24 24" fill="none" xmlns="http://www.w3.org/2000/svg">
<path fill-rule="evenodd" clip-rule="evenodd" d="M10.21 6.21014L11 5.41014V10.0001C11 10.5524 11.4477 11.0001 12 11.0001C12.5523 11.0001 13 10.5524 13 10.0001V5.41014L13.79 6.21014C13.9778 6.39945 14.2334 6.50594 14.5 6.50594C14.7666 6.50594 15.0222 6.39945 15.21 6.21014C15.3993 6.02237 15.5058 5.76678 15.5058 5.50014C15.5058 5.2335 15.3993 4.97791 15.21 4.79014L12.71 2.29014C12.6149 2.1991 12.5027 2.12773 12.38 2.08014C12.1365 1.98012 11.8635 1.98012 11.62 2.08014C11.4972 2.12773 11.3851 2.1991 11.29 2.29014L8.78999 4.79014C8.39787 5.18226 8.39787 5.81802 8.78999 6.21014C9.18212 6.60226 9.81787 6.60226 10.21 6.21014ZM18 7.56001C17.7427 7.30278 17.3678 7.20232 17.0164 7.29647C16.6651 7.39063 16.3906 7.66509 16.2964 8.01647C16.2023 8.36786 16.3027 8.74278 16.56 9.00001C18.4052 10.8445 18.9574 13.619 17.9592 16.0295C16.961 18.4399 14.609 20.0117 12 20.0117C9.39098 20.0117 7.03893 18.4399 6.04073 16.0295C5.04253 13.619 5.5948 10.8445 7.43998 9.00001C7.69721 8.74278 7.79767 8.36786 7.70352 8.01647C7.60936 7.66509 7.3349 7.39063 6.98352 7.29647C6.63213 7.20232 6.25721 7.30278 5.99998 7.56001C2.71069 10.869 2.72136 16.2164 6.02383 19.5123C9.32629 22.8082 14.6737 22.8082 17.9761 19.5123C21.2786 16.2164 21.2893 10.869 18 7.56001Z" fill="#171E2B"/>
</svg>
