<svg width="24" height="24" viewBox="0 0 24 24" fill="none" xmlns="http://www.w3.org/2000/svg">
<path fill-rule="evenodd" clip-rule="evenodd" d="M10.29 11.71C10.4778 11.8993 10.7334 12.0058 11 12.0058C11.2666 12.0058 11.5222 11.8993 11.71 11.71L15.71 7.70996C15.9637 7.4563 16.0627 7.08659 15.9699 6.74008C15.877 6.39358 15.6064 6.12293 15.2599 6.03008C14.9134 5.93724 14.5437 6.0363 14.29 6.28996L11 9.58996L9.71 8.28996C9.31788 7.89784 8.68212 7.89784 8.29 8.28996C7.89788 8.68208 7.89788 9.31784 8.29 9.70996L10.29 11.71ZM21 13.9999H20V3.99988H21C21.5523 3.99988 22 3.55216 22 2.99988C22 2.44759 21.5523 1.99988 21 1.99988H3.00002C2.44773 1.99988 2.00002 2.44759 2.00002 2.99988C2.00002 3.55216 2.44773 3.99988 3.00002 3.99988H4.00002V13.9999H3.00002C2.44773 13.9999 2.00002 14.4476 2.00002 14.9999C2.00002 15.5522 2.44773 15.9999 3.00002 15.9999H11V17.1499L6.45002 20.1499C6.06628 20.3874 5.8892 20.8525 6.01781 21.2851C6.14642 21.7177 6.54884 22.0106 7.00002 21.9999C7.19662 22.0021 7.38897 21.9427 7.55001 21.8299L11 19.5499V20.9999C11 21.5522 11.4477 21.9999 12 21.9999C12.5523 21.9999 13 21.5522 13 20.9999V19.5499L16.45 21.8299C16.6111 21.9427 16.8034 22.0021 17 21.9999C17.4386 21.9965 17.8237 21.7077 17.95 21.2877C18.0762 20.8677 17.914 20.4145 17.55 20.1699L13 17.1699V15.9999H21C21.5523 15.9999 22 15.5522 22 14.9999C22 14.4476 21.5523 13.9999 21 13.9999ZM18 13.9998H6V3.99975H18V13.9998Z" fill="#171E2B"/>
</svg>
