<svg width="24" height="24" viewBox="0 0 24 24" fill="none" xmlns="http://www.w3.org/2000/svg">
<path fill-rule="evenodd" clip-rule="evenodd" d="M19 1.99988H5C3.89543 1.99988 3 2.89531 3 3.99988V5.99988C3 7.10445 3.89543 7.99988 5 7.99988V18.9999C5 20.6567 6.34315 21.9999 8 21.9999H16C17.6569 21.9999 19 20.6567 19 18.9999V7.99988C20.1046 7.99988 21 7.10445 21 5.99988V3.99988C21 2.89531 20.1046 1.99988 19 1.99988ZM17 16H11V12H17V16ZM17 9.99988H9.99998C9.4477 9.99988 8.99998 10.4476 8.99998 10.9999V16.9999C8.99998 17.5522 9.4477 17.9999 9.99998 17.9999H17V18.9999C17 19.5522 16.5523 19.9999 16 19.9999H7.99998C7.4477 19.9999 6.99998 19.5522 6.99998 18.9999V7.99988H17V9.99988ZM5.00002 5.99975V3.99975H19V5.99975H5.00002Z" fill="#171E2B"/>
</svg>
