<svg width="24" height="24" viewBox="0 0 24 24" fill="none" xmlns="http://www.w3.org/2000/svg">
<path fill-rule="evenodd" clip-rule="evenodd" d="M21 13.9999H20V2.99988C20 2.44759 19.5523 1.99988 19 1.99988H5C4.44772 1.99988 4 2.44759 4 2.99988V13.9999H3C2.44772 13.9999 2 14.4476 2 14.9999C2 15.5522 2.44772 15.9999 3 15.9999H11V17.1499L6.45 20.1499C6.06627 20.3874 5.88919 20.8525 6.01779 21.2851C6.1464 21.7177 6.54882 22.0106 7 21.9999C7.1966 22.0021 7.38896 21.9427 7.55 21.8299L11 19.5499V20.9999C11 21.5522 11.4477 21.9999 12 21.9999C12.5523 21.9999 13 21.5522 13 20.9999V19.5499L16.45 21.8299C16.611 21.9427 16.8034 22.0021 17 21.9999C17.4386 21.9965 17.8237 21.7077 17.95 21.2877C18.0762 20.8677 17.914 20.4145 17.55 20.1699L13 17.1699V15.9999H21C21.5523 15.9999 22 15.5522 22 14.9999C22 14.4476 21.5523 13.9999 21 13.9999ZM18 13.9998H6.00001V3.99975H18V13.9998ZM9 11.9998C9.33452 11.9981 9.64602 11.8292 9.83 11.5498L11.16 9.54983L12.29 10.6898C12.5025 10.9036 12.8001 11.0102 13.1 10.9798C13.3986 10.9471 13.6666 10.7819 13.83 10.5298L15.83 7.52983C16.0741 7.07481 15.9316 6.50877 15.5012 6.22355C15.0707 5.93832 14.4939 6.02771 14.17 6.42983L12.84 8.42983L11.71 7.28983C11.4975 7.07602 11.1999 6.96948 10.9 6.99983C10.6014 7.03259 10.3334 7.19781 10.17 7.44983L8.17 10.4498C7.86876 10.9087 7.99373 11.5247 8.45 11.8298C8.61105 11.9426 8.8034 12.0021 9 11.9998Z" fill="#171E2B"/>
</svg>
