<svg width="24" height="24" viewBox="0 0 24 24" fill="none" xmlns="http://www.w3.org/2000/svg">
<path fill-rule="evenodd" clip-rule="evenodd" d="M9.28999 11.71C9.47776 11.8993 9.73336 12.0058 9.99999 12.0058C10.2666 12.0058 10.5222 11.8993 10.71 11.71L12 10.41L13.29 11.71C13.4778 11.8993 13.7334 12.0058 14 12.0058C14.2666 12.0058 14.5222 11.8993 14.71 11.71C14.8993 11.5223 15.0058 11.2667 15.0058 11C15.0058 10.7334 14.8993 10.4778 14.71 10.29L13.41 9.00003L14.71 7.71003C15.1021 7.31791 15.1021 6.68216 14.71 6.29003C14.3179 5.89791 13.6821 5.89791 13.29 6.29003L12 7.59003L10.71 6.29003C10.3179 5.89791 9.68212 5.89791 9.28999 6.29003C8.89787 6.68216 8.89787 7.31791 9.28999 7.71003L10.59 9.00003L9.28999 10.29C9.10068 10.4778 8.99419 10.7334 8.99419 11C8.99419 11.2667 9.10068 11.5223 9.28999 11.71ZM21 13.9999H20V3.99988H21C21.5523 3.99988 22 3.55216 22 2.99988C22 2.44759 21.5523 1.99988 21 1.99988H3C2.44772 1.99988 2 2.44759 2 2.99988C2 3.55216 2.44772 3.99988 3 3.99988H4V13.9999H3C2.44772 13.9999 2 14.4476 2 14.9999C2 15.5522 2.44772 15.9999 3 15.9999H11V17.1499L6.45 20.1499C6.06627 20.3874 5.88919 20.8525 6.01779 21.2851C6.1464 21.7177 6.54882 22.0106 7 21.9999C7.1966 22.0021 7.38896 21.9427 7.55 21.8299L11 19.5499V20.9999C11 21.5522 11.4477 21.9999 12 21.9999C12.5523 21.9999 13 21.5522 13 20.9999V19.5499L16.45 21.8299C16.611 21.9427 16.8034 22.0021 17 21.9999C17.4386 21.9965 17.8237 21.7077 17.95 21.2877C18.0762 20.8677 17.914 20.4145 17.55 20.1699L13 17.1699V15.9999H21C21.5523 15.9999 22 15.5522 22 14.9999C22 14.4476 21.5523 13.9999 21 13.9999ZM18 13.9998H5.99998V3.99975H18V13.9998Z" fill="#171E2B"/>
</svg>
