<svg width="24" height="24" viewBox="0 0 24 24" fill="none" xmlns="http://www.w3.org/2000/svg">
<path fill-rule="evenodd" clip-rule="evenodd" d="M10 9.99988H14C14.5523 9.99988 15 9.55216 15 8.99988C15 8.44759 14.5523 7.99988 14 7.99988H10C9.44771 7.99988 9 8.44759 9 8.99988C9 9.55216 9.44771 9.99988 10 9.99988ZM21 13.9999H20V3.99988H21C21.5523 3.99988 22 3.55216 22 2.99988C22 2.44759 21.5523 1.99988 21 1.99988H3C2.44772 1.99988 2 2.44759 2 2.99988C2 3.55216 2.44772 3.99988 3 3.99988H4V13.9999H3C2.44772 13.9999 2 14.4476 2 14.9999C2 15.5522 2.44772 15.9999 3 15.9999H11V17.1499L6.45 20.1499C6.06626 20.3874 5.88919 20.8525 6.01779 21.2851C6.1464 21.7177 6.54882 22.0106 7 21.9999C7.1966 22.0021 7.38896 21.9427 7.55 21.8299L11 19.5499V20.9999C11 21.5522 11.4477 21.9999 12 21.9999C12.5523 21.9999 13 21.5522 13 20.9999V19.5499L16.45 21.8299C16.611 21.9427 16.8034 22.0021 17 21.9999C17.4386 21.9965 17.8237 21.7077 17.95 21.2877C18.0762 20.8677 17.914 20.4145 17.55 20.1699L13 17.1699V15.9999H21C21.5523 15.9999 22 15.5522 22 14.9999C22 14.4476 21.5523 13.9999 21 13.9999ZM18 13.9998H6V3.99975H18V13.9998Z" fill="#171E2B"/>
</svg>
