<svg width="24" height="24" viewBox="0 0 24 24" fill="none" xmlns="http://www.w3.org/2000/svg">
<path fill-rule="evenodd" clip-rule="evenodd" d="M10.17 10.5499C10.3334 10.8019 10.6014 10.9671 10.9 10.9999C11.1999 11.0302 11.4975 10.9237 11.71 10.7099L12.84 9.56987L14.17 11.5699C14.3585 11.8417 14.6692 12.0026 15 11.9999C15.1966 12.0021 15.389 11.9427 15.55 11.8299C16.0063 11.5247 16.1313 10.9088 15.83 10.4499L13.83 7.44987C13.6666 7.19785 13.3986 7.03263 13.1 6.99987C12.8001 6.96951 12.5025 7.07606 12.29 7.28987L11.16 8.42987L9.83 6.42987C9.65062 6.09547 9.29742 5.8914 8.91812 5.90304C8.53882 5.91467 8.19878 6.14 8.04024 6.48477C7.88169 6.82954 7.93195 7.23434 8.17 7.52987L10.17 10.5499ZM21 13.9999H20V3.99988H21C21.5523 3.99988 22 3.55216 22 2.99988C22 2.44759 21.5523 1.99988 21 1.99988H3C2.44772 1.99988 2 2.44759 2 2.99988C2 3.55216 2.44772 3.99988 3 3.99988H4V13.9999H3C2.44772 13.9999 2 14.4476 2 14.9999C2 15.5522 2.44772 15.9999 3 15.9999H11V17.1499L6.45 20.1499C6.06627 20.3874 5.88919 20.8525 6.01779 21.2851C6.1464 21.7177 6.54882 22.0106 7 21.9999C7.1966 22.0021 7.38896 21.9427 7.55 21.8299L11 19.5499V20.9999C11 21.5522 11.4477 21.9999 12 21.9999C12.5523 21.9999 13 21.5522 13 20.9999V19.5499L16.45 21.8299C16.611 21.9427 16.8034 22.0021 17 21.9999C17.4386 21.9965 17.8237 21.7077 17.95 21.2877C18.0762 20.8677 17.914 20.4145 17.55 20.1699L13 17.1699V15.9999H21C21.5523 15.9999 22 15.5522 22 14.9999C22 14.4476 21.5523 13.9999 21 13.9999ZM18 13.9998H6V3.99975H18V13.9998Z" fill="#171E2B"/>
</svg>
