<svg width="24" height="24" viewBox="0 0 24 24" fill="none" xmlns="http://www.w3.org/2000/svg">
<path fill-rule="evenodd" clip-rule="evenodd" d="M13.41 12.0001L16.71 8.71009C16.9636 8.45643 17.0627 8.08671 16.9699 7.74021C16.877 7.3937 16.6064 7.12305 16.2599 7.03021C15.9134 6.93736 15.5436 7.03643 15.29 7.29009L11.29 11.2901C11.1007 11.4779 10.9942 11.7334 10.9942 12.0001C10.9942 12.2667 11.1007 12.5223 11.29 12.7101L15.29 16.7101C15.4778 16.8994 15.7334 17.0059 16 17.0059C16.2666 17.0059 16.5222 16.8994 16.71 16.7101C16.8993 16.5223 17.0058 16.2667 17.0058 16.0001C17.0058 15.7334 16.8993 15.4779 16.71 15.2901L13.41 12.0001ZM8 7.00013C7.44772 7.00013 7 7.44784 7 8.00013V16.0001C7 16.5524 7.44772 17.0001 8 17.0001C8.55229 17.0001 9 16.5524 9 16.0001V8.00013C9 7.44784 8.55229 7.00013 8 7.00013Z" fill="#171E2B"/>
</svg>
