<svg width="24" height="24" viewBox="0 0 24 24" fill="none" xmlns="http://www.w3.org/2000/svg">
<path fill-rule="evenodd" clip-rule="evenodd" d="M7 5.99995C6.44771 5.99995 6 6.44766 6 6.99995C6 7.55223 6.44771 7.99995 7 7.99995C7.55228 7.99995 8 7.55223 8 6.99995C8 6.44766 7.55228 5.99995 7 5.99995ZM21.71 11.7798L12.23 2.31977C12.0415 2.11655 11.7772 2.00066 11.5 1.99977H5.50001C5.23421 1.99824 4.97873 2.10259 4.79001 2.28977L2.29001 4.77977C2.10282 4.96849 1.99847 5.22397 2.00001 5.48977V11.4898C2.00369 11.7545 2.10728 12.0081 2.29001 12.1998L11.78 21.6998C11.9716 21.8825 12.2252 21.9861 12.49 21.9898C12.7558 21.9913 13.0113 21.887 13.2 21.6998L21.71 13.1898C21.8972 13.0011 22.0015 12.7456 22 12.4798C21.9938 12.2185 21.8904 11.9689 21.71 11.7798ZM12.49 19.5897L4.00003 11.0897V5.8997L5.90003 3.9997H11.08L19.58 12.4897L12.49 19.5897Z" fill="#171E2B"/>
</svg>
