<svg width="24" height="24" viewBox="0 0 24 24" fill="none" xmlns="http://www.w3.org/2000/svg">
<path fill-rule="evenodd" clip-rule="evenodd" d="M7 9.99975C6.44771 9.99975 6 10.4475 6 10.9998C6 11.552 6.44771 11.9998 7 11.9998C7.55228 11.9998 8 11.552 8 10.9998C8 10.4475 7.55228 9.99975 7 9.99975ZM19 5.99988H18V2.99988C18 2.44759 17.5523 1.99988 17 1.99988H7.00002C6.44773 1.99988 6.00002 2.44759 6.00002 2.99988V5.99988H5.00002C3.34316 5.99988 2.00002 7.34302 2.00002 8.99988V14.9999C2.00002 16.6567 3.34316 17.9999 5.00002 17.9999H6.00002V20.9999C6.00002 21.5522 6.44773 21.9999 7.00002 21.9999H17C17.5523 21.9999 18 21.5522 18 20.9999V17.9999H19C20.6569 17.9999 22 16.6567 22 14.9999V8.99988C22 7.34302 20.6569 5.99988 19 5.99988ZM8.00002 3.99975H16V5.99975H8.00002V3.99975ZM16 19.9998H8.00002V15.9998H16V19.9998ZM20 14.9999C20 15.5522 19.5523 15.9999 19 15.9999H18V14.9999C18 14.4476 17.5523 13.9999 17 13.9999H7.00003C6.44775 13.9999 6.00003 14.4476 6.00003 14.9999V15.9999H5.00003C4.44775 15.9999 4.00003 15.5522 4.00003 14.9999V8.99988C4.00003 8.44759 4.44775 7.99988 5.00003 7.99988H19C19.5523 7.99988 20 8.44759 20 8.99988V14.9999Z" fill="#171E2B"/>
</svg>
