<svg width="24" height="24" viewBox="0 0 24 24" fill="none" xmlns="http://www.w3.org/2000/svg">
<path fill-rule="evenodd" clip-rule="evenodd" d="M7 9.99976C6.44772 9.99976 6 10.4475 6 10.9998C6 11.552 6.44772 11.9998 7 11.9998C7.55229 11.9998 8 11.552 8 10.9998C8 10.4475 7.55229 9.99976 7 9.99976ZM3.71002 2.28984C3.45637 2.03618 3.08665 1.93712 2.74015 2.02996C2.39364 2.12281 2.12299 2.39346 2.03015 2.73996C1.9373 3.08647 2.03637 3.45618 2.29003 3.70984L4.62002 5.99984C3.11307 6.19222 1.98779 7.48071 2.00003 8.99984V14.9998C2.00003 16.6567 3.34317 17.9998 5.00003 17.9998H6.00002V20.9998C6.00002 21.5521 6.44774 21.9998 7.00002 21.9998H17C17.5523 21.9998 18 21.5521 18 20.9998V19.4098L20.29 21.7098C20.4778 21.8992 20.7334 22.0056 21 22.0056C21.2667 22.0056 21.5223 21.8992 21.71 21.7098C21.8993 21.5221 22.0058 21.2665 22.0058 20.9998C22.0058 20.7332 21.8993 20.4776 21.71 20.2898L3.71002 2.28984ZM6.00003 14.9999V15.9999H5.00004C4.44775 15.9999 4.00004 15.5522 4.00004 14.9999V8.99988C4.00004 8.4476 4.44775 7.99988 5.00004 7.99988H6.59003L12.59 13.9999H7.00003C6.44775 13.9999 6.00003 14.4476 6.00003 14.9999ZM16 19.9998H8.00002V15.9998H14.59L16 17.4098V19.9998ZM19 5.99988H18V2.99988C18 2.4476 17.5523 1.99988 17 1.99988H8.66003C8.10775 1.99988 7.66003 2.4476 7.66003 2.99988C7.66003 3.55217 8.10775 3.99988 8.66003 3.99988H16V5.99988H12.66C12.1077 5.99988 11.66 6.4476 11.66 6.99988C11.66 7.55217 12.1077 7.99988 12.66 7.99988H19C19.5523 7.99988 20 8.4476 20 8.99988V14.9999C20.0055 15.0363 20.0055 15.0734 20 15.1099C19.9469 15.3698 19.9993 15.6402 20.1456 15.8615C20.2919 16.0828 20.5201 16.2369 20.78 16.2899H20.98C21.4628 16.2996 21.8836 15.963 21.98 15.4899C22.0008 15.3274 22.0075 15.1635 22 14.9999V8.99988C22 7.34303 20.6569 5.99988 19 5.99988Z" fill="#171E2B"/>
</svg>
