<svg width="24" height="24" viewBox="0 0 24 24" fill="none" xmlns="http://www.w3.org/2000/svg">
<path fill-rule="evenodd" clip-rule="evenodd" d="M20.54 6.28988L19 4.74988L17.59 3.33988C17.3363 3.08622 16.9666 2.98715 16.6201 3.08C16.2736 3.17285 16.003 3.4435 15.9101 3.79C15.8173 4.1365 15.9163 4.50622 16.17 4.75988L17.17 5.75988L16.34 8.24988C15.982 9.32887 16.2646 10.5175 17.07 11.3199L20.02 14.3199V18.9999C20.02 19.5522 19.5723 19.9999 19.02 19.9999C18.4677 19.9999 18.02 19.5522 18.02 18.9999V16.9999C18.02 15.343 16.6769 13.9999 15.02 13.9999H14V4.99988C14 3.34302 12.6569 1.99988 11 1.99988H5C3.34315 1.99988 2 3.34302 2 4.99988V18.9999C2 20.6567 3.34315 21.9999 5 21.9999H11C12.6569 21.9999 14 20.6567 14 18.9999V15.9999H15C15.5523 15.9999 16 16.4476 16 16.9999V18.9999C16 20.6567 17.3431 21.9999 19 21.9999C20.6569 21.9999 22 20.6567 22 18.9999V9.82988C22.0024 8.50289 21.4771 7.22938 20.54 6.28988ZM12 19C12 19.5523 11.5523 20 11 20H5C4.44772 20 4 19.5523 4 19V12H12V19ZM12 9.99975H4V4.99975C4 4.44747 4.44772 3.99975 5 3.99975H11C11.5523 3.99975 12 4.44747 12 4.99975V9.99975ZM20 11.4199L18.46 9.87988C18.2016 9.61637 18.1093 9.23196 18.22 8.87988L18.73 7.33988L19.12 7.73988C19.6755 8.29458 19.9914 9.04491 20 9.82988V11.4199Z" fill="#171E2B"/>
</svg>
