<svg width="24" height="24" viewBox="0 0 24 24" fill="none" xmlns="http://www.w3.org/2000/svg">
<path fill-rule="evenodd" clip-rule="evenodd" d="M17 21.9999H5C3.34315 21.9999 2 20.6567 2 18.9999V8.99989C2 7.34303 3.34315 5.99989 5 5.99989H6C6.03451 4.26126 7.18838 2.74412 8.85464 2.24652C10.5209 1.74893 12.3178 2.38489 13.3 3.81989C13.7484 4.45903 13.9925 5.21915 14 5.99989H17C17.5523 5.99989 18 6.4476 18 6.99989V9.99989C19.7386 10.0344 21.2558 11.1883 21.7534 12.8545C22.251 14.5208 21.615 16.3176 20.18 17.2999C19.5409 17.7483 18.7807 17.9924 18 17.9999V20.9999C18 21.5522 17.5523 21.9999 17 21.9999ZM5 7.99973C4.44772 7.99973 4 8.44745 4 8.99973V18.9997C4 19.552 4.44772 19.9997 5 19.9997H16V16.8197C15.9983 16.4943 16.1549 16.1885 16.42 15.9997C16.6843 15.8113 17.0235 15.7628 17.33 15.8697C17.9098 16.1063 18.5715 16.0188 19.07 15.6397C19.5634 15.3389 19.9025 14.8393 20 14.2697C20.078 13.6952 19.9029 13.1151 19.52 12.6797C18.9947 12.0417 18.1158 11.8189 17.35 12.1297C17.0435 12.2366 16.7043 12.1882 16.44 11.9997C16.1749 11.811 16.0183 11.5051 16.02 11.1797V7.99973H12.82C12.4862 8.01865 12.1651 7.86951 11.9641 7.60229C11.7632 7.33508 11.7091 6.98514 11.82 6.66973C12.0565 6.08988 11.9691 5.4282 11.59 4.92973C11.2909 4.42163 10.777 4.07711 10.1934 3.99345C9.60976 3.9098 9.01976 4.0961 8.59 4.49973C8.19164 4.89484 7.97756 5.43911 8 5.99973C8.00232 6.2291 8.04637 6.45614 8.13 6.66973C8.23728 6.9766 8.18871 7.31646 7.99976 7.58099C7.81081 7.84551 7.50507 8.00169 7.18 7.99973H5Z" fill="#171E2B"/>
</svg>
