<svg width="24" height="24" viewBox="0 0 24 24" fill="none" xmlns="http://www.w3.org/2000/svg">
<path fill-rule="evenodd" clip-rule="evenodd" d="M11.29 15.2898C11.247 15.3373 11.2069 15.3874 11.17 15.4398C11.1322 15.4956 11.1019 15.5561 11.08 15.6198C11.0512 15.6765 11.0309 15.7372 11.02 15.7998C11.0151 15.8664 11.0151 15.9332 11.02 15.9998C11.0166 16.131 11.044 16.2611 11.1 16.3798C11.1909 16.6311 11.3888 16.8289 11.64 16.9198C11.882 17.0268 12.158 17.0268 12.4 16.9198C12.6512 16.8289 12.8491 16.6311 12.94 16.3798C12.9844 16.2582 13.0048 16.1292 13 15.9998C13.0015 15.734 12.8972 15.4785 12.71 15.2898C12.5222 15.1005 12.2666 14.994 12 14.994C11.7334 14.994 11.4778 15.1005 11.29 15.2898ZM12 1.99988C6.47715 1.99988 2 6.47703 2 11.9999C2 17.5227 6.47715 21.9999 12 21.9999C17.5228 21.9999 22 17.5227 22 11.9999C22 9.34771 20.9464 6.80417 19.0711 4.92881C17.1957 3.05345 14.6522 1.99988 12 1.99988ZM12 19.9998C7.58171 19.9998 3.99999 16.418 3.99999 11.9998C3.99999 7.58148 7.58171 3.99975 12 3.99975C16.4183 3.99975 20 7.58148 20 11.9998C20 14.1215 19.1571 16.1563 17.6568 17.6566C16.1566 19.1569 14.1217 19.9998 12 19.9998ZM12 6.99975C10.9275 6.99906 9.93624 7.57095 9.4 8.49975C9.20294 8.80974 9.19169 9.20281 9.3707 9.52356C9.54971 9.84431 9.89016 10.0411 10.2574 10.0361C10.6247 10.0312 10.9597 9.82523 11.13 9.49975C11.3093 9.18912 11.6413 8.99833 12 8.99975C12.5523 8.99975 13 9.44747 13 9.99975C13 10.552 12.5523 10.9998 12 10.9998C11.4477 10.9998 11 11.4475 11 11.9998V12.9998C11 13.552 11.4477 13.9998 12 13.9998C12.5523 13.9998 13 13.552 13 12.9998V12.8198C14.365 12.3245 15.1793 10.9227 14.9334 9.49164C14.6875 8.06056 13.452 7.01101 12 6.99975Z" fill="#171E2B"/>
</svg>
