<svg width="24" height="24" viewBox="0 0 24 24" fill="none" xmlns="http://www.w3.org/2000/svg">
<path fill-rule="evenodd" clip-rule="evenodd" d="M9 7.75004C9 5.00004 6.42 3.24004 6.31 3.17004C5.97169 2.94137 5.52832 2.94137 5.19 3.17004C5.08 3.25004 2.5 5.00004 2.5 7.75004C2.5 9.54497 3.95508 11 5.75 11C7.54493 11 9 9.54497 9 7.75004ZM5.75002 8.99987C5.05966 8.99987 4.50002 8.44022 4.50002 7.74987C4.58231 6.80175 5.03067 5.92296 5.75002 5.29987C6.47366 5.91959 6.92297 6.80025 7.00002 7.74987C7.00002 8.44022 6.44037 8.99987 5.75002 8.99987ZM11.81 10.1698C11.4717 9.94112 11.0283 9.94112 10.69 10.1698C10.52 10.2898 6.49998 13.0698 6.49998 17.2498C6.49998 19.8731 8.62663 21.9998 11.25 21.9998C13.8733 21.9998 16 19.8731 16 17.2498C16 12.9998 12 10.2798 11.81 10.1698ZM11.25 19.9998C10.5207 19.9998 9.82118 19.71 9.30546 19.1943C8.78973 18.6786 8.5 17.9791 8.5 17.2497C8.5 14.9397 10.31 13.0797 11.26 12.2497C12.2 13.0397 14 14.8797 14 17.2497C14 17.9791 13.7103 18.6786 13.1945 19.1943C12.6788 19.71 11.9793 19.9998 11.25 19.9998ZM18.06 2.16992C17.7217 1.94124 17.2783 1.94124 16.94 2.16992C16.8 2.26992 13.5 4.54992 13.5 7.99992C13.5 10.2091 15.2909 11.9999 17.5 11.9999C19.7092 11.9999 21.5 10.2091 21.5 7.99992C21.5 4.50992 18.2 2.25992 18.06 2.16992ZM17.5 9.99987C16.3954 9.99987 15.5 9.10444 15.5 7.99987C15.6384 6.54112 16.3595 5.19991 17.5 4.27987C18.645 5.19617 19.3671 6.53943 19.5 7.99987C19.5 9.10444 18.6046 9.99987 17.5 9.99987Z" fill="#171E2B"/>
</svg>
