<svg width="24" height="24" viewBox="0 0 24 24" fill="none" xmlns="http://www.w3.org/2000/svg">
<path fill-rule="evenodd" clip-rule="evenodd" d="M10.5 7.99992C10.5 4.50992 7.2 2.25992 7.06 2.16992C6.72168 1.94124 6.27832 1.94124 5.94 2.16992C5.8 2.26992 2.5 4.54992 2.5 7.99992C2.5 10.2091 4.29086 11.9999 6.5 11.9999C8.70914 11.9999 10.5 10.2091 10.5 7.99992ZM6.50002 9.99987C5.39545 9.99987 4.50002 9.10444 4.50002 7.99987C4.63847 6.54112 5.35955 5.19991 6.50002 4.27987C7.64498 5.19617 8.36716 6.53943 8.50002 7.99987C8.50002 9.10444 7.60459 9.99987 6.50002 9.99987ZM18.06 2.16992C17.7217 1.94124 17.2783 1.94124 16.94 2.16992C16.8 2.26992 13.5 4.54992 13.5 7.99992C13.5 10.2091 15.2909 11.9999 17.5 11.9999C19.7092 11.9999 21.5 10.2091 21.5 7.99992C21.5 4.50992 18.2 2.25992 18.06 2.16992ZM17.5 9.99987C16.3954 9.99987 15.5 9.10444 15.5 7.99987C15.6384 6.54112 16.3595 5.19991 17.5 4.27987C18.645 5.19617 19.3671 6.53943 19.5 7.99987C19.5 9.10444 18.6046 9.99987 17.5 9.99987ZM13.06 12.17C12.7217 11.9414 12.2783 11.9414 11.94 12.17C11.8 12.27 8.5 14.55 8.5 18C8.5 20.2092 10.2909 22 12.5 22C14.7091 22 16.5 20.2092 16.5 18C16.5 14.51 13.2 12.26 13.06 12.17ZM12.5 20C11.3954 20 10.5 19.1046 10.5 18C10.6385 16.5412 11.3595 15.2 12.5 14.28C13.645 15.1963 14.3672 16.5396 14.5 18C14.5 18.5304 14.2893 19.0391 13.9142 19.4142C13.5392 19.7893 13.0304 20 12.5 20Z" fill="#171E2B"/>
</svg>
