<svg width="24" height="24" viewBox="0 0 24 24" fill="none" xmlns="http://www.w3.org/2000/svg">
<path fill-rule="evenodd" clip-rule="evenodd" d="M5 12C4.44772 12 4 12.4477 4 13C4 13.5523 4.44772 14 5 14C7.76142 14 10 16.2386 10 19C10 19.5523 10.4477 20 11 20C11.5523 20 12 19.5523 12 19C12 15.134 8.86599 12 5 12ZM5 4.00012C4.44772 4.00012 4 4.44784 4 5.00012C4 5.55241 4.44772 6.00012 5 6.00012C12.1797 6.00012 18 11.8204 18 19.0001C18 19.5524 18.4477 20.0001 19 20.0001C19.5523 20.0001 20 19.5524 20 19.0001C20 10.7159 13.2843 4.00012 5 4.00012ZM5 8.00025C4.44772 8.00025 4 8.44796 4 9.00025C4 9.55253 4.44772 10.0002 5 10.0002C9.97056 10.0002 14 14.0297 14 19.0002C14 19.5525 14.4477 20.0002 15 20.0002C15.5523 20.0002 16 19.5525 16 19.0002C16 12.9251 11.0751 8.00025 5 8.00025Z" fill="#171E2B"/>
</svg>
