<svg width="24" height="24" viewBox="0 0 24 24" fill="none" xmlns="http://www.w3.org/2000/svg">
<path fill-rule="evenodd" clip-rule="evenodd" d="M9 12H7C6.44772 12 6 12.4478 6 13C6 13.5523 6.44772 14 7 14H9C9.55229 14 10 13.5523 10 13C10 12.4478 9.55229 12 9 12ZM7.99999 9.99992H12C12.5523 9.99992 13 9.5522 13 8.99992C13 8.44763 12.5523 7.99992 12 7.99992H7.99999C7.4477 7.99992 6.99999 8.44763 6.99999 8.99992C6.99999 9.5522 7.4477 9.99992 7.99999 9.99992ZM9 15.9998H7C6.44772 15.9998 6 16.4475 6 16.9998C6 17.5521 6.44772 17.9998 7 17.9998H9C9.55229 17.9998 10 17.5521 10 16.9998C10 16.4475 9.55229 15.9998 9 15.9998ZM21 11.9999H18V2.99995C18.0014 2.64126 17.8106 2.30929 17.5 2.12995C17.1906 1.95131 16.8094 1.95131 16.5 2.12995L13.5 3.84995L10.5 2.12995C10.1906 1.95131 9.80939 1.95131 9.49999 2.12995L6.49999 3.84995L3.49999 2.12995C3.19059 1.95131 2.80939 1.95131 2.49999 2.12995C2.18936 2.30929 1.99857 2.64126 1.99999 2.99995V18.9999C1.99999 20.6568 3.34314 21.9999 4.99999 21.9999H19C20.6568 21.9999 22 20.6568 22 18.9999V12.9999C22 12.4477 21.5523 11.9999 21 11.9999ZM4.99999 19.9998C4.4477 19.9998 3.99999 19.5521 3.99999 18.9998V4.72979L5.99999 5.86979C6.31324 6.03341 6.68673 6.03341 6.99999 5.86979L9.99999 4.14979L13 5.86979C13.3132 6.03341 13.6867 6.03341 14 5.86979L16 4.72979V18.9998C16.0027 19.3409 16.0636 19.6791 16.18 19.9998H4.99999ZM20 18.9999C20 19.5522 19.5523 19.9999 19 19.9999C18.4477 19.9999 18 19.5522 18 18.9999V13.9999H20V18.9999ZM13.56 16.17C13.5043 16.1321 13.4437 16.1018 13.38 16.08C13.3204 16.0495 13.2562 16.0292 13.19 16.02C12.8638 15.9546 12.5264 16.0558 12.29 16.29C12.1073 16.4816 12.0037 16.7352 12 17C11.9984 17.13 12.0222 17.259 12.07 17.38C12.1244 17.5015 12.1987 17.613 12.29 17.71C12.3872 17.7983 12.4988 17.8693 12.62 17.92C12.862 18.0269 13.138 18.0269 13.38 17.92C13.5012 17.8693 13.6128 17.7983 13.71 17.71C13.8972 17.5212 14.0015 17.2658 14 17C13.9963 16.7352 13.8927 16.4816 13.71 16.29C13.6625 16.247 13.6124 16.2069 13.56 16.17ZM13.7 12.2899C13.4629 12.059 13.127 11.9604 12.8027 12.0264C12.4784 12.0925 12.2079 12.3147 12.08 12.6199C11.9536 12.9275 11.9884 13.2779 12.1729 13.5546C12.3574 13.8313 12.6674 13.9982 13 13.9999C13.5523 13.9999 14 13.5522 14 12.9999C13.9984 12.8692 13.9712 12.7401 13.92 12.6199C13.8718 12.4951 13.7967 12.3824 13.7 12.2899Z" fill="#171E2B"/>
</svg>
