<svg width="24" height="24" viewBox="0 0 24 24" fill="none" xmlns="http://www.w3.org/2000/svg">
<path fill-rule="evenodd" clip-rule="evenodd" d="M10 8H16C16.5523 8 17 7.55228 17 7C17 6.44772 16.5523 6 16 6H10C9.44772 6 9 6.44772 9 7C9 7.55228 9.44772 8 10 8ZM7.99998 11.9998H16C16.5523 11.9998 17 11.552 17 10.9998C17 10.4475 16.5523 9.99975 16 9.99975H7.99998C7.4477 9.99975 6.99998 10.4475 6.99998 10.9998C6.99998 11.552 7.4477 11.9998 7.99998 11.9998ZM7.99998 15.9999H16C16.5523 15.9999 17 15.5522 17 14.9999C17 14.4476 16.5523 13.9999 16 13.9999H7.99998C7.4477 13.9999 6.99998 14.4476 6.99998 14.9999C6.99998 15.5522 7.4477 15.9999 7.99998 15.9999ZM20 1.99988H4C3.44772 1.99988 3 2.44759 3 2.99988V20.9999C3 21.3786 3.214 21.7249 3.55279 21.8943C3.89157 22.0637 4.29698 22.0271 4.6 21.7999L6.67 20.2499L8.73 21.7999C9.08556 22.0665 9.57444 22.0665 9.93 21.7999L12 20.2499L14.07 21.7999C14.4256 22.0665 14.9144 22.0665 15.27 21.7999L17.33 20.2499L19.4 21.7999C19.7045 22.0268 20.1113 22.0617 20.45 21.8899C20.7863 21.7204 20.9989 21.3764 21 20.9999V2.99988C21 2.44759 20.5523 1.99988 20 1.99988ZM19 18.9998L17.93 18.1998C17.5745 17.9331 17.0856 17.9331 16.73 18.1998L14.67 19.7498L12.6 18.1998C12.2445 17.9331 11.7556 17.9331 11.4 18.1998L9.33002 19.7498L7.27002 18.1998C6.91446 17.9331 6.42557 17.9331 6.07002 18.1998L5.00002 18.9998V3.99975H19V18.9998Z" fill="#171E2B"/>
</svg>
