<svg width="90" height="90" viewBox="0 0 90 90" fill="none" xmlns="http://www.w3.org/2000/svg">
<path d="M34 62V45.5L41.5 44L43 61L37.5 66L34 62Z" fill="#F3CCD4"/>
<ellipse cx="37.5394" cy="23.0394" rx="12.4342" ry="12.4342" fill="#F3CCD4"/>
<path d="M38.0085 9.28125C30.4674 9.28125 24.3312 15.4172 24.3312 22.9585C24.3312 30.4996 30.4671 36.6358 38.0085 36.6358C45.5496 36.6358 51.6858 30.4972 51.6858 22.9585C51.6858 15.4174 45.5471 9.28125 38.0085 9.28125ZM38.0085 11.4688C44.3659 11.4688 49.4983 16.5984 49.4983 22.9585C49.4983 29.3159 44.3659 34.4483 38.0085 34.4483C31.6511 34.4483 26.5187 29.3159 26.5187 22.9585C26.5187 16.6011 31.6483 11.4688 38.0085 11.4688ZM38.0085 38.2025C24.495 38.2025 13.5771 49.1126 13.5771 62.6261V71.6274H13.5743C13.5771 71.9173 13.6919 72.1962 13.897 72.4013C14.1048 72.6064 14.3837 72.7185 14.6736 72.7185H61.3412C61.9427 72.7157 62.4295 72.229 62.4322 71.6275V62.6262C62.4322 49.1127 51.522 38.2025 38.0085 38.2025L38.0085 38.2025ZM38.0085 40.39C39.8761 40.39 41.6889 40.6196 43.4198 41.0489L41.9241 44.7267H34.5307V44.7239C34.4569 44.7157 34.3831 44.713 34.3092 44.7157C34.2846 44.7185 34.26 44.7212 34.2382 44.7239H34.085L32.5921 41.0462C34.3257 40.6169 36.1386 40.3872 38.0089 40.3872L38.0085 40.39ZM45.5174 41.7024C54.1225 44.7649 60.2447 52.9297 60.2447 62.6261V70.5312H52.5034V61.0924H52.5006C52.5061 60.7944 52.3913 60.5073 52.1807 60.2968C51.9702 60.0862 51.6831 59.9714 51.3878 59.9768C51.0952 59.9823 50.819 60.1026 50.6166 60.3104C50.417 60.521 50.3049 60.7999 50.3131 61.0925V70.5313L25.7039 70.5285V61.0897V61.0925C25.7094 60.7944 25.5946 60.5073 25.384 60.2968C25.1735 60.0862 24.8863 59.9714 24.591 59.9769C24.2985 59.9823 24.0223 60.1026 23.8199 60.3104C23.6203 60.521 23.5082 60.7999 23.5164 61.0925V70.5313H15.7674V62.6262C15.7674 52.9326 21.8924 44.7706 30.4975 41.7053L32.335 46.2362H32.3323C32.4827 46.6053 32.8245 46.8624 33.2237 46.9061L32.4143 62.0436H32.4116C32.3924 62.3717 32.5237 62.6944 32.7671 62.9159L37.2733 67.0093C37.6889 67.3866 38.326 67.3866 38.7417 67.0093L43.2398 62.9159C43.4831 62.6944 43.6144 62.3745 43.5952 62.0436L42.7886 46.9061H42.7913C43.1851 46.8596 43.5269 46.6053 43.6773 46.2362L45.5174 41.7024ZM35.4164 46.9114H40.598L41.3828 61.6471L38.0085 64.7233L34.6261 61.6471L35.4164 46.9114Z" fill="#C1002A"/>
<path d="M34.5 46L32 41L36.5 39L44.5 40L42.5 46H34.5Z" fill="#C1002A"/>
<circle cx="67" cy="69" r="14" fill="#F3CCD4" stroke="#C1002A" stroke-width="2"/>
<path d="M61.546 74.4694C63.3367 76.2551 65.8757 77.0744 68.3727 76.6706C70.8696 76.2669 73.0217 74.6894 74.1587 72.4301C75.295 70.1707 75.2797 67.5034 74.1157 65.2572C72.9518 63.0117 70.7817 61.4605 68.28 61.0867C65.7783 60.7128 63.2494 61.5617 61.4795 63.3697C59.7103 65.177 58.9148 67.723 59.3419 70.2165" stroke="#C1002A" stroke-width="2" stroke-linecap="round" stroke-linejoin="round"/>
<path d="M57.2795 68.7875L59.3897 70.8978L61.5 68.7875" stroke="#C1002A" stroke-width="2" stroke-linecap="round" stroke-linejoin="round"/>
</svg>
