<svg width="24" height="24" viewBox="0 0 24 24" fill="none" xmlns="http://www.w3.org/2000/svg">
<path fill-rule="evenodd" clip-rule="evenodd" d="M12 1.99988C6.47715 1.99988 2 6.47703 2 11.9999C2 17.5227 6.47715 21.9999 12 21.9999C17.5228 21.9999 22 17.5227 22 11.9999C22 9.34771 20.9464 6.80417 19.0711 4.92881C17.1957 3.05345 14.6522 1.99988 12 1.99988ZM12 19.9998C7.58174 19.9998 4.00002 16.418 4.00002 11.9998C4.00002 7.58148 7.58174 3.99975 12 3.99975C16.4183 3.99975 20 7.58148 20 11.9998C20 14.1215 19.1572 16.1563 17.6569 17.6566C16.1566 19.1569 14.1217 19.9998 12 19.9998ZM12 6C8.68628 6 5.99998 8.68629 5.99998 12C5.99998 15.3137 8.68628 18 12 18C15.3137 18 18 15.3137 18 12C18 10.4087 17.3678 8.88258 16.2426 7.75736C15.1174 6.63214 13.5913 6 12 6ZM12 15.9999C9.79086 15.9999 8 14.209 8 11.9999C8 9.79074 9.79086 7.99988 12 7.99988C14.2091 7.99988 16 9.79074 16 11.9999C16 13.0607 15.5786 14.0782 14.8284 14.8283C14.0783 15.5784 13.0609 15.9999 12 15.9999Z" fill="#171E2B"/>
</svg>
