<svg width="24" height="24" viewBox="0 0 24 24" fill="none" xmlns="http://www.w3.org/2000/svg">
<path fill-rule="evenodd" clip-rule="evenodd" d="M21 11.0001C20.4477 11.0001 20 11.4478 20 12.0001C20.0245 15.8638 17.3005 19.2 13.5099 19.9487C9.71936 20.6974 5.9315 18.6473 4.4853 15.0643C3.03909 11.4814 4.3425 7.37631 7.59068 5.28387C10.8389 3.19144 15.1156 3.70192 17.78 6.50009H15.38C14.8277 6.50009 14.38 6.94781 14.38 7.50009C14.38 8.05238 14.8277 8.50009 15.38 8.50009H19.91C20.4623 8.50009 20.91 8.05238 20.91 7.50009V3.00009C20.91 2.44781 20.4623 2.00009 19.91 2.00009C19.3577 2.00009 18.91 2.44781 18.91 3.00009V4.77009C15.4768 1.48823 10.2089 1.07394 6.3049 3.77878C2.40092 6.48363 0.938062 11.5613 2.80458 15.9286C4.67111 20.2959 9.35202 22.7479 14.005 21.7956C18.658 20.8433 21.9993 16.7495 22 12.0001C22 11.7349 21.8946 11.4805 21.7071 11.293C21.5195 11.1055 21.2652 11.0001 21 11.0001Z" fill="#171E2B"/>
</svg>
