<svg width="24" height="24" viewBox="0 0 24 24" fill="none" xmlns="http://www.w3.org/2000/svg">
<path fill-rule="evenodd" clip-rule="evenodd" d="M19.91 15.5099H15.38C14.8277 15.5099 14.38 15.9576 14.38 16.5099C14.38 17.0622 14.8277 17.5099 15.38 17.5099H17.78C15.5234 19.8681 12.0604 20.6189 9.02978 19.4071C5.99911 18.1953 4.00854 15.2638 4 11.9999C4 11.4476 3.55228 10.9999 3 10.9999C2.44772 10.9999 2 11.4476 2 11.9999C2.01081 15.9911 4.39389 19.5937 8.06274 21.1651C11.7316 22.7365 15.9835 21.9759 18.88 19.2299V20.9999C18.88 21.5522 19.3277 21.9999 19.88 21.9999C20.4323 21.9999 20.88 21.5522 20.88 20.9999V16.4999C20.8749 15.963 20.4467 15.526 19.91 15.5099ZM15 12C15 10.3431 13.6569 9 12 9C10.3431 9 9 10.3431 9 12C9 13.6569 10.3431 15 12 15C13.6569 15 15 13.6569 15 12ZM11 11.9999C11 11.4476 11.4477 10.9999 12 10.9999C12.5523 10.9999 13 11.4476 13 11.9999C13 12.5522 12.5523 12.9999 12 12.9999C11.4477 12.9999 11 12.5522 11 11.9999ZM12 1.99988C9.43638 2.00719 6.97349 2.99879 5.12 4.76988V2.99988C5.12 2.44759 4.67228 1.99988 4.12 1.99988C3.56771 1.99988 3.12 2.44759 3.12 2.99988V7.49988C3.12 8.05216 3.56771 8.49988 4.12 8.49988H8.62C9.17228 8.49988 9.62 8.05216 9.62 7.49988C9.62 6.94759 9.17228 6.49988 8.62 6.49988H6.22C8.47533 4.14294 11.9359 3.39148 14.9656 4.60074C17.9954 5.81 19.9874 8.73774 20 11.9999C20 12.5522 20.4477 12.9999 21 12.9999C21.5523 12.9999 22 12.5522 22 11.9999C22 9.34771 20.9464 6.80417 19.0711 4.92881C17.1957 3.05345 14.6522 1.99988 12 1.99988Z" fill="#171E2B"/>
</svg>
