<svg width="24" height="24" viewBox="0 0 24 24" fill="none" xmlns="http://www.w3.org/2000/svg">
<path fill-rule="evenodd" clip-rule="evenodd" d="M12 1.99988C6.47715 1.99988 2 6.47703 2 11.9999C2 17.5227 6.47715 21.9999 12 21.9999C17.5228 21.9999 22 17.5227 22 11.9999C22 9.34771 20.9464 6.80417 19.0711 4.92881C17.1957 3.05345 14.6522 1.99988 12 1.99988ZM12 19.9998C7.58172 19.9998 4 16.418 4 11.9998C4 7.58148 7.58172 3.99975 12 3.99975C16.4183 3.99975 20 7.58148 20 11.9998C20 14.1215 19.1571 16.1563 17.6569 17.6566C16.1566 19.1569 14.1217 19.9998 12 19.9998ZM12.5 6.99975H9.5C8.94772 6.99975 8.5 7.44747 8.5 7.99975V15.9998C8.5 16.552 8.94772 16.9998 9.5 16.9998C10.0523 16.9998 10.5 16.552 10.5 15.9998V13.9998H12.5C13.0523 13.9998 13.5 14.4475 13.5 14.9998V15.9998C13.5 16.552 13.9477 16.9998 14.5 16.9998C15.0523 16.9998 15.5 16.552 15.5 15.9998V14.9998C15.4956 14.2597 15.2178 13.5474 14.72 12.9998C15.2178 12.4521 15.4956 11.7398 15.5 10.9998V9.99975C15.5 8.3429 14.1569 6.99975 12.5 6.99975ZM13.5 11C13.5 11.5523 13.0523 12 12.5 12H10.5V9H12.5C13.0523 9 13.5 9.44772 13.5 10V11Z" fill="#171E2B"/>
</svg>
