<svg width="24" height="24" viewBox="0 0 24 24" fill="none" xmlns="http://www.w3.org/2000/svg">
<path fill-rule="evenodd" clip-rule="evenodd" d="M5.5 17.4999H4V6.49994H11.8L11 7.28994C10.6079 7.6793 10.6056 8.31282 10.995 8.70494C11.3844 9.09706 12.0179 9.0993 12.41 8.70994L14.91 6.20994C15.0993 6.02217 15.2058 5.76658 15.2058 5.49994C15.2058 5.2333 15.0993 4.9777 14.91 4.78994L12.41 2.28994C12.02 1.90221 11.39 1.90221 11 2.28994C10.8107 2.4777 10.7042 2.7333 10.7042 2.99994C10.7042 3.26658 10.8107 3.52217 11 3.70994L11.79 4.49994H3C2.44772 4.49994 2 4.94765 2 5.49994V18.4999C2 19.0522 2.44772 19.4999 3 19.4999H5.5C6.05229 19.4999 6.5 19.0522 6.5 18.4999C6.5 17.9477 6.05229 17.4999 5.5 17.4999ZM21 4.49997H18.5C17.9477 4.49997 17.5 4.94769 17.5 5.49997C17.5 6.05226 17.9477 6.49997 18.5 6.49997H20V17.5H11.63L12.42 16.71C12.6093 16.5222 12.7158 16.2666 12.7158 16C12.7158 15.7333 12.6093 15.4777 12.42 15.29C12.03 14.9023 11.4 14.9023 11.01 15.29L8.50999 17.79C8.32068 17.9777 8.21419 18.2333 8.21419 18.5C8.21419 18.7666 8.32068 19.0222 8.50999 19.21L11.01 21.71C11.4021 22.0993 12.0356 22.0971 12.425 21.705C12.8144 21.3129 12.8121 20.6793 12.42 20.29L11.63 19.5H21C21.5523 19.5 22 19.0523 22 18.5V5.49997C22 4.94769 21.5523 4.49997 21 4.49997Z" fill="#171E2B"/>
</svg>
