<svg width="24" height="24" viewBox="0 0 24 24" fill="none" xmlns="http://www.w3.org/2000/svg">
<path fill-rule="evenodd" clip-rule="evenodd" d="M17.7782 10.7071L10.7071 17.7781C10.3166 18.1686 10.3166 18.8018 10.7071 19.1923C11.0976 19.5829 11.7308 19.5829 12.1213 19.1923L19.1924 12.1213C19.5829 11.7307 19.5829 11.0976 19.1924 10.7071C18.8019 10.3165 18.1687 10.3165 17.7782 10.7071Z" fill="#171E2B"/>
<path fill-rule="evenodd" clip-rule="evenodd" d="M17.6568 4.92899L4.92891 17.6569C4.53838 18.0474 4.53838 18.6806 4.92891 19.0711C5.31943 19.4616 5.9526 19.4616 6.34312 19.0711L19.071 6.3432C19.4616 5.95268 19.4616 5.31951 19.071 4.92899C18.6805 4.53846 18.0474 4.53846 17.6568 4.92899Z" fill="#171E2B"/>
</svg>
