<svg width="24" height="24" viewBox="0 0 24 24" fill="none" xmlns="http://www.w3.org/2000/svg">
<path fill-rule="evenodd" clip-rule="evenodd" d="M16.84 11.6298C17.6492 11.6398 18.4281 11.3225 19 10.7498L21.83 7.91981C22.2177 7.52978 22.2177 6.89985 21.83 6.50981C21.6422 6.3205 21.3866 6.21401 21.12 6.21401C20.8533 6.21401 20.5977 6.3205 20.41 6.50981L17.55 9.32981C17.3622 9.51912 17.1066 9.62561 16.84 9.62561C16.5733 9.62561 16.3177 9.51912 16.13 9.32981L19.67 5.79981C19.9236 5.54615 20.0227 5.17644 19.9298 4.82993C19.837 4.48343 19.5664 4.21278 19.2199 4.11993C18.8733 4.02709 18.5036 4.12615 18.25 4.37981L14.72 7.91981C14.3322 7.52978 14.3322 6.89985 14.72 6.50981L17.55 3.67981C17.8036 3.42615 17.9027 3.05644 17.8099 2.70993C17.717 2.36343 17.4464 2.09278 17.0999 1.99993C16.7533 1.90709 16.3836 2.00615 16.13 2.25981L13.3 5.08981C12.1302 6.26108 12.1302 8.15854 13.3 9.32981L12 10.6198L3.72997 2.31981L3.62997 2.25981C3.57885 2.21521 3.52161 2.17817 3.45997 2.14981L3.27997 2.07981L3.15997 1.99981H3.08997H2.88997C2.83035 1.99028 2.7696 1.99028 2.70997 1.99981C2.64944 2.02185 2.59223 2.05213 2.53997 2.08981L2.37997 2.18981H2.30997L2.24997 2.28981C2.20765 2.34261 2.17079 2.39957 2.13997 2.45981C2.11069 2.52079 2.08725 2.58441 2.06997 2.64981C2.06997 2.64981 2.06997 2.71981 2.06997 2.75981C1.57797 6.18918 2.73032 9.64995 5.17997 12.0998L7.81997 14.7298L2.40997 20.1298C2.22066 20.3176 2.11418 20.5732 2.11418 20.8398C2.11418 21.1064 2.22066 21.362 2.40997 21.5498C2.59869 21.737 2.85417 21.8413 3.11997 21.8398C3.38578 21.8413 3.64126 21.737 3.82997 21.5498L9.89997 15.5698L12.73 12.7398L14.73 10.7398C15.288 11.3038 16.0466 11.6238 16.84 11.6298ZM9.18996 13.45L6.55996 10.81C5.11842 9.34871 4.21581 7.44124 3.99996 5.39998L10.61 12L9.18996 13.45ZM15.43 14.0198C15.0378 13.6249 14.3998 13.6227 14.005 14.0148C13.6101 14.4069 13.6078 15.0449 14 15.4398L20.3 21.7398C20.491 21.9136 20.7418 22.0068 21 21.9998C21.2658 22.0013 21.5212 21.897 21.71 21.7098C21.8993 21.522 22.0058 21.2664 22.0058 20.9998C22.0058 20.7332 21.8993 20.4776 21.71 20.2898L15.43 14.0198Z" fill="#171E2B"/>
</svg>
