<svg width="24" height="24" viewBox="0 0 24 24" fill="none" xmlns="http://www.w3.org/2000/svg">
<path fill-rule="evenodd" clip-rule="evenodd" d="M3.63999 9.56005C3.21473 9.20658 2.58346 9.26479 2.22999 9.69005C1.87653 10.1153 1.93473 10.7466 2.35999 11.1L3.43999 12L2.35999 12.9C2.15549 13.0696 2.02685 13.3135 2.00246 13.5781C1.97807 13.8426 2.05993 14.106 2.22999 14.31C2.39954 14.5146 2.64349 14.6432 2.90802 14.6676C3.17255 14.692 3.43591 14.6101 3.63999 14.44L5.63999 12.77C5.86926 12.5801 6.00195 12.2978 6.00195 12C6.00195 11.7023 5.86926 11.42 5.63999 11.23L3.63999 9.56005ZM9.00001 4.99988C8.44773 4.99988 8.00001 5.44759 8.00001 5.99988V17.9999C8.00001 18.5522 8.44773 18.9999 9.00001 18.9999C9.5523 18.9999 10 18.5522 10 17.9999V5.99988C10 5.44759 9.5523 4.99988 9.00001 4.99988ZM13 6.99988H21C21.5523 6.99988 22 6.55216 22 5.99988C22 5.44759 21.5523 4.99988 21 4.99988H13C12.4477 4.99988 12 5.44759 12 5.99988C12 6.55216 12.4477 6.99988 13 6.99988ZM21 16.9999H13C12.4477 16.9999 12 17.4476 12 17.9999C12 18.5522 12.4477 18.9999 13 18.9999H21C21.5523 18.9999 22 18.5522 22 17.9999C22 17.4476 21.5523 16.9999 21 16.9999ZM21 9H13C12.4477 9 12 9.44772 12 10C12 10.5523 12.4477 11 13 11H21C21.5523 11 22 10.5523 22 10C22 9.44772 21.5523 9 21 9ZM21 12.9998H13C12.4477 12.9998 12 13.4475 12 13.9998C12 14.552 12.4477 14.9998 13 14.9998H21C21.5523 14.9998 22 14.552 22 13.9998C22 13.4475 21.5523 12.9998 21 12.9998Z" fill="#171E2B"/>
</svg>
