<svg width="24" height="24" viewBox="0 0 24 24" fill="none" xmlns="http://www.w3.org/2000/svg">
<path fill-rule="evenodd" clip-rule="evenodd" d="M19 6.49988H13V3.99988H17.62C18.1723 3.99988 18.62 3.55216 18.62 2.99988C18.62 2.44759 18.1723 1.99988 17.62 1.99988H6.38002C5.82773 1.99988 5.38002 2.44759 5.38002 2.99988C5.38002 3.55216 5.82773 3.99988 6.38002 3.99988H11V6.49988H5.00002C3.34316 6.49988 2.00002 7.84302 2.00002 9.49988V18.9999C2.00002 20.6567 3.34316 21.9999 5.00002 21.9999H19C20.6569 21.9999 22 20.6567 22 18.9999V9.49988C22 7.84302 20.6569 6.49988 19 6.49988ZM11 19.9998H5.00003C4.44775 19.9998 4.00003 19.552 4.00003 18.9998V15.2498H11C10.9944 15.2929 10.9944 15.3366 11 15.3798V19.8798C10.9955 19.9196 10.9955 19.9599 11 19.9998ZM20 18.9998C20 19.552 19.5523 19.9998 19 19.9998H13C13.0046 19.9599 13.0046 19.9196 13 19.8798V15.3798C13.0057 15.3366 13.0057 15.2929 13 15.2498H20V18.9998ZM20 13.2498H4.00003V9.49975C4.00003 8.94747 4.44775 8.49975 5.00003 8.49975H19C19.5523 8.49975 20 8.94747 20 9.49975V13.2498Z" fill="#171E2B"/>
</svg>
