<svg width="24" height="24" viewBox="0 0 24 24" fill="none" xmlns="http://www.w3.org/2000/svg">
<path fill-rule="evenodd" clip-rule="evenodd" d="M12 6C6.30002 6 2.00002 8.15 2.00002 11C2.00002 13.45 5.19002 15.38 9.71002 15.88L9.29002 16.29C9.1007 16.4778 8.99422 16.7334 8.99422 17C8.99422 17.2666 9.1007 17.5222 9.29002 17.71C9.47778 17.8993 9.73338 18.0058 10 18.0058C10.2667 18.0058 10.5222 17.8993 10.71 17.71L12.71 15.71C12.8011 15.6149 12.8724 15.5028 12.92 15.38C13.02 15.1365 13.02 14.8635 12.92 14.62C12.8724 14.4973 12.8011 14.3851 12.71 14.29L10.71 12.29C10.3179 11.8979 9.68214 11.8979 9.29002 12.29C8.89789 12.6821 8.89789 13.3179 9.29002 13.71L9.41002 13.82C6.00002 13.34 4.00002 12 4.00002 11C4.00002 9.78 7.12002 8 12 8C16.88 8 20 9.78 20 11C20 11.83 18.55 13 15.79 13.6C15.5261 13.6506 15.2937 13.8052 15.145 14.0291C14.9964 14.2529 14.9442 14.5272 15 14.79C15.0552 15.0502 15.2117 15.2777 15.435 15.4222C15.6584 15.5667 15.93 15.6163 16.19 15.56C19.84 14.76 22 13.06 22 11C22 8.15 17.7 6 12 6Z" fill="#171E2B"/>
</svg>
