<svg width="24" height="24" viewBox="0 0 24 24" fill="none" xmlns="http://www.w3.org/2000/svg">
<path fill-rule="evenodd" clip-rule="evenodd" d="M3 14.0002C2.44772 14.0002 2 14.448 2 15.0002C2 15.5525 2.44772 16.0002 3 16.0002C4.65685 16.0002 6 17.3434 6 19.0002C6 19.5525 6.44772 20.0002 7 20.0002C7.55228 20.0002 8 19.5525 8 19.0002C8 16.2388 5.76142 14.0002 3 14.0002ZM2.29 18.2902C1.90183 18.6816 1.90356 19.3132 2.29386 19.7025C2.68416 20.0917 3.31584 20.0917 3.70614 19.7025C4.09644 19.3132 4.09817 18.6816 3.71 18.2902C3.52223 18.1009 3.26664 17.9944 3 17.9944C2.73336 17.9944 2.47777 18.1009 2.29 18.2902ZM19 4.00012H5C3.34315 4.00012 2 5.34327 2 7.00012C2 7.35739 2.1906 7.68751 2.5 7.86615C2.8094 8.04478 3.1906 8.04478 3.5 7.86615C3.8094 7.68751 4 7.35739 4 7.00012C4 6.44784 4.44772 6.00012 5 6.00012H19C19.5523 6.00012 20 6.44784 20 7.00012V17.0001C20 17.5524 19.5523 18.0001 19 18.0001H15C14.4477 18.0001 14 18.4478 14 19.0001C14 19.5524 14.4477 20.0001 15 20.0001H19C20.6569 20.0001 22 18.657 22 17.0001V7.00012C22 5.34327 20.6569 4.00012 19 4.00012ZM3 10.0001C2.44772 10.0001 2 10.4478 2 11.0001C2 11.5524 2.44772 12.0001 3 12.0001C6.86599 12.0001 10 15.1341 10 19.0001C10 19.5524 10.4477 20.0001 11 20.0001C11.5523 20.0001 12 19.5524 12 19.0001C12 14.0296 7.97056 10.0001 3 10.0001Z" fill="#171E2B"/>
</svg>
