<svg width="24" height="24" viewBox="0 0 24 24" fill="none" xmlns="http://www.w3.org/2000/svg">
<path fill-rule="evenodd" clip-rule="evenodd" d="M2.88002 16.8799C2.07741 17.6278 1.74703 18.7542 2.01848 19.8171C2.28994 20.88 3.11993 21.71 4.18287 21.9815C5.2458 22.2529 6.37214 21.9226 7.12002 21.1199C8.28984 19.9487 8.28984 18.0512 7.12002 16.8799C5.93161 15.7523 4.06844 15.7523 2.88002 16.8799ZM5.71001 19.7098C5.52224 19.8991 5.26664 20.0056 5.00001 20.0056C4.73337 20.0056 4.47777 19.8991 4.29001 19.7098C4.10069 19.5221 3.99421 19.2665 3.99421 18.9998C3.99421 18.7332 4.10069 18.4776 4.29001 18.2898C4.47777 18.1005 4.73337 17.994 5.00001 17.994C5.26664 17.994 5.52224 18.1005 5.71001 18.2898C5.89932 18.4776 6.0058 18.7332 6.0058 18.9998C6.0058 19.2665 5.89932 19.5221 5.71001 19.7098ZM5.00004 12C4.44776 12 4.00004 12.4477 4.00004 13C4.00004 13.5523 4.44776 14 5.00004 14C7.76147 14 10 16.2386 10 19C10 19.5523 10.4478 20 11 20C11.5523 20 12 19.5523 12 19C12 15.134 8.86604 12 5.00004 12ZM5.00004 7.99988C4.44776 7.99988 4.00004 8.44759 4.00004 8.99988C4.00004 9.55216 4.44776 9.99988 5.00004 9.99988C9.97061 9.99988 14 14.0293 14 18.9999C14 19.5522 14.4478 19.9999 15 19.9999C15.5523 19.9999 16 19.5522 16 18.9999C16 12.9247 11.0752 7.99988 5.00004 7.99988Z" fill="#171E2B"/>
</svg>
