<svg width="24" height="24" viewBox="0 0 24 24" fill="none" xmlns="http://www.w3.org/2000/svg">
<path fill-rule="evenodd" clip-rule="evenodd" d="M2.87998 16.88C1.71017 18.0512 1.71017 19.9487 2.87998 21.12C4.05126 22.2898 5.94872 22.2898 7.11999 21.12C8.22142 19.9379 8.18892 18.0959 7.04647 16.9535C5.90402 15.811 4.06202 15.7785 2.87998 16.88ZM5.70997 19.7102C5.31785 20.1023 4.6821 20.1023 4.28997 19.7102C3.89785 19.3181 3.89785 18.6823 4.28997 18.2902C4.47774 18.1009 4.73334 17.9944 4.99997 17.9944C5.26661 17.9944 5.52221 18.1009 5.70997 18.2902C5.89929 18.478 6.00577 18.7336 6.00577 19.0002C6.00577 19.2668 5.89929 19.5224 5.70997 19.7102ZM4.99999 12C4.44771 12 3.99999 12.4477 3.99999 13C3.99999 13.5523 4.44771 14 4.99999 14C7.76141 14 9.99999 16.2386 9.99999 19C9.99999 19.5523 10.4477 20 11 20C11.5523 20 12 19.5523 12 19C12 15.134 8.86598 12 4.99999 12ZM4.99999 8.00025C4.44771 8.00025 3.99999 8.44796 3.99999 9.00025C3.99999 9.55253 4.44771 10.0002 4.99999 10.0002C9.97055 10.0002 14 14.0297 14 19.0002C14 19.5525 14.4477 20.0002 15 20.0002C15.5523 20.0002 16 19.5525 16 19.0002C15.9922 16.0842 14.8353 13.2888 12.78 11.2202C10.7114 9.16496 7.916 8.00799 4.99999 8.00025ZM15.61 8.39012C12.7888 5.58766 8.97654 4.01031 4.99999 4.00012C4.64272 4.00012 4.3126 4.19072 4.13397 4.50012C3.95533 4.80952 3.95533 5.19072 4.13397 5.50012C4.3126 5.80952 4.64272 6.00012 4.99999 6.00012C12.1797 6.00012 18 11.8204 18 19.0001C18 19.5524 18.4477 20.0001 19 20.0001C19.5523 20.0001 20 19.5524 20 19.0001C19.9898 15.0236 18.4125 11.2113 15.61 8.39012Z" fill="#171E2B"/>
</svg>
