<svg width="24" height="24" viewBox="0 0 24 24" fill="none" xmlns="http://www.w3.org/2000/svg">
<path fill-rule="evenodd" clip-rule="evenodd" d="M21 1.99988H3C2.44772 1.99988 2 2.44759 2 2.99988V20.9999C2 21.5522 2.44772 21.9999 3 21.9999H9C9.55228 21.9999 10 21.5522 10 20.9999V9.99988H21C21.5523 9.99988 22 9.55216 22 8.99988V2.99988C22 2.44759 21.5523 1.99988 21 1.99988ZM20 7.99975H18V6.99975C18 6.44747 17.5523 5.99975 17 5.99975C16.4477 5.99975 16 6.44747 16 6.99975V7.99975H14V6.99975C14 6.44747 13.5523 5.99975 13 5.99975C12.4477 5.99975 12 6.44747 12 6.99975V7.99975H10V6.99975C10 6.44747 9.55229 5.99975 9 5.99975C8.44772 5.99975 8 6.44747 8 6.99975V7.99975H7C6.44772 7.99975 6 8.44747 6 8.99975C6 9.55204 6.44772 9.99975 7 9.99975H8V11.9998H7C6.44772 11.9998 6 12.4475 6 12.9998C6 13.552 6.44772 13.9998 7 13.9998H8V15.9998H7C6.44772 15.9998 6 16.4475 6 16.9998C6 17.552 6.44772 17.9998 7 17.9998H8V19.9998H4V3.99975H20V7.99975Z" fill="#171E2B"/>
</svg>
