<svg width="24" height="24" viewBox="0 0 24 24" fill="none" xmlns="http://www.w3.org/2000/svg">
<path fill-rule="evenodd" clip-rule="evenodd" d="M22.61 7.04987L17 1.38987C16.8113 1.20268 16.5558 1.09833 16.29 1.09987C16.0277 1.10097 15.7763 1.20513 15.59 1.38987L1.39001 15.5399C1.00228 15.9299 1.00228 16.5598 1.39001 16.9499L7.05001 22.6099C7.23872 22.7971 7.4942 22.9014 7.76001 22.8999C8.02235 22.8988 8.27374 22.7946 8.46001 22.6099L11.29 19.7799L19.78 11.2899L22.61 8.45987C22.9977 8.06983 22.9977 7.43991 22.61 7.04987ZM19.07 9.17005L18.36 8.46005C17.97 8.07232 17.34 8.07232 16.95 8.46005C16.7607 8.64781 16.6542 8.90341 16.6542 9.17005C16.6542 9.43669 16.7607 9.69228 16.95 9.88005L17.66 10.59L16.24 12L14.12 9.88005C13.7232 9.54027 13.1318 9.56312 12.7624 9.93248C12.3931 10.3019 12.3702 10.8933 12.71 11.29L14.83 13.41L13.41 14.83L12.71 14.12C12.3179 13.7279 11.6821 13.7279 11.29 14.12C10.8979 14.5122 10.8979 15.1479 11.29 15.54L12 16.24L10.59 17.66L8.46001 15.54C8.06997 15.1523 7.44004 15.1523 7.05001 15.54C6.66228 15.9301 6.66228 16.56 7.05001 16.95L9.17001 19.07L7.76001 20.49L3.51001 16.24L16.24 3.51005L20.49 7.76005L19.07 9.17005Z" fill="#171E2B"/>
</svg>
