<svg width="24" height="24" viewBox="0 0 24 24" fill="none" xmlns="http://www.w3.org/2000/svg">
<path fill-rule="evenodd" clip-rule="evenodd" d="M9.08002 12.21L10.58 10.71C10.7693 10.5223 10.8758 10.2667 10.8758 10C10.8758 9.73339 10.7693 9.4778 10.58 9.29003L9.08002 7.79003C8.6879 7.39791 8.05214 7.39791 7.66002 7.79003C7.2679 8.18215 7.2679 8.81791 7.66002 9.21003L8.46002 10L7.66002 10.79C7.47071 10.9778 7.36422 11.2334 7.36422 11.5C7.36422 11.7667 7.47071 12.0223 7.66002 12.21C7.84874 12.3972 8.10422 12.5016 8.37002 12.5C8.63583 12.5016 8.8913 12.3972 9.08002 12.21ZM8.36002 15.3299C7.94056 15.6822 7.88259 16.3064 8.23002 16.7299C8.39957 16.9344 8.64352 17.0631 8.90805 17.0875C9.17258 17.1118 9.43594 17.03 9.64002 16.8599C11.0174 15.7494 12.9826 15.7494 14.36 16.8599C14.5641 17.03 14.8275 17.1118 15.092 17.0875C15.3565 17.0631 15.6005 16.9344 15.77 16.7299C16.1174 16.3064 16.0595 15.6822 15.64 15.3299C13.5142 13.6211 10.4859 13.6211 8.36002 15.3299ZM16.58 7.78982C16.3923 7.60051 16.1367 7.49403 15.87 7.49403C15.6034 7.49403 15.3478 7.60051 15.16 7.78982L13.66 9.28983C13.4707 9.47759 13.3642 9.73319 13.3642 9.99983C13.3642 10.2665 13.4707 10.5221 13.66 10.7098L15.16 12.2098C15.3487 12.397 15.6042 12.5014 15.87 12.4998C16.1358 12.5014 16.3913 12.397 16.58 12.2098C16.7693 12.0221 16.8758 11.7665 16.8758 11.4998C16.8758 11.2332 16.7693 10.9776 16.58 10.7898L15.79 9.99983L16.58 9.20983C16.7693 9.02206 16.8758 8.76646 16.8758 8.49983C16.8758 8.23319 16.7693 7.97759 16.58 7.78982ZM12 1.99988C6.47717 1.99988 2.00002 6.47703 2.00002 11.9999C2.00002 17.5227 6.47717 21.9999 12 21.9999C17.5229 21.9999 22 17.5227 22 11.9999C22 9.34771 20.9464 6.80417 19.0711 4.92881C17.1957 3.05345 14.6522 1.99988 12 1.99988ZM12 19.9998C7.58175 19.9998 4.00003 16.418 4.00003 11.9998C4.00003 7.58148 7.58175 3.99975 12 3.99975C16.4183 3.99975 20 7.58148 20 11.9998C20 14.1215 19.1572 16.1563 17.6569 17.6566C16.1566 19.1569 14.1218 19.9998 12 19.9998Z" fill="#171E2B"/>
</svg>
