<svg width="24" height="24" viewBox="0 0 24 24" fill="none" xmlns="http://www.w3.org/2000/svg">
<path fill-rule="evenodd" clip-rule="evenodd" d="M12 1.99988C7.15631 2.01395 3.01911 5.49732 2.18016 10.2678C1.34121 15.0382 4.04174 19.7241 8.58996 21.3899H8.64996C10.8141 22.1762 13.1858 22.1762 15.35 21.3899H15.41C19.9582 19.7241 22.6587 15.0382 21.8198 10.2678C20.9808 5.49732 16.8436 2.01395 12 1.99988ZM14 19.74C12.6892 20.0868 11.3107 20.0868 9.99996 19.74V16.61C11.2247 15.8491 12.7752 15.8491 14 16.61V19.74ZM15.9999 18.9198V10.9998C16.5522 10.9998 16.9999 10.552 16.9999 9.99976C16.9999 9.44747 16.5522 8.99976 15.9999 8.99976H13.9999C13.4477 8.99976 12.9999 9.44747 12.9999 9.99976C12.9999 10.552 13.4477 10.9998 13.9999 10.9998V14.3898C12.7059 13.9322 11.294 13.9322 9.99994 14.3898V10.9998C10.5522 10.9998 10.9999 10.552 10.9999 9.99976C10.9999 9.44747 10.5522 8.99976 9.99994 8.99976H7.99994C7.44765 8.99976 6.99994 9.44747 6.99994 9.99976C6.99994 10.552 7.44765 10.9998 7.99994 10.9998V18.9198C4.86419 17.1093 3.33539 13.4185 4.27253 9.921C5.20968 6.42353 8.37909 3.99155 11.9999 3.99155C15.6208 3.99155 18.7902 6.42353 19.7273 9.921C20.6645 13.4185 19.1357 17.1093 15.9999 18.9198Z" fill="#171E2B"/>
</svg>
