<svg width="24" height="24" viewBox="0 0 24 24" fill="none" xmlns="http://www.w3.org/2000/svg">
<path fill-rule="evenodd" clip-rule="evenodd" d="M12 1.99988C7.15637 2.01395 3.01917 5.49732 2.18022 10.2678C1.34127 15.0382 4.0418 19.7241 8.59002 21.3899H8.65002C10.8141 22.1762 13.1859 22.1762 15.35 21.3899H15.41C19.9582 19.7241 22.6588 15.0382 21.8198 10.2678C20.9809 5.49732 16.8437 2.01395 12 1.99988ZM14 19.7397C12.6892 20.0865 11.3108 20.0865 10 19.7397V15.9998H14V19.7397ZM16 18.9198V10.9998C16.5523 10.9998 17 10.552 17 9.99976C17 9.44747 16.5523 8.99976 16 8.99976H14C13.4477 8.99976 13 9.44747 13 9.99976C13 10.552 13.4477 10.9998 14 10.9998V13.9998H10V10.9998C10.5523 10.9998 11 10.552 11 9.99976C11 9.44747 10.5523 8.99976 10 8.99976H8.00002C7.44774 8.99976 7.00002 9.44747 7.00002 9.99976C7.00002 10.552 7.44774 10.9998 8.00002 10.9998V18.9198C4.86428 17.1093 3.33547 13.4185 4.27262 9.921C5.20976 6.42353 8.37918 3.99155 12 3.99155C15.6209 3.99155 18.7903 6.42353 19.7274 9.921C20.6646 13.4185 19.1358 17.1093 16 18.9198Z" fill="#171E2B"/>
</svg>
