<svg width="24" height="24" viewBox="0 0 24 24" fill="none" xmlns="http://www.w3.org/2000/svg">
<path fill-rule="evenodd" clip-rule="evenodd" d="M9.00002 11.7097L9.29002 11.4097L9.58002 11.7097C9.76779 11.899 10.0234 12.0055 10.29 12.0055C10.5567 12.0055 10.8123 11.899 11 11.7097C11.1893 11.522 11.2958 11.2664 11.2958 10.9997C11.2958 10.7331 11.1893 10.4775 11 10.2897L10.7 9.99972L11 9.70972C11.3921 9.30655 11.3832 8.66184 10.98 8.26972C10.5769 7.87759 9.93214 7.88655 9.54002 8.28972L9.25002 8.58972L9.00002 8.28972C8.6079 7.88655 7.96319 7.87759 7.56002 8.26972C7.15686 8.66184 7.1479 9.30655 7.54002 9.70972L7.84002 9.99972L7.54002 10.2897C7.35071 10.4775 7.24422 10.7331 7.24422 10.9997C7.24422 11.2664 7.35071 11.522 7.54002 11.7097C7.72779 11.899 7.98339 12.0055 8.25002 12.0055C8.51666 12.0055 8.77226 11.899 8.96002 11.7097H9.00002ZM8.4 15.33C7.98054 15.6823 7.92258 16.3065 8.27 16.73C8.43955 16.9345 8.6835 17.0631 8.94803 17.0875C9.21256 17.1119 9.47592 17.03 9.68 16.86C11.0574 15.7495 13.0226 15.7495 14.4 16.86C14.6041 17.03 14.8674 17.1119 15.132 17.0875C15.3965 17.0631 15.6405 16.9345 15.81 16.73C16.1574 16.3065 16.0995 15.6823 15.68 15.33C13.5468 13.5997 10.4932 13.5997 8.36 15.33H8.4ZM12 1.99988C6.47717 1.99988 2.00002 6.47703 2.00002 11.9999C2.00002 17.5227 6.47717 21.9999 12 21.9999C17.5229 21.9999 22 17.5227 22 11.9999C22 9.34771 20.9464 6.80417 19.0711 4.92881C17.1957 3.05345 14.6522 1.99988 12 1.99988ZM12 19.9998C7.58175 19.9998 4.00003 16.418 4.00003 11.9998C4.00003 7.58148 7.58175 3.99975 12 3.99975C16.4183 3.99975 20 7.58148 20 11.9998C20 14.1215 19.1572 16.1563 17.6569 17.6566C16.1566 19.1569 14.1218 19.9998 12 19.9998ZM17 8.2897C16.8122 8.10039 16.5566 7.9939 16.29 7.9939C16.0234 7.9939 15.7678 8.10039 15.58 8.2897L15.29 8.5897L15 8.2897C14.6079 7.89758 13.9721 7.89758 13.58 8.2897C13.1879 8.68182 13.1879 9.31758 13.58 9.7097L13.88 9.9997L13.58 10.2897C13.3907 10.4775 13.2842 10.7331 13.2842 10.9997C13.2842 11.2663 13.3907 11.5219 13.58 11.7097C13.7678 11.899 14.0234 12.0055 14.29 12.0055C14.5566 12.0055 14.8122 11.899 15 11.7097L15.29 11.4097L15.58 11.7097C15.7678 11.899 16.0234 12.0055 16.29 12.0055C16.5566 12.0055 16.8122 11.899 17 11.7097C17.1893 11.5219 17.2958 11.2663 17.2958 10.9997C17.2958 10.7331 17.1893 10.4775 17 10.2897L16.7 9.9997L17 9.7097C17.1893 9.52193 17.2958 9.26634 17.2958 8.9997C17.2958 8.73306 17.1893 8.47747 17 8.2897Z" fill="#171E2B"/>
</svg>
