<svg width="24" height="24" viewBox="0 0 24 24" fill="none" xmlns="http://www.w3.org/2000/svg">
<path fill-rule="evenodd" clip-rule="evenodd" d="M8.36 15.3299C7.94054 15.6822 7.88258 16.3064 8.23 16.7299C8.39955 16.9344 8.64351 17.0631 8.90803 17.0875C9.17256 17.1118 9.43592 17.03 9.64 16.8599C11.0174 15.7494 12.9826 15.7494 14.36 16.8599C14.5399 17.009 14.7663 17.0904 15 17.0899C15.4169 17.0858 15.7875 16.8235 15.9299 16.4317C16.0724 16.0399 15.9569 15.6008 15.64 15.3299C13.5142 13.6211 10.4859 13.6211 8.36 15.3299ZM9.21001 10.5398C9.60005 10.9275 10.23 10.9275 10.62 10.5398C11.0077 10.1498 11.0077 9.51986 10.62 9.12982C9.4316 8.00219 7.56842 8.00219 6.38001 9.12982C6.09463 9.37421 5.97033 9.75794 6.0582 10.1232C6.14607 10.4885 6.43129 10.7738 6.79659 10.8616C7.16189 10.9495 7.54562 10.8252 7.79001 10.5398C7.97778 10.3505 8.23337 10.244 8.50001 10.244C8.76665 10.244 9.02224 10.3505 9.21001 10.5398ZM12 1.99988C6.47715 1.99988 2 6.47703 2 11.9999C2 17.5227 6.47715 21.9999 12 21.9999C17.5228 21.9999 22 17.5227 22 11.9999C22 9.34771 20.9464 6.80417 19.0711 4.92881C17.1957 3.05345 14.6522 1.99988 12 1.99988ZM12 19.9998C7.58171 19.9998 3.99999 16.418 3.99999 11.9998C3.99999 7.58148 7.58171 3.99975 12 3.99975C16.4183 3.99975 20 7.58148 20 11.9998C20 14.1215 19.1571 16.1563 17.6568 17.6566C16.1566 19.1569 14.1217 19.9998 12 19.9998ZM17.62 9.12982C16.4316 8.00219 14.5684 8.00219 13.38 9.12982C13.0402 9.52658 13.0631 10.118 13.4324 10.4874C13.8018 10.8568 14.3932 10.8796 14.79 10.5398C14.9778 10.3505 15.2334 10.244 15.5 10.244C15.7666 10.244 16.0222 10.3505 16.21 10.5398C16.6 10.9275 17.23 10.9275 17.62 10.5398C18.0077 10.1498 18.0077 9.51986 17.62 9.12982Z" fill="#171E2B"/>
</svg>
