<svg width="90" height="90" viewBox="0 0 90 90" fill="none" xmlns="http://www.w3.org/2000/svg">
<path d="M41 66V49.5L48.5 48L50 65L44.5 70L41 66Z" fill="#F3CCD4"/>
<ellipse cx="44.5394" cy="27.0395" rx="12.4342" ry="12.4342" fill="#F3CCD4"/>
<path d="M45.0085 13.2812C37.4674 13.2812 31.3312 19.4172 31.3312 26.9585C31.3312 34.4996 37.4671 40.6358 45.0085 40.6358C52.5496 40.6358 58.6858 34.4972 58.6858 26.9585C58.6858 19.4174 52.5471 13.2812 45.0085 13.2812ZM45.0085 15.4688C51.3659 15.4688 56.4983 20.5984 56.4983 26.9585C56.4983 33.3159 51.3659 38.4483 45.0085 38.4483C38.6511 38.4483 33.5187 33.3159 33.5187 26.9585C33.5187 20.6011 38.6483 15.4688 45.0085 15.4688ZM45.0085 42.2025C31.495 42.2025 20.5771 53.1126 20.5771 66.6261V75.6274H20.5743C20.5771 75.9173 20.6919 76.1962 20.897 76.4013C21.1048 76.6064 21.3837 76.7185 21.6736 76.7185H68.3412C68.9427 76.7157 69.4295 76.229 69.4322 75.6275V66.6262C69.4322 53.1127 58.522 42.2025 45.0085 42.2025L45.0085 42.2025ZM45.0085 44.39C46.8761 44.39 48.6889 44.6196 50.4198 45.0489L48.9241 48.7267H41.5307V48.7239C41.4569 48.7157 41.3831 48.713 41.3092 48.7157C41.2846 48.7185 41.26 48.7212 41.2382 48.7239H41.085L39.5921 45.0462C41.3257 44.6169 43.1386 44.3872 45.0089 44.3872L45.0085 44.39ZM52.5174 45.7024C61.1225 48.7649 67.2447 56.9297 67.2447 66.6261V74.5312H59.5034V65.0924H59.5006C59.5061 64.7944 59.3913 64.5073 59.1807 64.2968C58.9702 64.0862 58.6831 63.9714 58.3878 63.9768C58.0952 63.9823 57.819 64.1026 57.6166 64.3104C57.417 64.521 57.3049 64.7999 57.3131 65.0925V74.5313L32.7039 74.5285V65.0897V65.0925C32.7094 64.7944 32.5946 64.5073 32.384 64.2968C32.1735 64.0862 31.8863 63.9714 31.591 63.9769C31.2985 63.9823 31.0223 64.1026 30.8199 64.3104C30.6203 64.521 30.5082 64.7999 30.5164 65.0925V74.5313H22.7674V66.6262C22.7674 56.9326 28.8924 48.7706 37.4975 45.7053L39.335 50.2362H39.3323C39.4827 50.6053 39.8245 50.8624 40.2237 50.9061L39.4143 66.0436H39.4116C39.3924 66.3717 39.5237 66.6944 39.7671 66.9159L44.2733 71.0093C44.6889 71.3866 45.326 71.3866 45.7417 71.0093L50.2398 66.9159C50.4831 66.6944 50.6144 66.3745 50.5952 66.0436L49.7886 50.9061H49.7913C50.1851 50.8596 50.5269 50.6053 50.6773 50.2362L52.5174 45.7024ZM42.4164 50.9114H47.598L48.3828 65.6471L45.0085 68.7233L41.6261 65.6471L42.4164 50.9114Z" fill="#C1002A"/>
<path d="M41.5 50L39 45L43.5 43L51.5 44L49.5 50H41.5Z" fill="#C1002A"/>
</svg>
