<svg width="24" height="24" viewBox="0 0 24 24" fill="none" xmlns="http://www.w3.org/2000/svg">
<path fill-rule="evenodd" clip-rule="evenodd" d="M21.92 2.61988C21.8185 2.37553 21.6243 2.18135 21.38 2.07988C21.2598 2.02864 21.1307 2.00146 21 1.99988H17C16.4477 1.99988 16 2.44759 16 2.99988C16 3.55216 16.4477 3.99988 17 3.99988H18.59L12 10.5899L9.88 8.45988C9.48788 8.06775 8.85212 8.06775 8.46 8.45988C8.06788 8.852 8.06788 9.48775 8.46 9.87988L10.59 11.9999L4 18.5899V16.9999C4 16.4476 3.55228 15.9999 3 15.9999C2.44772 15.9999 2 16.4476 2 16.9999V20.9999C2.00158 21.1306 2.02876 21.2597 2.08 21.3799C2.18147 21.6242 2.37565 21.8184 2.62 21.9199C2.74022 21.9711 2.86932 21.9983 3 21.9999H7C7.55228 21.9999 8 21.5522 8 20.9999C8 20.4476 7.55228 19.9999 7 19.9999H5.41L12 13.4099L14.12 15.5399C14.3087 15.7271 14.5642 15.8314 14.83 15.8299C15.0958 15.8314 15.3513 15.7271 15.54 15.5399C15.7293 15.3521 15.8358 15.0965 15.8358 14.8299C15.8358 14.5632 15.7293 14.3076 15.54 14.1199L13.41 11.9999L20 5.40988V6.99988C20 7.55216 20.4477 7.99988 21 7.99988C21.5523 7.99988 22 7.55216 22 6.99988V2.99988C21.9984 2.8692 21.9712 2.7401 21.92 2.61988Z" fill="#171E2B"/>
</svg>
