<svg width="24" height="24" viewBox="0 0 24 24" fill="none" xmlns="http://www.w3.org/2000/svg">
<path fill-rule="evenodd" clip-rule="evenodd" d="M21 15.9999C20.4477 15.9999 20 16.4476 20 16.9999V18.5899L13.41 11.9999L15.54 9.87988C15.9321 9.48775 15.9321 8.852 15.54 8.45988C15.1479 8.06775 14.5121 8.06775 14.12 8.45988L12 10.5899L5.41 3.99988H7C7.55228 3.99988 8 3.55216 8 2.99988C8 2.44759 7.55228 1.99988 7 1.99988H3C2.86932 2.00146 2.74022 2.02864 2.62 2.07988C2.37565 2.18135 2.18147 2.37553 2.08 2.61988C2.02876 2.7401 2.00158 2.8692 2 2.99988V6.99988C2 7.55216 2.44772 7.99988 3 7.99988C3.55228 7.99988 4 7.55216 4 6.99988V5.40988L10.59 11.9999L8.46 14.1199C8.27069 14.3076 8.1642 14.5632 8.1642 14.8299C8.1642 15.0965 8.27069 15.3521 8.46 15.5399C8.64872 15.7271 8.9042 15.8314 9.17 15.8299C9.4358 15.8314 9.69128 15.7271 9.88 15.5399L12 13.4099L18.59 19.9999H17C16.4477 19.9999 16 20.4476 16 20.9999C16 21.5522 16.4477 21.9999 17 21.9999H21C21.1307 21.9983 21.2598 21.9711 21.38 21.9199C21.6243 21.8184 21.8185 21.6242 21.92 21.3799C21.9712 21.2597 21.9984 21.1306 22 20.9999V16.9999C22 16.4476 21.5523 15.9999 21 15.9999Z" fill="#171E2B"/>
</svg>
