<svg width="24" height="24" viewBox="0 0 24 24" fill="none" xmlns="http://www.w3.org/2000/svg">
<path fill-rule="evenodd" clip-rule="evenodd" d="M19 1.99988H5C3.34315 1.99988 2 3.34302 2 4.99988V18.9999C2 20.6567 3.34315 21.9999 5 21.9999H19C19.1645 21.9976 19.3284 21.9809 19.49 21.9499L19.79 21.8799H19.86H19.91L20.28 21.7399L20.41 21.6699C20.51 21.6099 20.62 21.5599 20.72 21.4899C20.8535 21.3916 20.9805 21.2847 21.1 21.1699L21.17 21.0799C21.2682 20.9804 21.3584 20.8734 21.44 20.7599L21.53 20.6299C21.5998 20.5185 21.6601 20.4014 21.71 20.2799C21.7374 20.2319 21.7609 20.1817 21.78 20.1299C21.83 20.0099 21.86 19.8799 21.9 19.7499V19.5999C21.9567 19.4045 21.9903 19.2031 22 18.9999V4.99988C22 3.34302 20.6569 1.99988 19 1.99988ZM4.99999 19.9998C4.44771 19.9998 3.99999 19.5521 3.99999 18.9998V14.6898L7.28999 11.3898C7.47776 11.2005 7.73336 11.094 7.99999 11.094C8.26663 11.094 8.52223 11.2005 8.70999 11.3898L17.31 19.9998H4.99999ZM20 18.9997C19.999 19.123 19.9753 19.245 19.93 19.3597C19.9071 19.4084 19.8804 19.4553 19.85 19.4997C19.8232 19.542 19.7931 19.5822 19.76 19.6197L14.41 14.2697L15.29 13.3897C15.4778 13.2004 15.7333 13.0939 16 13.0939C16.2666 13.0939 16.5222 13.2004 16.71 13.3897L20 16.6897V18.9997ZM20 13.8598L18.12 11.9998C16.9316 10.8721 15.0684 10.8721 13.88 11.9998L13 12.8798L10.12 9.99975C8.93158 8.87212 7.06841 8.87212 5.87999 9.99975L3.99999 11.8598V4.99975C3.99999 4.44747 4.44771 3.99975 4.99999 3.99975H19C19.5523 3.99975 20 4.44747 20 4.99975V13.8598ZM13.5 6C12.6716 6 12 6.67157 12 7.5C12 8.32843 12.6716 9 13.5 9C14.3284 9 15 8.32843 15 7.5C15 6.67157 14.3284 6 13.5 6Z" fill="#171E2B"/>
</svg>
