<svg width="24" height="24" viewBox="0 0 24 24" fill="none" xmlns="http://www.w3.org/2000/svg">
<path fill-rule="evenodd" clip-rule="evenodd" d="M12 14C12.5523 14 13 13.5523 13 13C13 12.4477 12.5523 12 12 12C11.4477 12 11 12.4477 11 13C11 13.5523 11.4477 14 12 14ZM17 14C17.5523 14 18 13.5523 18 13C18 12.4477 17.5523 12 17 12C16.4477 12 16 12.4477 16 13C16 13.5523 16.4477 14 17 14ZM12 17.9998C12.5523 17.9998 13 17.552 13 16.9998C13 16.4475 12.5523 15.9998 12 15.9998C11.4477 15.9998 11 16.4475 11 16.9998C11 17.552 11.4477 17.9998 12 17.9998ZM17 17.9998C17.5523 17.9998 18 17.552 18 16.9998C18 16.4475 17.5523 15.9998 17 15.9998C16.4477 15.9998 16 16.4475 16 16.9998C16 17.552 16.4477 17.9998 17 17.9998ZM7 14C7.55229 14 8 13.5523 8 13C8 12.4477 7.55229 12 7 12C6.44772 12 6 12.4477 6 13C6 13.5523 6.44772 14 7 14ZM19 3.99988H18V2.99988C18 2.44759 17.5523 1.99988 17 1.99988C16.4477 1.99988 16 2.44759 16 2.99988V3.99988H8V2.99988C8 2.44759 7.55228 1.99988 7 1.99988C6.44772 1.99988 6 2.44759 6 2.99988V3.99988H5C3.34315 3.99988 2 5.34302 2 6.99988V18.9999C2 20.6567 3.34315 21.9999 5 21.9999H19C20.6569 21.9999 22 20.6567 22 18.9999V6.99988C22 5.34302 20.6569 3.99988 19 3.99988ZM20 18.9998C20 19.552 19.5523 19.9998 19 19.9998H5C4.44772 19.9998 4 19.552 4 18.9998V9.99975H20V18.9998ZM20 8H4V7C4 6.44772 4.44772 6 5 6H19C19.5523 6 20 6.44772 20 7V8ZM7 17.9998C7.55229 17.9998 8 17.552 8 16.9998C8 16.4475 7.55229 15.9998 7 15.9998C6.44772 15.9998 6 16.4475 6 16.9998C6 17.552 6.44772 17.9998 7 17.9998Z" fill="#171E2B"/>
</svg>
