<svg width="24" height="24" viewBox="0 0 24 24" fill="none" xmlns="http://www.w3.org/2000/svg">
<path fill-rule="evenodd" clip-rule="evenodd" d="M22 11C22.0057 9.56524 21.2425 8.23734 20 7.51998C20.0151 7.34697 20.0151 7.17298 20 6.99998C20 5.34312 18.6569 3.99998 17 3.99998H16.82C16.4819 3.06249 15.7002 2.35412 14.7341 2.10958C13.768 1.86504 12.7434 2.11625 12 2.77998C11.2566 2.11625 10.2321 1.86504 9.26593 2.10958C8.29979 2.35412 7.51816 3.06249 7.18001 3.99998H7.00001C5.34316 3.99998 4.00001 5.34312 4.00001 6.99998C3.98496 7.17298 3.98496 7.34697 4.00001 7.51998C2.84771 8.1713 2.09224 9.35047 1.98215 10.6695C1.87206 11.9886 2.42162 13.2767 3.45001 14.11C2.78328 15.3535 2.82106 16.8564 3.54943 18.0649C4.27781 19.2734 5.58902 20.0087 7.00001 20H7.18001C7.51816 20.9375 8.29979 21.6458 9.26593 21.8904C10.2321 22.1349 11.2566 21.8837 12 21.22C12.7434 21.8837 13.768 22.1349 14.7341 21.8904C15.7002 21.6458 16.4819 20.9375 16.82 20H17C18.4021 19.9911 19.6972 19.2488 20.4134 18.0434C21.1297 16.8381 21.1625 15.3457 20.5 14.11C21.4447 13.3536 21.9962 12.2102 22 11ZM11 8.55012C10.7822 8.42555 10.5548 8.31854 10.32 8.23012C9.98061 8.1158 9.60599 8.19123 9.33729 8.42799C9.06858 8.66476 8.94659 9.0269 9.01729 9.37799C9.08798 9.72909 9.34061 10.0158 9.68001 10.1301C10.4685 10.4152 10.9955 11.1617 11 12.0001V13.5501C10.7822 13.4256 10.5548 13.3185 10.32 13.2301C9.79534 13.0534 9.22674 13.3355 9.05001 13.8601C8.87328 14.3848 9.15534 14.9534 9.68001 15.1301C10.4685 15.4152 10.9955 16.1617 11 17.0001V19.0001C11 19.5524 10.5523 20.0001 10 20.0001C9.60475 19.9975 9.24811 19.7624 9.09001 19.4001C9.25769 19.3017 9.4181 19.1914 9.57001 19.0701C9.8451 18.8415 9.97732 18.4834 9.91685 18.1309C9.85638 17.7783 9.61241 17.4848 9.27685 17.3609C8.94129 17.237 8.5651 17.3015 8.29001 17.5301C7.92894 17.8341 7.472 18.0006 7.00001 18.0001C5.89544 18.0001 5.00001 17.1047 5.00001 16.0001C5.0048 15.6237 5.11571 15.2563 5.32001 14.9401C5.54443 14.9804 5.77201 15.0005 6.00001 15.0001C6.55229 15.0001 7.00001 14.5524 7.00001 14.0001C7.00001 13.4478 6.55229 13.0001 6.00001 13.0001C5.7638 13.0015 5.52953 12.9573 5.31001 12.8701C4.5756 12.6053 4.06245 11.9373 3.99584 11.1594C3.92923 10.3815 4.32133 9.636 5.00001 9.25012C5.14211 9.38086 5.29611 9.49804 5.46001 9.60012C5.9405 9.87626 6.55387 9.71061 6.83001 9.23012C7.10615 8.74963 6.9405 8.13626 6.46001 7.86012C6.31924 7.78246 6.20183 7.66852 6.12001 7.53012C6.02756 7.36957 5.98573 7.18484 6.00001 7.00012C6.00001 6.44784 6.44773 6.00012 7.00001 6.00012C7.06967 5.9904 7.14035 5.9904 7.21001 6.00012C7.26295 6.16079 7.32642 6.3178 7.40001 6.47012C7.53196 6.70156 7.75081 6.87078 8.00801 6.94024C8.2652 7.00971 8.53949 6.97367 8.77001 6.84012C9.23077 6.5629 9.38981 5.97093 9.13001 5.50012C9.0461 5.34673 9.00144 5.17496 9.00001 5.00012C9.00001 4.44784 9.44772 4.00012 10 4.00012C10.5523 4.00012 11 4.44784 11 5.00012V8.55012ZM18.69 12.8701C18.4705 12.9573 18.2362 13.0015 18 13.0001C17.4477 13.0001 17 13.4478 17 14.0001C17 14.5524 17.4477 15.0001 18 15.0001C18.228 15.0005 18.4556 14.9804 18.68 14.9401C18.8843 15.2563 18.9952 15.6237 19 16.0001C19 17.1047 18.1046 18.0001 17 18.0001C16.528 18.0006 16.0711 17.8341 15.71 17.5301C15.2847 17.1767 14.6535 17.2349 14.3 17.6601C13.9465 18.0854 14.0047 18.7167 14.43 19.0701C14.5819 19.1914 14.7423 19.3017 14.91 19.4001C14.7519 19.7624 14.3953 19.9975 14 20.0001C13.4477 20.0001 13 19.5524 13 19.0001V17.0001C13.0046 16.1617 13.5315 15.4152 14.32 15.1301C14.8447 14.9534 15.1267 14.3848 14.95 13.8601C14.7733 13.3355 14.2047 13.0534 13.68 13.2301C13.4452 13.3185 13.2178 13.4256 13 13.5501V12.0001C13.0046 11.1617 13.5315 10.4152 14.32 10.1301C14.8447 9.95339 15.1267 9.38479 14.95 8.86012C14.7733 8.33545 14.2047 8.05339 13.68 8.23012C13.4452 8.31854 13.2178 8.42555 13 8.55012V5.00012C13 4.44784 13.4477 4.00012 14 4.00012C14.5523 4.00012 15 4.44784 15 5.00012C14.9986 5.17496 14.9539 5.34673 14.87 5.50012C14.7356 5.72943 14.6981 6.0028 14.7656 6.25985C14.8332 6.5169 15.0003 6.73649 15.23 6.87012C15.4605 7.00367 15.7348 7.03971 15.992 6.97024C16.2492 6.90078 16.4681 6.73156 16.6 6.50012C16.6749 6.33806 16.7383 6.17099 16.79 6.00012C16.8597 5.9904 16.9303 5.9904 17 6.00012C17.5523 6.00012 18 6.44784 18 7.00012C17.9985 7.19616 17.9394 7.38741 17.83 7.55012C17.7482 7.67989 17.6346 7.7866 17.5 7.86012C17.0195 8.13626 16.8539 8.74963 17.13 9.23012C17.4061 9.71061 18.0195 9.87626 18.5 9.60012C18.6795 9.50303 18.8473 9.38559 19 9.25012C19.681 9.62916 20.0797 10.3692 20.0217 11.1464C19.9638 11.9236 19.4596 12.5963 18.73 12.8701H18.69Z" fill="#171E2B"/>
</svg>
