<svg width="24" height="24" viewBox="0 0 24 24" fill="none" xmlns="http://www.w3.org/2000/svg">
<path fill-rule="evenodd" clip-rule="evenodd" d="M21.71 10.1201L13.88 2.2901C13.6118 2.02029 13.2137 1.92607 12.8529 2.04702C12.4922 2.16797 12.2314 2.48313 12.18 2.8601L11.45 8.0001L9.45 10.0001L9.12 9.8101C8.67503 9.59375 8.13874 9.73533 7.85854 10.1431C7.57834 10.5509 7.63848 11.1023 8 11.4401L6.85 12.6101L6.52 12.4201C6.07652 12.2164 5.55082 12.3626 5.27614 12.766C5.00146 13.1694 5.05804 13.7121 5.41 14.0501L4.24 15.2101L3.92 15.0001C3.68948 14.8666 3.41519 14.8305 3.158 14.9C2.9008 14.9694 2.68195 15.1387 2.55 15.3701C2.3169 15.7952 2.42226 16.3262 2.8 16.6301L2.29 17.1401C2.1974 17.234 2.12581 17.3465 2.08 17.4701C2.02876 17.5903 2.00158 17.7194 2 17.8501V21.0001C2 21.5524 2.44772 22.0001 3 22.0001H6.13C6.26068 21.9985 6.38978 21.9713 6.51 21.9201C6.63364 21.8743 6.74613 21.8027 6.84 21.7101L8.54 20.0001L8.87 20.1901C9.09931 20.3245 9.37268 20.362 9.62973 20.2945C9.88678 20.2269 10.1064 20.0598 10.24 19.8301C10.4811 19.405 10.3796 18.8679 10 18.5601L11.17 17.4001L11.5 17.5901C11.6495 17.6748 11.8182 17.7196 11.99 17.7201C12.381 17.6849 12.7151 17.4241 12.8444 17.0535C12.9737 16.6829 12.8742 16.2709 12.59 16.0001L13.76 14.8401L14.09 15.0301C14.2395 15.1148 14.4082 15.1596 14.58 15.1601C14.9982 15.1526 15.3676 14.8856 15.5059 14.4908C15.6442 14.0961 15.5222 13.6569 15.2 13.3901L15.99 12.6001L21.14 11.8701C21.5176 11.8164 21.8318 11.5527 21.95 11.1901C22.0901 10.8175 21.9959 10.3972 21.71 10.1201ZM5.71999 20.0002H3.99999V18.2802L4.56999 17.7102L6.74999 19.0002L5.71999 20.0002ZM8.21001 17.4999L6.00001 16.2499L7.14001 15.1099L9.31001 16.3599L8.21001 17.4999ZM10.82 14.8999L8.64001 13.6399L9.79001 12.4999L12 13.7499L10.82 14.8999ZM13.43 12.2899L11.25 10.9999L12.39 9.85992L14.11 11.5799L13.43 12.2899ZM15.88 10.5499L13.45 8.11991L13.88 5.11991L18.88 10.1199L15.88 10.5499Z" fill="#171E2B"/>
</svg>
