<svg width="24" height="24" viewBox="0 0 24 24" fill="none" xmlns="http://www.w3.org/2000/svg">
<path fill-rule="evenodd" clip-rule="evenodd" d="M4.71 6.29006C4.31788 5.89794 3.68212 5.89794 3.29 6.29006C2.89788 6.68219 2.89788 7.31794 3.29 7.71006L7.59 12.0001L3.29 16.2901C3.10069 16.4778 2.9942 16.7334 2.9942 17.0001C2.9942 17.2667 3.10069 17.5223 3.29 17.7101C3.47777 17.8994 3.73336 18.0059 4 18.0059C4.26664 18.0059 4.52223 17.8994 4.71 17.7101L9.71 12.7101C9.89931 12.5223 10.0058 12.2667 10.0058 12.0001C10.0058 11.7334 9.89931 11.4778 9.71 11.2901L4.71 6.29006ZM16.41 12.0001L20.71 7.71006C21.1021 7.31794 21.1021 6.68219 20.71 6.29006C20.3179 5.89794 19.6821 5.89794 19.29 6.29006L14.29 11.2901C14.1007 11.4778 13.9942 11.7334 13.9942 12.0001C13.9942 12.2667 14.1007 12.5223 14.29 12.7101L19.29 17.7101C19.4778 17.8994 19.7334 18.0059 20 18.0059C20.2667 18.0059 20.5223 17.8994 20.71 17.7101C20.8993 17.5223 21.0058 17.2667 21.0058 17.0001C21.0058 16.7334 20.8993 16.4778 20.71 16.2901L16.41 12.0001Z" fill="#171E2B"/>
</svg>
