<svg width="24" height="24" viewBox="0 0 24 24" fill="none" xmlns="http://www.w3.org/2000/svg">
<path fill-rule="evenodd" clip-rule="evenodd" d="M11.29 9.71006C11.4778 9.89938 11.7334 10.0059 12 10.0059C12.2666 10.0059 12.5222 9.89938 12.71 9.71006L17.71 4.71006C18.1021 4.31794 18.1021 3.68219 17.71 3.29006C17.3179 2.89794 16.6821 2.89794 16.29 3.29006L12 7.59006L7.71 3.29006C7.31788 2.89794 6.68212 2.89794 6.29 3.29006C5.89788 3.68219 5.89788 4.31794 6.29 4.71006L11.29 9.71006ZM12.71 14.2901C12.5222 14.1008 12.2666 13.9943 12 13.9943C11.7334 13.9943 11.4778 14.1008 11.29 14.2901L6.29 19.2901C5.89788 19.6822 5.89788 20.318 6.29 20.7101C6.68212 21.1022 7.31788 21.1022 7.71 20.7101L12 16.4101L16.29 20.7101C16.4778 20.8994 16.7334 21.0059 17 21.0059C17.2666 21.0059 17.5222 20.8994 17.71 20.7101C17.8993 20.5223 18.0058 20.2667 18.0058 20.0001C18.0058 19.7335 17.8993 19.4779 17.71 19.2901L12.71 14.2901Z" fill="#171E2B"/>
</svg>
