<svg width="24" height="24" viewBox="0 0 24 24" fill="none" xmlns="http://www.w3.org/2000/svg">
<path fill-rule="evenodd" clip-rule="evenodd" d="M15 9.99997H12V6.99997C12 6.44769 11.5523 5.99997 11 5.99997C10.4477 5.99997 10 6.44769 10 6.99997V9.99997H7C6.44772 9.99997 6 10.4477 6 11C6 11.5523 6.44772 12 7 12H10V15C10 15.5523 10.4477 16 11 16C11.5523 16 12 15.5523 12 15V12H15C15.5523 12 16 11.5523 16 11C16 10.4477 15.5523 9.99997 15 9.99997ZM21.71 20.29L18 16.61C20.9902 12.8817 20.5448 7.46631 16.9855 4.27669C13.4262 1.08706 7.99462 1.23569 4.61512 4.61518C1.23562 7.99468 1.087 13.4263 4.27662 16.9856C7.46625 20.5448 12.8816 20.9903 16.61 18L20.29 21.68C20.4777 21.8694 20.7333 21.9758 21 21.9758C21.2666 21.9758 21.5222 21.8694 21.71 21.68C22.0846 21.2924 22.0846 20.6776 21.71 20.29ZM11 18.0001C7.134 18.0001 3.99999 14.8661 3.99999 11.0001C3.99999 7.1341 7.134 4.00009 11 4.00009C14.866 4.00009 18 7.1341 18 11.0001C18 12.8566 17.2625 14.6371 15.9497 15.9498C14.637 17.2626 12.8565 18.0001 11 18.0001Z" fill="#171E2B"/>
</svg>
