<svg width="24" height="24" viewBox="0 0 24 24" fill="none" xmlns="http://www.w3.org/2000/svg">
<path fill-rule="evenodd" clip-rule="evenodd" d="M21.07 16.8298L19 14.7098C18.0891 13.844 16.7435 13.6184 15.6 14.1398L14.7 13.2398C16.9002 10.2999 16.4547 6.15956 13.6794 3.75504C10.9041 1.35051 6.7425 1.49927 4.14596 4.09581C1.54942 6.69235 1.40067 10.854 3.80519 13.6293C6.20972 16.4046 10.3501 16.8501 13.29 14.6498L14.18 15.5398C13.5958 16.6874 13.8091 18.0798 14.71 18.9998L16.83 21.1198C18.0013 22.2896 19.8987 22.2896 21.07 21.1198C21.6472 20.5554 21.9726 19.7822 21.9726 18.9748C21.9726 18.1675 21.6472 17.3943 21.07 16.8298ZM12.59 12.59C10.6361 14.539 7.47255 14.5363 5.52191 12.584C3.57128 10.6318 3.57128 7.46823 5.52191 5.51595C7.47255 3.56367 10.6361 3.561 12.59 5.50999C13.5304 6.44803 14.0589 7.72172 14.0589 9.04999C14.0589 10.3783 13.5304 11.6519 12.59 12.59ZM19.66 19.6597C19.4722 19.849 19.2166 19.9555 18.95 19.9555C18.6833 19.9555 18.4277 19.849 18.24 19.6597L16.12 17.5397C15.9307 17.3519 15.8242 17.0963 15.8242 16.8297C15.8242 16.5631 15.9307 16.3075 16.12 16.1197C16.3077 15.9304 16.5633 15.8239 16.83 15.8239C17.0966 15.8239 17.3522 15.9304 17.54 16.1197L19.66 18.2397C19.8493 18.4275 19.9558 18.6831 19.9558 18.9497C19.9558 19.2163 19.8493 19.4719 19.66 19.6597Z" fill="#171E2B"/>
</svg>
