<svg width="24" height="24" viewBox="0 0 24 24" fill="none" xmlns="http://www.w3.org/2000/svg">
<path fill-rule="evenodd" clip-rule="evenodd" d="M21.07 16.83L19 14.71C18.0891 13.8441 16.7435 13.6185 15.6 14.14L14.7 13.24C16.9002 10.3001 16.4547 6.15969 13.6794 3.75516C10.9041 1.35063 6.74251 1.49939 4.14597 4.09593C1.54943 6.69247 1.40067 10.8541 3.8052 13.6294C6.20973 16.4047 10.3501 16.8502 13.29 14.65L14.18 15.54C13.5958 16.6875 13.8091 18.0799 14.71 19L16.83 21.12C18.0013 22.2898 19.8987 22.2898 21.07 21.12C21.6472 20.5555 21.9726 19.7823 21.9726 18.975C21.9726 18.1676 21.6472 17.3944 21.07 16.83ZM12.59 12.5901C10.6361 14.5391 7.47256 14.5364 5.52192 12.5842C3.57129 10.6319 3.57129 7.46835 5.52192 5.51607C7.47256 3.56379 10.6361 3.56112 12.59 5.51011C13.5304 6.44816 14.0589 7.72184 14.0589 9.05011C14.0589 10.3784 13.5304 11.6521 12.59 12.5901ZM19.66 19.6598C19.4722 19.8491 19.2166 19.9556 18.95 19.9556C18.6833 19.9556 18.4277 19.8491 18.24 19.6598L16.12 17.5398C15.9307 17.352 15.8242 17.0965 15.8242 16.8298C15.8242 16.5632 15.9307 16.3076 16.12 16.1198C16.3077 15.9305 16.5633 15.824 16.83 15.824C17.0966 15.824 17.3522 15.9305 17.54 16.1198L19.66 18.2398C19.8493 18.4276 19.9558 18.6832 19.9558 18.9498C19.9558 19.2164 19.8493 19.472 19.66 19.6598Z" fill="#171E2B"/>
</svg>
