<svg width="24" height="24" viewBox="0 0 24 24" fill="none" xmlns="http://www.w3.org/2000/svg">
<path fill-rule="evenodd" clip-rule="evenodd" d="M15 16.9999C14.4477 16.9999 14 17.4476 14 17.9999C14 18.5522 14.4477 18.9999 15 18.9999C15.5523 18.9999 16 18.5522 16 17.9999C16 17.4476 15.5523 16.9999 15 16.9999ZM11 16.9999H8.99998C8.4477 16.9999 7.99998 17.4476 7.99998 17.9999C7.99998 18.5522 8.4477 18.9999 8.99998 18.9999H11C11.5523 18.9999 12 18.5522 12 17.9999C12 17.4476 11.5523 16.9999 11 16.9999ZM11 10.9999H8.99998C8.4477 10.9999 7.99998 11.4476 7.99998 11.9999C7.99998 12.5522 8.4477 12.9999 8.99998 12.9999H11C11.5523 12.9999 12 12.5522 12 11.9999C12 11.4476 11.5523 10.9999 11 10.9999ZM15 10.9999C14.4477 10.9999 14 11.4476 14 11.9999C14 12.5522 14.4477 12.9999 15 12.9999C15.5523 12.9999 16 12.5522 16 11.9999C16 11.4476 15.5523 10.9999 15 10.9999ZM23 7.99988C23 6.34302 21.6569 4.99988 20 4.99988H19C19 3.34302 17.6569 1.99988 16 1.99988H8C6.34315 1.99988 5 3.34302 5 4.99988H4C2.34315 4.99988 1 6.34302 1 7.99988V9.99988C1.00441 10.7399 1.28221 11.4522 1.78 11.9999C1.28221 12.5475 1.00441 13.2598 1 13.9999V15.9999C1 17.6567 2.34315 18.9999 4 18.9999H5C5 20.6567 6.34315 21.9999 8 21.9999H16C17.6569 21.9999 19 20.6567 19 18.9999H20C21.6569 18.9999 23 17.6567 23 15.9999V13.9999C22.9956 13.2598 22.7178 12.5475 22.22 11.9999C22.7178 11.4522 22.9956 10.7399 23 9.99988V7.99988ZM5.00002 16.9998H4.00002C3.44773 16.9998 3.00002 16.552 3.00002 15.9998V13.9998C3.00002 13.4475 3.44773 12.9998 4.00002 12.9998H5.00002C5.00443 13.7398 5.28223 14.4521 5.78002 14.9998C5.28223 15.5474 5.00443 16.2597 5.00002 16.9998ZM5.00002 10.9998H4.00002C3.44773 10.9998 3.00002 10.552 3.00002 9.99975V7.99975C3.00002 7.44747 3.44773 6.99975 4.00002 6.99975H5.00002C5.00443 7.73981 5.28223 8.45212 5.78002 8.99975C5.28223 9.54739 5.00443 10.2597 5.00002 10.9998ZM17 18.9998C17 19.552 16.5523 19.9998 16 19.9998H8C7.44771 19.9998 7 19.552 7 18.9998V16.9998C7 16.4475 7.44771 15.9998 8 15.9998H16C16.5523 15.9998 17 16.4475 17 16.9998V18.9998ZM17 12.9998C17 13.552 16.5523 13.9998 16 13.9998H8C7.44771 13.9998 7 13.552 7 12.9998V10.9998C7 10.4475 7.44771 9.99975 8 9.99975H16C16.5523 9.99975 17 10.4475 17 10.9998V12.9998ZM17 6.99975C17 7.55204 16.5523 7.99975 16 7.99975H8C7.44771 7.99975 7 7.55204 7 6.99975V4.99975C7 4.44747 7.44771 3.99975 8 3.99975H16C16.5523 3.99975 17 4.44747 17 4.99975V6.99975ZM21 15.9998C21 16.552 20.5523 16.9998 20 16.9998H19C18.9956 16.2597 18.7178 15.5474 18.22 14.9998C18.7178 14.4521 18.9956 13.7398 19 12.9998H20C20.5523 12.9998 21 13.4475 21 13.9998V15.9998ZM21 9.99975C21 10.552 20.5523 10.9998 20 10.9998H19C18.9956 10.2597 18.7178 9.54739 18.22 8.99975C18.7178 8.45212 18.9956 7.73981 19 6.99975H20C20.5523 6.99975 21 7.44747 21 7.99975V9.99975ZM15 4.99988C14.4477 4.99988 14 5.44759 14 5.99988C14 6.55216 14.4477 6.99988 15 6.99988C15.5523 6.99988 16 6.55216 16 5.99988C16 5.44759 15.5523 4.99988 15 4.99988ZM11 4.99988H8.99998C8.4477 4.99988 7.99998 5.44759 7.99998 5.99988C7.99998 6.55216 8.4477 6.99988 8.99998 6.99988H11C11.5523 6.99988 12 6.55216 12 5.99988C12 5.44759 11.5523 4.99988 11 4.99988Z" fill="#171E2B"/>
</svg>
