<svg width="24" height="24" viewBox="0 0 24 24" fill="none" xmlns="http://www.w3.org/2000/svg">
<path fill-rule="evenodd" clip-rule="evenodd" d="M5.49998 9.00012H9.49998C10.0523 9.00012 10.5 8.55241 10.5 8.00012C10.5 7.44784 10.0523 7.00012 9.49998 7.00012H5.49998C3.84313 7.00012 2.49998 8.34327 2.49998 10.0001C2.49998 11.657 3.84313 13.0001 5.49998 13.0001H7.49998C8.05227 13.0001 8.49998 13.4478 8.49998 14.0001C8.49998 14.5524 8.05227 15.0001 7.49998 15.0001H3.49998C2.9477 15.0001 2.49998 15.4478 2.49998 16.0001C2.49998 16.5524 2.9477 17.0001 3.49998 17.0001H7.49998C9.15684 17.0001 10.5 15.657 10.5 14.0001C10.5 12.3433 9.15684 11.0001 7.49998 11.0001H5.49998C4.9477 11.0001 4.49998 10.5524 4.49998 10.0001C4.49998 9.44784 4.9477 9.00012 5.49998 9.00012ZM21.42 7.61996C21.3185 7.37561 21.1243 7.18143 20.88 7.07996C20.6365 6.97994 20.3634 6.97994 20.12 7.07996C19.9972 7.12755 19.8851 7.19892 19.79 7.28996L17 10.09L14.21 7.28996C14.1149 7.19892 14.0027 7.12755 13.88 7.07996C13.6365 6.97994 13.3634 6.97994 13.12 7.07996C12.8756 7.18143 12.6814 7.37561 12.58 7.61996C12.5287 7.74018 12.5016 7.86928 12.5 7.99996V16C12.5 16.5522 12.9477 17 13.5 17C14.0523 17 14.5 16.5522 14.5 16V10.41L16.29 12.21C16.4777 12.3993 16.7333 12.5058 17 12.5058C17.2666 12.5058 17.5222 12.3993 17.71 12.21L19.5 10.41V16C19.5 16.5522 19.9477 17 20.5 17C21.0523 17 21.5 16.5522 21.5 16V7.99996C21.4984 7.86928 21.4712 7.74018 21.42 7.61996Z" fill="#171E2B"/>
</svg>
