<svg width="24" height="24" viewBox="0 0 24 24" fill="none" xmlns="http://www.w3.org/2000/svg">
<path fill-rule="evenodd" clip-rule="evenodd" d="M15 16.9999C14.4477 16.9999 14 17.4476 14 17.9999C14 18.5522 14.4477 18.9999 15 18.9999C15.5523 18.9999 16 18.5522 16 17.9999C16 17.4476 15.5523 16.9999 15 16.9999ZM9 16.9999H6C5.44772 16.9999 5 17.4476 5 17.9999C5 18.5522 5.44772 18.9999 6 18.9999H9C9.55228 18.9999 10 18.5522 10 17.9999C10 17.4476 9.55228 16.9999 9 16.9999ZM18 16.9999C17.4477 16.9999 17 17.4476 17 17.9999C17 18.5522 17.4477 18.9999 18 18.9999C18.5523 18.9999 19 18.5522 19 17.9999C19 17.4476 18.5523 16.9999 18 16.9999ZM15 10.9999C14.4477 10.9999 14 11.4476 14 11.9999C14 12.5522 14.4477 12.9999 15 12.9999C15.5523 12.9999 16 12.5522 16 11.9999C16 11.4476 15.5523 10.9999 15 10.9999ZM9 10.9999H6C5.44772 10.9999 5 11.4476 5 11.9999C5 12.5522 5.44772 12.9999 6 12.9999H9C9.55228 12.9999 10 12.5522 10 11.9999C10 11.4476 9.55228 10.9999 9 10.9999ZM18 4.99988C17.4477 4.99988 17 5.44759 17 5.99988C17 6.55216 17.4477 6.99988 18 6.99988C18.5523 6.99988 19 6.55216 19 5.99988C19 5.44759 18.5523 4.99988 18 4.99988ZM18 10.9999C17.4477 10.9999 17 11.4476 17 11.9999C17 12.5522 17.4477 12.9999 18 12.9999C18.5523 12.9999 19 12.5522 19 11.9999C19 11.4476 18.5523 10.9999 18 10.9999ZM22 4.99988C22 3.34302 20.6569 1.99988 19 1.99988H5C3.34315 1.99988 2 3.34302 2 4.99988V6.99988C2.00441 7.73993 2.28221 8.45224 2.78 8.99988C2.28221 9.54751 2.00441 10.2598 2 10.9999V12.9999C2.00441 13.7399 2.28221 14.4522 2.78 14.9999C2.28221 15.5475 2.00441 16.2598 2 16.9999V18.9999C2 20.6567 3.34315 21.9999 5 21.9999H19C20.6569 21.9999 22 20.6567 22 18.9999V16.9999C21.9956 16.2598 21.7178 15.5475 21.22 14.9999C21.7178 14.4522 21.9956 13.7399 22 12.9999V10.9999C21.9956 10.2598 21.7178 9.54751 21.22 8.99988C21.7178 8.45224 21.9956 7.73993 22 6.99988V4.99988ZM20 18.9998C20 19.552 19.5523 19.9998 19 19.9998H4.99999C4.44771 19.9998 3.99999 19.552 3.99999 18.9998V16.9998C3.99999 16.4475 4.44771 15.9998 4.99999 15.9998H19C19.5523 15.9998 20 16.4475 20 16.9998V18.9998ZM20 12.9998C20 13.552 19.5523 13.9998 19 13.9998H4.99999C4.44771 13.9998 3.99999 13.552 3.99999 12.9998V10.9998C3.99999 10.4475 4.44771 9.99975 4.99999 9.99975H19C19.5523 9.99975 20 10.4475 20 10.9998V12.9998ZM20 6.99975C20 7.55204 19.5523 7.99975 19 7.99975H4.99999C4.44771 7.99975 3.99999 7.55204 3.99999 6.99975V4.99975C3.99999 4.44747 4.44771 3.99975 4.99999 3.99975H19C19.5523 3.99975 20 4.44747 20 4.99975V6.99975ZM15 4.99988C14.4477 4.99988 14 5.44759 14 5.99988C14 6.55216 14.4477 6.99988 15 6.99988C15.5523 6.99988 16 6.55216 16 5.99988C16 5.44759 15.5523 4.99988 15 4.99988ZM9 4.99988H6C5.44772 4.99988 5 5.44759 5 5.99988C5 6.55216 5.44772 6.99988 6 6.99988H9C9.55228 6.99988 10 6.55216 10 5.99988C10 5.44759 9.55228 4.99988 9 4.99988Z" fill="#171E2B"/>
</svg>
