<svg width="24" height="24" viewBox="0 0 24 24" fill="none" xmlns="http://www.w3.org/2000/svg">
<path fill-rule="evenodd" clip-rule="evenodd" d="M8 16.9999C7.44771 16.9999 7 17.4476 7 17.9999C7 18.5522 7.44771 18.9999 8 18.9999C8.55228 18.9999 9 18.5522 9 17.9999C9 17.4476 8.55228 16.9999 8 16.9999ZM8 10.9999C7.44771 10.9999 7 11.4476 7 11.9999C7 12.5522 7.44771 12.9999 8 12.9999C8.55228 12.9999 9 12.5522 9 11.9999C9 11.4476 8.55228 10.9999 8 10.9999ZM8 4.99988C7.44771 4.99988 7 5.44759 7 5.99988C7 6.55216 7.44771 6.99988 8 6.99988C8.55228 6.99988 9 6.55216 9 5.99988C9 5.44759 8.55228 4.99988 8 4.99988ZM20 4.99988C20 3.34302 18.6569 1.99988 17 1.99988H7C5.34315 1.99988 4 3.34302 4 4.99988V6.99988C4.00441 7.73993 4.28221 8.45224 4.78 8.99988C4.28221 9.54751 4.00441 10.2598 4 10.9999V12.9999C4.00441 13.7399 4.28221 14.4522 4.78 14.9999C4.28221 15.5475 4.00441 16.2598 4 16.9999V18.9999C4 20.6567 5.34315 21.9999 7 21.9999H17C18.6569 21.9999 20 20.6567 20 18.9999V16.9999C19.9956 16.2598 19.7178 15.5475 19.22 14.9999C19.7178 14.4522 19.9956 13.7399 20 12.9999V10.9999C19.9956 10.2598 19.7178 9.54751 19.22 8.99988C19.7178 8.45224 19.9956 7.73993 20 6.99988V4.99988ZM18 18.9998C18 19.552 17.5523 19.9998 17 19.9998H7C6.44771 19.9998 6 19.552 6 18.9998V16.9998C6 16.4475 6.44771 15.9998 7 15.9998H17C17.5523 15.9998 18 16.4475 18 16.9998V18.9998ZM18 12.9998C18 13.552 17.5523 13.9998 17 13.9998H7C6.44771 13.9998 6 13.552 6 12.9998V10.9998C6 10.4475 6.44771 9.99975 7 9.99975H17C17.5523 9.99975 18 10.4475 18 10.9998V12.9998ZM18 6.99975C18 7.55204 17.5523 7.99975 17 7.99975H7C6.44771 7.99975 6 7.55204 6 6.99975V4.99975C6 4.44747 6.44771 3.99975 7 3.99975H17C17.5523 3.99975 18 4.44747 18 4.99975V6.99975Z" fill="#171E2B"/>
</svg>
