<svg width="24" height="24" viewBox="0 0 24 24" fill="none" xmlns="http://www.w3.org/2000/svg">
<path fill-rule="evenodd" clip-rule="evenodd" d="M11 13.0001C10.4477 13.0001 10 13.4478 10 14.0001C10 14.5524 10.4477 15.0001 11 15.0001C11.5523 15.0001 12 14.5524 12 14.0001C12 13.4478 11.5523 13.0001 11 13.0001ZM7 13.0001C6.44771 13.0001 6 13.4478 6 14.0001C6 14.5524 6.44771 15.0001 7 15.0001C7.55228 15.0001 8 14.5524 8 14.0001C8 13.4478 7.55228 13.0001 7 13.0001ZM22 4.00012C22 2.34327 20.6569 1.00012 19 1.00012H5C3.34315 1.00012 2 2.34327 2 4.00012V8.00012C2.00441 8.74018 2.28221 9.45249 2.78 10.0001C2.28221 10.5478 2.00441 11.2601 2 12.0001V16.0001C2 17.657 3.34315 19.0001 5 19.0001H11V21.0001H3C2.44772 21.0001 2 21.4478 2 22.0001C2 22.5524 2.44772 23.0001 3 23.0001H21C21.5523 23.0001 22 22.5524 22 22.0001C22 21.4478 21.5523 21.0001 21 21.0001H13V19.0001H19C20.6569 19.0001 22 17.657 22 16.0001V12.0001C21.9956 11.2601 21.7178 10.5478 21.22 10.0001C21.7178 9.45249 21.9956 8.74018 22 8.00012V4.00012ZM20 16.0002C20 16.5525 19.5523 17.0002 19 17.0002H5C4.44772 17.0002 4 16.5525 4 16.0002V12.0002C4 11.448 4.44772 11.0002 5 11.0002H19C19.5523 11.0002 20 11.448 20 12.0002V16.0002ZM20 8C20 8.55228 19.5523 9 19 9H5C4.44772 9 4 8.55228 4 8V4C4 3.44771 4.44772 3 5 3H19C19.5523 3 20 3.44771 20 4V8ZM11 5.00025C10.4477 5.00025 10 5.44796 10 6.00025C10 6.55253 10.4477 7.00025 11 7.00025C11.5523 7.00025 12 6.55253 12 6.00025C12 5.44796 11.5523 5.00025 11 5.00025ZM7 5.00025C6.44771 5.00025 6 5.44796 6 6.00025C6 6.55253 6.44771 7.00025 7 7.00025C7.55228 7.00025 8 6.55253 8 6.00025C8 5.44796 7.55228 5.00025 7 5.00025Z" fill="#171E2B"/>
</svg>
