<svg width="24" height="24" viewBox="0 0 24 24" fill="none" xmlns="http://www.w3.org/2000/svg">
<path fill-rule="evenodd" clip-rule="evenodd" d="M7.99999 6.00012C8.55228 6.00012 8.99999 5.55241 8.99999 5.00012C8.99999 4.44784 8.55228 4.00012 7.99999 4.00012C7.44771 4.00012 6.99999 4.44784 6.99999 5.00012C6.99999 5.55241 7.44771 6.00012 7.99999 6.00012ZM21 19.0001H14.82C14.5176 18.1508 13.8493 17.4825 13 17.1801V15.0001H17C18.6569 15.0001 20 13.657 20 12.0001V10.0001C19.9956 9.26007 19.7178 8.54776 19.22 8.00012C19.7178 7.45248 19.9956 6.74018 20 6.00012V4.00012C20 2.34327 18.6569 1.00012 17 1.00012H7C5.34315 1.00012 4 2.34327 4 4.00012V6.00012C4.00441 6.74018 4.28221 7.45248 4.78 8.00012C4.28221 8.54776 4.00441 9.26007 4 10.0001V12.0001C4 13.657 5.34315 15.0001 7 15.0001H11V17.1801C10.1507 17.4825 9.48238 18.1508 9.18 19.0001H3C2.44772 19.0001 2 19.4478 2 20.0001C2 20.5524 2.44772 21.0001 3 21.0001H9.18C9.61062 22.1866 10.7378 22.9766 12 22.9766C13.2622 22.9766 14.3894 22.1866 14.82 21.0001H21C21.5523 21.0001 22 20.5524 22 20.0001C22 19.4478 21.5523 19.0001 21 19.0001ZM6.00001 4C6.00001 3.44771 6.44772 3 7.00001 3H17C17.5523 3 18 3.44771 18 4V6C18 6.55228 17.5523 7 17 7H7.00001C6.44772 7 6.00001 6.55228 6.00001 6V4ZM7.00001 13C6.44772 13 6.00001 12.5523 6.00001 12V10C6.00001 9.44771 6.44772 9 7.00001 9H17C17.5523 9 18 9.44771 18 10V12C18 12.5523 17.5523 13 17 13H7.00001ZM12 21.0001C11.4477 21.0001 11 20.5524 11 20.0001C11 19.4478 11.4477 19.0001 12 19.0001C12.5523 19.0001 13 19.4478 13 20.0001C13 20.5524 12.5523 21.0001 12 21.0001ZM7.99999 10.0001C7.44771 10.0001 6.99999 10.4478 6.99999 11.0001C6.99999 11.5524 7.44771 12.0001 7.99999 12.0001C8.55228 12.0001 8.99999 11.5524 8.99999 11.0001C8.99999 10.4478 8.55228 10.0001 7.99999 10.0001Z" fill="#171E2B"/>
</svg>
