<svg width="24" height="24" viewBox="0 0 24 24" fill="none" xmlns="http://www.w3.org/2000/svg">
<path fill-rule="evenodd" clip-rule="evenodd" d="M18 14.0001C16.8036 14.008 15.6737 14.551 14.92 15.4801L9.81998 13.1301C10.0598 12.3959 10.0598 11.6044 9.81998 10.8701L14.92 8.52014C16.162 10.0189 18.3027 10.406 19.9909 9.43704C21.6792 8.46811 22.4248 6.42454 21.7573 4.59604C21.0897 2.76755 19.2028 1.68506 17.2874 2.03176C15.372 2.37846 13.9842 4.05366 14 6.00014C14.003 6.23837 14.0264 6.4759 14.07 6.71014L8.78998 9.14014C7.2188 7.60384 4.70251 7.62267 3.15449 9.18231C1.60648 10.742 1.60648 13.2583 3.15449 14.818C4.70251 16.3776 7.2188 16.3964 8.78998 14.8601L14.07 17.2901C14.0264 17.5244 14.003 17.7619 14 18.0001C14 20.2093 15.7908 22.0001 18 22.0001C20.2091 22.0001 22 20.2093 22 18.0001C22 15.791 20.2091 14.0001 18 14.0001ZM18 4.00012C19.1045 4.00012 20 4.89555 20 6.00012C20 7.10469 19.1045 8.00012 18 8.00012C16.8954 8.00012 16 7.10469 16 6.00012C16 4.89555 16.8954 4.00012 18 4.00012ZM5.99998 14.0001C4.89541 14.0001 3.99998 13.1047 3.99998 12.0001C3.99998 10.8955 4.89541 10.0001 5.99998 10.0001C7.10455 10.0001 7.99998 10.8955 7.99998 12.0001C7.99998 13.1047 7.10455 14.0001 5.99998 14.0001ZM18 20.0001C16.8954 20.0001 16 19.1047 16 18.0001C16 16.8955 16.8954 16.0001 18 16.0001C19.1045 16.0001 20 16.8955 20 18.0001C20 19.1047 19.1045 20.0001 18 20.0001Z" fill="#171E2B"/>
</svg>
