<svg width="24" height="24" viewBox="0 0 24 24" fill="none" xmlns="http://www.w3.org/2000/svg">
<path fill-rule="evenodd" clip-rule="evenodd" d="M19.63 3.64994C19.3947 3.45959 19.0858 3.38606 18.79 3.44994C16.6303 3.90257 14.3795 3.443 12.57 2.17994C12.2272 1.94214 11.7728 1.94214 11.43 2.17994C9.62056 3.443 7.36976 3.90257 5.21001 3.44994C4.91417 3.38606 4.60531 3.45959 4.37001 3.64994C4.13501 3.84057 3.99898 4.12735 4.00001 4.42994V11.8799C3.9982 14.789 5.40257 17.5195 7.77001 19.2099L11.42 21.8099C11.7672 22.0571 12.2328 22.0571 12.58 21.8099L16.23 19.2099C18.5974 17.5195 20.0018 14.789 20 11.8799V4.42994C20.001 4.12735 19.865 3.84057 19.63 3.64994ZM18 11.8799C18.0015 14.1417 16.9102 16.2649 15.07 17.5799L12 19.7699L8.92999 17.5799C7.08981 16.2649 5.99843 14.1417 5.99999 11.8799V5.57993C8.09642 5.75936 10.196 5.27295 12 4.18993C13.8039 5.27295 15.9036 5.75936 18 5.57993V11.8799ZM13.54 9.58996L10.85 12.29L9.96002 11.39C9.5679 10.9978 8.93215 10.9978 8.54003 11.39C8.1479 11.7821 8.1479 12.4178 8.54003 12.81L10.14 14.41C10.3278 14.5993 10.5834 14.7058 10.85 14.7058C11.1167 14.7058 11.3723 14.5993 11.56 14.41L15 11C15.3921 10.6078 15.3921 9.97208 15 9.57996C14.6079 9.18784 13.9721 9.18784 13.58 9.57996L13.54 9.58996Z" fill="#171E2B"/>
</svg>
