<svg width="24" height="24" viewBox="0 0 24 24" fill="none" xmlns="http://www.w3.org/2000/svg">
<path fill-rule="evenodd" clip-rule="evenodd" d="M11.29 14.6603C11.1053 14.8465 11.0011 15.0979 11 15.3603C11.0003 15.4943 11.0275 15.6269 11.08 15.7503C11.2661 16.1871 11.7337 16.4329 12.1991 16.3383C12.6644 16.2438 12.9991 15.8351 13 15.3603C12.9989 15.0979 12.8947 14.8465 12.71 14.6603C12.5222 14.4709 12.2666 14.3645 12 14.3645C11.7334 14.3645 11.4778 14.4709 11.29 14.6603ZM19.63 3.66007C19.3947 3.46973 19.0858 3.39619 18.79 3.46007C16.6303 3.9127 14.3795 3.45313 12.57 2.19007C12.2272 1.95227 11.7728 1.95227 11.43 2.19007C9.61906 3.44966 7.36838 3.90559 5.21001 3.45007C4.91417 3.38619 4.60531 3.45973 4.37001 3.65007C4.13501 3.8407 3.99898 4.12749 4.00001 4.43007V11.8801C3.9982 14.7891 5.40257 17.5196 7.77001 19.2101L11.42 21.8101C11.7672 22.0573 12.2328 22.0573 12.58 21.8101L16.23 19.2101C18.5974 17.5196 20.0018 14.7891 20 11.8801V4.43007C20.001 4.12749 19.865 3.8407 19.63 3.65007V3.66007ZM18 11.8799C18.0016 14.1417 16.9102 16.2649 15.07 17.5799L12 19.7699L8.93001 17.5799C7.08983 16.2649 5.99845 14.1417 6 11.8799V5.57994C8.09643 5.75937 10.196 5.27296 12 4.18994C13.804 5.27296 15.9036 5.75937 18 5.57994V11.8799ZM12 7.36018C10.9275 7.35949 9.93625 7.93138 9.4 8.86018C9.1516 9.33503 9.32168 9.92129 9.78564 10.1895C10.2496 10.4577 10.8425 10.3124 11.13 9.86018C11.3724 9.44034 11.881 9.25484 12.3368 9.42005C12.7926 9.58525 13.0642 10.0536 12.9813 10.5312C12.8984 11.0089 12.4848 11.3583 12 11.3602C11.4477 11.3602 11 11.8079 11 12.3602C11 12.9125 11.4477 13.3602 12 13.3602C13.6569 13.3602 15 12.017 15 10.3602C15 8.70333 13.6569 7.36018 12 7.36018Z" fill="#171E2B"/>
</svg>
