<svg width="24" height="24" viewBox="0 0 24 24" fill="none" xmlns="http://www.w3.org/2000/svg">
<path fill-rule="evenodd" clip-rule="evenodd" d="M12.92 15.0001C12.9 14.9387 12.8696 14.8812 12.83 14.8301L12.71 14.6801C12.5222 14.4908 12.2666 14.3843 12 14.3843C11.7333 14.3843 11.4777 14.4908 11.29 14.6801C11.2423 14.7235 11.2018 14.7741 11.17 14.8301C11.1304 14.8812 11.0999 14.9387 11.08 15.0001C11.051 15.0603 11.0308 15.1243 11.02 15.1901C11.0151 15.2534 11.0151 15.3169 11.02 15.3801C11.0165 15.5145 11.0439 15.6479 11.1 15.7701C11.3118 16.2763 11.8919 16.5173 12.4 16.3101C12.5215 16.2558 12.6331 16.1814 12.73 16.0901C12.8199 15.998 12.8912 15.8893 12.94 15.7701C12.9925 15.6468 13.0197 15.5142 13.02 15.3801C13.0249 15.3169 13.0249 15.2534 13.02 15.1901C12.9966 15.122 12.9629 15.0579 12.92 15.0001ZM12 7.35981C11.4477 7.35981 11 7.80752 11 8.35981V11.3598C11 11.9121 11.4477 12.3598 12 12.3598C12.5523 12.3598 13 11.9121 13 11.3598V8.35981C13 7.80752 12.5523 7.35981 12 7.35981ZM19.63 3.64994C19.3947 3.45959 19.0858 3.38606 18.79 3.44994C16.6302 3.90257 14.3794 3.443 12.57 2.17994C12.2272 1.94214 11.7728 1.94214 11.43 2.17994C9.62053 3.443 7.36973 3.90257 5.20998 3.44994C4.91414 3.38606 4.60528 3.45959 4.36998 3.64994C4.13498 3.84057 3.99895 4.12735 3.99998 4.42994V11.8799C3.99817 14.789 5.40254 17.5195 7.76998 19.2099L11.42 21.8099C11.7671 22.0571 12.2328 22.0571 12.58 21.8099L16.23 19.2099C18.5974 17.5195 20.0018 14.789 20 11.8799V4.42994C20.001 4.12735 19.865 3.84057 19.63 3.64994ZM18 11.8799C18.0015 14.1417 16.9102 16.2649 15.07 17.5799L12 19.7699L8.92998 17.5799C7.0898 16.2649 5.99842 14.1417 5.99998 11.8799V5.57993C8.09641 5.75936 10.196 5.27295 12 4.18993C13.8039 5.27295 15.9036 5.75936 18 5.57993V11.8799Z" fill="#171E2B"/>
</svg>
