<svg width="24" height="24" viewBox="0 0 24 24" fill="none" xmlns="http://www.w3.org/2000/svg">
<path fill-rule="evenodd" clip-rule="evenodd" d="M19.63 3.64994C19.3947 3.45959 19.0858 3.38606 18.79 3.44994C16.6303 3.90257 14.3795 3.443 12.57 2.17994C12.2272 1.94214 11.7728 1.94214 11.43 2.17994C9.62056 3.443 7.36976 3.90257 5.21001 3.44994C4.91417 3.38606 4.60531 3.45959 4.37001 3.64994C4.13501 3.84057 3.99898 4.12735 4.00001 4.42994V11.8799C3.9982 14.789 5.40257 17.5195 7.77001 19.2099L11.42 21.8099C11.7672 22.0571 12.2328 22.0571 12.58 21.8099L16.23 19.2099C18.5974 17.5195 20.0018 14.789 20 11.8799V4.42994C20.001 4.12735 19.865 3.84057 19.63 3.64994ZM18 11.8799C18.0015 14.1417 16.9102 16.2649 15.07 17.5799L12 19.7699L8.92999 17.5799C7.08981 16.2649 5.99843 14.1417 5.99999 11.8799V5.57993C8.09642 5.75936 10.196 5.27295 12 4.18993C13.8039 5.27295 15.9036 5.75936 18 5.57993V11.8799Z" fill="#171E2B"/>
</svg>
