<svg width="24" height="24" viewBox="0 0 24 24" fill="none" xmlns="http://www.w3.org/2000/svg">
<path fill-rule="evenodd" clip-rule="evenodd" d="M21.71 20.2899L5.71 4.28994L3.71 2.28994C3.31788 1.89782 2.68212 1.89782 2.29 2.28994C1.89788 2.68206 1.89788 3.31782 2.29 3.70994L4 5.40994V11.8799C4.00143 14.7854 5.40544 17.5115 7.77 19.1999L11.42 21.8099C11.7672 22.0571 12.2328 22.0571 12.58 21.8099L16.23 19.1999C16.5321 18.9863 16.8194 18.7524 17.09 18.4999L20.29 21.7099C20.4778 21.8993 20.7334 22.0057 21 22.0057C21.2666 22.0057 21.5222 21.8993 21.71 21.7099C21.8993 21.5222 22.0058 21.2666 22.0058 20.9999C22.0058 20.7333 21.8993 20.4777 21.71 20.2899ZM15.07 17.58L12 19.77L8.93 17.58C7.08982 16.265 5.99845 14.1418 6 11.88V7.41003L15.67 17.09C15.48 17.26 15.28 17.42 15.07 17.58ZM10.07 5.06992C10.7423 4.8448 11.3892 4.54986 12 4.18992C13.7992 5.28467 15.9027 5.77198 18 5.57992V11.8799C18.0006 12.2754 17.9672 12.6702 17.9 13.0599C17.8568 13.3226 17.9201 13.5917 18.0759 13.8075C18.2317 14.0234 18.4671 14.1682 18.73 14.2099H18.89C19.3854 14.2163 19.8108 13.859 19.89 13.3699C19.9685 12.8738 20.0086 12.3723 20.01 11.8699V4.42992C20.008 4.13084 19.8723 3.84834 19.64 3.65992C19.4088 3.46904 19.1042 3.39196 18.81 3.44992C16.6471 3.9191 14.3866 3.45829 12.58 2.17992C12.2372 1.94212 11.7828 1.94212 11.44 2.17992C10.8234 2.60524 10.1502 2.94186 9.44 3.17992C9.1006 3.29425 8.84797 3.58096 8.77728 3.93205C8.70658 4.28314 8.82857 4.64528 9.09728 4.88205C9.36599 5.11882 9.7406 5.19425 10.08 5.07992L10.07 5.06992Z" fill="#171E2B"/>
</svg>
