<svg width="24" height="24" viewBox="0 0 24 24" fill="none" xmlns="http://www.w3.org/2000/svg">
<path fill-rule="evenodd" clip-rule="evenodd" d="M3.61998 17.2799C3.82433 17.7935 4.40636 18.0442 4.91998 17.8399C5.43361 17.6355 5.68433 17.0535 5.47998 16.5399L4.35998 13.7199L11 12.2499V16.9999C11 17.5522 11.4477 17.9999 12 17.9999C12.5523 17.9999 13 17.5522 13 16.9999V12.2499L19.64 13.7199L18.52 16.5399C18.4216 16.7865 18.4254 17.0621 18.5304 17.306C18.6355 17.5499 18.8332 17.7419 19.08 17.8399C19.1978 17.8864 19.3233 17.9102 19.45 17.9099C19.8598 17.9103 20.2284 17.6606 20.38 17.2799L21.93 13.3699C22.0377 13.0962 22.0194 12.7889 21.88 12.5299C21.7448 12.2719 21.5038 12.0856 21.22 12.0199L18 11.3099V6.99988C18 6.44759 17.5523 5.99988 17 5.99988H15V2.99988C15 2.44759 14.5523 1.99988 14 1.99988H9.99998C9.4477 1.99988 8.99998 2.44759 8.99998 2.99988V5.99988H6.99998C6.4477 5.99988 5.99998 6.44759 5.99998 6.99988V11.3099L2.77998 11.9999C2.4962 12.0656 2.2552 12.2519 2.11998 12.5099C1.98058 12.7689 1.9623 13.0762 2.06998 13.3499L3.61998 17.2799ZM11 3.99975H13V5.99975H11V3.99975ZM7.99999 7.99988H16V10.8599L12.22 9.99988H12.12H12H11.88H11.78L7.99999 10.8599V7.99988ZM20.71 19.2799C20.3591 19.3874 20.0231 19.5386 19.71 19.7299C19.0614 20.1092 18.2586 20.1092 17.61 19.7299C16.201 18.935 14.4789 18.935 13.07 19.7299C12.413 20.1045 11.607 20.1045 10.95 19.7299C9.53999 18.939 7.81997 18.939 6.40998 19.7299C5.76136 20.1092 4.9586 20.1092 4.30998 19.7299C3.99681 19.5386 3.66085 19.3874 3.30998 19.2799C3.04085 19.1842 2.74364 19.2082 2.49331 19.3457C2.24299 19.4833 2.06345 19.7214 1.99998 19.9999C1.84458 20.5271 2.14382 21.0809 2.66998 21.2399C2.87134 21.2944 3.06345 21.3787 3.23998 21.4899C3.84669 21.8459 4.53655 22.0356 5.23998 22.0399C5.97058 22.04 6.6882 21.8468 7.31998 21.4799C8.11672 21.0404 9.08324 21.0404 9.87998 21.4799C11.1563 22.2097 12.7236 22.2097 14 21.4799C14.7967 21.0404 15.7632 21.0404 16.56 21.4799C17.8227 22.2335 19.3972 22.2335 20.66 21.4799C20.8365 21.3687 21.0286 21.2844 21.23 21.2299C21.4989 21.1755 21.7337 21.0129 21.8793 20.7804C22.0249 20.5478 22.0685 20.2656 22 19.9999C21.9357 19.7262 21.7593 19.4923 21.5138 19.3553C21.2684 19.2183 20.9766 19.1909 20.71 19.2799Z" fill="#171E2B"/>
</svg>
