<svg width="24" height="24" viewBox="0 0 24 24" fill="none" xmlns="http://www.w3.org/2000/svg">
<path fill-rule="evenodd" clip-rule="evenodd" d="M21.5 14.9998C21.4955 13.7716 20.7427 12.6702 19.6 12.2198L21.47 5.21981C21.5492 4.91761 21.4826 4.59577 21.29 4.34981C21.0933 4.11952 20.8028 3.99081 20.5 3.99981H6.80002L6.47002 2.73981C6.35204 2.30162 5.9538 1.99781 5.50002 1.99981H3.50002V3.99981H4.73002L7.21002 13.2598C7.33068 13.709 7.74515 14.0157 8.21002 13.9998H18.5C19.0523 13.9998 19.5 14.4475 19.5 14.9998C19.5 15.5521 19.0523 15.9998 18.5 15.9998H5.50002C4.94773 15.9998 4.50002 16.4475 4.50002 16.9998C4.50002 17.5521 4.94773 17.9998 5.50002 17.9998H6.68002C6.22803 19.2451 6.64638 20.6394 7.70926 21.4302C8.77214 22.221 10.2279 22.221 11.2908 21.4302C12.3537 20.6394 12.772 19.2451 12.32 17.9998H14.68C14.2707 19.1278 14.573 20.3912 15.4485 21.2119C16.324 22.0325 17.6043 22.2525 18.7035 21.7712C19.8027 21.2898 20.5093 20.1998 20.5 18.9998C20.4982 18.4832 20.3602 17.9762 20.1 17.5298C20.9691 16.9818 21.4974 16.0272 21.5 14.9998ZM17.59 12H9.00001L7.34002 5.99996H19.2L17.59 12ZM9.50003 20C8.94775 20 8.50003 19.5522 8.50003 19C8.50003 18.4477 8.94775 18 9.50003 18C10.0523 18 10.5 18.4477 10.5 19C10.5 19.5522 10.0523 20 9.50003 20ZM17.5 20C16.9477 20 16.5 19.5522 16.5 19C16.5 18.4477 16.9477 18 17.5 18C18.0523 18 18.5 18.4477 18.5 19C18.5 19.5522 18.0523 20 17.5 20Z" fill="#171E2B"/>
</svg>
