<svg width="24" height="24" viewBox="0 0 24 24" fill="none" xmlns="http://www.w3.org/2000/svg">
<path fill-rule="evenodd" clip-rule="evenodd" d="M22 5.00025H2C1.44772 5.00025 1 5.44796 1 6.00025V10.0002C1.00356 11.2685 1.80427 12.3975 3 12.8202V22.0002C3 22.5525 3.44772 23.0002 4 23.0002H20C20.5523 23.0002 21 22.5525 21 22.0002V12.8202C22.1957 12.3975 22.9964 11.2685 23 10.0002V6.00025C23 5.44796 22.5523 5.00025 22 5.00025ZM15 7.00012H17V10.0001C17 10.5524 16.5523 11.0001 16 11.0001C15.4477 11.0001 15 10.5524 15 10.0001V7.00012ZM11 7.00012H13V10.0001C13 10.5524 12.5523 11.0001 12 11.0001C11.4477 11.0001 11 10.5524 11 10.0001V7.00012ZM7 7.00012H9V10.0001C9 10.5524 8.55228 11.0001 8 11.0001C7.44772 11.0001 7 10.5524 7 10.0001V7.00012ZM3.99999 11.0001C3.44771 11.0001 2.99999 10.5524 2.99999 10.0001V7.00012H4.99999V10.0001C4.99999 10.5524 4.55228 11.0001 3.99999 11.0001ZM14 21.0002H10V19.0002C10 17.8957 10.8954 17.0002 12 17.0002C13.1046 17.0002 14 17.8957 14 19.0002V21.0002ZM19 21.0001H16V19.0001C16 16.791 14.2091 15.0001 12 15.0001C9.79087 15.0001 8.00001 16.791 8.00001 19.0001V21.0001H5.00001V12.8201C5.36758 12.6837 5.70665 12.4802 6.00001 12.2201C7.13881 13.2387 8.86121 13.2387 10 12.2201C11.1388 13.2387 12.8612 13.2387 14 12.2201C15.1388 13.2387 16.8612 13.2387 18 12.2201C18.2934 12.4802 18.6324 12.6837 19 12.8201V21.0001ZM21 10.0001C21 10.5524 20.5523 11.0001 20 11.0001C19.4477 11.0001 19 10.5524 19 10.0001V7.00012H21V10.0001ZM4.29999 3.00012H20C20.5523 3.00012 21 2.55241 21 2.00012C21 1.44784 20.5523 1.00012 20 1.00012H4.29999C3.74771 1.00012 3.29999 1.44784 3.29999 2.00012C3.29999 2.55241 3.74771 3.00012 4.29999 3.00012Z" fill="#171E2B"/>
</svg>
