<svg width="24" height="24" viewBox="0 0 24 24" fill="none" xmlns="http://www.w3.org/2000/svg">
<path fill-rule="evenodd" clip-rule="evenodd" d="M21 15.9999H7.00002C6.44773 15.9999 6.00002 15.5522 6.00002 14.9999C6.00002 14.4476 6.44773 13.9999 7.00002 13.9999H17.44C18.8158 14 20.0153 13.0643 20.35 11.7299L22 5.23988C22.0759 4.94079 22.0095 4.62342 21.82 4.37988C21.6228 4.12988 21.3183 3.98876 21 3.99988H6.76002C6.33727 2.80415 5.20827 2.00344 3.94002 1.99988H3.00002C2.44773 1.99988 2.00002 2.44759 2.00002 2.99988C2.00002 3.55216 2.44773 3.99988 3.00002 3.99988H3.94002C4.41071 3.98616 4.8272 4.30269 4.94002 4.75988L5.00002 5.23988L6.73002 11.9999C5.07316 12.0744 3.79046 13.478 3.86502 15.1349C3.93957 16.7917 5.34316 18.0744 7.00002 17.9999H7.18002C6.72803 19.2452 7.14638 20.6395 8.20926 21.4303C9.27214 22.2211 10.7279 22.2211 11.7908 21.4303C12.8537 20.6395 13.272 19.2452 12.82 17.9999H15.18C14.728 19.2452 15.1464 20.6395 16.2093 21.4303C17.2721 22.2211 18.7279 22.2211 19.7908 21.4303C20.8537 20.6395 21.272 19.2452 20.82 17.9999H21C21.5523 17.9999 22 17.5522 22 16.9999C22 16.4476 21.5523 15.9999 21 15.9999ZM19.72 6L18.41 11.24C18.2972 11.6972 17.8807 12.0137 17.41 12H8.78001L7.28001 6H19.72ZM10 20C9.44771 20 9 19.5523 9 19C9 18.4477 9.44771 18 10 18C10.5523 18 11 18.4477 11 19C11 19.5523 10.5523 20 10 20ZM18 20C17.4477 20 17 19.5523 17 19C17 18.4477 17.4477 18 18 18C18.5523 18 19 18.4477 19 19C19 19.5523 18.5523 20 18 20Z" fill="#171E2B"/>
</svg>
