<svg width="24" height="24" viewBox="0 0 24 24" fill="none" xmlns="http://www.w3.org/2000/svg">
<path fill-rule="evenodd" clip-rule="evenodd" d="M19 6.00004H17.62L15.89 2.55004C15.7459 2.204 15.4204 1.96761 15.0467 1.93766C14.6731 1.90771 14.3141 2.08923 14.1167 2.4079C13.9193 2.72657 13.9167 3.12886 14.11 3.45004L15.38 6.00004H8.61998L9.88998 3.45004C10.0913 2.96651 9.88547 2.40954 9.41804 2.1732C8.95062 1.93687 8.38003 2.10125 8.10998 2.55004L6.37998 6.00004H4.99998C3.54078 6.02223 2.30925 7.09126 2.08215 8.53285C1.85505 9.97443 2.69828 11.3703 4.07998 11.84L4.81998 19.3C4.97461 20.8387 6.27355 22.0078 7.81998 22H16.2C17.7464 22.0078 19.0454 20.8387 19.2 19.3L19.94 11.84C21.3249 11.3688 22.168 9.96747 21.9356 8.52318C21.7031 7.07889 20.4628 6.01287 19 6.00004ZM17.19 19.1001C17.1384 19.613 16.7055 20.0026 16.19 20.0001H7.80998C7.2945 20.0026 6.86152 19.613 6.80998 19.1001L6.09998 12H17.9L17.19 19.1001ZM19 9.99993H4.99998C4.4477 9.99993 3.99998 9.55221 3.99998 8.99993C3.99998 8.44764 4.4477 7.99993 4.99998 7.99993H19C19.5523 7.99993 20 8.44764 20 8.99993C20 9.55221 19.5523 9.99993 19 9.99993Z" fill="#171E2B"/>
</svg>
