<svg width="24" height="24" viewBox="0 0 24 24" fill="none" xmlns="http://www.w3.org/2000/svg">
<path fill-rule="evenodd" clip-rule="evenodd" d="M21.71 7.37994L16.62 2.28994C16.2299 1.90221 15.6 1.90221 15.21 2.28994C15.0207 2.4777 14.9142 2.7333 14.9142 2.99994C14.9142 3.26658 15.0207 3.52217 15.21 3.70994L17 5.53994L11.58 10.9999L10.58 9.99994C10.0171 9.43508 9.25243 9.11757 8.45498 9.11757C7.65752 9.11757 6.89288 9.43508 6.32998 9.99994L2.87998 13.4199C2.31475 13.9845 1.99802 14.7511 1.99998 15.5499V18.9999C1.99998 20.6568 3.34312 21.9999 4.99998 21.9999H8.44998C9.24883 22.0019 10.0155 21.6852 10.58 21.1199L14 17.6899C14.5648 17.127 14.8823 16.3624 14.8823 15.5649C14.8823 14.7675 14.5648 14.0028 14 13.4399L13 12.4399L18.46 6.99994L20.29 8.82994C20.4777 9.01925 20.7333 9.12574 21 9.12574C21.2666 9.12574 21.5222 9.01925 21.71 8.82994C21.9087 8.64114 22.0212 8.37905 22.0212 8.10494C22.0212 7.83083 21.9087 7.56873 21.71 7.37994ZM12.6 16.2698L9.15997 19.7098C8.97125 19.897 8.71577 20.0014 8.44997 19.9998H4.99997C4.44768 19.9998 3.99997 19.5521 3.99997 18.9998V15.5498C3.99843 15.284 4.10278 15.0285 4.28997 14.8398L7.72997 11.3998C8.12001 11.0121 8.74993 11.0121 9.13997 11.3998L10.14 12.3998L9.24997 13.2998C8.86224 13.6899 8.86224 14.3198 9.24997 14.7098C9.44838 14.9072 9.7204 15.0123 9.99997 14.9998C10.2623 14.9987 10.5137 14.8946 10.7 14.7098L11.6 13.8198L12.6 14.8198C12.7987 15.0086 12.9112 15.2707 12.9112 15.5448C12.9112 15.8189 12.7987 16.081 12.6 16.2698Z" fill="#171E2B"/>
</svg>
