<svg width="24" height="24" viewBox="0 0 24 24" fill="none" xmlns="http://www.w3.org/2000/svg">
<path fill-rule="evenodd" clip-rule="evenodd" d="M10.71 11.2901L8.21 8.79009C7.95634 8.53643 7.58663 8.43736 7.24012 8.53021C6.89362 8.62305 6.62297 8.8937 6.53012 9.24021C6.43728 9.58671 6.53634 9.95643 6.79 10.2101L7.59 11.0001H3C2.44772 11.0001 2 11.4478 2 12.0001C2 12.5524 2.44772 13.0001 3 13.0001H7.59L6.79 13.7901C6.60069 13.9779 6.4942 14.2334 6.4942 14.5001C6.4942 14.7667 6.60069 15.0223 6.79 15.2101C6.97777 15.3994 7.23336 15.5059 7.5 15.5059C7.76664 15.5059 8.02223 15.3994 8.21 15.2101L10.71 12.7101C10.801 12.615 10.8724 12.5028 10.92 12.3801C11.02 12.1366 11.02 11.8635 10.92 11.6201C10.8724 11.4973 10.801 11.3852 10.71 11.2901ZM21 11.0001H16.41L17.21 10.2101C17.4636 9.95643 17.5627 9.58671 17.4699 9.24021C17.377 8.8937 17.1064 8.62305 16.7599 8.53021C16.4134 8.43736 16.0436 8.53643 15.79 8.79009L13.29 11.2901C13.1989 11.3852 13.1276 11.4973 13.08 11.6201C12.98 11.8635 12.98 12.1366 13.08 12.3801C13.1276 12.5028 13.1989 12.615 13.29 12.7101L15.79 15.2101C15.9778 15.3994 16.2333 15.5059 16.5 15.5059C16.7666 15.5059 17.0222 15.3994 17.21 15.2101C17.3993 15.0223 17.5058 14.7667 17.5058 14.5001C17.5058 14.2334 17.3993 13.9779 17.21 13.7901L16.41 13.0001H21C21.5523 13.0001 22 12.5524 22 12.0001C22 11.4478 21.5523 11.0001 21 11.0001Z" fill="#171E2B"/>
</svg>
