<svg width="24" height="24" viewBox="0 0 24 24" fill="none" xmlns="http://www.w3.org/2000/svg">
<path fill-rule="evenodd" clip-rule="evenodd" d="M3 9.99991C3.55228 9.99991 4 9.55219 4 8.99991V5.40991L8.56 9.99991C8.74848 10.1955 9.0084 10.3059 9.28 10.3059C9.5516 10.3059 9.81152 10.1955 10 9.99991C10.3877 9.60987 10.3877 8.97995 10 8.58991L5.41 3.99991H9C9.55228 3.99991 10 3.55219 10 2.99991C10 2.44762 9.55228 1.99991 9 1.99991H3C2.86932 2.00149 2.74022 2.02867 2.62 2.07991C2.37565 2.18138 2.18147 2.37556 2.08 2.61991C2.02876 2.74013 2.00158 2.86923 2 2.99991V8.99991C2 9.55219 2.44772 9.99991 3 9.99991ZM15.3 13.9999C14.9032 13.6602 14.3118 13.683 13.9424 14.0524C13.5731 14.4217 13.5502 15.0132 13.89 15.4099L20.16 21.6899C20.3487 21.8771 20.6042 21.9815 20.87 21.9799C21.1358 21.9815 21.3913 21.8771 21.58 21.6899C21.7693 21.5022 21.8758 21.2466 21.8758 20.9799C21.8758 20.7133 21.7693 20.4577 21.58 20.2699L15.3 13.9999ZM9 19.9999H5.41L21.71 3.70994C22.1021 3.31782 22.1021 2.68206 21.71 2.28994C21.3179 1.89782 20.6821 1.89782 20.29 2.28994L4 18.5899V14.9999C4 14.4477 3.55228 13.9999 3 13.9999C2.44772 13.9999 2 14.4477 2 14.9999V20.9999C2.00158 21.1306 2.02876 21.2597 2.08 21.3799C2.18147 21.6243 2.37565 21.8185 2.62 21.9199C2.74022 21.9712 2.86932 21.9984 3 21.9999H9C9.55228 21.9999 10 21.5522 10 20.9999C10 20.4477 9.55228 19.9999 9 19.9999Z" fill="#171E2B"/>
</svg>
