<svg width="24" height="24" viewBox="0 0 24 24" fill="none" xmlns="http://www.w3.org/2000/svg">
<path fill-rule="evenodd" clip-rule="evenodd" d="M19.07 4.92996C16.5592 2.3304 12.8412 1.28784 9.34492 2.20299C5.84862 3.11814 3.11817 5.84859 2.20302 9.34489C1.28787 12.8412 2.33043 16.5592 4.92999 19.07C7.44074 21.6695 11.1588 22.7121 14.6551 21.7969C18.1514 20.8818 20.8818 18.1513 21.797 14.655C22.7121 11.1587 21.6696 7.44071 19.07 4.92996ZM18.23 6.99998H12.76L15.11 4.64998C16.3253 5.16848 17.3961 5.97503 18.23 6.99998ZM8.99999 4.59982C10.2271 4.10866 11.5553 3.92334 12.87 4.05982L8.99999 7.92982V4.59982ZM7 5.7701V11.2401L5.19 9.4301L4.65 8.8901C5.1685 7.67479 5.97505 6.60396 7 5.7701ZM4.59999 15C4.10766 13.7732 3.92229 12.4447 4.05999 11.13L7.92999 15H4.59999ZM5.76999 16.9999H11.24L8.88999 19.3498C7.67468 18.8314 6.60385 18.0248 5.76999 16.9999ZM15 19.3999C13.7731 19.8918 12.4447 20.0771 11.13 19.9398L15 16.0699V19.3999ZM15 13.24L13.24 15H10.75L8.99999 13.24V10.76L10.76 8.99998H13.24L15 10.76V13.24ZM17 18.2401V12.7601L19.35 15.1101C18.8315 16.3254 18.0249 17.3962 17 18.2301V18.2401ZM16.07 8.99998H19.4C19.8919 10.2269 20.0773 11.5553 19.94 12.87L16.07 8.99998Z" fill="#171E2B"/>
</svg>
