<svg width="24" height="24" viewBox="0 0 24 24" fill="none" xmlns="http://www.w3.org/2000/svg">
<path fill-rule="evenodd" clip-rule="evenodd" d="M22 10.9999C21.9957 10.9466 21.9957 10.8931 22 10.8399C22 10.5599 21.92 10.2799 21.87 9.99988C21.6871 9.17139 21.3946 8.37099 21 7.61988C19.6347 4.82634 17.0475 2.82687 14 2.20988L13.16 2.07988H13H12.71H12.63L12 1.99988C11.66 1.99988 11.32 1.99988 11 1.99988H10.84L10 2.19988C6.07531 3.00465 3.00976 6.07414 2.21002 9.99988C2.16002 10.2799 2.12002 10.5599 2.08002 10.8399C2.08429 10.8931 2.08429 10.9466 2.08002 10.9999C2.08002 11.3299 2.08002 11.6699 2.08002 11.9999C2.08002 12.3299 2.08002 12.6799 2.08002 12.9999C2.08429 13.0531 2.08429 13.1066 2.08002 13.1599C2.08002 13.4399 2.16002 13.7199 2.21002 13.9999C2.36748 14.8245 2.63311 15.6248 3.00002 16.3799C4.36538 19.1734 6.9525 21.1729 10 21.7899L10.84 21.9199L11 21.9999H11.34H11.48C11.66 21.9999 11.83 21.9999 12.01 21.9999C12.35 21.9999 12.69 21.9999 13.01 21.9499H13.17L14 21.7999C17.9247 20.9951 20.9903 17.9256 21.79 13.9999C21.84 13.7199 21.88 13.4399 21.92 13.1599C21.9418 13.1043 21.9686 13.0507 22 12.9999C22 12.6699 22.05 12.3299 22.05 11.9999C22.05 11.6699 22 11.3199 22 10.9999ZM13.16 4.09988L13.66 4.16988C15.4678 4.55575 17.0862 5.55574 18.24 6.99988H11.42L13.16 4.09988ZM10.42 4.17975L10.82 4.11975L7.38002 9.99975L5.70002 7.07975C6.86364 5.58808 8.51824 4.55706 10.37 4.16975L10.42 4.17975ZM4.59002 14.9998C4.40932 14.5566 4.26876 14.0981 4.17002 13.6298C4.17002 13.4098 4.09002 13.1798 4.07002 12.9498C4.0652 12.9099 4.0652 12.8696 4.07002 12.8298C4.01668 12.2911 4.01668 11.7484 4.07002 11.2098C4.0652 11.1699 4.0652 11.1296 4.07002 11.0898C4.07002 10.8598 4.13002 10.6298 4.17002 10.4098C4.25799 9.96278 4.38514 9.52442 4.55002 9.09975L8.00002 14.9998H4.59002ZM10.89 19.9099L10.39 19.8399C8.56271 19.4621 6.92492 18.4575 5.76002 16.9999H12.58L10.89 19.9099ZM10.27 15L8.54002 12L10.27 9H13.73L15.46 12L13.73 15H10.27ZM13.63 19.8299L13.23 19.8899L16.62 13.9999L18.3 16.9199C17.1364 18.4115 15.4818 19.4426 13.63 19.8299ZM19.96 12.83C19.9648 12.8699 19.9648 12.9101 19.96 12.95C19.96 13.18 19.9 13.41 19.86 13.63C19.7698 14.0634 19.6427 14.4883 19.48 14.9L16 9H19.37C19.5507 9.44318 19.6913 9.90169 19.79 10.37C19.79 10.59 19.87 10.82 19.89 11.05C19.8948 11.0899 19.8948 11.1301 19.89 11.17C19.9434 11.7087 19.9434 12.2513 19.89 12.79L19.96 12.83Z" fill="#171E2B"/>
</svg>
