<svg width="24" height="24" viewBox="0 0 24 24" fill="none" xmlns="http://www.w3.org/2000/svg">
<path fill-rule="evenodd" clip-rule="evenodd" d="M9 11C9.55228 11 10 10.5523 10 10C10 9.44772 9.55228 9 9 9C8.44771 9 8 9.44772 8 10C8 10.5523 8.44771 11 9 11ZM15 11C15.5523 11 16 10.5523 16 10C16 9.44772 15.5523 9 15 9C14.4477 9 14 9.44772 14 10C14 10.5523 14.4477 11 15 11ZM15.27 14.1999C14.9144 13.9332 14.4255 13.9332 14.07 14.1999L13.33 14.7499L12.6 14.1999C12.2444 13.9332 11.7555 13.9332 11.4 14.1999L10.67 14.7499L9.92999 14.1999C9.57444 13.9332 9.08555 13.9332 8.72999 14.1999L7.39999 15.1999C6.95816 15.5312 6.86862 16.1581 7.19999 16.5999C7.53136 17.0417 8.15816 17.1313 8.59999 16.7999L9.32999 16.2499L10.07 16.7999L10.19 16.8599C10.2592 16.8968 10.3332 16.9237 10.41 16.9399H10.53C10.613 16.9503 10.697 16.9503 10.78 16.9399H10.88C11.002 16.9072 11.1171 16.853 11.22 16.7799L11.95 16.2299L12.68 16.7799C12.9693 16.9938 13.3511 17.0358 13.68 16.8899L13.78 16.8399C13.8197 16.8259 13.8568 16.8057 13.89 16.7799L14.63 16.2299L15.36 16.7799C15.5331 16.9097 15.7436 16.9799 15.96 16.9799C16.2748 16.9799 16.5711 16.8317 16.76 16.5799C17.0914 16.1381 17.0018 15.5112 16.56 15.1799L15.27 14.1999ZM12 1.99988C6.47715 1.99988 2 6.47703 2 11.9999C2 17.5227 6.47715 21.9999 12 21.9999C17.5228 21.9999 22 17.5227 22 11.9999C22 9.34771 20.9464 6.80417 19.0711 4.92881C17.1957 3.05345 14.6522 1.99988 12 1.99988ZM12 19.9998C7.58171 19.9998 3.99999 16.418 3.99999 11.9998C3.99999 7.58148 7.58171 3.99975 12 3.99975C16.4183 3.99975 20 7.58148 20 11.9998C20 14.1215 19.1571 16.1563 17.6568 17.6566C16.1566 19.1569 14.1217 19.9998 12 19.9998Z" fill="#171E2B"/>
</svg>
