<svg width="24" height="24" viewBox="0 0 24 24" fill="none" xmlns="http://www.w3.org/2000/svg">
<path fill-rule="evenodd" clip-rule="evenodd" d="M6.99997 5.99988V10.9999C6.99997 11.5522 7.44768 11.9999 7.99997 11.9999H11V19.9999H8.99997C8.44768 19.9999 7.99997 20.4476 7.99997 20.9999C7.99997 21.5522 8.44768 21.9999 8.99997 21.9999H15C15.5523 21.9999 16 21.5522 16 20.9999C16 20.4476 15.5523 19.9999 15 19.9999H13V11.9999H18C18.3026 12.0009 18.5893 11.8649 18.78 11.6299L20.78 9.12988C21.0725 8.76454 21.0725 8.24521 20.78 7.87988L18.78 5.37988C18.5913 5.14114 18.3042 5.00128 18 4.99988H13V2.99988C13 2.44759 12.5523 1.99988 12 1.99988C11.4477 1.99988 11 2.44759 11 2.99988V4.99988H7.99997C7.44768 4.99988 6.99997 5.44759 6.99997 5.99988ZM8.99998 6.99975H17.52L18.72 8.49975L17.52 9.99975H8.99998V6.99975Z" fill="#171E2B"/>
</svg>
