<svg width="24" height="24" viewBox="0 0 24 24" fill="none" xmlns="http://www.w3.org/2000/svg">
<path fill-rule="evenodd" clip-rule="evenodd" d="M16 4.99988H13V2.99988C13 2.44759 12.5523 1.99988 12 1.99988C11.4477 1.99988 11 2.44759 11 2.99988V4.99988H6.00001C5.69573 5.00128 5.40865 5.14114 5.22001 5.37988L3.22001 7.87988C2.93281 8.24332 2.93281 8.75643 3.22001 9.11988L5.22001 11.6199C5.40865 11.8586 5.69573 11.9985 6.00001 11.9999H11V19.9999H9C8.44772 19.9999 8 20.4476 8 20.9999C8 21.5522 8.44772 21.9999 9 21.9999H15C15.5523 21.9999 16 21.5522 16 20.9999C16 20.4476 15.5523 19.9999 15 19.9999H13V11.9999H16C16.5523 11.9999 17 11.5522 17 10.9999V5.99988C17 5.44759 16.5523 4.99988 16 4.99988ZM15 9.99975H6.48L5.28 8.49975L6.48 6.99975H15V9.99975Z" fill="#171E2B"/>
</svg>
