<svg width="24" height="24" viewBox="0 0 24 24" fill="none" xmlns="http://www.w3.org/2000/svg">
<path fill-rule="evenodd" clip-rule="evenodd" d="M6.00003 15C5.44775 15 5.00003 15.4477 5.00003 16V19C5.00003 19.5523 5.44775 20 6.00003 20C6.55232 20 7.00003 19.5523 7.00003 19V16C7.00003 15.4477 6.55232 15 6.00003 15ZM10 12C9.44773 12 9.00001 12.4477 9.00001 13V19C9.00001 19.5523 9.44773 20 10 20C10.5523 20 11 19.5523 11 19V13C11 12.4477 10.5523 12 10 12ZM18 4.00012C17.4477 4.00012 17 4.44784 17 5.00012V19.0001C17 19.5524 17.4477 20.0001 18 20.0001C18.5523 20.0001 19 19.5524 19 19.0001V5.00012C19 4.44784 18.5523 4.00012 18 4.00012ZM14 8.00025C13.4477 8.00025 13 8.44796 13 9.00025V19.0002C13 19.5525 13.4477 20.0002 14 20.0002C14.5523 20.0002 15 19.5525 15 19.0002V9.00025C15 8.44796 14.5523 8.00025 14 8.00025Z" fill="#171E2B"/>
</svg>
