<svg width="24" height="24" viewBox="0 0 24 24" fill="none" xmlns="http://www.w3.org/2000/svg">
<path fill-rule="evenodd" clip-rule="evenodd" d="M20.5 15.1001C20.0057 14.8546 19.406 15.056 19.16 15.5501C17.4081 19.088 13.3373 20.819 9.57394 19.6263C5.81053 18.4336 3.47983 14.6739 4.08551 10.7728C4.69119 6.87163 8.05213 3.99558 12 4.00012C15.0428 3.98695 17.8247 5.71597 19.16 8.45012C19.4085 8.94718 20.0129 9.14865 20.51 8.90013C21.0071 8.6516 21.2085 8.04718 20.96 7.55013C18.8941 3.39272 14.2387 1.20379 9.71921 2.2648C5.19968 3.32582 2.0047 7.35773 2.0047 12.0001C2.0047 16.6425 5.19968 20.6744 9.71921 21.7354C14.2387 22.7965 18.8941 20.6075 20.96 16.4501C21.0804 16.2105 21.0995 15.9325 21.013 15.6787C20.9265 15.4249 20.7417 15.2164 20.5 15.1001ZM21 11.0001H11.41L13.71 8.71009C13.9637 8.45643 14.0627 8.08672 13.9699 7.74021C13.877 7.39371 13.6064 7.12306 13.2599 7.03021C12.9134 6.93737 12.5437 7.03643 12.29 7.29009L8.29 11.2901C8.19896 11.3852 8.1276 11.4973 8.08 11.6201C7.97998 11.8636 7.97998 12.1366 8.08 12.3801C8.1276 12.5028 8.19896 12.615 8.29 12.7101L12.29 16.7101C12.4778 16.8994 12.7334 17.0059 13 17.0059C13.2666 17.0059 13.5222 16.8994 13.71 16.7101C13.8993 16.5223 14.0058 16.2667 14.0058 16.0001C14.0058 15.7335 13.8993 15.4779 13.71 15.2901L11.41 13.0001H21C21.5523 13.0001 22 12.5524 22 12.0001C22 11.4478 21.5523 11.0001 21 11.0001Z" fill="#171E2B"/>
</svg>
