<svg width="24" height="24" viewBox="0 0 24 24" fill="none" xmlns="http://www.w3.org/2000/svg">
<path fill-rule="evenodd" clip-rule="evenodd" d="M9.99999 13.9999C9.44771 13.9999 8.99999 14.4476 8.99999 14.9999V20.9999C8.99999 21.5522 9.44771 21.9999 9.99999 21.9999C10.5523 21.9999 11 21.5522 11 20.9999V14.9999C11 14.4476 10.5523 13.9999 9.99999 13.9999ZM5 18C4.44771 18 4 18.4477 4 19V21C4 21.5523 4.44771 22 5 22C5.55228 22 6 21.5523 6 21V19C6 18.4477 5.55228 18 5 18ZM20 1.99988C19.4477 1.99988 19 2.44759 19 2.99988V20.9999C19 21.5522 19.4477 21.9999 20 21.9999C20.5523 21.9999 21 21.5522 21 20.9999V2.99988C21 2.44759 20.5523 1.99988 20 1.99988ZM15 9C14.4477 9 14 9.44772 14 10V21C14 21.5523 14.4477 22 15 22C15.5523 22 16 21.5523 16 21V10C16 9.44772 15.5523 9 15 9Z" fill="#171E2B"/>
</svg>
