<svg width="24" height="24" viewBox="0 0 24 24" fill="none" xmlns="http://www.w3.org/2000/svg">
<path fill-rule="evenodd" clip-rule="evenodd" d="M12.59 13.0001L10.29 15.2901C10.1007 15.4779 9.99421 15.7335 9.99421 16.0001C9.99421 16.2668 10.1007 16.5224 10.29 16.7101C10.4778 16.8994 10.7334 17.0059 11 17.0059C11.2667 17.0059 11.5222 16.8994 11.71 16.7101L15.71 12.7101C15.8011 12.615 15.8724 12.5029 15.92 12.3801C16.02 12.1367 16.02 11.8636 15.92 11.6201C15.8724 11.4974 15.8011 11.3852 15.71 11.2901L11.71 7.29013C11.4564 7.03647 11.0866 6.93741 10.7401 7.03025C10.3936 7.1231 10.123 7.39375 10.0301 7.74025C9.93729 8.08676 10.0364 8.45647 10.29 8.71013L12.59 11.0001H3.00001C2.44773 11.0001 2.00002 11.4478 2.00002 12.0001C2.00002 12.5524 2.44773 13.0001 3.00001 13.0001H12.59ZM12 1.99998C8.18727 1.98296 4.69664 4.13551 3 7.54998C2.75147 8.04703 2.95294 8.65145 3.45 8.89998C3.94705 9.14851 4.55147 8.94703 4.8 8.44998C6.54965 4.91664 10.6128 3.18493 14.3734 4.36984C18.1339 5.55474 20.4704 9.3029 19.8785 13.201C19.2866 17.0992 15.9428 19.9848 12 20C8.95724 20.0132 6.17526 18.2841 4.84 15.55C4.59147 15.0529 3.98705 14.8514 3.49 15.1C2.99294 15.3485 2.79147 15.9529 3.04 16.45C5.23431 20.8659 10.32 23.0231 15.0201 21.5315C19.7201 20.04 22.6314 15.345 21.8779 10.4719C21.1243 5.59874 16.931 2.00229 12 1.99998Z" fill="#171E2B"/>
</svg>
