<svg width="24" height="24" viewBox="0 0 24 24" fill="none" xmlns="http://www.w3.org/2000/svg">
<path fill-rule="evenodd" clip-rule="evenodd" d="M21.78 11.8799L19.78 9.37988C19.5913 9.14114 19.3043 9.00128 19 8.99988H13V2.99988C13 2.44759 12.5523 1.99988 12 1.99988C11.4477 1.99988 11 2.44759 11 2.99988V3.99988H4.99998C4.6957 4.00128 4.40862 4.14114 4.21998 4.37988L2.21998 6.87988C1.93278 7.24332 1.93278 7.75643 2.21998 8.11988L4.21998 10.6199C4.40862 10.8586 4.6957 10.9985 4.99998 10.9999H11V19.9999H8.99998C8.44769 19.9999 7.99998 20.4476 7.99998 20.9999C7.99998 21.5522 8.44769 21.9999 8.99998 21.9999H15C15.5523 21.9999 16 21.5522 16 20.9999C16 20.4476 15.5523 19.9999 15 19.9999H13V15.9999H19C19.3043 15.9985 19.5913 15.8586 19.78 15.6199L21.78 13.1199C22.0672 12.7564 22.0672 12.2433 21.78 11.8799ZM11 9H5.47997L4.27997 7.5L5.47997 6H11V9ZM18.52 13.9999H13V10.9999H18.52L19.72 12.4999L18.52 13.9999Z" fill="#171E2B"/>
</svg>
