<svg width="24" height="24" viewBox="0 0 24 24" fill="none" xmlns="http://www.w3.org/2000/svg">
<path fill-rule="evenodd" clip-rule="evenodd" d="M14 9H10C9.44772 9 9 9.44771 9 10V22C9 22.5523 9.44772 23 10 23H14C14.5523 23 15 22.5523 15 22V10C15 9.44771 14.5523 9 14 9ZM13 21.0002H11V11.0002H13V21.0002ZM22 1.00012H18C17.4477 1.00012 17 1.44784 17 2.00012V22.0001C17 22.5524 17.4477 23.0001 18 23.0001H22C22.5523 23.0001 23 22.5524 23 22.0001V2.00012C23 1.44784 22.5523 1.00012 22 1.00012ZM21 21H19V3H21V21ZM6 15H2C1.44772 15 1 15.4477 1 16V22C1 22.5523 1.44772 23 2 23H6C6.55228 23 7 22.5523 7 22V16C7 15.4477 6.55228 15 6 15ZM5 21.0002H3V17.0002H5V21.0002Z" fill="#171E2B"/>
</svg>
