<svg width="24" height="24" viewBox="0 0 24 24" fill="none" xmlns="http://www.w3.org/2000/svg">
<path fill-rule="evenodd" clip-rule="evenodd" d="M7.66001 12.21C7.84873 12.3972 8.1042 12.5016 8.37001 12.5C8.63581 12.5016 8.89129 12.3972 9.08001 12.21L10.58 10.71C10.7693 10.5223 10.8758 10.2667 10.8758 10C10.8758 9.73339 10.7693 9.4778 10.58 9.29003L9.08001 7.79003C8.68788 7.39791 8.05213 7.39791 7.66001 7.79003C7.26788 8.18215 7.26788 8.81791 7.66001 9.21003L8.46001 10L7.66001 10.79C7.47069 10.9778 7.36421 11.2334 7.36421 11.5C7.36421 11.7667 7.47069 12.0223 7.66001 12.21ZM15.16 12.21C15.3487 12.3971 15.6042 12.5015 15.87 12.5C16.1358 12.5015 16.3913 12.3971 16.58 12.21C16.7693 12.0222 16.8758 11.7666 16.8758 11.5C16.8758 11.2333 16.7693 10.9777 16.58 10.79L15.79 9.99996L16.58 9.20996C16.8337 8.9563 16.9327 8.58659 16.8399 8.24008C16.747 7.89358 16.4764 7.62293 16.1299 7.53008C15.7834 7.43724 15.4137 7.5363 15.16 7.78996L13.66 9.28996C13.4707 9.47773 13.3642 9.73332 13.3642 9.99996C13.3642 10.2666 13.4707 10.5222 13.66 10.71L15.16 12.21ZM15.27 14.21C14.9144 13.9433 14.4255 13.9433 14.07 14.21L13.33 14.76L12.6 14.21C12.2444 13.9433 11.7555 13.9433 11.4 14.21L10.67 14.76L9.92999 14.21C9.57443 13.9433 9.08555 13.9433 8.72999 14.21L7.39999 15.21C6.95816 15.5414 6.86862 16.1682 7.19999 16.61C7.53136 17.0518 8.15816 17.1414 8.59999 16.81L9.32999 16.26L10.07 16.81C10.1079 16.834 10.1481 16.8541 10.19 16.87C10.2592 16.9069 10.3332 16.9339 10.41 16.95H10.54H10.77H10.89C11.008 16.9152 11.1195 16.8611 11.22 16.79L11.95 16.24L12.68 16.79C12.9693 17.0039 13.3511 17.0459 13.68 16.9L13.78 16.85C13.8196 16.8361 13.8568 16.8158 13.89 16.79L14.63 16.24L15.36 16.79C15.5331 16.9198 15.7436 16.99 15.96 16.99C16.2747 16.99 16.5711 16.8418 16.76 16.59C16.9191 16.3778 16.9874 16.1111 16.9499 15.8486C16.9124 15.586 16.7722 15.3491 16.56 15.19L15.27 14.21ZM12 1.99988C6.47715 1.99988 2 6.47703 2 11.9999C2 17.5227 6.47715 21.9999 12 21.9999C17.5228 21.9999 22 17.5227 22 11.9999C22 9.34771 20.9464 6.80417 19.0711 4.92881C17.1957 3.05345 14.6522 1.99988 12 1.99988ZM12 19.9998C7.58171 19.9998 3.99999 16.418 3.99999 11.9998C3.99999 7.58148 7.58171 3.99975 12 3.99975C16.4183 3.99975 20 7.58148 20 11.9998C20 14.1215 19.1571 16.1563 17.6568 17.6566C16.1566 19.1569 14.1217 19.9998 12 19.9998Z" fill="#171E2B"/>
</svg>
