<svg width="24" height="24" viewBox="0 0 24 24" fill="none" xmlns="http://www.w3.org/2000/svg">
<path fill-rule="evenodd" clip-rule="evenodd" d="M9 11C9.55229 11 10 10.5523 10 10C10 9.44772 9.55229 9 9 9C8.44772 9 8 9.44772 8 10C8 10.5523 8.44772 11 9 11ZM15 11C15.5523 11 16 10.5523 16 10C16 9.44772 15.5523 9 15 9C14.4477 9 14 9.44772 14 10C14 10.5523 14.4477 11 15 11ZM16 13.9998C16 13.4475 15.5523 12.9998 15 12.9998C14.4477 12.9998 14 13.4475 14 13.9998H13C13 13.4475 12.5523 12.9998 12 12.9998C11.4477 12.9998 11 13.4475 11 13.9998H10C10 13.4475 9.55229 12.9998 9 12.9998C8.44772 12.9998 8 13.4475 8 13.9998C7.44772 13.9998 7 14.4475 7 14.9998C7 15.552 7.44772 15.9998 8 15.9998C8 16.552 8.44772 16.9998 9 16.9998C9.55229 16.9998 10 16.552 10 15.9998H11C11 16.552 11.4477 16.9998 12 16.9998C12.5523 16.9998 13 16.552 13 15.9998H14C14 16.552 14.4477 16.9998 15 16.9998C15.5523 16.9998 16 16.552 16 15.9998C16.5523 15.9998 17 15.552 17 14.9998C17 14.4475 16.5523 13.9998 16 13.9998ZM12 1.99988C6.47715 1.99988 2 6.47703 2 11.9999C2 17.5227 6.47715 21.9999 12 21.9999C17.5228 21.9999 22 17.5227 22 11.9999C22 9.34771 20.9464 6.80417 19.0711 4.92881C17.1957 3.05345 14.6522 1.99988 12 1.99988ZM12 19.9998C7.58172 19.9998 4 16.418 4 11.9998C4 7.58148 7.58172 3.99975 12 3.99975C16.4183 3.99975 20 7.58148 20 11.9998C20 14.1215 19.1571 16.1563 17.6569 17.6566C16.1566 19.1569 14.1217 19.9998 12 19.9998Z" fill="#171E2B"/>
</svg>
