<svg width="24" height="24" viewBox="0 0 24 24" fill="none" xmlns="http://www.w3.org/2000/svg">
<path fill-rule="evenodd" clip-rule="evenodd" d="M17 3.49988H7C5.067 3.49988 3.5 5.06688 3.5 6.99988V16.9999C3.5 18.9329 5.067 20.4999 7 20.4999H17C18.933 20.4999 20.5 18.9329 20.5 16.9999V6.99988C20.5 5.06688 18.933 3.49988 17 3.49988ZM10.5 5.49975H13.5V8.49975H10.5V5.49975ZM8.49999 18.4999H6.99999C6.17156 18.4999 5.49999 17.8283 5.49999 16.9999V15.4999H8.49999V18.4999ZM13.5 18.4999H10.5V15.4999H13.5V18.4999ZM18.5 16.9999C18.5 17.8283 17.8284 18.4999 17 18.4999H15.5V15.4999H18.5V16.9999ZM18.5 13.4998H5.49999V6.99976C5.49999 6.17133 6.17156 5.49975 6.99999 5.49975H8.49999V9.49976C8.49999 10.052 8.94771 10.4998 9.49999 10.4998H18.5V13.4998ZM18.5 8.49975H15.5V5.49975H17C17.8284 5.49975 18.5 6.17133 18.5 6.99975V8.49975Z" fill="#171E2B"/>
</svg>
