<svg width="24" height="24" viewBox="0 0 24 24" fill="none" xmlns="http://www.w3.org/2000/svg">
<path fill-rule="evenodd" clip-rule="evenodd" d="M19 3C17.3432 3 16 4.34315 16 6V8.84L7.00001 3.47C5.9867 2.86528 4.72331 2.86528 3.71001 3.47C2.64943 4.07271 1.9959 5.20014 2.00001 6.42V17.58C1.97966 18.8198 2.6398 19.9712 3.72001 20.58C4.21096 20.8578 4.76593 21.0025 5.33001 21C5.91877 20.9961 6.49561 20.8337 7.00001 20.53L16 15.16V18C16 19.6569 17.3432 21 19 21C20.6569 21 22 19.6569 22 18V6C22 4.34315 20.6569 3 19 3ZM15.32 13.23L6.00001 18.81C5.60695 19.0495 5.11307 19.0495 4.72001 18.81C4.27365 18.562 3.99774 18.0906 4.00001 17.58V6.42002C3.98835 5.90438 4.26115 5.4241 4.71001 5.17002C4.89902 5.06194 5.11231 5.00346 5.33001 5.00002C5.56698 4.99749 5.79964 5.06347 6.00001 5.19002L15.33 10.77C15.7543 11.0349 16.0122 11.4998 16.0122 12C16.0122 12.5002 15.7543 12.9651 15.33 13.23H15.32ZM20 17.9999C20 18.5522 19.5523 18.9999 19 18.9999C18.4477 18.9999 18 18.5522 18 17.9999V5.99988C18 5.44759 18.4477 4.99988 19 4.99988C19.5523 4.99988 20 5.44759 20 5.99988V17.9999Z" fill="#171E2B"/>
</svg>
