<svg width="24" height="24" viewBox="0 0 24 24" fill="none" xmlns="http://www.w3.org/2000/svg">
<path fill-rule="evenodd" clip-rule="evenodd" d="M15.5 6.99975C14.9477 6.99975 14.5 7.44747 14.5 7.99975V9.68975L10.5 7.37975C9.8815 7.02267 9.11954 7.02247 8.50087 7.37924C7.8822 7.73601 7.50072 8.39559 7.49998 9.10975V14.8898C7.50072 15.6036 7.88182 16.2629 8.49998 16.6198C9.11879 16.977 9.88118 16.977 10.5 16.6198L14.5 14.3098V15.9998C14.5 16.552 14.9477 16.9998 15.5 16.9998C16.0523 16.9998 16.5 16.552 16.5 15.9998V7.99975C16.5 7.44747 16.0523 6.99975 15.5 6.99975ZM14.5 11.9999L9.5 14.8899V9.10988L14.5 11.9899V11.9999ZM12 1.99988C6.47715 1.99988 2 6.47703 2 11.9999C2 17.5227 6.47715 21.9999 12 21.9999C17.5228 21.9999 22 17.5227 22 11.9999C22 9.34771 20.9464 6.80417 19.0711 4.92881C17.1957 3.05345 14.6522 1.99988 12 1.99988ZM12 19.9998C7.58174 19.9998 4.00002 16.418 4.00002 11.9998C4.00002 7.58148 7.58174 3.99975 12 3.99975C16.4183 3.99975 20 7.58148 20 11.9998C20 14.1215 19.1572 16.1563 17.6569 17.6566C16.1566 19.1569 14.1217 19.9998 12 19.9998Z" fill="#171E2B"/>
</svg>
