<svg width="24" height="24" viewBox="0 0 24 24" fill="none" xmlns="http://www.w3.org/2000/svg">
<path fill-rule="evenodd" clip-rule="evenodd" d="M5.00002 3C3.34316 3 2.00002 4.34315 2.00002 6V18C2.00002 19.6569 3.34316 21 5.00002 21C6.65687 21 8.00002 19.6569 8.00002 18V6C8.00002 4.34315 6.65687 3 5.00002 3ZM6.00003 17.9999C6.00003 18.5522 5.55232 18.9999 5.00003 18.9999C4.44775 18.9999 4.00003 18.5522 4.00003 17.9999V5.99988C4.00003 5.44759 4.44775 4.99988 5.00003 4.99988C5.55232 4.99988 6.00003 5.44759 6.00003 5.99988V17.9999ZM20.68 9.64988L14 5.65988C13.1855 5.17988 12.1745 5.17988 11.36 5.65988C10.5262 6.14592 10.0096 7.03479 10 7.99988V15.9999C9.99746 16.9813 10.52 17.8892 11.37 18.3799C12.1828 18.8664 13.1972 18.8664 14.01 18.3799L20.68 14.3799C21.5007 13.8811 22.0017 12.9903 22.0017 12.0299C22.0017 11.0695 21.5007 10.1787 20.68 9.67988V9.64988ZM19.68 12.6499L13.02 16.6499C12.8263 16.7667 12.5838 16.7667 12.39 16.6499C12.1472 16.5247 11.9962 16.273 12 15.9999V7.99988C11.994 7.73678 12.1321 7.49139 12.36 7.35988C12.4549 7.30738 12.5616 7.27985 12.67 7.27988C12.7828 7.28069 12.8933 7.31177 12.99 7.36988L19.65 11.3699C19.8682 11.5096 20.0001 11.7508 20.0001 12.0099C20.0001 12.2689 19.8682 12.5102 19.65 12.6499H19.68Z" fill="#171E2B"/>
</svg>
