<svg width="24" height="24" viewBox="0 0 24 24" fill="none" xmlns="http://www.w3.org/2000/svg">
<path fill-rule="evenodd" clip-rule="evenodd" d="M7 5.99988H6V2.99988C6 2.44759 5.55228 1.99988 5 1.99988C4.44772 1.99988 4 2.44759 4 2.99988V5.99988H3C2.44772 5.99988 2 6.44759 2 6.99988C2 7.55216 2.44772 7.99988 3 7.99988H7C7.55228 7.99988 8 7.55216 8 6.99988C8 6.44759 7.55228 5.99988 7 5.99988ZM5.00002 9.99975C4.44773 9.99975 4.00002 10.4475 4.00002 10.9998V20.9998C4.00002 21.552 4.44773 21.9998 5.00002 21.9998C5.5523 21.9998 6.00002 21.552 6.00002 20.9998V10.9998C6.00002 10.4475 5.5523 9.99975 5.00002 9.99975ZM12 18C11.4477 18 11 18.4477 11 19V21C11 21.5523 11.4477 22 12 22C12.5523 22 13 21.5523 13 21V19C13 18.4477 12.5523 18 12 18ZM21 9.99988H20V2.99988C20 2.44759 19.5523 1.99988 19 1.99988C18.4477 1.99988 18 2.44759 18 2.99988V9.99988H17C16.4477 9.99988 16 10.4476 16 10.9999C16 11.5522 16.4477 11.9999 17 11.9999H21C21.5523 11.9999 22 11.5522 22 10.9999C22 10.4476 21.5523 9.99988 21 9.99988ZM19 13.9999C18.4477 13.9999 18 14.4476 18 14.9999V20.9999C18 21.5522 18.4477 21.9999 19 21.9999C19.5523 21.9999 20 21.5522 20 20.9999V14.9999C20 14.4476 19.5523 13.9999 19 13.9999ZM14 13.9999H13V2.99988C13 2.44759 12.5523 1.99988 12 1.99988C11.4477 1.99988 11 2.44759 11 2.99988V13.9999H9.99998C9.4477 13.9999 8.99998 14.4476 8.99998 14.9999C8.99998 15.5522 9.4477 15.9999 9.99998 15.9999H14C14.5523 15.9999 15 15.5522 15 14.9999C15 14.4476 14.5523 13.9999 14 13.9999Z" fill="#171E2B"/>
</svg>
