<svg width="24" height="24" viewBox="0 0 24 24" fill="none" xmlns="http://www.w3.org/2000/svg">
<path fill-rule="evenodd" clip-rule="evenodd" d="M20 8.17988V2.99988C20 2.44759 19.5523 1.99988 19 1.99988C18.4477 1.99988 18 2.44759 18 2.99988V8.17988C16.8135 8.6105 16.0235 9.73769 16.0235 10.9999C16.0235 12.2621 16.8135 13.3893 18 13.8199V20.9999C18 21.5522 18.4477 21.9999 19 21.9999C19.5523 21.9999 20 21.5522 20 20.9999V13.8199C21.1865 13.3893 21.9765 12.2621 21.9765 10.9999C21.9765 9.73769 21.1865 8.6105 20 8.17988ZM19 11.9998C18.4477 11.9998 18 11.552 18 10.9998C18 10.4475 18.4477 9.99975 19 9.99975C19.5523 9.99975 20 10.4475 20 10.9998C20 11.552 19.5523 11.9998 19 11.9998ZM13 14.1799V2.99988C13 2.44759 12.5523 1.99988 12 1.99988C11.4477 1.99988 11 2.44759 11 2.99988V14.1799C9.81356 14.6105 9.02354 15.7377 9.02354 16.9999C9.02354 18.2621 9.81356 19.3892 11 19.8199V20.9999C11 21.5522 11.4477 21.9999 12 21.9999C12.5523 21.9999 13 21.5522 13 20.9999V19.8199C14.1865 19.3892 14.9765 18.2621 14.9765 16.9999C14.9765 15.7377 14.1865 14.6105 13 14.1799ZM12 17.9998C11.4477 17.9998 11 17.552 11 16.9998C11 16.4475 11.4477 15.9998 12 15.9998C12.5523 15.9998 13 16.4475 13 16.9998C13 17.552 12.5523 17.9998 12 17.9998ZM6 6.17988V2.99988C6 2.44759 5.55229 1.99988 5 1.99988C4.44772 1.99988 4.00001 2.44759 4.00001 2.99988V6.17988C2.81355 6.6105 2.02353 7.73769 2.02353 8.99988C2.02353 10.2621 2.81355 11.3893 4.00001 11.8199V20.9999C4.00001 21.5522 4.44772 21.9999 5 21.9999C5.55229 21.9999 6 21.5522 6 20.9999V11.8199C7.18646 11.3893 7.97648 10.2621 7.97648 8.99988C7.97648 7.73769 7.18646 6.6105 6 6.17988ZM5 9.99988C4.44772 9.99988 4 9.55216 4 8.99988C4 8.44759 4.44772 7.99988 5 7.99988C5.55229 7.99988 6 8.44759 6 8.99988C6 9.55216 5.55229 9.99988 5 9.99988Z" fill="#171E2B"/>
</svg>
