<svg width="24" height="24" viewBox="0 0 24 24" fill="none" xmlns="http://www.w3.org/2000/svg">
<path fill-rule="evenodd" clip-rule="evenodd" d="M14.36 14.2299C12.9826 15.3404 11.0174 15.3404 9.64 14.2299C9.21474 13.8765 8.58346 13.9347 8.23 14.3599C7.87654 14.7852 7.93474 15.4165 8.36 15.7699C10.4677 17.5294 13.5323 17.5294 15.64 15.7699C15.9151 15.5413 16.0473 15.1832 15.9868 14.8307C15.9264 14.4781 15.6824 14.1846 15.3468 14.0607C15.0113 13.9367 14.6351 14.0013 14.36 14.2299ZM9.00001 11.7097L9.29001 11.4097L9.58001 11.7097C9.76777 11.899 10.0234 12.0055 10.29 12.0055C10.5566 12.0055 10.8122 11.899 11 11.7097C11.1893 11.522 11.2958 11.2664 11.2958 10.9997C11.2958 10.7331 11.1893 10.4775 11 10.2897L10.7 9.99972L11 9.70972C11.3921 9.30655 11.3832 8.66184 10.98 8.26972C10.5768 7.87759 9.93213 7.88655 9.54001 8.28972L9.25001 8.58972L9.00001 8.28972C8.60788 7.88655 7.96317 7.87759 7.56001 8.26972C7.15684 8.66184 7.14788 9.30655 7.54001 9.70972L7.84001 9.99972L7.54001 10.2897C7.35069 10.4775 7.24421 10.7331 7.24421 10.9997C7.24421 11.2664 7.35069 11.522 7.54001 11.7097C7.72777 11.899 7.98337 12.0055 8.25001 12.0055C8.51664 12.0055 8.77224 11.899 8.96001 11.7097H9.00001ZM12 1.99988C6.47715 1.99988 2 6.47703 2 11.9999C2 17.5227 6.47715 21.9999 12 21.9999C17.5228 21.9999 22 17.5227 22 11.9999C22 9.34771 20.9464 6.80417 19.0711 4.92881C17.1957 3.05345 14.6522 1.99988 12 1.99988ZM12 19.9998C7.58171 19.9998 3.99999 16.418 3.99999 11.9998C3.99999 7.58148 7.58171 3.99975 12 3.99975C16.4183 3.99975 20 7.58148 20 11.9998C20 14.1215 19.1571 16.1563 17.6568 17.6566C16.1566 19.1569 14.1217 19.9998 12 19.9998ZM17 8.2897C16.8122 8.10039 16.5566 7.9939 16.29 7.9939C16.0234 7.9939 15.7678 8.10039 15.58 8.2897L15.29 8.5897L15 8.2897C14.6079 7.89758 13.9721 7.89758 13.58 8.2897C13.1879 8.68182 13.1879 9.31758 13.58 9.7097L13.88 9.9997L13.58 10.2897C13.3907 10.4775 13.2842 10.7331 13.2842 10.9997C13.2842 11.2663 13.3907 11.5219 13.58 11.7097C13.7678 11.899 14.0234 12.0055 14.29 12.0055C14.5566 12.0055 14.8122 11.899 15 11.7097L15.29 11.4097L15.58 11.7097C15.7678 11.899 16.0234 12.0055 16.29 12.0055C16.5566 12.0055 16.8122 11.899 17 11.7097C17.1893 11.5219 17.2958 11.2663 17.2958 10.9997C17.2958 10.7331 17.1893 10.4775 17 10.2897L16.7 9.9997L17 9.7097C17.1893 9.52193 17.2958 9.26634 17.2958 8.9997C17.2958 8.73306 17.1893 8.47747 17 8.2897Z" fill="#171E2B"/>
</svg>
