<svg width="24" height="24" viewBox="0 0 24 24" fill="none" xmlns="http://www.w3.org/2000/svg">
<path fill-rule="evenodd" clip-rule="evenodd" d="M14.36 14.2299C12.9826 15.3404 11.0174 15.3404 9.64 14.2299C9.21474 13.8765 8.58346 13.9347 8.23 14.3599C7.87654 14.7852 7.93474 15.4165 8.36 15.7699C10.4677 17.5294 13.5323 17.5294 15.64 15.7699C15.9151 15.5413 16.0473 15.1832 15.9868 14.8307C15.9264 14.4781 15.6824 14.1846 15.3468 14.0607C15.0113 13.9367 14.6351 14.0013 14.36 14.2299ZM9.21 10.5398C9.60004 10.9275 10.23 10.9275 10.62 10.5398C11.0077 10.1498 11.0077 9.51986 10.62 9.12982C9.43159 8.00219 7.56841 8.00219 6.38 9.12982C6.09462 9.37421 5.97032 9.75794 6.05819 10.1232C6.14606 10.4885 6.43128 10.7738 6.79658 10.8616C7.16188 10.9495 7.54561 10.8252 7.79 10.5398C7.97777 10.3505 8.23336 10.244 8.5 10.244C8.76664 10.244 9.02223 10.3505 9.21 10.5398ZM17.62 9.12982C16.4316 8.00219 14.5684 8.00219 13.38 9.12982C13.0402 9.52658 13.0631 10.118 13.4324 10.4874C13.8018 10.8568 14.3932 10.8796 14.79 10.5398C14.9778 10.3505 15.2334 10.244 15.5 10.244C15.7666 10.244 16.0222 10.3505 16.21 10.5398C16.6 10.9275 17.23 10.9275 17.62 10.5398C18.0077 10.1498 18.0077 9.51986 17.62 9.12982ZM12 1.99988C6.47715 1.99988 2 6.47703 2 11.9999C2 17.5227 6.47715 21.9999 12 21.9999C17.5228 21.9999 22 17.5227 22 11.9999C22 9.34771 20.9464 6.80417 19.0711 4.92881C17.1957 3.05345 14.6522 1.99988 12 1.99988ZM12 19.9998C7.58172 19.9998 4 16.418 4 11.9998C4 7.58148 7.58172 3.99975 12 3.99975C16.4183 3.99975 20 7.58148 20 11.9998C20 14.1215 19.1571 16.1563 17.6569 17.6566C16.1566 19.1569 14.1217 19.9998 12 19.9998Z" fill="#171E2B"/>
</svg>
