<svg width="24" height="24" viewBox="0 0 24 24" fill="none" xmlns="http://www.w3.org/2000/svg">
<path fill-rule="evenodd" clip-rule="evenodd" d="M8.41999 12.21C8.60871 12.3971 8.86419 12.5015 9.12999 12.5C9.3958 12.5015 9.65127 12.3971 9.83999 12.21L11.34 10.71C11.5293 10.5222 11.6358 10.2666 11.6358 9.99996C11.6358 9.73332 11.5293 9.47773 11.34 9.28996L9.83999 7.78996C9.58633 7.5363 9.21662 7.43724 8.87011 7.53008C8.52361 7.62293 8.25296 7.89358 8.16011 8.24008C8.06727 8.58659 8.16633 8.9563 8.41999 9.20996L9.20999 9.99996L8.41999 10.79C8.23068 10.9777 8.12419 11.2333 8.12419 11.5C8.12419 11.7666 8.23068 12.0222 8.41999 12.21ZM14.36 14.21C12.9826 15.3206 11.0174 15.3206 9.64 14.21C9.21474 13.8566 8.58346 13.9148 8.23 14.34C7.87654 14.7653 7.93474 15.3966 8.36 15.75C10.4677 17.5096 13.5323 17.5096 15.64 15.75C15.9151 15.5214 16.0473 15.1634 15.9868 14.8108C15.9264 14.4582 15.6824 14.1647 15.3468 14.0408C15.0113 13.9169 14.6351 13.9814 14.36 14.21ZM15 9C14.4477 9 14 9.44772 14 10C14 10.5523 14.4477 11 15 11C15.5523 11 16 10.5523 16 10C16 9.44772 15.5523 9 15 9ZM12 1.99988C6.47715 1.99988 2 6.47703 2 11.9999C2 17.5227 6.47715 21.9999 12 21.9999C17.5228 21.9999 22 17.5227 22 11.9999C22 9.34771 20.9464 6.80417 19.0711 4.92881C17.1957 3.05345 14.6522 1.99988 12 1.99988ZM12 19.9998C7.58171 19.9998 3.99999 16.418 3.99999 11.9998C3.99999 7.58148 7.58171 3.99975 12 3.99975C16.4183 3.99975 20 7.58148 20 11.9998C20 14.1215 19.1571 16.1563 17.6568 17.6566C16.1566 19.1569 14.1217 19.9998 12 19.9998Z" fill="#171E2B"/>
</svg>
