<svg width="24" height="24" viewBox="0 0 24 24" fill="none" xmlns="http://www.w3.org/2000/svg">
<path fill-rule="evenodd" clip-rule="evenodd" d="M14.36 14.2299C12.9826 15.3404 11.0174 15.3404 9.64001 14.2299C9.21475 13.8765 8.58348 13.9347 8.23001 14.3599C7.87655 14.7852 7.93475 15.4165 8.36001 15.7699C10.4677 17.5294 13.5323 17.5294 15.64 15.7699C15.9151 15.5413 16.0473 15.1832 15.9869 14.8307C15.9264 14.4781 15.6824 14.1846 15.3469 14.0607C15.0113 13.9367 14.6351 14.0013 14.36 14.2299ZM10.5 9.99975C10.5 9.17133 9.82843 8.49975 9 8.49975C8.17157 8.49975 7.5 9.17133 7.5 9.99975C7.5 10.8282 8.17157 11.4998 9 11.4998C9.82843 11.4998 10.5 10.8282 10.5 9.99975ZM15 9H14C13.4477 9 13 9.44772 13 10C13 10.5523 13.4477 11 14 11H15C15.5523 11 16 10.5523 16 10C16 9.44772 15.5523 9 15 9ZM12 1.99988C6.47717 1.99988 2.00002 6.47703 2.00002 11.9999C2.00002 17.5227 6.47717 21.9999 12 21.9999C17.5229 21.9999 22 17.5227 22 11.9999C22 9.34771 20.9464 6.80417 19.0711 4.92881C17.1957 3.05345 14.6522 1.99988 12 1.99988ZM12 19.9998C7.58175 19.9998 4.00003 16.418 4.00003 11.9998C4.00003 7.58148 7.58175 3.99975 12 3.99975C16.4183 3.99975 20 7.58148 20 11.9998C20 14.1215 19.1572 16.1563 17.6569 17.6566C16.1566 19.1569 14.1218 19.9998 12 19.9998Z" fill="#171E2B"/>
</svg>
