<svg width="24" height="24" viewBox="0 0 24 24" fill="none" xmlns="http://www.w3.org/2000/svg">
<path fill-rule="evenodd" clip-rule="evenodd" d="M9.00002 11C9.5523 11 10 10.5523 10 10C10 9.44772 9.5523 9 9.00002 9C8.44773 9 8.00002 9.44772 8.00002 10C8.00002 10.5523 8.44773 11 9.00002 11ZM14.36 14.2299C12.9826 15.3404 11.0174 15.3404 9.64001 14.2299C9.21475 13.8765 8.58348 13.9347 8.23001 14.3599C7.87655 14.7852 7.93475 15.4165 8.36001 15.7699C10.4677 17.5294 13.5323 17.5294 15.64 15.7699C15.9151 15.5413 16.0473 15.1832 15.9869 14.8307C15.9264 14.4781 15.6824 14.1846 15.3469 14.0607C15.0113 13.9367 14.6351 14.0013 14.36 14.2299ZM12 1.99988C6.47717 1.99988 2.00002 6.47703 2.00002 11.9999C2.00002 17.5227 6.47717 21.9999 12 21.9999C17.5229 21.9999 22 17.5227 22 11.9999C22 9.34771 20.9464 6.80417 19.0711 4.92881C17.1957 3.05345 14.6522 1.99988 12 1.99988ZM12 19.9998C7.58175 19.9998 4.00003 16.418 4.00003 11.9998C4.00003 7.58148 7.58175 3.99975 12 3.99975C16.4183 3.99975 20 7.58148 20 11.9998C20 14.1215 19.1572 16.1563 17.6569 17.6566C16.1566 19.1569 14.1218 19.9998 12 19.9998ZM17.62 9.12982C16.4316 8.00219 14.5684 8.00219 13.38 9.12982C13.0402 9.52658 13.0631 10.118 13.4325 10.4874C13.8018 10.8568 14.3933 10.8796 14.79 10.5398C14.9778 10.3505 15.2334 10.244 15.5 10.244C15.7667 10.244 16.0223 10.3505 16.21 10.5398C16.6001 10.9275 17.23 10.9275 17.62 10.5398C18.0077 10.1498 18.0077 9.51986 17.62 9.12982Z" fill="#171E2B"/>
</svg>
