<svg width="24" height="24" viewBox="0 0 24 24" fill="none" xmlns="http://www.w3.org/2000/svg">
<path fill-rule="evenodd" clip-rule="evenodd" d="M4.93001 17.6597C4.64277 17.9452 4.55613 18.3758 4.71056 18.7502C4.86499 19.1246 5.23 19.3689 5.63501 19.3689C6.04001 19.3689 6.40502 19.1246 6.55945 18.7502C6.71389 18.3758 6.62724 17.9452 6.34001 17.6597C5.94997 17.272 5.32004 17.272 4.93001 17.6597ZM19.07 6.34004C19.3572 6.05451 19.4439 5.62393 19.2894 5.24952C19.135 4.87512 18.77 4.63083 18.365 4.63083C17.96 4.63083 17.595 4.87512 17.4405 5.24952C17.2861 5.62393 17.3728 6.05451 17.66 6.34004C18.05 6.72776 18.68 6.72776 19.07 6.34004ZM6.34001 6.34004C6.62724 6.05451 6.71389 5.62393 6.55945 5.24952C6.40502 4.87512 6.04001 4.63083 5.63501 4.63083C5.23 4.63083 4.86499 4.87512 4.71056 5.24952C4.55613 5.62393 4.64277 6.05451 4.93001 6.34004C5.32004 6.72776 5.94997 6.72776 6.34001 6.34004ZM17.66 17.6597C17.3728 17.9452 17.2861 18.3758 17.4405 18.7502C17.595 19.1246 17.96 19.3689 18.365 19.3689C18.77 19.3689 19.135 19.1246 19.2894 18.7502C19.4439 18.3758 19.3572 17.9452 19.07 17.6597C18.68 17.272 18.05 17.272 17.66 17.6597ZM21 10.9999H19.41L20.71 9.70988C20.9637 9.45622 21.0627 9.0865 20.9699 8.74C20.877 8.3935 20.6064 8.12284 20.2599 8.03C19.9134 7.93715 19.5437 8.03622 19.29 8.28988L16.59 10.9999H14.41L16.71 8.70988C16.9637 8.45622 17.0627 8.0865 16.9699 7.74C16.877 7.3935 16.6064 7.12284 16.2599 7.03C15.9134 6.93715 15.5437 7.03622 15.29 7.28988L13 9.58988V7.40988L15.71 4.70988C15.9637 4.45622 16.0627 4.0865 15.9699 3.74C15.877 3.3935 15.6064 3.12285 15.2599 3.03C14.9134 2.93715 14.5437 3.03622 14.29 3.28988L13 4.58988V2.99988C13 2.44759 12.5523 1.99988 12 1.99988C11.4477 1.99988 11 2.44759 11 2.99988V4.58988L9.71 3.28988C9.31788 2.89776 8.68212 2.89776 8.29 3.28988C7.89788 3.682 7.89788 4.31776 8.29 4.70988L11 7.40988V9.58988L8.71 7.28988C8.45634 7.03622 8.08663 6.93715 7.74012 7.03C7.39362 7.12284 7.12297 7.3935 7.03012 7.74C6.93728 8.0865 7.03634 8.45622 7.29 8.70988L9.59 10.9999H7.41L4.71 8.28988C4.31788 7.89776 3.68212 7.89776 3.29 8.28988C2.89788 8.682 2.89788 9.31775 3.29 9.70988L4.59 10.9999H3C2.44772 10.9999 2 11.4476 2 11.9999C2 12.5522 2.44772 12.9999 3 12.9999H4.59L3.29 14.2899C3.10069 14.4776 2.9942 14.7332 2.9942 14.9999C2.9942 15.2665 3.10069 15.5221 3.29 15.7099C3.47777 15.8992 3.73336 16.0057 4 16.0057C4.26664 16.0057 4.52223 15.8992 4.71 15.7099L7.41 12.9999H9.59L7.29 15.2899C7.10069 15.4776 6.9942 15.7332 6.9942 15.9999C6.9942 16.2665 7.10069 16.5221 7.29 16.7099C7.47777 16.8992 7.73336 17.0057 8 17.0057C8.26664 17.0057 8.52223 16.8992 8.71 16.7099L11 14.4099V16.5899L8.29 19.2899C7.89788 19.682 7.89788 20.3178 8.29 20.7099C8.68212 21.102 9.31788 21.102 9.71 20.7099L11 19.4099V20.9999C11 21.5522 11.4477 21.9999 12 21.9999C12.5523 21.9999 13 21.5522 13 20.9999V19.4099L14.29 20.7099C14.4778 20.8992 14.7334 21.0057 15 21.0057C15.2666 21.0057 15.5222 20.8992 15.71 20.7099C15.8993 20.5221 16.0058 20.2665 16.0058 19.9999C16.0058 19.7332 15.8993 19.4776 15.71 19.2899L13 16.5899V14.4099L15.29 16.7099C15.4778 16.8992 15.7334 17.0057 16 17.0057C16.2666 17.0057 16.5222 16.8992 16.71 16.7099C16.8993 16.5221 17.0058 16.2665 17.0058 15.9999C17.0058 15.7332 16.8993 15.4776 16.71 15.2899L14.41 12.9999H16.59L19.29 15.7099C19.4778 15.8992 19.7334 16.0057 20 16.0057C20.2666 16.0057 20.5222 15.8992 20.71 15.7099C20.8993 15.5221 21.0058 15.2665 21.0058 14.9999C21.0058 14.7332 20.8993 14.4776 20.71 14.2899L19.41 12.9999H21C21.5523 12.9999 22 12.5522 22 11.9999C22 11.4476 21.5523 10.9999 21 10.9999Z" fill="#171E2B"/>
</svg>
