<svg width="24" height="24" viewBox="0 0 24 24" fill="none" xmlns="http://www.w3.org/2000/svg">
<path fill-rule="evenodd" clip-rule="evenodd" d="M21.16 16.1301L19.16 14.9801L20.05 14.7401C20.4059 14.6572 20.6882 14.3867 20.7864 14.0347C20.8845 13.6827 20.7828 13.3052 20.5211 13.0501C20.2594 12.795 19.8794 12.703 19.53 12.8101L16.71 13.5701L14 12.0001L16.71 10.4301L19.53 11.1901H19.79C20.3423 11.2619 20.8482 10.8724 20.92 10.3201C20.9918 9.76784 20.6023 9.26192 20.05 9.19012L19.16 9.00012L21.16 7.85012C21.4708 7.67149 21.6627 7.34061 21.6634 6.98211C21.6641 6.62361 21.4735 6.29197 21.1634 6.11211C20.8533 5.93225 20.4708 5.93149 20.16 6.11012L18 7.37012L18.3 6.26012C18.4071 5.91073 18.3151 5.53073 18.06 5.26903C17.8049 5.00734 17.4274 4.90562 17.0754 5.00375C16.7234 5.10187 16.4529 5.38421 16.37 5.74012L15.55 8.74012L13 10.2701V7.14012L15.07 5.07012C15.4577 4.68008 15.4577 4.05016 15.07 3.66012C14.8822 3.47081 14.6266 3.36432 14.36 3.36432C14.0934 3.36432 13.8378 3.47081 13.65 3.66012L13 4.31012V2.00012C13 1.44784 12.5523 1.00012 12 1.00012C11.4477 1.00012 11 1.44784 11 2.00012V4.47012L10.19 3.66012C10.0022 3.47081 9.74663 3.36432 9.47999 3.36432C9.21335 3.36432 8.95776 3.47081 8.76999 3.66012C8.38227 4.05016 8.38227 4.68008 8.76999 5.07012L11 7.30012V10.3001L8.42999 8.78012L7.60999 5.78012C7.52707 5.42421 7.25661 5.14187 6.90458 5.04375C6.55256 4.94562 6.17504 5.04734 5.91997 5.30903C5.66489 5.57073 5.57288 5.95073 5.67999 6.30012L5.99999 7.37012L3.83999 6.13012C3.52917 5.95149 3.14666 5.95225 2.83655 6.13211C2.52644 6.31197 2.33584 6.64361 2.33655 7.00211C2.33726 7.3606 2.52917 7.69149 2.83999 7.87012L4.83999 9.00012L3.99999 9.26012C3.44771 9.33192 3.05819 9.83784 3.12999 10.3901C3.20179 10.9424 3.70771 11.3319 4.25999 11.2601H4.51999L7.33999 10.5001L9.99999 12.0001L7.28999 13.5701L4.46999 12.8101C4.10888 12.676 3.70286 12.7613 3.42616 13.0293C3.14947 13.2973 3.05131 13.7004 3.1738 14.0656C3.29629 14.4308 3.61766 14.6932 3.99999 14.7401L4.88999 14.9801L2.88999 16.1301C2.4095 16.4063 2.24385 17.0196 2.51999 17.5001C2.79613 17.9806 3.4095 18.1463 3.88999 17.8701L5.99999 16.6301L5.69999 17.7401C5.6199 17.9987 5.6481 18.2788 5.77814 18.5163C5.90818 18.7537 6.12895 18.9283 6.38999 19.0001C6.47638 19.01 6.5636 19.01 6.64999 19.0001C7.11486 19.016 7.52933 18.7093 7.64999 18.2601L8.46999 15.2601L11 13.7301V16.8601L8.92999 18.9301C8.54227 19.3202 8.54227 19.9501 8.92999 20.3401C9.11706 20.531 9.37275 20.639 9.63999 20.6401C9.90724 20.639 10.1629 20.531 10.35 20.3401L11 19.6901V22.0001C11 22.5524 11.4477 23.0001 12 23.0001C12.5523 23.0001 13 22.5524 13 22.0001V19.5301L13.81 20.3401C13.9978 20.5294 14.2534 20.6359 14.52 20.6359C14.7866 20.6359 15.0422 20.5294 15.23 20.3401C15.6177 19.9501 15.6177 19.3202 15.23 18.9301L13 16.7001V13.7001L15.57 15.1901L16.39 18.1901C16.5107 18.6393 16.9251 18.946 17.39 18.9301C17.4764 18.94 17.5636 18.94 17.65 18.9301C17.9079 18.8622 18.1279 18.694 18.2613 18.4631C18.3946 18.2321 18.4301 17.9574 18.36 17.7001L18 16.6301L20.14 17.8701C20.4508 18.0488 20.8333 18.048 21.1434 17.8681C21.4535 17.6883 21.6441 17.3566 21.6434 16.9981C21.6427 16.6396 21.4508 16.3088 21.14 16.1301H21.16Z" fill="#171E2B"/>
</svg>
