<svg width="24" height="24" viewBox="0 0 24 24" fill="none" xmlns="http://www.w3.org/2000/svg">
<path d="M22 6.01137C21.2639 6.35269 20.4741 6.58417 19.6442 6.68751C20.4915 6.15653 21.1402 5.31433 21.4476 4.31386C20.6527 4.80558 19.7754 5.16263 18.8406 5.35619C18.092 4.52051 17.0271 4 15.8461 4C13.5803 4 11.7431 5.92246 11.7431 8.29217C11.7431 8.62826 11.7794 8.95652 11.8494 9.27041C8.44001 9.09122 5.41684 7.38195 3.39347 4.78465C3.03977 5.41764 2.83856 6.1552 2.83856 6.94252C2.83856 8.43211 3.56343 9.74644 4.66324 10.5154C3.99085 10.4919 3.35847 10.2983 2.80484 9.97658V10.0302C2.80484 12.1096 4.21958 13.845 6.09546 14.24C5.75177 14.3368 5.38935 14.3904 5.01442 14.3904C4.74948 14.3904 4.49327 14.3629 4.24206 14.3106C4.76445 16.0173 6.27919 17.2584 8.07387 17.2924C6.67037 18.4433 4.90069 19.1272 2.97856 19.1272C2.64739 19.1272 2.32118 19.1063 2 19.0684C3.81592 20.2886 5.97177 21 8.28883 21C15.8362 21 19.9617 14.4584 19.9617 8.78523L19.9479 8.22942C20.754 7.62779 21.4513 6.8719 22 6.01137Z" fill="#171E2B"/>
</svg>
