<svg width="24" height="24" viewBox="0 0 24 24" fill="none" xmlns="http://www.w3.org/2000/svg">
<path d="M16.9287 1H7.07107C3.72349 1 1 3.72362 1 7.07121V16.9288C1 20.2765 3.72349 23 7.07107 23H16.9287C20.2765 23 23 20.2764 23 16.9288V7.07121C23.0001 3.72362 20.2765 1 16.9287 1ZM21.0482 16.9288C21.0482 19.2002 19.2002 21.0481 16.9288 21.0481H7.07107C4.79979 21.0482 2.95195 19.2002 2.95195 16.9288V7.07121C2.95195 4.79992 4.79979 2.95195 7.07107 2.95195H16.9287C19.2001 2.95195 21.0481 4.79992 21.0481 7.07121V16.9288H21.0482Z" fill="#171E2B"/>
<path d="M11.9999 6.33142C8.87405 6.33142 6.33105 8.87442 6.33105 12.0003C6.33105 15.126 8.87405 17.6688 11.9999 17.6688C15.1257 17.6688 17.6687 15.126 17.6687 12.0003C17.6687 8.87442 15.1257 6.33142 11.9999 6.33142ZM11.9999 15.7168C9.95048 15.7168 8.283 14.0495 8.283 12.0001C8.283 9.95059 9.95035 8.28324 11.9999 8.28324C14.0494 8.28324 15.7168 9.95059 15.7168 12.0001C15.7168 14.0495 14.0493 15.7168 11.9999 15.7168Z" fill="#171E2B"/>
<path d="M17.9066 4.6763C17.5306 4.6763 17.1611 4.82855 16.8955 5.09532C16.6286 5.36078 16.4752 5.73035 16.4752 6.10773C16.4752 6.48393 16.6288 6.85337 16.8955 7.12014C17.161 7.3856 17.5306 7.53916 17.9066 7.53916C18.284 7.53916 18.6523 7.3856 18.9191 7.12014C19.1858 6.85337 19.3381 6.4838 19.3381 6.10773C19.3381 5.73035 19.1858 5.36078 18.9191 5.09532C18.6536 4.82855 18.284 4.6763 17.9066 4.6763Z" fill="#171E2B"/>
</svg>
