<svg width="24" height="24" viewBox="0 0 24 24" fill="none" xmlns="http://www.w3.org/2000/svg">
<path d="M17.5481 1.00458L14.6699 1C11.4362 1 9.34653 3.12509 9.34653 6.41423V8.91055H6.45258C6.20251 8.91055 6 9.1115 6 9.35937V12.9763C6 13.2241 6.20274 13.4249 6.45258 13.4249H9.34653V22.5514C9.34653 22.7993 9.54904 23 9.79911 23H13.5749C13.825 23 14.0275 22.799 14.0275 22.5514V13.4249H17.4112C17.6613 13.4249 17.8638 13.2241 17.8638 12.9763L17.8651 9.35937C17.8651 9.24036 17.8174 9.12638 17.7326 9.04215C17.6479 8.95793 17.5324 8.91055 17.4123 8.91055H14.0275V6.79439C14.0275 5.77727 14.272 5.26094 15.6087 5.26094L17.5477 5.26025C17.7975 5.26025 18 5.0593 18 4.81166V1.45317C18 1.20576 17.7977 1.00504 17.5481 1.00458Z" fill="#171E2B"/>
</svg>
