<svg width="24" height="24" viewBox="0 0 24 24" fill="none" xmlns="http://www.w3.org/2000/svg">
<g clip-path="url(#clip0_439_44)">
<path d="M20.4917 1.60443C17.1552 1.49557 14.8973 3.36717 13.7151 7.22135C14.324 6.97059 14.9156 6.84404 15.4927 6.84404C16.7093 6.84404 17.2479 7.52684 17.1041 8.89609C17.0328 9.72526 16.4953 10.9317 15.4927 12.5151C14.4862 14.101 13.7343 14.8927 13.2349 14.8927C12.5864 14.8927 11.9962 13.6674 11.4573 11.22C11.2766 10.4992 10.9534 8.66374 10.4906 5.70904C10.0568 2.97234 8.91043 1.69366 7.04636 1.87338C6.25782 1.94586 5.07656 2.66801 3.50003 4.03469C2.34985 5.07946 1.18449 6.12451 0 7.1685L1.12853 8.62552C2.20561 7.86878 2.83569 7.49219 3.01067 7.49219C3.8366 7.49219 4.60791 8.78778 5.32565 11.3786C5.969 13.7581 6.61783 16.1343 7.26431 18.5104C8.22718 21.1031 9.41418 22.4 10.8104 22.4C13.0688 22.4 15.8339 20.276 19.0948 16.0265C22.2495 11.9583 23.8781 8.75302 23.988 6.41009C24.1328 3.27895 22.9674 1.67552 20.4917 1.60443Z" fill="#171E2B"/>
</g>
<defs>
<clipPath id="clip0_439_44">
<rect width="24" height="24" fill="white"/>
</clipPath>
</defs>
</svg>
