<svg width="24" height="24" viewBox="0 0 24 24" fill="none" xmlns="http://www.w3.org/2000/svg">
<path d="M23.4985 7.50346C23.2225 6.51804 22.4092 5.74196 21.3766 5.47858C19.505 5 12 5 12 5C12 5 4.49503 5 2.62336 5.47858C1.59077 5.742 0.777523 6.51804 0.501503 7.50346C0 9.28958 0 13.0162 0 13.0162C0 13.0162 0 16.7428 0.501503 18.5289C0.777523 19.5143 1.59077 20.258 2.62336 20.5214C4.49503 21 12 21 12 21C12 21 19.505 21 21.3766 20.5214C22.4092 20.258 23.2225 19.5143 23.4985 18.5289C24 16.7428 24 13.0162 24 13.0162C24 13.0162 24 9.28958 23.4985 7.50346ZM9.54544 16.3996V9.63271L15.8181 13.0163L9.54544 16.3996Z" fill="#171E2B"/>
</svg>
