<svg width="24" height="24" viewBox="0 0 24 24" fill="none" xmlns="http://www.w3.org/2000/svg">
<path d="M10.3991 15.5506C9.79152 18.5793 9.0495 21.4831 6.85145 23C6.17306 18.422 7.84798 14.9841 8.62563 11.3341C7.29985 9.21201 8.78504 4.94052 11.5819 5.99321C15.0231 7.2879 8.60156 13.8835 12.9123 14.7076C17.4132 15.5673 19.2508 7.28218 16.4597 4.58764C12.4273 0.697179 4.72142 4.49898 5.66913 10.0691C5.89958 11.4311 7.37921 11.8441 6.26029 13.7235C3.67954 13.1795 2.90907 11.2441 3.00833 8.66356C3.16798 4.44024 6.99953 1.48301 10.8427 1.07404C15.7029 0.5566 20.2644 2.77045 20.8942 7.11762C21.6036 12.0243 18.7008 17.3386 13.5035 16.9562C12.0948 16.8521 11.5032 16.1886 10.3991 15.5506Z" fill="#171E2B"/>
</svg>
