<svg width="24" height="24" viewBox="0 0 24 24" fill="none" xmlns="http://www.w3.org/2000/svg">
<path d="M17.8208 12.0579C17.8056 12.0216 17.785 11.9877 17.7662 11.9519C17.5538 12.056 17.3534 12.1629 17.1448 12.2536C16.9419 12.3422 16.7336 12.4215 16.5226 12.4912C16.3077 12.5621 16.0866 12.6163 15.8698 12.6769C15.8715 12.6956 15.8703 12.7072 15.8737 12.718C15.8826 12.7453 15.8922 12.7726 15.9035 12.7991C16.2063 13.5234 16.3399 14.2783 16.3498 15.0539C16.3579 15.7006 16.2697 16.337 16.0696 16.9565C15.7684 17.888 15.2827 18.7224 14.5668 19.4242C13.5207 20.4487 12.2343 21.0001 10.7416 21.1286C10.6037 21.1407 10.4648 21.1391 10.3146 21.1441C10.3213 21.112 10.3203 21.1049 10.3237 21.1026C10.4011 21.0475 10.4792 20.9935 10.5563 20.9379C12.1167 19.8145 13.3455 18.4292 14.214 16.7631C14.9362 15.3782 15.3032 13.9092 15.3397 12.365C15.3572 11.6103 15.2875 10.8618 15.1498 10.1197C14.9936 9.27551 14.7483 8.4534 14.4325 7.65044C14.4226 7.6256 14.3928 7.56522 14.3719 7.52945C14.3529 7.39661 14.3469 7.3565 14.3426 7.33167C14.3426 7.30865 14.3412 7.26696 14.3402 7.2583C14.2623 6.56083 14.129 5.87362 13.9268 5.19893C13.6522 4.28272 13.2626 3.41482 12.7168 2.61322C12.3407 2.0609 11.9069 1.55437 11.3782 1.12509C11.3285 1.08499 11.2759 1.04717 11.2134 1C11.2115 1.03122 11.204 1.0499 11.2107 1.06175C11.248 1.12737 11.2886 1.19117 11.328 1.25588C12.247 2.75609 13.054 4.30893 13.7435 5.916C13.9329 6.35667 14.1056 6.80372 14.2864 7.24782L14.3397 7.34078C14.3443 7.36698 14.3508 7.41278 14.3688 7.53833C14.3784 7.77257 14.3919 8.01318 14.3964 8.22099C14.4226 9.43911 14.3887 10.6549 14.2575 11.8678C14.1972 12.4279 14.122 12.9857 14.022 13.5396C13.8968 14.2359 13.736 14.925 13.5265 15.6031C13.2686 16.4368 12.9449 17.2455 12.5075 18.0108C12.1184 18.6912 11.6515 19.3174 11.0632 19.8574C10.5222 20.3541 9.90771 20.7451 9.2115 21.0194C9.13724 21.0488 9.06683 21.0573 8.98416 21.042C8.03368 20.8661 7.17814 20.4949 6.41704 19.9282C5.75928 19.4388 5.24932 18.8318 4.85134 18.1375C4.4267 17.3965 4.17244 16.6052 4.08448 15.7674C4.03281 15.2743 4.0441 14.7817 4.10635 14.289C4.18277 13.6861 4.34378 13.1062 4.60405 12.5516C4.99169 11.7252 5.55885 11.0238 6.2666 10.4221C6.81285 9.95771 7.42327 9.59154 8.11131 9.34478C8.55518 9.18573 9.01299 9.08525 9.48426 9.03238C9.90122 8.9859 10.3191 8.98385 10.7359 9.01484C11.2689 9.05449 11.7885 9.16386 12.2886 9.34819C12.3318 9.36414 12.3775 9.3744 12.4412 9.39308C12.4852 9.06246 12.5537 8.74939 12.6565 8.4436C12.7596 8.13782 12.8983 7.84525 13.0417 7.55428C12.9634 7.49572 12.8781 7.48274 12.799 7.45858C12.1213 7.25192 11.4261 7.13936 10.7152 7.1013C9.95505 7.06029 9.20261 7.10882 8.45665 7.24941C7.56313 7.4178 6.72898 7.73019 5.95634 8.18863C5.22096 8.62521 4.58579 9.17001 4.02464 9.79502C2.77977 11.1815 2.11576 12.7875 2.01339 14.6028C1.98407 15.1248 2.00257 15.6468 2.07226 16.167C2.17032 16.9009 2.36618 17.6084 2.67595 18.2872C3.17654 19.3841 3.90688 20.3263 4.83236 21.1331C5.51728 21.7304 6.29736 22.1861 7.1666 22.5007C7.97649 22.7944 8.81881 22.9471 9.68205 22.9874C10.483 23.0246 11.2792 22.982 12.067 22.8247C13.1309 22.6128 14.1042 22.21 14.979 21.5959C15.6615 21.1167 16.2402 20.5407 16.7456 19.8968C17.7494 18.6178 18.293 17.1789 18.3884 15.5889C18.4274 14.9391 18.3949 14.2918 18.2824 13.6488C18.1853 13.103 18.038 12.5712 17.8208 12.0579Z" fill="#171E2B"/>
<path d="M21.7366 3.46426C21.5609 2.84631 21.3139 2.25594 20.9755 1.70134C20.9272 1.6225 20.8736 1.54639 20.8119 1.45297C20.7655 1.53318 20.727 1.59652 20.6912 1.66101C20.4574 2.08026 20.1656 2.45919 19.8056 2.78912C19.2596 3.28881 18.63 3.65087 17.8879 3.82336C17.8232 3.8384 17.7588 3.85503 17.6949 3.87281C17.1477 4.02479 16.6185 4.21824 16.1232 4.49052C15.7839 4.67737 15.4926 4.91411 15.2523 5.20941C14.8053 5.75832 14.5892 6.37763 14.6214 7.07031C14.6479 7.63608 14.8185 8.16493 15.1069 8.66006C15.1211 8.68422 15.1415 8.70495 15.1706 8.74187C17.5185 8.19615 19.2825 6.92266 20.5019 4.90818C20.4973 4.97609 20.4994 5.0089 20.4922 5.03988C20.4516 5.21442 20.387 5.38099 20.3041 5.5414C20.1209 5.8948 19.8746 6.20651 19.5997 6.49908C19.1229 7.0072 18.5807 7.44787 18.0114 7.85915C17.3219 8.35724 16.5993 8.8084 15.8497 9.22059C15.7947 9.2509 15.7291 9.27049 15.6875 9.33657C15.7891 9.42293 15.8855 9.50951 15.9872 9.5904C16.371 9.8955 16.7898 10.1427 17.2683 10.2924C17.7194 10.4332 18.1784 10.4718 18.6475 10.3941C19.2171 10.3002 19.7129 10.0614 20.1479 9.70524C20.5699 9.36027 20.902 8.94511 21.182 8.49145C21.3442 8.22896 21.4951 7.95986 21.5994 7.67094C21.8169 7.07031 21.944 6.45123 21.9849 5.8187C22.0368 5.02211 21.9558 4.23601 21.7366 3.46426Z" fill="#171E2B"/>
</svg>
