<svg width="24" height="24" viewBox="0 0 24 24" fill="none" xmlns="http://www.w3.org/2000/svg">
<path d="M6.65563 8.42633H2.64058C2.46238 8.42633 2.31799 8.5711 2.31799 8.74962V21.6766C2.31799 21.8552 2.46238 21.9999 2.64058 21.9999H6.65563C6.83382 21.9999 6.97821 21.8552 6.97821 21.6766V8.74962C6.97821 8.5711 6.83382 8.42633 6.65563 8.42633Z" fill="#171E2B"/>
<path d="M4.64943 2C3.18852 2 2 3.18984 2 4.65235C2 6.11551 3.18852 7.3058 4.64943 7.3058C6.10918 7.3058 7.29673 6.11544 7.29673 4.65235C7.2968 3.18984 6.10918 2 4.64943 2Z" fill="#171E2B"/>
<path d="M16.8679 8.10504C15.2554 8.10504 14.0633 8.7998 13.3403 9.58921V8.74962C13.3403 8.5711 13.1959 8.42633 13.0177 8.42633H9.17256C8.99436 8.42633 8.84998 8.5711 8.84998 8.74962V21.6766C8.84998 21.8552 8.99436 21.9999 9.17256 21.9999H13.1788C13.357 21.9999 13.5014 21.8552 13.5014 21.6766V15.2808C13.5014 13.1255 14.0855 12.2859 15.5847 12.2859C17.2173 12.2859 17.347 13.6319 17.347 15.3917V21.6767C17.347 21.8553 17.4914 22 17.6696 22H21.6774C21.8556 22 22 21.8553 22 21.6767V14.586C22 11.3812 21.3902 8.10504 16.8679 8.10504Z" fill="#171E2B"/>
</svg>
