<svg width="24" height="24" viewBox="0 0 24 24" fill="none" xmlns="http://www.w3.org/2000/svg">
<path fill-rule="evenodd" clip-rule="evenodd" d="M11.29 10.2102C11.4778 10.3995 11.7334 10.506 12 10.506C12.2666 10.506 12.5222 10.3995 12.71 10.2102L15.71 7.21019C16.1021 6.81806 16.1021 6.18231 15.71 5.79019C15.3179 5.39806 14.6821 5.39806 14.29 5.79019L12 8.09018L9.71 5.79019C9.31788 5.39806 8.68212 5.39806 8.29 5.79019C7.89788 6.18231 7.89788 6.81806 8.29 7.21019L11.29 10.2102ZM12.71 14.7904C12.5222 14.601 12.2666 14.4946 12 14.4946C11.7334 14.4946 11.4778 14.601 11.29 14.7904L8.29 17.7903C7.89788 18.1825 7.89788 18.8182 8.29 19.2103C8.68212 19.6025 9.31788 19.6025 9.71 19.2103L12 16.9103L14.29 19.2103C14.4778 19.3997 14.7334 19.5061 15 19.5061C15.2666 19.5061 15.5222 19.3997 15.71 19.2103C15.8993 19.0226 16.0058 18.767 16.0058 18.5003C16.0058 18.2337 15.8993 17.9781 15.71 17.7903L12.71 14.7904Z" fill="#171E2B"/>
</svg>
