<svg width="24" height="24" viewBox="0 0 24 24" fill="none" xmlns="http://www.w3.org/2000/svg">
<path fill-rule="evenodd" clip-rule="evenodd" d="M5.71 6.28983C5.6149 6.19879 5.50275 6.12743 5.38 6.07983C5.13654 5.97982 4.86346 5.97982 4.62 6.07983C4.49725 6.12743 4.38511 6.19879 4.29 6.28983L2.29 8.28983C1.89788 8.68196 1.89788 9.31771 2.29 9.70983C2.68212 10.102 3.31788 10.102 3.71 9.70983L4 9.40983V16.9998C4 17.5521 4.44772 17.9998 5 17.9998C5.55229 17.9998 6 17.5521 6 16.9998V9.40983L6.29 9.70983C6.47777 9.89915 6.73337 10.0056 7 10.0056C7.26664 10.0056 7.52224 9.89915 7.71 9.70983C7.89932 9.52207 8.0058 9.26647 8.0058 8.99983C8.0058 8.7332 7.89932 8.4776 7.71 8.28983L5.71 6.28983ZM11 8H21C21.5523 8 22 7.55228 22 7C22 6.44771 21.5523 6 21 6H11C10.4477 6 10 6.44771 10 7C10 7.55228 10.4477 8 11 8ZM21 16.0001H11C10.4477 16.0001 10 16.4478 10 17.0001C10 17.5524 10.4477 18.0001 11 18.0001H21C21.5523 18.0001 22 17.5524 22 17.0001C22 16.4478 21.5523 16.0001 21 16.0001ZM21 10.9999H11C10.4477 10.9999 10 11.4476 10 11.9999C10 12.5522 10.4477 12.9999 11 12.9999H21C21.5523 12.9999 22 12.5522 22 11.9999C22 11.4476 21.5523 10.9999 21 10.9999Z" fill="#171E2B"/>
</svg>
