<svg width="24" height="24" viewBox="0 0 24 24" fill="none" xmlns="http://www.w3.org/2000/svg">
<path fill-rule="evenodd" clip-rule="evenodd" d="M16.29 14.2898L12 18.5898L7.71 14.2898C7.31788 13.8977 6.68212 13.8977 6.29 14.2898C5.89788 14.682 5.89788 15.3177 6.29 15.7098L11.29 20.7098C11.4778 20.8991 11.7334 21.0056 12 21.0056C12.2666 21.0056 12.5222 20.8991 12.71 20.7098L17.71 15.7098C17.9637 15.4562 18.0627 15.0865 17.9699 14.74C17.877 14.3935 17.6064 14.1228 17.2599 14.03C16.9134 13.9371 16.5437 14.0362 16.29 14.2898ZM7.71 9.70982L12 5.40982L16.29 9.70982C16.4778 9.89913 16.7334 10.0056 17 10.0056C17.2666 10.0056 17.5222 9.89913 17.71 9.70982C17.8993 9.52205 18.0058 9.26645 18.0058 8.99982C18.0058 8.73318 17.8993 8.47758 17.71 8.28982L12.71 3.28982C12.5222 3.1005 12.2666 2.99402 12 2.99402C11.7334 2.99402 11.4778 3.1005 11.29 3.28982L6.29 8.28982C5.89788 8.68194 5.89788 9.31769 6.29 9.70982C6.68212 10.1019 7.31788 10.1019 7.71 9.70982Z" fill="#171E2B"/>
</svg>
