<svg width="24" height="24" viewBox="0 0 24 24" fill="none" xmlns="http://www.w3.org/2000/svg">
<path fill-rule="evenodd" clip-rule="evenodd" d="M6.29 14.29L6 14.59V7C6 6.44772 5.55229 6 5 6C4.44772 6 4 6.44772 4 7V14.59L3.71 14.29C3.31788 13.8979 2.68212 13.8979 2.29 14.29C1.89788 14.6821 1.89788 15.3179 2.29 15.71L4.29 17.71C4.38511 17.801 4.49725 17.8724 4.62 17.92C4.86204 18.027 5.13796 18.027 5.38 17.92C5.50275 17.8724 5.6149 17.801 5.71 17.71L7.71 15.71C7.96366 15.4563 8.06273 15.0866 7.96988 14.7401C7.87704 14.3936 7.60639 14.123 7.25988 14.0301C6.91338 13.9373 6.54366 14.0363 6.29 14.29ZM11 8H21C21.5523 8 22 7.55228 22 7C22 6.44771 21.5523 6 21 6H11C10.4477 6 10 6.44771 10 7C10 7.55228 10.4477 8 11 8ZM21 10.9999H11C10.4477 10.9999 10 11.4476 10 11.9999C10 12.5522 10.4477 12.9999 11 12.9999H21C21.5523 12.9999 22 12.5522 22 11.9999C22 11.4476 21.5523 10.9999 21 10.9999ZM21 16.0001H11C10.4477 16.0001 10 16.4478 10 17.0001C10 17.5524 10.4477 18.0001 11 18.0001H21C21.5523 18.0001 22 17.5524 22 17.0001C22 16.4478 21.5523 16.0001 21 16.0001Z" fill="#171E2B"/>
</svg>
