<svg width="24" height="24" viewBox="0 0 24 24" fill="none" xmlns="http://www.w3.org/2000/svg">
<path fill-rule="evenodd" clip-rule="evenodd" d="M21.06 12.28C21.0529 10.7785 20.4526 9.34073 19.39 8.27995L14 2.80995C12.8951 1.70625 11.1049 1.70625 9.99998 2.80995L4.60998 8.22995C3.54736 9.29073 2.94709 10.7285 2.93998 12.23C2.92122 13.7573 3.51621 15.2282 4.59154 16.3129C5.66688 17.3977 7.13258 18.0054 8.65998 18C8.40869 18.8627 7.99082 19.6679 7.42998 20.37C7.18286 20.6741 7.13619 21.0946 7.31059 21.4455C7.48499 21.7965 7.84831 22.0132 8.23998 22H15.76C16.1462 22.0013 16.4987 21.78 16.6654 21.4316C16.8322 21.0832 16.7833 20.6699 16.54 20.37C15.9783 19.6684 15.5603 18.8631 15.31 18C16.8329 18.016 18.2987 17.4209 19.3794 16.3477C20.4601 15.2746 21.0654 13.813 21.06 12.29V12.28ZM18 14.9099C17.0374 15.8579 15.6421 16.22 14.34 15.8599C14.2834 15.8551 14.2265 15.8551 14.17 15.8599H13.97C13.8951 15.8739 13.8216 15.894 13.75 15.9199H13.6C13.5523 15.9511 13.5086 15.988 13.47 16.0299C13.4067 16.0679 13.3494 16.1151 13.3 16.1699C13.2839 16.2086 13.2637 16.2454 13.24 16.2799C13.1961 16.3545 13.156 16.4312 13.12 16.5099C13.115 16.5698 13.115 16.63 13.12 16.6899C13.12 16.7499 13.12 16.8099 13.12 16.8699C13.1984 17.9548 13.4764 19.0159 13.94 19.9999H10.06C10.5337 19.0619 10.8319 18.0452 10.94 16.9999C10.94 16.9399 10.94 16.8799 10.94 16.8099C10.9449 16.75 10.9449 16.6898 10.94 16.6299C10.9066 16.5449 10.8629 16.4643 10.81 16.3899C10.7937 16.3545 10.7736 16.3209 10.75 16.2899C10.7064 16.2331 10.652 16.1855 10.59 16.1499C10.5491 16.1104 10.5057 16.0736 10.46 16.0399H10.32C10.2469 16.0062 10.1695 15.9826 10.09 15.9699H9.89996C9.84006 15.965 9.77986 15.965 9.71996 15.9699C8.37947 16.3191 6.95506 15.9132 5.99996 14.9099C5.30504 14.2106 4.91346 13.2658 4.90996 12.2799C4.90687 11.2927 5.29945 10.3455 5.99996 9.6499L11.4 4.2299C11.7144 3.92378 12.2155 3.92378 12.53 4.2299L18 9.6499C18.7005 10.3455 19.0931 11.2927 19.09 12.2799C19.0833 13.2651 18.6922 14.2088 18 14.9099Z" fill="#171E2B"/>
</svg>
