<svg width="24" height="24" viewBox="0 0 24 24" fill="none" xmlns="http://www.w3.org/2000/svg">
<path fill-rule="evenodd" clip-rule="evenodd" d="M11.06 20.1C10.8129 19.9859 10.5917 19.8226 10.41 19.62C10.0872 19.308 9.85554 18.9138 9.73996 18.48C9.51745 17.6785 9.06142 16.9614 8.42996 16.42C8.6779 15.2277 8.30093 13.9912 7.42996 13.14C6.2525 11.789 4.20866 11.6332 2.83996 12.79C1.68198 14.162 1.83773 16.209 3.18996 17.39C3.78399 17.9954 4.56047 18.3889 5.39996 18.51H5.75996C6.3014 18.5117 6.83211 18.359 7.28996 18.07C7.5386 18.3299 7.71449 18.6506 7.79996 19C8.01548 19.7613 8.42964 20.4516 8.99996 21C9.34537 21.3613 9.75154 21.6592 10.2 21.88C10.3371 21.9464 10.4876 21.9806 10.64 21.98C11.1069 21.9819 11.513 21.6605 11.6183 21.2056C11.7236 20.7507 11.5002 20.2835 11.08 20.08L11.06 20.1ZM6.32 16.3303C6.12609 16.4938 5.86993 16.5633 5.62 16.5203C5.21825 16.4711 4.84482 16.2879 4.56 16.0003C3.99 15.4403 3.83 14.6103 4.2 14.2303C4.35506 14.0959 4.55488 14.0246 4.76 14.0303C5.22639 14.0396 5.67096 14.2297 6 14.5603C6.29861 14.8408 6.49263 15.2147 6.55 15.6203C6.58537 15.8797 6.50071 16.141 6.32 16.3303ZM21.32 10.2103C20.9716 10.0938 20.6585 9.89077 20.41 9.62025C20.0872 9.30821 19.8556 8.91408 19.74 8.48025C19.5175 7.67878 19.0614 6.96167 18.43 6.42025C18.6653 5.21922 18.2691 3.98132 17.38 3.14025C16.2025 1.78925 14.1587 1.6334 12.79 2.79025C11.632 4.16224 11.7877 6.20926 13.14 7.39025C13.7471 8.00549 14.5427 8.39978 15.4 8.51025H15.76C16.3014 8.5119 16.8321 8.35928 17.29 8.07025C17.5386 8.33014 17.7145 8.65088 17.8 9.00025C18.019 9.76004 18.4326 10.4495 19 11.0003C19.4746 11.488 20.0568 11.8579 20.7 12.0803C20.804 12.1107 20.9116 12.1275 21.02 12.1303C21.4499 12.1314 21.8324 11.8576 21.97 11.4503C22.127 10.9289 21.8381 10.3777 21.32 10.2103ZM16.32 6.3302C16.1261 6.49365 15.8699 6.56318 15.62 6.52021C15.2182 6.47098 14.8448 6.28779 14.56 6.00021C13.99 5.44021 13.83 4.61021 14.2 4.23021C14.355 4.09582 14.5549 4.02446 14.76 4.03021C15.2264 4.03952 15.6709 4.22953 16 4.56021C16.2986 4.84066 16.4926 5.21458 16.55 5.62021C16.5854 5.87954 16.5007 6.14087 16.32 6.3302ZM21.71 20.4502C21.3102 18.8609 20.0693 17.6199 18.48 17.2202C17.9538 17.0709 17.4751 16.7885 17.09 16.4002C16.7008 16.023 16.4239 15.5453 16.29 15.0202C15.848 13.4296 14.5958 12.1927 13 11.7702C12.4746 11.6367 11.9968 11.3597 11.62 10.9702C11.2285 10.5892 10.9484 10.1086 10.81 9.58017C10.6227 8.89208 10.2807 8.25588 9.80998 7.72017C9.96956 7.23712 10.0341 6.72774 9.99998 6.22017C9.86311 5.15545 9.36963 4.16849 8.59998 3.42016C7.84795 2.64108 6.85369 2.14042 5.77998 2.00016C4.74989 1.89688 3.72825 2.26438 2.99998 3.00016C2.26419 3.72843 1.8967 4.75007 1.99998 5.78016C2.13685 6.84488 2.63033 7.83184 3.39998 8.58017C4.15201 9.35925 5.14628 9.85991 6.21998 10.0002H6.64998C7.36317 10.0156 8.06305 9.80561 8.64998 9.40017C8.78767 9.6203 8.89212 9.85954 8.95998 10.1102C9.4391 11.8602 10.8086 13.2259 12.56 13.7002C13.4533 13.9453 14.1497 14.6455 14.39 15.5402C14.8642 17.2951 16.2351 18.6659 17.99 19.1402C18.8812 19.3907 19.5688 20.1012 19.79 21.0002C19.8299 21.1579 19.8834 21.3118 19.95 21.4602C20.1205 21.7894 20.4592 21.9972 20.83 22.0002C20.9816 21.9947 21.1309 21.9608 21.27 21.9002C21.7697 21.6654 21.9846 21.07 21.75 20.5702C21.75 20.5702 21.72 20.4702 21.71 20.4502ZM7.63996 7.64013C6.99996 8.27013 5.71996 8.05013 4.82996 7.17013C4.38131 6.74117 4.08913 6.1744 3.99996 5.56013C3.93228 5.12797 4.06057 4.68813 4.34996 4.36013C4.62244 4.11239 4.9821 3.98292 5.34996 4.00013C6.04378 4.03206 6.69886 4.32917 7.17996 4.83013C7.62493 5.26052 7.91351 5.82713 7.99996 6.44013C8.06495 6.8738 7.93294 7.31384 7.63996 7.64013Z" fill="#171E2B"/>
</svg>
