<svg width="24" height="24" viewBox="0 0 24 24" fill="none" xmlns="http://www.w3.org/2000/svg">
<path fill-rule="evenodd" clip-rule="evenodd" d="M13 3C9.13401 3 6 6.13401 6 10C6 13.866 9.13401 17 13 17C15.7614 17 18 14.7614 18 12C18 9.23858 15.7614 7 13 7C11.3431 7 10 8.34315 10 10C10 11.6569 11.3431 13 13 13C13.5523 13 14 12.5523 14 12C14 11.4477 13.5523 11 13 11C12.4477 11 12 10.5523 12 10C12 9.44771 12.4477 9 13 9C14.6569 9 16 10.3431 16 12C16 13.6569 14.6569 15 13 15C10.2386 15 8 12.7614 8 10C8 7.23858 10.2386 5 13 5C16.866 5 20 8.13401 20 12C20 15.866 16.866 19 13 19C8.02944 19 4 14.9706 4 10C4 9.44771 3.55228 9 3 9C2.44772 9 2 9.44771 2 10C2 12.9174 3.15893 15.7153 5.22183 17.7782C7.28473 19.8411 10.0826 21 13 21C17.9706 21 22 16.9706 22 12C22 7.02944 17.9706 3 13 3Z" fill="#171E2B"/>
</svg>
