<svg width="24" height="24" viewBox="0 0 24 24" fill="none" xmlns="http://www.w3.org/2000/svg">
<path fill-rule="evenodd" clip-rule="evenodd" d="M14 9C13.4477 9 13 9.44772 13 10C13 10.5523 13.4477 11 14 11C14.5523 11 15 10.5523 15 10C15 9.44772 14.5523 9 14 9ZM14 6C13.4477 6 13 6.44772 13 7C13 7.55228 13.4477 8 14 8C14.5523 8 15 7.55228 15 7C15 6.44772 14.5523 6 14 6ZM12 1.99988C6.47715 1.99988 2 6.47703 2 11.9999C2 17.5227 6.47715 21.9999 12 21.9999C17.5228 21.9999 22 17.5227 22 11.9999C22 9.34771 20.9464 6.80417 19.0711 4.92881C17.1957 3.05345 14.6522 1.99988 12 1.99988ZM12 19.9998C7.58174 19.9998 4.00002 16.418 4.00002 11.9998C4.00002 7.58148 7.58174 3.99975 12 3.99975C16.4183 3.99975 20 7.58148 20 11.9998C20 14.1215 19.1572 16.1563 17.6569 17.6566C16.1566 19.1569 14.1217 19.9998 12 19.9998ZM17 7.99988C16.4477 7.99988 16 8.44759 16 8.99988C16 9.55216 16.4477 9.99988 17 9.99988C17.5523 9.99988 18 9.55216 18 8.99988C18 8.44759 17.5523 7.99988 17 7.99988Z" fill="#171E2B"/>
</svg>
