<svg width="24" height="24" viewBox="0 0 24 24" fill="none" xmlns="http://www.w3.org/2000/svg">
<path fill-rule="evenodd" clip-rule="evenodd" d="M17 1.99988H7C4.23858 1.99988 2 4.23845 2 6.99988V16.9999C2 18.326 2.52678 19.5977 3.46447 20.5354C4.40215 21.4731 5.67392 21.9999 7 21.9999H17C19.7614 21.9999 22 19.7613 22 16.9999V6.99988C22 4.23845 19.7614 1.99988 17 1.99988ZM20 16.9998C20 18.6566 18.6568 19.9998 17 19.9998H6.99999C5.34314 19.9998 3.99999 18.6566 3.99999 16.9998V6.99975C3.99999 5.3429 5.34314 3.99975 6.99999 3.99975H17C18.6568 3.99975 20 5.3429 20 6.99975V16.9998Z" fill="#171E2B"/>
</svg>
