<svg width="24" height="24" viewBox="0 0 24 24" fill="none" xmlns="http://www.w3.org/2000/svg">
<path fill-rule="evenodd" clip-rule="evenodd" d="M15 13.9999H9C8.44771 13.9999 8 14.4476 8 14.9999C8 15.5522 8.44771 15.9999 9 15.9999H15C15.5523 15.9999 16 15.5522 16 14.9999C16 14.4476 15.5523 13.9999 15 13.9999ZM9.08001 12.21L10.58 10.71C10.7693 10.5223 10.8758 10.2667 10.8758 10C10.8758 9.73339 10.7693 9.4778 10.58 9.29003L9.08001 7.79003C8.68788 7.39791 8.05213 7.39791 7.66001 7.79003C7.26788 8.18215 7.26788 8.81791 7.66001 9.21003L8.46001 10L7.66001 10.79C7.47069 10.9778 7.36421 11.2334 7.36421 11.5C7.36421 11.7667 7.47069 12.0223 7.66001 12.21C7.84873 12.3972 8.1042 12.5016 8.37001 12.5C8.63581 12.5016 8.89129 12.3972 9.08001 12.21ZM12 1.99988C6.47715 1.99988 2 6.47703 2 11.9999C2 17.5227 6.47715 21.9999 12 21.9999C17.5228 21.9999 22 17.5227 22 11.9999C22 9.34771 20.9464 6.80417 19.0711 4.92881C17.1957 3.05345 14.6522 1.99988 12 1.99988ZM12 19.9998C7.58171 19.9998 3.99999 16.418 3.99999 11.9998C3.99999 7.58148 7.58171 3.99975 12 3.99975C16.4183 3.99975 20 7.58148 20 11.9998C20 14.1215 19.1571 16.1563 17.6568 17.6566C16.1566 19.1569 14.1217 19.9998 12 19.9998ZM16.58 7.78982C16.3922 7.60051 16.1366 7.49403 15.87 7.49403C15.6034 7.49403 15.3478 7.60051 15.16 7.78982L13.66 9.28983C13.4707 9.47759 13.3642 9.73319 13.3642 9.99983C13.3642 10.2665 13.4707 10.5221 13.66 10.7098L15.16 12.2098C15.3487 12.397 15.6042 12.5014 15.87 12.4998C16.1358 12.5014 16.3913 12.397 16.58 12.2098C16.7693 12.0221 16.8758 11.7665 16.8758 11.4998C16.8758 11.2332 16.7693 10.9776 16.58 10.7898L15.79 9.99983L16.58 9.20983C16.7693 9.02206 16.8758 8.76646 16.8758 8.49983C16.8758 8.23319 16.7693 7.97759 16.58 7.78982Z" fill="#171E2B"/>
</svg>
