<svg width="24" height="24" viewBox="0 0 24 24" fill="none" xmlns="http://www.w3.org/2000/svg">
<path fill-rule="evenodd" clip-rule="evenodd" d="M22 9.67015C21.871 9.29645 21.5339 9.03385 21.14 9.00015L15.45 8.17015L12.9 3.00015C12.7329 2.65515 12.3833 2.43604 12 2.43604C11.6167 2.43604 11.2671 2.65515 11.1 3.00015L8.55 8.16015L2.86 9.00015C2.48243 9.05381 2.16825 9.31757 2.05 9.68015C1.94189 10.0341 2.03806 10.4187 2.3 10.6801L6.43 14.6801L5.43 20.3601C5.34753 20.745 5.49852 21.1425 5.81573 21.3755C6.13294 21.6086 6.55736 21.6339 6.9 21.4401L12 18.7701L17.1 21.4401C17.2404 21.5193 17.3989 21.5607 17.56 21.5601C17.7718 21.5609 17.9784 21.4944 18.15 21.3701C18.4668 21.1432 18.6229 20.7529 18.55 20.3701L17.55 14.6901L21.68 10.6901C21.9747 10.4405 22.0993 10.0434 22 9.67015ZM11 17.0003L7.77001 18.7003L8.49001 14.5003C8.54327 14.1772 8.43494 13.8484 8.20001 13.6203L5.20001 10.6203L9.41001 10.0103C9.73896 9.96454 10.0237 9.75846 10.17 9.4603L11 7.7303V17.0003ZM15.8 13.6203C15.5651 13.8484 15.4568 14.1772 15.51 14.5003L16.23 18.7003L13 17.0003V7.7303L13.88 9.5203C14.0263 9.81846 14.3111 10.0245 14.64 10.0703L18.85 10.6803L15.8 13.6203Z" fill="#171E2B"/>
</svg>
