<svg width="24" height="24" viewBox="0 0 24 24" fill="none" xmlns="http://www.w3.org/2000/svg">
<path fill-rule="evenodd" clip-rule="evenodd" d="M22 9.67015C21.871 9.29645 21.5339 9.03385 21.14 9.00014L15.45 8.17015L12.9 3.00015C12.7329 2.65515 12.3833 2.43604 12 2.43604C11.6167 2.43604 11.2671 2.65515 11.1 3.00015L8.55 8.16014L2.86 9.00014C2.48243 9.05381 2.16825 9.31757 2.05 9.68015C1.94189 10.0341 2.03806 10.4187 2.3 10.6801L6.43 14.6801L5.43 20.3601C5.35711 20.7429 5.51322 21.1332 5.83 21.3601C6.13843 21.5806 6.54503 21.6077 6.88 21.4301L12 18.7601L17.1 21.4401C17.2404 21.5193 17.3989 21.5607 17.56 21.5601C17.7718 21.5609 17.9784 21.4944 18.15 21.3701C18.4668 21.1432 18.6229 20.7529 18.55 20.3701L17.55 14.6901L21.68 10.6901C21.9747 10.4405 22.0993 10.0434 22 9.67015ZM15.85 13.67C15.6119 13.9004 15.5033 14.2337 15.56 14.56L16.28 18.75L12.52 16.75C12.2262 16.5936 11.8738 16.5936 11.58 16.75L7.82001 18.75L8.54001 14.56C8.59673 14.2337 8.48812 13.9004 8.25001 13.67L5.25001 10.67L9.46001 10.06C9.78895 10.0143 10.0737 9.80821 10.22 9.51005L12 5.70005L13.88 9.52005C14.0263 9.81821 14.3111 10.0243 14.64 10.07L18.85 10.68L15.85 13.67Z" fill="#171E2B"/>
</svg>
