<svg width="24" height="24" viewBox="0 0 24 24" fill="none" xmlns="http://www.w3.org/2000/svg">
<path fill-rule="evenodd" clip-rule="evenodd" d="M19 3C17.3432 3 16 4.34315 16 6V18C16 19.6569 17.3432 21 19 21C20.6569 21 22 19.6569 22 18V6C22 4.34315 20.6569 3 19 3ZM20 17.9999C20 18.5522 19.5523 18.9999 19 18.9999C18.4477 18.9999 18 18.5522 18 17.9999V5.99988C18 5.44759 18.4477 4.99988 19 4.99988C19.5523 4.99988 20 5.44759 20 5.99988V17.9999ZM12.63 5.62988C11.8155 5.14988 10.8046 5.14988 9.99002 5.62988L3.32002 9.62988C2.49933 10.1287 1.99831 11.0195 1.99831 11.9799C1.99831 12.9403 2.49933 13.8311 3.32002 14.3299L9.99002 18.3299C10.8028 18.8164 11.8173 18.8164 12.63 18.3299C13.4646 17.8482 13.9849 16.9634 14 15.9999V7.99988C13.999 7.02201 13.4769 6.11881 12.63 5.62988ZM12 16.0001C12.006 16.2632 11.868 16.5086 11.64 16.6401C11.4463 16.757 11.2038 16.757 11.01 16.6401L4.35002 12.6401C4.13186 12.5004 3.9999 12.2592 3.9999 12.0001C3.9999 11.7411 4.13186 11.4998 4.35002 11.3601L11.01 7.36012C11.1067 7.30202 11.2172 7.27093 11.33 7.27012C11.4385 7.2701 11.5451 7.29762 11.64 7.35012C11.8712 7.48335 12.0097 7.73349 12 8.00012V16.0001Z" fill="#171E2B"/>
</svg>
