<svg width="24" height="24" viewBox="0 0 24 24" fill="none" xmlns="http://www.w3.org/2000/svg">
<path fill-rule="evenodd" clip-rule="evenodd" d="M20.28 3.43001C19.2655 2.82964 18.0045 2.82964 16.99 3.43001L8.00001 8.84001V6.00001C8.00001 4.34316 6.65687 3.00001 5.00002 3.00001C3.34316 3.00001 2.00002 4.34316 2.00002 6.00001V18C2.00002 19.6569 3.34316 21 5.00002 21C6.65687 21 8.00001 19.6569 8.00001 18V15.16L17 20.53C17.5073 20.8355 18.0879 20.9979 18.68 21C19.245 20.9995 19.8 20.8513 20.29 20.57C21.3702 19.9612 22.0304 18.8098 22.01 17.57V6.42001C22.0247 5.18167 21.3609 4.03448 20.28 3.43001ZM6.00003 17.9999C6.00003 18.5522 5.55232 18.9999 5.00003 18.9999C4.44775 18.9999 4.00003 18.5522 4.00003 17.9999V5.99989C4.00003 5.4476 4.44775 4.99989 5.00003 4.99989C5.55232 4.99989 6.00003 5.4476 6.00003 5.99989V17.9999ZM20 17.58C20.0117 18.0957 19.7389 18.576 19.29 18.83C18.897 19.0695 18.4031 19.0695 18.01 18.83L8.68004 13.23C8.25572 12.9651 7.99789 12.5003 7.99789 12C7.99789 11.4998 8.25572 11.0349 8.68004 10.77L18 5.19004C18.2004 5.06348 18.4331 4.9975 18.67 5.00004C18.8877 5.00347 19.101 5.06196 19.29 5.17004C19.7389 5.42411 20.0117 5.9044 20 6.42004V17.58Z" fill="#171E2B"/>
</svg>
