<svg width="24" height="24" viewBox="0 0 24 24" fill="none" xmlns="http://www.w3.org/2000/svg">
<path fill-rule="evenodd" clip-rule="evenodd" d="M15.5 7.37963C14.8812 7.02237 14.1188 7.02237 13.5 7.37963L9.49998 9.68963V7.99963C9.49998 7.44735 9.05227 6.99963 8.49998 6.99963C7.9477 6.99963 7.49998 7.44735 7.49998 7.99963V15.9996C7.49998 16.5519 7.9477 16.9996 8.49998 16.9996C9.05227 16.9996 9.49998 16.5519 9.49998 15.9996V14.3096L13.5 16.6196C14.1188 16.9769 14.8812 16.9769 15.5 16.6196C16.1182 16.2627 16.4993 15.6034 16.5 14.8896V9.10963C16.4993 8.39583 16.1182 7.73653 15.5 7.37963ZM14.5 14.8898L9.5 11.9998L14.5 9.10976V14.8898ZM12 1.99976C6.47715 1.99976 2 6.47691 2 11.9998C2 17.5226 6.47715 21.9998 12 21.9998C17.5228 21.9998 22 17.5226 22 11.9998C22 9.34759 20.9464 6.80405 19.0711 4.92869C17.1957 3.05332 14.6522 1.99976 12 1.99976ZM12 19.9996C7.58174 19.9996 4.00002 16.4179 4.00002 11.9996C4.00002 7.58135 7.58174 3.99963 12 3.99963C16.4183 3.99963 20 7.58135 20 11.9996C20 14.1214 19.1572 16.1562 17.6569 17.6565C16.1566 19.1568 14.1217 19.9996 12 19.9996Z" fill="#171E2B"/>
</svg>
