<svg width="24" height="24" viewBox="0 0 24 24" fill="none" xmlns="http://www.w3.org/2000/svg">
<path fill-rule="evenodd" clip-rule="evenodd" d="M8.71 7.28996C8.45634 7.03631 8.08663 6.93724 7.74012 7.03009C7.39362 7.12293 7.12297 7.39358 7.03012 7.74009C6.93728 8.08659 7.03634 8.45631 7.29 8.70996L10.59 12L7.29 15.29C7.10069 15.4777 6.9942 15.7333 6.9942 16C6.9942 16.2666 7.10069 16.5222 7.29 16.71C7.47777 16.8993 7.73336 17.0058 8 17.0058C8.26664 17.0058 8.52223 16.8993 8.71 16.71L12.71 12.71C12.8993 12.5222 13.0058 12.2666 13.0058 12C13.0058 11.7333 12.8993 11.4777 12.71 11.29L8.71 7.28996ZM16 7.00001C15.4477 7.00001 15 7.44772 15 8.00001V16C15 16.5523 15.4477 17 16 17C16.5523 17 17 16.5523 17 16V8.00001C17 7.44772 16.5523 7.00001 16 7.00001Z" fill="#171E2B"/>
</svg>
