<svg width="24" height="24" viewBox="0 0 24 24" fill="none" xmlns="http://www.w3.org/2000/svg">
<path fill-rule="evenodd" clip-rule="evenodd" d="M15 7.99976H9C8.44771 7.99976 8 8.44747 8 8.99976V14.9998C8 15.552 8.44771 15.9998 9 15.9998H15C15.5523 15.9998 16 15.552 16 14.9998V8.99976C16 8.44747 15.5523 7.99976 15 7.99976ZM14 13.9996H9.99999V9.99963H14V13.9996ZM12 1.99976C6.47715 1.99976 2 6.47691 2 11.9998C2 17.5226 6.47715 21.9998 12 21.9998C17.5228 21.9998 22 17.5226 22 11.9998C22 9.34759 20.9464 6.80405 19.0711 4.92869C17.1957 3.05332 14.6522 1.99976 12 1.99976ZM12 19.9996C7.58171 19.9996 3.99999 16.4179 3.99999 11.9996C3.99999 7.58135 7.58171 3.99963 12 3.99963C16.4183 3.99963 20 7.58135 20 11.9996C20 14.1214 19.1571 16.1562 17.6568 17.6565C16.1566 19.1568 14.1217 19.9996 12 19.9996Z" fill="#171E2B"/>
</svg>
