<svg width="24" height="24" viewBox="0 0 24 24" fill="none" xmlns="http://www.w3.org/2000/svg">
<path fill-rule="evenodd" clip-rule="evenodd" d="M10.6 5.6302C10.0477 5.72961 9.68059 6.25792 9.78 6.8102C9.87942 7.36249 10.4077 7.72961 10.96 7.6302C11.2903 7.57313 11.6248 7.54303 11.96 7.5402C15.2737 7.5402 17.96 10.2265 17.96 13.5402C17.9572 13.8754 17.9271 14.2099 17.87 14.5402C17.7727 15.081 18.1299 15.599 18.67 15.7002H18.85C19.339 15.7082 19.762 15.3613 19.85 14.8802C19.9428 14.4259 19.9931 13.9639 20 13.5002C19.9954 11.72 19.3972 9.99213 18.3 8.5902L19.21 7.6902C19.6021 7.29808 19.6021 6.66232 19.21 6.2702C18.8179 5.87808 18.1821 5.87808 17.79 6.2702L16.89 7.1802C15.4909 6.09437 13.771 5.50349 12 5.5002C11.5303 5.4993 11.0615 5.54283 10.6 5.6302ZM10 4.50024H14C14.5523 4.50024 15 4.05253 15 3.50024C15 2.94796 14.5523 2.50024 14 2.50024H10C9.44772 2.50024 9 2.94796 9 3.50024C9 4.05253 9.44772 4.50024 10 4.50024ZM13.49 13.5803C13.49 13.5803 13.49 13.5303 13.49 13.5003C13.49 13.4703 13.49 13.4503 13.49 13.4203L14.83 12.0903C15.0837 11.8366 15.1827 11.4669 15.0899 11.1204C14.997 10.7739 14.7264 10.5032 14.3799 10.4104C14.0334 10.3176 13.6637 10.4166 13.41 10.6703L12.08 12.0003H11.92L5.71 5.79028C5.31788 5.39815 4.68212 5.39815 4.29 5.79028C3.89788 6.1824 3.89788 6.81815 4.29 7.21028L4.77 7.69028L5.68 8.60028C3.22543 11.7852 3.5164 16.2972 6.35972 19.1406C9.20303 21.9839 13.715 22.2748 16.9 19.8203L18.29 21.2103C18.4778 21.3996 18.7334 21.5061 19 21.5061C19.2666 21.5061 19.5222 21.3996 19.71 21.2103C19.8993 21.0225 20.0058 20.7669 20.0058 20.5003C20.0058 20.2336 19.8993 19.978 19.71 19.7903L13.49 13.5803ZM12 19.5002C9.74671 19.5065 7.67989 18.2497 6.64864 16.2463C5.61738 14.2428 5.79557 11.8304 7.11 10.0002L10.51 13.3902C10.51 13.3902 10.51 13.4402 10.51 13.4702C10.502 13.8715 10.6551 14.2593 10.9351 14.5468C11.2151 14.8343 11.5987 14.9977 12 15.0002H12.08L15.47 18.4002C14.4552 19.1174 13.2427 19.5018 12 19.5002Z" fill="#171E2B"/>
</svg>
