<svg width="24" height="24" viewBox="0 0 24 24" fill="none" xmlns="http://www.w3.org/2000/svg">
<path fill-rule="evenodd" clip-rule="evenodd" d="M18.3 8.5903L19.21 7.6903C19.6021 7.29818 19.6021 6.66243 19.21 6.2703C18.8179 5.87818 18.1821 5.87818 17.79 6.2703L16.89 7.1803C14.0076 4.95048 9.98242 4.95048 7.1 7.1803L6.19 6.2603C5.79511 5.86818 5.15712 5.87042 4.765 6.2653C4.37287 6.66019 4.37511 7.29818 4.77 7.6903L5.69 8.6003C4.59301 9.99785 3.99779 11.7236 4 13.5003C3.99103 17.0038 6.26271 20.1055 9.60559 21.1541C12.9485 22.2026 16.5847 20.9541 18.5784 18.0732C20.572 15.1923 20.4592 11.3493 18.3 8.5903ZM12 19.5001C8.68629 19.5001 6 16.8138 6 13.5001C6 10.1864 8.68629 7.50012 12 7.50012C15.3137 7.50012 18 10.1864 18 13.5001C18 15.0914 17.3679 16.6175 16.2426 17.7428C15.1174 18.868 13.5913 19.5001 12 19.5001ZM10 4.50024H14C14.5523 4.50024 15 4.05253 15 3.50024C15 2.94796 14.5523 2.50024 14 2.50024H10C9.44771 2.50024 9 2.94796 9 3.50024C9 4.05253 9.44771 4.50024 10 4.50024ZM13 10.5004C13 9.94808 12.5523 9.50037 12 9.50037C11.4477 9.50037 11 9.94808 11 10.5004V12.3904C10.5364 12.805 10.3768 13.4626 10.5987 14.0436C10.8207 14.6246 11.3781 15.0084 12 15.0084C12.6219 15.0084 13.1793 14.6246 13.4013 14.0436C13.6232 13.4626 13.4636 12.805 13 12.3904V10.5004Z" fill="#171E2B"/>
</svg>
