<svg width="24" height="24" viewBox="0 0 24 24" fill="none" xmlns="http://www.w3.org/2000/svg">
<path fill-rule="evenodd" clip-rule="evenodd" d="M22 7.81978C22.0048 7.75654 22.0048 7.69303 22 7.62978L20 2.62978C19.8397 2.22419 19.435 1.96926 19 1.99978H5C4.5902 1.99939 4.22163 2.24906 4.07 2.62978L2.07 7.62978C2.06518 7.69303 2.06518 7.75654 2.07 7.81978C2.03677 7.87545 2.01311 7.93629 2 7.99978C2.02264 9.40589 2.78201 10.6968 4 11.3998V20.9998C4 21.5521 4.44772 21.9998 5 21.9998H19C19.5523 21.9998 20 21.5521 20 20.9998V11.4398C21.2302 10.7296 21.9914 9.42023 22 7.99978C22.0094 7.94015 22.0094 7.87942 22 7.81978ZM13 19.9997H11V15.9997H13V19.9997ZM18 19.9999H15V14.9999C15 14.4477 14.5523 13.9999 14 13.9999H10C9.44772 13.9999 9.00001 14.4477 9.00001 14.9999V19.9999H6.00001V11.9999C7.15208 11.9934 8.24541 11.4905 9.00001 10.6199C9.75934 11.4809 10.852 11.9742 12 11.9742C13.148 11.9742 14.2407 11.4809 15 10.6199C15.7546 11.4905 16.8479 11.9934 18 11.9999V19.9999ZM18 9.99969C16.8954 9.99969 16 9.10426 16 7.99969C16 7.4474 15.5523 6.99969 15 6.99969C14.4477 6.99969 14 7.4474 14 7.99969C14 9.10426 13.1046 9.99969 12 9.99969C10.8954 9.99969 9.99999 9.10426 9.99999 7.99969C9.99999 7.4474 9.55228 6.99969 8.99999 6.99969C8.44771 6.99969 7.99999 7.4474 7.99999 7.99969C8.02679 8.71422 7.67035 9.38877 7.06494 9.76924C6.45954 10.1497 5.69714 10.1783 5.06494 9.84424C4.43274 9.51018 4.02679 8.86422 3.99999 8.14969L5.67999 3.99969H18.32L20 8.14969C19.9214 9.19529 19.0485 10.0026 18 9.99969Z" fill="#171E2B"/>
</svg>
