<svg width="24" height="24" viewBox="0 0 24 24" fill="none" xmlns="http://www.w3.org/2000/svg">
<path fill-rule="evenodd" clip-rule="evenodd" d="M22 1.99976H2C1.44772 1.99976 1 2.44747 1 2.99976V6.99976C1.00356 8.26801 1.80427 9.39701 3 9.81975V20.9998C3 21.552 3.44772 21.9998 4 21.9998H20C20.5523 21.9998 21 21.552 21 20.9998V9.81975C22.1957 9.39701 22.9964 8.26801 23 6.99976V2.99976C23 2.44747 22.5523 1.99976 22 1.99976ZM15 3.99963H17V6.99963C17 7.55192 16.5523 7.99963 16 7.99963C15.4477 7.99963 15 7.55192 15 6.99963V3.99963ZM11 3.99963H13V6.99963C13 7.55192 12.5523 7.99963 12 7.99963C11.4477 7.99963 11 7.55192 11 6.99963V3.99963ZM7 3.99963H9V6.99963C9 7.55192 8.55228 7.99963 8 7.99963C7.44772 7.99963 7 7.55192 7 6.99963V3.99963ZM3.99999 7.99963C3.44771 7.99963 2.99999 7.55192 2.99999 6.99963V3.99963H4.99999V6.99963C4.99999 7.55192 4.55228 7.99963 3.99999 7.99963ZM14 19.9998H10V15.9998C10 14.8952 10.8954 13.9998 12 13.9998C13.1046 13.9998 14 14.8952 14 15.9998V19.9998ZM19 19.9996H16V15.9996C16 13.7905 14.2091 11.9996 12 11.9996C9.79087 11.9996 8.00001 13.7905 8.00001 15.9996V19.9996H5.00001V9.81963C5.36758 9.6832 5.70665 9.47975 6.00001 9.21963C7.13881 10.2382 8.86121 10.2382 10 9.21963C11.1388 10.2382 12.8612 10.2382 14 9.21963C15.1388 10.2382 16.8612 10.2382 18 9.21963C18.2934 9.47975 18.6324 9.6832 19 9.81963V19.9996ZM21 6.99963C21 7.55192 20.5523 7.99963 20 7.99963C19.4477 7.99963 19 7.55192 19 6.99963V3.99963H21V6.99963Z" fill="#171E2B"/>
</svg>
