<svg width="24" height="24" viewBox="0 0 24 24" fill="none" xmlns="http://www.w3.org/2000/svg">
<path fill-rule="evenodd" clip-rule="evenodd" d="M12 12C11.4477 12 11 12.4477 11 13C11 13.5523 11.4477 14 12 14C12.5523 14 13 13.5523 13 13C13 12.4477 12.5523 12 12 12ZM21.71 9.64C20.595 5.1911 16.5965 2.07104 12.01 2.07104C7.42352 2.07104 3.42501 5.1911 2.31001 9.64C1.92344 11.1896 1.92344 12.8104 2.31001 14.36C3.18908 17.9738 6.00107 20.8012 9.61001 21.7C11.1528 22.0865 12.7672 22.0865 14.31 21.7C17.9149 20.8095 20.7295 17.9949 21.62 14.39C22.0066 12.8404 22.0066 11.2196 21.62 9.67L21.71 9.64ZM12 4.00014C15.2576 4.00266 18.1884 5.98023 19.41 9.00014H4.59C5.81161 5.98023 8.74236 4.00266 12 4.00014ZM4.00003 11.9999C4.00309 11.6654 4.02647 11.3315 4.07003 10.9999H6.00003V12.9999H4.07003C4.02647 12.6683 4.00309 12.3343 4.00003 11.9999ZM9 19.41C6.99394 18.5971 5.40288 17.0061 4.59 15H7C8.10457 15 9 15.8954 9 17V19.41ZM13 19.93C12.6684 19.9736 12.3345 19.997 12 20C11.6656 19.997 11.3316 19.9736 11 19.93V18H13V19.93ZM13.14 15.9999H10.86C10.4944 14.5993 9.40061 13.5055 8.00001 13.1399V10.9999H16V13.1399C14.5994 13.5055 13.5056 14.5993 13.14 15.9999ZM15 19.41V17C15 15.8954 15.8954 15 17 15H19.41C18.5971 17.0061 17.0061 18.5971 15 19.41ZM19.93 12.9999H18V10.9999H19.93C19.9736 11.3315 19.9969 11.6654 20 11.9999C19.9969 12.3343 19.9736 12.6683 19.93 12.9999Z" fill="#171E2B"/>
</svg>
