<svg width="24" height="24" viewBox="0 0 24 24" fill="none" xmlns="http://www.w3.org/2000/svg">
<path fill-rule="evenodd" clip-rule="evenodd" d="M18 4.50024H21C21.5523 4.50024 22 4.05253 22 3.50024C22 2.94796 21.5523 2.50024 21 2.50024H18C17.4477 2.50024 17 2.94796 17 3.50024C17 4.05253 17.4477 4.50024 18 4.50024ZM21 6.50037H3.00002C2.44773 6.50037 2.00002 6.94808 2.00002 7.50037V11.5004C2.00002 12.0527 2.44773 12.5004 3.00002 12.5004H4.55002L9.66002 15.0604L7.08002 16.3504C6.52298 15.8083 5.77728 15.5035 5.00002 15.5004C3.34316 15.5004 2.00002 16.8435 2.00002 18.5004C2.00002 20.1572 3.34316 21.5004 5.00002 21.5004C6.65687 21.5004 8.00002 20.1572 8.00002 18.5004C8.00985 18.3806 8.00985 18.2602 8.00002 18.1404L11.94 16.1404L16 18.2404C15.9951 18.327 15.9951 18.4138 16 18.5004C16 20.1572 17.3432 21.5004 19 21.5004C20.6569 21.5004 22 20.1572 22 18.5004C22 16.8435 20.6569 15.5004 19 15.5004C18.1884 15.5036 17.4127 15.8355 16.85 16.4204L14.13 15.0604L19.24 12.5004H21C21.5523 12.5004 22 12.0527 22 11.5004V7.50037C22 6.94808 21.5523 6.50037 21 6.50037ZM5.00003 19.5002C4.44775 19.5002 4.00003 19.0525 4.00003 18.5002C4.00003 17.948 4.44775 17.5002 5.00003 17.5002C5.55232 17.5002 6.00003 17.948 6.00003 18.5002C6.00003 19.0525 5.55232 19.5002 5.00003 19.5002ZM19 17.5002C19.5523 17.5002 20 17.948 20 18.5002C20 19.0525 19.5523 19.5002 19 19.5002C18.4477 19.5002 18 19.0525 18 18.5002C18 17.948 18.4477 17.5002 19 17.5002ZM11.9 13.9404L9 12.5004H14.75L11.9 13.9404ZM20 10.5002H4.00003V8.50024H20V10.5002Z" fill="#171E2B"/>
</svg>
