<svg width="24" height="24" viewBox="0 0 24 24" fill="none" xmlns="http://www.w3.org/2000/svg">
<path fill-rule="evenodd" clip-rule="evenodd" d="M13 16.0001H3.00002C2.44773 16.0001 2.00002 16.4478 2.00002 17.0001C2.00002 17.5524 2.44773 18.0001 3.00002 18.0001H13C13.5523 18.0001 14 17.5524 14 17.0001C14 16.4478 13.5523 16.0001 13 16.0001ZM3.00002 8H21C21.5523 8 22 7.55228 22 7C22 6.44771 21.5523 6 21 6H3.00002C2.44773 6 2.00002 6.44771 2.00002 7C2.00002 7.55228 2.44773 8 3.00002 8ZM21 10.9999H3.00002C2.44773 10.9999 2.00002 11.4476 2.00002 11.9999C2.00002 12.5522 2.44773 12.9999 3.00002 12.9999H21C21.5523 12.9999 22 12.5522 22 11.9999C22 11.4476 21.5523 10.9999 21 10.9999Z" fill="#171E2B"/>
</svg>
