<svg width="24" height="24" viewBox="0 0 24 24" fill="none" xmlns="http://www.w3.org/2000/svg">
<path fill-rule="evenodd" clip-rule="evenodd" d="M16 16.9997C16.5523 16.9997 17 16.552 17 15.9997C17.0049 15.9331 17.0049 15.8663 17 15.7997C16.9891 15.7371 16.9688 15.6764 16.94 15.6197C16.9181 15.556 16.8879 15.4955 16.85 15.4397L16.73 15.2897C16.6328 15.2014 16.5212 15.1304 16.4 15.0797C16.1565 14.9797 15.8835 14.9797 15.64 15.0797C15.5188 15.1304 15.4072 15.2014 15.31 15.2897L15.19 15.4397C15.1522 15.4955 15.1219 15.556 15.1 15.6197C15.0712 15.6764 15.051 15.7371 15.04 15.7997C15.0351 15.8663 15.0351 15.9331 15.04 15.9997C15.04 16.552 15.4877 16.9997 16.04 16.9997H16ZM18 1.99976H6C4.34315 1.99976 3 3.3429 3 4.99976V16.9998C3.00314 17.9405 3.44739 18.8253 4.2 19.3898L3.29 20.2898C3.10069 20.4775 2.9942 20.7331 2.9942 20.9998C2.9942 21.2664 3.10069 21.522 3.29 21.7098C3.47777 21.8991 3.73336 22.0056 4 22.0056C4.26664 22.0056 4.52223 21.8991 4.71 21.7098L6.41 19.9998H17.59L19.29 21.7098C19.4778 21.8991 19.7334 22.0056 20 22.0056C20.2666 22.0056 20.5222 21.8991 20.71 21.7098C20.8993 21.522 21.0058 21.2664 21.0058 20.9998C21.0058 20.7331 20.8993 20.4775 20.71 20.2898L19.8 19.3898C20.5526 18.8253 20.9969 17.9405 21 16.9998V4.99976C21 3.3429 19.6569 1.99976 18 1.99976ZM5.00001 7.99976H11V11.9998H5.00001V7.99976ZM19 16.9998C19 17.552 18.5523 17.9998 18 17.9998H6.00001C5.44772 17.9998 5.00001 17.552 5.00001 16.9998V13.9998H19V16.9998ZM19 11.9998H13V7.99976H19V11.9998ZM19 5.99963H5.00001V4.99963C5.00001 4.44735 5.44772 3.99963 6.00001 3.99963H18C18.5523 3.99963 19 4.44735 19 4.99963V5.99963ZM8.00001 16.9997C8.55229 16.9997 9.00001 16.552 9.00001 15.9997C9.00492 15.9331 9.00492 15.8663 9.00001 15.7997C8.98906 15.7371 8.96884 15.6764 8.94001 15.6197C8.91812 15.556 8.88785 15.4955 8.85001 15.4397L8.73001 15.2897C8.63281 15.2014 8.52119 15.1304 8.40001 15.0797C8.15655 14.9797 7.88347 14.9797 7.64001 15.0797C7.51882 15.1304 7.40721 15.2014 7.31001 15.2897L7.19001 15.4397C7.15216 15.4955 7.1219 15.556 7.10001 15.6197C7.05718 15.6739 7.02341 15.7347 7.00001 15.7997C6.9951 15.8663 6.9951 15.9331 7.00001 15.9997C7.00111 16.2621 7.10526 16.5135 7.29001 16.6997C7.47708 16.8906 7.73276 16.9986 8.00001 16.9997Z" fill="#171E2B"/>
</svg>
