<svg width="24" height="24" viewBox="0 0 24 24" fill="none" xmlns="http://www.w3.org/2000/svg">
<path fill-rule="evenodd" clip-rule="evenodd" d="M15 16.9999H16C16.5523 16.9999 17 16.5522 17 15.9999C17 15.4476 16.5523 14.9999 16 14.9999H15C14.4477 14.9999 14 15.4476 14 15.9999C14 16.5522 14.4477 16.9999 15 16.9999ZM21 16.9998V8.99975C21 7.3429 19.6569 5.99976 18 5.99976H13V3.99976H17C17.5523 3.99976 18 3.55204 18 2.99976C18 2.44747 17.5523 1.99976 17 1.99976H7C6.44772 1.99976 6 2.44747 6 2.99976C6 3.55204 6.44772 3.99976 7 3.99976H11V5.99976H6C4.34315 5.99976 3 7.3429 3 8.99975V16.9998C3.00314 17.9405 3.44739 18.8253 4.2 19.3898L3.29 20.2898C3.10069 20.4775 2.9942 20.7331 2.9942 20.9998C2.9942 21.2664 3.10069 21.522 3.29 21.7098C3.47777 21.8991 3.73336 22.0056 4 22.0056C4.26664 22.0056 4.52223 21.8991 4.71 21.7098L6.41 19.9998H17.59L19.29 21.7098C19.4778 21.8991 19.7334 22.0056 20 22.0056C20.2666 22.0056 20.5222 21.8991 20.71 21.7098C20.8993 21.522 21.0058 21.2664 21.0058 20.9998C21.0058 20.7331 20.8993 20.4775 20.71 20.2898L19.8 19.3898C20.5526 18.8253 20.9969 17.9405 21 16.9998ZM5.00001 8.99976C5.00001 8.44747 5.44772 7.99976 6.00001 7.99976H11V11.9998H5.00001V8.99976ZM19 16.9998C19 17.552 18.5523 17.9998 18 17.9998H6.00001C5.44772 17.9998 5.00001 17.552 5.00001 16.9998V13.9998H19V16.9998ZM19 11.9998H13V7.99976H18C18.5523 7.99976 19 8.44747 19 8.99976V11.9998ZM8.00002 16.9999H9.00002C9.55231 16.9999 10 16.5522 10 15.9999C10 15.4476 9.55231 14.9999 9.00002 14.9999H8.00002C7.44774 14.9999 7.00002 15.4476 7.00002 15.9999C7.00002 16.5522 7.44774 16.9999 8.00002 16.9999Z" fill="#171E2B"/>
</svg>
