<svg width="24" height="24" viewBox="0 0 24 24" fill="none" xmlns="http://www.w3.org/2000/svg">
<path fill-rule="evenodd" clip-rule="evenodd" d="M19 6.50024H16V5.50024C16 3.84339 14.6569 2.50024 13 2.50024H11C9.34315 2.50024 8 3.84339 8 5.50024V6.50024H5C4.20435 6.50024 3.44129 6.81632 2.87868 7.37892C2.31607 7.94153 2 8.7046 2 9.50024V18.5002C2 20.1571 3.34315 21.5002 5 21.5002H19C20.6569 21.5002 22 20.1571 22 18.5002V9.50024C22 7.84339 20.6569 6.50024 19 6.50024ZM9.99999 5.50012C9.99999 4.94784 10.4477 4.50012 11 4.50012H13C13.5523 4.50012 14 4.94784 14 5.50012V6.50012H9.99999V5.50012ZM20 18.5002C20 19.0525 19.5523 19.5002 19 19.5002H4.99999C4.44771 19.5002 3.99999 19.0525 3.99999 18.5002V13.4502H6.99999V14.5002C6.99999 15.0525 7.44771 15.5002 7.99999 15.5002C8.55228 15.5002 8.99999 15.0525 8.99999 14.5002V13.4502H15V14.5002C15 15.0525 15.4477 15.5002 16 15.5002C16.5523 15.5002 17 15.0525 17 14.5002V13.4502H20V18.5002ZM20 11.5002H3.99999V9.50024C3.99999 8.94796 4.44771 8.50024 4.99999 8.50024H19C19.5523 8.50024 20 8.94796 20 9.50024V11.5002Z" fill="#171E2B"/>
</svg>
