<svg width="24" height="24" viewBox="0 0 24 24" fill="none" xmlns="http://www.w3.org/2000/svg">
<path fill-rule="evenodd" clip-rule="evenodd" d="M19 6H16V5C16 3.89543 15.1046 3 14 3H10C8.89543 3 8 3.89543 8 5V6H5C3.34315 6 2 7.34315 2 9V18C2 19.6569 3.34315 21 5 21H19C20.6569 21 22 19.6569 22 18V9C22 7.34315 20.6569 6 19 6ZM10 4.99988H14V5.99987H10V4.99988ZM20 18.0001C20 18.5524 19.5523 19.0001 19 19.0001H5C4.44772 19.0001 4 18.5524 4 18.0001V13.0001H8V14.0001C8 14.5524 8.44772 15.0001 9 15.0001C9.55229 15.0001 10 14.5524 10 14.0001V13.0001H14V14.0001C14 14.5524 14.4477 15.0001 15 15.0001C15.5523 15.0001 16 14.5524 16 14.0001V13.0001H20V18.0001ZM20 10.9999H4V8.99988C4 8.44759 4.44772 7.99988 5 7.99988H19C19.5523 7.99988 20 8.44759 20 8.99988V10.9999Z" fill="#171E2B"/>
</svg>
