<svg width="24" height="24" viewBox="0 0 24 24" fill="none" xmlns="http://www.w3.org/2000/svg">
<path fill-rule="evenodd" clip-rule="evenodd" d="M5.64 16.9998L4.93 17.7098C4.54227 18.0998 4.54227 18.7297 4.93 19.1198C5.32003 19.5075 5.94996 19.5075 6.34 19.1198L7.05 18.4098C7.38977 18.013 7.36693 17.4216 6.99756 17.0522C6.62819 16.6828 6.03676 16.66 5.64 16.9998ZM5 11.9998C5 11.4475 4.55228 10.9998 4 10.9998H3C2.44772 10.9998 2 11.4475 2 11.9998C2 12.552 2.44772 12.9998 3 12.9998H4C4.55228 12.9998 5 12.552 5 11.9998ZM12 4.99976C12.5523 4.99976 13 4.55204 13 3.99976V2.99976C13 2.44747 12.5523 1.99976 12 1.99976C11.4477 1.99976 11 2.44747 11 2.99976V3.99976C11 4.55204 11.4477 4.99976 12 4.99976ZM5.64 7.04966C5.82626 7.2344 6.07766 7.33855 6.34 7.33966C6.6058 7.3412 6.86128 7.23685 7.05 7.04966C7.43772 6.65962 7.43772 6.0297 7.05 5.63966L6.34 4.92966C5.94324 4.58988 5.35181 4.61273 4.98244 4.9821C4.61307 5.35147 4.59022 5.9429 4.93 6.33966L5.64 7.04966ZM17.64 7.33962C17.9023 7.33851 18.1537 7.23436 18.34 7.04962L19.05 6.33962C19.3354 6.09523 19.4597 5.7115 19.3718 5.3462C19.2839 4.9809 18.9987 4.69568 18.6334 4.60781C18.2681 4.51993 17.8844 4.64424 17.64 4.92962L17 5.63962C16.6123 6.02965 16.6123 6.65958 17 7.04962C17.1763 7.22498 17.4116 7.32837 17.66 7.33962H17.64ZM21 10.9998H20C19.4477 10.9998 19 11.4475 19 11.9998C19 12.552 19.4477 12.9998 20 12.9998H21C21.5523 12.9998 22 12.552 22 11.9998C22 11.4475 21.5523 10.9998 21 10.9998ZM12 18.9996C11.4477 18.9996 11 19.4474 11 19.9996V20.9996C11 21.5519 11.4477 21.9996 12 21.9996C12.5523 21.9996 13 21.5519 13 20.9996V19.9996C13 19.4474 12.5523 18.9996 12 18.9996ZM18.36 16.9997C17.9696 16.7826 17.4826 16.8506 17.1668 17.1665C16.851 17.4823 16.7829 17.9693 17 18.3597L17.71 19.0697C18.1 19.4574 18.73 19.4574 19.12 19.0697C19.5077 18.6796 19.5077 18.0497 19.12 17.6597L18.36 16.9997ZM12 6.49976C8.96244 6.49976 6.5 8.96219 6.5 11.9998C6.5 15.0373 8.96244 17.4998 12 17.4998C15.0376 17.4998 17.5 15.0373 17.5 11.9998C17.4945 8.96447 15.0353 6.50526 12 6.49976ZM12 15.4997C10.5844 15.4997 9.30816 14.6469 8.76642 13.3391C8.22469 12.0312 8.52413 10.5258 9.52513 9.5248C10.5261 8.52381 12.0315 8.22437 13.3394 8.7661C14.6473 9.30783 15.5 10.5841 15.5 11.9997C15.5 13.9327 13.933 15.4997 12 15.4997Z" fill="#171E2B"/>
</svg>
