<svg width="24" height="24" viewBox="0 0 24 24" fill="none" xmlns="http://www.w3.org/2000/svg">
<path fill-rule="evenodd" clip-rule="evenodd" d="M17.66 8.33986C17.9223 8.33876 18.1737 8.23461 18.36 8.04986L19.07 7.33986C19.3554 7.09547 19.4797 6.71174 19.3918 6.34644C19.3039 5.98114 19.0187 5.69592 18.6534 5.60805C18.2881 5.52018 17.9044 5.64448 17.66 5.92986L17 6.63986C16.6123 7.0299 16.6123 7.65982 17 8.04986C17.1763 8.22522 17.4116 8.32861 17.66 8.33986ZM12 6C12.5523 6 13 5.55228 13 5V4C13 3.44772 12.5523 3 12 3C11.4477 3 11 3.44772 11 4V5C11 5.55228 11.4477 6 12 6ZM4 12H3C2.44772 12 2 12.4477 2 13C2 13.5523 2.44772 14 3 14H4C4.55228 14 5 13.5523 5 13C5 12.4477 4.55228 12 4 12ZM5.64 8.04991C5.82626 8.23465 6.07766 8.3388 6.34 8.33991C6.6058 8.34144 6.86128 8.23709 7.05 8.04991C7.43772 7.65987 7.43772 7.02994 7.05 6.6399L6.34 5.9299C5.94324 5.59013 5.3518 5.61297 4.98243 5.98234C4.61306 6.35171 4.59022 6.94314 4.93 7.33991L5.64 8.04991ZM21 12H20C19.4477 12 19 12.4477 19 13C19 13.5523 19.4477 14 20 14H21C21.5523 14 22 13.5523 22 13C22 12.4477 21.5523 12 21 12ZM11 19.0001H7.99999C7.44771 19.0001 6.99999 19.4478 6.99999 20.0001C6.99999 20.5524 7.44771 21.0001 7.99999 21.0001H11C11.5523 21.0001 12 20.5524 12 20.0001C12 19.4478 11.5523 19.0001 11 19.0001ZM18 15H17.12C17.3726 14.3635 17.5015 13.6848 17.5 13C17.5 9.96243 15.0376 7.5 12 7.5C8.96243 7.5 6.5 9.96243 6.5 13C6.49848 13.6848 6.62744 14.3635 6.88 15H6C5.44772 15 5 15.4477 5 16C5 16.5523 5.44772 17 6 17H18C18.5523 17 19 16.5523 19 16C19 15.4477 18.5523 15 18 15ZM14.85 14.9999H9.14999C8.72987 14.4174 8.50257 13.7181 8.49999 12.9999C8.49999 11.0669 10.067 9.49988 12 9.49988C13.933 9.49988 15.5 11.0669 15.5 12.9999C15.4974 13.7181 15.2701 14.4174 14.85 14.9999ZM16 19.0001H15C14.4477 19.0001 14 19.4478 14 20.0001C14 20.5524 14.4477 21.0001 15 21.0001H16C16.5523 21.0001 17 20.5524 17 20.0001C17 19.4478 16.5523 19.0001 16 19.0001Z" fill="#171E2B"/>
</svg>
