<svg width="24" height="24" viewBox="0 0 24 24" fill="none" xmlns="http://www.w3.org/2000/svg">
<path fill-rule="evenodd" clip-rule="evenodd" d="M12 1.99976C6.47715 1.99976 2 6.47691 2 11.9998C2 17.5226 6.47715 21.9998 12 21.9998C17.5228 21.9998 22 17.5226 22 11.9998C22 9.34759 20.9464 6.80405 19.0711 4.92869C17.1957 3.05332 14.6522 1.99976 12 1.99976ZM12 19.9996C7.58171 19.9996 3.99999 16.4179 3.99999 11.9996C3.99999 7.58135 7.58171 3.99963 12 3.99963C16.4183 3.99963 20 7.58135 20 11.9996C20 14.1214 19.1571 16.1562 17.6568 17.6565C16.1566 19.1568 14.1217 19.9996 12 19.9996ZM10 8.99976C10 8.44747 9.55228 7.99976 9 7.99976C8.44771 7.99976 8 8.44747 8 8.99976C8 9.55204 8.44771 9.99976 9 9.99976C9.55228 9.99976 10 9.55204 10 8.99976ZM15 7.99976C14.4477 7.99976 14 8.44747 14 8.99976C14 9.55204 14.4477 9.99976 15 9.99976C15.5523 9.99976 16 9.55204 16 8.99976C16 8.44747 15.5523 7.99976 15 7.99976ZM12 10.9998C10.1392 11.0756 8.68802 12.6384 8.74999 14.4998C8.68802 16.3611 10.1392 17.9239 12 17.9998C13.8608 17.9239 15.312 16.3611 15.25 14.4998C15.312 12.6384 13.8608 11.0756 12 10.9998ZM12 15.9996C11.2432 15.9257 10.6862 15.2574 10.75 14.4996C10.6862 13.7419 11.2432 13.0735 12 12.9996C12.7568 13.0735 13.3138 13.7419 13.25 14.4996C13.3138 15.2574 12.7568 15.9257 12 15.9996Z" fill="#171E2B"/>
</svg>
