<svg width="24" height="24" viewBox="0 0 24 24" fill="none" xmlns="http://www.w3.org/2000/svg">
<path fill-rule="evenodd" clip-rule="evenodd" d="M6.99998 15.9996C6.4477 15.9996 5.99998 16.4473 5.99998 16.9996C5.99998 17.5519 6.4477 17.9996 6.99998 17.9996C7.55227 17.9996 7.99998 17.5519 7.99998 16.9996C7.99998 16.4473 7.55227 15.9996 6.99998 15.9996ZM19.06 11.9998L20.29 10.7698C21.4598 9.59849 21.4598 7.70103 20.29 6.52976L17.46 3.70976C16.2887 2.53994 14.3913 2.53994 13.22 3.70976L12 4.93976C11.9673 3.30638 10.6337 1.99943 9 1.99976H5C3.34315 1.99976 2 3.3429 2 4.99976V18.9998C2 20.6566 3.34315 21.9998 5 21.9998H19C20.6569 21.9998 22 20.6566 22 18.9998V14.9998C22.0003 13.3661 20.6934 12.0324 19.06 11.9998ZM10 18.9996C10 19.5519 9.5523 19.9996 9.00002 19.9996H5.00002C4.44773 19.9996 4.00002 19.5519 4.00002 18.9996V4.99963C4.00002 4.44735 4.44773 3.99963 5.00002 3.99963H9.00002C9.5523 3.99963 10 4.44735 10 4.99963V18.9996ZM12 7.7596L14.64 5.1196C15.03 4.73187 15.6599 4.73187 16.05 5.1196L18.88 7.9996C19.2677 8.38963 19.2677 9.01956 18.88 9.40959L16 12.2896L12 16.2396V7.7596ZM20 18.9998C20 19.552 19.5523 19.9998 19 19.9998H11.82C11.9226 19.7034 11.9799 19.3932 11.99 19.0798L17.07 13.9998H19C19.5523 13.9998 20 14.4475 20 14.9998V18.9998Z" fill="#171E2B"/>
</svg>
