<svg width="24" height="24" viewBox="0 0 24 24" fill="none" xmlns="http://www.w3.org/2000/svg">
<path fill-rule="evenodd" clip-rule="evenodd" d="M17 9.28003C18.1046 9.28003 19 8.3846 19 7.28003C19 6.17546 18.1046 5.28003 17 5.28003C15.8954 5.28003 15 6.17546 15 7.28003C15 8.3846 15.8954 9.28003 17 9.28003ZM2.71004 13.92C2.90819 13.9834 3.09922 14.0671 3.28004 14.17C4.54633 14.9108 6.11374 14.9108 7.38003 14.17C8.17528 13.7247 9.14479 13.7247 9.94004 14.17L10.15 14.27C11.3821 14.8698 12.831 14.8211 14.02 14.14C14.8153 13.6947 15.7848 13.6947 16.58 14.14C17.2138 14.5022 17.9301 14.6951 18.66 14.7C19.3644 14.6927 20.0543 14.4995 20.66 14.14C20.8409 14.0371 21.0319 13.9534 21.23 13.89C21.6344 13.8622 21.9819 13.5931 22.1101 13.2086C22.2382 12.8241 22.1216 12.4002 21.8148 12.1354C21.508 11.8706 21.0717 11.8171 20.71 12C20.3611 12.1083 20.0256 12.2559 19.71 12.44C19.0603 12.8151 18.2598 12.8151 17.61 12.44C16.2011 11.6452 14.479 11.6452 13.07 12.44C12.976 12.486 12.8791 12.5261 12.78 12.56L14.34 11C14.3758 10.9537 14.406 10.9034 14.43 10.85C14.4753 10.8008 14.5155 10.7472 14.55 10.69C14.5547 10.6268 14.5547 10.5633 14.55 10.5C14.5557 10.4368 14.5557 10.3732 14.55 10.31C14.5548 10.2501 14.5548 10.1899 14.55 10.13C14.5557 10.0668 14.5557 10.0032 14.55 9.94002C14.5204 9.88124 14.487 9.82445 14.45 9.77002C14.4241 9.71242 14.3904 9.6586 14.35 9.61002L11.28 6.28002C11.1993 6.19197 11.1047 6.11766 11 6.06002C10.9303 6.0508 10.8597 6.0508 10.79 6.06002C10.7337 6.05088 10.6763 6.05088 10.62 6.06002C10.4869 6.00646 10.3428 5.98587 10.2 6.00002L6.66004 7.32002C6.14105 7.50798 5.8725 8.08089 6.06004 8.60002C6.24799 9.11901 6.8209 9.38756 7.34004 9.20002L10.27 8.13002L12.27 10.25L10.37 12.15C9.08099 11.6489 7.63526 11.7517 6.43004 12.43C5.78029 12.8051 4.97978 12.8051 4.33004 12.43C4.01445 12.2459 3.67897 12.0983 3.33004 11.99C2.98137 11.8599 2.58931 11.9342 2.3124 12.1828C2.03549 12.4315 1.91954 12.8133 2.01145 13.1739C2.10335 13.5345 2.38791 13.8143 2.75004 13.9L2.71004 13.92ZM20.71 17.0099C20.3611 17.1182 20.0256 17.2658 19.71 17.4499C19.0603 17.825 18.2598 17.825 17.61 17.4499C16.2011 16.6551 14.479 16.6551 13.07 17.4499C12.4146 17.8307 11.6054 17.8307 10.95 17.4499C9.54106 16.6551 7.81898 16.6551 6.41002 17.4499C5.76028 17.825 4.95976 17.825 4.31002 17.4499C3.99444 17.2658 3.65895 17.1182 3.31002 17.0099C2.96135 16.8798 2.56929 16.9541 2.29238 17.2027C2.01547 17.4513 1.89953 17.8332 1.99143 18.1938C2.08334 18.5544 2.36789 18.8341 2.73002 18.9199C2.92817 18.9832 3.1192 19.067 3.30002 19.1699C4.56631 19.9106 6.13373 19.9106 7.40002 19.1699C8.19527 18.7246 9.16477 18.7246 9.96002 19.1699C11.2364 19.8997 12.8037 19.8997 14.08 19.1699C14.8753 18.7246 15.8448 18.7246 16.64 19.1699C17.2738 19.5321 17.9901 19.7249 18.72 19.7299C19.4244 19.7226 20.1143 19.5294 20.72 19.1699C20.9008 19.067 21.0919 18.9832 21.29 18.9199C21.8202 18.7597 22.1202 18.2001 21.96 17.6699C21.7999 17.1397 21.2402 16.8397 20.71 16.9999V17.0099Z" fill="#171E2B"/>
</svg>
