<svg width="24" height="24" viewBox="0 0 24 24" fill="none" xmlns="http://www.w3.org/2000/svg">
<path fill-rule="evenodd" clip-rule="evenodd" d="M13 6.99963H10C9.44771 6.99963 9 7.44735 9 7.99963V15.9996C9 16.5519 9.44771 16.9996 10 16.9996C10.5523 16.9996 11 16.5519 11 15.9996V13.9996H13C14.6568 13.9996 16 12.6565 16 10.9996V9.99963C16 8.34278 14.6568 6.99963 13 6.99963ZM14 10.9999C14 11.5522 13.5523 11.9999 13 11.9999H11V8.99988H13C13.5523 8.99988 14 9.44759 14 9.99988V10.9999ZM12 1.99976C6.47717 1.99976 2.00002 6.47691 2.00002 11.9998C2.00002 17.5226 6.47717 21.9998 12 21.9998C17.5229 21.9998 22 17.5226 22 11.9998C22 9.34759 20.9464 6.80405 19.0711 4.92869C17.1957 3.05332 14.6522 1.99976 12 1.99976ZM12 19.9996C7.58175 19.9996 4.00003 16.4179 4.00003 11.9996C4.00003 7.58135 7.58175 3.99963 12 3.99963C16.4183 3.99963 20 7.58135 20 11.9996C20 14.1214 19.1572 16.1562 17.6569 17.6565C16.1566 19.1568 14.1218 19.9996 12 19.9996Z" fill="#171E2B"/>
</svg>
