<svg width="24" height="24" viewBox="0 0 24 24" fill="none" xmlns="http://www.w3.org/2000/svg">
<path fill-rule="evenodd" clip-rule="evenodd" d="M11.29 15.7098C11.5761 15.9983 12.0083 16.085 12.3835 15.9292C12.7587 15.7734 13.0024 15.4061 13 14.9998C12.9963 14.7351 12.8927 14.4815 12.71 14.2898C12.4224 14.0061 11.9924 13.9233 11.62 14.0798C11.4972 14.1274 11.3851 14.1988 11.29 14.2898C11.1073 14.4815 11.0037 14.7351 11 14.9998C10.9985 15.2657 11.1028 15.5211 11.29 15.7098ZM19.91 15.5098H15.38C14.8277 15.5098 14.38 15.9575 14.38 16.5098C14.38 17.062 14.8277 17.5098 15.38 17.5098H17.78C15.5234 19.868 12.0604 20.6188 9.02978 19.407C5.99911 18.1952 4.00854 15.2637 4 11.9998C4 11.4475 3.55228 10.9998 3 10.9998C2.44772 10.9998 2 11.4475 2 11.9998C2.01081 15.991 4.39389 19.5935 8.06274 21.165C11.7316 22.7364 15.9835 21.9757 18.88 19.2298V20.9998C18.88 21.552 19.3277 21.9998 19.88 21.9998C20.4323 21.9998 20.88 21.552 20.88 20.9998V16.4998C20.8749 15.9629 20.4467 15.5258 19.91 15.5098ZM12 1.99976C9.43637 2.00707 6.97347 2.99867 5.11998 4.76976V2.99976C5.11998 2.44747 4.67227 1.99976 4.11998 1.99976C3.5677 1.99976 3.11998 2.44747 3.11998 2.99976V7.49976C3.11998 8.05204 3.5677 8.49976 4.11998 8.49976H8.61998C9.17227 8.49976 9.61999 8.05204 9.61999 7.49976C9.61999 6.94747 9.17227 6.49976 8.61998 6.49976H6.21999C8.47532 4.14282 11.9358 3.39136 14.9656 4.60062C17.9953 5.80988 19.9874 8.73762 20 11.9998C20 12.552 20.4477 12.9998 21 12.9998C21.5523 12.9998 22 12.552 22 11.9998C22 9.34759 20.9464 6.80405 19.0711 4.92869C17.1957 3.05332 14.6522 1.99976 12 1.99976ZM12 12.9998C12.5523 12.9998 13 12.552 13 11.9998V8.99976C13 8.44747 12.5523 7.99976 12 7.99976C11.4477 7.99976 11 8.44747 11 8.99976V11.9998C11 12.552 11.4477 12.9998 12 12.9998Z" fill="#171E2B"/>
</svg>
