<svg width="24" height="24" viewBox="0 0 24 24" fill="none" xmlns="http://www.w3.org/2000/svg">
<path fill-rule="evenodd" clip-rule="evenodd" d="M19.88 15.5003H15.38C14.8277 15.5003 14.38 15.948 14.38 16.5003C14.38 17.0526 14.8277 17.5003 15.38 17.5003H17.78C16.2762 19.0888 14.1874 19.9923 12 20.0003C10.9285 19.9993 9.86795 19.7851 8.88001 19.3703L7.39001 20.8603C8.81042 21.6114 10.3933 22.0028 12 22.0003C14.5636 21.993 17.0265 21.0014 18.88 19.2303V21.0003C18.88 21.5526 19.3277 22.0003 19.88 22.0003C20.4323 22.0003 20.88 21.5526 20.88 21.0003V16.5003C20.88 15.948 20.4323 15.5003 19.88 15.5003ZM18.31 7.10017L19.74 5.67017L21.74 3.67017C21.9937 3.41651 22.0927 3.0468 21.9999 2.70029C21.907 2.35379 21.6364 2.08314 21.2899 1.99029C20.9434 1.89745 20.5737 1.99651 20.32 2.25017L18.32 4.25017C16.5398 2.78676 14.3045 1.99095 12 2.00017C9.4364 2.00748 6.9735 2.99908 5.12001 4.77017V3.00017C5.12001 2.44788 4.6723 2.00017 4.12001 2.00017C3.56773 2.00017 3.12001 2.44788 3.12001 3.00017V7.50017C3.12001 8.05245 3.56773 8.50017 4.12001 8.50017H8.62001C9.1723 8.50017 9.62001 8.05245 9.62001 7.50017C9.62001 6.94788 9.1723 6.50017 8.62001 6.50017H6.22001C9.03112 3.50958 13.6597 3.15821 16.89 5.69017L5.69001 16.8902C4.59583 15.4949 4.00082 13.7733 4.00001 12.0002C4.00001 11.4479 3.5523 11.0002 3.00001 11.0002C2.44773 11.0002 2.00001 11.4479 2.00001 12.0002C1.99642 14.3071 2.7994 16.5427 4.27001 18.3202L2.27001 20.3202C2.0807 20.5079 1.97421 20.7635 1.97421 21.0302C1.97421 21.2968 2.0807 21.5524 2.27001 21.7402C2.45778 21.9295 2.71337 22.036 2.98001 22.036C3.24665 22.036 3.50224 21.9295 3.69001 21.7402L5.69001 19.7402L7.12001 18.3102L18.31 7.10017ZM19.37 8.88021C19.7848 9.86815 19.999 10.9287 20 12.0002C20 12.5525 20.4477 13.0002 21 13.0002C21.5523 13.0002 22 12.5525 22 12.0002C22.0025 10.3935 21.6111 8.81062 20.86 7.39021L19.37 8.88021Z" fill="#171E2B"/>
</svg>
