<svg width="24" height="24" viewBox="0 0 24 24" fill="none" xmlns="http://www.w3.org/2000/svg">
<path fill-rule="evenodd" clip-rule="evenodd" d="M21.71 2.29018C21.5222 2.10087 21.2666 1.99438 21 1.99438C20.7334 1.99438 20.4778 2.10087 20.29 2.29018L18.17 4.41018L17.46 3.71018C17.07 3.32246 16.44 3.32246 16.05 3.71018L14.64 5.12018L13.93 4.41018C13.7422 4.22087 13.4866 4.11438 13.22 4.11438C12.9534 4.11438 12.6978 4.22087 12.51 4.41018L4.74 12.1902L4 11.4902C3.59917 11.2101 3.05454 11.2609 2.71249 11.6104C2.37044 11.9599 2.33132 12.5055 2.62 12.9002L6.15 16.4402L4.42 18.1802L3.71 17.4602C3.31788 17.0681 2.68212 17.0681 2.29 17.4602C1.89788 17.8523 1.89788 18.4881 2.29 18.8802L5.12 21.7102C5.30872 21.8974 5.5642 22.0017 5.83 22.0002C6.09581 22.0017 6.35128 21.8974 6.54 21.7102C6.72931 21.5224 6.8358 21.2668 6.8358 21.0002C6.8358 20.7335 6.72931 20.4779 6.54 20.2902L5.83 19.5902L7.57 17.8502L11.1 21.3802C11.2871 21.571 11.5428 21.6791 11.81 21.6802C12.2144 21.6785 12.578 21.4333 12.7313 21.059C12.8845 20.6847 12.7972 20.255 12.51 19.9702L11.81 19.2602L19.59 11.4902C19.7793 11.3024 19.8858 11.0468 19.8858 10.7802C19.8858 10.5135 19.7793 10.2579 19.59 10.0702L18.88 9.36018L20.29 8.00018C20.6777 7.61015 20.6777 6.98022 20.29 6.59018L19.59 5.88018L21.71 3.76018C21.9152 3.57087 22.0319 3.30438 22.0319 3.02518C22.0319 2.74598 21.9152 2.4795 21.71 2.29018ZM7.57 15.0002L6.15 13.6102L7.56 12.1902L9 13.6102L7.57 15.0002ZM10.39 17.8301L9 16.4401L10.39 15.0001L11.81 16.4201L10.39 17.8301ZM13.22 15.0001L9 10.7801L13.24 6.54011L13.95 7.24011L17.48 10.7801L13.22 15.0001ZM17.46 8.00024L16.05 6.54024L16.76 5.83024L17.46 6.53024L18.16 7.23024L17.46 8.00024Z" fill="#171E2B"/>
</svg>
