<svg width="24" height="24" viewBox="0 0 24 24" fill="none" xmlns="http://www.w3.org/2000/svg">
<path fill-rule="evenodd" clip-rule="evenodd" d="M21 1.99976H3C2.44772 1.99976 2 2.44747 2 2.99976V20.9998C2 21.552 2.44772 21.9998 3 21.9998H21C21.5523 21.9998 22 21.552 22 20.9998V2.99976C22 2.44747 21.5523 1.99976 21 1.99976ZM8 19.9996H4V15.9996H8V19.9996ZM8 13.9996H4V9.99963H8V13.9996ZM8 7.99963H4V3.99963H8V7.99963ZM14 19.9996H10V15.9996H14V19.9996ZM14 13.9996H10V9.99963H14V13.9996ZM14 7.99963H10V3.99963H14V7.99963ZM20 19.9996H16V15.9996H20V19.9996ZM20 13.9996H16V9.99963H20V13.9996ZM20 7.99963H16V3.99963H20V7.99963Z" fill="#171E2B"/>
</svg>
