<svg width="24" height="24" viewBox="0 0 24 24" fill="none" xmlns="http://www.w3.org/2000/svg">
<path fill-rule="evenodd" clip-rule="evenodd" d="M20.54 3.45976C18.5861 1.51077 15.4226 1.51343 13.4719 3.46571C11.5213 5.41799 11.5213 8.58152 13.4719 10.5338C15.4226 12.4861 18.5861 12.4887 20.54 10.5398C21.4805 9.60171 22.009 8.32803 22.009 6.99975C22.009 5.67148 21.4805 4.3978 20.54 3.45976ZM14.88 4.87963C15.4421 4.31686 16.2047 4.00033 17 3.99963C17.4436 4.00376 17.8808 4.10622 18.28 4.29963L14.28 8.29963C13.733 7.14796 13.9736 5.7763 14.88 4.87963ZM19.12 9.11988C18.2222 10.0105 16.8623 10.2425 15.72 9.69988L19.72 5.69988C20.2671 6.85155 20.0265 8.22321 19.12 9.11988ZM8.00003 9.99986C6.42244 9.99356 4.90737 10.6161 3.79003 11.7299C2.0586 13.439 1.53068 16.0245 2.45348 18.2757C3.37629 20.5268 5.56712 21.9978 8.00003 21.9999C9.54207 21.9991 11.0246 21.4046 12.14 20.3399L12.26 20.2599C12.2811 20.2218 12.3044 20.185 12.33 20.1499C13.9918 18.4147 14.4583 15.8554 13.5155 13.6455C12.5728 11.4356 10.4026 10.0012 8.00003 9.99986ZM5.17003 18.8298C3.89755 17.5431 3.6474 15.5624 4.56003 13.9998L10 19.4398C8.4374 20.3524 6.45669 20.1022 5.17003 18.8298ZM11.44 17.9999L6.00003 12.5599C6.60576 12.2004 7.29568 12.0072 8.00003 11.9999C9.42478 12.0085 10.7374 12.7742 11.4461 14.0103C12.1548 15.2463 12.1524 16.766 11.44 17.9999Z" fill="#171E2B"/>
</svg>
