<svg width="24" height="24" viewBox="0 0 24 24" fill="none" xmlns="http://www.w3.org/2000/svg">
<path fill-rule="evenodd" clip-rule="evenodd" d="M17 1.99976H7C5.34315 1.99976 4 3.3429 4 4.99976V18.9998C4 20.6566 5.34315 21.9998 7 21.9998H17C18.6569 21.9998 20 20.6566 20 18.9998V4.99976C20 3.3429 18.6569 1.99976 17 1.99976ZM18 18.9996C18 19.5519 17.5523 19.9996 17 19.9996H6.99999C6.44771 19.9996 5.99999 19.5519 5.99999 18.9996V4.99963C5.99999 4.44735 6.44771 3.99963 6.99999 3.99963H17C17.5523 3.99963 18 4.44735 18 4.99963V18.9996ZM12.71 16.2898C12.4754 16.0451 12.1329 15.936 11.8 15.9998L11.62 16.0598C11.5563 16.0816 11.4957 16.1119 11.44 16.1498L11.29 16.2698C11.199 16.3649 11.1276 16.477 11.08 16.5998C10.9234 16.9722 11.0063 17.4022 11.29 17.6898C11.3895 17.7778 11.5005 17.8518 11.62 17.9098C11.9944 18.0638 12.4247 17.977 12.71 17.6898C12.8923 17.506 12.9963 17.2586 13 16.9998C13.0034 16.8686 12.976 16.7384 12.92 16.6198C12.8694 16.4986 12.7983 16.387 12.71 16.2898Z" fill="#171E2B"/>
</svg>
