<svg width="24" height="24" viewBox="0 0 24 24" fill="none" xmlns="http://www.w3.org/2000/svg">
<path fill-rule="evenodd" clip-rule="evenodd" d="M15.29 10.2903L12.51 13.0703C12.3436 13.026 12.1723 13.0025 12 13.0003C10.8955 13.0003 10 13.8957 10 15.0003C10.0023 15.1725 10.0258 15.3438 10.07 15.5103L9.29003 16.2903C9.10072 16.478 8.99423 16.7336 8.99423 17.0003C8.99423 17.2669 9.10072 17.5225 9.29003 17.7103C9.4778 17.8996 9.73339 18.0061 10 18.0061C10.2667 18.0061 10.5223 17.8996 10.71 17.7103L11.49 16.9303C11.6565 16.9745 11.8278 16.998 12 17.0003C13.1046 17.0003 14 16.1048 14 15.0003C13.9978 14.828 13.9743 14.6567 13.93 14.4903L16.71 11.7103C17.1022 11.3182 17.1022 10.6824 16.71 10.2903C16.3179 9.89815 15.6822 9.89815 15.29 10.2903ZM12 4.00024C6.47718 4.00024 2.00003 8.4774 2.00003 14.0002C1.99511 15.9808 2.58375 17.9174 3.69003 19.5602C3.99931 20.0186 4.62163 20.1395 5.08003 19.8302C5.53843 19.521 5.65931 18.8986 5.35003 18.4402C3.11785 15.1024 3.70584 10.627 6.72447 7.97903C9.7431 5.33106 14.257 5.33106 17.2756 7.97903C20.2942 10.627 20.8822 15.1024 18.65 18.4402C18.5012 18.6603 18.446 18.9305 18.4966 19.1913C18.5473 19.452 18.6996 19.6819 18.92 19.8302C19.0856 19.9415 19.2806 20.0007 19.48 20.0002C19.8127 20.0007 20.1238 19.8358 20.31 19.5602C21.4163 17.9174 22.005 15.9808 22 14.0002C22 11.3481 20.9465 8.80454 19.0711 6.92918C17.1957 5.05381 14.6522 4.00024 12 4.00024Z" fill="#171E2B"/>
</svg>
