<svg width="24" height="24" viewBox="0 0 24 24" fill="none" xmlns="http://www.w3.org/2000/svg">
<path fill-rule="evenodd" clip-rule="evenodd" d="M21.12 10.7098L12.71 2.28977C12.5213 2.10259 12.2658 1.99824 12 1.99977H3.00001C2.44772 1.99977 2.00001 2.44749 2.00001 2.99977V11.9998C1.99847 12.2656 2.10282 12.5211 2.29001 12.7098L10.71 21.1198C11.8813 22.2896 13.7787 22.2896 14.95 21.1198L21.12 14.9998C22.2898 13.8285 22.2898 11.931 21.12 10.7598V10.7098ZM19.71 13.5297L13.53 19.6997C13.14 20.0874 12.5101 20.0874 12.12 19.6997L4.00003 11.5897V3.9997H11.59L19.71 12.1197C19.8972 12.3084 20.0016 12.5639 20 12.8297C19.9989 13.092 19.8948 13.3434 19.71 13.5297Z" fill="#171E2B"/>
</svg>
