<svg width="24" height="24" viewBox="0 0 24 24" fill="none" xmlns="http://www.w3.org/2000/svg">
<path fill-rule="evenodd" clip-rule="evenodd" d="M14.5 7.00012C12.2909 7.00012 10.5 8.79098 10.5 11.0001C10.5 13.2093 12.2909 15.0001 14.5 15.0001C16.7091 15.0001 18.5 13.2093 18.5 11.0001C18.5 9.93926 18.0786 8.92184 17.3284 8.1717C16.5783 7.42155 15.5609 7.00012 14.5 7.00012ZM14.5 13C13.3954 13 12.5 12.1046 12.5 11C12.5 9.89543 13.3954 9 14.5 9C15.6046 9 16.5 9.89543 16.5 11C16.5 12.1046 15.6046 13 14.5 13ZM15.5 3H13.5C9.63401 3 6.5 6.13401 6.5 10V13H5.5C4.94772 13 4.5 13.4477 4.5 14C4.5 14.5523 4.94772 15 5.5 15H6.5V17H2.5C1.94772 17 1.5 17.4477 1.5 18V20C1.5 20.5523 1.94772 21 2.5 21C3.05228 21 3.5 20.5523 3.5 20V19H15.5C19.366 19 22.5 15.866 22.5 12V10C22.5 6.13401 19.366 3 15.5 3ZM20.5 11.9999C20.5 13.326 19.9732 14.5977 19.0355 15.5354C18.0978 16.4731 16.8261 16.9999 15.5 16.9999H8.49998V9.99988C8.49998 7.23845 10.7386 4.99988 13.5 4.99988H15.5C16.8261 4.99988 18.0978 5.52666 19.0355 6.46434C19.9732 7.40202 20.5 8.67379 20.5 9.99988V11.9999Z" fill="#171E2B"/>
</svg>
