<svg width="24" height="24" viewBox="0 0 24 24" fill="none" xmlns="http://www.w3.org/2000/svg">
<path fill-rule="evenodd" clip-rule="evenodd" d="M17.38 14.58C17.1969 14.5028 16.995 14.4819 16.8 14.52C16.7374 14.531 16.6767 14.5512 16.62 14.58C16.5563 14.6019 16.4958 14.6322 16.44 14.67L16.29 14.79C16.1073 14.9816 16.0037 15.2352 16 15.5C15.9985 15.7658 16.1028 16.0213 16.29 16.21C16.3869 16.3013 16.4985 16.3757 16.62 16.43C16.9944 16.5841 17.4247 16.4972 17.71 16.21C17.7983 16.1128 17.8694 16.0012 17.92 15.88C17.976 15.7613 18.0034 15.6312 18 15.5C17.9963 15.2352 17.8927 14.9816 17.71 14.79C17.6161 14.6974 17.5037 14.6258 17.38 14.58ZM20 10.68V7.50002C20 5.84316 18.6569 4.50002 17 4.50002H16.22L15.45 2.18002C15.3124 1.77271 14.9299 1.49891 14.5 1.50002H9.5C9.07008 1.49891 8.68757 1.77271 8.55 2.18002L7.78 4.50002H7C5.34315 4.50002 4 5.84316 4 7.50002V10.68C2.80427 11.1028 2.00356 12.2318 2 13.5V19.5C2 20.0523 2.44772 20.5 3 20.5H4V21.5C4 22.0523 4.44772 22.5 5 22.5C5.55228 22.5 6 22.0523 6 21.5V20.5H18V21.5C18 22.0523 18.4477 22.5 19 22.5C19.5523 22.5 20 22.0523 20 21.5V20.5H21C21.5523 20.5 22 20.0523 22 19.5V13.5C21.9964 12.2318 21.1957 11.1028 20 10.68ZM10.22 3.4999H13.78L14.11 4.49991H9.89L10.22 3.4999ZM5.99998 7.4999C5.99998 6.94762 6.4477 6.4999 6.99998 6.4999H17C17.5523 6.4999 18 6.94762 18 7.4999V10.4999H5.99998V7.4999ZM20 18.4999H4.00002V13.4999C4.00002 12.9476 4.44773 12.4999 5.00001 12.4999H19C19.5523 12.4999 20 12.9476 20 13.4999V18.4999ZM6.61999 14.5799C6.49724 14.6275 6.3851 14.6988 6.28999 14.7899C6.10726 14.9815 6.00367 15.2351 5.99999 15.4999C5.99831 15.8342 6.16385 16.1473 6.44113 16.3342C6.7184 16.521 7.07072 16.5569 7.37999 16.4299C7.50152 16.3755 7.61307 16.3012 7.70999 16.2099C7.89718 16.0212 8.00153 15.7657 7.99999 15.4999C7.99631 15.2351 7.89273 14.9815 7.70999 14.7899C7.42243 14.5061 6.99239 14.4233 6.61999 14.5799ZM13 14.5002H11C10.4477 14.5002 9.99999 14.9479 9.99999 15.5002C9.99999 16.0524 10.4477 16.5002 11 16.5002H13C13.5523 16.5002 14 16.0524 14 15.5002C14 14.9479 13.5523 14.5002 13 14.5002Z" fill="#171E2B"/>
</svg>
