<svg width="24" height="24" viewBox="0 0 24 24" fill="none" xmlns="http://www.w3.org/2000/svg">
<path fill-rule="evenodd" clip-rule="evenodd" d="M12.56 2.17004C12.2217 1.94137 11.7783 1.94137 11.44 2.17004C11.14 2.37004 4.25 7.17004 4.25 14.25C4.25 18.5303 7.71979 22 12 22C16.2802 22 19.75 18.5303 19.75 14.25C19.75 7.05004 12.85 2.36004 12.56 2.17004ZM12 20C8.82664 19.9945 6.2555 17.4233 6.24999 14.25C6.24999 9.24999 10.46 5.47999 12 4.24999C13.55 5.45999 17.75 9.24999 17.75 14.25C17.7445 17.4233 15.1733 19.9945 12 20Z" fill="#171E2B"/>
</svg>
