<svg width="24" height="24" viewBox="0 0 24 24" fill="none" xmlns="http://www.w3.org/2000/svg">
<path fill-rule="evenodd" clip-rule="evenodd" d="M21 17.9998H14.82C14.5176 17.1504 13.8493 16.4821 13 16.1798V12.9998H20C20.5523 12.9998 21 12.552 21 11.9998C21 11.4475 20.5523 10.9998 20 10.9998H19V4.99976C19 3.3429 17.6569 1.99976 16 1.99976H8C6.34315 1.99976 5 3.3429 5 4.99976V10.9998H4C3.44772 10.9998 3 11.4475 3 11.9998C3 12.552 3.44772 12.9998 4 12.9998H11V16.1798C10.1507 16.4821 9.48238 17.1504 9.18 17.9998H3C2.44772 17.9998 2 18.4475 2 18.9998C2 19.552 2.44772 19.9998 3 19.9998H9.18C9.61062 21.1862 10.7378 21.9762 12 21.9762C13.2622 21.9762 14.3894 21.1862 14.82 19.9998H21C21.5523 19.9998 22 19.552 22 18.9998C22 18.4475 21.5523 17.9998 21 17.9998ZM7 10.9996V4.99963C7 4.44735 7.44772 3.99963 8 3.99963H16C16.5523 3.99963 17 4.44735 17 4.99963V10.9996H7ZM12 19.9999C11.4477 19.9999 11 19.5522 11 18.9999C11 18.4476 11.4477 17.9999 12 17.9999C12.5523 17.9999 13 18.4476 13 18.9999C13 19.5522 12.5523 19.9999 12 19.9999Z" fill="#171E2B"/>
</svg>
