<svg width="24" height="24" viewBox="0 0 24 24" fill="none" xmlns="http://www.w3.org/2000/svg">
<path fill-rule="evenodd" clip-rule="evenodd" d="M21.9 7.58998L20.9 3.71998C20.6943 2.94367 20.1858 2.28226 19.4885 1.8838C18.7912 1.48535 17.9633 1.38311 17.19 1.59998L15.26 2.11998C15.0021 2.18793 14.7821 2.35608 14.6487 2.58705C14.5154 2.81802 14.4799 3.09268 14.55 3.34998L14.81 4.34998L4.19 7.15998C3.65773 7.3017 3.34028 7.84718 3.48 8.37998L3.74 9.37998L2.74 9.63998C2.18772 9.70902 1.79597 10.2127 1.86501 10.765C1.93404 11.3173 2.43772 11.709 2.99 11.64C3.07636 11.6504 3.16365 11.6504 3.25 11.64L4.25 11.37L4.51 12.37C4.57891 12.6225 4.74406 12.8379 4.97 12.97C5.12144 13.0599 5.29392 13.1082 5.47 13.11C5.55601 13.1251 5.644 13.1251 5.73 13.11L9 12.08V12.5C9.0007 12.944 9.10333 13.3819 9.3 13.78L4.3 18.78C3.90788 19.1693 3.90564 19.8029 4.295 20.195C4.68437 20.5871 5.31788 20.5893 5.71 20.2L10.71 15.2L10.99 15.31V21.5C10.99 22.0523 11.4377 22.5 11.99 22.5C12.5423 22.5 12.99 22.0523 12.99 21.5V15.32C13.0891 15.286 13.1859 15.246 13.28 15.2L18.28 20.2C18.5337 20.4519 18.9024 20.5493 19.2474 20.4555C19.5923 20.3618 19.8611 20.0911 19.9524 19.7455C20.0437 19.3999 19.9437 19.0319 19.69 18.78L14.69 13.78C14.8841 13.3806 14.9899 12.944 15 12.5V10.5L16.35 10.14L16.6 11.14C16.7207 11.5892 17.1351 11.8959 17.6 11.88H17.86L19.79 11.36C20.5782 11.1531 21.2483 10.6345 21.6463 9.92344C22.0443 9.21236 22.1358 8.36998 21.9 7.58998ZM13 12.5001C12.999 12.7576 12.8987 13.0048 12.72 13.1901C12.5346 13.3688 12.2875 13.4691 12.03 13.4701C11.7677 13.469 11.5163 13.3649 11.33 13.1801C11.1453 12.9939 11.0411 12.7425 11.04 12.4801V11.4801L13 11.0001V12.5001ZM6.19 10.7599L5.67 8.8299L15.33 6.2399L15.59 7.2399L15.85 8.2399L6.19 10.7599ZM19.87 8.85998C19.7376 9.0918 19.5179 9.26103 19.26 9.32998L18.26 9.58998L17.48 6.68998L17 4.75998L16.74 3.75999L17.74 3.49999C17.9973 3.42984 18.272 3.46539 18.5029 3.59871C18.7339 3.73204 18.9021 3.9521 18.97 4.20999L19.97 8.07998C20.0446 8.34273 20.0085 8.62455 19.87 8.85998Z" fill="#171E2B"/>
</svg>
