<svg width="24" height="24" viewBox="0 0 24 24" fill="none" xmlns="http://www.w3.org/2000/svg">
<path fill-rule="evenodd" clip-rule="evenodd" d="M12 15.0001C10.8954 15.0001 10 15.8955 10 17.0001C10 18.1047 10.8954 19.0001 12 19.0001C13.1046 19.0001 14 18.1047 14 17.0001C14 15.8955 13.1046 15.0001 12 15.0001ZM16.5 13.0002V5.50024C16.5 3.01496 14.4853 1.00024 12 1.00024C9.51473 1.00024 7.50001 3.01496 7.50001 5.50024V13.0002C6.09372 14.5938 5.63541 16.8124 6.29516 18.8328C6.95491 20.8532 8.63426 22.3737 10.71 22.8302C11.1338 22.9268 11.5657 22.9837 12 23.0002C14.3712 23.0113 16.5264 21.6248 17.4995 19.4625C18.4725 17.3002 18.0808 14.7676 16.5 13.0002ZM14.5 20.0701C12.8431 21.5392 10.3091 21.387 8.84 19.7301C7.37093 18.0733 7.52315 15.5392 9.18 14.0701C9.37086 13.883 9.47889 13.6274 9.48 13.3601V5.50012C9.48 4.11941 10.5993 3.00012 11.98 3.00012C13.3607 3.00012 14.48 4.11941 14.48 5.50012V13.4401C14.4811 13.7074 14.5891 13.963 14.78 14.1501C15.6069 14.9489 16.0501 16.0649 15.9965 17.2134C15.9429 18.3619 15.3977 19.4318 14.5 20.1501V20.0701Z" fill="#171E2B"/>
</svg>
