<svg width="24" height="24" viewBox="0 0 24 24" fill="none" xmlns="http://www.w3.org/2000/svg">
<path fill-rule="evenodd" clip-rule="evenodd" d="M16.5 13.0002V5.50024C16.5 3.01496 14.4853 1.00024 12 1.00024C9.5147 1.00024 7.49998 3.01496 7.49998 5.50024V13.0002C6.09369 14.5938 5.63538 16.8124 6.29513 18.8328C6.95488 20.8532 8.63423 22.3737 10.71 22.8302C11.1338 22.9268 11.5656 22.9837 12 23.0002C14.3711 23.0113 16.5264 21.6248 17.4994 19.4625C18.4725 17.3002 18.0808 14.7676 16.5 13.0002ZM14.5 20.0701C12.8431 21.5392 10.3091 21.387 8.84 19.7301C7.37092 18.0733 7.52314 15.5392 9.18 14.0701C9.37085 13.883 9.47889 13.6274 9.48 13.3601V5.50012C9.48 4.11941 10.5993 3.00012 11.98 3.00012C13.3607 3.00012 14.48 4.11941 14.48 5.50012V13.4401C14.4811 13.7074 14.5891 13.963 14.78 14.1501C15.6069 14.9489 16.0501 16.0649 15.9965 17.2134C15.9429 18.3619 15.3977 19.4318 14.5 20.1501V20.0701ZM13 15.2802V12.5002C13 11.948 12.5523 11.5002 12 11.5002C11.4477 11.5002 11 11.948 11 12.5002V15.2802C10.3849 15.6353 10.0043 16.29 9.99997 17.0002C9.99997 18.1048 10.8954 19.0002 12 19.0002C13.1045 19.0002 14 18.1048 14 17.0002C13.9957 16.29 13.6151 15.6353 13 15.2802Z" fill="#171E2B"/>
</svg>
