<svg width="24" height="24" viewBox="0 0 24 24" fill="none" xmlns="http://www.w3.org/2000/svg">
<path fill-rule="evenodd" clip-rule="evenodd" d="M13 15.2804V10.5004C13 9.94808 12.5523 9.50037 12 9.50037C11.4477 9.50037 11 9.94808 11 10.5004V15.2804C10.3849 15.6355 10.0043 16.2901 10 17.0004C10 18.1049 10.8954 19.0004 12 19.0004C13.1046 19.0004 14 18.1049 14 17.0004C13.9957 16.2901 13.6151 15.6355 13 15.2804ZM16.5 13.0002V5.50024C16.5 3.01496 14.4853 1.00024 12 1.00024C9.51473 1.00024 7.50001 3.01496 7.50001 5.50024V13.0002C6.09372 14.5938 5.63541 16.8124 6.29516 18.8328C6.95491 20.8532 8.63426 22.3737 10.71 22.8302C11.1338 22.9268 11.5657 22.9837 12 23.0002C14.3712 23.0113 16.5264 21.6248 17.4995 19.4625C18.4725 17.3002 18.0808 14.7676 16.5 13.0002ZM14.5 20.0701C12.8432 21.5392 10.3091 21.387 8.84003 19.7301C7.37095 18.0733 7.52317 15.5392 9.18003 14.0701C9.37088 13.883 9.47892 13.6274 9.48003 13.3601V5.50012C9.48003 4.11941 10.5993 3.00012 11.98 3.00012C13.3607 3.00012 14.48 4.11941 14.48 5.50012V13.4401C14.4811 13.7074 14.5892 13.963 14.78 14.1501C15.6069 14.9489 16.0501 16.0649 15.9965 17.2134C15.9429 18.3619 15.3977 19.4318 14.5 20.1501V20.0701Z" fill="#171E2B"/>
</svg>
