<svg width="24" height="24" viewBox="0 0 24 24" fill="none" xmlns="http://www.w3.org/2000/svg">
<path fill-rule="evenodd" clip-rule="evenodd" d="M10.5 15.2801V5.50012C10.5 4.94784 10.0523 4.50012 9.5 4.50012C8.94772 4.50012 8.5 4.94784 8.5 5.50012V15.2801C7.88491 15.6352 7.50429 16.2899 7.5 17.0001C7.5 18.1047 8.39543 19.0001 9.5 19.0001C10.6046 19.0001 11.5 18.1047 11.5 17.0001C11.4957 16.2899 11.1151 15.6352 10.5 15.2801ZM19.5 2.50024H19V2.00024C19 1.44796 18.5523 1.00024 18 1.00024C17.4477 1.00024 17 1.44796 17 2.00024V2.50024H16.5C15.9477 2.50024 15.5 2.94796 15.5 3.50024C15.5 4.05253 15.9477 4.50024 16.5 4.50024H17V5.00024C17 5.55253 17.4477 6.00024 18 6.00024C18.5523 6.00024 19 5.55253 19 5.00024V4.50024H19.5C20.0523 4.50024 20.5 4.05253 20.5 3.50024C20.5 2.94796 20.0523 2.50024 19.5 2.50024ZM14 5.50024C14 3.01496 11.9853 1.00024 9.50001 1.00024C7.01473 1.00024 5.00001 3.01496 5.00001 5.50024V13.0002C3.59372 14.5938 3.13541 16.8124 3.79516 18.8328C4.45491 20.8532 6.13426 22.3737 8.21001 22.8302C8.63053 22.9262 9.05901 22.9831 9.49001 23.0002C11.863 23.0153 14.0219 21.6303 14.9975 19.4671C15.9731 17.3039 15.5821 14.7689 14 13.0002V5.50024ZM12 20.1101C10.9292 20.9807 9.48537 21.2379 8.17989 20.7905C6.87442 20.3431 5.89174 19.2544 5.57999 17.9101C5.2658 16.5507 5.68265 15.1258 6.67999 14.1501C6.87084 13.963 6.97888 13.7074 6.97999 13.4401V5.50012C6.97999 4.11941 8.09928 3.00012 9.47999 3.00012C10.8607 3.00012 11.98 4.11941 11.98 5.50012V13.4401C11.9811 13.7074 12.0891 13.963 12.28 14.1501C13.1069 14.9489 13.5501 16.0649 13.4965 17.2134C13.4429 18.3619 12.8977 19.4318 12 20.1501V20.1101Z" fill="#171E2B"/>
</svg>
