<svg width="24" height="24" viewBox="0 0 24 24" fill="none" xmlns="http://www.w3.org/2000/svg">
<path fill-rule="evenodd" clip-rule="evenodd" d="M3 6.99975H21C21.5523 6.99975 22 6.55204 22 5.99976C22 5.44747 21.5523 4.99976 21 4.99976H3C2.44772 4.99976 2 5.44747 2 5.99976C2 6.55204 2.44772 6.99975 3 6.99975ZM9 14.9999H3C2.44772 14.9999 2 15.4476 2 15.9999C2 16.5522 2.44772 16.9999 3 16.9999H9C9.55228 16.9999 10 16.5522 10 15.9999C10 15.4476 9.55228 14.9999 9 14.9999ZM18.5 9.99963H3C2.44772 9.99963 2 10.4473 2 10.9996C2 11.5519 2.44772 11.9996 3 11.9996H18.5C19.3284 11.9996 20 12.6712 20 13.4996C20 14.3281 19.3284 14.9996 18.5 14.9996H15.41L15.71 14.7096C16.1021 14.3175 16.1021 13.6818 15.71 13.2896C15.3179 12.8975 14.6821 12.8975 14.29 13.2896L12.29 15.2896C12.199 15.3847 12.1276 15.4969 12.08 15.6196C11.98 15.8631 11.98 16.1362 12.08 16.3796C12.1276 16.5024 12.199 16.6145 12.29 16.7096L14.29 18.7096C14.4778 18.8989 14.7334 19.0054 15 19.0054C15.2666 19.0054 15.5222 18.8989 15.71 18.7096C15.8993 18.5219 16.0058 18.2663 16.0058 17.9996C16.0058 17.733 15.8993 17.4774 15.71 17.2896L15.41 16.9996H18.5C20.433 16.9996 22 15.4326 22 13.4996C22 11.5666 20.433 9.99963 18.5 9.99963Z" fill="#171E2B"/>
</svg>
