<svg width="24" height="24" viewBox="0 0 24 24" fill="none" xmlns="http://www.w3.org/2000/svg">
<path fill-rule="evenodd" clip-rule="evenodd" d="M22.71 21.2902L21.71 20.2902L15.71 14.2902L9.71 8.29019L3.71 2.29019L2.71 1.29019C2.31788 0.898063 1.68212 0.898063 1.29 1.29019C0.89788 1.68231 0.89788 2.31806 1.29 2.71019L2 3.41019V21.0002C2 21.5525 2.44772 22.0002 3 22.0002H20.59L21.29 22.7102C21.4778 22.8995 21.7334 23.006 22 23.006C22.2666 23.006 22.5222 22.8995 22.71 22.7102C22.8993 22.5224 23.0058 22.2668 23.0058 22.0002C23.0058 21.7335 22.8993 21.478 22.71 21.2902ZM4.00001 5.41015L6.59001 8.00015H4.00001V5.41015ZM8.00001 20.0002H4.00001V16.0002H8.00001V20.0002ZM8.00001 14.0002H4.00001V10.0002H8.00001V14.0002ZM10 11.4102L12.59 14.0002H10V11.4102ZM14 20.0002H10V16.0002H14V20.0002ZM16 20.0002V17.4102L18.59 20.0002H16ZM8.67002 4.00028H14V9.00027C14 9.55256 14.4477 10.0003 15 10.0003H20V15.3303C20 15.8826 20.4477 16.3303 21 16.3303C21.5523 16.3303 22 15.8826 22 15.3303V3.00028C22 2.44799 21.5523 2.00028 21 2.00028H8.67002C8.11773 2.00028 7.67002 2.44799 7.67002 3.00028C7.67002 3.55256 8.11773 4.00028 8.67002 4.00028ZM16 4.00015H20V8.00015H16V4.00015Z" fill="#171E2B"/>
</svg>
