<svg width="24" height="24" viewBox="0 0 24 24" fill="none" xmlns="http://www.w3.org/2000/svg">
<path fill-rule="evenodd" clip-rule="evenodd" d="M16.29 6.29003L9.29001 13.29C9.1007 13.4778 8.99421 13.7334 8.99421 14C8.99421 14.2667 9.1007 14.5223 9.29001 14.71C9.47777 14.8993 9.73337 15.0058 10 15.0058C10.2666 15.0058 10.5222 14.8993 10.71 14.71L17.71 7.71003C18.1021 7.31791 18.1021 6.68216 17.71 6.29003C17.3179 5.89791 16.6821 5.89791 16.29 6.29003ZM20.54 3.46015C19.602 2.51973 18.3283 1.99121 17 1.99121C15.6717 1.99121 14.398 2.51973 13.46 3.46015L5.29 11.6901C5.10526 11.8764 5.0011 12.1278 5 12.3901V17.5802L2.29 20.2901C2.10069 20.4779 1.9942 20.7335 1.9942 21.0002C1.9942 21.2668 2.10069 21.5224 2.29 21.7101C2.47777 21.8995 2.73336 22.0059 3 22.0059C3.26664 22.0059 3.52223 21.8995 3.71 21.7101L6.42 19.0001H11.61C11.8723 18.999 12.1237 18.8949 12.31 18.7101L20.54 10.5401C21.4804 9.60211 22.0089 8.32842 22.0089 7.00015C22.0089 5.67188 21.4804 4.39819 20.54 3.46015ZM19.12 9.12033L11.2 17.0003H7.00001V12.8003L14.88 4.88033C16.062 3.7789 17.904 3.8114 19.0465 4.95384C20.1889 6.09629 20.2214 7.93829 19.12 9.12033Z" fill="#171E2B"/>
</svg>
