<svg width="24" height="24" viewBox="0 0 24 24" fill="none" xmlns="http://www.w3.org/2000/svg">
<path fill-rule="evenodd" clip-rule="evenodd" d="M21.3 10.08C20.7312 9.39711 19.8888 9.00156 19 9.00004H14.44L15 7.57004C15.4728 6.2991 15.2916 4.87703 14.5152 3.76527C13.7388 2.65352 12.466 1.99374 11.11 2.00004C10.7171 2.00086 10.3611 2.23169 10.2 2.59004L7.35001 9.00004H5.00002C3.34316 9.00004 2.00002 10.3432 2.00002 12V19C2.00002 20.6569 3.34316 22 5.00002 22H17.73C19.1782 21.9996 20.4193 20.9646 20.68 19.54L21.95 12.54C22.109 11.6642 21.8709 10.763 21.3 10.08ZM7.00003 20.0002H5.00003C4.44775 20.0002 4.00003 19.5525 4.00003 19.0002V12.0002C4.00003 11.4479 4.44775 11.0002 5.00003 11.0002H7.00003V20.0002ZM20 12.1801L18.73 19.1801C18.642 19.6612 18.219 20.008 17.73 20.0001H9V10.2101L11.72 4.09006C12.286 4.25509 12.7572 4.64943 13.0194 5.17756C13.2816 5.70568 13.3108 6.31941 13.1 6.87006L12.57 8.30006C12.3408 8.91356 12.4264 9.60041 12.7993 10.1388C13.1722 10.6772 13.7851 10.9989 14.44 11.0001H19C19.2974 10.9996 19.5796 11.1315 19.77 11.3601C19.965 11.5855 20.0494 11.8861 20 12.1801Z" fill="#171E2B"/>
</svg>
