<svg width="90" height="90" viewBox="0 0 90 90" fill="none" xmlns="http://www.w3.org/2000/svg">
<rect width="20" height="24" transform="matrix(1 0 0 -1 7 77)" fill="#F3CCD4"/>
<path d="M82.2072 50.2909C82.6223 49.9289 82.9642 49.4931 83.2199 49.0037C84.3487 46.9088 84.9198 45.0485 81.4104 41.8306C78.6713 39.3234 71.6257 39.1357 65.0717 39.2899H63.9994C63.0299 39.0587 61.5092 34.8118 61.3234 33.4543C61.7749 32.2945 64.8162 27.2231 66.297 24.7464L67.3096 23.0738C68.89 20.4124 68.7107 15.4449 67.5652 12.6558H67.5619C67.2199 11.4457 66.3102 10.4838 65.1316 10.0815C61.0511 9.05249 57.296 18.106 57.2861 18.1462C56.8777 18.9607 52.8835 23.5092 47.5779 29.2078H47.5812C44.4437 32.7105 41.6016 36.4713 39.0817 40.4504C37.0929 43.6682 33.5902 45.619 29.8316 45.5989H28.0487V42.7834C28.0487 42.0728 27.4776 41.4962 26.7737 41.4962H7.27493C6.57107 41.4962 6 42.0728 6 42.7834V78.3339C6 79.0445 6.57107 79.6211 7.27493 79.6211H26.7737C27.4776 79.6211 28.0487 79.0445 28.0487 78.3339V76.5239H41.3989C47.8499 80.8143 58.2518 79.8289 60.0979 79.6042C61.1304 79.8724 62.1962 80.0065 63.262 79.9998C64.3377 79.9796 65.4134 79.8992 66.4826 79.7584C67.0603 79.6914 67.6546 79.621 68.2688 79.5774C71.506 79.3193 76.0645 75.887 77.1007 73.5105H77.0974C77.3962 72.8066 77.3962 72.0088 77.0974 71.3049C77.0144 71.1105 76.9148 70.9195 76.8019 70.7385C79.4181 70.1888 81.6128 68.3955 82.6918 65.9251C83.2629 64.2995 82.9109 62.4861 81.7722 61.1989C83.4721 59.8448 85.172 57.6191 84.986 55.5007C84.737 53.4728 83.7443 51.6159 82.2071 50.2919L82.2072 50.2909ZM25.4992 77.046H8.55022V44.0697H25.4992V77.046ZM78.9103 59.9349C78.6281 59.9718 78.3425 59.9919 78.0603 59.9952L71.2009 59.9181C70.4971 59.9181 69.926 60.4947 69.926 61.2053C69.926 61.9159 70.4971 62.4924 71.2009 62.4924C71.7454 62.4924 75.7827 62.6466 78.0869 62.5695H79.6773H79.674C80.3479 63.1795 80.6169 64.1214 80.3712 64.9996C79.7603 66.6052 77.6421 68.509 73.7077 68.5795V68.5761C71.9447 68.5627 70.1818 68.6431 68.4287 68.8174C67.7647 68.9314 67.2999 69.5448 67.3663 70.2252C67.4327 70.9023 68.017 71.4084 68.6943 71.3749L73.4886 71.1604H73.4853C74.0198 71.395 74.4747 71.7771 74.7967 72.2665C74.8299 72.3336 74.8299 72.414 74.7967 72.481C74.1692 73.9157 70.4009 76.8218 68.1067 77.0128C67.4592 77.0631 66.8417 77.1334 66.2374 77.2005C64.3616 77.5491 62.4326 77.4988 60.5766 77.053C60.4637 77.0195 60.3442 77.0027 60.228 77.0027H60.0487C59.9391 77.0027 48.661 78.5211 42.5651 74.1636C42.3493 74.0095 42.0904 73.929 41.8247 73.9324H28.0495V48.2498H29.8856C34.5238 48.2565 38.8365 45.8331 41.2733 41.8477C43.697 38.0165 46.4261 34.3931 49.4342 31.0109C55.8686 24.1462 59.3115 20.1141 59.6337 19.1187C60.55 16.5444 63.5016 12.3646 64.4877 12.6227C64.5474 12.6227 64.8529 12.8641 65.1749 13.6518C66.1344 15.9847 66.0846 20.0774 65.082 21.76L64.0859 23.4326C59.1887 31.5944 58.7305 32.6398 58.7305 33.3512C58.7305 33.8909 60.3275 41.8818 63.9398 41.8818H65.0952C68.1033 41.8047 77.2734 41.6002 79.6371 43.7522C82.001 45.9074 81.669 46.3934 80.8788 47.8548C80.4804 48.5923 79.5009 49.0917 76.3568 49.3297C74.9357 49.3297 73.0765 49.3968 70.6461 49.494C69.9422 49.5074 69.3844 50.094 69.3977 50.8045C69.411 51.5185 69.9953 52.0816 70.6991 52.0682C73.0199 52.0682 74.8991 52.0682 76.4363 51.914C77.6681 51.8671 78.9031 51.8939 80.1317 51.9911C81.3601 52.8895 82.1835 54.2403 82.4292 55.7486C82.6417 57.3709 79.8361 59.791 78.9099 59.9351L78.9103 59.9349Z" fill="#C1002A"/>
<rect x="7" y="43" width="20" height="10" fill="#C1002A"/>
</svg>
