<svg width="24" height="24" viewBox="0 0 24 24" fill="none" xmlns="http://www.w3.org/2000/svg">
<path fill-rule="evenodd" clip-rule="evenodd" d="M19 1.99976H6.27C4.8218 2.00024 3.58068 3.03521 3.32 4.45976L2.05 11.4598C1.8898 12.3352 2.12658 13.2366 2.69634 13.9203C3.26609 14.604 4.11001 14.9995 5 14.9998H9.56L9 16.4298C8.52718 17.7007 8.70838 19.1228 9.48481 20.2345C10.2612 21.3463 11.534 22.0061 12.89 21.9998C13.2829 21.9989 13.6389 21.7681 13.8 21.4098L16.65 14.9998H19C20.6569 14.9998 22 13.6566 22 11.9998V4.99976C22 3.3429 20.6569 1.99976 19 1.99976ZM15 13.7896L12.28 19.9096C11.7175 19.7394 11.2503 19.3443 10.989 18.8179C10.7277 18.2915 10.6955 17.6805 10.9 17.1296L11.43 15.6996C11.6592 15.0861 11.5736 14.3992 11.2007 13.8608C10.8278 13.3224 10.2149 13.0007 9.56001 12.9996H5.00001C4.70258 13.0001 4.42036 12.8681 4.23001 12.6396C4.03496 12.4142 3.95063 12.1135 4.00001 11.8196L5.27001 4.81958C5.35798 4.33848 5.781 3.9916 6.27001 3.99958H15V13.7896ZM20 11.9996C20 12.5519 19.5523 12.9996 19 12.9996H17V3.99963H19C19.5523 3.99963 20 4.44735 20 4.99963V11.9996Z" fill="#171E2B"/>
</svg>
