<svg width="24" height="24" viewBox="0 0 24 24" fill="none" xmlns="http://www.w3.org/2000/svg">
<path fill-rule="evenodd" clip-rule="evenodd" d="M11.58 16.5004H10.32L11.18 15.0004C11.377 14.6904 11.3883 14.2973 11.2093 13.9766C11.0303 13.6558 10.6898 13.459 10.3225 13.464C9.95525 13.469 9.62025 13.6749 9.44999 14.0004L7.71999 17.0004C7.54188 17.3089 7.54131 17.6888 7.71847 17.9978C7.89564 18.3068 8.2238 18.4983 8.57999 18.5004H9.84999L8.99999 20.0004C8.72385 20.4809 8.8895 21.0943 9.36999 21.3704C9.85048 21.6465 10.4638 21.4809 10.74 21.0004L12.47 18.0004C12.6486 17.691 12.6486 17.3098 12.47 17.0004C12.2871 16.6835 11.9458 16.4917 11.58 16.5004ZM21 7.50024H20.2C20.0966 7.05154 19.921 6.62261 19.68 6.23024L20.24 5.67024C20.5798 5.27348 20.5569 4.68205 20.1876 4.31268C19.8182 3.94331 19.2268 3.92047 18.83 4.26024L18.27 4.82024C17.8776 4.57926 17.4487 4.40363 17 4.30024V3.50024C17 2.94796 16.5523 2.50024 16 2.50024C15.4477 2.50024 15 2.94796 15 3.50024V4.30024C14.5513 4.40363 14.1224 4.57926 13.73 4.82024L13.17 4.26024C12.7732 3.92047 12.1818 3.94331 11.8124 4.31268C11.4431 4.68205 11.4202 5.27348 11.76 5.67024L12.32 6.24024C12.23 6.39024 12.16 6.56024 12.08 6.72024C11.5658 6.57511 11.0342 6.50109 10.5 6.50024C7.52104 6.49855 4.99194 8.68277 4.56 11.6302C3.10723 12.0281 2.07361 13.313 1.99636 14.8173C1.9191 16.3216 2.81563 17.7057 4.22 18.2502C4.55871 18.4112 4.959 18.3691 5.25682 18.1412C5.55465 17.9133 5.69995 17.538 5.63318 17.169C5.56641 16.7999 5.29879 16.4993 4.94 16.3902C4.2756 16.1208 3.89481 15.4188 4.0312 14.7149C4.16759 14.011 4.78303 13.5021 5.5 13.5002C6.05228 13.5002 6.5 13.0525 6.5 12.5002C6.50885 10.5505 7.92216 8.89122 9.84565 8.57228C11.7691 8.25335 13.6423 9.36771 14.28 11.2102C14.3965 11.5604 14.6963 11.8179 15.06 11.8802C16.1253 12.0689 16.9206 12.9659 16.9802 14.0462C17.0399 15.1264 16.3481 16.1055 15.31 16.4102C14.7577 16.4848 14.3704 16.993 14.445 17.5452C14.5196 18.0975 15.0277 18.4848 15.58 18.4102C15.6694 18.4248 15.7606 18.4248 15.85 18.4102C17.0241 18.0842 18.0048 17.2753 18.5482 16.1846C19.0917 15.094 19.1468 13.8239 18.7 12.6902L18.83 12.8202C19.0163 13.005 19.2677 13.1091 19.53 13.1102C19.7958 13.1118 20.0513 13.0074 20.24 12.8202C20.6277 12.4302 20.6277 11.8003 20.24 11.4102L19.68 10.8502C19.9292 10.4333 20.1051 9.97665 20.2 9.50024H21C21.5523 9.50024 22 9.05253 22 8.50024C22 7.94796 21.5523 7.50024 21 7.50024ZM17.66 10.1501C17.4832 10.3179 17.2806 10.4564 17.06 10.5601C16.7355 10.3233 16.3785 10.1347 16 10.0001C15.5406 8.99683 14.8184 8.13647 13.91 7.51007C14.0215 7.25177 14.1772 7.01489 14.37 6.81007C15.3014 5.94864 16.7387 5.94864 17.67 6.81007C18.5616 7.72939 18.5616 9.19074 17.67 10.1101L17.66 10.1501Z" fill="#171E2B"/>
</svg>
