<svg width="24" height="24" viewBox="0 0 24 24" fill="none" xmlns="http://www.w3.org/2000/svg">
<path fill-rule="evenodd" clip-rule="evenodd" d="M13.5 14.9998H11.23L12.68 12.4998C12.8586 12.189 12.8579 11.8065 12.678 11.4964C12.4982 11.1863 12.1665 10.9957 11.808 10.9964C11.4495 10.9971 11.1186 11.189 10.94 11.4998L8.63002 15.4998C8.45139 15.8092 8.45139 16.1904 8.63002 16.4998C8.80936 16.8104 9.14133 17.0012 9.50002 16.9998H11.77L10.32 19.4998C10.0439 19.9803 10.2095 20.5937 10.69 20.8698C11.1705 21.1459 11.7839 20.9803 12.06 20.4998L14.37 16.4998C14.5486 16.1904 14.5486 15.8092 14.37 15.4998C14.1907 15.1892 13.8587 14.9984 13.5 14.9998ZM18.42 7.20991C17.1628 4.3238 14.1336 2.63199 11.0169 3.07523C7.90019 3.51847 5.46277 5.98772 5.06001 9.10991C3.08649 9.58252 1.7796 11.4581 2.01967 13.4731C2.25974 15.4882 3.9707 17.0042 6.00001 16.9999C6.55229 16.9999 7.00001 16.5522 7.00001 15.9999C7.00001 15.4476 6.55229 14.9999 6.00001 14.9999C4.89544 14.9999 4.00001 14.1045 4.00001 12.9999C4.00001 11.8953 4.89544 10.9999 6.00001 10.9999C6.55229 10.9999 7.00001 10.5522 7.00001 9.99991C7.00528 7.55759 8.7742 5.47648 11.1838 5.07778C13.5933 4.67908 15.9383 6.07947 16.73 8.38991C16.8495 8.73616 17.1488 8.98936 17.51 9.04991C19.0287 9.33014 20.0866 10.7176 19.9547 12.2563C19.8228 13.795 18.5443 14.9822 17 14.9999C16.4477 14.9999 16 15.4476 16 15.9999C16 16.5522 16.4477 16.9999 17 16.9999C19.479 16.9931 21.5786 15.1709 21.9345 12.7176C22.2903 10.2644 20.7949 7.92076 18.42 7.20991Z" fill="#171E2B"/>
</svg>
