<svg width="24" height="24" viewBox="0 0 24 24" fill="none" xmlns="http://www.w3.org/2000/svg">
<path fill-rule="evenodd" clip-rule="evenodd" d="M11.58 16.5003H10.32L11.18 15.0003C11.377 14.6903 11.3883 14.2972 11.2093 13.9764C11.0303 13.6557 10.6898 13.4589 10.3225 13.4639C9.95525 13.4688 9.62025 13.6748 9.44999 14.0003L7.71999 17.0003C7.54188 17.3087 7.54131 17.6886 7.71847 17.9977C7.89564 18.3067 8.2238 18.4981 8.57999 18.5003H9.84999L8.99999 20.0003C8.72385 20.4807 8.8895 21.0941 9.36999 21.3703C9.85048 21.6464 10.4638 21.4807 10.74 21.0003L12.47 18.0003C12.6486 17.6909 12.6486 17.3097 12.47 17.0003C12.2871 16.6833 11.9458 16.4915 11.58 16.5003ZM21.7 7.57012C21.4552 7.3296 21.1041 7.23145 20.77 7.31012C20.5534 7.35963 20.3322 7.38644 20.11 7.39012C18.4531 7.39012 17.11 6.04698 17.11 4.39012C17.1129 4.17118 17.1397 3.95322 17.19 3.74012C17.2708 3.40454 17.1728 3.05103 16.9307 2.80493C16.6887 2.55884 16.3369 2.45496 16 2.53012C13.9604 2.98042 12.4259 4.66714 12.17 6.74012C11.6268 6.58489 11.065 6.50415 10.5 6.50012C7.52104 6.49843 4.99194 8.68264 4.55999 11.6301C3.10723 12.0279 2.07361 13.3129 1.99636 14.8172C1.9191 16.3214 2.81563 17.7056 4.22 18.2501C4.55871 18.4111 4.959 18.369 5.25682 18.1411C5.55465 17.9132 5.69995 17.5379 5.63318 17.1688C5.56641 16.7998 5.29879 16.4992 4.93999 16.3901C4.2756 16.1206 3.89481 15.4186 4.0312 14.7148C4.16759 14.0109 4.78303 13.5019 5.49999 13.5001C6.05228 13.5001 6.49999 13.0524 6.49999 12.5001C6.49999 10.291 8.29086 8.50012 10.5 8.50012C11.276 8.4995 12.0347 8.7292 12.68 9.16012C13.4069 9.63829 13.9581 10.3404 14.25 11.1601C14.3665 11.5103 14.6663 11.7678 15.03 11.8301C16.0953 12.0187 16.8906 12.9158 16.9502 13.996C17.0099 15.0763 16.3181 16.0554 15.28 16.3601C14.7277 16.4347 14.3404 16.9428 14.415 17.4951C14.4896 18.0474 14.9977 18.4347 15.55 18.3601C15.6394 18.3747 15.7306 18.3747 15.82 18.3601C17.7041 17.8411 19.007 16.1244 19 14.1701C19.0039 13.4733 18.8356 12.7862 18.51 12.1701C20.2596 11.6815 21.5999 10.2721 22 8.50012C22.0686 8.15904 21.955 7.80683 21.7 7.57012ZM17.11 10.39C16.9702 10.4013 16.8298 10.4013 16.69 10.39C16.4717 10.2404 16.2408 10.1099 16 9.99998C15.5902 9.10182 14.965 8.31867 14.18 7.71998C14.18 7.59998 14.18 7.46998 14.18 7.34998C14.1799 6.47304 14.5636 5.63999 15.23 5.06998C15.548 7.26098 17.269 8.98199 19.46 9.29998C18.882 10.0002 18.0179 10.401 17.11 10.39Z" fill="#171E2B"/>
</svg>
