<svg width="24" height="24" viewBox="0 0 24 24" fill="none" xmlns="http://www.w3.org/2000/svg">
<path fill-rule="evenodd" clip-rule="evenodd" d="M9 9.99963C8.44771 9.99963 8 10.4473 8 10.9996V12.9996C8 13.5519 8.44771 13.9996 9 13.9996C9.55228 13.9996 10 13.5519 10 12.9996V10.9996C10 10.4473 9.55228 9.99963 9 9.99963ZM21 10.9998C21.5523 10.9998 22 10.552 22 9.99975V5.99976C22 5.44747 21.5523 4.99976 21 4.99976H3C2.44772 4.99976 2 5.44747 2 5.99976V9.99975C2 10.552 2.44772 10.9998 3 10.9998C3.55228 10.9998 4 11.4475 4 11.9998C4 12.552 3.55228 12.9998 3 12.9998C2.44772 12.9998 2 13.4475 2 13.9998V17.9998C2 18.552 2.44772 18.9998 3 18.9998H21C21.5523 18.9998 22 18.552 22 17.9998V13.9998C22 13.4475 21.5523 12.9998 21 12.9998C20.4477 12.9998 20 12.552 20 11.9998C20 11.4475 20.4477 10.9998 21 10.9998ZM20 9.17963C18.8135 9.61026 18.0235 10.7374 18.0235 11.9996C18.0235 13.2618 18.8135 14.389 20 14.8196V16.9996H9.99999C9.99999 16.4473 9.55228 15.9996 8.99999 15.9996C8.44771 15.9996 7.99999 16.4473 7.99999 16.9996H3.99999V14.8196C5.18645 14.389 5.97647 13.2618 5.97647 11.9996C5.97647 10.7374 5.18645 9.61026 3.99999 9.17963V6.99963H7.99999C7.99999 7.55191 8.44771 7.99963 8.99999 7.99963C9.55228 7.99963 9.99999 7.55191 9.99999 6.99963H20V9.17963Z" fill="#171E2B"/>
</svg>
