<svg width="24" height="24" viewBox="0 0 24 24" fill="none" xmlns="http://www.w3.org/2000/svg">
<path fill-rule="evenodd" clip-rule="evenodd" d="M15.71 8.28958C15.5222 8.10027 15.2666 7.99378 15 7.99378C14.7334 7.99378 14.4778 8.10027 14.29 8.28958L12 10.5896L9.71001 8.28958C9.31789 7.89746 8.68213 7.89746 8.29001 8.28958C7.89788 8.6817 7.89788 9.31746 8.29001 9.70958L10.59 11.9996L8.29001 14.2896C8.10069 14.4773 7.99421 14.7329 7.99421 14.9996C7.99421 15.2662 8.10069 15.5218 8.29001 15.7096C8.47777 15.8989 8.73337 16.0054 9.00001 16.0054C9.26664 16.0054 9.52224 15.8989 9.71001 15.7096L12 13.4096L14.29 15.7096C14.4778 15.8989 14.7334 16.0054 15 16.0054C15.2666 16.0054 15.5222 15.8989 15.71 15.7096C15.8993 15.5218 16.0058 15.2662 16.0058 14.9996C16.0058 14.7329 15.8993 14.4773 15.71 14.2896L13.41 11.9996L15.71 9.70958C15.8993 9.52181 16.0058 9.26622 16.0058 8.99958C16.0058 8.73294 15.8993 8.47734 15.71 8.28958ZM19 1.99976H5C3.34315 1.99976 2 3.3429 2 4.99976V18.9998C2 20.6566 3.34315 21.9998 5 21.9998H19C20.6569 21.9998 22 20.6566 22 18.9998V4.99976C22 3.3429 20.6569 1.99976 19 1.99976ZM20 18.9996C20 19.5519 19.5523 19.9996 19 19.9996H4.99999C4.44771 19.9996 3.99999 19.5519 3.99999 18.9996V4.99963C3.99999 4.44735 4.44771 3.99963 4.99999 3.99963H19C19.5523 3.99963 20 4.44735 20 4.99963V18.9996Z" fill="#171E2B"/>
</svg>
