<svg width="24" height="24" viewBox="0 0 24 24" fill="none" xmlns="http://www.w3.org/2000/svg">
<path fill-rule="evenodd" clip-rule="evenodd" d="M13.41 11.9999L17.71 7.70994C18.1021 7.31782 18.1021 6.68206 17.71 6.28994C17.3179 5.89782 16.6821 5.89782 16.29 6.28994L12 10.5899L7.71 6.28994C7.31788 5.89782 6.68212 5.89782 6.29 6.28994C5.89788 6.68206 5.89788 7.31782 6.29 7.70994L10.59 11.9999L6.29 16.2899C6.10069 16.4777 5.9942 16.7333 5.9942 16.9999C5.9942 17.2666 6.10069 17.5222 6.29 17.7099C6.47777 17.8993 6.73336 18.0057 7 18.0057C7.26664 18.0057 7.52223 17.8993 7.71 17.7099L12 13.4099L16.29 17.7099C16.4778 17.8993 16.7334 18.0057 17 18.0057C17.2666 18.0057 17.5222 17.8993 17.71 17.7099C17.8993 17.5222 18.0058 17.2666 18.0058 16.9999C18.0058 16.7333 17.8993 16.4777 17.71 16.2899L13.41 11.9999Z" fill="#171E2B"/>
</svg>
