<svg width="24" height="24" viewBox="0 0 24 24" fill="none" xmlns="http://www.w3.org/2000/svg">
<path fill-rule="evenodd" clip-rule="evenodd" d="M15.71 8.29017C15.5223 8.10086 15.2667 7.99437 15 7.99437C14.7334 7.99437 14.4778 8.10086 14.29 8.29017L12 10.5902L9.71002 8.29017C9.3179 7.89805 8.68215 7.89805 8.29002 8.29017C7.8979 8.68229 7.8979 9.31805 8.29002 9.71017L10.59 12.0002L8.29002 14.2902C8.10071 14.4779 7.99423 14.7335 7.99423 15.0002C7.99423 15.2668 8.10071 15.5224 8.29002 15.7102C8.47779 15.8995 8.73339 16.006 9.00002 16.006C9.26666 16.006 9.52226 15.8995 9.71002 15.7102L12 13.4102L14.29 15.7102C14.4778 15.8995 14.7334 16.006 15 16.006C15.2667 16.006 15.5223 15.8995 15.71 15.7102C15.8993 15.5224 16.0058 15.2668 16.0058 15.0002C16.0058 14.7335 15.8993 14.4779 15.71 14.2902L13.41 12.0002L15.71 9.71017C15.8993 9.5224 16.0058 9.26681 16.0058 9.00017C16.0058 8.73353 15.8993 8.47794 15.71 8.29017ZM19.07 4.93008C16.5593 2.33052 12.8412 1.28796 9.34495 2.20311C5.84865 3.11827 3.1182 5.84872 2.20305 9.34501C1.2879 12.8413 2.33046 16.5593 4.93002 19.0701C7.44077 21.6696 11.1588 22.7122 14.6551 21.7971C18.1514 20.8819 20.8818 18.1515 21.797 14.6552C22.7121 11.1589 21.6696 7.44083 19.07 4.93008ZM17.66 17.6602C14.9629 20.3603 10.7341 20.7793 7.55954 18.661C4.385 16.5426 3.14882 12.4769 4.60693 8.94999C6.06505 5.4231 9.81139 3.41726 13.555 4.15908C17.2987 4.9009 19.997 8.18378 20 12.0002C20.0072 14.1237 19.1646 16.1618 17.66 17.6602Z" fill="#171E2B"/>
</svg>
