<svg width="24" height="24" viewBox="0 0 24 24" fill="none" xmlns="http://www.w3.org/2000/svg">
<path fill-rule="evenodd" clip-rule="evenodd" d="M16 8.49963C14.067 8.49963 12.5 10.0666 12.5 11.9996C12.5 13.9326 14.067 15.4996 16 15.4996C17.933 15.4996 19.5 13.9326 19.5 11.9996C19.5 10.0666 17.933 8.49963 16 8.49963ZM16 13.4999C15.1716 13.4999 14.5 12.8283 14.5 11.9999C14.5 11.1715 15.1716 10.4999 16 10.4999C16.8284 10.4999 17.5 11.1715 17.5 11.9999C17.5 12.8283 16.8284 13.4999 16 13.4999ZM16 4.99976H8C4.13401 4.99976 1 8.13376 1 11.9998C1 15.8657 4.13401 18.9998 8 18.9998H16C19.866 18.9998 23 15.8657 23 11.9998C23 8.13376 19.866 4.99976 16 4.99976ZM16 16.9996H8.00002C5.23859 16.9996 3.00002 14.7611 3.00002 11.9996C3.00002 9.23821 5.23859 6.99963 8.00002 6.99963H16C18.7614 6.99963 21 9.23821 21 11.9996C21 14.7611 18.7614 16.9996 16 16.9996Z" fill="#171E2B"/>
</svg>
