<svg width="24" height="24" viewBox="0 0 24 24" fill="none" xmlns="http://www.w3.org/2000/svg">
<path fill-rule="evenodd" clip-rule="evenodd" d="M7.99999 8.49963C6.067 8.49963 4.49999 10.0666 4.49999 11.9996C4.49999 13.9326 6.067 15.4996 7.99999 15.4996C9.93299 15.4996 11.5 13.9326 11.5 11.9996C11.5 10.0666 9.93299 8.49963 7.99999 8.49963ZM8.00001 13.4999C7.17158 13.4999 6.50001 12.8283 6.50001 11.9999C6.50001 11.1715 7.17158 10.4999 8.00001 10.4999C8.82843 10.4999 9.50001 11.1715 9.50001 11.9999C9.50001 12.8283 8.82843 13.4999 8.00001 13.4999ZM16 4.99976H8C4.13401 4.99976 1 8.13376 1 11.9998C1 15.8657 4.13401 18.9998 8 18.9998H16C19.866 18.9998 23 15.8657 23 11.9998C23 8.13376 19.866 4.99976 16 4.99976ZM16 16.9996H7.99999C5.23857 16.9996 2.99999 14.7611 2.99999 11.9996C2.99999 9.23821 5.23857 6.99963 7.99999 6.99963H16C18.7614 6.99963 21 9.23821 21 11.9996C21 14.7611 18.7614 16.9996 16 16.9996Z" fill="#171E2B"/>
</svg>
