<svg width="24" height="24" viewBox="0 0 24 24" fill="none" xmlns="http://www.w3.org/2000/svg">
<path fill-rule="evenodd" clip-rule="evenodd" d="M19 20.0003H4.99998C4.4477 20.0003 3.99998 20.448 3.99998 21.0003C3.99998 21.5526 4.4477 22.0003 4.99998 22.0003H19C19.5523 22.0003 20 21.5526 20 21.0003C20 20.448 19.5523 20.0003 19 20.0003ZM8.70999 7.71014L11 5.41014V17.0001C11 17.5524 11.4477 18.0001 12 18.0001C12.5523 18.0001 13 17.5524 13 17.0001V5.41014L15.29 7.71014C15.4778 7.89945 15.7334 8.00594 16 8.00594C16.2666 8.00594 16.5222 7.89945 16.71 7.71014C16.8993 7.52237 17.0058 7.26678 17.0058 7.00014C17.0058 6.7335 16.8993 6.47791 16.71 6.29014L12.71 2.29014C12.6149 2.1991 12.5027 2.12773 12.38 2.08014C12.1365 1.98012 11.8635 1.98012 11.62 2.08014C11.4972 2.12773 11.3851 2.1991 11.29 2.29014L7.28999 6.29014C7.03633 6.5438 6.93727 6.91351 7.03011 7.26002C7.12296 7.60652 7.39361 7.87717 7.74011 7.97002C8.08662 8.06286 8.45633 7.9638 8.70999 7.71014Z" fill="#171E2B"/>
</svg>
