<svg width="24" height="24" viewBox="0 0 24 24" fill="none" xmlns="http://www.w3.org/2000/svg">
<path fill-rule="evenodd" clip-rule="evenodd" d="M12.71 6.2902C12.6149 6.19916 12.5027 6.12779 12.38 6.0802C12.1365 5.98018 11.8635 5.98018 11.62 6.0802C11.4972 6.12779 11.3851 6.19916 11.29 6.2902L7.28999 10.2902C7.03633 10.5439 6.93727 10.9136 7.03011 11.2601C7.12296 11.6066 7.39361 11.8772 7.74011 11.9701C8.08662 12.0629 8.45633 11.9639 8.70999 11.7102L11 9.4102V21.0002C11 21.5525 11.4477 22.0002 12 22.0002C12.5523 22.0002 13 21.5525 13 21.0002V9.4102L15.29 11.7102C15.4778 11.8995 15.7334 12.006 16 12.006C16.2666 12.006 16.5222 11.8995 16.71 11.7102C16.8993 11.5224 17.0058 11.2668 17.0058 11.0002C17.0058 10.7336 16.8993 10.478 16.71 10.2902L12.71 6.2902ZM19 2.00024H4.99998C4.4477 2.00024 3.99998 2.44796 3.99998 3.00024C3.99998 3.55253 4.4477 4.00025 4.99998 4.00025H19C19.5523 4.00025 20 3.55253 20 3.00024C20 2.44796 19.5523 2.00024 19 2.00024Z" fill="#171E2B"/>
</svg>
