<svg width="24" height="24" viewBox="0 0 24 24" fill="none" xmlns="http://www.w3.org/2000/svg">
<path fill-rule="evenodd" clip-rule="evenodd" d="M10 21H8.00002C7.44773 21 7.00002 21.4477 7.00002 22C7.00002 22.5523 7.44773 23 8.00002 23H10C10.5523 23 11 22.5523 11 22C11 21.4477 10.5523 21 10 21ZM11 16.9995H6C5.44772 16.9995 5 17.4472 5 17.9995C5 18.5518 5.44772 18.9995 6 18.9995H11C11.5523 18.9995 12 18.5518 12 17.9995C12 17.4472 11.5523 16.9995 11 16.9995ZM18 1.99976C18 1.44747 17.5523 0.999756 17 0.999756H3C2.44772 0.999756 2 1.44747 2 1.99976C2 2.55204 2.44772 2.99976 3 2.99976H17C17.5523 2.99976 18 2.55204 18 1.99976ZM21 4.99951H6C5.44772 4.99951 5 5.44722 5 5.99951C5 6.55179 5.44772 6.99951 6 6.99951H21C21.5523 6.99951 22 6.55179 22 5.99951C22 5.44722 21.5523 4.99951 21 4.99951ZM19 9H9.99998C9.4477 9 8.99998 9.44772 8.99998 10C8.99998 10.5523 9.4477 11 9.99998 11H19C19.5523 11 20 10.5523 20 10C20 9.44772 19.5523 9 19 9ZM14 12.9998H8.00002C7.44773 12.9998 7.00002 13.4475 7.00002 13.9998C7.00002 14.552 7.44773 14.9998 8.00002 14.9998H14C14.5523 14.9998 15 14.552 15 13.9998C15 13.4475 14.5523 12.9998 14 12.9998Z" fill="#171E2B"/>
</svg>
