<svg width="24" height="24" viewBox="0 0 24 24" fill="none" xmlns="http://www.w3.org/2000/svg">
<path d="M9.25 9.24V5.5C9.25 4.12 10.37 3 11.75 3C13.13 3 14.25 4.12 14.25 5.5V9.24C15.46 8.43 16.25 7.06 16.25 5.5C16.25 3.01 14.24 1 11.75 1C9.26 1 7.25 3.01 7.25 5.5C7.25 7.06 8.04 8.43 9.25 9.24ZM19.09 13.87L14.55 11.61C14.38 11.54 14.2 11.5 14.01 11.5H13.25V5.5C13.25 4.67 12.58 4 11.75 4C10.92 4 10.25 4.67 10.25 5.5V16.24L6.82 15.52C6.74 15.51 6.67 15.49 6.58 15.49C6.27 15.49 5.99 15.62 5.79 15.82L5 16.62L9.94 21.56C10.21 21.83 10.59 22 11 22H17.79C18.54 22 19.12 21.45 19.23 20.72L19.98 15.45C19.99 15.38 20 15.31 20 15.25C20 14.63 19.62 14.09 19.09 13.87Z" fill="#171E2B"/>
</svg>
