<svg width="24" height="24" viewBox="0 0 24 24" fill="none" xmlns="http://www.w3.org/2000/svg">
<path fill-rule="evenodd" clip-rule="evenodd" d="M9.5 6.99976H3.5C2.94772 6.99976 2.5 7.44747 2.5 7.99976C2.5 8.55204 2.94772 8.99976 3.5 8.99976H5.5V15.9998C5.5 16.552 5.94771 16.9998 6.5 16.9998C7.05228 16.9998 7.5 16.552 7.5 15.9998V8.99976H9.5C10.0523 8.99976 10.5 8.55204 10.5 7.99976C10.5 7.44747 10.0523 6.99976 9.5 6.99976ZM21.42 7.61996C21.3185 7.37561 21.1244 7.18144 20.88 7.07996C20.6365 6.97994 20.3635 6.97994 20.12 7.07996C19.9973 7.12756 19.8851 7.19892 19.79 7.28996L17 10.09L14.21 7.28996C14.1149 7.19892 14.0028 7.12756 13.88 7.07996C13.6365 6.97994 13.3635 6.97994 13.12 7.07996C12.8757 7.18144 12.6815 7.37561 12.58 7.61996C12.5288 7.74018 12.5016 7.86929 12.5 7.99996V16C12.5 16.5522 12.9477 17 13.5 17C14.0523 17 14.5 16.5522 14.5 16V10.41L16.29 12.21C16.4778 12.3993 16.7334 12.5058 17 12.5058C17.2666 12.5058 17.5222 12.3993 17.71 12.21L19.5 10.41V16C19.5 16.5522 19.9477 17 20.5 17C21.0523 17 21.5 16.5522 21.5 16V7.99996C21.4984 7.86929 21.4712 7.74018 21.42 7.61996Z" fill="#171E2B"/>
</svg>
