<svg width="24" height="24" viewBox="0 0 24 24" fill="none" xmlns="http://www.w3.org/2000/svg">
<path fill-rule="evenodd" clip-rule="evenodd" d="M10 9H7.00001C6.44772 9 6.00001 9.44771 6.00001 10C6.00001 10.5523 6.44772 11 7.00001 11H7.50001V14C7.50001 14.5523 7.94772 15 8.50001 15C9.05229 15 9.50001 14.5523 9.50001 14V11H10C10.5523 11 11 10.5523 11 10C11 9.44771 10.5523 9 10 9ZM17.38 9.08046C17.0076 8.92386 16.5776 9.00671 16.29 9.29046L15 10.5905L13.71 9.29046C13.4224 9.00671 12.9924 8.92386 12.62 9.08046C12.2466 9.23386 12.002 9.59676 12 10.0005V14.0005C12 14.5527 12.4477 15.0005 13 15.0005C13.5523 15.0005 14 14.5527 14 14.0005V12.4105L14.29 12.7105C14.4778 12.8998 14.7334 13.0063 15 13.0063C15.2666 13.0063 15.5222 12.8998 15.71 12.7105L16 12.4105V14.0005C16 14.5527 16.4477 15.0005 17 15.0005C17.5523 15.0005 18 14.5527 18 14.0005V10.0005C17.998 9.59676 17.7534 9.23386 17.38 9.08046ZM12 2.00024C6.47715 2.00024 2 6.4774 2 12.0002C2 17.5231 6.47715 22.0002 12 22.0002C17.5228 22.0002 22 17.5231 22 12.0002C22 9.34808 20.9464 6.80454 19.0711 4.92918C17.1957 3.05381 14.6522 2.00024 12 2.00024ZM12 20.0005C7.58171 20.0005 3.99999 16.4188 3.99999 12.0005C3.99999 7.58221 7.58171 4.00049 12 4.00049C16.4183 4.00049 20 7.58221 20 12.0005C20 14.1222 19.1571 16.1571 17.6568 17.6573C16.1566 19.1576 14.1217 20.0005 12 20.0005Z" fill="#171E2B"/>
</svg>
