<svg width="24" height="24" viewBox="0 0 24 24" fill="none" xmlns="http://www.w3.org/2000/svg">
<path fill-rule="evenodd" clip-rule="evenodd" d="M21 5H20V4C20 3.44772 19.5523 3 19 3C18.4477 3 18 3.44772 18 4V5H6V4C6 3.44772 5.55228 3 5 3C4.44772 3 4 3.44772 4 4V5H3C2.44772 5 2 5.44772 2 6V12C2 12.5523 2.44772 13 3 13H4V20C4 20.5523 4.44772 21 5 21C5.55228 21 6 20.5523 6 20V13H18V20C18 20.5523 18.4477 21 19 21C19.5523 21 20 20.5523 20 20V13H21C21.5523 13 22 12.5523 22 12V6C22 5.44772 21.5523 5 21 5ZM4 9.51975V6.99975H6.52L4 9.51975ZM5.34 10.9998L9.34 6.99975H12.67L8.67 10.9998H5.34ZM11.49 10.9998L15.49 6.99975H18.67L14.67 10.9998H11.49ZM20 11H17.49L20 8.49V11Z" fill="#171E2B"/>
</svg>
