<svg width="24" height="24" viewBox="0 0 24 24" fill="none" xmlns="http://www.w3.org/2000/svg">
<path fill-rule="evenodd" clip-rule="evenodd" d="M16.5 5.00002C15.6195 4.99932 14.7554 5.23781 14 5.69002C12.8714 3.09947 10.0882 1.64751 7.31776 2.204C4.54737 2.76049 2.54073 5.17458 2.5 8.00002V12C2.50296 14.9255 4.6154 17.4224 7.5 17.91V21C7.5 21.5523 7.94772 22 8.5 22C9.05229 22 9.5 21.5523 9.5 21V17.91C10.5187 17.7332 11.4755 17.2996 12.28 16.65C13.0014 17.8079 14.1647 18.6207 15.5 18.9V21C15.5 21.5523 15.9477 22 16.5 22C17.0523 22 17.5 21.5523 17.5 21V18.9C19.8283 18.4247 21.5005 16.3764 21.5 14V10C21.5 7.23859 19.2614 5.00002 16.5 5.00002ZM11.5 10.0001V14.0001C11.5096 14.191 11.5296 14.3813 11.56 14.5701C11.0252 15.207 10.3051 15.6614 9.49999 15.8701V13.0001C9.49999 12.4478 9.05228 12.0001 8.49999 12.0001C7.94771 12.0001 7.49999 12.4478 7.49999 13.0001V15.8601C5.73859 15.4053 4.5059 13.8192 4.49999 12.0001V8.00005C4.49466 6.3794 5.46775 4.9157 6.9642 4.29346C8.46064 3.67122 10.1847 4.01343 11.33 5.16005C11.8713 5.70869 12.2399 6.40406 12.39 7.16005C11.8119 7.99443 11.5015 8.98499 11.5 10.0001ZM19.5 13.9998C19.4964 15.2681 18.6957 16.3971 17.5 16.8198V12.9998C17.5 12.4475 17.0523 11.9998 16.5 11.9998C15.9477 11.9998 15.5 12.4475 15.5 12.9998V16.8198C14.3043 16.3971 13.5036 15.2681 13.5 13.9998V9.99982C13.5 8.34296 14.8431 6.99981 16.5 6.99981C18.1568 6.99981 19.5 8.34296 19.5 9.99982V13.9998Z" fill="#171E2B"/>
</svg>
