<svg width="24" height="24" viewBox="0 0 24 24" fill="none" xmlns="http://www.w3.org/2000/svg">
<path fill-rule="evenodd" clip-rule="evenodd" d="M21.12 2.87966C19.9316 1.75203 18.0684 1.75203 16.88 2.87966L14.46 5.28966C13.5683 6.19156 13.3401 7.55678 13.89 8.69966L11.74 10.8497L9.73997 8.84966C9.00615 8.09813 7.93273 7.78513 6.90999 8.02445C5.88724 8.26377 5.06415 9.02056 4.73997 10.0197L2.07997 18.0197C1.71944 19.0968 1.99815 20.2851 2.79997 21.0897C3.37641 21.6834 4.17252 22.0127 4.99997 21.9997C5.34016 22.006 5.67876 21.9518 5.99997 21.8397L14 19.1797C14.9991 18.8555 15.7559 18.0324 15.9952 17.0096C16.2345 15.9869 15.9215 14.9135 15.17 14.1797L13.17 12.1797L15.32 10.0297C16.4629 10.5796 17.8281 10.3514 18.73 9.45966L21.14 7.03966C22.2519 5.87278 22.2431 4.03579 21.12 2.87966ZM13.6999 15.6294C13.9419 15.8759 14.0395 16.2298 13.9581 16.5655C13.8767 16.9011 13.6279 17.171 13.2999 17.2794L5.31995 19.9994C4.96604 20.1075 4.58135 20.0113 4.31995 19.7494C4.05801 19.488 3.96184 19.1033 4.06995 18.7494L6.73995 10.7494C6.8175 10.3896 7.08638 10.1015 7.43995 9.99938C7.51639 9.99112 7.59351 9.99112 7.66995 9.99938C7.93229 10.0005 8.18369 10.1046 8.36995 10.2894L10.3699 12.2894L9.49995 13.1494C9.31064 13.3372 9.20415 13.5927 9.20415 13.8594C9.20415 14.126 9.31064 14.3816 9.49995 14.5694C9.68772 14.7587 9.94331 14.8652 10.2099 14.8652C10.4766 14.8652 10.7322 14.7587 10.9199 14.5694L11.7799 13.6994L13.6999 15.6294ZM19.7 5.70991L17.29 8.11991C17.003 8.40124 16.5754 8.48341 16.2046 8.32853C15.8337 8.17365 15.5916 7.8118 15.59 7.40991C15.5911 7.14757 15.6952 6.89617 15.88 6.70991L18.29 4.28991C18.4777 4.1006 18.7333 3.99411 19 3.99411C19.2666 3.99411 19.5222 4.1006 19.71 4.28991C19.8993 4.47768 20.0058 4.73327 20.0058 4.99991C20.0058 5.26655 19.8993 5.52214 19.71 5.70991H19.7Z" fill="#171E2B"/>
</svg>
