<svg width="24" height="24" viewBox="0 0 24 24" fill="none" xmlns="http://www.w3.org/2000/svg">
<path fill-rule="evenodd" clip-rule="evenodd" d="M0.999985 12.4998V17.4998C0.999985 18.052 1.4477 18.4998 1.99998 18.4998H2.99998C2.99998 20.1566 4.34313 21.4998 5.99998 21.4998C7.65684 21.4998 8.99998 20.1566 8.99998 18.4998H15C15 20.1566 16.3431 21.4998 18 21.4998C19.6568 21.4998 21 20.1566 21 18.4998H22C22.5523 18.4998 23 18.052 23 17.4998V5.49976C23 3.8429 21.6568 2.49976 20 2.49976H11C9.34313 2.49976 7.99998 3.8429 7.99998 5.49976V7.49976H5.99998C5.05571 7.49976 4.16655 7.94434 3.59998 8.69976L1.19998 11.8998C1.17074 11.9432 1.14721 11.9903 1.12998 12.0398L1.06998 12.1498C1.02585 12.2613 1.00214 12.3798 0.999985 12.4998ZM17 18.4998C17 17.9475 17.4477 17.4998 18 17.4998C18.5523 17.4998 19 17.9475 19 18.4998C19 19.052 18.5523 19.4998 18 19.4998C17.4477 19.4998 17 19.052 17 18.4998ZM9.99998 5.5C9.99998 4.94772 10.4477 4.5 11 4.5H20C20.5523 4.5 21 4.94772 21 5.5V16.5H20.22C19.6514 15.8745 18.8453 15.5178 18 15.5178C17.1547 15.5178 16.3486 15.8745 15.78 16.5H9.99998V5.5ZM7.99999 11.4995H3.99998L5.19999 9.89951C5.38884 9.6477 5.68523 9.49951 5.99999 9.49951H7.99999V11.4995ZM4.99997 18.4998C4.99997 17.9475 5.44768 17.4998 5.99997 17.4998C6.55225 17.4998 6.99997 17.9475 6.99997 18.4998C6.99997 19.052 6.55225 19.4998 5.99997 19.4998C5.44768 19.4998 4.99997 19.052 4.99997 18.4998ZM3 13.5H8V16.28C6.77156 15.1821 4.88762 15.2803 3.78 16.5H3V13.5Z" fill="#171E2B"/>
</svg>
