<svg width="24" height="24" viewBox="0 0 24 24" fill="none" xmlns="http://www.w3.org/2000/svg">
<path fill-rule="evenodd" clip-rule="evenodd" d="M2 13.5V15.5C2 16.0523 2.44772 16.5 3 16.5H13C13 18.1569 14.3431 19.5 16 19.5C17.6569 19.5 19 18.1569 19 16.5H21C21.5523 16.5 22 16.0523 22 15.5V7.5C22 5.84315 20.6569 4.5 19 4.5H9C7.34315 4.5 6 5.84315 6 7.5V14.5H4V13.5C4 12.9477 3.55228 12.5 3 12.5C2.44772 12.5 2 12.9477 2 13.5ZM15 16.5002C15 15.948 15.4477 15.5002 16 15.5002C16.5523 15.5002 17 15.948 17 16.5002C17 17.0525 16.5523 17.5002 16 17.5002C15.4477 17.5002 15 17.0525 15 16.5002ZM8 10.5H20V14.5H18.22C17.6514 13.8745 16.8453 13.5178 16 13.5178C15.1547 13.5178 14.3486 13.8745 13.78 14.5H8V10.5ZM8 7.50025C8 6.94796 8.44772 6.50025 9 6.50025H19C19.5523 6.50025 20 6.94796 20 7.50025V8.50025H8V7.50025Z" fill="#171E2B"/>
</svg>
