<svg width="24" height="24" viewBox="0 0 24 24" fill="none" xmlns="http://www.w3.org/2000/svg">
<path fill-rule="evenodd" clip-rule="evenodd" d="M22 16.0002H19.82C19.9364 15.6796 19.9973 15.3414 20 15.0002V10.0002C20 8.34339 18.6569 7.00024 17 7.00024H11C9.34315 7.00024 8 8.34339 8 10.0002V15.0002C8.0027 15.3414 8.06358 15.6796 8.18 16.0002H7C6.44771 16.0002 6 15.5525 6 15.0002V5.00024C6 3.34339 4.65685 2.00024 3 2.00024H2C1.44772 2.00024 1 2.44796 1 3.00024C1 3.55253 1.44772 4.00024 2 4.00024H3C3.55228 4.00024 4 4.44796 4 5.00024V15.0002C4.00758 16.3504 4.91621 17.5292 6.22 17.8802C5.71357 19.1192 6.08912 20.5437 7.14053 21.372C8.19194 22.2002 9.66482 22.2318 10.7507 21.4493C11.8367 20.6669 12.2729 19.2597 11.82 18.0002H15.18C14.728 19.2455 15.1464 20.6399 16.2092 21.4307C17.2721 22.2215 18.7279 22.2215 19.7908 21.4307C20.8536 20.6399 21.272 19.2455 20.82 18.0002H22C22.5523 18.0002 23 17.5525 23 17.0002C23 16.448 22.5523 16.0002 22 16.0002ZM9.00001 20C8.44772 20 8.00001 19.5523 8.00001 19C8.00001 18.4477 8.44772 18 9.00001 18C9.55229 18 10 18.4477 10 19C10 19.5523 9.55229 20 9.00001 20ZM11 16C10.4477 16 10 15.5523 10 15V10C10 9.44771 10.4477 9 11 9H17C17.5523 9 18 9.44771 18 10V15C18 15.5523 17.5523 16 17 16H11ZM18 20C17.4477 20 17 19.5523 17 19C17 18.4477 17.4477 18 18 18C18.5523 18 19 18.4477 19 19C19 19.5523 18.5523 20 18 20Z" fill="#171E2B"/>
</svg>
