<svg width="24" height="24" viewBox="0 0 24 24" fill="none" xmlns="http://www.w3.org/2000/svg">
<path fill-rule="evenodd" clip-rule="evenodd" d="M11.62 7.91972C11.7402 7.97096 11.8693 7.99814 12 7.99972H18C18.5523 7.99972 19 8.44744 19 8.99972V14.3397C19 14.892 19.4477 15.3397 20 15.3397C20.5523 15.3397 21 14.892 21 14.3397V8.99972C21 7.34287 19.6569 5.99972 18 5.99972H14.41L16.71 3.70972C16.9637 3.45606 17.0627 3.08635 16.9699 2.73984C16.877 2.39334 16.6064 2.12269 16.2599 2.02984C15.9134 1.937 15.5437 2.03606 15.29 2.28972L11.29 6.28972C11.199 6.38482 11.1276 6.49697 11.08 6.61972C10.98 6.86318 10.98 7.13626 11.08 7.37972C11.1815 7.62407 11.3757 7.81825 11.62 7.91972ZM21.71 20.2898L3.71 2.28979C3.31788 1.89767 2.68212 1.89767 2.29 2.28979C1.89788 2.68191 1.89788 3.31767 2.29 3.70979L4.83 6.23979C3.72149 6.70929 3.00098 7.79595 3 8.99979V16.9998C3 18.6566 4.34315 19.9998 6 19.9998V20.9998C6 21.5521 6.44772 21.9998 7 21.9998C7.55229 21.9998 8 21.5521 8 20.9998V19.9998H16V20.9998C16 21.5521 16.4477 21.9998 17 21.9998C17.5523 21.9998 18 21.5521 18 20.9998V19.9998C18.1781 19.9952 18.3554 19.9751 18.53 19.9398L20.29 21.7098C20.4778 21.8991 20.7334 22.0056 21 22.0056C21.2666 22.0056 21.5222 21.8991 21.71 21.7098C21.8993 21.522 22.0058 21.2664 22.0058 20.9998C22.0058 20.7332 21.8993 20.4776 21.71 20.2898ZM6 17.9994C5.44772 17.9994 5 17.5517 5 16.9994V8.99939C5 8.4471 5.44772 7.99939 6 7.99939H6.59L16.59 17.9994H6Z" fill="#171E2B"/>
</svg>
