<svg width="24" height="24" viewBox="0 0 24 24" fill="none" xmlns="http://www.w3.org/2000/svg">
<path fill-rule="evenodd" clip-rule="evenodd" d="M18 5.99972H14.41L16.71 3.70972C16.9637 3.45606 17.0627 3.08635 16.9699 2.73984C16.877 2.39334 16.6064 2.12269 16.2599 2.02984C15.9134 1.937 15.5437 2.03606 15.29 2.28972L12 5.53972L10.83 3.53972C10.6514 3.2289 10.3205 3.03699 9.96199 3.03628C9.60349 3.03557 9.27185 3.22617 9.09199 3.53628C8.91212 3.84639 8.91137 4.2289 9.09 4.53972L10 5.99972H6C4.34315 5.99972 3 7.34287 3 8.99972V16.9997C3 18.6566 4.34315 19.9997 6 19.9997V20.9997C6 21.552 6.44772 21.9997 7 21.9997C7.55228 21.9997 8 21.552 8 20.9997V19.9997H16V20.9997C16 21.552 16.4477 21.9997 17 21.9997C17.5523 21.9997 18 21.552 18 20.9997V19.9997C19.6569 19.9997 21 18.6566 21 16.9997V8.99972C21 7.34287 19.6569 5.99972 18 5.99972ZM19 16.9994C19 17.5517 18.5523 17.9994 18 17.9994H6C5.44772 17.9994 5 17.5517 5 16.9994V8.99939C5 8.4471 5.44772 7.99939 6 7.99939H18C18.5523 7.99939 19 8.4471 19 8.99939V16.9994Z" fill="#171E2B"/>
</svg>
