<svg width="24" height="24" viewBox="0 0 24 24" fill="none" xmlns="http://www.w3.org/2000/svg">
<path fill-rule="evenodd" clip-rule="evenodd" d="M14.0238 3.90045C12.2435 4.57997 11.0734 6.29312 11.0862 8.19652C8.69777 8.01729 6.49568 6.77933 5.10298 4.79619C4.73081 4.26624 3.9228 4.34487 3.65979 4.93664C3.55126 5.18085 3.39849 5.59722 3.24818 6.14982C2.75129 7.97662 2.66435 9.90014 3.25996 11.7305C3.83682 13.5033 5.01271 15.0019 6.84912 16.1339C5.5842 16.7165 4.19315 16.9959 2.78793 16.94C1.91112 16.9051 1.58312 18.0747 2.3502 18.5008C10.7148 23.1478 20.2513 18.072 20.2513 8.1911C20.2508 8.05447 20.2444 7.91864 20.232 7.78369C21.0365 6.89103 21.6086 5.81088 21.894 4.63899C22.0761 3.89103 21.2333 3.31729 20.6042 3.76102C20.014 4.17735 19.3722 4.51394 18.6956 4.76265C17.4348 3.63435 15.6338 3.28595 14.0238 3.90045ZM18.7664 6.90635C18.5684 7.10163 18.4809 7.38284 18.5331 7.656C18.567 7.83329 18.5844 8.01335 18.585 8.19385C18.585 15.6448 12.4288 19.8921 6.03082 18.2089C7.10087 17.9034 8.12251 17.4284 9.0549 16.7955C9.59561 16.4285 9.52254 15.6102 8.92535 15.3448C6.69986 14.3557 5.40859 12.9484 4.84451 11.2149C4.4046 9.86303 4.42867 8.39802 4.7578 6.97739C6.62899 8.88315 9.2245 9.95259 11.9412 9.88214C12.3928 9.87043 12.7528 9.50099 12.7528 9.04926V8.21609C12.7364 6.9884 13.4813 5.89108 14.618 5.45725C15.7546 5.02341 17.0412 5.34534 17.8396 6.26335C18.0547 6.51063 18.3947 6.60887 18.7085 6.51438C18.9015 6.45627 19.0925 6.39234 19.2812 6.32273C19.1239 6.52823 18.952 6.72332 18.7664 6.90635Z" fill="#171E2B"/>
</svg>
