<svg width="24" height="24" viewBox="0 0 24 24" fill="none" xmlns="http://www.w3.org/2000/svg">
<path fill-rule="evenodd" clip-rule="evenodd" d="M21 11.2402C20.9951 11.2138 20.9951 11.1867 21 11.1602V10.9702C21 10.7402 20.94 10.5102 20.9 10.2802C20.8943 10.2271 20.8943 10.1734 20.9 10.1202C20.85 9.87024 20.78 9.63024 20.71 9.39024C19.842 6.58825 17.6505 4.393 14.85 3.52024H14.77C14.55 3.45024 14.32 3.39024 14.09 3.34024H13.91C13.7282 3.30381 13.5446 3.27711 13.36 3.26024H13.12V3.00024C13.12 2.44796 12.6723 2.00024 12.12 2.00024C11.5677 2.00024 11.12 2.44796 11.12 3.00024V3.06024C10.7834 3.10071 10.4495 3.16081 10.12 3.24024C9.90993 3.27945 9.70278 3.33291 9.49999 3.40024H9.36999C9.11999 3.48024 8.88999 3.57024 8.64999 3.66024C6.14927 4.65038 4.22803 6.7149 3.41999 9.28024C3.41653 9.3068 3.41653 9.33369 3.41999 9.36024C3.34269 9.59634 3.27925 9.83675 3.22999 10.0802V10.2402C3.17665 10.4802 3.13665 10.7302 3.10999 10.9902C3.10999 10.9902 3.10999 11.0602 3.10999 11.1002C3.10999 11.1402 3.10999 11.1602 3.10999 11.1902C3.10999 11.2202 3.10999 11.1902 3.10999 11.2402C3.10999 11.4902 3.10999 11.7402 3.10999 12.0002C3.10999 12.5525 3.5577 13.0002 4.10999 13.0002H11.11V19.0002C11.11 19.5525 10.6623 20.0002 10.11 20.0002C9.5577 20.0002 9.10999 19.5525 9.10999 19.0002C9.10999 18.448 8.66227 18.0002 8.10999 18.0002C7.5577 18.0002 7.10999 18.448 7.10999 19.0002C7.10999 20.6571 8.45313 22.0002 10.11 22.0002C11.7668 22.0002 13.11 20.6571 13.11 19.0002V13.0002H20.11C20.6623 13.0002 21.11 12.5525 21.11 12.0002C21 11.7402 21 11.4902 21 11.2402ZM7.99998 11H5.07998C5.07998 11 5.07998 10.93 5.07998 10.89C5.07998 10.85 5.07998 10.61 5.15998 10.48C5.23998 10.35 5.15998 10.35 5.15998 10.29C5.15998 10.23 5.23998 9.97 5.28998 9.81V9.73C5.93694 7.89675 7.31714 6.41512 9.09998 5.64C8.42998 7.35076 8.05793 9.16363 7.99998 11ZM9.99998 11.0002C10.19 7.09024 11.44 5.00024 12 5.00024C12.56 5.00024 13.79 7.09024 14 11.0002H9.99998ZM16 11C15.942 9.16363 15.57 7.35076 14.9 5.64C16.6586 6.43977 18.0085 7.93079 18.63 9.76C18.6905 9.93351 18.7406 10.1105 18.78 10.29C18.7755 10.3399 18.7755 10.3901 18.78 10.44C18.78 10.58 18.84 10.73 18.86 10.87C18.88 11.01 18.86 10.94 18.86 10.98L16 11Z" fill="#171E2B"/>
</svg>
