<svg width="24" height="24" viewBox="0 0 24 24" fill="none" xmlns="http://www.w3.org/2000/svg">
<path fill-rule="evenodd" clip-rule="evenodd" d="M14.66 13.5599L10.47 15.0599C10.0156 15.2248 9.74412 15.6911 9.82518 16.1677C9.90625 16.6442 10.3166 16.9946 10.8 16.9999C10.916 16.9998 11.031 16.9795 11.14 16.9399L15.34 15.4399C15.6857 15.3258 15.9421 15.0329 16.0094 14.6752C16.0767 14.3175 15.9443 13.9514 15.6637 13.7195C15.3831 13.4876 14.9987 13.4265 14.66 13.5599ZM10.66 10.5604C11.0477 10.1704 11.0477 9.54047 10.66 9.15043C9.4716 8.0228 7.60843 8.0228 6.42002 9.15043C6.13464 9.39482 6.01033 9.77855 6.09821 10.1439C6.18608 10.5092 6.4713 10.7944 6.8366 10.8822C7.2019 10.9701 7.58562 10.8458 7.83001 10.5604C8.01778 10.3711 8.27338 10.2646 8.54001 10.2646C8.80665 10.2646 9.06225 10.3711 9.25001 10.5604C9.64005 10.9482 10.27 10.9482 10.66 10.5604ZM17.66 9.15043C16.4716 8.0228 14.6084 8.0228 13.42 9.15043C13.0802 9.54719 13.1031 10.1386 13.4724 10.508C13.8418 10.8774 14.4332 10.9002 14.83 10.5604C15.0178 10.3711 15.2734 10.2646 15.54 10.2646C15.8066 10.2646 16.0622 10.3711 16.25 10.5604C16.64 10.9482 17.27 10.9482 17.66 10.5604C17.8472 10.367 17.9486 10.1062 17.941 9.83701C17.9335 9.56787 17.8178 9.31313 17.62 9.13043L17.66 9.15043ZM12 2.00024C6.47715 2.00024 2 6.4774 2 12.0002C2 17.5231 6.47715 22.0002 12 22.0002C17.5228 22.0002 22 17.5231 22 12.0002C22 9.34808 20.9464 6.80454 19.0711 4.92918C17.1957 3.05381 14.6522 2.00024 12 2.00024ZM12 20.0005C7.58174 20.0005 4.00002 16.4188 4.00002 12.0005C4.00002 7.58221 7.58174 4.00049 12 4.00049C16.4183 4.00049 20 7.58221 20 12.0005C20 14.1222 19.1572 16.1571 17.6569 17.6573C16.1566 19.1576 14.1217 20.0005 12 20.0005Z" fill="#171E2B"/>
</svg>
