<svg width="90" height="90" viewBox="0 0 90 90" fill="none" xmlns="http://www.w3.org/2000/svg">
<path d="M43.5505 46.3698L23.479 40.261L22.6063 55.9692V58.1509L32.2057 60.7689L44.4232 62.5143L58.386 60.3326L65.8037 58.1509L64.0584 40.261L43.5505 46.3698Z" fill="#F3CCD4"/>
<path d="M43.5505 41.1337L13.0068 31.5343L44.4231 21.9349L77.1484 30.2253L43.5505 41.1337Z" fill="#F3CCD4"/>
<path d="M69.2944 59.4599L71.4761 57.7145H73.2215V59.4599V61.6416L71.9125 62.5142L70.1671 61.6416L69.2944 59.4599Z" fill="#F3CCD4"/>
<path d="M78.6215 29.7244C78.4852 29.6221 78.3284 29.571 78.1647 29.5539L44.2256 21.0283C44.0619 20.9874 43.8881 20.9908 43.7244 21.0385L11.1632 30.713C11.0814 30.7369 11.0166 30.7846 10.9484 30.8289C10.9212 30.846 10.8905 30.846 10.8666 30.863C10.8598 30.8664 10.8598 30.8732 10.853 30.8766C10.7439 30.9619 10.6587 31.0641 10.5939 31.1834C10.5803 31.2107 10.5769 31.2414 10.5666 31.2721C10.5291 31.3675 10.4985 31.4664 10.4951 31.5721C10.4951 31.5891 10.4848 31.6027 10.4848 31.6164L10.461 36.6479C10.4576 37.0672 10.7303 37.4353 11.1325 37.5581L22.9957 41.1783L21.2435 57.7216C21.2912 60.0294 28.7805 61.9895 43.6739 63.544C43.725 63.5508 43.7693 63.5746 43.8204 63.5746H43.8239C43.8409 63.5746 43.8545 63.5678 43.8682 63.5644C43.8818 63.5644 43.8954 63.5678 43.9091 63.5678C58.9828 62.1701 66.6667 60.2885 66.7383 57.8477L65.1088 40.5478L70.4914 38.7717L70.5664 56.6651C69.312 57.0912 68.395 58.3183 68.3848 59.7808V59.7842C68.3813 60.4455 68.562 61.0796 68.8995 61.6182C68.8756 61.7205 68.8654 61.8227 68.862 61.9318C68.862 62.0102 68.9097 62.0716 68.92 62.1466C68.2245 62.8965 67.0825 64.4987 66.9564 67.0588C66.7451 71.2892 65.9167 76.488 64.785 77.79C64.6179 77.9809 64.5361 78.2332 64.56 78.4855C64.5804 78.7411 64.6997 78.9729 64.8975 79.1366C64.9997 79.2218 67.5427 81.2944 71.3778 81.158C71.4903 81.1614 71.5993 81.1648 71.7118 81.1648C75.4786 81.1648 77.824 79.29 77.9262 79.2081C78.1239 79.0445 78.2467 78.8127 78.2705 78.5604C78.2944 78.3048 78.216 78.0525 78.0524 77.8582C76.9377 76.5458 76.1638 71.3336 76.0002 67.1034C75.9081 64.6626 74.8821 63.0877 74.1901 62.2866C74.2139 62.181 74.2412 62.0753 74.2412 61.9628C74.2412 61.8094 74.2208 61.6594 74.173 61.5128C74.4662 61.0049 74.6264 60.422 74.6298 59.8118C74.6366 58.3392 73.723 57.0983 72.4652 56.6654L72.3867 38.1411L78.3216 36.1844C78.7068 36.0583 78.9727 35.6969 78.9727 35.2913L79 30.4746C78.9966 30.1882 78.8602 29.9053 78.6216 29.7246L78.6215 29.7244ZM42.8724 61.577C34.0331 60.5952 24.3857 58.8635 23.1517 57.5852L24.8323 41.7444L42.9098 47.2634L42.8724 61.577ZM44.7712 61.6043L44.8121 47.2461L63.2648 41.1612L64.8329 57.8032C63.5477 59.0814 53.6243 60.7246 44.7719 61.6041L44.7712 61.6043ZM43.8508 45.5654L12.3559 35.952L12.373 32.884L43.6497 42.0235C43.8337 42.0781 44.0246 42.0747 44.2019 42.0167L70.4677 33.6786L70.4813 36.7875L43.8508 45.5654ZM49.3731 31.4455C48.7698 30.1467 46.9733 29.2468 44.6995 29.2468C41.9009 29.2468 39.7941 30.6001 39.7941 32.3932C39.7941 34.1863 41.9043 35.5431 44.6995 35.5431C46.9733 35.5431 48.7732 34.6397 49.3731 33.3409H65.2654L43.9023 40.1212L14.7803 31.6126L44.0114 22.9268L74.3709 30.5525L71.2824 31.4422L49.3731 31.4455ZM47.7131 32.3931C47.7131 32.8363 46.5711 33.6476 44.6996 33.6476C42.8316 33.6476 41.6896 32.8363 41.6896 32.3931C41.6896 31.95 42.8316 31.1421 44.6996 31.1421C46.5711 31.1421 47.7131 31.9534 47.7131 32.3931ZM74.101 67.1875C74.1351 68.0534 74.4487 75.0212 76.027 78.1911C75.7406 78.3513 75.3384 78.5286 74.8884 78.7024C74.4521 77.5809 74.2919 76.3741 74.2884 76.3605C74.2237 75.8424 73.7396 75.4742 73.2317 75.539C72.7136 75.6038 72.3454 76.0742 72.4102 76.5957C72.417 76.6639 72.5806 77.9047 73.0442 79.1865C72.5329 79.2615 71.9841 79.3024 71.3841 79.2751C70.9751 79.2922 70.5899 79.2581 70.208 79.2172C71.4455 77.2605 71.6705 74.4584 71.6943 74.0732C71.725 73.5516 71.3261 73.1051 70.808 73.071C70.2149 73.0608 69.833 73.4392 69.8058 73.9573C69.7445 74.9595 69.3286 77.6321 68.1866 78.7468C67.6275 78.5457 67.1367 78.3275 66.8026 78.14C68.415 74.9834 68.807 68.0222 68.848 67.16C68.94 65.2886 69.7104 64.1227 70.2013 63.5569C70.5968 63.7171 71.0331 63.833 71.541 63.8364H71.5615C72.0115 63.8364 72.4308 63.7409 72.816 63.6046C73.2966 64.1841 74.0261 65.3499 74.1012 67.1873L74.101 67.1875ZM72.7272 59.8141C72.7238 60.2028 72.5875 60.5641 72.3386 60.83C72.0898 61.0959 72.0591 61.5016 72.192 61.839C72.0455 61.8936 71.8307 61.9345 71.558 61.9345C71.275 61.9174 71.0501 61.8867 70.9001 61.8322C71.0194 61.5049 70.9478 61.1231 70.6887 60.8538C70.4228 60.5777 70.2762 60.2027 70.2797 59.7971C70.2831 59.0233 70.8353 58.396 71.5068 58.396H71.5102C72.1852 58.3994 72.734 59.0369 72.7272 59.8141L72.7272 59.8141ZM77.077 34.6122L72.3727 36.1632L72.3591 33.1088L77.0907 31.7419L77.077 34.6122Z" fill="#C1002A"/>
<path d="M67.9853 70.8702V69.5878C67.9853 67.5361 68.5926 65.5304 69.7307 63.8233C69.9981 63.2885 70.5447 62.9506 71.1427 62.9506H71.7345C72.4072 62.9506 73.0523 63.2178 73.5279 63.6935L73.7397 63.9052C74.2522 64.4177 74.5792 65.0864 74.6691 65.8056L75.4031 71.6774L76.5785 76.0853C76.9192 77.363 76.4084 78.7158 75.3081 79.4493C74.801 79.7874 74.2052 79.9678 73.5957 79.9678H69.2289C68.6999 79.9678 68.1801 79.8297 67.7208 79.5673C66.3797 78.801 65.8266 77.1506 66.4351 75.7309L67.4955 73.2566C67.8187 72.5025 67.9853 71.6907 67.9853 70.8702Z" fill="#C1002A"/>
</svg>
