<svg width="24" height="24" viewBox="0 0 24 24" fill="none" xmlns="http://www.w3.org/2000/svg">
<path fill-rule="evenodd" clip-rule="evenodd" d="M17 9.00006H8.99998V7.00006C8.997 5.78568 9.72643 4.68927 10.8477 4.22282C11.9689 3.75637 13.2608 4.01189 14.12 4.87006C14.4959 5.25413 14.7648 5.72989 14.9 6.25006C14.9893 6.59661 15.2567 6.86918 15.6015 6.96511C15.9463 7.06103 16.316 6.96573 16.5715 6.71511C16.827 6.46448 16.9293 6.09661 16.84 5.75006C16.6122 4.88486 16.1603 4.095 15.53 3.46006C14.0989 2.03345 11.9498 1.60847 10.0834 2.38302C8.21709 3.15757 7.00041 4.97937 6.99998 7.00006V9.00006C5.34313 9.00006 3.99998 10.3432 3.99998 12.0001V19.0001C3.99998 20.6569 5.34313 22.0001 6.99998 22.0001H17C18.6568 22.0001 20 20.6569 20 19.0001V12.0001C20 10.3432 18.6568 9.00006 17 9.00006ZM18 19.0001C18 19.5524 17.5523 20.0001 17 20.0001H7C6.44772 20.0001 6 19.5524 6 19.0001V12.0001C6 11.4478 6.44772 11.0001 7 11.0001H17C17.5523 11.0001 18 11.4478 18 12.0001V19.0001Z" fill="#171E2B"/>
</svg>
