<svg width="24" height="24" viewBox="0 0 24 24" fill="none" xmlns="http://www.w3.org/2000/svg">
<path fill-rule="evenodd" clip-rule="evenodd" d="M8.71002 7.70965L11 5.40965V14.9996C11 15.5519 11.4477 15.9996 12 15.9996C12.5523 15.9996 13 15.5519 13 14.9996V5.40965L15.29 7.70965C15.4778 7.89896 15.7334 8.00545 16 8.00545C16.2667 8.00545 16.5223 7.89896 16.71 7.70965C16.8993 7.52188 17.0058 7.26629 17.0058 6.99965C17.0058 6.73301 16.8993 6.47742 16.71 6.28965L12.71 2.28965C12.6149 2.19861 12.5028 2.12725 12.38 2.07965C12.1366 1.97963 11.8635 1.97963 11.62 2.07965C11.4973 2.12725 11.3851 2.19861 11.29 2.28965L7.29002 6.28965C7.03636 6.54331 6.9373 6.91302 7.03014 7.25953C7.12299 7.60603 7.39364 7.87668 7.74014 7.96953C8.08665 8.06237 8.45636 7.96331 8.71002 7.70965ZM21 11.9999C20.4477 11.9999 20 12.4477 20 12.9999V18.9999C20 19.5522 19.5523 19.9999 19 19.9999H5C4.44772 19.9999 4 19.5522 4 18.9999V12.9999C4 12.4477 3.55228 11.9999 3 11.9999C2.44772 11.9999 2 12.4477 2 12.9999V18.9999C2 20.6568 3.34315 21.9999 5 21.9999H19C20.6569 21.9999 22 20.6568 22 18.9999V12.9999C22 12.4477 21.5523 11.9999 21 11.9999Z" fill="#171E2B"/>
</svg>
