<svg width="24" height="24" viewBox="0 0 24 24" fill="none" xmlns="http://www.w3.org/2000/svg">
<path fill-rule="evenodd" clip-rule="evenodd" d="M9.71 6.70969L11 5.40969V16.9997C11 17.552 11.4477 17.9997 12 17.9997C12.5523 17.9997 13 17.552 13 16.9997V5.40969L14.29 6.70969C14.4778 6.89901 14.7334 7.00549 15 7.00549C15.2666 7.00549 15.5222 6.89901 15.71 6.70969C15.8993 6.52193 16.0058 6.26633 16.0058 5.99969C16.0058 5.73306 15.8993 5.47746 15.71 5.28969L12.71 2.28969C12.5222 2.10038 12.2666 1.9939 12 1.9939C11.7334 1.9939 11.4778 2.10038 11.29 2.28969L8.29 5.28969C7.89788 5.68182 7.89788 6.31757 8.29 6.70969C8.68212 7.10182 9.31788 7.10182 9.71 6.70969ZM18 9H16C15.4477 9 15 9.44771 15 10C15 10.5523 15.4477 11 16 11H18C18.5523 11 19 11.4477 19 12V19C19 19.5523 18.5523 20 18 20H6C5.44772 20 5 19.5523 5 19V12C5 11.4477 5.44772 11 6 11H8C8.55228 11 9 10.5523 9 10C9 9.44771 8.55228 9 8 9H6C4.34315 9 3 10.3431 3 12V19C3 20.6568 4.34315 22 6 22H18C19.6569 22 21 20.6568 21 19V12C21 10.3431 19.6569 9 18 9Z" fill="#171E2B"/>
</svg>
