<svg width="24" height="24" viewBox="0 0 24 24" fill="none" xmlns="http://www.w3.org/2000/svg">
<path fill-rule="evenodd" clip-rule="evenodd" d="M11 9.00024H15C15.5523 9.00024 16 8.55253 16 8.00024C16 7.44796 15.5523 7.00024 15 7.00024H13V6.00024C13 5.44796 12.5523 5.00024 12 5.00024C11.4477 5.00024 11 5.44796 11 6.00024V7.00024C9.34315 7.00024 8 8.34339 8 10.0002C8 11.6571 9.34315 13.0002 11 13.0002H13C13.5523 13.0002 14 13.448 14 14.0002C14 14.5525 13.5523 15.0002 13 15.0002H9C8.44771 15.0002 8 15.448 8 16.0002C8 16.5525 8.44771 17.0002 9 17.0002H11V18.0002C11 18.5525 11.4477 19.0002 12 19.0002C12.5523 19.0002 13 18.5525 13 18.0002V17.0002C14.6569 17.0002 16 15.6571 16 14.0002C16 12.3434 14.6569 11.0002 13 11.0002H11C10.4477 11.0002 10 10.5525 10 10.0002C10 9.44796 10.4477 9.00024 11 9.00024ZM19 2.00024H5C3.34315 2.00024 2 3.34339 2 5.00024V19.0002C2 20.6571 3.34315 22.0002 5 22.0002H19C20.6569 22.0002 22 20.6571 22 19.0002V5.00024C22 3.34339 20.6569 2.00024 19 2.00024ZM20 19.0005C20 19.5528 19.5523 20.0005 19 20.0005H5C4.44772 20.0005 4 19.5528 4 19.0005V5.00049C4 4.44821 4.44772 4.00049 5 4.00049H19C19.5523 4.00049 20 4.44821 20 5.00049V19.0005Z" fill="#171E2B"/>
</svg>
