<svg width="24" height="24" viewBox="0 0 24 24" fill="none" xmlns="http://www.w3.org/2000/svg">
<path fill-rule="evenodd" clip-rule="evenodd" d="M11 8.99951H15C15.5523 8.99951 16 8.55179 16 7.99951C16 7.44722 15.5523 6.99951 15 6.99951H13V5.99951C13 5.44722 12.5523 4.99951 12 4.99951C11.4477 4.99951 11 5.44722 11 5.99951V6.99951C9.34315 6.99951 8.00001 8.34265 8.00001 9.99951C8.00001 11.6564 9.34315 12.9995 11 12.9995H13C13.5523 12.9995 14 13.4472 14 13.9995C14 14.5518 13.5523 14.9995 13 14.9995H9.00001C8.44772 14.9995 8.00001 15.4472 8.00001 15.9995C8.00001 16.5518 8.44772 16.9995 9.00001 16.9995H11V17.9995C11 18.5518 11.4477 18.9995 12 18.9995C12.5523 18.9995 13 18.5518 13 17.9995V16.9995C14.6569 16.9995 16 15.6564 16 13.9995C16 12.3427 14.6569 10.9995 13 10.9995H11C10.4477 10.9995 10 10.5518 10 9.99951C10 9.44722 10.4477 8.99951 11 8.99951ZM12 0.999756C5.92487 0.999756 1 5.92462 1 11.9998C1 18.0749 5.92487 22.9998 12 22.9998C18.0751 22.9998 23 18.0749 23 11.9998C23 9.08237 21.8411 6.28448 19.7782 4.22158C17.7153 2.15868 14.9174 0.999756 12 0.999756ZM12 21C7.02943 21 2.99999 16.9706 2.99999 12C2.99999 7.02944 7.02943 3 12 3C16.9706 3 21 7.02944 21 12C21 16.9706 16.9706 21 12 21Z" fill="#171E2B"/>
</svg>
