<svg width="24" height="24" viewBox="0 0 24 24" fill="none" xmlns="http://www.w3.org/2000/svg">
<path fill-rule="evenodd" clip-rule="evenodd" d="M12.3 12.2202C13.3797 11.2857 14 9.92819 14 8.50025C14 5.73882 11.7614 3.50025 9 3.50025C6.23858 3.50025 4 5.73882 4 8.50025C3.99999 9.92819 4.62035 11.2857 5.7 12.2202C2.84094 13.5149 1.00301 16.3617 1 19.5002C1 20.0525 1.44772 20.5002 2 20.5002C2.55229 20.5002 3 20.0525 3 19.5002C3 16.1865 5.68629 13.5002 9 13.5002C12.3137 13.5002 15 16.1865 15 19.5002C15 20.0525 15.4477 20.5002 16 20.5002C16.5523 20.5002 17 20.0525 17 19.5002C16.997 16.3617 15.1591 13.5149 12.3 12.2202ZM9 11.5005C7.34315 11.5005 6 10.1573 6 8.50049C6 6.84364 7.34315 5.50049 9 5.50049C10.6569 5.50049 12 6.84364 12 8.50049C12 9.29614 11.6839 10.0592 11.1213 10.6218C10.5587 11.1844 9.79565 11.5005 9 11.5005ZM18.74 11.8202C20.0473 10.3481 20.369 8.24592 19.5618 6.45024C18.7546 4.65457 16.9688 3.49972 15 3.50025C14.4477 3.50025 14 3.94796 14 4.50024C14 5.05253 14.4477 5.50024 15 5.50024C16.6569 5.50024 18 6.84339 18 8.50025C17.9971 9.56916 17.4257 10.5558 16.5 11.0902C16.1985 11.2642 16.0091 11.5823 16 11.9302C15.9915 12.2754 16.1616 12.6005 16.45 12.7902L16.84 13.0502L16.97 13.1202C19.4311 14.2875 20.9915 16.7765 20.97 19.5002C20.97 20.0525 21.4177 20.5002 21.97 20.5002C22.5223 20.5002 22.97 20.0525 22.97 19.5002C22.9866 16.3801 21.386 13.4739 18.74 11.8202Z" fill="#171E2B"/>
</svg>
