<svg width="24" height="24" viewBox="0 0 24 24" fill="none" xmlns="http://www.w3.org/2000/svg">
<path fill-rule="evenodd" clip-rule="evenodd" d="M13.3 12.2202C14.3796 11.2857 15 9.92819 15 8.50024C15 5.73882 12.7614 3.50024 10 3.50024C7.23858 3.50024 5 5.73882 5 8.50024C4.99998 9.92819 5.62035 11.2857 6.7 12.2202C3.84094 13.5149 2.00301 16.3617 2 19.5002C2 20.0525 2.44772 20.5002 3 20.5002C3.55228 20.5002 4 20.0525 4 19.5002C4 16.1865 6.68629 13.5002 10 13.5002C13.3137 13.5002 16 16.1865 16 19.5002C16 20.0525 16.4477 20.5002 17 20.5002C17.5523 20.5002 18 20.0525 18 19.5002C17.997 16.3617 16.1591 13.5149 13.3 12.2202ZM9.99999 11.5005C8.34314 11.5005 6.99999 10.1573 6.99999 8.50049C6.99999 6.84364 8.34314 5.50049 9.99999 5.50049C11.6568 5.50049 13 6.84364 13 8.50049C13 9.29614 12.6839 10.0592 12.1213 10.6218C11.5587 11.1844 10.7956 11.5005 9.99999 11.5005ZM21.71 9.13044C21.5222 8.94112 21.2666 8.83464 21 8.83464C20.7334 8.83464 20.4778 8.94112 20.29 9.13044L18.29 11.1304L17.67 10.5004C17.4822 10.3111 17.2266 10.2046 16.96 10.2046C16.6934 10.2046 16.4378 10.3111 16.25 10.5004C15.8623 10.8905 15.8623 11.5204 16.25 11.9104L17.59 13.2504C17.98 13.6382 18.61 13.6382 19 13.2504L21.67 10.5804C21.874 10.3972 21.9939 10.1382 22.0014 9.86403C22.009 9.58988 21.9036 9.32466 21.71 9.13044Z" fill="#171E2B"/>
</svg>
