<svg width="24" height="24" viewBox="0 0 24 24" fill="none" xmlns="http://www.w3.org/2000/svg">
<path fill-rule="evenodd" clip-rule="evenodd" d="M14.55 12.2202C15.6296 11.2857 16.25 9.92819 16.25 8.50024C16.25 5.73882 14.0114 3.50024 11.25 3.50024C8.48856 3.50024 6.24999 5.73882 6.24999 8.50024C6.26248 9.93621 6.90172 11.2951 7.99999 12.2202C5.14093 13.5149 3.30299 16.3617 3.29999 19.5002C3.29999 20.0525 3.7477 20.5002 4.29999 20.5002C4.85227 20.5002 5.29999 20.0525 5.29999 19.5002C5.29999 16.1865 7.98628 13.5002 11.3 13.5002C14.6137 13.5002 17.3 16.1865 17.3 19.5002C17.3 20.0525 17.7477 20.5002 18.3 20.5002C18.8523 20.5002 19.3 20.0525 19.3 19.5002C19.2881 16.35 17.4286 13.5 14.55 12.2202ZM11.25 11.5005C9.59313 11.5005 8.24999 10.1573 8.24999 8.50049C8.24999 6.84364 9.59313 5.50049 11.25 5.50049C12.9068 5.50049 14.25 6.84364 14.25 8.50049C14.25 9.29614 13.9339 10.0592 13.3713 10.6218C12.8087 11.1844 12.0456 11.5005 11.25 11.5005ZM19.75 6.50025C19.1977 6.50025 18.75 6.94796 18.75 7.50025V9.50024C18.75 10.0525 19.1977 10.5002 19.75 10.5002C20.3023 10.5002 20.75 10.0525 20.75 9.50024V7.50025C20.75 6.94796 20.3023 6.50025 19.75 6.50025ZM19 11.7905C18.8173 11.9822 18.7137 12.2358 18.71 12.5005C18.7085 12.7663 18.8128 13.0218 19 13.2105C19.0972 13.2989 19.2088 13.3699 19.33 13.4205C19.572 13.5275 19.848 13.5275 20.09 13.4205C20.3412 13.3296 20.5391 13.1318 20.63 12.8805C20.686 12.7619 20.7134 12.6317 20.71 12.5005C20.7124 12.0943 20.4687 11.727 20.0935 11.5712C19.7183 11.4154 19.2861 11.5021 19 11.7905Z" fill="#171E2B"/>
</svg>
