<svg width="24" height="24" viewBox="0 0 24 24" fill="none" xmlns="http://www.w3.org/2000/svg">
<path fill-rule="evenodd" clip-rule="evenodd" d="M12 2.00024C8.0371 2.00777 4.45253 4.35476 2.86094 7.98401C1.26936 11.6133 1.97107 15.84 4.65 18.7602C6.54316 20.8124 9.20801 21.9796 12 21.9796C14.792 21.9796 17.4568 20.8124 19.35 18.7602C22.0289 15.84 22.7306 11.6133 21.1391 7.98401C19.5475 4.35476 15.9629 2.00777 12 2.00024ZM12 20.0004C9.92847 19.9972 7.93892 19.1906 6.45 17.7504C7.37453 15.4997 9.56681 14.0302 12 14.0302C14.4332 14.0302 16.6255 15.4997 17.55 17.7504C16.0611 19.1906 14.0715 19.9972 12 20.0004ZM10 10.0002C10 8.89567 10.8954 8.00024 12 8.00024C13.1046 8.00024 14 8.89567 14 10.0002C14 11.1048 13.1046 12.0002 12 12.0002C10.8954 12.0002 10 11.1048 10 10.0002ZM18.91 16.0005C18.0165 14.4722 16.6414 13.2835 15 12.6205C16.4182 11.0124 16.3162 8.57201 14.7687 7.08785C13.2213 5.6037 10.7788 5.6037 9.23128 7.08785C7.68379 8.57201 7.58178 11.0124 9.00001 12.6205C7.35861 13.2835 5.98348 14.4722 5.09001 16.0005C4.37795 14.7876 4.00173 13.407 4.00001 12.0005C4.00001 7.58221 7.58173 4.00049 12 4.00049C16.4183 4.00049 20 7.58221 20 12.0005C19.9983 13.407 19.6221 14.7876 18.91 16.0005Z" fill="#171E2B"/>
</svg>
