<svg width="24" height="24" viewBox="0 0 24 24" fill="none" xmlns="http://www.w3.org/2000/svg">
<path fill-rule="evenodd" clip-rule="evenodd" d="M7.69091 6.09839C7.23974 8.00073 8.10897 9.97098 9.81818 10.9202C10.4211 11.2855 10.7409 11.9811 10.6255 12.6766C10.5223 13.339 10.0466 13.8827 9.40364 14.0729C6.07481 15.0858 3.66572 17.9793 3.27273 21.4366C3.1881 22.0186 2.6573 22.4288 2.07273 22.3638C1.48263 22.3062 1.0466 21.7878 1.09091 21.1966C1.53449 17.1985 4.14229 13.7689 7.87637 12.2729C7.46832 11.9566 7.1018 11.5901 6.78546 11.182C5.55577 9.62404 5.09945 7.59224 5.54482 5.65805C5.9902 3.72386 7.28915 2.09624 9.07637 1.23294C11.2765 0.139789 13.9095 0.411583 15.84 1.93112C17.241 2.9851 18.1605 4.55704 18.3927 6.29475C18.4198 6.66996 18.2517 7.03266 17.9478 7.25445C17.644 7.47624 17.2473 7.52583 16.8982 7.38566C16.5505 7.2454 16.2992 6.93643 16.2327 6.56748C16.0682 5.3222 15.375 4.20822 14.3305 3.5105C13.2861 2.81278 11.9915 2.599 10.7782 2.92384C9.22953 3.30951 8.03327 4.53959 7.69091 6.09839ZM19.7236 15.9381C20.4269 15.1653 20.816 14.1576 20.8145 13.1127C20.8145 10.7509 18.9 8.83632 16.5382 8.83632C14.1764 8.83632 12.2618 10.7509 12.2618 13.1127C12.2645 14.1568 12.653 15.1631 13.3527 15.9381C11.3316 16.9513 9.95163 18.9087 9.67637 21.1527C9.60708 21.7793 10.0589 22.3434 10.6855 22.4127C11.312 22.482 11.8762 22.0302 11.9455 21.4036C12.2401 19.1492 14.161 17.4631 16.4345 17.4631C18.7081 17.4631 20.629 19.1492 20.9236 21.4036C20.9456 21.6974 21.0856 21.9699 21.3116 22.1589C21.5376 22.348 21.8305 22.4375 22.1236 22.4072H22.2545C22.555 22.3832 22.8321 22.2359 23.0202 22.0004C23.2082 21.7648 23.2904 21.4619 23.2473 21.1636C23.0111 18.9455 21.6915 16.9885 19.7236 15.9381ZM16.5491 15.1197C15.7299 15.1285 14.9866 14.6413 14.668 13.8865C14.3494 13.1318 14.5186 12.2593 15.0964 11.6784C15.6741 11.0976 16.5456 10.9236 17.3021 11.2381C18.0585 11.5526 18.5498 12.2932 18.5455 13.1124C18.5455 14.2167 17.6534 15.1137 16.5491 15.1197Z" fill="#171E2B"/>
</svg>
