<svg width="24" height="24" viewBox="0 0 24 24" fill="none" xmlns="http://www.w3.org/2000/svg">
<path fill-rule="evenodd" clip-rule="evenodd" d="M13.3 12.2202C14.3796 11.2857 15 9.92819 15 8.50024C15 5.73882 12.7614 3.50024 10 3.50024C7.23858 3.50024 5 5.73882 5 8.50024C4.99998 9.92819 5.62035 11.2857 6.7 12.2202C3.84094 13.5149 2.00301 16.3617 2 19.5002C2 20.0525 2.44772 20.5002 3 20.5002C3.55228 20.5002 4 20.0525 4 19.5002C4 16.1865 6.68629 13.5002 10 13.5002C13.3137 13.5002 16 16.1865 16 19.5002C16 20.0525 16.4477 20.5002 17 20.5002C17.5523 20.5002 18 20.0525 18 19.5002C17.997 16.3617 16.1591 13.5149 13.3 12.2202ZM10 11.5005C8.34315 11.5005 7 10.1573 7 8.50049C7 6.84364 8.34315 5.50049 10 5.50049C11.6569 5.50049 13 6.84364 13 8.50049C13 9.29614 12.6839 10.0592 12.1213 10.6218C11.5587 11.1844 10.7956 11.5005 10 11.5005ZM20.91 12.0006L21.71 11.2106C21.9637 10.9569 22.0627 10.5872 21.9699 10.2407C21.877 9.89419 21.6064 9.62354 21.2599 9.5307C20.9134 9.43785 20.5437 9.53692 20.29 9.79057L19.5 10.5906L18.71 9.79057C18.4563 9.53692 18.0866 9.43785 17.7401 9.5307C17.3936 9.62354 17.123 9.89419 17.0301 10.2407C16.9373 10.5872 17.0363 10.9569 17.29 11.2106L18.09 12.0006L17.29 12.7906C17.1007 12.9783 16.9942 13.2339 16.9942 13.5006C16.9942 13.7672 17.1007 14.0228 17.29 14.2106C17.4778 14.3999 17.7334 14.5064 18 14.5064C18.2666 14.5064 18.5222 14.3999 18.71 14.2106L19.5 13.4106L20.29 14.2106C20.4778 14.3999 20.7334 14.5064 21 14.5064C21.2666 14.5064 21.5222 14.3999 21.71 14.2106C21.8993 14.0228 22.0058 13.7672 22.0058 13.5006C22.0058 13.2339 21.8993 12.9783 21.71 12.7906L20.91 12.0006Z" fill="#171E2B"/>
</svg>
