<svg width="24" height="24" viewBox="0 0 24 24" fill="none" xmlns="http://www.w3.org/2000/svg">
<path fill-rule="evenodd" clip-rule="evenodd" d="M15.71 12.7099C17.7197 11.1288 18.5064 8.4477 17.6698 6.03135C16.8332 3.615 14.5571 1.99438 12 1.99438C9.44295 1.99438 7.16684 3.615 6.33024 6.03135C5.49363 8.4477 6.28037 11.1288 8.29002 12.7099C4.86712 14.0812 2.47664 17.225 2.07002 20.8899C2.00927 21.4422 2.40774 21.9391 2.96002 21.9999C3.51231 22.0606 4.00927 21.6622 4.07002 21.1099C4.52465 17.0626 7.94731 14.0029 12.02 14.0029C16.0927 14.0029 19.5154 17.0626 19.97 21.1099C20.0263 21.6188 20.458 22.003 20.97 21.9999H21.08C21.6257 21.9371 22.0185 21.446 21.96 20.8999C21.5514 17.2242 19.1475 14.0741 15.71 12.7099ZM12 11.9997C9.79089 11.9997 8.00003 10.2089 8.00003 7.99972C8.00003 5.79058 9.79089 3.99972 12 3.99972C14.2092 3.99972 16 5.79058 16 7.99972C16 9.06059 15.5786 10.078 14.8285 10.8281C14.0783 11.5783 13.0609 11.9997 12 11.9997Z" fill="#171E2B"/>
</svg>
