<svg width="24" height="24" viewBox="0 0 24 24" fill="none" xmlns="http://www.w3.org/2000/svg">
<path fill-rule="evenodd" clip-rule="evenodd" d="M14.81 12.28C15.443 11.6002 15.7996 10.7088 15.81 9.78C15.81 7.69236 14.1176 6 12.03 6C9.94236 6 8.25 7.69236 8.25 9.78C8.26043 10.7088 8.61702 11.6002 9.25 12.28C7.45964 13.1715 6.23813 14.9042 6 16.89C5.93925 17.4423 6.33771 17.9392 6.89 18C7.44228 18.0607 7.93925 17.6623 8 17.11C8.24694 15.1051 9.94995 13.599 11.97 13.599C13.99 13.599 15.6931 15.1051 15.94 17.11C15.9978 17.6428 16.4653 18.0353 17 18H17.11C17.6556 17.9372 18.0485 17.4461 17.99 16.9C17.7695 14.925 16.5761 13.1911 14.81 12.28ZM12 11.5601C11.2801 11.5601 10.631 11.1264 10.3555 10.4613C10.08 9.79612 10.2323 9.03051 10.7413 8.52143C11.2504 8.01235 12.016 7.86006 12.6812 8.13557C13.3463 8.41108 13.78 9.06014 13.78 9.78008C13.78 10.7631 12.9831 11.5601 12 11.5601ZM19 2.00024H5C3.34315 2.00024 2 3.34339 2 5.00024V19.0002C2 20.6571 3.34315 22.0002 5 22.0002H19C20.6569 22.0002 22 20.6571 22 19.0002V5.00024C22 3.34339 20.6569 2.00024 19 2.00024ZM20 19.0005C20 19.5528 19.5523 20.0005 19 20.0005H4.99999C4.44771 20.0005 3.99999 19.5528 3.99999 19.0005V5.00049C3.99999 4.44821 4.44771 4.00049 4.99999 4.00049H19C19.5523 4.00049 20 4.44821 20 5.00049V19.0005Z" fill="#171E2B"/>
</svg>
