<svg width="24" height="24" viewBox="0 0 24 24" fill="none" xmlns="http://www.w3.org/2000/svg">
<path fill-rule="evenodd" clip-rule="evenodd" d="M21 10.5H17C16.4477 10.5 16 10.9477 16 11.5C16 12.0523 16.4477 12.5 17 12.5H21C21.5523 12.5 22 12.0523 22 11.5C22 10.9477 21.5523 10.5 21 10.5ZM13.3 12.2202C14.3796 11.2857 15 9.92819 15 8.50024C15 5.73882 12.7614 3.50024 10 3.50024C7.23858 3.50024 5 5.73882 5 8.50024C4.99998 9.92819 5.62035 11.2857 6.7 12.2202C3.84094 13.5149 2.00301 16.3617 2 19.5002C2 20.0525 2.44772 20.5002 3 20.5002C3.55228 20.5002 4 20.0525 4 19.5002C4 16.1865 6.68629 13.5002 10 13.5002C13.3137 13.5002 16 16.1865 16 19.5002C16 20.0525 16.4477 20.5002 17 20.5002C17.5523 20.5002 18 20.0525 18 19.5002C17.997 16.3617 16.1591 13.5149 13.3 12.2202ZM10 11.5005C8.34316 11.5005 7.00002 10.1573 7.00002 8.50049C7.00002 6.84364 8.34316 5.50049 10 5.50049C11.6569 5.50049 13 6.84364 13 8.50049C13 9.29614 12.6839 10.0592 12.1213 10.6218C11.5587 11.1844 10.7957 11.5005 10 11.5005Z" fill="#171E2B"/>
</svg>
