<svg width="24" height="24" viewBox="0 0 24 24" fill="none" xmlns="http://www.w3.org/2000/svg">
<path fill-rule="evenodd" clip-rule="evenodd" d="M20 13.1701V13.0001C20.002 10.8383 19.129 8.76785 17.58 7.26006C16.6849 6.38904 15.5946 5.74448 14.4 5.38006H14.35C13.5124 5.11619 12.6381 4.9879 11.76 5.00006C7.41778 5.23839 4.01465 8.82133 4 13.1701C2.62004 13.6555 1.79141 15.0654 2.03871 16.5072C2.28602 17.949 3.53715 19.0022 5 19.0001H19C20.4628 19.0022 21.714 17.949 21.9613 16.5072C22.2086 15.0654 21.38 13.6555 20 13.1701ZM19 16.9998H4.99999C4.4477 16.9998 3.99999 16.5521 3.99999 15.9998C3.99999 15.4476 4.4477 14.9998 4.99999 14.9998H6.99999C7.55227 14.9998 7.99999 14.5521 7.99999 13.9998C7.99999 13.4475 7.55227 12.9998 6.99999 12.9998H5.99999C6.09257 10.8944 7.21418 8.96895 8.99999 7.84983V10.9998C8.99999 11.5521 9.4477 11.9998 9.99999 11.9998C10.5523 11.9998 11 11.5521 11 10.9998V7.08983C11.2714 7.04448 11.5452 7.01444 11.82 6.99983H12C12.3357 7.00291 12.6704 7.03638 13 7.09983V10.9998C13 11.5521 13.4477 11.9998 14 11.9998C14.5523 11.9998 15 11.5521 15 10.9998V7.81983C15.4242 8.06546 15.8199 8.35723 16.18 8.68983C17.3449 9.82105 18.0015 11.3761 18 12.9998H17C16.4477 12.9998 16 13.4475 16 13.9998C16 14.5521 16.4477 14.9998 17 14.9998H19C19.5523 14.9998 20 15.4476 20 15.9998C20 16.5521 19.5523 16.9998 19 16.9998Z" fill="#171E2B"/>
</svg>
