<svg width="24" height="24" viewBox="0 0 24 24" fill="none" xmlns="http://www.w3.org/2000/svg">
<path fill-rule="evenodd" clip-rule="evenodd" d="M15.53 14.1306C15.3422 13.9413 15.0866 13.8348 14.82 13.8348C14.5533 13.8348 14.2977 13.9413 14.11 14.1306C13.7223 14.5206 13.7223 15.1505 14.11 15.5406L20.29 21.7206C20.4777 21.9099 20.7333 22.0164 21 22.0164C21.2666 22.0164 21.5222 21.9099 21.71 21.7206C22.0977 21.3305 22.0977 20.7006 21.71 20.3106L15.53 14.1306ZM16.76 11.6402C17.5554 11.6395 18.3179 11.323 18.88 10.7602L21.71 7.93024C22.0977 7.5402 22.0977 6.91028 21.71 6.52024C21.5222 6.33093 21.2666 6.22444 21 6.22444C20.7333 6.22444 20.4777 6.33093 20.29 6.52024L17.46 9.35024C17.0699 9.73796 16.44 9.73796 16.05 9.35024L19.59 5.81024C19.9777 5.4202 19.9777 4.79028 19.59 4.40024C19.4022 4.21093 19.1466 4.10444 18.88 4.10444C18.6133 4.10444 18.3577 4.21093 18.17 4.40024L14.64 7.93024C14.2523 7.5402 14.2523 6.91028 14.64 6.52024L17.46 3.69024C17.7454 3.44585 17.8697 3.06212 17.7818 2.69682C17.6939 2.33152 17.4087 2.0463 17.0434 1.95843C16.6781 1.87056 16.2944 1.99486 16.05 2.28024L13.22 5.11024C12.0502 6.28151 12.0502 8.17897 13.22 9.35024L12 10.5902L10.44 9.05024C11.3502 7.4076 11.047 5.35882 9.69998 4.05024C8.25998 2.61024 4.52998 1.00024 2.76998 2.79024C1.00998 4.58024 2.59998 8.27024 3.99998 9.72024C4.78181 10.5049 5.83297 10.9625 6.93998 11.0002H7.07998C7.7561 10.9906 8.41797 10.8045 8.99998 10.4602L10.57 12.0002L2.28998 20.2802C2.03811 20.5339 1.9407 20.9027 2.03443 21.2476C2.12817 21.5926 2.39882 21.8613 2.74443 21.9526C3.09004 22.0439 3.45811 21.9439 3.70998 21.6902L12.71 12.6902L14.63 10.7702C15.1961 11.3318 15.9626 11.6448 16.76 11.6402ZM8.42998 8.44028C8.05131 8.81672 7.53359 9.01946 6.99998 9.00028C6.41539 8.97511 5.86334 8.72418 5.45998 8.30028C4.37998 7.22028 3.61998 4.77028 4.18998 4.20028C4.37931 4.05746 4.61323 3.98658 4.84998 4.00028C6.12628 4.10201 7.33432 4.61823 8.28998 5.47028C9.13942 6.25615 9.20173 7.57799 8.42998 8.44028Z" fill="#171E2B"/>
</svg>
