<svg width="24" height="24" viewBox="0 0 24 24" fill="none" xmlns="http://www.w3.org/2000/svg">
<path fill-rule="evenodd" clip-rule="evenodd" d="M19 2.00024C18.4477 2.00024 18 2.44796 18 3.00024V8.46024L17 9.13024V3.00024C17 2.44796 16.5523 2.00024 16 2.00024C15.4477 2.00024 15 2.44796 15 3.00024V9.13024L14 8.46024V3.00024C14 2.44796 13.5523 2.00024 13 2.00024C12.4477 2.00024 12 2.44796 12 3.00024V9.00024C12.0017 9.33476 12.1706 9.64626 12.45 9.83024L15 11.5402V21.0002C15 21.5525 15.4477 22.0002 16 22.0002C16.5523 22.0002 17 21.5525 17 21.0002V11.5402L19.55 9.83024C19.8294 9.64626 19.9983 9.33476 20 9.00024V3.00024C20 2.44796 19.5523 2.00024 19 2.00024ZM9 2.00024C6.23858 2.00024 4 4.23882 4 7.00024V13.0002C4 13.5525 4.44772 14.0002 5 14.0002H8V21.0002C8 21.5525 8.44772 22.0002 9 22.0002C9.55229 22.0002 10 21.5525 10 21.0002V3.00024C10 2.44796 9.55229 2.00024 9 2.00024ZM7.99999 12H5.99999V7C5.99932 5.72807 6.80081 4.59397 7.99999 4.17V12Z" fill="#171E2B"/>
</svg>
