<svg width="24" height="24" viewBox="0 0 24 24" fill="none" xmlns="http://www.w3.org/2000/svg">
<path fill-rule="evenodd" clip-rule="evenodd" d="M16 7.0004H7.99999C7.4477 7.0004 6.99999 7.44812 6.99999 8.0004V16.0004C6.99999 16.5527 7.4477 17.0004 7.99999 17.0004H16C16.5523 17.0004 17 16.5527 17 16.0004V8.0004C17 7.44812 16.5523 7.0004 16 7.0004ZM15 14.9999H9V8.99991H15V14.9999ZM21 18.2801V5.72008C21.7416 5.30758 22.1421 4.47197 21.9992 3.63547C21.8563 2.79898 21.2011 2.14373 20.3646 2.00083C19.5281 1.85792 18.6925 2.25847 18.28 3.00008H5.71999C5.30748 2.25847 4.47187 1.85792 3.63538 2.00083C2.79888 2.14373 2.14364 2.79898 2.00074 3.63547C1.85783 4.47197 2.25838 5.30758 2.99999 5.72008V18.2801C2.25838 18.6926 1.85783 19.5282 2.00074 20.3647C2.14364 21.2012 2.79888 21.8564 3.63538 21.9993C4.47187 22.1422 5.30748 21.7417 5.71999 21.0001H18.28C18.6925 21.7417 19.5281 22.1422 20.3646 21.9993C21.2011 21.8564 21.8563 21.2012 21.9992 20.3647C22.1421 19.5282 21.7416 18.6926 21 18.2801ZM19 18.2802C18.6992 18.4506 18.4504 18.6994 18.28 19.0002H5.71997C5.54954 18.6994 5.3007 18.4506 4.99997 18.2802V5.72015C5.3007 5.54973 5.54954 5.30088 5.71997 5.00015H18.28C18.4504 5.30088 18.6992 5.54973 19 5.72015V18.2802Z" fill="#171E2B"/>
</svg>
