<svg width="24" height="24" viewBox="0 0 24 24" fill="none" xmlns="http://www.w3.org/2000/svg">
<path fill-rule="evenodd" clip-rule="evenodd" d="M20 16.1802V7.82018C21.3227 7.35935 22.1505 6.04458 21.9943 4.65264C21.8381 3.26071 20.7395 2.16211 19.3475 2.00591C17.9556 1.84971 16.6408 2.67749 16.18 4.00018H7.82C7.35917 2.67749 6.04439 1.84971 4.65246 2.00591C3.26053 2.16211 2.16193 3.26071 2.00573 4.65264C1.84953 6.04458 2.67731 7.35935 4 7.82018V16.1802C2.67731 16.641 1.84953 17.9558 2.00573 19.3477C2.16193 20.7397 3.26053 21.8383 4.65246 21.9945C6.04439 22.1507 7.35917 21.3229 7.82 20.0002H16.18C16.6408 21.3229 17.9556 22.1507 19.3475 21.9945C20.7395 21.8383 21.8381 20.7397 21.9943 19.3477C22.1505 17.9558 21.3227 16.641 20 16.1802ZM19 4.00041C19.5523 4.00041 20 4.44813 20 5.00041C20 5.5527 19.5523 6.00041 19 6.00041C18.4477 6.00041 18 5.5527 18 5.00041C18 4.44813 18.4477 4.00041 19 4.00041ZM5 4.00041C5.55228 4.00041 6 4.44813 6 5.00041C6 5.5527 5.55228 6.00041 5 6.00041C4.44771 6.00041 4 5.5527 4 5.00041C4 4.44813 4.44771 4.00041 5 4.00041ZM5 19.9999C4.44771 19.9999 4 19.5522 4 18.9999C4 18.4476 4.44771 17.9999 5 17.9999C5.55228 17.9999 6 18.4476 6 18.9999C6 19.5522 5.55228 19.9999 5 19.9999ZM16.18 17.9999H7.82001C7.51763 17.1506 6.84933 16.4823 6.00001 16.1799V7.81992C6.84933 7.51754 7.51763 6.84923 7.82001 5.99992H16.18C16.4824 6.84923 17.1507 7.51754 18 7.81992V16.1799C17.1507 16.4823 16.4824 17.1506 16.18 17.9999ZM19 19.9999C18.4477 19.9999 18 19.5522 18 18.9999C18 18.4476 18.4477 17.9999 19 17.9999C19.5523 17.9999 20 18.4476 20 18.9999C20 19.5522 19.5523 19.9999 19 19.9999Z" fill="#171E2B"/>
</svg>
