<svg width="24" height="24" viewBox="0 0 24 24" fill="none" xmlns="http://www.w3.org/2000/svg">
<path fill-rule="evenodd" clip-rule="evenodd" d="M19 8.99979C19.0044 5.26273 16.0725 2.18126 12.3398 1.99984C8.60717 1.81843 5.39027 4.60105 5.03222 8.32093C4.67418 12.0408 7.30128 15.3859 11 15.9198V17.9998H10C9.44773 17.9998 9.00002 18.4475 9.00002 18.9998C9.00002 19.5521 9.44773 19.9998 10 19.9998H11V20.9998C11 21.5521 11.4477 21.9998 12 21.9998C12.5523 21.9998 13 21.5521 13 20.9998V19.9998H14C14.5523 19.9998 15 19.5521 15 18.9998C15 18.4475 14.5523 17.9998 14 17.9998H13V15.9198C16.4409 15.4231 18.9959 12.4764 19 8.99979ZM12 13.9997C9.23861 13.9997 7.00004 11.7611 7.00004 8.99972C7.00004 6.23829 9.23861 3.99972 12 3.99972C14.7615 3.99972 17 6.23829 17 8.99972C17 10.3258 16.4732 11.5976 15.5356 12.5353C14.5979 13.4729 13.3261 13.9997 12 13.9997Z" fill="#171E2B"/>
</svg>
