<svg width="24" height="24" viewBox="0 0 24 24" fill="none" xmlns="http://www.w3.org/2000/svg">
<path fill-rule="evenodd" clip-rule="evenodd" d="M21 18H20V13C20 12.4477 19.5523 12 19 12H5C4.44772 12 4 12.4477 4 13V18H3C2.44772 18 2 18.4477 2 19C2 19.5523 2.44772 20 3 20H21C21.5523 20 22 19.5523 22 19C22 18.4477 21.5523 18 21 18ZM18 17.9995H6V13.9995H18V17.9995ZM3 9.99976H21C21.5523 9.99976 22 9.55204 22 8.99976C22 8.44747 21.5523 7.99976 21 7.99976H19V4.99976C19 4.44747 18.5523 3.99976 18 3.99976H6C5.44772 3.99976 5 4.44747 5 4.99976V7.99976H3C2.44772 7.99976 2 8.44747 2 8.99976C2 9.55204 2.44772 9.99976 3 9.99976ZM7 6H17V8H7V6Z" fill="#171E2B"/>
</svg>
