<svg width="24" height="24" viewBox="0 0 24 24" fill="none" xmlns="http://www.w3.org/2000/svg">
<path fill-rule="evenodd" clip-rule="evenodd" d="M21 20.0002H18V9.00024C18 8.44796 17.5523 8.00024 17 8.00024H14V3.00024C14 2.44796 13.5523 2.00024 13 2.00024H7C6.44772 2.00024 6 2.44796 6 3.00024V20.0002H3C2.44772 20.0002 2 20.448 2 21.0002C2 21.5525 2.44772 22.0002 3 22.0002H21C21.5523 22.0002 22 21.5525 22 21.0002C22 20.448 21.5523 20.0002 21 20.0002ZM12 20.0005H8V4.00049H12V20.0005ZM16 20.0005H14V10.0005H16V20.0005Z" fill="#171E2B"/>
</svg>
