<svg width="24" height="24" viewBox="0 0 24 24" fill="none" xmlns="http://www.w3.org/2000/svg">
<path fill-rule="evenodd" clip-rule="evenodd" d="M21 2.00024H3C2.44772 2.00024 2 2.44796 2 3.00024C2 3.55253 2.44772 4.00024 3 4.00024H6V21.0002C6 21.5525 6.44772 22.0002 7 22.0002H13C13.5523 22.0002 14 21.5525 14 21.0002V16.0002H17C17.5523 16.0002 18 15.5525 18 15.0002V4.00024H21C21.5523 4.00024 22 3.55253 22 3.00024C22 2.44796 21.5523 2.00024 21 2.00024ZM12 20.0005H8V4.00049H12V20.0005ZM16 14.0005H14V4.00049H16V14.0005Z" fill="#171E2B"/>
</svg>
