<svg width="24" height="24" viewBox="0 0 24 24" fill="none" xmlns="http://www.w3.org/2000/svg">
<path fill-rule="evenodd" clip-rule="evenodd" d="M3 5.99976H4V10.9998C4 11.552 4.44772 11.9998 5 11.9998H19C19.5523 11.9998 20 11.552 20 10.9998V5.99976H21C21.5523 5.99976 22 5.55204 22 4.99976C22 4.44747 21.5523 3.99976 21 3.99976H3C2.44772 3.99976 2 4.44747 2 4.99976C2 5.55204 2.44772 5.99976 3 5.99976ZM6.00001 6H18V10H6.00001V6ZM21 13.9995H3C2.44772 13.9995 2 14.4472 2 14.9995C2 15.5518 2.44772 15.9995 3 15.9995H5V18.9995C5 19.5518 5.44772 19.9995 6 19.9995H18C18.5523 19.9995 19 19.5518 19 18.9995V15.9995H21C21.5523 15.9995 22 15.5518 22 14.9995C22 14.4472 21.5523 13.9995 21 13.9995ZM17 17.9998H6.99999V15.9998H17V17.9998Z" fill="#171E2B"/>
</svg>
