<svg width="24" height="24" viewBox="0 0 24 24" fill="none" xmlns="http://www.w3.org/2000/svg">
<path fill-rule="evenodd" clip-rule="evenodd" d="M21 11.0002H18V6.00024C18 5.44796 17.5523 5.00024 17 5.00024H14V3.00024C14 2.44796 13.5523 2.00024 13 2.00024H7C6.44772 2.00024 6 2.44796 6 3.00024V11.0002H3C2.44772 11.0002 2 11.448 2 12.0002C2 12.5525 2.44772 13.0002 3 13.0002H6V21.0002C6 21.5525 6.44772 22.0002 7 22.0002H13C13.5523 22.0002 14 21.5525 14 21.0002V19.0002H17C17.5523 19.0002 18 18.5525 18 18.0002V13.0002H21C21.5523 13.0002 22 12.5525 22 12.0002C22 11.448 21.5523 11.0002 21 11.0002ZM12 20.0005H8V4.00049H12V20.0005ZM16 17.0005H14V7.00049H16V17.0005Z" fill="#171E2B"/>
</svg>
