<svg width="24" height="24" viewBox="0 0 24 24" fill="none" xmlns="http://www.w3.org/2000/svg">
<path fill-rule="evenodd" clip-rule="evenodd" d="M21 15H20V13C20 12.4477 19.5523 12 19 12H5C4.44771 12 4 12.4477 4 13V15H3C2.44772 15 2 15.4477 2 16C2 16.5523 2.44772 17 3 17H4V19C4 19.5523 4.44771 20 5 20H19C19.5523 20 20 19.5523 20 19V17H21C21.5523 17 22 16.5523 22 16C22 15.4477 21.5523 15 21 15ZM18 17.9995H6V13.9995H18V17.9995ZM3 7.99976H5V8.99976C5 9.55204 5.44771 9.99976 6 9.99976H18C18.5523 9.99976 19 9.55204 19 8.99976V7.99976H21C21.5523 7.99976 22 7.55204 22 6.99976C22 6.44747 21.5523 5.99976 21 5.99976H19V4.99976C19 4.44747 18.5523 3.99976 18 3.99976H6C5.44771 3.99976 5 4.44747 5 4.99976V5.99976H3C2.44772 5.99976 2 6.44747 2 6.99976C2 7.55204 2.44772 7.99976 3 7.99976ZM7 6H17V8H7V6Z" fill="#171E2B"/>
</svg>
