<svg width="24" height="24" viewBox="0 0 24 24" fill="none" xmlns="http://www.w3.org/2000/svg">
<path fill-rule="evenodd" clip-rule="evenodd" d="M21.53 7.15C21.2206 6.97137 20.8394 6.97137 20.53 7.15L17 8.89C16.9408 7.27626 15.6148 5.99892 14 6H5C3.34315 6 2 7.34315 2 9V15C2 16.6569 3.34315 18 5 18H14C15.6148 18.0011 16.9408 16.7237 17 15.11L20.56 16.89C20.6963 16.9599 20.8468 16.9975 21 17C21.1872 17.0006 21.3709 16.9486 21.53 16.85C21.823 16.6669 22.0007 16.3455 22 16V8C22.0007 7.6545 21.823 7.33312 21.53 7.15ZM15 15.0002C15 15.5525 14.5523 16.0002 14 16.0002H4.99999C4.44771 16.0002 3.99999 15.5525 3.99999 15.0002V9.00025C3.99999 8.44797 4.44771 8.00025 4.99999 8.00025H14C14.5523 8.00025 15 8.44797 15 9.00025V15.0002ZM20 14.3803L17 12.8803V11.1203L20 9.62025V14.3803Z" fill="#171E2B"/>
</svg>
