<svg width="24" height="24" viewBox="0 0 24 24" fill="none" xmlns="http://www.w3.org/2000/svg">
<path fill-rule="evenodd" clip-rule="evenodd" d="M7.71002 6.28972L3.71002 2.28972C3.45637 2.03606 3.08665 1.937 2.74015 2.02984C2.39364 2.12269 2.12299 2.39334 2.03015 2.73984C1.9373 3.08635 2.03637 3.45606 2.29003 3.70972L4.62002 5.99972C3.11307 6.1921 1.98779 7.48059 2.00003 8.99972V14.9997C2.00003 16.6566 3.34317 17.9997 5.00003 17.9997H14C14.6941 17.9964 15.3656 17.7526 15.9 17.3097L20.29 21.7097C20.4778 21.899 20.7334 22.0055 21 22.0055C21.2667 22.0055 21.5223 21.899 21.71 21.7097C21.8993 21.522 22.0058 21.2664 22.0058 20.9997C22.0058 20.7331 21.8993 20.4775 21.71 20.2897L7.71002 6.28972ZM14 15.9994H5.00003C4.44775 15.9994 4.00004 15.5517 4.00004 14.9994V8.99939C4.00004 8.4471 4.44775 7.99939 5.00003 7.99939H6.59003L14.46 15.8794C14.3186 15.9558 14.1608 15.9969 14 15.9994ZM21.53 7.14988C21.2206 6.97125 20.8394 6.97125 20.53 7.14988L17 8.88988C16.9408 7.27614 15.6149 5.9988 14 5.99988H12.66C12.1077 5.99988 11.66 6.4476 11.66 6.99988C11.66 7.55217 12.1077 7.99988 12.66 7.99988H14C14.5523 7.99988 15 8.4476 15 8.99988V10.4999C14.9963 10.5632 14.9963 10.6266 15 10.6899C15.0059 10.7588 15.0228 10.8263 15.05 10.8899C15.05 10.8899 15.1 10.9499 15.12 10.9899C15.1607 11.0661 15.2112 11.1367 15.27 11.1999C15.27 11.1999 15.37 11.2599 15.42 11.2999L15.59 11.4099C15.6663 11.4203 15.7437 11.4203 15.82 11.4099C15.8666 11.4146 15.9135 11.4146 15.96 11.4099C16.0233 11.4136 16.0867 11.4136 16.15 11.4099C16.2189 11.404 16.2864 11.3871 16.35 11.3599L20 9.61988V15.3399C20 15.8922 20.4477 16.3399 21 16.3399C21.5523 16.3399 22 15.8922 22 15.3399V7.99988C22.0007 7.65438 21.823 7.333 21.53 7.14988Z" fill="#171E2B"/>
</svg>
