<svg width="24" height="24" viewBox="0 0 24 24" fill="none" xmlns="http://www.w3.org/2000/svg">
<path fill-rule="evenodd" clip-rule="evenodd" d="M18 8.00024C15.7909 8.00024 14 9.7911 14 12.0002C14.003 12.7052 14.1965 13.3962 14.56 14.0002H9.44002C9.80357 13.3962 9.99706 12.7052 10 12.0002C10 9.7911 8.20915 8.00024 6.00002 8.00024C3.79088 8.00024 2.00002 9.7911 2.00002 12.0002C2.00002 14.2094 3.79088 16.0002 6.00002 16.0002H18C20.2092 16.0002 22 14.2094 22 12.0002C22 9.7911 20.2092 8.00024 18 8.00024ZM6.00003 14.0005C4.89546 14.0005 4.00003 13.1051 4.00003 12.0005C4.00003 10.8959 4.89546 10.0005 6.00003 10.0005C7.1046 10.0005 8.00003 10.8959 8.00003 12.0005C8.00003 13.1051 7.1046 14.0005 6.00003 14.0005ZM18 14.0005C16.8955 14.0005 16 13.1051 16 12.0005C16 10.8959 16.8955 10.0005 18 10.0005C19.1046 10.0005 20 10.8959 20 12.0005C20 13.1051 19.1046 14.0005 18 14.0005Z" fill="#171E2B"/>
</svg>
