<svg width="24" height="24" viewBox="0 0 24 24" fill="none" xmlns="http://www.w3.org/2000/svg">
<path fill-rule="evenodd" clip-rule="evenodd" d="M20 3.99976H3.99998C2.34313 3.99976 0.999985 5.3429 0.999985 6.99976V16.9998C0.999985 18.6566 2.34313 19.9998 3.99998 19.9998H20C21.6568 19.9998 23 18.6566 23 16.9998V6.99976C23 5.3429 21.6568 3.99976 20 3.99976ZM21 17C21 17.5523 20.5523 18 20 18H4C3.44772 18 3 17.5523 3 17V7C3 6.44772 3.44772 6 4 6H20C20.5523 6 21 6.44772 21 7V17ZM16 9C15.0276 9.00273 14.1168 9.47662 13.5565 10.2714C12.9962 11.0662 12.8559 12.0832 13.18 13H10.82C11.2559 11.7672 10.843 10.3942 9.79965 9.6061C8.75626 8.81804 7.32263 8.79655 6.25608 9.55297C5.18953 10.3094 4.73574 11.6695 5.13444 12.9148C5.53313 14.1601 6.69246 15.0037 8.00001 15H16C17.6569 15 19 13.6569 19 12C19 10.3432 17.6569 9 16 9ZM7.99999 12.9995C7.4477 12.9995 6.99998 12.5518 6.99998 11.9995C6.99998 11.4472 7.4477 10.9995 7.99999 10.9995C8.55227 10.9995 8.99999 11.4472 8.99999 11.9995C8.99999 12.5518 8.55227 12.9995 7.99999 12.9995ZM16 12.9995C15.4477 12.9995 15 12.5518 15 11.9995C15 11.4472 15.4477 10.9995 16 10.9995C16.5523 10.9995 17 11.4472 17 11.9995C17 12.5518 16.5523 12.9995 16 12.9995Z" fill="#171E2B"/>
</svg>
