<svg width="24" height="24" viewBox="0 0 24 24" fill="none" xmlns="http://www.w3.org/2000/svg">
<path fill-rule="evenodd" clip-rule="evenodd" d="M20.59 6.90015C20.5691 6.8652 20.5457 6.83179 20.52 6.80015C17.8396 2.38875 12.242 0.742386 7.60001 3.00015H7.53001C4.38569 4.61937 2.33054 7.77904 2.12515 11.3098C1.91975 14.8406 3.59466 18.2173 6.53001 20.1902L6.86001 20.3902L6.96001 20.4602C8.47064 21.4181 10.212 21.9501 12 22.0002H12.21C15.7637 21.9218 19.0086 19.963 20.7335 16.8551C22.4583 13.7471 22.4037 9.95714 20.59 6.90015ZM19 8.06001C19.2671 8.52261 19.485 9.01195 19.65 9.52C18.6808 9.20475 17.6691 9.03951 16.65 9.03C16.5476 9.01005 16.4424 9.01005 16.34 9.03C15.1114 9.04629 13.8969 9.29395 12.76 9.76C12.0671 9.32576 11.4463 8.78592 10.92 8.16001C13.4066 6.70184 16.4781 6.66382 19 8.06001ZM12 4.00015C13.405 3.99289 14.7863 4.36238 16 5.07015C15.6686 5.02531 15.3345 5.00193 15 5.00015C13.1646 5.00366 11.3656 5.51223 9.80003 6.47015C9.50467 5.85349 9.28959 5.20151 9.16003 4.53015C10.0662 4.18085 11.0289 4.0012 12 4.00015ZM6 6.70998C6.39906 6.26645 6.84499 5.86745 7.33 5.51998C8.00452 8.09532 9.68782 10.2905 12 11.61C11.9287 12.6102 11.6673 13.5876 11.23 14.49C8.09243 13.332 6.00633 10.3444 6 6.99998C6 6.89998 6 6.80998 6 6.70998ZM4.00003 12C4.00182 11.1965 4.12315 10.3978 4.36003 9.62999C5.16091 12.5711 7.25952 14.9863 10.06 16.19C9.26413 17.1226 8.2606 17.8556 7.13003 18.33C5.16152 16.8195 4.00528 14.4812 4.00003 12ZM11.86 20.0005C10.9684 19.9875 10.0856 19.8218 9.25003 19.5105C10.5617 18.702 11.6675 17.5997 12.48 16.2905C13.4009 14.823 13.9247 13.1414 14 11.4105C14.5771 11.2208 15.1746 11.0999 15.78 11.0505C16.6586 14.5779 15.0484 18.2543 11.86 20.0005ZM16.08 18.8802C17.3291 17.1743 18.0017 15.1145 18 13.0002C17.9956 12.3695 17.9353 11.7404 17.82 11.1202C18.572 11.2531 19.3021 11.4887 19.99 11.8202C19.99 11.8802 19.99 11.9402 19.99 12.0002C19.9881 14.8192 18.5027 17.429 16.08 18.8702V18.8802Z" fill="#171E2B"/>
</svg>
