<svg width="24" height="24" viewBox="0 0 24 24" fill="none" xmlns="http://www.w3.org/2000/svg">
<path fill-rule="evenodd" clip-rule="evenodd" d="M16.93 4.09955C16.5994 3.95652 16.2174 4.00236 15.93 4.21955L11.15 7.99955H7.5C6.94772 7.99955 6.5 8.44727 6.5 8.99955V14.9996C6.5 15.5518 6.94772 15.9996 7.5 15.9996H11.15L15.88 19.7796C16.0559 19.9207 16.2744 19.9982 16.5 19.9996C16.6494 20.002 16.797 19.9677 16.93 19.8996C17.2773 19.7341 17.4989 19.3842 17.5 18.9996V4.99955C17.4989 4.61489 17.2773 4.26495 16.93 4.09955ZM15.5 16.9199L12.12 14.2199C11.9441 14.0787 11.7256 14.0012 11.5 13.9999H8.5V9.9999H11.5C11.7256 9.99859 11.9441 9.92106 12.12 9.77989L15.5 7.0799V16.9199Z" fill="#171E2B"/>
</svg>
