<svg width="24" height="24" viewBox="0 0 24 24" fill="none" xmlns="http://www.w3.org/2000/svg">
<path fill-rule="evenodd" clip-rule="evenodd" d="M12.43 4.09955C12.0994 3.95652 11.7174 4.00236 11.43 4.21955L6.65 7.99955H3C2.44772 7.99955 2 8.44727 2 8.99955V14.9996C2 15.5518 2.44772 15.9996 3 15.9996H6.65L11.38 19.7796C11.5559 19.9207 11.7744 19.9982 12 19.9996C12.1494 20.002 12.297 19.9677 12.43 19.8996C12.7773 19.7341 12.9989 19.3842 13 18.9996V4.99955C12.9989 4.61489 12.7773 4.26495 12.43 4.09955ZM11 16.9199L7.62001 14.2199C7.44408 14.0787 7.22558 14.0012 7.00001 13.9999H4.00002V9.9999H7.00001C7.22558 9.99859 7.44408 9.92106 7.62001 9.77989L11 7.0799V16.9199ZM19.66 6.3398C19.2679 5.94768 18.6321 5.94768 18.24 6.3398C17.8479 6.73192 17.8479 7.36768 18.24 7.7598C19.4306 8.94854 20.0674 10.5825 19.9951 12.2634C19.9229 13.9443 19.1482 15.5176 17.86 16.5998C17.5431 16.8707 17.4276 17.3098 17.5701 17.7016C17.7125 18.0934 18.0831 18.3557 18.5 18.3598C18.7337 18.3603 18.9601 18.2789 19.14 18.1298C20.8605 16.6888 21.8966 14.5913 21.9955 12.3493C22.0944 10.1072 21.247 7.92669 19.66 6.3398ZM16.83 9.16948C16.5763 8.91582 16.2066 8.81676 15.8601 8.9096C15.5136 9.00245 15.243 9.2731 15.1501 9.6196C15.0573 9.96611 15.1563 10.3358 15.41 10.5895C15.7856 10.9628 15.9978 11.4699 16 11.9995C16.0005 12.5892 15.7407 13.1491 15.29 13.5295C15.0855 13.699 14.9569 13.943 14.9325 14.2075C14.9081 14.472 14.9899 14.7354 15.16 14.9395C15.331 15.1425 15.5757 15.2693 15.8401 15.2918C16.1046 15.3143 16.3672 15.2307 16.57 15.0595C17.4751 14.3006 17.9985 13.1806 18 11.9995C17.9944 10.9396 17.5745 9.92393 16.83 9.16948Z" fill="#171E2B"/>
</svg>
