<svg width="24" height="24" viewBox="0 0 24 24" fill="none" xmlns="http://www.w3.org/2000/svg">
<path fill-rule="evenodd" clip-rule="evenodd" d="M12.43 4.09955C12.0994 3.95652 11.7174 4.00236 11.43 4.21955L6.65 7.99955H3C2.44772 7.99955 2 8.44727 2 8.99955V14.9996C2 15.5518 2.44772 15.9996 3 15.9996H6.65L11.38 19.7796C11.5559 19.9207 11.7744 19.9982 12 19.9996C12.1494 20.002 12.297 19.9677 12.43 19.8996C12.7773 19.7341 12.9989 19.3842 13 18.9996V4.99955C12.9989 4.61489 12.7773 4.26495 12.43 4.09955ZM11 16.9199L7.62 14.2199C7.44407 14.0787 7.22557 14.0012 7 13.9999H4V9.9999H7C7.22557 9.99859 7.44407 9.92106 7.62 9.77989L11 7.0799V16.9199ZM19.91 11.9992L21.71 10.2092C21.9637 9.95558 22.0627 9.58586 21.9699 9.23936C21.877 8.89285 21.6064 8.6222 21.2599 8.52936C20.9134 8.43651 20.5437 8.53558 20.29 8.78923L18.5 10.5892L16.71 8.78923C16.3179 8.39711 15.6821 8.39711 15.29 8.78923C14.8979 9.18136 14.8979 9.81711 15.29 10.2092L17.09 11.9992L15.29 13.7892C15.1007 13.977 14.9942 14.2326 14.9942 14.4992C14.9942 14.7659 15.1007 15.0215 15.29 15.2092C15.4778 15.3985 15.7334 15.505 16 15.505C16.2666 15.505 16.5222 15.3985 16.71 15.2092L18.5 13.4092L20.29 15.2092C20.4778 15.3985 20.7334 15.505 21 15.505C21.2666 15.505 21.5222 15.3985 21.71 15.2092C21.8993 15.0215 22.0058 14.7659 22.0058 14.4992C22.0058 14.2326 21.8993 13.977 21.71 13.7892L19.91 11.9992Z" fill="#171E2B"/>
</svg>
