<svg width="24" height="24" viewBox="0 0 24 24" fill="none" xmlns="http://www.w3.org/2000/svg">
<path fill-rule="evenodd" clip-rule="evenodd" d="M18.83 9.16948C18.5763 8.91582 18.2066 8.81676 17.8601 8.9096C17.5136 9.00245 17.243 9.2731 17.1501 9.6196C17.0573 9.96611 17.1563 10.3358 17.41 10.5895C17.7856 10.9628 17.9978 11.4699 18 11.9995C18.0005 12.5892 17.7407 13.1491 17.29 13.5295C17.0855 13.699 16.9569 13.943 16.9325 14.2075C16.9081 14.472 16.9899 14.7354 17.16 14.9395C17.331 15.1425 17.5757 15.2693 17.8401 15.2918C18.1046 15.3143 18.3672 15.2307 18.57 15.0595C19.4751 14.3006 19.9985 13.1806 20 11.9995C19.9944 10.9396 19.5745 9.92393 18.83 9.16948ZM14.43 4.09955C14.0994 3.95652 13.7174 4.00236 13.43 4.21955L8.65 7.99955H5C4.44772 7.99955 4 8.44727 4 8.99955V14.9996C4 15.5518 4.44772 15.9996 5 15.9996H8.65L13.38 19.7796C13.5559 19.9207 13.7744 19.9982 14 19.9996C14.1494 20.002 14.297 19.9677 14.43 19.8996C14.7773 19.7341 14.9989 19.3842 15 18.9996V4.99955C14.9989 4.61489 14.7773 4.26495 14.43 4.09955ZM13 16.9199L9.61999 14.2199C9.44405 14.0787 9.22556 14.0012 8.99999 13.9999H5.99999V9.9999H8.99999C9.22556 9.99859 9.44405 9.92106 9.61999 9.77989L13 7.0799V16.9199Z" fill="#171E2B"/>
</svg>
