<svg width="24" height="24" viewBox="0 0 24 24" fill="none" xmlns="http://www.w3.org/2000/svg">
<path fill-rule="evenodd" clip-rule="evenodd" d="M12.43 4.09955C12.0994 3.95652 11.7174 4.00236 11.43 4.21955L6.65 7.99955H3C2.44772 7.99955 2 8.44727 2 8.99955V14.9996C2 15.5518 2.44772 15.9996 3 15.9996H6.65L11.38 19.7796C11.5559 19.9207 11.7744 19.9982 12 19.9996C12.1494 20.002 12.297 19.9677 12.43 19.8996C12.7773 19.7341 12.9989 19.3842 13 18.9996V4.99955C12.9989 4.61489 12.7773 4.26495 12.43 4.09955ZM11 16.9199L7.61999 14.2199C7.44405 14.0787 7.22556 14.0012 6.99999 13.9999H3.99999V9.9999H6.99999C7.22556 9.99859 7.44405 9.92106 7.61999 9.77989L11 7.0799V16.9199ZM15.14 4.08988C14.7827 4.03986 14.4259 4.18424 14.204 4.46863C13.982 4.75303 13.9287 5.13422 14.064 5.46863C14.1993 5.80304 14.5027 6.03986 14.86 6.08988C17.7863 6.54083 19.9462 9.05902 19.9462 12.0199C19.9462 14.9807 17.7863 17.4989 14.86 17.9499C14.5027 17.9749 14.186 18.1886 14.029 18.5105C13.872 18.8324 13.8987 19.2136 14.099 19.5105C14.2993 19.8074 14.6427 19.9749 15 19.9499H15.14C19.0517 19.3581 21.9434 15.9961 21.9434 12.0399C21.9434 8.0837 19.0517 4.72163 15.14 4.12988V4.08988ZM14.68 13.8692C14.1277 13.9576 13.7516 14.4769 13.84 15.0292C13.9284 15.5815 14.4477 15.9576 15 15.8692C15.1085 15.868 15.2163 15.8511 15.32 15.8192C16.9164 15.2531 17.9832 13.743 17.9832 12.0492C17.9832 10.3554 16.9164 8.84527 15.32 8.2792C14.7953 8.10247 14.2267 8.38453 14.05 8.9092C13.8733 9.43387 14.1553 10.0025 14.68 10.1792C15.4569 10.4739 15.9707 11.2183 15.9707 12.0492C15.9707 12.8801 15.4569 13.6245 14.68 13.9192V13.8692Z" fill="#171E2B"/>
</svg>
