<svg width="24" height="24" viewBox="0 0 24 24" fill="none" xmlns="http://www.w3.org/2000/svg">
<path fill-rule="evenodd" clip-rule="evenodd" d="M21 9C21.5523 9 22 8.55228 22 8C22 7.44772 21.5523 7 21 7H20V5H21C21.5523 5 22 4.55228 22 4C22 3.44772 21.5523 3 21 3H3C2.44772 3 2 3.44772 2 4C2 4.55228 2.44772 5 3 5H6V7H3C2.44772 7 2 7.44772 2 8C2 8.55228 2.44772 9 3 9H4V11H3C2.44772 11 2 11.4477 2 12C2 12.5523 2.44772 13 3 13H6V15H3C2.44772 15 2 15.4477 2 16C2 16.5523 2.44772 17 3 17H4V19H3C2.44772 19 2 19.4477 2 20C2 20.5523 2.44772 21 3 21H21C21.5523 21 22 20.5523 22 20C22 19.4477 21.5523 19 21 19H18V17H21C21.5523 17 22 16.5523 22 16C22 15.4477 21.5523 15 21 15H20V13H21C21.5523 13 22 12.5523 22 12C22 11.4477 21.5523 11 21 11H18V9H21ZM8 5.00025H12V7.00025H8V5.00025ZM16 9V11H12V9H16ZM6.00001 9H10V11H6.00001V9ZM12 12.9998V14.9998H8V12.9998H12ZM10 19.0002H6.00001V17.0002H10V19.0002ZM16 19.0002H12V17.0002H16V19.0002ZM18 14.9998H14V12.9998H18V14.9998ZM14 7.00025V5.00025H18V7.00025H14Z" fill="#171E2B"/>
</svg>
