<svg width="24" height="24" viewBox="0 0 24 24" fill="none" xmlns="http://www.w3.org/2000/svg">
<path fill-rule="evenodd" clip-rule="evenodd" d="M19 7H18V6C18 4.34315 16.6569 3 15 3H5C3.34315 3 2 4.34315 2 6V18C2 19.6569 3.34315 21 5 21H19C20.6569 21 22 19.6569 22 18V10C22 8.34315 20.6569 7 19 7ZM5.00002 5.00025H15C15.5523 5.00025 16 5.44796 16 6.00025V7.00025H5.00002C4.44773 7.00025 4.00002 6.55253 4.00002 6.00025C4.00002 5.44796 4.44773 5.00025 5.00002 5.00025ZM20 14.9998H19C18.4477 14.9998 18 14.552 18 13.9998C18 13.4475 18.4477 12.9998 19 12.9998H20V14.9998ZM20 10.9998H19C17.3432 10.9998 16 12.3429 16 13.9998C16 15.6566 17.3432 16.9998 19 16.9998H20V17.9998C20 18.552 19.5523 18.9998 19 18.9998H5.00001C4.44773 18.9998 4.00002 18.552 4.00002 17.9998V8.82975C4.32128 8.94277 4.65945 9.00026 5.00001 8.99975H19C19.5523 8.99975 20 9.44747 20 9.99975V10.9998Z" fill="#171E2B"/>
</svg>
