<svg width="24" height="24" viewBox="0 0 24 24" fill="none" xmlns="http://www.w3.org/2000/svg">
<path fill-rule="evenodd" clip-rule="evenodd" d="M17 8.61008L16 2.84008C15.9208 2.35103 15.4954 1.99371 15 2.00008H9C8.50461 1.99371 8.07923 2.35103 8 2.84008L7 8.61008C5.60073 10.6535 5.60073 13.3467 7 15.3901L8 21.1601C8.07923 21.6491 8.50461 22.0065 9 22.0001H15C15.4954 22.0065 15.9208 21.6491 16 21.1601L17 15.3901C18.3993 13.3467 18.3993 10.6535 17 8.61008ZM9.85002 3.99985H14.15L14.59 6.58986C12.9523 5.80612 11.0478 5.80612 9.41002 6.58986L9.85002 3.99985ZM14.15 19.9999H9.85002L9.41002 17.4099C11.0478 18.1936 12.9523 18.1936 14.59 17.4099L14.15 19.9999ZM12 16.0003C9.79088 16.0003 8.00002 14.2095 8.00002 12.0003C8.00002 9.79121 9.79088 8.00035 12 8.00035C14.2092 8.00035 16 9.79121 16 12.0003C16 13.0612 15.5786 14.0786 14.8285 14.8288C14.0783 15.5789 13.0609 16.0003 12 16.0003Z" fill="#171E2B"/>
</svg>
