<svg width="24" height="24" viewBox="0 0 24 24" fill="none" xmlns="http://www.w3.org/2000/svg">
<path fill-rule="evenodd" clip-rule="evenodd" d="M17 6.78024V3.00024C17 2.44796 16.5523 2.00024 16 2.00024H8C7.44772 2.00024 7 2.44796 7 3.00024V6.78024C6.36786 7.34563 6.00455 8.15216 6 9.00024V15.0002C6.00455 15.8483 6.36786 16.6549 7 17.2202V21.0002C7 21.5525 7.44772 22.0002 8 22.0002H16C16.5523 22.0002 17 21.5525 17 21.0002V17.2202C17.6321 16.6549 17.9954 15.8483 18 15.0002V9.00024C17.9954 8.15216 17.6321 7.34563 17 6.78024ZM9 4.00049H15V6.00049H9V4.00049ZM15 20H9V18H15V20ZM16 15.0002C16 15.5525 15.5523 16.0002 15 16.0002H9.00002C8.44773 16.0002 8.00002 15.5525 8.00002 15.0002V9.00024C8.00002 8.44796 8.44773 8.00024 9.00002 8.00024H15C15.5523 8.00024 16 8.44796 16 9.00024V15.0002Z" fill="#171E2B"/>
</svg>
