<svg width="24" height="24" viewBox="0 0 24 24" fill="none" xmlns="http://www.w3.org/2000/svg">
<path fill-rule="evenodd" clip-rule="evenodd" d="M21.71 20.2899L3.71 2.28994C3.31788 1.89782 2.68212 1.89782 2.29 2.28994C1.89788 2.68206 1.89788 3.31782 2.29 3.70994L6.29 7.70994C5.02104 9.66935 4.32805 11.9458 4.29 14.2799C4.31183 18.5306 7.74936 21.9726 12 21.9999C14.2613 22.0098 16.4108 21.0175 17.87 19.2899L20.29 21.7099C20.4778 21.8993 20.7334 22.0057 21 22.0057C21.2666 22.0057 21.5222 21.8993 21.71 21.7099C21.8993 21.5222 22.0058 21.2666 22.0058 20.9999C22.0058 20.7333 21.8993 20.4777 21.71 20.2899ZM12 20.0003C8.82663 19.9948 6.25549 17.4236 6.24999 14.2503C6.2843 12.4476 6.79119 10.6856 7.71999 9.14028L16.46 17.8703C15.3773 19.225 13.7342 20.0097 12 20.0003ZM10.85 5.23996C11.3 4.81996 11.7 4.48996 12 4.23996C13.43 5.35996 17.13 8.66996 17.68 13.12C17.741 13.6249 18.1714 14.0036 18.68 14H18.8C19.346 13.9323 19.7347 13.4363 19.67 12.89C18.89 6.45996 12.82 2.33996 12.57 2.16996C12.2317 1.94128 11.7883 1.94128 11.45 2.16996C10.761 2.66172 10.1062 3.19962 9.49 3.77996C9.13082 4.16379 9.13014 4.76019 9.48844 5.14484C9.84674 5.52948 10.4417 5.57105 10.85 5.23996Z" fill="#171E2B"/>
</svg>
