<svg width="24" height="24" viewBox="0 0 24 24" fill="none" xmlns="http://www.w3.org/2000/svg">
<path fill-rule="evenodd" clip-rule="evenodd" d="M18.08 7.00008C17.8146 6.978 17.5513 7.06269 17.3486 7.2354C17.1459 7.4081 17.0204 7.65454 17 7.92008L16.65 12.4701C16.1876 12.3269 15.7728 12.0608 15.45 11.7001C15.2602 11.4848 14.987 11.3615 14.7 11.3615C14.413 11.3615 14.1398 11.4848 13.95 11.7001C13.4482 12.2454 12.741 12.5556 12 12.5556C11.259 12.5556 10.5518 12.2454 10.05 11.7001C9.86017 11.4848 9.587 11.3615 9.3 11.3615C9.013 11.3615 8.73983 11.4848 8.55 11.7001C8.22622 12.0596 7.81177 12.3256 7.35 12.4701L7 7.92008C6.97961 7.65454 6.85414 7.4081 6.6514 7.2354C6.44866 7.06269 6.18541 6.978 5.92 7.00008C5.65446 7.02047 5.40801 7.14595 5.23531 7.34868C5.06261 7.55142 4.97791 7.81468 5 8.08008L5.86 19.2301C5.98044 20.7965 7.28896 22.0047 8.86 22.0001H15.16C16.731 22.0047 18.0396 20.7965 18.16 19.2301L19 8.08008C19.0221 7.81468 18.9374 7.55142 18.7647 7.34868C18.592 7.14595 18.3455 7.02047 18.08 7.00008ZM16.14 19.0801C16.0982 19.6009 15.6625 20.0018 15.14 20.0001H8.85C8.32751 20.0018 7.8918 19.6009 7.85 19.0801L7.5 14.5001C8.14834 14.3646 8.76136 14.0956 9.3 13.7101C10.9166 14.8593 13.0834 14.8593 14.7 13.7101C15.2386 14.0956 15.8517 14.3646 16.5 14.5001L16.14 19.0801ZM12 10C13.7926 9.99455 15.2445 8.54269 15.25 6.75004C15.25 4.00004 12.67 2.24004 12.56 2.17004C12.2217 1.94137 11.7783 1.94137 11.44 2.17004C11.33 2.25004 8.74999 4.00004 8.74999 6.75004C8.75548 8.54269 10.2073 9.99455 12 10ZM12 4.29987C12.7236 4.91959 13.173 5.80025 13.25 6.74987C13.25 7.44022 12.6904 7.99987 12 7.99987C11.3097 7.99987 10.75 7.44022 10.75 6.74987C10.8323 5.80175 11.2807 4.92296 12 4.29987Z" fill="#171E2B"/>
</svg>
