<svg width="24" height="24" viewBox="0 0 24 24" fill="none" xmlns="http://www.w3.org/2000/svg">
<path fill-rule="evenodd" clip-rule="evenodd" d="M2.72001 7.6501C2.91557 7.70752 3.10356 7.78809 3.28001 7.8901C4.54277 8.64377 6.11725 8.64377 7.38001 7.8901C8.17423 7.44089 9.14579 7.44089 9.94001 7.8901C11.2164 8.61993 12.7836 8.61993 14.06 7.8901C14.8542 7.44089 15.8258 7.44089 16.62 7.8901C17.2537 8.25229 17.9701 8.44515 18.7 8.4501C19.4052 8.44865 20.0966 8.25504 20.7 7.8901C20.8765 7.78809 21.0645 7.70752 21.26 7.6501C21.7902 7.49546 22.0947 6.94029 21.94 6.4101C21.7854 5.87991 21.2302 5.57546 20.7 5.7301C20.3494 5.8383 20.0135 5.98945 19.7 6.1801C19.0514 6.5594 18.2486 6.5594 17.6 6.1801C16.19 5.38919 14.47 5.38919 13.06 6.1801C12.4046 6.56088 11.5954 6.56088 10.94 6.1801C9.53002 5.38919 7.81001 5.38919 6.40001 6.1801C5.75139 6.5594 4.94863 6.5594 4.30001 6.1801C3.9865 5.98945 3.65062 5.8383 3.30001 5.7301C2.76982 5.57546 2.21465 5.87991 2.06001 6.4101C1.90537 6.94029 2.20982 7.49546 2.74001 7.6501H2.72001ZM20.72 15.7299C20.3694 15.8381 20.0335 15.9892 19.72 16.1799C19.0714 16.5592 18.2686 16.5592 17.62 16.1799C16.21 15.3889 14.49 15.3889 13.08 16.1799C12.4246 16.5606 11.6154 16.5606 10.96 16.1799C9.54999 15.3889 7.82997 15.3889 6.41998 16.1799C5.77136 16.5592 4.9686 16.5592 4.31998 16.1799C4.00647 15.9892 3.67059 15.8381 3.31998 15.7299C2.78979 15.5752 2.23462 15.8797 2.07998 16.4099C1.92534 16.94 2.22979 17.4952 2.75998 17.6498C2.95553 17.7073 3.14353 17.7878 3.31998 17.8898C4.58274 18.6435 6.15722 18.6435 7.41998 17.8898C8.2142 17.4406 9.18576 17.4406 9.97998 17.8898C11.2563 18.6197 12.8236 18.6197 14.1 17.8898C14.8942 17.4406 15.8658 17.4406 16.66 17.8898C17.2937 18.252 18.0101 18.4449 18.74 18.4498C19.4452 18.4484 20.1366 18.2548 20.74 17.8898C20.9164 17.7878 21.1044 17.7073 21.3 17.6498C21.8302 17.4952 22.1346 16.94 21.98 16.4099C21.8253 15.8797 21.2702 15.5752 20.74 15.7299H20.72ZM20.72 10.7303C20.3694 10.8385 20.0335 10.9897 19.72 11.1803C19.0714 11.5597 18.2686 11.5597 17.62 11.1803C16.21 10.3894 14.49 10.3894 13.08 11.1803C12.4246 11.5611 11.6154 11.5611 10.96 11.1803C9.55 10.3894 7.82999 10.3894 6.41999 11.1803C5.77138 11.5597 4.96861 11.5597 4.31999 11.1803C4.00649 10.9897 3.6706 10.8385 3.31999 10.7303C3.0552 10.6304 2.76045 10.6473 2.50883 10.7769C2.25722 10.9065 2.07232 11.1367 1.99999 11.4103C1.92573 11.665 1.95566 11.9386 2.08318 12.1712C2.21071 12.4037 2.42539 12.5761 2.67999 12.6503C2.87555 12.7078 3.06355 12.7883 3.23999 12.8903C4.50275 13.644 6.07723 13.644 7.33999 12.8903C8.13421 12.4411 9.10578 12.4411 9.89999 12.8903C11.1764 13.6202 12.7436 13.6202 14.02 12.8903C14.8142 12.4411 15.7858 12.4411 16.58 12.8903C17.2137 13.2525 17.9301 13.4454 18.66 13.4503C19.3652 13.4489 20.0566 13.2553 20.66 12.8903C20.8364 12.7883 21.0244 12.7078 21.22 12.6503C21.7502 12.4957 22.0546 11.9405 21.9 11.4103C21.7454 10.8802 21.1902 10.5757 20.66 10.7303H20.72Z" fill="#171E2B"/>
</svg>
