<svg width="24" height="24" viewBox="0 0 24 24" fill="none" xmlns="http://www.w3.org/2000/svg">
<path fill-rule="evenodd" clip-rule="evenodd" d="M12 12.9999C13.6569 12.9999 15 11.6567 15 9.99987C15 8.34302 13.6569 6.99987 12 6.99987C10.3431 6.99987 9 8.34302 9 9.99987C9 11.6567 10.3431 12.9999 12 12.9999ZM12 9.00012C12.5523 9.00012 13 9.44783 13 10.0001C13 10.5524 12.5523 11.0001 12 11.0001C11.4477 11.0001 11 10.5524 11 10.0001C11 9.44783 11.4477 9.00012 12 9.00012ZM21.59 18.1601C21.1017 16.5406 20.2105 15.0715 19 13.8901C20.8618 10.5251 20.0659 6.31158 17.1049 3.85759C14.144 1.40359 9.85595 1.40359 6.89503 3.85759C3.9341 6.31158 3.1382 10.5251 4.99997 13.8901C3.78229 15.0675 2.88708 16.5377 2.39998 18.1601C2.13609 19.062 2.31005 20.0354 2.86998 20.7901C3.44073 21.5578 4.34339 22.0072 5.29997 22.0001H18.7C19.653 22.004 20.5513 21.5549 21.12 20.7901C21.6799 20.0354 21.8539 19.062 21.59 18.1601ZM12 3.99987C15.3137 3.99987 18 6.68616 18 9.99987C18 13.3136 15.3137 15.9999 12 15.9999C8.68629 15.9999 6 13.3136 6 9.99987C6 6.68616 8.68629 3.99987 12 3.99987ZM19.52 19.5904C19.3291 19.8517 19.0236 20.0044 18.7 20.0004H5.29998C4.97641 20.0044 4.67088 19.8517 4.47998 19.5904C4.29775 19.3393 4.24233 19.0179 4.32998 18.7204C4.68894 17.5116 5.3338 16.4071 6.20998 15.5004C7.71973 17.0838 9.81213 17.9799 12 17.9799C14.1878 17.9799 16.2802 17.0838 17.79 15.5004C18.6662 16.4071 19.311 17.5116 19.67 18.7204C19.7576 19.0179 19.7022 19.3393 19.52 19.5904Z" fill="#171E2B"/>
</svg>
