<svg width="24" height="24" viewBox="0 0 24 24" fill="none" xmlns="http://www.w3.org/2000/svg">
<path fill-rule="evenodd" clip-rule="evenodd" d="M19 3.9997H17.55C17.4306 3.63502 17.244 3.29586 17 2.9997C16.4277 2.35977 15.6086 1.99572 14.75 1.9997H9.27001C8.40452 1.98996 7.57699 2.35451 7.00002 2.9997C6.74886 3.29426 6.55549 3.63351 6.43002 3.9997H5.00002C3.34316 3.9997 2.00002 5.34285 2.00002 6.9997V18.9997C2.00002 20.6566 3.34316 21.9997 5.00002 21.9997H19C20.6569 21.9997 22 20.6566 22 18.9997V6.9997C22 5.34285 20.6569 3.9997 19 3.9997ZM8.52 4.33981C8.70957 4.12403 8.98277 4.00017 9.27 3.99981H14.73C15.0172 4.00017 15.2904 4.12403 15.48 4.33981C15.6709 4.55219 15.7619 4.83604 15.73 5.11981L15.23 9.11981C15.169 9.62478 14.7386 10.0035 14.23 9.99981H12.59L13.73 7.59981C13.9218 7.11154 13.7036 6.55809 13.2303 6.33194C12.757 6.1058 12.1894 6.28384 11.93 6.73981L10.37 9.99981H9.77C9.26137 10.0035 8.83102 9.62478 8.77 9.11981L8.27 5.11981C8.23814 4.83604 8.32912 4.55219 8.52 4.33981ZM20 19.0001C20 19.5523 19.5523 20.0001 19 20.0001H5.00003C4.44775 20.0001 4.00003 19.5523 4.00003 19.0001V7.00006C4.00003 6.44777 4.44775 6.00006 5.00003 6.00006H6.37003L6.79003 9.37006C6.97777 10.881 8.26753 12.0117 9.79003 12.0001H14.25C15.7725 12.0117 17.0623 10.881 17.25 9.37006L17.63 6.00006H19C19.5523 6.00006 20 6.44777 20 7.00006V19.0001ZM14 15.9998H10C9.44771 15.9998 9 16.4475 9 16.9998C9 17.5521 9.44771 17.9998 10 17.9998H14C14.5523 17.9998 15 17.5521 15 16.9998C15 16.4475 14.5523 15.9998 14 15.9998Z" fill="#171E2B"/>
</svg>
