<svg width="24" height="24" viewBox="0 0 24 24" fill="none" xmlns="http://www.w3.org/2000/svg">
<path fill-rule="evenodd" clip-rule="evenodd" d="M12 6.49975C13.1045 6.49975 14 5.60432 14 4.49975C14 3.39519 13.1045 2.49976 12 2.49976C10.8954 2.49976 9.99998 3.39519 9.99998 4.49975C9.99998 5.60432 10.8954 6.49975 12 6.49975ZM19.5 20.5H18.5V15.5C18.5 14.9477 18.0523 14.5 17.5 14.5H12.5V12.5H17.5C18.0523 12.5 18.5 12.0523 18.5 11.5C18.5 10.9477 18.0523 10.5 17.5 10.5H12.5V8.5C12.5 7.94772 12.0523 7.5 11.5 7.5C10.9477 7.5 10.5 7.94772 10.5 8.5V15.5C10.5 16.0523 10.9477 16.5 11.5 16.5H16.5V21.5C16.5 22.0523 16.9477 22.5 17.5 22.5H19.5C20.0523 22.5 20.5 22.0523 20.5 21.5C20.5 20.9477 20.0523 20.5 19.5 20.5ZM12.7 18.8995C11.667 20.2768 9.86845 20.8387 8.23508 20.2942C6.60172 19.7497 5.5 18.2212 5.5 16.4995C5.5024 14.9112 6.4443 13.4748 7.9 12.8395C8.4081 12.6186 8.64091 12.0276 8.42 11.5195C8.19908 11.0114 7.6081 10.7786 7.1 10.9995C4.79394 12.0064 3.36119 14.3453 3.51176 16.8571C3.66233 19.3689 5.36423 21.52 7.77406 22.2442C10.1839 22.9685 12.7896 22.1121 14.3 20.0995C14.6314 19.6576 14.5418 19.0308 14.1 18.6995C13.6582 18.3681 13.0314 18.4576 12.7 18.8995Z" fill="#171E2B"/>
</svg>
