<svg width="24" height="24" viewBox="0 0 24 24" fill="none" xmlns="http://www.w3.org/2000/svg">
<path fill-rule="evenodd" clip-rule="evenodd" d="M21 2.00024H19H18.91H18.7L18.54 2.07024L18.37 2.18024C18.3218 2.21844 18.2782 2.26206 18.24 2.31024C18.2009 2.35975 18.1674 2.4134 18.14 2.47024C18.1051 2.52624 18.0782 2.58682 18.06 2.65024V2.74024L17.38 6.00024H16.24L13.12 2.89024C11.9357 1.75241 10.0643 1.75241 8.88001 2.89024L5.76001 6.00024H3.00001C2.64132 5.99882 2.30935 6.18961 2.13001 6.50024C1.95137 6.80964 1.95137 7.19084 2.13001 7.50024L6.13001 14.5002L5.36001 16.0002C5.24021 15.9904 5.11981 15.9904 5.00001 16.0002C3.34315 16.0002 2.00001 17.3434 2.00001 19.0002C2.00001 20.6571 3.34315 22.0002 5.00001 22.0002C6.65686 22.0002 8.00001 20.6571 8.00001 19.0002C7.99683 18.223 7.6921 17.4773 7.15001 16.9202L8.15001 14.9202L9.53001 14.7802L13.47 20.6902C14.03 21.5351 14.9869 22.0306 16 22.0002C16.3863 21.9995 16.7692 21.9283 17.13 21.7902C18.4579 21.2738 19.2394 19.8947 19 18.4902L18 13.0002L19.79 4.00024H21C21.5523 4.00024 22 3.55253 22 3.00024C22 2.44796 21.5523 2.00024 21 2.00024ZM4.99999 20C4.44771 20 3.99999 19.5523 3.99999 19C3.99999 18.4477 4.44771 18 4.99999 18C5.55228 18 5.99999 18.4477 5.99999 19C5.99999 19.5523 5.55228 20 4.99999 20ZM10.3 4.29025C10.6888 3.90911 11.3111 3.90911 11.7 4.29025L13.41 6.00025H8.58999L10.3 4.29025ZM7.54999 12.9402L4.71999 8.00024H17L16.18 12.0802L7.54999 12.9402ZM16.36 19.94C15.9205 20.1125 15.4201 19.9541 15.16 19.56L11.82 14.56L16.19 14.13L17 18.82C17.0829 19.296 16.8135 19.7632 16.36 19.93V19.94Z" fill="#171E2B"/>
</svg>
