<svg width="24" height="24" viewBox="0 0 24 24" fill="none" xmlns="http://www.w3.org/2000/svg">
<path fill-rule="evenodd" clip-rule="evenodd" d="M20 16.1802V16.0002C19.9964 14.732 19.1957 13.603 18 13.1802V7.00024H19C19.5523 7.00024 20 6.55253 20 6.00024C20 5.44796 19.5523 5.00024 19 5.00024H6.99998C6.99998 3.34339 5.65683 2.00024 3.99998 2.00024H2.99998C2.44769 2.00024 1.99998 2.44796 1.99998 3.00024C1.99998 3.55253 2.44769 4.00024 2.99998 4.00024H3.99998C4.55226 4.00024 4.99998 4.44796 4.99998 5.00024V12.4202C2.71093 13.4193 1.51016 15.9542 2.1872 18.3582C2.86424 20.7623 5.21142 22.298 7.68539 21.9556C10.1594 21.6132 12.0013 19.4978 12 17.0002C12.0009 16.3116 11.8579 15.6303 11.58 15.0002H17C17.5523 15.0002 18 15.448 18 16.0002V16.1802C16.6224 16.6673 15.7961 18.0759 16.0432 19.516C16.2903 20.956 17.5389 22.0087 19 22.0087C20.4611 22.0087 21.7097 20.956 21.9568 19.516C22.2038 18.0759 21.3775 16.6673 20 16.1802ZM6.99997 20.0002C5.34312 20.0002 3.99997 18.6571 3.99997 17.0002C3.99997 15.3434 5.34312 14.0002 6.99997 14.0002C8.65683 14.0002 9.99997 15.3434 9.99997 17.0002C9.99997 18.6571 8.65683 20.0002 6.99997 20.0002ZM16 13.0002H9.99997C9.13691 12.3465 8.08265 11.9951 6.99997 12.0002V11.0002H16V13.0002ZM16 9.00049H6.99997V7.00049H16V9.00049ZM19 20C18.4477 20 18 19.5523 18 19C18 18.4477 18.4477 18 19 18C19.5523 18 20 18.4477 20 19C20 19.5523 19.5523 20 19 20ZM6.99999 16.0005C6.4477 16.0005 5.99999 16.4482 5.99999 17.0005C5.99999 17.5528 6.4477 18.0005 6.99999 18.0005C7.55227 18.0005 7.99999 17.5528 7.99999 17.0005C7.99999 16.4482 7.55227 16.0005 6.99999 16.0005Z" fill="#171E2B"/>
</svg>
