<svg width="24" height="24" viewBox="0 0 24 24" fill="none" xmlns="http://www.w3.org/2000/svg">
<path fill-rule="evenodd" clip-rule="evenodd" d="M8.89999 17.0003C8.34771 17.0003 7.89999 17.448 7.89999 18.0003C7.89999 18.5526 8.34771 19.0003 8.89999 19.0003C9.45228 19.0003 9.9 18.5526 9.9 18.0003C9.9 17.448 9.45228 17.0003 8.89999 17.0003ZM5.89999 17.0003C5.34771 17.0003 4.89999 17.448 4.89999 18.0003C4.89999 18.5526 5.34771 19.0003 5.89999 19.0003C6.45228 19.0003 6.89999 18.5526 6.89999 18.0003C6.89999 17.448 6.45228 17.0003 5.89999 17.0003ZM11.9 17.0003C11.3477 17.0003 10.9 17.448 10.9 18.0003C10.9 18.5526 11.3477 19.0003 11.9 19.0003C12.4523 19.0003 12.9 18.5526 12.9 18.0003C12.9 17.448 12.4523 17.0003 11.9 17.0003ZM15 8.50064C15.1789 8.19224 15.5085 8.00241 15.865 8.00241C16.2215 8.00241 16.5511 8.19224 16.73 8.50064C17.0046 8.97677 17.612 9.14203 18.09 8.87064C18.3283 8.74556 18.5061 8.52973 18.5833 8.27191C18.6604 8.01409 18.6304 7.73605 18.5 7.50064C17.9646 6.57055 16.9732 5.9973 15.9 5.9973C14.8268 5.9973 13.8354 6.57055 13.3 7.50064C13.1256 7.95674 13.3062 8.47206 13.727 8.71964C14.1479 8.96721 14.6861 8.87463 15 8.50064ZM22 5.50038C20.749 3.3367 18.4393 2.00415 15.94 2.00415C13.4407 2.00415 11.131 3.3367 9.87999 5.50038C9.74645 5.7309 9.71041 6.00519 9.77987 6.26238C9.84933 6.51958 10.0186 6.73843 10.25 6.87038C10.3876 6.94873 10.5418 6.99328 10.7 7.00038C11.0587 7.0018 11.3907 6.81102 11.57 6.50038C12.4632 4.9535 14.1138 4.0006 15.9 4.0006C17.6862 4.0006 19.3368 4.9535 20.23 6.50038C20.3619 6.73182 20.5808 6.90104 20.838 6.9705C21.0952 7.03996 21.3695 7.00393 21.6 6.87038C21.8366 6.74356 22.0122 6.52696 22.0874 6.26931C22.1627 6.01165 22.1312 5.73457 22 5.50038ZM17.9 14.0006H16.9V11.0006C16.9 10.4483 16.4523 10.0006 15.9 10.0006C15.3477 10.0006 14.9 10.4483 14.9 11.0006V14.0006H4.89999C3.24314 14.0006 1.89999 15.3437 1.89999 17.0006V19.0006C1.89999 20.6574 3.24314 22.0006 4.89999 22.0006H17.9C19.5568 22.0006 20.9 20.6574 20.9 19.0006V17.0006C20.9 15.3437 19.5568 14.0006 17.9 14.0006ZM18.9 19.0006C18.9 19.5529 18.4523 20.0006 17.9 20.0006H4.9C4.34771 20.0006 3.9 19.5529 3.9 19.0006V17.0006C3.9 16.4483 4.34771 16.0006 4.9 16.0006H17.9C18.4523 16.0006 18.9 16.4483 18.9 17.0006V19.0006Z" fill="#171E2B"/>
</svg>
