<svg width="24" height="24" viewBox="0 0 24 24" fill="none" xmlns="http://www.w3.org/2000/svg">
<path fill-rule="evenodd" clip-rule="evenodd" d="M12 15C10.3432 15 9.00001 16.3431 9.00001 18C9.00001 19.6568 10.3432 21 12 21C13.6569 21 15 19.6568 15 18C15 16.3431 13.6569 15 12 15ZM12 19.0002C11.4477 19.0002 11 18.5525 11 18.0002C11 17.4479 11.4477 17.0002 12 17.0002C12.5523 17.0002 13 17.4479 13 18.0002C13 18.5525 12.5523 19.0002 12 19.0002ZM12 11.0001C10.1447 11.0065 8.36656 11.7429 7.05001 13.0501C6.66229 13.4401 6.66229 14.07 7.05001 14.4601C7.44005 14.8478 8.06997 14.8478 8.46001 14.4601C9.39805 13.5196 10.6717 12.9911 12 12.9911C13.3283 12.9911 14.602 13.5196 15.54 14.4601C15.7246 14.6485 15.9762 14.7563 16.24 14.7601C16.6554 14.784 17.0423 14.5481 17.2113 14.1679C17.3803 13.7876 17.2961 13.3424 17 13.0501C15.6712 11.7307 13.8726 10.9933 12 11.0001ZM12 6.99971C9.084 7.00746 6.28859 8.16443 4.22002 10.2197C3.82789 10.6118 3.82789 11.2476 4.22002 11.6397C4.61214 12.0318 5.24789 12.0318 5.64002 11.6397C9.15383 8.13027 14.8462 8.13027 18.36 11.6397C18.5487 11.8269 18.8042 11.9313 19.07 11.9297C19.3358 11.9313 19.5913 11.8269 19.78 11.6397C19.9693 11.452 20.0758 11.1964 20.0758 10.9297C20.0758 10.6631 19.9693 10.4075 19.78 10.2197C17.7114 8.16443 14.916 7.00746 12 6.99971ZM22.61 7.38996C19.7967 4.57484 15.9799 2.99316 12 2.99316C8.0201 2.99316 4.20333 4.57484 1.39001 7.38996C0.997886 7.78208 0.997886 8.41784 1.39001 8.80996C1.78213 9.20208 2.41789 9.20208 2.81001 8.80996C7.88628 3.73633 16.1137 3.73633 21.19 8.80996C21.3778 8.99927 21.6334 9.10576 21.9 9.10576C22.1666 9.10576 22.4222 8.99927 22.61 8.80996C22.7993 8.62219 22.9058 8.3666 22.9058 8.09996C22.9058 7.83332 22.7993 7.57773 22.61 7.38996Z" fill="#171E2B"/>
</svg>
