<svg width="24" height="24" viewBox="0 0 24 24" fill="none" xmlns="http://www.w3.org/2000/svg">
<path fill-rule="evenodd" clip-rule="evenodd" d="M6.91998 5.50972L3.70998 2.28972C3.45633 2.03606 3.08661 1.937 2.74011 2.02984C2.3936 2.12269 2.12295 2.39334 2.03011 2.73984C1.93726 3.08635 2.03633 3.45606 2.28998 3.70972L4.55998 5.99972C3.40695 6.6552 2.34461 7.45868 1.39998 8.38972C1.01226 8.77976 1.01226 9.40968 1.39998 9.79972C1.58706 9.99058 1.84274 10.0986 2.10998 10.0997C2.37232 10.0986 2.62372 9.99446 2.80998 9.80972C3.76292 8.86468 4.85574 8.07206 6.04998 7.45972L7.53998 8.99972C6.30072 9.54142 5.17445 10.3115 4.21998 11.2697C3.93649 11.5162 3.81502 11.9007 3.9055 12.2653C3.99598 12.6299 4.28315 12.913 4.64898 12.9983C5.01481 13.0836 5.39758 12.9567 5.63998 12.6697C6.60955 11.7045 7.79082 10.9786 9.08998 10.5497L10.71 12.1597C9.32366 12.4265 8.04893 13.1021 7.04998 14.0997C6.76649 14.3462 6.64502 14.7307 6.7355 15.0953C6.82598 15.4599 7.11315 15.743 7.47898 15.8283C7.84481 15.9136 8.22758 15.7867 8.46998 15.4997C9.40047 14.5503 10.6707 14.0106 12 13.9997C12.211 14.0003 12.4216 14.017 12.63 14.0497L20.29 21.7097C20.4778 21.899 20.7333 22.0055 21 22.0055C21.2666 22.0055 21.5222 21.899 21.71 21.7097C21.8993 21.522 22.0058 21.2664 22.0058 20.9997C22.0058 20.7331 21.8993 20.4775 21.71 20.2897L6.91998 5.50972ZM12 15.9996C10.3431 15.9996 8.99998 17.3428 8.99998 18.9996C8.99998 20.6565 10.3431 21.9996 12 21.9996C13.6568 21.9996 15 20.6565 15 18.9996C15 17.3428 13.6568 15.9996 12 15.9996ZM12 19.9999C11.4477 19.9999 11 19.5522 11 18.9999C11 18.4476 11.4477 17.9999 12 17.9999C12.5523 17.9999 13 18.4476 13 18.9999C13 19.5522 12.5523 19.9999 12 19.9999ZM22.61 8.38965C19.3727 5.15523 14.836 3.5755 10.29 4.09965C9.7377 4.1604 9.33923 4.65737 9.39998 5.20965C9.46073 5.76194 9.9577 6.1604 10.51 6.09965C14.4517 5.64978 18.3844 7.01464 21.2 9.80965C21.5921 10.199 22.2256 10.1968 22.615 9.80465C23.0043 9.41253 23.0021 8.77901 22.61 8.38965ZM18.36 12.6299C18.7543 12.9727 19.3461 12.9541 19.7181 12.5873C20.0902 12.2205 20.1172 11.629 19.78 11.2299C18.4442 9.87868 16.7742 8.90564 14.94 8.40988C14.5835 8.27218 14.1797 8.34972 13.8995 8.60967C13.6193 8.86962 13.5118 9.26652 13.6225 9.63232C13.7332 9.99812 14.0427 10.2689 14.42 10.3299C15.9101 10.7429 17.2677 11.5354 18.36 12.6299Z" fill="#171E2B"/>
</svg>
