<svg width="24" height="24" viewBox="0 0 24 24" fill="none" xmlns="http://www.w3.org/2000/svg">
<path fill-rule="evenodd" clip-rule="evenodd" d="M9.99999 4.99951C9.44771 4.99951 8.99999 5.44722 8.99999 5.99951C8.99999 6.55179 9.44771 6.99951 9.99999 6.99951C10.5523 6.99951 11 6.55179 11 5.99951C11 5.44722 10.5523 4.99951 9.99999 4.99951ZM6.00001 4.99951C5.44772 4.99951 5.00001 5.44722 5.00001 5.99951C5.00001 6.55179 5.44772 6.99951 6.00001 6.99951C6.55229 6.99951 7.00001 6.55179 7.00001 5.99951C7.00001 5.44722 6.55229 4.99951 6.00001 4.99951ZM14 4.99951C13.4477 4.99951 13 5.44722 13 5.99951C13 6.55179 13.4477 6.99951 14 6.99951C14.5523 6.99951 15 6.55179 15 5.99951C15 5.44722 14.5523 4.99951 14 4.99951ZM20 0.999756H4C2.34315 0.999756 1 2.3429 1 3.99976V19.9998C1 21.6566 2.34315 22.9998 4 22.9998H20C21.6569 22.9998 23 21.6566 23 19.9998V3.99976C23 2.3429 21.6569 0.999756 20 0.999756ZM21 19.9995C21 20.5518 20.5523 20.9995 20 20.9995H3.99999C3.44771 20.9995 2.99999 20.5518 2.99999 19.9995V10.9995H21V19.9995ZM21 9H2.99999V4C2.99999 3.44772 3.44771 3 3.99999 3H20C20.5523 3 21 3.44772 21 4V9Z" fill="#171E2B"/>
</svg>
