<svg width="24" height="24" viewBox="0 0 24 24" fill="none" xmlns="http://www.w3.org/2000/svg">
<path fill-rule="evenodd" clip-rule="evenodd" d="M3.5 8.99975C4.05228 8.99975 4.5 8.55204 4.5 7.99975C4.5 7.44747 4.05228 6.99975 3.5 6.99975C2.94771 6.99975 2.5 7.44747 2.5 7.99975C2.5 8.55204 2.94771 8.99975 3.5 8.99975ZM7.50001 9H14.5C16.1569 9 17.5 7.65685 17.5 6C17.5 4.34315 16.1569 3 14.5 3C13.9739 3.00218 13.4573 3.13994 13 3.4C12.7686 3.53195 12.5993 3.7508 12.5299 4.008C12.4604 4.26519 12.4965 4.53948 12.63 4.77C12.7636 4.99974 12.9832 5.16684 13.2403 5.23439C13.4973 5.30194 13.7707 5.26437 14 5.13C14.1539 5.04722 14.3253 5.00264 14.5 5C15.0523 5 15.5 5.44772 15.5 6C15.5 6.55228 15.0523 7 14.5 7H7.50001C6.94772 7 6.50001 7.44772 6.50001 8C6.50001 8.55228 6.94772 9 7.50001 9ZM3.5 13.0002H10.5C11.0523 13.0002 11.5 12.5525 11.5 12.0002C11.5 11.448 11.0523 11.0002 10.5 11.0002H3.5C2.94772 11.0002 2.5 11.448 2.5 12.0002C2.5 12.5525 2.94772 13.0002 3.5 13.0002ZM20.5 8.99975C21.0523 8.99975 21.5 8.55204 21.5 7.99975C21.5 7.44747 21.0523 6.99975 20.5 6.99975C19.9477 6.99975 19.5 7.44747 19.5 7.99975C19.5 8.55204 19.9477 8.99975 20.5 8.99975ZM18.5 11.0002H14.5C13.9477 11.0002 13.5 11.448 13.5 12.0002C13.5 12.5525 13.9477 13.0002 14.5 13.0002H18.5C19.0523 13.0002 19.5 13.448 19.5 14.0002C19.5 14.5525 19.0523 15.0002 18.5 15.0002C17.9477 15.0002 17.5 15.448 17.5 16.0002C17.5 16.5525 17.9477 17.0002 18.5 17.0002C20.1568 17.0002 21.5 15.6571 21.5 14.0002C21.5 12.3434 20.1568 11.0002 18.5 11.0002ZM12.5 15H8.49999C7.94771 15 7.49999 15.4477 7.49999 16C7.49999 16.5523 7.94771 17 8.49999 17H12.5C13.0523 17 13.5 17.4477 13.5 18C13.5 18.5523 13.0523 19 12.5 19C12.3253 18.9974 12.1538 18.9528 12 18.87C11.69 18.6729 11.2969 18.6617 10.9762 18.8407C10.6554 19.0197 10.4586 19.3602 10.4636 19.7274C10.4686 20.0947 10.6745 20.4297 11 20.6C11.4573 20.8601 11.9739 20.9978 12.5 21C14.1569 21 15.5 19.6569 15.5 18C15.5 16.3431 14.1569 15 12.5 15ZM4.5 15H3.5C2.94772 15 2.5 15.4477 2.5 16C2.5 16.5523 2.94772 17 3.5 17H4.5C5.05228 17 5.5 16.5523 5.5 16C5.5 15.4477 5.05228 15 4.5 15Z" fill="#171E2B"/>
</svg>
