<svg width="24" height="24" viewBox="0 0 24 24" fill="none" xmlns="http://www.w3.org/2000/svg">
<path fill-rule="evenodd" clip-rule="evenodd" d="M18.08 5.00024L10 4.33024L7.00003 4.08024V3.00024C7.00003 2.44796 6.55231 2.00024 6.00003 2.00024C5.44775 2.00024 5.00003 2.44796 5.00003 3.00024V21.0002C5.00003 21.5525 5.44775 22.0002 6.00003 22.0002C6.55231 22.0002 7.00003 21.5525 7.00003 21.0002V13.9202L10 13.6702L18.08 13.0002C18.6008 12.9584 19.0017 12.5227 19 12.0002V6.00024C19.0017 5.47775 18.6008 5.04204 18.08 5.00024ZM9.00005 11.75L7.00005 11.91V6.09L9.00005 6.25V11.75ZM13 11.41L11 11.58V6.41999L13 6.58999V11.41ZM17 11.08L15 11.25V6.75L17 6.92V11.08Z" fill="#171E2B"/>
</svg>
