<svg width="24" height="24" viewBox="0 0 24 24" fill="none" xmlns="http://www.w3.org/2000/svg">
<path fill-rule="evenodd" clip-rule="evenodd" d="M19 2.00024H9.00001C7.34316 2.00024 6.00002 3.34339 6.00002 5.00024V6.00024H5.00002C3.34316 6.00024 2.00002 7.34339 2.00002 9.00024V19.0002C2.00002 20.6571 3.34316 22.0002 5.00002 22.0002H15C16.6569 22.0002 18 20.6571 18 19.0002V18.0002H19C20.6569 18.0002 22 16.6571 22 15.0002V5.00024C22 3.34339 20.6569 2.00024 19 2.00024ZM16 19C16 19.5523 15.5523 20 15 20H5.00003C4.44775 20 4.00003 19.5523 4.00003 19V12H16V19ZM16 10.0002H4.00003V9.00024C4.00003 8.44796 4.44775 8.00024 5.00003 8.00024H15C15.5523 8.00024 16 8.44796 16 9.00024V10.0002ZM20 15.0002C20 15.5525 19.5523 16.0002 19 16.0002H18V9.00024C17.9973 8.6591 17.9364 8.32092 17.82 8.00024H20V15.0002ZM20 6.00049H8.00002V5.00049C8.00002 4.44821 8.44773 4.00049 9.00002 4.00049H19C19.5523 4.00049 20 4.44821 20 5.00049V6.00049Z" fill="#171E2B"/>
</svg>
