<svg width="24" height="24" viewBox="0 0 24 24" fill="none" xmlns="http://www.w3.org/2000/svg">
<path fill-rule="evenodd" clip-rule="evenodd" d="M21.71 15.5801L17.19 11.0701C17.2846 10.6095 17.3315 10.1404 17.33 9.67014C17.3293 7.04979 15.9909 4.61113 13.7809 3.20328C11.5709 1.79543 8.79508 1.61324 6.42 2.72014C6.11939 2.85746 5.90605 3.13444 5.85 3.46014C5.79419 3.78159 5.8987 4.11005 6.13 4.34014L10.48 8.68014L8.68 10.4801L4.34 6.13014C4.10799 5.90246 3.77978 5.80176 3.46 5.86014C3.13641 5.91412 2.85987 6.12339 2.72 6.42014C1.60928 8.80328 1.79666 11.5893 3.21651 13.8022C4.63636 16.0152 7.09078 17.3466 9.72 17.3301C10.1902 17.3317 10.6594 17.2847 11.12 17.1901L15.63 21.7101C15.8178 21.8995 16.0734 22.0059 16.34 22.0059C16.6066 22.0059 16.8622 21.8995 17.05 21.7101C17.2393 21.5224 17.3458 21.2668 17.3458 21.0001C17.3458 20.7335 17.2393 20.4779 17.05 20.2901L12.15 15.3901C11.9009 15.1427 11.5404 15.044 11.2 15.1301C10.7172 15.2594 10.2198 15.3267 9.72 15.3301C8.20931 15.3435 6.75577 14.7534 5.68189 13.6907C4.60801 12.6281 4.0026 11.1809 4 9.67014C3.9987 9.33516 4.02546 9.00066 4.08 8.67014L8 12.6001C8.18777 12.7895 8.44336 12.8959 8.71 12.8959C8.97664 12.8959 9.23223 12.7895 9.42 12.6001L12.6 9.39014C12.9747 9.00254 12.9747 8.38774 12.6 8.00014L8.71 4.08014C9.04058 4.02615 9.37504 3.9994 9.71 4.00014C12.8375 4.00566 15.37 6.54259 15.37 9.67014C15.3665 10.17 15.2993 10.6673 15.17 11.1501C15.0839 11.4905 15.1826 11.8511 15.43 12.1001L20.33 17.0001C20.7221 17.3923 21.3579 17.3923 21.75 17.0001C22.1421 16.608 22.1421 15.9723 21.75 15.5801H21.71Z" fill="#171E2B"/>
</svg>
