<svg width="24" height="24" viewBox="0 0 24 24" fill="none" xmlns="http://www.w3.org/2000/svg">
<path fill-rule="evenodd" clip-rule="evenodd" d="M12 5.49975C11.1716 5.49975 10.5 6.17132 10.5 6.99975C10.5 7.82818 11.1716 8.49975 12 8.49975C12.8284 8.49975 13.5 7.82818 13.5 6.99975C13.5 6.17132 12.8284 5.49975 12 5.49975ZM22 8.5H21.46C22.4483 7.40175 22.9967 5.97746 23 4.5C23 3.94772 22.5523 3.5 22 3.5H17.82C17.3973 2.30427 16.2683 1.50356 15 1.5H9C7.73174 1.50356 6.60275 2.30427 6.18 3.5H2C1.44772 3.5 1 3.94772 1 4.5C1.00334 5.97746 1.55169 7.40175 2.54 8.5H2C1.44772 8.5 1 8.94771 1 9.5C1.00334 10.9775 1.55169 12.4018 2.54 13.5H2C1.44772 13.5 1 13.9477 1 14.5C1.00543 17.485 3.20436 20.0121 6.16 20.43C6.56114 21.6603 7.70596 22.4947 9 22.5H15C16.294 22.4947 17.4389 21.6603 17.84 20.43C20.7956 20.0121 22.9946 17.485 23 14.5C23 13.9477 22.5523 13.5 22 13.5H21.46C22.4483 12.4018 22.9967 10.9775 23 9.5C23 8.94771 22.5523 8.5 22 8.5ZM6 18.3702C4.59297 18.006 3.49421 16.9073 3.13 15.5002H6V18.3702ZM6 13.37C4.59297 13.0058 3.49421 11.907 3.13 10.5H6V13.37ZM6 8.37025C5.31384 8.20064 4.68334 7.85611 4.17 7.37025C3.68414 6.8569 3.3396 6.22641 3.17 5.54025H6V8.37025ZM16 19.5002C16 20.0525 15.5523 20.5002 15 20.5002H9C8.44772 20.5002 8 20.0525 8 19.5002V4.50025C8 3.94796 8.44772 3.50025 9 3.50025H15C15.5523 3.50025 16 3.94796 16 4.50025V19.5002ZM19.83 17.3302C19.3167 17.8161 18.6862 18.1606 18 18.3302V15.5002H20.87C20.6889 16.1905 20.3304 16.8214 19.83 17.3302ZM19.83 12.33C19.3167 12.8159 18.6862 13.1604 18 13.33V10.5H20.87C20.6889 11.1903 20.3304 11.8212 19.83 12.33ZM19.83 7.32975C19.3167 7.81561 18.6862 8.16015 18 8.32975V5.49975H20.87C20.6889 6.19004 20.3304 6.82093 19.83 7.32975ZM12 15.5002C11.1716 15.5002 10.5 16.1718 10.5 17.0002C10.5 17.8287 11.1716 18.5002 12 18.5002C12.8284 18.5002 13.5 17.8287 13.5 17.0002C13.5 16.1718 12.8284 15.5002 12 15.5002ZM12 10.5C11.1716 10.5 10.5 11.1716 10.5 12C10.5 12.8284 11.1716 13.5 12 13.5C12.8284 13.5 13.5 12.8284 13.5 12C13.5 11.1716 12.8284 10.5 12 10.5Z" fill="#171E2B"/>
</svg>
