<svg width="24" height="24" viewBox="0 0 24 24" fill="none" xmlns="http://www.w3.org/2000/svg">
<path fill-rule="evenodd" clip-rule="evenodd" d="M12 0.999756C5.92487 0.999756 1 5.92462 1 11.9998C1 18.0749 5.92487 22.9998 12 22.9998C18.0751 22.9998 23 18.0749 23 11.9998C23 9.08237 21.8411 6.28448 19.7782 4.22158C17.7153 2.15868 14.9174 0.999756 12 0.999756ZM12 21C7.02944 21 3 16.9706 3 12C3 7.02944 7.02944 3 12 3C16.9706 3 21 7.02944 21 12C21 16.9706 16.9706 21 12 21ZM14.83 6.44985L12 10.6998L9.16999 6.44985C9.02326 6.22783 8.79408 6.07345 8.5332 6.0209C8.27231 5.96835 8.00124 6.02195 7.77999 6.16985C7.32372 6.47503 7.19875 7.09096 7.49999 7.54985L9.60999 10.7198H8.99999C8.44771 10.7198 7.99999 11.1676 7.99999 11.7198C7.99999 12.2721 8.44771 12.7198 8.99999 12.7198H11L11.05 12.7998V13.7198H8.99999C8.44771 13.7198 7.99999 14.1676 7.99999 14.7198C7.99999 15.2721 8.44771 15.7198 8.99999 15.7198H11V17.9998C11 18.5521 11.4477 18.9998 12 18.9998C12.5523 18.9998 13 18.5521 13 17.9998V15.7198H15C15.5523 15.7198 16 15.2721 16 14.7198C16 14.1676 15.5523 13.7198 15 13.7198H13V12.7998L13.05 12.7198H15C15.5523 12.7198 16 12.2721 16 11.7198C16 11.1676 15.5523 10.7198 15 10.7198H14.39L16.5 7.54985C16.8012 7.09096 16.6763 6.47503 16.22 6.16985C15.9987 6.02195 15.7277 5.96835 15.4668 6.0209C15.2059 6.07345 14.9767 6.22783 14.83 6.44985Z" fill="#171E2B"/>
</svg>
