<svg width="24" height="24" viewBox="0 0 24 24" fill="none" xmlns="http://www.w3.org/2000/svg">
<path fill-rule="evenodd" clip-rule="evenodd" d="M18.55 2.17025C18.0911 1.869 17.4752 1.99398 17.17 2.45025L12 10.2002L6.82998 2.45025C6.50606 2.04813 5.92925 1.95874 5.49882 2.24396C5.06839 2.52919 4.9259 3.09522 5.16998 3.55025L10.17 11.0002H6.99998C6.44769 11.0002 5.99998 11.448 5.99998 12.0002C5.99998 12.5525 6.44769 13.0002 6.99998 13.0002H11V15.0002H6.99998C6.44769 15.0002 5.99998 15.448 5.99998 16.0002C5.99998 16.5525 6.44769 17.0002 6.99998 17.0002H11V21.0002C11 21.5525 11.4477 22.0002 12 22.0002C12.5523 22.0002 13 21.5525 13 21.0002V17.0002H17C17.5523 17.0002 18 16.5525 18 16.0002C18 15.448 17.5523 15.0002 17 15.0002H13V13.0002H17C17.5523 13.0002 18 12.5525 18 12.0002C18 11.448 17.5523 11.0002 17 11.0002H13.87L18.87 3.55025C19.011 3.32494 19.0565 3.05275 18.9965 2.79382C18.9364 2.53488 18.7758 2.3105 18.55 2.17025Z" fill="#171E2B"/>
</svg>
