<svg width="24" height="24" viewBox="0 0 24 24" fill="none" xmlns="http://www.w3.org/2000/svg">
<path fill-rule="evenodd" clip-rule="evenodd" d="M15.4 11.1597L10.5 7.99968C10.1906 7.82105 9.80941 7.82105 9.50001 7.99968C9.19851 8.17359 9.00913 8.49175 9.00001 8.83968V15.1597C9.00265 15.5225 9.20166 15.8555 9.52001 16.0297C9.66544 16.1153 9.83124 16.1602 10 16.1597C10.1771 16.1475 10.3487 16.0926 10.5 15.9997L15.4 12.8397C15.6852 12.6555 15.8574 12.3392 15.8574 11.9997C15.8574 11.6602 15.6852 11.3439 15.4 11.1597ZM11 13.3199V10.6799L13 11.9999L11 13.3199ZM19.38 4.51005L17.83 4.31005C13.991 3.84001 10.109 3.84001 6.27 4.31005L4.72 4.51005C3.17698 4.67797 2.00616 5.97793 2 7.53005V16.4701C2.01315 17.9976 3.15431 19.2798 4.67 19.4701L6.22 19.6601C8.13776 19.8931 10.0681 20.0066 12 20.0001C13.9323 20 15.8627 19.8798 17.78 19.6401L19.33 19.4501C20.8457 19.2598 21.9869 17.9776 22 16.4501V7.53005C21.9969 5.99489 20.8532 4.70131 19.33 4.51005H19.38ZM20.05 16.5101C20.0517 17.0326 19.6508 17.4683 19.13 17.5101L17.58 17.7001C13.9077 18.1601 10.1923 18.1601 6.51999 17.7001L4.96999 17.5101C4.44917 17.4683 4.04832 17.0326 4.04999 16.5101V7.5301C4.07459 7.01819 4.4619 6.5972 4.96999 6.5301L6.46999 6.3001C10.1427 5.84675 13.8573 5.84675 17.53 6.3001L19.08 6.4901C19.5881 6.5572 19.9754 6.97819 20 7.4901L20.05 16.5101Z" fill="#171E2B"/>
</svg>
