<svg width="24" height="24" viewBox="0 0 24 24" fill="none" xmlns="http://www.w3.org/2000/svg">
<path fill-rule="evenodd" clip-rule="evenodd" d="M14.89 10.4795L11.89 8.73954C11.3472 8.41882 10.6729 8.41882 10.13 8.73954C9.58288 9.04798 9.24886 9.63155 9.26002 10.2595V13.7395C9.24886 14.3675 9.58288 14.9511 10.13 15.2595C10.6729 15.5803 11.3472 15.5803 11.89 15.2595L14.89 13.5195C15.4115 13.1994 15.7294 12.6315 15.7294 12.0195C15.7294 11.4076 15.4115 10.8396 14.89 10.5195V10.4795ZM11.24 13.32V10.68L13.52 12L11.24 13.32ZM19 3.99976H5C3.34315 3.99976 2 5.3429 2 6.99976V16.9998C2 18.6566 3.34315 19.9998 5 19.9998H19C20.6569 19.9998 22 18.6566 22 16.9998V6.99976C22 5.3429 20.6569 3.99976 19 3.99976ZM20 17C20 17.5523 19.5523 18 19 18H5.00001C4.44773 18 4.00002 17.5523 4.00002 17V7C4.00002 6.44772 4.44773 6 5.00001 6H19C19.5523 6 20 6.44772 20 7V17Z" fill="#171E2B"/>
</svg>
