<svg width="91" height="62" viewBox="0 0 91 62" fill="none" xmlns="http://www.w3.org/2000/svg">
<path d="M45.2942 8.20262e-05C45.2396 0.00398803 45.1849 0.00789403 45.1302 0.015707C44.3333 0.105551 43.7357 0.789147 43.7513 1.59381V11.7458C43.7396 12.1638 43.8997 12.57 44.1966 12.8708C44.4896 13.1716 44.8919 13.3435 45.3138 13.3435C45.7318 13.3435 46.1341 13.1716 46.431 12.8708C46.724 12.57 46.8841 12.1638 46.8763 11.7458V1.59381C46.8841 1.17193 46.7201 0.761777 46.4232 0.464907C46.1224 0.164127 45.7162 -0.00384323 45.2943 6.67674e-05L45.2942 8.20262e-05ZM21.0522 10.0511V10.055C21.0015 10.055 20.9507 10.055 20.8999 10.0589C20.2944 10.1214 19.7788 10.5237 19.5796 11.098C19.3765 11.6722 19.5288 12.3128 19.9624 12.7386L27.1382 19.9222C27.7554 20.512 28.728 20.5003 29.3296 19.8988C29.9312 19.2972 29.9429 18.3246 29.3531 17.7074L22.1695 10.5355C21.8765 10.2308 21.4741 10.0589 21.0523 10.055L21.0522 10.0511ZM69.5172 10.0589C69.111 10.0745 68.7282 10.2425 68.443 10.5355L61.2672 17.7113L61.2712 17.7073C60.9547 17.9964 60.7711 18.3988 60.7633 18.8245C60.7516 19.2503 60.9157 19.6605 61.2165 19.9651C61.5172 20.2659 61.9274 20.43 62.3532 20.4222C62.7789 20.4144 63.1852 20.2347 63.4743 19.9222L70.6579 12.7386C71.1149 12.2855 71.2516 11.6019 70.9977 11.0081C70.7477 10.4182 70.1579 10.0432 69.5172 10.0589L69.5172 10.0589ZM45.3652 19.5511C44.6777 19.5277 44.0566 19.9534 43.83 20.6019L39.9902 31.6529L28.2912 31.8951L28.2952 31.8912C27.6311 31.9107 27.0491 32.3404 26.846 32.9732C26.6389 33.6021 26.8577 34.2935 27.385 34.6959L36.7014 41.7662L33.3225 52.9652V52.9691C33.135 53.6019 33.3655 54.2894 33.9045 54.68C34.4397 55.0667 35.1623 55.0745 35.7092 54.6995L45.3069 48.0198L54.9124 54.6995C55.4593 55.0784 56.1858 55.0706 56.721 54.68C57.2601 54.2933 57.4945 53.6058 57.3031 52.9691L53.9125 41.7701L63.2289 34.6998V34.6959C63.7562 34.2935 63.975 33.6021 63.7679 32.9732C63.5648 32.3404 62.9828 31.9107 62.3187 31.8912L50.6237 31.6529L46.7839 20.6019C46.573 19.9925 46.0105 19.5746 45.3659 19.5511L45.3652 19.5511ZM45.3067 25.8753L48.0294 33.7073C48.2442 34.3206 48.8184 34.7385 49.4708 34.7542L57.7638 34.9261L51.1544 39.9339C50.6387 40.3323 50.4239 41.0042 50.6153 41.6292L53.0137 49.5667L46.209 44.8362H46.2051C45.6699 44.4612 44.9551 44.4612 44.4199 44.8362L37.6152 49.5745L40.0136 41.6292C40.1972 41.0042 39.9784 40.3284 39.4589 39.9339L32.8612 34.9261L41.1424 34.7542C41.7947 34.7386 42.369 34.3206 42.5838 33.7073L45.3067 25.8753ZM15.1817 32.6331H15.1777C14.4981 32.6097 13.8808 33.0354 13.6582 33.68L10.6582 42.3089L1.52545 42.4964H1.52154C0.86138 42.512 0.28324 42.9417 0.0762399 43.5745C-0.12688 44.2034 0.084053 44.8909 0.6114 45.2972L7.8887 50.8128L5.2481 59.555C5.0606 60.1878 5.29498 60.8753 5.83013 61.262C6.36529 61.6526 7.09183 61.6604 7.63483 61.2854L15.1348 56.0706L22.6192 61.2854C23.1661 61.6604 23.8887 61.6526 24.4239 61.262C24.963 60.8753 25.1935 60.1878 25.006 59.555L22.3654 50.8128L29.6388 45.2972H29.6427C30.1661 44.8949 30.3809 44.2034 30.1778 43.5745C29.9708 42.9456 29.3927 42.512 28.7325 42.4964L19.5958 42.3089L16.5997 33.68C16.3888 33.0706 15.8224 32.6566 15.1817 32.6331H15.1817ZM75.5527 32.6331H75.5487C74.8612 32.6058 74.2401 33.0315 74.0135 33.68L71.0174 42.3089L61.8924 42.4964C61.2323 42.512 60.6502 42.9417 60.4471 43.5745C60.2401 44.2034 60.455 44.8909 60.9784 45.2972L68.2557 50.8128L65.6034 59.555H65.6073C65.4198 60.1878 65.6503 60.8753 66.1893 61.262C66.7245 61.6526 67.4471 61.6604 67.994 61.2854L75.494 56.0706L82.994 61.2854H82.9901C83.5331 61.6604 84.2596 61.6526 84.7948 61.262C85.3339 60.8753 85.5644 60.1878 85.3769 59.555L82.7363 50.8128L90.0019 45.2972C90.5292 44.8909 90.7401 44.2034 90.537 43.5745C90.33 42.9417 89.7519 42.512 89.0917 42.4964L79.9706 42.3089L76.9706 33.68H76.9667C76.7558 33.0706 76.1933 32.6566 75.5487 32.6331H75.5527ZM15.1387 38.9573L17.0059 44.3635H17.0019C17.2168 44.9846 17.7988 45.4026 18.455 45.4104L24.1542 45.5276L19.6112 48.9768H19.6073C19.0839 49.3713 18.8612 50.0549 19.0566 50.6838L20.7168 56.1526L16.0215 52.887C15.4863 52.512 14.7715 52.512 14.2324 52.887L9.53706 56.1526L11.1973 50.6838H11.2012C11.3926 50.0549 11.1738 49.3713 10.6465 48.9768L6.09957 45.5276L11.7988 45.4104H11.8027C12.4589 45.4026 13.0371 44.9846 13.2558 44.3635L15.1387 38.9573ZM75.4977 38.9573L77.3765 44.3635H77.3726C77.5836 44.9768 78.1578 45.3987 78.8101 45.4104L84.521 45.5276L79.978 48.9768C79.4546 49.3713 79.232 50.0549 79.4234 50.6838L81.0718 56.1643L76.3765 52.887H76.3804C75.8452 52.5159 75.1382 52.5159 74.6031 52.887L69.9078 56.1643L71.5562 50.6838C71.7515 50.0549 71.5288 49.3713 71.0054 48.9768L66.4624 45.5276L72.1694 45.4104C72.8217 45.3987 73.396 44.9807 73.6108 44.3635L75.4977 38.9573Z" fill="#BCBCD2"/>
</svg>
