<svg width="150" height="150" viewBox="0 0 150 150" fill="none" xmlns="http://www.w3.org/2000/svg">
    <path d="M70.24 60.96C68.8267 60.96 67.76 60.4533 67.04 59.44C66.3467 58.4 66 56.96 66 55.12C66 53.12 66.5067 51.36 67.52 49.84C68.5333 48.2933 70.1067 47.0133 72.24 46L73.68 48.96C72.4 49.52 71.44 50.2133 70.8 51.04C70.16 51.84 69.84 52.84 69.84 54.04C69.92 54.0133 70.0533 54 70.24 54C71.2 54 72.0133 54.2933 72.68 54.88C73.3467 55.4667 73.68 56.2667 73.68 57.28C73.68 58.4 73.36 59.2933 72.72 59.96C72.08 60.6267 71.2533 60.96 70.24 60.96ZM80.64 60.96C79.2267 60.96 78.16 60.4533 77.44 59.44C76.7467 58.4 76.4 56.96 76.4 55.12C76.4 53.12 76.9067 51.36 77.92 49.84C78.9333 48.2933 80.5067 47.0133 82.64 46L84.08 48.96C82.8 49.52 81.84 50.2133 81.2 51.04C80.56 51.84 80.24 52.84 80.24 54.04C80.32 54.0133 80.4533 54 80.64 54C81.6 54 82.4133 54.2933 83.08 54.88C83.7467 55.4667 84.08 56.2667 84.08 57.28C84.08 58.4 83.76 59.2933 83.12 59.96C82.48 60.6267 81.6533 60.96 80.64 60.96Z" fill="#7A7A94"/>
    <rect x="36" y="77" width="78" height="8" rx="2" fill="#BCBCD2"/>
    <rect x="36" y="89" width="78" height="8" rx="2" fill="#BCBCD2"/>
    <rect x="46.5" y="101" width="57" height="8" rx="2" fill="#BCBCD2"/>
</svg>