<svg width="58" height="58" viewBox="0 0 58 58" fill="none" xmlns="http://www.w3.org/2000/svg">
<path d="M39.9556 13.5333V7.08887L46.4 12.8889L39.9556 13.5333Z" fill="#C1002A"/>
<path d="M33.8333 12.2446H10.3111L11.2778 52.5224H41.2444V19.3335L33.8333 12.2446Z" fill="#F3CCD4"/>
<path d="M34.744 38.9771H17.1393C16.7159 38.9771 16.373 39.32 16.373 39.7434C16.373 40.1668 16.7159 40.5097 17.1393 40.5097H34.744C35.1674 40.5097 35.5103 40.1668 35.5103 39.7434C35.5103 39.32 35.1674 38.9771 34.744 38.9771Z" fill="#C1002A"/>
<path d="M17.1393 35.6357H26.4922C26.9137 35.6357 27.2585 35.2927 27.2585 34.8694C27.2585 34.4479 26.9137 34.103 26.4922 34.103H17.1393C16.7159 34.103 16.373 34.4479 16.373 34.8694C16.373 35.2927 16.7159 35.6357 17.1393 35.6357Z" fill="#C1002A"/>
<path d="M34.744 43.8491H17.1393C16.7159 43.8491 16.373 44.1921 16.373 44.6154C16.373 45.0388 16.7159 45.3818 17.1393 45.3818H34.744C35.1674 45.3818 35.5103 45.0388 35.5103 44.6154C35.5103 44.1921 35.1674 43.8491 34.744 43.8491Z" fill="#C1002A"/>
<path d="M47.6447 13.1902C47.639 13.1749 47.6371 13.1595 47.6313 13.1461C47.6141 13.1097 47.5949 13.0733 47.5739 13.0388C47.57 13.0312 47.5662 13.0216 47.5605 13.0139C47.5317 12.9737 47.4991 12.9335 47.4647 12.8971L40.3129 5.74535H40.311C40.2765 5.71086 40.2363 5.67829 40.1941 5.65147C40.1865 5.64572 40.1769 5.64189 40.1692 5.63806H40.1712C40.1367 5.61699 40.1003 5.59783 40.0639 5.58058C40.0505 5.57484 40.0351 5.571 40.0198 5.56717C39.9393 5.53652 39.855 5.52119 39.7688 5.52311H16.1983C15.7749 5.52311 15.432 5.86604 15.432 6.28944V11.1422H10.5793C10.1559 11.1422 9.81293 11.4851 9.81293 11.9085V52.2499C9.81293 52.6733 10.1559 53.0163 10.5793 53.0163H41.3035C41.7268 53.0163 42.0698 52.6733 42.0698 52.2499V47.3972H46.9225C47.3459 47.3972 47.6889 47.0542 47.6889 46.6309V13.4412C47.6889 13.3894 47.685 13.3377 47.6735 13.2879C47.6659 13.2553 47.6563 13.2228 47.6448 13.1902L47.6447 13.1902ZM40.5372 8.13808L45.0738 12.6747H40.5372V8.13808ZM11.3456 51.4835V12.6747H33.3854V19.0604C33.3854 19.4838 33.7284 19.8267 34.1518 19.8267H40.5374V51.4837L11.3456 51.4835ZM39.4528 18.2938H34.918V13.7572L39.4528 18.2938ZM42.0698 45.8644V19.0604C42.0698 19.0087 42.064 18.9588 42.0544 18.9071C42.0468 18.8746 42.0372 18.8401 42.0257 18.8094C42.02 18.7941 42.018 18.7788 42.0123 18.7653H42.0104C41.995 18.727 41.9759 18.6925 41.9529 18.6581C41.9491 18.6504 41.9452 18.6408 41.9395 18.6332H41.9414C41.9127 18.591 41.8801 18.5527 41.8437 18.5163L34.692 11.3646C34.6556 11.3282 34.6172 11.2956 34.5751 11.2669C34.5674 11.2611 34.5579 11.2573 34.5502 11.2534V11.2554C34.5157 11.2324 34.4812 11.2132 34.4429 11.1979C34.4295 11.1921 34.4142 11.1883 34.3988 11.1845V11.1826C34.3203 11.1519 34.2341 11.1366 34.1498 11.1385H16.9649V7.05207H39.0047V13.4377C39.0047 13.8611 39.3477 14.204 39.7711 14.204H46.1567V45.865L42.0698 45.8644Z" fill="#C1002A"/>
<path d="M34.4778 19.3331V12.8887L40.9222 18.6887L34.4778 19.3331Z" fill="#C1002A"/>
</svg>
