<svg width="150" height="150" viewBox="0 0 150 150" fill="none" xmlns="http://www.w3.org/2000/svg">
    <rect x="15" y="49.5" width="52" height="52" rx="2" fill="#BCBCD2"/>
    <path d="M50.6785 67.4662C50.1229 66.8181 49.2628 66.4391 48.3514 66.4391L48.3294 66.4375C47.4143 66.4375 46.5543 66.8247 46.0078 67.4793L37.5355 77.653C37.1449 78.1222 36.4004 78.2157 35.8814 77.8597L31.4473 74.8245C30.3048 74.0436 28.713 74.1125 27.6623 74.9902L20.5068 80.9656C19.9126 81.4627 19.5752 82.1583 19.5752 82.8851V94.8009C19.5752 96.2512 20.8882 97.4259 22.5093 97.4259H60.0659C61.687 97.4259 63 96.2512 63 94.8009V82.7356C63 82.1613 62.7854 81.5937 62.3948 81.1392L50.6785 67.4662Z" fill="#7A7A94"/>
    <path d="M39 63.5C39 65.985 36.985 68 34.5 68C32.015 68 30 65.985 30 63.5C30 61.015 32.015 59 34.5 59C36.985 59 39 61.015 39 63.5Z" fill="#7A7A94"/>
    <rect x="83" y="49" width="52" height="13" rx="2" fill="#BCBCD2"/>
    <rect x="83" y="70" width="52" height="8" rx="2" fill="#BCBCD2"/>
    <rect x="83" y="82" width="52" height="8" rx="2" fill="#BCBCD2"/>
    <rect x="83" y="94" width="52" height="8" rx="2" fill="#BCBCD2"/>
</svg>