<svg width="150" height="150" viewBox="0 0 150 150" fill="none" xmlns="http://www.w3.org/2000/svg">
<rect y="57" width="41" height="41" rx="2" fill="#BCBCD2"/>
<path d="M28.1312 71.1656C27.6931 70.6546 27.015 70.3558 26.2964 70.3558L26.279 70.3545C25.5575 70.3545 24.8794 70.6598 24.4485 71.1759L17.7684 79.1975C17.4605 79.5674 16.8734 79.6411 16.4643 79.3605L12.9681 76.9673C12.0673 76.3516 10.8123 76.4059 9.98376 77.098L4.34195 81.8093C3.87348 82.2013 3.60742 82.7497 3.60742 83.3228V92.718C3.60742 93.8615 4.64269 94.7877 5.92085 94.7877H35.5328C36.8109 94.7877 37.8462 93.8615 37.8462 92.718V83.2049C37.8462 82.7521 37.677 82.3046 37.3691 81.9462L28.1312 71.1656Z" fill="#7A7A94"/>
<path d="M18.9231 68.0383C18.9231 69.9977 17.3343 71.5864 15.375 71.5864C13.4156 71.5864 11.8269 69.9977 11.8269 68.0383C11.8269 66.079 13.4156 64.4902 15.375 64.4902C17.3343 64.4902 18.9231 66.079 18.9231 68.0383Z" fill="#7A7A94"/>
<rect x="109" y="57" width="41" height="41" rx="2" fill="#BCBCD2"/>
<path d="M137.131 71.1656C136.693 70.6546 136.015 70.3558 135.296 70.3558L135.279 70.3545C134.558 70.3545 133.879 70.6598 133.449 71.1759L126.768 79.1975C126.46 79.5674 125.873 79.6411 125.464 79.3605L121.968 76.9673C121.067 76.3516 119.812 76.4059 118.984 77.098L113.342 81.8093C112.873 82.2013 112.607 82.7497 112.607 83.3228V92.718C112.607 93.8615 113.643 94.7877 114.921 94.7877H144.533C145.811 94.7877 146.846 93.8615 146.846 92.718V83.2049C146.846 82.7521 146.677 82.3046 146.369 81.9462L137.131 71.1656Z" fill="#7A7A94"/>
<path d="M127.923 68.0383C127.923 69.9977 126.334 71.5864 124.375 71.5864C122.416 71.5864 120.827 69.9977 120.827 68.0383C120.827 66.079 122.416 64.4902 124.375 64.4902C126.334 64.4902 127.923 66.079 127.923 68.0383Z" fill="#7A7A94"/>
<rect x="47" y="50" width="56" height="57" rx="2" fill="#BCBCD2"/>
<path d="M85.4229 69.694C84.8245 68.9836 83.8983 68.5682 82.9168 68.5682L82.8931 68.5664C81.9076 68.5664 80.9814 68.9908 80.3929 69.7084L71.2689 80.8603C70.8482 81.3746 70.0464 81.4771 69.4876 81.0869L64.7123 77.7599C63.4819 76.9038 61.7678 76.9794 60.6361 77.9415L52.9303 84.4914C52.2904 85.0363 51.927 85.7988 51.927 86.5955V99.6571C51.927 101.247 53.341 102.534 55.0868 102.534H95.5324C97.2781 102.534 98.6922 101.247 98.6922 99.6571V86.4316C98.6922 85.8022 98.4611 85.1799 98.0405 84.6818L85.4229 69.694Z" fill="#7A7A94"/>
<path d="M72.8459 65.3468C72.8459 68.0707 70.6759 70.2794 67.9997 70.2794C65.3235 70.2794 63.1536 68.0707 63.1536 65.3468C63.1536 62.6228 65.3235 60.4141 67.9997 60.4141C70.6759 60.4141 72.8459 62.6228 72.8459 65.3468Z" fill="#7A7A94"/>
</svg>
