<svg width="150" height="150" viewBox="0 0 150 150" fill="none" xmlns="http://www.w3.org/2000/svg">
    <path d="M51 38C49.9453 38.0352 49.0234 39.0977 49 40V62H37C35.918 62.0273 35.0234 63.0977 35 64V103C35 107.953 39.0469 112 44 112H106C110.953 112 115 107.953 115 103V40C115 38.9531 114.047 38 113 38H51ZM53 42H111V103C111 105.805 108.805 108 106 108H51.25C52.2617 106.543 53 104.898 53 103V42ZM61 48C59.9414 48.0039 59.0234 49.0977 59 50V64C59 65.0469 59.9531 66 61 66H81C82.0469 66 83 65.0469 83 64V50C83 48.9531 82.0469 48 81 48H61ZM89 50C87.8945 50 87 50.8945 87 52C87 53.1055 87.8945 54 89 54H103C104.105 54 105 53.1055 105 52C105 50.8945 104.105 50 103 50H89ZM63 52H79V62H63V52ZM89 60C87.8945 60 87 60.8945 87 62C87 63.1055 87.8945 64 89 64H103C104.105 64 105 63.1055 105 62C105 60.8945 104.105 60 103 60H89ZM39 66H49V103C49 105.805 46.8047 108 44 108C41.1953 108 39 105.805 39 103V66ZM61 72C59.8945 72 59 72.8945 59 74C59 75.1055 59.8945 76 61 76H103C104.105 76 105 75.1055 105 74C105 72.8945 104.105 72 103 72H61ZM61 83C59.8945 83 59 83.8945 59 85C59 86.1055 59.8945 87 61 87H103C104.105 87 105 86.1055 105 85C105 83.8945 104.105 83 103 83H61ZM61 94C59.8945 94 59 94.8945 59 96C59 97.1055 59.8945 98 61 98H103C104.105 98 105 97.1055 105 96C105 94.8945 104.105 94 103 94H61Z" fill="#BCBCD2"/>
</svg>
