<svg xmlns="http://www.w3.org/2000/svg" viewBox="0 0 222.21 146.75"><defs><style>.cls-1{fill:#fff;}.cls-2{fill:#c77114;}</style></defs><title>logo-white-full_1</title><g id="Calque_2" data-name="Calque 2"><g id="Calque_1-2" data-name="Calque 1"><path class="cls-1" d="M77.55,37.1H51.83a3.12,3.12,0,1,1,0-6.24H77.55a3.12,3.12,0,1,1,0,6.24Z"/><path class="cls-1" d="M166.07,37.1H105.41a3.12,3.12,0,1,1,0-6.24h60.66a3.12,3.12,0,0,1,0,6.24Z"/><path class="cls-1" d="M136.45,82H81.81A24.81,24.81,0,0,1,57,57.23V10.42A3.12,3.12,0,0,1,60.14,7.3H83.25a3.12,3.12,0,0,1,3.12,3.12v6.8a3.12,3.12,0,0,1-6.24,0V13.54H63.26V57.23A18.57,18.57,0,0,0,81.81,75.78h54.64A18.57,18.57,0,0,0,155,57.23V34a3.12,3.12,0,1,1,6.24,0V57.23A24.81,24.81,0,0,1,136.45,82Z"/><path class="cls-1" d="M147.5,90.24a3.12,3.12,0,0,1-2.21-.92l-8.23-8.23a3.12,3.12,0,1,1,4.41-4.41l8.23,8.23a3.11,3.11,0,0,1,0,4.41A3.08,3.08,0,0,1,147.5,90.24Z"/><path class="cls-1" d="M69.87,90.86a3.13,3.13,0,0,1-2.21-5.33l8.63-8.62a3.12,3.12,0,0,1,4.41,4.41l-8.63,8.62A3.08,3.08,0,0,1,69.87,90.86Z"/><circle class="cls-1" cx="139.68" cy="20.59" r="5.53"/><circle class="cls-1" cx="121.28" cy="15.06" r="4.79"/><circle class="cls-1" cx="134.15" cy="2.64" r="2.64"/><path class="cls-2" d="M102.36,63.8H80.55a4.46,4.46,0,0,1-4.5-4.42V28a2.45,2.45,0,0,1,2.44-2.45h25.94A2.45,2.45,0,0,1,106.87,28V59.38A4.47,4.47,0,0,1,102.36,63.8ZM80.93,58.91h21V30.4h-21Z"/><path class="cls-1" d="M5.49,125.81A10.72,10.72,0,0,1,3,125.53a6.66,6.66,0,0,1-2.1-.86,1.12,1.12,0,0,1-.53-.7,1.25,1.25,0,0,1,.06-.79.93.93,0,0,1,.52-.51.85.85,0,0,1,.8.14,6.46,6.46,0,0,0,1.77.72,7.8,7.8,0,0,0,2,.23,3.75,3.75,0,0,0,2.18-.5,1.55,1.55,0,0,0,.69-1.3,1.28,1.28,0,0,0-.49-1,4.19,4.19,0,0,0-1.66-.62l-2.09-.44q-3.57-.76-3.57-3.67A3.65,3.65,0,0,1,1.21,114a4.39,4.39,0,0,1,1.84-1.45A6.84,6.84,0,0,1,5.77,112a8.12,8.12,0,0,1,2.17.28,6.19,6.19,0,0,1,1.84.84,1.07,1.07,0,0,1,.46.66,1,1,0,0,1-.1.72.87.87,0,0,1-.54.45,1,1,0,0,1-.86-.16,5.93,5.93,0,0,0-1.43-.57,7,7,0,0,0-1.56-.17,3.37,3.37,0,0,0-2,.55A1.73,1.73,0,0,0,3,116.09a1.38,1.38,0,0,0,.46,1.09,3.49,3.49,0,0,0,1.55.64l2.08.43a5.94,5.94,0,0,1,2.8,1.26,3,3,0,0,1,.92,2.28,3.59,3.59,0,0,1-.65,2.11,4.25,4.25,0,0,1-1.83,1.41A7.07,7.07,0,0,1,5.49,125.81Z"/><path class="cls-1" d="M12.9,125.78a1,1,0,0,1-1-.46,1.08,1.08,0,0,1,0-1.1l5-11.12a2,2,0,0,1,.6-.79,1.51,1.51,0,0,1,1.6,0,2,2,0,0,1,.6.79l5,11.12a1.16,1.16,0,0,1,0,1.11,1,1,0,0,1-.91.45,1.23,1.23,0,0,1-.83-.26,2,2,0,0,1-.52-.79l-.95-2.2H15.1l-.93,2.2a2.57,2.57,0,0,1-.51.8A1.1,1.1,0,0,1,12.9,125.78Zm5.45-10.91-2.41,5.72H20.8l-2.41-5.72Z"/><path class="cls-1" d="M28.12,125.78a1.1,1.1,0,0,1-1.22-1.26V113.46a1.09,1.09,0,0,1,1.24-1.23h4.57a5,5,0,0,1,3.4,1,3.74,3.74,0,0,1,1.2,3,3.62,3.62,0,0,1-3,3.8,2.81,2.81,0,0,1,1.6,1.46l1.42,2.64a1.27,1.27,0,0,1,.12,1.12c-.13.35-.45.52-1,.52a1.52,1.52,0,0,1-.84-.22,2,2,0,0,1-.57-.68l-1.92-3.53a2,2,0,0,0-.8-.87,3,3,0,0,0-1.19-.21H29.33v4.25C29.33,125.36,28.93,125.78,28.12,125.78Zm1.21-7.32h3c1.77,0,2.66-.72,2.66-2.16s-.89-2.15-2.66-2.15h-3Z"/><path class="cls-1" d="M41.17,125.62a1.1,1.1,0,0,1-1.24-1.25v-11a1.22,1.22,0,1,1,2.44,0v10.14h5.51a1,1,0,1,1,0,2.07Z"/><path class="cls-1" d="M57,125.78c-.83,0-1.25-.43-1.25-1.3v-11a1.14,1.14,0,0,1,1.29-1.29h6.63c.66,0,1,.32,1,1a.88.88,0,0,1-1,1H58.19V118h5.1a.85.85,0,0,1,1,1,.87.87,0,0,1-1,1h-5.1v4.59C58.19,125.35,57.8,125.78,57,125.78Z"/><path class="cls-1" d="M67.24,125.78A1.08,1.08,0,0,1,66,124.56v-7.18a1.16,1.16,0,1,1,2.32,0V118a3.15,3.15,0,0,1,2.92-1.83c.55-.06.85.25.92.93s-.27,1.05-1,1.13l-.42,0a2.23,2.23,0,0,0-2.34,2.4v3.93A1.06,1.06,0,0,1,67.24,125.78Z"/><path class="cls-1" d="M76.43,125.81a4,4,0,0,1-1.79-.39,3.05,3.05,0,0,1-1.24-1,2.59,2.59,0,0,1-.44-1.5,2.34,2.34,0,0,1,.53-1.63,3.23,3.23,0,0,1,1.73-.86,15.15,15.15,0,0,1,3.21-.27h.66v-.4a1.91,1.91,0,0,0-.41-1.36,2,2,0,0,0-1.41-.42,5.76,5.76,0,0,0-1.19.13,6.28,6.28,0,0,0-1.34.46.86.86,0,0,1-.76,0,.83.83,0,0,1-.41-.52,1.09,1.09,0,0,1,0-.71,1,1,0,0,1,.58-.53,8.41,8.41,0,0,1,1.68-.51,7.41,7.41,0,0,1,1.48-.16,4.28,4.28,0,0,1,3,.94,3.9,3.9,0,0,1,1,2.92v4.56c0,.81-.36,1.22-1.1,1.22s-1.12-.41-1.12-1.22v-.42a2.58,2.58,0,0,1-1,1.23A3,3,0,0,1,76.43,125.81Zm.5-1.63a2.08,2.08,0,0,0,1.55-.65,2.26,2.26,0,0,0,.61-1.63v-.42h-.64a7.38,7.38,0,0,0-2.48.28,1,1,0,0,0-.7,1,1.34,1.34,0,0,0,.44,1A1.73,1.73,0,0,0,76.93,124.18Z"/><path class="cls-1" d="M85,125.78a1.06,1.06,0,0,1-1.18-1.22v-7.18c0-.8.38-1.2,1.16-1.2a1,1,0,0,1,1.16,1.2v.4a3.13,3.13,0,0,1,1.28-1.22,3.86,3.86,0,0,1,1.81-.42c2.19,0,3.29,1.28,3.29,3.82v4.6a1.19,1.19,0,1,1-2.38,0v-4.48a2.48,2.48,0,0,0-.4-1.58,1.57,1.57,0,0,0-1.27-.49,2.16,2.16,0,0,0-1.66.65,2.45,2.45,0,0,0-.62,1.74v4.16A1.07,1.07,0,0,1,85,125.78Z"/><path class="cls-1" d="M99.18,125.81a5.28,5.28,0,0,1-2.55-.59A4.11,4.11,0,0,1,95,123.51a5.29,5.29,0,0,1-.59-2.58,5.11,5.11,0,0,1,.59-2.55,4,4,0,0,1,1.67-1.66,5.39,5.39,0,0,1,2.55-.58,6.15,6.15,0,0,1,1.35.17,4.91,4.91,0,0,1,1.38.57.89.89,0,0,1,.45.59,1,1,0,0,1-.1.67.92.92,0,0,1-.47.44.81.81,0,0,1-.71-.1,3.45,3.45,0,0,0-1.69-.49,2.41,2.41,0,0,0-1.92.77A3.26,3.26,0,0,0,96.8,121a3.37,3.37,0,0,0,.67,2.21,2.37,2.37,0,0,0,1.92.81,3.64,3.64,0,0,0,1.69-.47.74.74,0,0,1,.7-.1.84.84,0,0,1,.44.45,1.14,1.14,0,0,1,0,.66.88.88,0,0,1-.43.58,4.51,4.51,0,0,1-1.33.55A5.39,5.39,0,0,1,99.18,125.81Z"/><path class="cls-1" d="M105,125.78a1.06,1.06,0,0,1-1.18-1.22V113.27a1.19,1.19,0,1,1,2.37,0v7h0L109.4,117a6.16,6.16,0,0,1,.66-.59,1.29,1.29,0,0,1,.78-.21,1,1,0,0,1,.75.26.83.83,0,0,1,.26.61,1.09,1.09,0,0,1-.34.73l-2.85,3,3.17,3.42a.93.93,0,0,1,.31.73.85.85,0,0,1-.31.61,1.08,1.08,0,0,1-.72.24,1.51,1.51,0,0,1-.85-.21,3.78,3.78,0,0,1-.69-.63l-3.31-3.46h0v3.08A1.06,1.06,0,0,1,105,125.78Z"/><path class="cls-1" d="M118.82,125.76a1.08,1.08,0,0,1-.83-.29,1,1,0,0,1-.31-.78,1,1,0,0,1,.22-.63.8.8,0,0,1,.64-.3l.57,0a1.64,1.64,0,0,0,1.69-1.86v-8.55a1.22,1.22,0,1,1,2.43,0v8.53a3.87,3.87,0,0,1-1,2.78,4.09,4.09,0,0,1-2.81,1.1Z"/><path class="cls-1" d="M129,125.81a4,4,0,0,1-1.8-.39,3,3,0,0,1-1.23-1,2.6,2.6,0,0,1-.45-1.5,2.39,2.39,0,0,1,.53-1.63,3.27,3.27,0,0,1,1.73-.86,15.21,15.21,0,0,1,3.21-.27h.67v-.4a1.86,1.86,0,0,0-.42-1.36,2,2,0,0,0-1.41-.42,5.67,5.67,0,0,0-1.18.13,5.92,5.92,0,0,0-1.34.46.86.86,0,0,1-.76,0,.8.8,0,0,1-.41-.52,1,1,0,0,1,0-.71.91.91,0,0,1,.57-.53,8.7,8.7,0,0,1,1.69-.51,7.32,7.32,0,0,1,1.47-.16,4.28,4.28,0,0,1,3,.94,3.86,3.86,0,0,1,1,2.92v4.56c0,.81-.37,1.22-1.1,1.22s-1.12-.41-1.12-1.22v-.42a2.64,2.64,0,0,1-1,1.23A3,3,0,0,1,129,125.81Zm.49-1.63a2.06,2.06,0,0,0,1.55-.65,2.27,2.27,0,0,0,.62-1.63v-.42H131a7.38,7.38,0,0,0-2.48.28,1,1,0,0,0-.69,1,1.31,1.31,0,0,0,.44,1A1.7,1.7,0,0,0,129.46,124.18Z"/><path class="cls-1" d="M140.6,125.81a5.28,5.28,0,0,1-2.55-.59,4.11,4.11,0,0,1-1.67-1.71,5.29,5.29,0,0,1-.59-2.58,5.11,5.11,0,0,1,.59-2.55,4,4,0,0,1,1.67-1.66,5.39,5.39,0,0,1,2.55-.58,6.15,6.15,0,0,1,1.35.17,4.91,4.91,0,0,1,1.38.57.89.89,0,0,1,.45.59,1,1,0,0,1-.1.67.92.92,0,0,1-.47.44.81.81,0,0,1-.71-.1,3.46,3.46,0,0,0-1.7-.49,2.4,2.4,0,0,0-1.91.77,3.26,3.26,0,0,0-.67,2.19,3.37,3.37,0,0,0,.67,2.21,2.37,2.37,0,0,0,1.91.81,3.64,3.64,0,0,0,1.7-.47.74.74,0,0,1,.7-.1.84.84,0,0,1,.44.45,1.14,1.14,0,0,1,.05.66.88.88,0,0,1-.43.58,4.51,4.51,0,0,1-1.33.55A5.39,5.39,0,0,1,140.6,125.81Z"/><path class="cls-1" d="M152.81,129.2a1.05,1.05,0,0,1-1.18-1.2v-3.78a2.9,2.9,0,0,1-1.19,1.16,3.7,3.7,0,0,1-1.79.43,3.85,3.85,0,0,1-2.14-.59,3.89,3.89,0,0,1-1.43-1.68,6.76,6.76,0,0,1,0-5.15,4,4,0,0,1,1.43-1.66,3.93,3.93,0,0,1,2.14-.59,3.65,3.65,0,0,1,1.81.45,2.9,2.9,0,0,1,1.19,1.19v-.4a1.18,1.18,0,1,1,2.36,0V128A1.06,1.06,0,0,1,152.81,129.2ZM149.32,124a2.13,2.13,0,0,0,1.71-.77,3.45,3.45,0,0,0,.64-2.27,3.42,3.42,0,0,0-.64-2.27,2.32,2.32,0,0,0-3.42,0A3.42,3.42,0,0,0,147,121a3.45,3.45,0,0,0,.65,2.27A2.13,2.13,0,0,0,149.32,124Z"/><path class="cls-1" d="M159.84,125.81c-2.28,0-3.42-1.27-3.42-3.83v-4.6a1.19,1.19,0,1,1,2.38,0V122a2.24,2.24,0,0,0,.4,1.47,1.58,1.58,0,0,0,1.27.47,2.07,2.07,0,0,0,1.56-.65,2.49,2.49,0,0,0,.61-1.74v-4.18a1,1,0,0,1,1.17-1.2,1.06,1.06,0,0,1,1.2,1.2v7.18c0,.81-.39,1.22-1.16,1.22s-1.16-.41-1.16-1.22v-.32A3.08,3.08,0,0,1,159.84,125.81Z"/><path class="cls-1" d="M172.06,125.81a5.78,5.78,0,0,1-2.72-.59,4.17,4.17,0,0,1-1.76-1.67A5.08,5.08,0,0,1,167,121a5.25,5.25,0,0,1,.59-2.53,4.38,4.38,0,0,1,1.66-1.7,4.66,4.66,0,0,1,2.4-.62,4,4,0,0,1,3.13,1.26,4.88,4.88,0,0,1,1.15,3.42c0,.47-.31.7-.92.7h-5.73A2.52,2.52,0,0,0,172.1,124a5.85,5.85,0,0,0,1.11-.12,4.45,4.45,0,0,0,1.17-.43,1.06,1.06,0,0,1,.83-.18.75.75,0,0,1,.49.41,1,1,0,0,1,0,.67,1.09,1.09,0,0,1-.54.64,4.76,4.76,0,0,1-1.53.61A6.73,6.73,0,0,1,172.06,125.81Zm-.34-8a2.28,2.28,0,0,0-1.69.64,2.93,2.93,0,0,0-.78,1.75h4.67a2.79,2.79,0,0,0-.64-1.77A2,2,0,0,0,171.72,117.76Z"/><path class="cls-1" d="M179,125.78c-.78,0-1.17-.41-1.17-1.22v-7.18c0-.8.38-1.2,1.15-1.2s1.16.4,1.16,1.2v.38a3.09,3.09,0,0,1,1.16-1.19,3.44,3.44,0,0,1,1.71-.43,2.62,2.62,0,0,1,2.74,1.83,3.23,3.23,0,0,1,1.25-1.34,3.54,3.54,0,0,1,1.86-.49c2.09,0,3.14,1.28,3.14,3.82v4.6a1.19,1.19,0,1,1-2.38,0v-4.5a2.69,2.69,0,0,0-.35-1.56,1.34,1.34,0,0,0-1.18-.49,1.78,1.78,0,0,0-1.47.65,2.83,2.83,0,0,0-.53,1.81v4.09a1.19,1.19,0,1,1-2.37,0v-4.5a2.68,2.68,0,0,0-.36-1.56,1.32,1.32,0,0,0-1.17-.49,1.77,1.77,0,0,0-1.46.65,2.83,2.83,0,0,0-.53,1.81v4.09A1.07,1.07,0,0,1,179,125.78Z"/><path class="cls-1" d="M197.5,125.81a4,4,0,0,1-1.8-.39,3.09,3.09,0,0,1-1.23-1,2.6,2.6,0,0,1-.45-1.5,2.39,2.39,0,0,1,.53-1.63,3.31,3.31,0,0,1,1.73-.86,15.21,15.21,0,0,1,3.21-.27h.67v-.4a1.86,1.86,0,0,0-.42-1.36,1.94,1.94,0,0,0-1.4-.42,5.69,5.69,0,0,0-1.19.13,6.09,6.09,0,0,0-1.34.46.86.86,0,0,1-.76,0,.83.83,0,0,1-.41-.52,1,1,0,0,1,0-.71.93.93,0,0,1,.58-.53,8.41,8.41,0,0,1,1.68-.51,7.39,7.39,0,0,1,1.47-.16,4.27,4.27,0,0,1,3,.94,3.86,3.86,0,0,1,1,2.92v4.56c0,.81-.37,1.22-1.1,1.22s-1.12-.41-1.12-1.22v-.42a2.64,2.64,0,0,1-1,1.23A3,3,0,0,1,197.5,125.81Zm.49-1.63a2.06,2.06,0,0,0,1.55-.65,2.27,2.27,0,0,0,.62-1.63v-.42h-.65a7.42,7.42,0,0,0-2.48.28,1,1,0,0,0-.69,1,1.34,1.34,0,0,0,.44,1A1.7,1.7,0,0,0,198,124.18Z"/><path class="cls-1" d="M206.05,125.78a1.08,1.08,0,0,1-1.22-1.22v-7.18a1.16,1.16,0,1,1,2.32,0V118a3.15,3.15,0,0,1,2.93-1.83c.54-.06.85.25.91.93s-.27,1.05-1,1.13l-.42,0a2.23,2.23,0,0,0-2.33,2.4v3.93A1.07,1.07,0,0,1,206.05,125.78Z"/><path class="cls-1" d="M215.7,125.81a3.85,3.85,0,0,1-2.14-.59,3.89,3.89,0,0,1-1.43-1.68,6.76,6.76,0,0,1,0-5.15,4,4,0,0,1,1.43-1.66,3.93,3.93,0,0,1,2.14-.59,3.68,3.68,0,0,1,1.79.44,2.9,2.9,0,0,1,1.19,1.16v-4.47a1.19,1.19,0,1,1,2.38,0v11.29a1.18,1.18,0,1,1-2.36,0v-.4a2.89,2.89,0,0,1-1.19,1.21A3.65,3.65,0,0,1,215.7,125.81Zm.67-1.8a2.13,2.13,0,0,0,1.71-.77,3.45,3.45,0,0,0,.64-2.27,3.42,3.42,0,0,0-.64-2.27,2.32,2.32,0,0,0-3.42,0A3.42,3.42,0,0,0,214,121a3.45,3.45,0,0,0,.65,2.27A2.13,2.13,0,0,0,216.37,124Z"/><path class="cls-2" d="M3.26,144.59a6.81,6.81,0,0,1-1.57-.18,4.09,4.09,0,0,1-1.33-.55.72.72,0,0,1-.34-.44.85.85,0,0,1,0-.5.59.59,0,0,1,.33-.33.55.55,0,0,1,.51.09,4,4,0,0,0,1.12.46,5,5,0,0,0,1.24.15A2.39,2.39,0,0,0,4.65,143a1,1,0,0,0,.43-.83.78.78,0,0,0-.31-.66,2.69,2.69,0,0,0-1-.4l-1.33-.27c-1.5-.32-2.26-1.1-2.26-2.33a2.3,2.3,0,0,1,.42-1.38,2.71,2.71,0,0,1,1.17-.92,4.4,4.4,0,0,1,1.72-.32,5.09,5.09,0,0,1,1.37.18,3.91,3.91,0,0,1,1.17.53.65.65,0,0,1,.29.41.72.72,0,0,1-.06.46.58.58,0,0,1-.34.29.68.68,0,0,1-.55-.1,3.39,3.39,0,0,0-.9-.36,4,4,0,0,0-1-.11,2.16,2.16,0,0,0-1.3.35,1.09,1.09,0,0,0-.47.91.88.88,0,0,0,.29.69,2.1,2.1,0,0,0,1,.41l1.31.28a3.6,3.6,0,0,1,1.77.79A1.87,1.87,0,0,1,6.61,142a2.26,2.26,0,0,1-.41,1.34,2.59,2.59,0,0,1-1.16.9A4.6,4.6,0,0,1,3.26,144.59Z"/><path class="cls-2" d="M9.73,144.59a2.58,2.58,0,0,1-1.14-.25,2,2,0,0,1-.78-.67,1.66,1.66,0,0,1-.29-.95,1.52,1.52,0,0,1,.34-1,2.11,2.11,0,0,1,1.1-.55,10,10,0,0,1,2-.16h.42v-.26a1.19,1.19,0,0,0-.26-.86,1.23,1.23,0,0,0-.89-.27,4.18,4.18,0,0,0-.76.08,4.42,4.42,0,0,0-.84.29.54.54,0,0,1-.49,0,.49.49,0,0,1-.25-.32.64.64,0,0,1,0-.45.6.6,0,0,1,.37-.34,5.28,5.28,0,0,1,1.06-.32,4.61,4.61,0,0,1,.93-.1,2.74,2.74,0,0,1,1.92.59,2.45,2.45,0,0,1,.63,1.85v2.89c0,.52-.24.77-.7.77s-.71-.25-.71-.77v-.26a1.64,1.64,0,0,1-.65.77A1.93,1.93,0,0,1,9.73,144.59Zm.31-1a1.31,1.31,0,0,0,1-.41,1.44,1.44,0,0,0,.39-1v-.27H11a4.67,4.67,0,0,0-1.57.18.62.62,0,0,0-.44.63.83.83,0,0,0,.28.65A1.08,1.08,0,0,0,10,143.55Z"/><path class="cls-2" d="M16.38,144.59q-2,0-2-2.25v-5.7a.67.67,0,0,1,.75-.76.67.67,0,0,1,.76.76v5.62c0,.73.3,1.09.9,1.09H17l.17,0a.22.22,0,0,1,.23.09,1.19,1.19,0,0,1,.06.47.82.82,0,0,1-.12.47.53.53,0,0,1-.4.2A4.38,4.38,0,0,1,16.38,144.59Z"/><path class="cls-2" d="M20.22,144.59q-2,0-2-2.25v-5.7a.76.76,0,1,1,1.51,0v5.62c0,.73.3,1.09.9,1.09h.18l.17,0a.22.22,0,0,1,.23.09,1.19,1.19,0,0,1,.06.47.82.82,0,0,1-.12.47.53.53,0,0,1-.4.2A4.38,4.38,0,0,1,20.22,144.59Z"/><path class="cls-2" d="M24.9,144.59a3.74,3.74,0,0,1-1.73-.38,2.64,2.64,0,0,1-1.11-1.06,3.21,3.21,0,0,1-.39-1.62,3.29,3.29,0,0,1,.38-1.6,2.73,2.73,0,0,1,1.05-1.08,2.94,2.94,0,0,1,1.52-.39,2.56,2.56,0,0,1,2,.79,3.08,3.08,0,0,1,.73,2.17c0,.3-.19.45-.58.45H23.11a1.61,1.61,0,0,0,1.81,1.57,3.07,3.07,0,0,0,.7-.08,2.34,2.34,0,0,0,.74-.27.7.7,0,0,1,.53-.11.45.45,0,0,1,.31.26.63.63,0,0,1,0,.43.73.73,0,0,1-.35.4,2.9,2.9,0,0,1-1,.39A4.74,4.74,0,0,1,24.9,144.59Zm-.22-5.11a1.46,1.46,0,0,0-1.07.41,1.85,1.85,0,0,0-.5,1.11h3a1.84,1.84,0,0,0-.41-1.13A1.28,1.28,0,0,0,24.68,139.48Z"/><path class="cls-2" d="M34.05,144.59a2.46,2.46,0,0,1-1.36-.38,2.5,2.5,0,0,1-.91-1.06,3.92,3.92,0,0,1-.32-1.63,3.82,3.82,0,0,1,.32-1.63,2.5,2.5,0,0,1,.91-1.06,2.45,2.45,0,0,1,1.36-.37,2.28,2.28,0,0,1,1.13.28,1.85,1.85,0,0,1,.76.73v-2.83a.66.66,0,0,1,.74-.76.67.67,0,0,1,.76.76v7.15a.67.67,0,0,1-.75.77c-.49,0-.74-.25-.74-.77v-.25a1.8,1.8,0,0,1-.76.76A2.3,2.3,0,0,1,34.05,144.59Zm.42-1.15a1.34,1.34,0,0,0,1.08-.48,2.23,2.23,0,0,0,.41-1.44,2.17,2.17,0,0,0-.41-1.44,1.34,1.34,0,0,0-1.08-.48,1.38,1.38,0,0,0-1.09.48,2.17,2.17,0,0,0-.41,1.44,2.23,2.23,0,0,0,.41,1.44A1.38,1.38,0,0,0,34.47,143.44Z"/><path class="cls-2" d="M41.91,144.59a3.67,3.67,0,0,1-1.72-.38,2.61,2.61,0,0,1-1.12-1.06,3.21,3.21,0,0,1-.39-1.62,3.29,3.29,0,0,1,.38-1.6,2.73,2.73,0,0,1,1-1.08,2.94,2.94,0,0,1,1.52-.39,2.53,2.53,0,0,1,2,.79,3.08,3.08,0,0,1,.73,2.17c0,.3-.19.45-.58.45H40.13a1.59,1.59,0,0,0,1.8,1.57,3.21,3.21,0,0,0,.71-.08,2.54,2.54,0,0,0,.74-.27.69.69,0,0,1,.53-.11.46.46,0,0,1,.3.26.63.63,0,0,1,0,.43.73.73,0,0,1-.35.4,2.94,2.94,0,0,1-1,.39A4.91,4.91,0,0,1,41.91,144.59Zm-.22-5.11a1.46,1.46,0,0,0-1.07.41,1.79,1.79,0,0,0-.49,1.11h3a1.78,1.78,0,0,0-.41-1.13A1.25,1.25,0,0,0,41.69,139.48Z"/><path class="cls-2" d="M52.19,144.59A2.35,2.35,0,0,1,51,144.3a1.85,1.85,0,0,1-.76-.76v.25c0,.52-.24.77-.73.77a.67.67,0,0,1-.75-.77v-7.15a.76.76,0,1,1,1.51,0v2.81a2,2,0,0,1,.76-.72,2.36,2.36,0,0,1,1.13-.27,2.36,2.36,0,0,1,2.26,1.43,3.67,3.67,0,0,1,.33,1.63,3.76,3.76,0,0,1-.33,1.63,2.42,2.42,0,0,1-2.26,1.44Zm-.42-1.15a1.34,1.34,0,0,0,1.08-.48,2.23,2.23,0,0,0,.41-1.44,2.17,2.17,0,0,0-.41-1.44,1.34,1.34,0,0,0-1.08-.48,1.38,1.38,0,0,0-1.09.48,2.17,2.17,0,0,0-.41,1.44,2.23,2.23,0,0,0,.41,1.44A1.38,1.38,0,0,0,51.77,143.44Z"/><path class="cls-2" d="M58,144.59a2.58,2.58,0,0,1-1.14-.25,1.9,1.9,0,0,1-.78-.67,1.66,1.66,0,0,1-.29-.95,1.47,1.47,0,0,1,.34-1,2.07,2.07,0,0,1,1.09-.55,10.12,10.12,0,0,1,2-.16h.42v-.26a1.19,1.19,0,0,0-.26-.86,1.23,1.23,0,0,0-.89-.27,4.18,4.18,0,0,0-.76.08,4.76,4.76,0,0,0-.85.29.52.52,0,0,1-.48,0,.5.5,0,0,1-.26-.32.7.7,0,0,1,0-.45.6.6,0,0,1,.37-.34,5.09,5.09,0,0,1,1.06-.32,4.61,4.61,0,0,1,.93-.1,2.74,2.74,0,0,1,1.92.59,2.45,2.45,0,0,1,.62,1.85v2.89c0,.52-.23.77-.69.77s-.71-.25-.71-.77v-.26a1.61,1.61,0,0,1-.66.77A1.88,1.88,0,0,1,58,144.59Zm.31-1a1.31,1.31,0,0,0,1-.41,1.44,1.44,0,0,0,.39-1v-.27h-.41a4.67,4.67,0,0,0-1.57.18.62.62,0,0,0-.44.63.83.83,0,0,0,.28.65A1.08,1.08,0,0,0,58.27,143.55Z"/><path class="cls-2" d="M63.35,137.38a.92.92,0,0,1-.66-.22.75.75,0,0,1-.23-.58.76.76,0,0,1,.23-.59,1,1,0,0,1,.66-.2c.59,0,.89.26.89.79S63.94,137.38,63.35,137.38Zm0,7.17a.68.68,0,0,1-.55-.22.85.85,0,0,1-.2-.6v-4.42c0-.54.25-.82.75-.82s.76.28.76.82v4.42a.9.9,0,0,1-.19.6A.71.71,0,0,1,63.35,144.55Z"/><path class="cls-2" d="M66.42,144.56a.67.67,0,0,1-.75-.77v-4.55a.67.67,0,0,1,.74-.76c.49,0,.73.26.73.76v.25a2.07,2.07,0,0,1,.81-.77,2.59,2.59,0,0,1,1.15-.26c1.39,0,2.09.81,2.09,2.42v2.91a.76.76,0,1,1-1.51,0V141a1.52,1.52,0,0,0-.26-1,1,1,0,0,0-.8-.31,1.39,1.39,0,0,0-1.05.41,1.57,1.57,0,0,0-.39,1.11v2.63A.67.67,0,0,1,66.42,144.56Z"/><path class="cls-2" d="M74.87,144.59a6.3,6.3,0,0,1-1.1-.11,3.32,3.32,0,0,1-1-.37.62.62,0,0,1-.31-.36.61.61,0,0,1,0-.4.59.59,0,0,1,.27-.27.54.54,0,0,1,.44,0,4.26,4.26,0,0,0,.9.32,4,4,0,0,0,.83.09,1.49,1.49,0,0,0,.86-.2.61.61,0,0,0,.29-.52q0-.51-.75-.66l-1.2-.22q-1.53-.3-1.53-1.59a1.56,1.56,0,0,1,.32-1,2,2,0,0,1,.88-.65,3.31,3.31,0,0,1,1.3-.23,3.68,3.68,0,0,1,1.89.47.46.46,0,0,1,.27.33.68.68,0,0,1,0,.4.57.57,0,0,1-.29.26.53.53,0,0,1-.44,0,3.44,3.44,0,0,0-.72-.28,3.13,3.13,0,0,0-.66-.08,1.55,1.55,0,0,0-.87.2.64.64,0,0,0-.28.54c0,.36.23.57.69.65l1.2.23a2.36,2.36,0,0,1,1.18.53,1.39,1.39,0,0,1,.41,1,1.63,1.63,0,0,1-.69,1.38A3.07,3.07,0,0,1,74.87,144.59Z"/><path class="cls-2" d="M82.41,141.84a.62.62,0,0,1-.44-.17.58.58,0,0,1-.18-.43.55.55,0,0,1,.18-.43.58.58,0,0,1,.44-.17H85a.57.57,0,0,1,.43.17.58.58,0,0,1,.17.43.58.58,0,0,1-.6.6Z"/><path class="cls-2" d="M90.57,144.56a.64.64,0,0,1-.6-.29.68.68,0,0,1,0-.69l3.18-7.05a1.12,1.12,0,0,1,.38-.5.9.9,0,0,1,.51-.15.87.87,0,0,1,.5.15,1.12,1.12,0,0,1,.38.5l3.19,7.05a.7.7,0,0,1,0,.7.6.6,0,0,1-.57.28.78.78,0,0,1-.53-.16,1.44,1.44,0,0,1-.33-.5l-.6-1.4H92l-.59,1.4a1.66,1.66,0,0,1-.33.51A.69.69,0,0,1,90.57,144.56ZM94,137.65l-1.53,3.63h3.08l-1.53-3.63Z"/><path class="cls-2" d="M100.07,144.56a.67.67,0,0,1-.75-.77v-4.55a.67.67,0,0,1,.74-.76c.49,0,.73.26.73.76v.24a1.91,1.91,0,0,1,.74-.75,2.11,2.11,0,0,1,1.08-.27,1.65,1.65,0,0,1,1.73,1.15,2,2,0,0,1,.8-.84,2.21,2.21,0,0,1,1.18-.31c1.32,0,2,.81,2,2.42v2.91a.75.75,0,1,1-1.5,0v-2.85a1.73,1.73,0,0,0-.22-1,.86.86,0,0,0-.76-.31,1.13,1.13,0,0,0-.92.41,1.75,1.75,0,0,0-.34,1.15v2.59a.75.75,0,1,1-1.5,0v-2.85a1.72,1.72,0,0,0-.23-1,.84.84,0,0,0-.74-.31,1.13,1.13,0,0,0-.92.41,1.75,1.75,0,0,0-.34,1.15v2.59A.67.67,0,0,1,100.07,144.56Z"/><path class="cls-2" d="M112.76,144.59a3.67,3.67,0,0,1-1.72-.38,2.67,2.67,0,0,1-1.12-1.06,3.21,3.21,0,0,1-.39-1.62,3.29,3.29,0,0,1,.38-1.6,2.8,2.8,0,0,1,1-1.08,3,3,0,0,1,1.52-.39,2.53,2.53,0,0,1,2,.79,3.08,3.08,0,0,1,.73,2.17c0,.3-.19.45-.58.45H111a1.59,1.59,0,0,0,1.8,1.57,3.15,3.15,0,0,0,.71-.08,2.44,2.44,0,0,0,.74-.27.69.69,0,0,1,.53-.11.44.44,0,0,1,.3.26.63.63,0,0,1,0,.43.75.75,0,0,1-.34.4,3.09,3.09,0,0,1-1,.39A4.91,4.91,0,0,1,112.76,144.59Zm-.22-5.11a1.46,1.46,0,0,0-1.07.41A1.79,1.79,0,0,0,111,141h3a1.84,1.84,0,0,0-.4-1.13A1.29,1.29,0,0,0,112.54,139.48Zm.52-1.76a.43.43,0,0,1-.29.2.59.59,0,0,1-.32-.06.53.53,0,0,1-.23-.24.44.44,0,0,1,0-.35l.92-1.8a.53.53,0,0,1,.37-.32.77.77,0,0,1,.47.08.66.66,0,0,1,.3.34.49.49,0,0,1-.08.47Z"/><path class="cls-2" d="M117.13,144.56a.67.67,0,0,1-.75-.77v-4.55a.67.67,0,0,1,.74-.76c.49,0,.73.26.73.76v.25a2,2,0,0,1,.82-.77,2.52,2.52,0,0,1,1.14-.26c1.39,0,2.09.81,2.09,2.42v2.91a.67.67,0,0,1-.75.77.68.68,0,0,1-.76-.77V141a1.52,1.52,0,0,0-.26-1,1,1,0,0,0-.8-.31,1.39,1.39,0,0,0-1,.41,1.57,1.57,0,0,0-.39,1.11v2.63A.67.67,0,0,1,117.13,144.56Z"/><path class="cls-2" d="M125.36,144.59a2.57,2.57,0,0,1-1.13-.25,1.93,1.93,0,0,1-.79-.67,1.73,1.73,0,0,1-.28-.95,1.47,1.47,0,0,1,.34-1,2.07,2.07,0,0,1,1.09-.55,10.12,10.12,0,0,1,2-.16h.42v-.26a1.15,1.15,0,0,0-.27-.86,1.2,1.2,0,0,0-.89-.27,4.17,4.17,0,0,0-.75.08,4.76,4.76,0,0,0-.85.29.52.52,0,0,1-.48,0,.5.5,0,0,1-.26-.32.7.7,0,0,1,0-.45.61.61,0,0,1,.36-.34,5.36,5.36,0,0,1,1.07-.32,4.61,4.61,0,0,1,.93-.1,2.74,2.74,0,0,1,1.92.59,2.49,2.49,0,0,1,.62,1.85v2.89c0,.52-.23.77-.7.77s-.71-.25-.71-.77v-.26a1.54,1.54,0,0,1-.65.77A1.91,1.91,0,0,1,125.36,144.59Zm.32-1a1.31,1.31,0,0,0,1-.41,1.44,1.44,0,0,0,.39-1v-.27h-.41a4.67,4.67,0,0,0-1.57.18.62.62,0,0,0-.44.63.83.83,0,0,0,.28.65A1.08,1.08,0,0,0,125.68,143.55Z"/><path class="cls-2" d="M132.76,146.75a6.41,6.41,0,0,1-1.26-.12,4.07,4.07,0,0,1-1.1-.37.6.6,0,0,1-.35-.37.61.61,0,0,1,0-.42.57.57,0,0,1,.29-.3.5.5,0,0,1,.43,0,3.7,3.7,0,0,0,1,.34,5.48,5.48,0,0,0,.82.08,1.4,1.4,0,0,0,1.61-1.55v-.81a1.83,1.83,0,0,1-.78.78,2.27,2.27,0,0,1-1.16.29,2.5,2.5,0,0,1-1.38-.37,2.4,2.4,0,0,1-.92-1,3.46,3.46,0,0,1-.32-1.55,3.38,3.38,0,0,1,.32-1.53,2.4,2.4,0,0,1,.92-1,2.5,2.5,0,0,1,1.38-.37,2.37,2.37,0,0,1,1.16.28,1.72,1.72,0,0,1,.76.75v-.25a.7.7,0,0,1,.2-.56.73.73,0,0,1,.54-.2.67.67,0,0,1,.75.76v4.64A2.82,2.82,0,0,1,135,146,3.09,3.09,0,0,1,132.76,146.75Zm0-3.57a1.38,1.38,0,0,0,1.11-.48,2,2,0,0,0,.41-1.32,2,2,0,0,0-.41-1.3,1.38,1.38,0,0,0-1.11-.48,1.4,1.4,0,0,0-1.11.48,2,2,0,0,0-.41,1.3,2,2,0,0,0,.41,1.32A1.4,1.4,0,0,0,132.72,143.18Z"/><path class="cls-2" d="M140.18,144.59a3.7,3.7,0,0,1-1.72-.38,2.64,2.64,0,0,1-1.11-1.06,3.21,3.21,0,0,1-.39-1.62,3.29,3.29,0,0,1,.38-1.6,2.77,2.77,0,0,1,1-1.08,3,3,0,0,1,1.53-.39,2.56,2.56,0,0,1,2,.79,3.13,3.13,0,0,1,.73,2.17c0,.3-.19.45-.58.45H138.4a1.6,1.6,0,0,0,1.81,1.57,3.07,3.07,0,0,0,.7-.08,2.44,2.44,0,0,0,.74-.27.7.7,0,0,1,.53-.11.45.45,0,0,1,.31.26.57.57,0,0,1,0,.43.68.68,0,0,1-.34.4,2.9,2.9,0,0,1-1,.39A4.75,4.75,0,0,1,140.18,144.59Zm-.21-5.11a1.46,1.46,0,0,0-1.07.41,1.8,1.8,0,0,0-.5,1.11h3a1.78,1.78,0,0,0-.4-1.13A1.28,1.28,0,0,0,140,139.48Z"/><path class="cls-2" d="M144.58,144.56a.67.67,0,0,1-.75-.77v-4.55a.67.67,0,0,1,.74-.76c.49,0,.73.26.73.76v.24a1.91,1.91,0,0,1,.74-.75,2.11,2.11,0,0,1,1.08-.27,1.65,1.65,0,0,1,1.73,1.15,2,2,0,0,1,.8-.84,2.21,2.21,0,0,1,1.18-.31c1.32,0,2,.81,2,2.42v2.91a.75.75,0,1,1-1.5,0v-2.85a1.73,1.73,0,0,0-.22-1,.86.86,0,0,0-.76-.31,1.13,1.13,0,0,0-.92.41,1.75,1.75,0,0,0-.34,1.15v2.59a.75.75,0,1,1-1.5,0v-2.85a1.72,1.72,0,0,0-.23-1,.84.84,0,0,0-.74-.31,1.13,1.13,0,0,0-.92.41,1.75,1.75,0,0,0-.34,1.15v2.59A.67.67,0,0,1,144.58,144.56Z"/><path class="cls-2" d="M157.27,144.59a3.67,3.67,0,0,1-1.72-.38,2.67,2.67,0,0,1-1.12-1.06,3.21,3.21,0,0,1-.39-1.62,3.29,3.29,0,0,1,.38-1.6,2.8,2.8,0,0,1,1.05-1.08,3,3,0,0,1,1.52-.39,2.53,2.53,0,0,1,2,.79,3.08,3.08,0,0,1,.73,2.17c0,.3-.19.45-.58.45h-3.63a1.59,1.59,0,0,0,1.8,1.57,3.15,3.15,0,0,0,.71-.08,2.44,2.44,0,0,0,.74-.27.69.69,0,0,1,.53-.11.46.46,0,0,1,.3.26.63.63,0,0,1,0,.43.75.75,0,0,1-.34.4,3.09,3.09,0,0,1-1,.39A4.91,4.91,0,0,1,157.27,144.59Zm-.22-5.11a1.46,1.46,0,0,0-1.07.41,1.79,1.79,0,0,0-.49,1.11h3a1.84,1.84,0,0,0-.4-1.13A1.29,1.29,0,0,0,157.05,139.48Z"/><path class="cls-2" d="M161.64,144.56a.67.67,0,0,1-.75-.77v-4.55a.67.67,0,0,1,.74-.76c.49,0,.73.26.73.76v.25a2,2,0,0,1,.82-.77,2.49,2.49,0,0,1,1.14-.26c1.39,0,2.09.81,2.09,2.42v2.91a.67.67,0,0,1-.75.77.68.68,0,0,1-.76-.77V141a1.52,1.52,0,0,0-.26-1,1,1,0,0,0-.8-.31,1.39,1.39,0,0,0-1.05.41,1.57,1.57,0,0,0-.39,1.11v2.63A.67.67,0,0,1,161.64,144.56Z"/><path class="cls-2" d="M170.63,144.59a2.05,2.05,0,0,1-2.33-2.31v-2.57h-.63c-.4,0-.6-.19-.6-.56s.2-.57.6-.57h.63v-1.1a.75.75,0,1,1,1.5,0v1.1h1.28q.6,0,.6.57c0,.37-.2.56-.6.56H169.8v2.48a1.35,1.35,0,0,0,.25.87,1.06,1.06,0,0,0,.82.29,1.79,1.79,0,0,0,.36,0l.28-.05a.26.26,0,0,1,.24.09.61.61,0,0,1,.1.42,1.18,1.18,0,0,1-.08.43.44.44,0,0,1-.28.25,1.8,1.8,0,0,1-.41.09A2.68,2.68,0,0,1,170.63,144.59Z"/><path class="cls-2" d="M176.57,137.38a.92.92,0,0,1-.66-.22.75.75,0,0,1-.23-.58.76.76,0,0,1,.23-.59,1,1,0,0,1,.66-.2c.59,0,.89.26.89.79S177.16,137.38,176.57,137.38Zm0,7.17a.7.7,0,0,1-.56-.22.9.9,0,0,1-.19-.6v-4.42c0-.54.25-.82.75-.82s.76.28.76.82v4.42a.85.85,0,0,1-.2.6A.68.68,0,0,1,176.57,144.55Z"/><path class="cls-2" d="M179.64,144.56a.67.67,0,0,1-.75-.77v-4.55a.67.67,0,0,1,.74-.76c.49,0,.73.26.73.76v.25a2.07,2.07,0,0,1,.81-.77,2.56,2.56,0,0,1,1.15-.26c1.39,0,2.09.81,2.09,2.42v2.91a.76.76,0,1,1-1.51,0V141a1.58,1.58,0,0,0-.26-1,1,1,0,0,0-.8-.31,1.39,1.39,0,0,0-1.05.41,1.57,1.57,0,0,0-.39,1.11v2.63A.68.68,0,0,1,179.64,144.56Z"/><path class="cls-2" d="M188.63,144.59a2,2,0,0,1-2.33-2.31v-2.57h-.63c-.4,0-.6-.19-.6-.56s.2-.57.6-.57h.63v-1.1a.75.75,0,1,1,1.5,0v1.1h1.28q.6,0,.6.57c0,.37-.2.56-.6.56H187.8v2.48a1.35,1.35,0,0,0,.25.87,1.06,1.06,0,0,0,.82.29,1.79,1.79,0,0,0,.36,0l.28-.05a.26.26,0,0,1,.24.09.61.61,0,0,1,.1.42,1.18,1.18,0,0,1-.08.43.44.44,0,0,1-.28.25,1.8,1.8,0,0,1-.41.09A2.68,2.68,0,0,1,188.63,144.59Z"/><path class="cls-2" d="M193.4,144.59a3.67,3.67,0,0,1-1.72-.38,2.61,2.61,0,0,1-1.12-1.06,3.21,3.21,0,0,1-.39-1.62,3.29,3.29,0,0,1,.38-1.6,2.73,2.73,0,0,1,1-1.08,2.94,2.94,0,0,1,1.52-.39,2.53,2.53,0,0,1,2,.79,3.08,3.08,0,0,1,.73,2.17c0,.3-.19.45-.58.45h-3.63a1.59,1.59,0,0,0,1.8,1.57,3.15,3.15,0,0,0,.71-.08,2.54,2.54,0,0,0,.74-.27.69.69,0,0,1,.53-.11.46.46,0,0,1,.3.26.63.63,0,0,1,0,.43.75.75,0,0,1-.34.4,3.09,3.09,0,0,1-1,.39A4.91,4.91,0,0,1,193.4,144.59Zm-.22-5.11a1.46,1.46,0,0,0-1.07.41,1.79,1.79,0,0,0-.49,1.11h3a1.84,1.84,0,0,0-.4-1.13A1.29,1.29,0,0,0,193.18,139.48Zm.52-1.76a.43.43,0,0,1-.29.2.59.59,0,0,1-.32-.06.53.53,0,0,1-.23-.24.44.44,0,0,1,0-.35l.92-1.8a.53.53,0,0,1,.37-.32.77.77,0,0,1,.47.08.66.66,0,0,1,.3.34.49.49,0,0,1-.08.47Z"/><path class="cls-2" d="M197.79,144.56a.68.68,0,0,1-.77-.77v-4.55a.67.67,0,0,1,.74-.76c.49,0,.73.26.73.76v.37a2,2,0,0,1,1.86-1.15c.34,0,.53.15.57.59s-.16.66-.62.71l-.27,0a1.42,1.42,0,0,0-1.48,1.52v2.49A.67.67,0,0,1,197.79,144.56Z"/><path class="cls-2" d="M202.49,137.38a.92.92,0,0,1-.66-.22.75.75,0,0,1-.23-.58.76.76,0,0,1,.23-.59,1,1,0,0,1,.66-.2c.59,0,.89.26.89.79S203.08,137.38,202.49,137.38Zm0,7.17a.7.7,0,0,1-.56-.22.9.9,0,0,1-.19-.6v-4.42c0-.54.25-.82.75-.82s.76.28.76.82v4.42a.85.85,0,0,1-.2.6A.68.68,0,0,1,202.49,144.55Z"/><path class="cls-2" d="M207.71,144.59a3.7,3.7,0,0,1-1.72-.38,2.64,2.64,0,0,1-1.11-1.06,3.56,3.56,0,0,1,0-3.22,2.77,2.77,0,0,1,1-1.08,3,3,0,0,1,1.53-.39,2.56,2.56,0,0,1,2,.79,3.13,3.13,0,0,1,.73,2.17c0,.3-.2.45-.58.45h-3.64a1.6,1.6,0,0,0,1.81,1.57,3.07,3.07,0,0,0,.7-.08,2.44,2.44,0,0,0,.74-.27.7.7,0,0,1,.53-.11.45.45,0,0,1,.31.26.57.57,0,0,1,0,.43.68.68,0,0,1-.34.4,2.9,2.9,0,0,1-1,.39A4.75,4.75,0,0,1,207.71,144.59Zm-.21-5.11a1.46,1.46,0,0,0-1.07.41,1.8,1.8,0,0,0-.5,1.11h3a1.78,1.78,0,0,0-.4-1.13A1.28,1.28,0,0,0,207.5,139.48Z"/><path class="cls-2" d="M213.47,144.59c-1.45,0-2.17-.81-2.17-2.44v-2.91a.67.67,0,0,1,.75-.76.68.68,0,0,1,.76.76v2.94a1.42,1.42,0,0,0,.25.93,1,1,0,0,0,.81.3,1.26,1.26,0,0,0,1-.42,1.54,1.54,0,0,0,.39-1.1v-2.65a.75.75,0,1,1,1.5,0v4.55c0,.52-.24.77-.73.77s-.74-.25-.74-.77v-.2A2,2,0,0,1,213.47,144.59Z"/><path class="cls-2" d="M219.08,144.56a.68.68,0,0,1-.77-.77v-4.55c0-.5.24-.76.73-.76a.67.67,0,0,1,.74.76v.37a2,2,0,0,1,1.85-1.15c.35,0,.54.15.58.59s-.17.66-.63.71l-.26,0a1.42,1.42,0,0,0-1.48,1.52v2.49A.67.67,0,0,1,219.08,144.56Z"/></g></g></svg>