<svg xmlns="http://www.w3.org/2000/svg" viewBox="0 0 120.47 90.86"><defs><style>.cls-1{fill:#fff;}.cls-2{fill:#c77114;}</style></defs><title>logo-white-picto_1</title><g id="Calque_2" data-name="Calque 2"><g id="Calque_1-2" data-name="Calque 1"><path class="cls-1" d="M28.84,37.1H3.12a3.12,3.12,0,1,1,0-6.24H28.84a3.12,3.12,0,1,1,0,6.24Z"/><path class="cls-1" d="M117.35,37.1H56.69a3.12,3.12,0,1,1,0-6.24h60.66a3.12,3.12,0,1,1,0,6.24Z"/><path class="cls-1" d="M87.73,82H33.09A24.81,24.81,0,0,1,8.31,57.23V10.42A3.12,3.12,0,0,1,11.43,7.3H34.54a3.12,3.12,0,0,1,3.12,3.12v6.8a3.12,3.12,0,1,1-6.24,0V13.54H14.55V57.23A18.57,18.57,0,0,0,33.09,75.78H87.73a18.57,18.57,0,0,0,18.55-18.55V34a3.12,3.12,0,1,1,6.23,0V57.23A24.8,24.8,0,0,1,87.73,82Z"/><path class="cls-1" d="M98.78,90.24a3.12,3.12,0,0,1-2.2-.92l-8.23-8.23a3.12,3.12,0,0,1,4.41-4.41L101,84.91a3.13,3.13,0,0,1-2.21,5.33Z"/><path class="cls-1" d="M21.16,90.86A3.13,3.13,0,0,1,19,85.53l8.62-8.62A3.12,3.12,0,0,1,32,81.32l-8.62,8.62A3.12,3.12,0,0,1,21.16,90.86Z"/><circle class="cls-1" cx="90.97" cy="20.59" r="5.53"/><circle class="cls-1" cx="72.57" cy="15.06" r="4.79"/><circle class="cls-1" cx="85.43" cy="2.64" r="2.64"/><path class="cls-2" d="M53.65,63.8H31.84a4.47,4.47,0,0,1-4.51-4.42V28a2.45,2.45,0,0,1,2.45-2.45H55.71A2.45,2.45,0,0,1,58.15,28V59.38A4.46,4.46,0,0,1,53.65,63.8ZM32.22,58.91H53.27V30.4H32.22Z"/></g></g></svg>