<svg width="47" height="43" viewBox="0 0 47 43" fill="none" xmlns="http://www.w3.org/2000/svg">
<path d="M18.2 6C11.4 6 1 11.6 1 23.6822C1 38.3364 14.2099 41.7508 20.6296 42C28.037 42 41 38.9346 41 23.6822C41 8.42991 23.716 2.87227 15.0741 2" stroke="#F3CCD4" stroke-width="2"/>
<path fill-rule="evenodd" clip-rule="evenodd" d="M8.5 23.7219C8.91861 22.2202 10.3317 20.5196 12.7739 21.0185C14.7042 21.5602 16.2931 23.2361 17.561 25.9758C24.6678 16.3545 30.7788 9.7343 38.8484 7.25032C39.5683 7.08663 39.9469 7.12561 39.4216 7.70501C31.0828 14.272 23.5429 23.7972 17.6838 35.6384C17.5464 35.9151 17.0572 35.8943 16.8932 35.5929C15.1028 32.4257 13.8297 29.3366 12.0392 26.1692C11.2407 24.531 10.2288 23.3527 8.50113 23.7203L8.5 23.7219Z" fill="#C1002A"/>
</svg>
