<svg xmlns="http://www.w3.org/2000/svg" viewBox="0 0 157.07 129.2"><defs><style>.cls-1{fill:#fff;}.cls-2{fill:#c77114;}</style></defs><title>logo-white_1</title><g id="Calque_2" data-name="Calque 2"><g id="Calque_1-2" data-name="Calque 1"><path class="cls-1" d="M50.58,37.1H24.86a3.12,3.12,0,1,1,0-6.24H50.58a3.12,3.12,0,1,1,0,6.24Z"/><path class="cls-1" d="M139.09,37.1H78.43a3.12,3.12,0,0,1,0-6.24h60.66a3.12,3.12,0,1,1,0,6.24Z"/><path class="cls-1" d="M109.47,82H54.83A24.81,24.81,0,0,1,30.05,57.23V10.42A3.12,3.12,0,0,1,33.17,7.3H56.28a3.12,3.12,0,0,1,3.12,3.12v6.8a3.12,3.12,0,1,1-6.24,0V13.54H36.29V57.23A18.57,18.57,0,0,0,54.83,75.78h54.64A18.57,18.57,0,0,0,128,57.23V34a3.12,3.12,0,0,1,6.24,0V57.23A24.81,24.81,0,0,1,109.47,82Z"/><path class="cls-1" d="M120.53,90.24a3.12,3.12,0,0,1-2.21-.92l-8.23-8.23a3.12,3.12,0,0,1,4.41-4.41l8.23,8.23a3.13,3.13,0,0,1-2.2,5.33Z"/><path class="cls-1" d="M42.9,90.86a3.13,3.13,0,0,1-2.21-5.33l8.62-8.62a3.12,3.12,0,0,1,4.41,4.41L45.1,89.94A3.1,3.1,0,0,1,42.9,90.86Z"/><circle class="cls-1" cx="112.71" cy="20.59" r="5.53"/><circle class="cls-1" cx="94.31" cy="15.06" r="4.79"/><circle class="cls-1" cx="107.18" cy="2.64" r="2.64"/><path class="cls-2" d="M75.39,63.8H53.58a4.47,4.47,0,0,1-4.51-4.42V28a2.45,2.45,0,0,1,2.45-2.45H77.45A2.45,2.45,0,0,1,79.9,28V59.38A4.47,4.47,0,0,1,75.39,63.8ZM54,58.91H75V30.4H54Z"/><path class="cls-1" d="M5.15,125.81a10.72,10.72,0,0,1-2.48-.28,6.66,6.66,0,0,1-2.1-.86A1.12,1.12,0,0,1,0,124a1.19,1.19,0,0,1,.06-.79.94.94,0,0,1,.51-.51.86.86,0,0,1,.81.14,6.46,6.46,0,0,0,1.77.72,7.8,7.8,0,0,0,2,.23,3.75,3.75,0,0,0,2.18-.5A1.55,1.55,0,0,0,8,122a1.28,1.28,0,0,0-.49-1,4.19,4.19,0,0,0-1.66-.62l-2.09-.44q-3.57-.76-3.57-3.67A3.65,3.65,0,0,1,.87,114a4.33,4.33,0,0,1,1.84-1.45A6.84,6.84,0,0,1,5.43,112a8.12,8.12,0,0,1,2.17.28,6.19,6.19,0,0,1,1.84.84,1.07,1.07,0,0,1,.46.66,1,1,0,0,1-.1.72.87.87,0,0,1-.54.45,1,1,0,0,1-.86-.16A5.93,5.93,0,0,0,7,114.26a7,7,0,0,0-1.56-.17,3.35,3.35,0,0,0-2.05.55,1.73,1.73,0,0,0-.74,1.45,1.4,1.4,0,0,0,.45,1.09,3.59,3.59,0,0,0,1.56.64l2.07.43a5.93,5.93,0,0,1,2.81,1.26,3,3,0,0,1,.92,2.28,3.59,3.59,0,0,1-.65,2.11A4.25,4.25,0,0,1,8,125.31,7.07,7.07,0,0,1,5.15,125.81Z"/><path class="cls-1" d="M12.56,125.78a1,1,0,0,1-1-.46,1.08,1.08,0,0,1,0-1.1l5-11.12a2,2,0,0,1,.6-.79,1.51,1.51,0,0,1,1.6,0,1.86,1.86,0,0,1,.59.79l5,11.12a1.19,1.19,0,0,1,0,1.11,1,1,0,0,1-.91.45,1.23,1.23,0,0,1-.83-.26,2,2,0,0,1-.52-.79l-.95-2.2H14.76l-.93,2.2a2.76,2.76,0,0,1-.51.8A1.1,1.1,0,0,1,12.56,125.78ZM18,114.87l-2.41,5.72h4.86l-2.41-5.72Z"/><path class="cls-1" d="M27.78,125.78c-.82,0-1.22-.42-1.22-1.26V113.46a1.09,1.09,0,0,1,1.23-1.23h4.58a5,5,0,0,1,3.4,1,3.74,3.74,0,0,1,1.2,3,3.62,3.62,0,0,1-3,3.8,2.81,2.81,0,0,1,1.6,1.46L37,124.14a1.27,1.27,0,0,1,.12,1.12c-.13.35-.46.52-1,.52a1.5,1.5,0,0,1-.83-.22,1.78,1.78,0,0,1-.57-.68l-1.92-3.53a1.92,1.92,0,0,0-.81-.87,2.87,2.87,0,0,0-1.18-.21H29v4.25C29,125.36,28.59,125.78,27.78,125.78ZM29,118.46h3c1.78,0,2.66-.72,2.66-2.16s-.88-2.15-2.66-2.15H29Z"/><path class="cls-1" d="M40.83,125.62a1.1,1.1,0,0,1-1.24-1.25v-11a1.22,1.22,0,1,1,2.43,0v10.14h5.51a1,1,0,1,1,0,2.07Z"/><path class="cls-1" d="M54.83,125.76a1.08,1.08,0,0,1-.84-.29,1.06,1.06,0,0,1-.3-.78,1,1,0,0,1,.22-.63.79.79,0,0,1,.64-.3l.57,0a1.64,1.64,0,0,0,1.69-1.86v-8.55a1.22,1.22,0,1,1,2.43,0v8.53a3.87,3.87,0,0,1-1,2.78,4.09,4.09,0,0,1-2.81,1.1Z"/><path class="cls-1" d="M65,125.81a4.14,4.14,0,0,1-1.8-.38A3.12,3.12,0,0,1,62,124.37a2.6,2.6,0,0,1-.45-1.5,2.39,2.39,0,0,1,.53-1.63,3.27,3.27,0,0,1,1.73-.86,15.21,15.21,0,0,1,3.21-.27h.67v-.39a1.87,1.87,0,0,0-.42-1.37,2,2,0,0,0-1.41-.42,5.84,5.84,0,0,0-1.19.13,6.28,6.28,0,0,0-1.34.46.84.84,0,0,1-.75,0,.8.8,0,0,1-.41-.52,1,1,0,0,1,0-.71.91.91,0,0,1,.57-.53,8.7,8.7,0,0,1,1.69-.51,7.32,7.32,0,0,1,1.47-.16,4.28,4.28,0,0,1,3,.94,3.86,3.86,0,0,1,1,2.92v4.56c0,.81-.37,1.22-1.1,1.22s-1.13-.41-1.13-1.22v-.42a2.56,2.56,0,0,1-1,1.23A3,3,0,0,1,65,125.81Zm.49-1.63a2,2,0,0,0,1.55-.65,2.27,2.27,0,0,0,.62-1.63v-.42H67a7.38,7.38,0,0,0-2.48.28,1,1,0,0,0-.69,1,1.33,1.33,0,0,0,.43,1A1.74,1.74,0,0,0,65.47,124.18Z"/><path class="cls-1" d="M76.61,125.81a5.28,5.28,0,0,1-2.55-.59,4.11,4.11,0,0,1-1.67-1.71,5.29,5.29,0,0,1-.59-2.58,5.11,5.11,0,0,1,.59-2.55,4,4,0,0,1,1.67-1.66,5.39,5.39,0,0,1,2.55-.58,6.15,6.15,0,0,1,1.35.17,4.91,4.91,0,0,1,1.38.57.92.92,0,0,1,.45.59,1,1,0,0,1-.1.67,1,1,0,0,1-.47.44.84.84,0,0,1-.72-.1,3.39,3.39,0,0,0-1.69-.49,2.39,2.39,0,0,0-1.91.77,3.21,3.21,0,0,0-.67,2.19,3.32,3.32,0,0,0,.67,2.21,2.35,2.35,0,0,0,1.91.81,3.58,3.58,0,0,0,1.69-.47.76.76,0,0,1,.71-.1.84.84,0,0,1,.44.45,1.14,1.14,0,0,1,0,.66.88.88,0,0,1-.43.58,4.51,4.51,0,0,1-1.33.55A5.39,5.39,0,0,1,76.61,125.81Z"/><path class="cls-1" d="M88.82,129.2a1.05,1.05,0,0,1-1.18-1.2v-3.78a2.9,2.9,0,0,1-1.19,1.16,3.7,3.7,0,0,1-1.79.43,3.85,3.85,0,0,1-2.14-.59,3.89,3.89,0,0,1-1.43-1.68,6.64,6.64,0,0,1,0-5.15,4,4,0,0,1,1.43-1.66,3.93,3.93,0,0,1,2.14-.59,3.65,3.65,0,0,1,1.81.45,2.9,2.9,0,0,1,1.19,1.19v-.4a1.18,1.18,0,1,1,2.36,0V128A1.06,1.06,0,0,1,88.82,129.2ZM85.32,124a2.13,2.13,0,0,0,1.71-.77,3.4,3.4,0,0,0,.65-2.27A3.36,3.36,0,0,0,87,118.7a2.14,2.14,0,0,0-1.71-.75,2.17,2.17,0,0,0-1.71.75A3.42,3.42,0,0,0,83,121a3.45,3.45,0,0,0,.64,2.27A2.16,2.16,0,0,0,85.32,124Z"/><path class="cls-1" d="M95.85,125.81c-2.28,0-3.42-1.27-3.42-3.83v-4.6a1.19,1.19,0,1,1,2.38,0V122a2.31,2.31,0,0,0,.39,1.47,1.62,1.62,0,0,0,1.28.47A2.07,2.07,0,0,0,98,123.3a2.49,2.49,0,0,0,.6-1.74v-4.18a1.19,1.19,0,1,1,2.38,0v7.18c0,.81-.39,1.22-1.16,1.22s-1.16-.41-1.16-1.22v-.32A3.08,3.08,0,0,1,95.85,125.81Z"/><path class="cls-1" d="M108.07,125.81a5.78,5.78,0,0,1-2.72-.59,4.12,4.12,0,0,1-1.76-1.67A5.08,5.08,0,0,1,103,121a5.25,5.25,0,0,1,.59-2.53,4.38,4.38,0,0,1,1.66-1.7,4.66,4.66,0,0,1,2.4-.62,4,4,0,0,1,3.13,1.26,4.88,4.88,0,0,1,1.15,3.42c0,.47-.31.7-.92.7h-5.73a2.52,2.52,0,0,0,2.85,2.49,5.85,5.85,0,0,0,1.11-.12,4.45,4.45,0,0,0,1.17-.43,1.05,1.05,0,0,1,.83-.18.75.75,0,0,1,.49.41,1,1,0,0,1,0,.67,1.13,1.13,0,0,1-.54.64,4.76,4.76,0,0,1-1.53.61A6.73,6.73,0,0,1,108.07,125.81Zm-.34-8a2.32,2.32,0,0,0-1.7.64,2.86,2.86,0,0,0-.77,1.75h4.67a2.79,2.79,0,0,0-.64-1.77A2,2,0,0,0,107.73,117.76Z"/><path class="cls-1" d="M115,125.78a1.07,1.07,0,0,1-1.18-1.22v-7.18a1,1,0,0,1,1.16-1.2c.78,0,1.16.4,1.16,1.2v.38a3.09,3.09,0,0,1,1.16-1.19,3.44,3.44,0,0,1,1.71-.43,2.62,2.62,0,0,1,2.74,1.83,3.23,3.23,0,0,1,1.25-1.34,3.54,3.54,0,0,1,1.86-.49c2.09,0,3.14,1.28,3.14,3.82v4.6a1.19,1.19,0,1,1-2.38,0v-4.5a2.69,2.69,0,0,0-.35-1.56,1.35,1.35,0,0,0-1.19-.49,1.77,1.77,0,0,0-1.46.65,2.83,2.83,0,0,0-.53,1.81v4.09a1.19,1.19,0,1,1-2.38,0v-4.5a2.69,2.69,0,0,0-.35-1.56,1.32,1.32,0,0,0-1.17-.49,1.77,1.77,0,0,0-1.46.65,2.83,2.83,0,0,0-.53,1.81v4.09A1.07,1.07,0,0,1,115,125.78Z"/><path class="cls-1" d="M133.51,125.81a4.17,4.17,0,0,1-1.8-.38,3.19,3.19,0,0,1-1.23-1.06,2.6,2.6,0,0,1-.45-1.5,2.39,2.39,0,0,1,.53-1.63,3.27,3.27,0,0,1,1.73-.86,15.21,15.21,0,0,1,3.21-.27h.67v-.39a1.87,1.87,0,0,0-.42-1.37,2,2,0,0,0-1.41-.42,5.67,5.67,0,0,0-1.18.13,6.09,6.09,0,0,0-1.34.46.86.86,0,0,1-.76,0,.83.83,0,0,1-.41-.52,1,1,0,0,1,0-.71.93.93,0,0,1,.58-.53,8.41,8.41,0,0,1,1.68-.51,7.39,7.39,0,0,1,1.47-.16,4.27,4.27,0,0,1,3,.94,3.86,3.86,0,0,1,1,2.92v4.56c0,.81-.37,1.22-1.1,1.22s-1.12-.41-1.12-1.22v-.42a2.64,2.64,0,0,1-1,1.23A3,3,0,0,1,133.51,125.81Zm.49-1.63a2,2,0,0,0,1.55-.65,2.27,2.27,0,0,0,.62-1.63v-.42h-.65a7.42,7.42,0,0,0-2.48.28,1,1,0,0,0-.69,1,1.31,1.31,0,0,0,.44,1A1.7,1.7,0,0,0,134,124.18Z"/><path class="cls-1" d="M142.06,125.78a1.08,1.08,0,0,1-1.22-1.22v-7.18a1.16,1.16,0,1,1,2.32,0V118a3.15,3.15,0,0,1,2.93-1.83c.54-.06.85.25.91.93s-.27,1.05-1,1.13l-.42,0a2.22,2.22,0,0,0-2.33,2.4v3.93A1.07,1.07,0,0,1,142.06,125.78Z"/><path class="cls-1" d="M151.71,125.81a3.85,3.85,0,0,1-2.14-.59,3.89,3.89,0,0,1-1.43-1.68,6.76,6.76,0,0,1,0-5.15,4,4,0,0,1,1.43-1.66,3.93,3.93,0,0,1,2.14-.59,3.71,3.71,0,0,1,1.79.44,2.9,2.9,0,0,1,1.19,1.16v-4.47a1.19,1.19,0,1,1,2.38,0v11.29a1.18,1.18,0,1,1-2.36,0v-.4a2.89,2.89,0,0,1-1.19,1.21A3.65,3.65,0,0,1,151.71,125.81Zm.67-1.8a2.13,2.13,0,0,0,1.71-.77,3.45,3.45,0,0,0,.64-2.27,3.42,3.42,0,0,0-.64-2.27,2.32,2.32,0,0,0-3.42,0A3.42,3.42,0,0,0,150,121a3.45,3.45,0,0,0,.65,2.27A2.13,2.13,0,0,0,152.38,124Z"/></g></g></svg>