<svg width="148" height="48" viewBox="0 0 148 48" fill="none" xmlns="http://www.w3.org/2000/svg">
<path d="M132.818 11.6116C133.434 10.2231 134.097 8.97631 135.064 7.91492C136.472 6.37009 138.157 5.53088 140.301 5.68446C141.769 5.78987 143.15 6.11065 144.359 6.9744C145.793 7.99626 146.621 9.43521 147.099 11.1018C147.497 12.4881 147.65 13.9111 147.657 15.346C147.673 19.0672 147.663 22.7889 147.662 26.5106C147.662 27.0917 147.653 27.1013 147.086 27.1013C144.606 27.1013 142.126 27.1013 139.646 27.1013C139.103 27.1013 139.088 27.0845 139.087 26.5329C139.087 22.8648 139.094 19.1967 139.079 15.5287C139.079 15.0125 139.033 14.4782 138.894 13.9838C138.536 12.7116 137.297 12.2754 136.162 12.9579C135.602 13.2946 135.227 13.7826 134.921 14.341C134.239 15.5818 133.947 16.939 133.745 18.3221C133.369 20.9042 133.539 23.5045 133.503 26.0976C133.488 27.228 133.643 27.0972 132.498 27.0995C130.165 27.1046 127.832 27.1046 125.498 27.0995C124.922 27.0995 124.913 27.0899 124.913 26.5197C124.913 22.8916 124.917 19.2635 124.907 15.6359C124.908 15.1812 124.866 14.7275 124.781 14.281C124.401 12.3622 122.863 12.3945 121.77 13.0124C120.971 13.464 120.549 14.2342 120.233 15.053C119.743 16.302 119.472 17.6267 119.431 18.9686C119.359 21.4676 119.359 23.9721 119.332 26.4738C119.325 27.0986 119.329 27.0995 118.709 27.0999C116.603 27.0999 114.496 27.0999 112.39 27.0999C111.806 27.0999 111.797 27.0917 111.797 26.5261C111.797 19.886 111.797 13.246 111.797 6.6059C111.797 6.05703 111.815 6.03886 112.356 6.03795C113.542 6.03795 114.729 6.0475 115.916 6.03205C116.274 6.02705 116.432 6.14654 116.5 6.51276C116.787 8.05168 117.105 9.58471 117.411 11.12C117.425 11.1859 117.417 11.2649 117.452 11.3149C117.534 11.4335 117.633 11.6202 117.733 11.6271C117.841 11.6339 118.018 11.4908 118.067 11.3713C118.543 10.2104 119.159 9.13262 119.984 8.19072C121.24 6.75585 122.807 5.89846 124.719 5.70626C128.504 5.32551 131.478 7.85267 132.639 11.1254C132.687 11.2627 132.739 11.3981 132.818 11.6116Z" fill="#C1002A"/>
<path d="M99.421 23.0422C99.3183 23.1939 99.2401 23.2794 99.1949 23.3793C98.0488 25.8847 96.0684 27.1419 93.3658 27.3595C91.8222 27.4836 90.3271 27.3291 88.9215 26.6521C87.1124 25.7806 86.2233 24.269 86.1175 22.3007C85.9818 19.7472 87.1269 18.0038 89.4854 17.0396C90.5997 16.5834 91.7838 16.323 92.9859 16.2699C94.3019 16.2104 95.6234 16.2577 96.9417 16.2904C97.5527 16.3054 98.1628 16.4076 98.772 16.4417C98.8624 16.4467 99.0506 16.2936 99.0483 16.2172C99.0158 14.9627 99.0836 13.6883 98.8823 12.4587C98.4839 10.0179 96.7011 9.37273 94.5552 9.89297C93.0555 10.2565 92.3893 11.3965 92.6851 12.9372C92.7444 13.2466 92.7376 13.4247 92.364 13.5038C90.7205 13.8514 89.0825 14.2244 87.4439 14.5965C87.192 14.6538 86.9967 14.6551 86.9094 14.3589C86.2563 12.1325 86.3821 9.54266 88.4177 7.79473C89.3814 6.96643 90.5179 6.47299 91.7349 6.17993C94.2843 5.56518 96.8612 5.46295 99.4232 6.03272C102.892 6.80513 104.896 9.02015 105.404 12.5555C105.509 13.3103 105.564 14.0712 105.568 14.8332C105.589 17.0828 105.568 19.3314 105.582 21.5819C105.585 21.9424 105.639 22.3007 105.742 22.646C105.956 23.3562 106.526 23.7651 107.267 23.7819C107.56 23.7871 107.853 23.7736 108.144 23.7415C108.354 23.7192 108.45 23.7942 108.451 23.9977C108.451 24.6538 108.467 25.3104 108.439 25.9655C108.433 26.1091 108.304 26.2836 108.179 26.3804C107.481 26.9397 106.662 27.2087 105.782 27.2991C104.536 27.4272 103.304 27.3568 102.115 26.9197C100.6 26.3627 99.8728 25.1909 99.6277 23.6538C99.6069 23.5215 99.5824 23.3902 99.5494 23.2607C99.5422 23.2144 99.5028 23.1744 99.421 23.0422ZM99.0339 18.3091C97.3325 18.4245 95.6754 18.554 94.1323 19.2633C93.5955 19.5104 93.1166 19.8453 92.7991 20.3742C91.8946 21.8795 92.587 23.691 94.2011 23.915C96.1005 24.1785 97.7142 23.4457 98.5472 21.6587C99.0388 20.6023 99.1379 19.4914 99.0339 18.3091Z" fill="#C1002A"/>
<path d="M62.2581 16.6089C62.2581 13.3027 62.2581 9.99601 62.2581 6.68885C62.2581 6.10772 62.2604 6.10681 62.8348 6.10499C63.235 6.10499 63.6357 6.1209 64.0346 6.1C64.3603 6.08319 64.5054 6.1886 64.5583 6.53301C64.7999 8.09284 65.0694 9.64857 65.3272 11.2052C65.3426 11.2961 65.3376 11.401 65.3792 11.4778C65.4402 11.5941 65.5343 11.6927 65.6148 11.7991C65.7134 11.6955 65.8554 11.6096 65.9047 11.486C66.2466 10.6314 66.5012 9.73445 66.9123 8.91659C67.8056 7.14004 69.3242 6.18042 71.2468 5.8351C72.6614 5.58066 74.0829 5.51978 75.498 5.82693C78.1514 6.40351 79.7795 8.07874 80.4245 10.6827C80.68 11.7069 80.8165 12.7575 80.8315 13.8133C80.8767 18.0029 80.85 22.1935 80.8496 26.3841C80.8496 27.0997 80.8496 27.1002 80.1178 27.1002C79.2248 27.1002 78.3314 27.1002 77.4378 27.1002C76.8335 27.1002 76.8299 27.097 76.8295 26.5018C76.8295 22.3247 76.8295 18.1476 76.8295 13.9705C76.8295 13.0081 76.6581 12.0789 76.213 11.2161C75.5346 9.90392 74.4185 9.27463 72.9862 9.19148C70.8176 9.06517 69.3545 10.2033 68.2736 11.9486C67.1927 13.6938 66.7057 15.6321 66.4569 17.6399C66.0951 20.5574 66.2448 23.4921 66.2181 26.4204C66.2118 27.0997 66.2181 27.102 65.5321 27.102C64.6384 27.102 63.745 27.102 62.852 27.102C62.2618 27.102 62.2595 27.0988 62.2595 26.4895C62.2583 23.196 62.2578 19.9025 62.2581 16.6089Z" fill="#C1002A"/>
<path d="M38.4932 16.4708C38.4615 14.711 38.7347 13.0035 39.3923 11.3674C40.5184 8.5635 42.5431 6.76695 45.4633 6.04361C47.9702 5.4225 50.4639 5.47111 52.8636 6.52296C54.6817 7.31991 55.8485 8.71844 56.3826 10.6427C56.4423 10.858 56.4161 10.9998 56.1795 11.0761C55.5952 11.2638 55.0127 11.456 54.4352 11.6627C54.1417 11.7677 54.0833 11.5786 53.9716 11.3792C53.5764 10.6722 53.2277 9.92295 52.7338 9.28911C51.809 8.1055 50.5227 7.49075 49.0434 7.35808C47.3981 7.21041 45.8541 7.55845 44.5109 8.57213C43.4111 9.39458 42.5813 10.5286 42.128 11.8286C40.9706 15.1 40.9028 18.3714 42.45 21.541C43.6059 23.9091 45.5027 25.3785 48.157 25.6757C51.131 26.0087 53.608 24.8101 54.6903 21.6246C54.8196 21.2448 54.9865 21.1807 55.3311 21.3097C55.7053 21.4518 56.0877 21.571 56.4762 21.6664C56.8652 21.76 56.9448 21.9308 56.824 22.3238C55.9977 25.0046 54.2403 26.6335 51.4788 27.1369C49.0172 27.5854 46.5967 27.4954 44.2644 26.4963C41.8394 25.4571 40.2027 23.6529 39.2833 21.1889C38.6777 19.5663 38.4936 18.3632 38.4932 16.4708Z" fill="#C1002A"/>
<path d="M18.1022 16.6517C15.7559 16.6517 13.4097 16.6517 11.0637 16.6517C10.531 16.6517 10.5174 16.6644 10.5179 17.1847C10.5179 20.3547 11.8448 22.8915 14.2322 24.8952C14.9341 25.4859 15.779 25.8425 16.6654 26.072C17.8426 26.3798 19.0725 26.4263 20.2694 26.2083C22.3435 25.8357 23.6612 24.6327 24.2226 22.5993C24.3736 22.0541 24.3809 22.0541 24.901 22.2244C25.104 22.2903 25.303 22.3721 25.5102 22.4212C25.8543 22.503 25.9059 22.6902 25.81 23.0119C25.2917 24.753 24.1394 25.9075 22.5054 26.5949C20.9383 27.2542 19.2943 27.3937 17.607 27.2906C16.1932 27.2038 14.8301 26.9271 13.548 26.326C11.3432 25.29 9.83948 23.583 9.07879 21.2825C7.98207 17.9716 7.95991 14.6334 9.28773 11.3847C10.6649 8.01655 13.2454 6.17456 16.8499 5.7829C18.6589 5.58616 20.4146 5.77063 22.083 6.54214C23.8847 7.37498 24.9774 8.81395 25.5319 10.6886C26.0746 12.5206 26.0434 14.3835 25.7896 16.2559C25.7408 16.6163 25.5183 16.6558 25.2216 16.6549C22.8482 16.6491 20.475 16.6481 18.1022 16.6517ZM17.1493 15.6653C19.2297 15.6653 21.3078 15.6594 23.3864 15.6712C23.7093 15.6712 23.8879 15.5867 23.925 15.2454C24.0571 14.0187 24.162 12.7919 23.9209 11.5742C23.5795 9.85444 22.7731 8.40002 21.2418 7.46812C18.5282 5.81606 14.8523 6.55349 12.9085 9.10383C11.5594 10.8722 10.6395 12.8101 10.4916 15.0714C10.4527 15.668 10.4211 15.6666 11.0321 15.6671L17.1493 15.6653Z" fill="#C1002A"/>
<path d="M1.71551 13.56C1.71551 17.8698 1.71551 22.1793 1.71551 26.4885C1.71551 27.0896 1.70963 27.0996 1.11582 27.0946C-0.185326 27.0832 0.0109556 27.2491 0.0100511 25.9969C0.00402101 17.5921 0.00312489 9.18742 0.00734595 0.782931C0.00734595 0.635718 0.012773 0.488506 0.00734595 0.341293C0.00101436 0.107751 0.107291 -0.00311403 0.342917 6.65015e-05C0.689345 0.00491303 1.03608 0.00491303 1.38311 6.65015e-05C1.62552 -0.00311403 1.71552 0.125923 1.7128 0.350833C1.7128 0.484415 1.7128 0.618455 1.7128 0.752038C1.71461 5.02153 1.71551 9.29086 1.71551 13.56Z" fill="#C1002A"/>
<path d="M9.14188 38.0138C8.66588 36.5858 7.34988 35.5078 5.38988 35.5078C2.43588 35.5078 0.629883 37.4118 0.629883 40.3378C0.629883 42.9558 2.09988 45.1678 5.19388 45.1678C6.92988 45.1678 7.90988 44.1178 8.21788 43.0958L8.32988 44.9998H9.32388V40.1558H6.01988V41.3598H7.93788C7.93788 42.7878 6.88788 43.9638 5.29188 43.9638C3.20588 43.9638 2.08588 42.5218 2.08588 40.3378C2.08588 37.9998 3.40188 36.7258 5.45988 36.7258C6.66388 36.7258 7.53188 37.4398 7.86788 38.5318L9.14188 38.0138Z" fill="#171E2B"/>
<path d="M14.6732 38.3358C13.5112 38.3358 12.8532 39.3438 12.7552 41.1218L12.3772 38.4758H11.5652V44.9998H12.9092V43.5158C12.9092 41.7098 13.3152 39.4418 14.3232 39.4418C14.7712 39.4418 14.9112 39.7498 14.9112 40.1278C14.9112 40.5618 14.7432 41.0238 14.6172 41.3318L15.8072 41.2758C16.0452 40.7858 16.1572 40.2958 16.1572 39.8618C16.1572 38.9798 15.6672 38.3358 14.6732 38.3358Z" fill="#171E2B"/>
<path d="M23.6731 44.1318C23.5751 44.1598 23.5051 44.1878 23.3231 44.1878C22.7911 44.1878 22.7071 43.8658 22.7071 43.4318V41.0238C22.7071 39.4558 22.0211 38.3358 20.0471 38.3358C18.3251 38.3358 17.2751 39.2038 17.2751 40.3658C17.2751 40.6458 17.3451 40.9538 17.4711 41.2618L18.6751 40.7858C18.5771 40.6038 18.5351 40.4078 18.5351 40.2538C18.5351 39.6798 19.0951 39.3438 20.0051 39.3438C20.9851 39.3438 21.3631 39.8898 21.3631 40.8418V41.5838C20.9571 41.5418 20.5651 41.5138 20.2151 41.5138C18.3811 41.5138 17.2331 42.1018 17.2331 43.4178C17.2331 44.5098 18.0311 45.1398 19.2491 45.1398C20.4391 45.1398 21.1111 44.6638 21.5171 43.7678C21.5311 44.6358 22.0491 45.1118 22.9451 45.1118C23.2811 45.1118 23.5611 44.9578 23.6731 44.8318V44.1318ZM21.3631 42.2978C21.3631 43.4878 20.5931 44.2158 19.4731 44.2158C18.8431 44.2158 18.5771 43.8798 18.5771 43.4738C18.5771 42.7178 19.1511 42.3538 21.3631 42.2278V42.2978Z" fill="#171E2B"/>
<path d="M30.9237 44.9998V40.9258C30.9237 39.3578 30.1537 38.3358 28.6417 38.3358C27.2557 38.3358 26.4157 39.4978 26.2617 40.9118L25.9257 38.4758H25.1277V44.9998H26.4717V43.0258C26.4717 41.1078 27.1577 39.5538 28.3477 39.5538C29.1037 39.5538 29.5797 40.0298 29.5797 41.0238V44.9998H30.9237Z" fill="#171E2B"/>
<path d="M32.5384 41.7378C32.5384 43.5998 33.4624 45.1398 35.2824 45.1398C36.6404 45.1398 37.4384 43.9218 37.5224 43.1238L37.8304 44.9998H38.6284V35.6758H37.2844V39.9318C37.0744 39.1618 36.2764 38.3358 35.1284 38.3358C33.4484 38.3358 32.5384 39.8758 32.5384 41.7378ZM33.8824 41.7378C33.8824 40.3798 34.5404 39.4278 35.5484 39.4278C36.4724 39.4278 37.2844 40.4498 37.2844 41.7378C37.2844 43.1378 36.4584 44.0478 35.5344 44.0478C34.4984 44.0478 33.8824 43.1238 33.8824 41.7378Z" fill="#171E2B"/>
<path d="M50.4238 44.9998V43.8238H45.3418V40.7858H49.3878V39.6378H45.3418V36.8518H50.3818V35.6758H43.9418V44.9998H50.4238Z" fill="#171E2B"/>
<path d="M57.265 39.5538C56.481 38.7278 55.613 38.3358 54.479 38.3358C53.037 38.3358 52.057 39.0778 52.057 40.1558C52.057 41.1638 52.449 41.8498 54.381 42.3818C55.655 42.7318 55.893 43.0678 55.893 43.4598C55.893 43.8798 55.557 44.1738 54.801 44.1738C53.807 44.1738 53.051 43.6558 52.477 43.0398L51.819 43.8098C52.379 44.4958 53.485 45.1398 54.703 45.1398C56.341 45.1398 57.209 44.3698 57.209 43.2078C57.209 42.1578 56.607 41.6818 54.955 41.1778C53.709 40.7998 53.373 40.6458 53.373 40.0578C53.373 39.5398 53.849 39.3018 54.479 39.3018C55.305 39.3018 56.019 39.7358 56.593 40.3098L57.265 39.5538Z" fill="#171E2B"/>
<path d="M62.1993 43.9918C61.9053 44.0618 61.4853 44.0898 61.1913 44.0898C60.5613 44.0898 60.4633 43.6418 60.4633 43.2218V39.3578H62.1573V38.4758H60.4633V36.4458L59.1193 36.6278V38.4758H57.9993V39.3578H59.1193V43.2218C59.1193 44.3558 59.5953 45.1398 60.8693 45.1398C61.3453 45.1398 61.9053 45.0278 62.1853 44.8598L62.1993 43.9918Z" fill="#171E2B"/>
</svg>
