<svg width="166" height="54" viewBox="0 0 166 54" fill="none" xmlns="http://www.w3.org/2000/svg">
<path d="M148.972 13.0632C149.663 11.5011 150.406 10.0985 151.49 8.90441C153.07 7.16648 154.96 6.22236 157.364 6.39514C159.011 6.51372 160.56 6.87461 161.916 7.84632C163.525 8.99591 164.453 10.6147 164.99 12.4897C165.435 14.0492 165.608 15.6502 165.615 17.2644C165.633 21.4508 165.622 25.6376 165.621 29.8245C165.621 30.4783 165.61 30.489 164.975 30.489C162.193 30.489 159.411 30.489 156.63 30.489C156.021 30.489 156.004 30.4701 156.003 29.8496C156.003 25.723 156.011 21.5964 155.994 17.4699C155.994 16.8892 155.943 16.2881 155.787 15.7319C155.385 14.3007 153.995 13.81 152.722 14.5777C152.094 14.9565 151.674 15.5055 151.33 16.1337C150.566 17.5297 150.238 19.0565 150.011 20.6125C149.59 23.5174 149.781 26.4427 149.74 29.3599C149.723 30.6317 149.897 30.4845 148.612 30.487C145.996 30.4928 143.379 30.4928 140.762 30.487C140.115 30.487 140.105 30.4763 140.105 29.8348C140.105 25.7532 140.109 21.6716 140.098 17.5905C140.1 17.079 140.052 16.5686 139.957 16.0662C139.53 13.9076 137.806 13.9439 136.58 14.6391C135.683 15.1472 135.211 16.0136 134.856 16.9347C134.306 18.3398 134.002 19.8302 133.957 21.3398C133.875 24.1512 133.876 26.9687 133.846 29.7832C133.838 30.486 133.843 30.487 133.147 30.4875C130.784 30.4875 128.421 30.4875 126.059 30.4875C125.404 30.4875 125.394 30.4783 125.394 29.8419C125.394 22.3719 125.394 14.9018 125.394 7.43176C125.394 6.81429 125.414 6.79384 126.021 6.79282C127.352 6.79282 128.683 6.80356 130.014 6.78618C130.415 6.78056 130.592 6.91498 130.669 7.32697C130.991 9.05826 131.348 10.7829 131.691 12.5101C131.706 12.5842 131.697 12.6732 131.736 12.7294C131.829 12.8628 131.939 13.0729 132.051 13.0806C132.173 13.0882 132.371 12.9272 132.426 12.7928C132.961 11.4868 133.652 10.2743 134.577 9.21469C135.985 7.60045 137.743 6.63589 139.888 6.41967C144.133 5.99132 147.469 8.83438 148.771 12.5162C148.825 12.6706 148.883 12.8229 148.972 13.0632Z" fill="white"/>
<path d="M111.513 25.9224C111.398 26.0931 111.31 26.1892 111.259 26.3016C109.974 29.1201 107.752 30.5345 104.721 30.7794C102.99 30.9189 101.313 30.7451 99.7362 29.9835C97.7072 29.0031 96.7099 27.3025 96.5912 25.0882C96.439 22.2155 97.7234 20.2541 100.369 19.1695C101.619 18.6562 102.947 18.3633 104.295 18.3036C105.771 18.2366 107.253 18.2898 108.732 18.3266C109.417 18.3434 110.102 18.4584 110.785 18.4968C110.886 18.5024 111.097 18.3301 111.095 18.2443C111.058 16.833 111.134 15.3992 110.909 14.016C110.462 11.2701 108.462 10.5442 106.055 11.1295C104.373 11.5384 103.626 12.8209 103.958 14.5542C104.024 14.9023 104.016 15.1027 103.597 15.1916C101.754 15.5827 99.9168 16.0023 98.079 16.421C97.7965 16.4854 97.5773 16.4869 97.4794 16.1536C96.7469 13.649 96.888 10.7354 99.1711 8.76897C100.252 7.83713 101.527 7.28201 102.892 6.95231C105.751 6.26072 108.642 6.14571 111.515 6.7867C115.405 7.65567 117.653 10.1476 118.223 14.1249C118.341 14.9739 118.403 15.83 118.407 16.6873C118.431 19.218 118.407 21.7477 118.424 24.2795C118.426 24.685 118.487 25.0881 118.602 25.4766C118.842 26.2756 119.482 26.7356 120.313 26.7545C120.642 26.7603 120.97 26.7451 121.297 26.709C121.532 26.684 121.64 26.7683 121.641 26.9973C121.641 27.7354 121.659 28.474 121.628 29.2111C121.621 29.3727 121.476 29.569 121.336 29.6778C120.553 30.3071 119.634 30.6097 118.648 30.7114C117.249 30.8555 115.867 30.7763 114.534 30.2846C112.835 29.6579 112.019 28.3396 111.745 26.6104C111.721 26.4616 111.694 26.3139 111.657 26.1682C111.649 26.1161 111.605 26.0711 111.513 25.9224ZM111.078 20.5976C109.17 20.7275 107.312 20.8732 105.581 21.6711C104.979 21.9491 104.442 22.3259 104.085 22.9209C103.071 24.6143 103.848 26.6523 105.658 26.9043C107.788 27.2008 109.598 26.3763 110.533 24.3659C111.084 23.1775 111.195 21.9277 111.078 20.5976Z" fill="white"/>
<path d="M69.8302 18.6849C69.8302 14.9653 69.8302 11.2453 69.8302 7.52476C69.8302 6.87099 69.8327 6.86996 70.4769 6.86792C70.9259 6.86792 71.3753 6.88582 71.8227 6.8623C72.188 6.84339 72.3508 6.96198 72.4101 7.34944C72.681 9.10424 72.9833 10.8544 73.2725 12.6057C73.2897 12.7079 73.2841 12.826 73.3308 12.9124C73.3993 13.0432 73.5048 13.1541 73.5951 13.2737C73.7057 13.1572 73.865 13.0606 73.9203 12.9216C74.3037 11.9601 74.5893 10.9511 75.0504 10.031C76.0523 8.03234 77.7557 6.95277 79.912 6.56429C81.4987 6.27805 83.0931 6.20955 84.6803 6.5551C87.6564 7.20376 89.4826 9.08839 90.2059 12.0178C90.4925 13.1701 90.6457 14.3519 90.6625 15.5397C90.7132 20.2531 90.6833 24.9675 90.6827 29.6819C90.6827 30.487 90.6828 30.4875 89.862 30.4875C88.8603 30.4875 87.8583 30.4875 86.856 30.4875C86.1783 30.4875 86.1742 30.4839 86.1737 29.8143C86.1737 25.1151 86.1737 20.4158 86.1737 15.7166C86.1737 14.6339 85.9814 13.5886 85.4823 12.6179C84.7214 11.1417 83.4695 10.4338 81.863 10.3402C79.4306 10.1981 77.7897 11.4786 76.5773 13.4419C75.3649 15.4053 74.8186 17.5859 74.5396 19.8447C74.1338 23.1268 74.3017 26.4284 74.2718 29.7228C74.2647 30.487 74.2718 30.4895 73.5023 30.4895C72.4999 30.4895 71.4979 30.4895 70.4962 30.4895C69.8343 30.4895 69.8317 30.486 69.8317 29.8005C69.8304 26.0953 69.8298 22.3901 69.8302 18.6849Z" fill="white"/>
<path d="M43.1746 18.5295C43.1391 16.5498 43.4455 14.6289 44.1831 12.7882C45.4461 9.63384 47.7171 7.61273 50.9925 6.79897C53.8043 6.10022 56.6013 6.15491 59.2928 7.33824C61.332 8.23481 62.6407 9.80815 63.2398 11.9729C63.3067 12.2152 63.2773 12.3747 63.012 12.4605C62.3567 12.6717 61.7033 12.8879 61.0555 13.1204C60.7263 13.2385 60.6609 13.0259 60.5356 12.8015C60.0922 12.0061 59.7012 11.1632 59.1472 10.4502C58.1099 9.1186 56.6672 8.427 55.008 8.27774C53.1626 8.11162 51.4308 8.50316 49.9242 9.64355C48.6907 10.5688 47.7599 11.8446 47.2515 13.307C45.9534 16.9874 45.8773 20.6677 47.6126 24.2335C48.9092 26.8977 51.0366 28.5508 54.0138 28.885C57.3495 29.2597 60.1278 27.9113 61.3416 24.3276C61.4867 23.9003 61.6739 23.8282 62.0604 23.9733C62.4801 24.1332 62.909 24.2672 63.3448 24.3746C63.7811 24.4799 63.8703 24.6721 63.7349 25.1142C62.8081 28.1301 60.8369 29.9626 57.7396 30.5289C54.9786 31.0334 52.2637 30.9322 49.6478 29.8082C46.9278 28.6392 45.0921 26.6094 44.0608 23.8374C43.3816 22.012 43.1751 20.6585 43.1746 18.5295Z" fill="white"/>
<path d="M20.3038 18.733C17.6721 18.733 15.0406 18.733 12.4093 18.733C11.8117 18.733 11.7965 18.7473 11.797 19.3326C11.797 22.8989 13.2853 25.7527 15.9632 28.0069C16.7504 28.6714 17.698 29.0727 18.6922 29.3308C20.0126 29.6771 21.3921 29.7295 22.7346 29.4842C25.0609 29.065 26.5389 27.7116 27.1685 25.424C27.338 24.8106 27.3461 24.8106 27.9294 25.0023C28.1572 25.0764 28.3804 25.1685 28.6127 25.2237C28.9987 25.3157 29.0565 25.5263 28.949 25.8882C28.3677 27.8469 27.0752 29.1458 25.2425 29.9191C23.4848 30.6608 21.6409 30.8178 19.7483 30.7017C18.1626 30.6041 16.6338 30.2928 15.1957 29.6165C12.7228 28.4511 11.0361 26.5307 10.1829 23.9427C8.95282 20.2179 8.92797 16.4624 10.4173 12.8077C11.9619 9.01845 14.8563 6.94621 18.8992 6.5056C20.9282 6.28426 22.8974 6.49179 24.7687 7.35974C26.7896 8.29669 28.0152 9.91552 28.6371 12.0246C29.2458 14.0855 29.2108 16.1813 28.9262 18.2878C28.8714 18.6931 28.6218 18.7376 28.2891 18.7366C25.627 18.7301 22.9652 18.7289 20.3038 18.733ZM19.235 17.6233C21.5684 17.6233 23.8992 17.6166 26.2306 17.6299C26.5928 17.6299 26.7932 17.5348 26.8348 17.151C26.9829 15.7708 27.1006 14.3907 26.8302 13.0208C26.4472 11.0861 25.5428 9.44985 23.8252 8.40147C20.7816 6.5429 16.6586 7.37251 14.4784 10.2416C12.9652 12.2311 11.9335 14.4112 11.7676 16.9552C11.724 17.6263 11.6885 17.6248 12.3738 17.6253L19.235 17.6233Z" fill="white"/>
<path d="M1.92415 15.255C1.92415 20.1035 1.92415 24.9517 1.92415 29.7995C1.92415 30.4758 1.91756 30.487 1.25152 30.4814C-0.207866 30.4686 0.012288 30.6552 0.0112735 29.2465C0.00451005 19.7911 0.00350494 10.3358 0.00823937 0.880798C0.00823937 0.715183 0.0143265 0.549569 0.00823937 0.383954C0.00113772 0.12122 0.12034 -0.00350329 0.384623 7.48142e-05C0.773184 0.00552716 1.16208 0.00552716 1.55132 7.48142e-05C1.82321 -0.00350329 1.92416 0.141664 1.92112 0.394687C1.92112 0.544967 1.92112 0.695762 1.92112 0.846043C1.92315 5.64922 1.92415 10.4522 1.92415 15.255Z" fill="white"/>
<path d="M10.2538 42.7658C9.71989 41.1593 8.24384 39.9465 6.04546 39.9465C2.73219 39.9465 0.706543 42.0885 0.706543 45.3803C0.706543 48.3255 2.35533 50.814 5.82562 50.814C7.77276 50.814 8.87195 49.6328 9.21741 48.483L9.34303 50.625H10.4579V45.1755H6.75208V46.53H8.90335C8.90335 48.1365 7.72565 49.4595 5.93554 49.4595C3.59584 49.4595 2.33962 47.8373 2.33962 45.3803C2.33962 42.75 3.81568 41.3168 6.12398 41.3168C7.47441 41.3168 8.44798 42.12 8.82484 43.3485L10.2538 42.7658Z" fill="#F0F2F4"/>
<path d="M16.4578 43.128C15.1545 43.128 14.4165 44.262 14.3066 46.2623L13.8826 43.2855H12.9718V50.625H14.4793V48.9555C14.4793 46.9238 14.9347 44.3723 16.0653 44.3723C16.5677 44.3723 16.7248 44.7188 16.7248 45.144C16.7248 45.6323 16.5363 46.152 16.395 46.4985L17.7297 46.4355C17.9967 45.8843 18.1223 45.333 18.1223 44.8448C18.1223 43.8525 17.5727 43.128 16.4578 43.128Z" fill="#F0F2F4"/>
<path d="M26.5523 49.6485C26.4424 49.68 26.3639 49.7115 26.1598 49.7115C25.5631 49.7115 25.4688 49.3493 25.4688 48.861V46.152C25.4688 44.388 24.6994 43.128 22.4853 43.128C20.5539 43.128 19.3762 44.1045 19.3762 45.4118C19.3762 45.7268 19.4547 46.0733 19.596 46.4198L20.9465 45.8843C20.8365 45.6795 20.7894 45.459 20.7894 45.2858C20.7894 44.64 21.4175 44.262 22.4382 44.262C23.5374 44.262 23.9614 44.8763 23.9614 45.9473V46.782C23.506 46.7348 23.0663 46.7033 22.6738 46.7033C20.6167 46.7033 19.3291 47.3648 19.3291 48.8453C19.3291 50.0738 20.2241 50.7825 21.5903 50.7825C22.925 50.7825 23.6787 50.247 24.1341 49.239C24.1498 50.2155 24.7308 50.751 25.7358 50.751C26.1127 50.751 26.4267 50.5778 26.5523 50.436V49.6485ZM23.9614 47.5853C23.9614 48.924 23.0977 49.743 21.8415 49.743C21.1349 49.743 20.8365 49.365 20.8365 48.9083C20.8365 48.0578 21.4804 47.6483 23.9614 47.5065V47.5853Z" fill="#F0F2F4"/>
<path d="M34.6847 50.625V46.0418C34.6847 44.2778 33.8211 43.128 32.1252 43.128C30.5706 43.128 29.6285 44.4353 29.4557 46.026L29.0789 43.2855H28.1838V50.625H29.6913V48.4043C29.6913 46.2465 30.4607 44.4983 31.7954 44.4983C32.6434 44.4983 33.1773 45.0338 33.1773 46.152V50.625H34.6847Z" fill="#F0F2F4"/>
<path d="M36.4958 46.9553C36.4958 49.05 37.5322 50.7825 39.5736 50.7825C41.0967 50.7825 41.9918 49.4123 42.086 48.5145L42.4314 50.625H43.3265V40.1355H41.819V44.9235C41.5835 44.0573 40.6884 43.128 39.4008 43.128C37.5165 43.128 36.4958 44.8605 36.4958 46.9553ZM38.0033 46.9553C38.0033 45.4275 38.7413 44.3565 39.8719 44.3565C40.9083 44.3565 41.819 45.5063 41.819 46.9553C41.819 48.5303 40.8926 49.554 39.8562 49.554C38.6942 49.554 38.0033 48.5145 38.0033 46.9553Z" fill="#F0F2F4"/>
<path d="M56.5565 50.625V49.302H50.8564V45.8843H55.3945V44.5928H50.8564V41.4585H56.5094V40.1355H49.2862V50.625H56.5565Z" fill="#F0F2F4"/>
<path d="M64.2297 44.4983C63.3504 43.569 62.3768 43.128 61.1049 43.128C59.4875 43.128 58.3883 43.9628 58.3883 45.1755C58.3883 46.3095 58.828 47.0813 60.995 47.6798C62.4239 48.0735 62.6909 48.4515 62.6909 48.8925C62.6909 49.365 62.314 49.6958 61.4661 49.6958C60.3512 49.6958 59.5032 49.113 58.8594 48.42L58.1214 49.2863C58.7495 50.058 59.99 50.7825 61.3561 50.7825C63.1934 50.7825 64.1669 49.9163 64.1669 48.609C64.1669 47.4278 63.4917 46.8923 61.6388 46.3253C60.2413 45.9 59.8644 45.7268 59.8644 45.0653C59.8644 44.4825 60.3983 44.2148 61.1049 44.2148C62.0314 44.2148 62.8322 44.703 63.476 45.3488L64.2297 44.4983Z" fill="#F0F2F4"/>
<path d="M69.7641 49.491C69.4343 49.5698 68.9632 49.6013 68.6335 49.6013C67.9269 49.6013 67.8169 49.0973 67.8169 48.6248V44.2778H69.717V43.2855H67.8169V41.0018L66.3095 41.2065V43.2855H65.0533V44.2778H66.3095V48.6248C66.3095 49.9005 66.8434 50.7825 68.2723 50.7825C68.8062 50.7825 69.4343 50.6565 69.7484 50.4675L69.7641 49.491Z" fill="#F0F2F4"/>
</svg>
